<svg width="70" height="70" viewBox="0 0 70 70" fill="none" xmlns="http://www.w3.org/2000/svg">
<circle cx="35" cy="35" r="35" fill="#F25287" fill-opacity="0.5"/>
<path d="M30.4777 39.8024L25.4569 40.1108C25.4569 40.1108 16.5486 29.5023 23.3155 18.2578C28.3036 9.97172 37.3184 11.7782 41.7158 13.301C41.7158 13.301 46.6203 12.8619 47.4846 20.0577C48.349 27.2534 45.8648 36.152 40.4118 40.8302L30.4777 39.8024Z" fill="#414451"/>
<path d="M41.9571 45.7846L38.9727 51.1975L33.2102 51.8516L28.2082 49.8608L27.5605 45.1312L28.8219 41.674L29.1804 40.6539C29.4516 40.3711 29.6355 40.0224 29.7117 39.6464C29.7755 39.414 29.8217 39.1776 29.85 38.939C29.876 38.7459 29.8973 38.5483 29.9077 38.3426C29.9655 37.2002 29.9192 36.0553 29.7693 34.9206C29.7693 34.9206 40.9487 30.0181 40.4422 34.9206C39.9356 39.8231 40.9343 40.3582 40.9343 40.3582L41.9571 45.7846Z" fill="#F4BB87"/>
<path d="M28.167 45.6134C28.167 45.6134 33.8413 48.2896 42.4345 45.6134V57H30.1666L28.167 45.6134Z" fill="#003761"/>
<path d="M38.9362 19.4601C38.9362 19.4601 38.6124 20.7623 36.4526 21.1399C35.4486 21.3385 34.4639 21.6173 33.5091 21.9735C31.0282 22.8349 29.0131 24.6069 27.9142 26.8935C27.0721 28.7499 26.7522 30.7832 26.9859 32.7931C26.9859 32.7931 30.6941 38.7569 35.1572 38.7224C39.6202 38.6878 43.3976 32.9984 44.0476 31.0794C44.0476 31.0794 45.2353 31.165 45.8294 29.4683C46.121 28.7041 46.2644 27.8959 46.2529 27.0829C46.2471 26.874 46.1672 26.6731 46.0265 26.5128C45.5812 26.0696 44.903 25.9189 44.2977 26.1287C44.2977 26.1285 40.2679 24.6013 38.9362 19.4601Z" fill="#FED19A"/>
<path d="M40.9395 40.3552L36.9058 56.9994H52.4518C53.4804 56.9994 54.3143 56.2053 54.3143 55.2258V50.3512C54.3142 46.0331 50.7742 42.4659 46.2468 42.222L44.1844 42.1123C43.0204 42.0495 41.938 41.5234 41.2017 40.6625L40.9395 40.3552Z" fill="#E1EFFB"/>
<path d="M29.388 40.4116L33.4114 56.9999H17.8625C16.8339 56.9999 16 56.2058 16 55.2263V50.3517C16.0001 46.0335 19.5401 42.4664 24.0675 42.2225L26.1299 42.1128C27.2939 42.05 28.3763 41.5239 29.1125 40.663L29.388 40.4116Z" fill="#E1EFFB"/>
</svg>
