<?xml version="1.0" encoding="utf-8"?>
<!-- Generator: Adobe Illustrator 25.0.0, SVG Export Plug-In . SVG Version: 6.00 Build 0)  -->
<svg version="1.1" id="Layer_1" xmlns="http://www.w3.org/2000/svg" xmlns:xlink="http://www.w3.org/1999/xlink" x="0px" y="0px"
	 viewBox="0 0 70 70" style="enable-background:new 0 0 70 70;" xml:space="preserve">
<style type="text/css">
	.st0{fill:#EB9BB5;}
	.st1{fill:#414451;}
	.st2{fill:#F4BB87;}
	.st3{fill:#003761;}
	.st4{fill:#FED19A;}
	.st5{fill:#E1EFFB;}
</style>
<circle class="st0" cx="35" cy="35.1" r="35"/>
<path class="st1" d="M30.5,39.8l-5,0.3c0,0-8.9-10.6-2.1-21.9c5-8.3,14-6.5,18.4-5c0,0,4.9-0.4,5.8,6.8c0.9,7.2-1.6,16.1-7.1,20.8
	L30.5,39.8z"/>
<path class="st2" d="M42,45.8l-3,5.4l-5.8,0.7l-5-2l-0.6-4.7l1.3-3.5l0.4-1c0.3-0.3,0.5-0.6,0.5-1c0.1-0.2,0.1-0.5,0.1-0.7
	c0-0.2,0-0.4,0.1-0.6c0.1-1.1,0-2.3-0.1-3.4c0,0,11.2-4.9,10.7,0c-0.5,4.9,0.5,5.4,0.5,5.4L42,45.8z"/>
<path class="st3" d="M28.2,45.6c0,0,5.7,2.7,14.3,0V57H30.2L28.2,45.6z"/>
<path class="st4" d="M38.9,19.5c0,0-0.3,1.3-2.5,1.7c-1,0.2-2,0.5-2.9,0.8c-2.5,0.9-4.5,2.6-5.6,4.9c-0.8,1.9-1.2,3.9-0.9,5.9
	c0,0,3.7,6,8.2,5.9c4.5,0,8.2-5.7,8.9-7.6c0,0,1.2,0.1,1.8-1.6c0.3-0.8,0.4-1.6,0.4-2.4c0-0.2-0.1-0.4-0.2-0.6
	c-0.4-0.4-1.1-0.6-1.7-0.4C44.3,26.1,40.3,24.6,38.9,19.5z"/>
<path class="st5" d="M40.9,40.4l-4,16.6h15.5c1,0,1.9-0.8,1.9-1.8v-4.9c0-4.3-3.5-7.9-8.1-8.1l-2.1-0.1c-1.2-0.1-2.2-0.6-3-1.4
	L40.9,40.4z"/>
<path class="st5" d="M29.4,40.4l4,16.6H17.9c-1,0-1.9-0.8-1.9-1.8v-4.9c0-4.3,3.5-7.9,8.1-8.1l2.1-0.1c1.2-0.1,2.2-0.6,3-1.4
	L29.4,40.4z"/>
</svg>
