<svg width="70" height="70" viewBox="0 0 70 70" fill="none" xmlns="http://www.w3.org/2000/svg">
<circle cx="35" cy="35" r="35" fill="#02B0F0" fill-opacity="0.5"/>
<path d="M38.0097 43.6815L42.7896 39.192L40.8919 38.8394C39.9759 38.6554 39.317 37.5928 39.317 36.6585V32.4951H34.8788H30.4407V36.6585C30.4407 37.5928 29.7817 38.6553 28.8658 38.8394L26.968 39.192L31.748 43.6815C33.5079 45.3347 36.2497 45.3347 38.0097 43.6815Z" fill="#F4BB87"/>
<path d="M40.4194 38.6112L34.8787 42.7524L29.338 38.6111C29.0409 38.3891 28.6561 38.3212 28.301 38.4284L18.9925 41.237C17.991 41.5392 17.2466 42.3819 17.0705 43.4132L15.0197 55.4194C14.8785 56.2456 15.515 57 16.3531 57H53.4043C54.2425 57 54.8789 56.2456 54.7378 55.4194L52.687 43.4132C52.5109 42.3819 51.7666 41.5392 50.765 41.237L41.4565 38.4284C41.1014 38.3213 40.7165 38.3891 40.4194 38.6112Z" fill="white"/>
<path d="M28.3008 38.4285L26.6995 38.9116L30.2336 43.8571C30.5118 44.2463 31.0231 44.3902 31.4635 44.2032L34.8786 42.7525L29.3378 38.6112C29.0408 38.3891 28.6559 38.3214 28.3008 38.4285Z" fill="white"/>
<path d="M38.294 44.2031C38.7344 44.3903 39.2457 44.2464 39.5238 43.857L43.058 38.9116L43.0495 38.9091L41.4566 38.4285C41.1016 38.3213 40.7167 38.3892 40.4196 38.6112L34.8789 42.7524L38.294 44.2031Z" fill="white"/>
<path d="M34.8782 42.7523L32.1926 43.8932L33.7626 45.7183H35.9938L37.5638 43.8932L34.8782 42.7523Z" fill="#003761"/>
<path d="M35.9943 45.7181H34.8787H33.7631L31.7026 56.9999H38.0547L35.9943 45.7181Z" fill="#003761"/>
<path d="M34.8787 54.9055C34.8787 54.9055 28.6561 38.3213 28.301 38.4285L18.9925 41.237C17.991 41.5392 17.2466 42.382 17.0705 43.4132L15.0197 55.4194C14.8785 56.2457 15.515 57 16.3531 57H53.4043C54.2425 57 54.8789 56.2457 54.7378 55.4194L52.687 43.4132C52.5109 42.382 51.7666 41.5392 50.765 41.237L41.4565 38.4284C41.1014 38.3213 34.8787 54.9055 34.8787 54.9055Z" fill="#B9DFFF"/>
<path d="M27.0459 26.3708V23.8308H25.4966C24.7598 23.8308 24.1626 24.428 24.1626 25.1648V26.1966C24.1626 26.9333 24.7598 27.5306 25.4966 27.5306H27.0459V26.3708Z" fill="#FED19A"/>
<path d="M44.2603 23.8308H42.7109V26.3708V27.5306H44.2603C44.9971 27.5306 45.5943 26.9333 45.5943 26.1966V25.1648C45.5943 24.4281 44.9971 23.8308 44.2603 23.8308Z" fill="#FED19A"/>
<path d="M40.5738 15.1799C39.2376 14.0294 37.3594 14.1041 34.8784 14.0764C32.3974 14.1041 30.5192 14.0293 29.183 15.1798C27.4788 16.6472 26.5554 18.8265 26.5554 21.0755V27.6129C26.5554 29.8619 29.3821 35.8273 34.8783 35.8273C40.3745 35.8273 43.2012 29.8619 43.2012 27.6129V21.0756C43.2013 18.8266 42.278 16.6473 40.5738 15.1799Z" fill="#FED19A"/>
<path d="M39.8859 12H34.8788H29.8718C27.2951 12 25.2063 14.0888 25.2063 16.6655V24.3245C25.2063 24.3245 26.491 24.2955 27.3166 25.1125C27.4885 25.2826 27.7806 25.1583 27.7806 24.9164V18.6495C27.7806 17.5107 28.7039 16.5874 29.8428 16.5874H31.7166C32.2081 16.5874 32.6844 16.7573 33.0649 17.0683L33.2486 17.2186C33.7087 17.5947 34.2845 17.8001 34.8787 17.8001C35.4729 17.8001 36.0488 17.5946 36.5089 17.2186L36.6926 17.0683C37.0731 16.7573 37.5495 16.5874 38.0409 16.5874H39.9147C41.0536 16.5874 41.9769 17.5107 41.9769 18.6495V24.9165C41.9769 25.1584 42.269 25.2827 42.4409 25.1126C43.2665 24.2955 44.5512 24.3246 44.5512 24.3246V16.6655C44.5513 14.0888 42.4625 12 39.8859 12Z" fill="#414451"/>
<path d="M39.8858 12H35.4055C37.9581 12 40.0307 14.0502 40.0692 16.5937C41.1359 16.6727 41.9769 17.5626 41.9769 18.6495V24.9165C41.9769 25.1584 42.2691 25.2827 42.441 25.1126C43.2665 24.2955 44.5512 24.3246 44.5512 24.3246V16.6655C44.5512 14.0888 42.4624 12 39.8858 12Z" fill="#414451"/>
</svg>
