<?xml version="1.0" encoding="utf-8"?>
<!-- Generator: Adobe Illustrator 25.0.0, SVG Export Plug-In . SVG Version: 6.00 Build 0)  -->
<svg version="1.1" id="Layer_1" xmlns="http://www.w3.org/2000/svg" xmlns:xlink="http://www.w3.org/1999/xlink" x="0px" y="0px"
	 viewBox="0 0 70 70" style="enable-background:new 0 0 70 70;" xml:space="preserve">
<style type="text/css">
	.st0{fill:#73CAEA;}
	.st1{fill:#F4BB87;}
	.st2{fill:#FFFFFF;}
	.st3{fill:#003761;}
	.st4{fill:#B9DFFF;}
	.st5{fill:#FED19A;}
	.st6{fill:#414451;}
</style>
<circle class="st0" cx="35" cy="35" r="35"/>
<path class="st1" d="M38,43.7l4.8-4.5l-1.9-0.4c-0.9-0.2-1.6-1.2-1.6-2.2v-4.2h-4.4h-4.4v4.2c0,0.9-0.7,2-1.6,2.2L27,39.2l4.8,4.5
	C33.5,45.3,36.2,45.3,38,43.7z"/>
<path class="st2" d="M40.4,38.6l-5.5,4.1l-5.5-4.1c-0.3-0.2-0.7-0.3-1-0.2L19,41.2c-1,0.3-1.7,1.1-1.9,2.2l-2.1,12
	c-0.1,0.8,0.5,1.6,1.3,1.6h37.1c0.8,0,1.5-0.8,1.3-1.6l-2.1-12c-0.2-1-0.9-1.9-1.9-2.2l-9.3-2.8C41.1,38.3,40.7,38.4,40.4,38.6z"/>
<path class="st2" d="M28.3,38.4l-1.6,0.5l3.5,4.9c0.3,0.4,0.8,0.5,1.2,0.3l3.4-1.5l-5.5-4.1C29,38.4,28.7,38.3,28.3,38.4z"/>
<path class="st2" d="M38.3,44.2c0.4,0.2,1,0,1.2-0.3l3.5-4.9l0,0l-1.6-0.5c-0.4-0.1-0.7,0-1,0.2l-5.5,4.1L38.3,44.2z"/>
<path class="st3" d="M34.9,42.8l-2.7,1.1l1.6,1.8H36l1.6-1.8L34.9,42.8z"/>
<path class="st3" d="M36,45.7h-1.1h-1.1L31.7,57h6.4L36,45.7z"/>
<path class="st4" d="M34.9,54.9c0,0-6.2-16.6-6.6-16.5L19,41.2c-1,0.3-1.7,1.1-1.9,2.2l-2.1,12c-0.1,0.8,0.5,1.6,1.3,1.6h37.1
	c0.8,0,1.5-0.8,1.3-1.6l-2.1-12c-0.2-1-0.9-1.9-1.9-2.2l-9.3-2.8C41.1,38.3,34.9,54.9,34.9,54.9z"/>
<path class="st5" d="M27,26.4v-2.5h-1.5c-0.7,0-1.3,0.6-1.3,1.3v1c0,0.7,0.6,1.3,1.3,1.3H27V26.4z"/>
<path class="st5" d="M44.3,23.8h-1.5v2.5v1.2h1.5c0.7,0,1.3-0.6,1.3-1.3v-1C45.6,24.4,45,23.8,44.3,23.8z"/>
<path class="st5" d="M40.6,15.2c-1.3-1.2-3.2-1.1-5.7-1.1c-2.5,0-4.4,0-5.7,1.1c-1.7,1.5-2.6,3.6-2.6,5.9v6.5c0,2.2,2.8,8.2,8.3,8.2
	s8.3-6,8.3-8.2v-6.5C43.2,18.8,42.3,16.6,40.6,15.2z"/>
<path class="st6" d="M39.9,12h-5h-5c-2.6,0-4.7,2.1-4.7,4.7v7.7c0,0,1.3,0,2.1,0.8c0.2,0.2,0.5,0,0.5-0.2v-6.3
	c0-1.1,0.9-2.1,2.1-2.1h1.9c0.5,0,1,0.2,1.3,0.5l0.2,0.2c0.5,0.4,1,0.6,1.6,0.6s1.2-0.2,1.6-0.6l0.2-0.2c0.4-0.3,0.9-0.5,1.3-0.5
	h1.9c1.1,0,2.1,0.9,2.1,2.1v6.3c0,0.2,0.3,0.4,0.5,0.2c0.8-0.8,2.1-0.8,2.1-0.8v-7.7C44.6,14.1,42.5,12,39.9,12z"/>
<path class="st6" d="M39.9,12h-4.5c2.6,0,4.6,2.1,4.7,4.6c1.1,0.1,1.9,1,1.9,2.1v6.3c0,0.2,0.3,0.4,0.5,0.2c0.8-0.8,2.1-0.8,2.1-0.8
	v-7.7C44.6,14.1,42.5,12,39.9,12z"/>
</svg>
