<svg width="70" height="70" viewBox="0 0 70 70" fill="none" xmlns="http://www.w3.org/2000/svg">
<path d="M35 70C54.33 70 70 54.33 70 35C70 15.67 54.33 0 35 0C15.67 0 0 15.67 0 35C0 54.33 15.67 70 35 70Z" fill="#BFBFBF"/>
<path d="M38.0095 43.6815L42.7894 39.192L40.8917 38.8394C39.9757 38.6554 39.3168 37.5928 39.3168 36.6585V32.4951H34.8786H30.4405V36.6585C30.4405 37.5928 29.7815 38.6553 28.8656 38.8394L26.9678 39.192L31.7478 43.6815C33.5077 45.3347 36.2495 45.3347 38.0095 43.6815Z" fill="#F4BB87"/>
<path d="M40.4194 38.6113L34.8787 42.7525L29.338 38.6112C29.0409 38.3892 28.6561 38.3213 28.301 38.4285L18.9925 41.2371C17.991 41.5393 17.2466 42.382 17.0705 43.4133L15.0197 55.4195C14.8785 56.2457 15.515 57.0001 16.3531 57.0001H53.4043C54.2425 57.0001 54.8789 56.2457 54.7378 55.4195L52.687 43.4133C52.5109 42.382 51.7666 41.5393 50.765 41.2371L41.4565 38.4285C41.1014 38.3214 40.7165 38.3892 40.4194 38.6113Z" fill="#E7EBED"/>
<path d="M27.0459 26.3708V23.8308H25.4966C24.7598 23.8308 24.1626 24.428 24.1626 25.1648V26.1966C24.1626 26.9333 24.7598 27.5306 25.4966 27.5306H27.0459V26.3708Z" fill="#FED19A"/>
<path d="M44.2603 23.8308H42.7109V26.3708V27.5306H44.2603C44.9971 27.5306 45.5943 26.9333 45.5943 26.1966V25.1648C45.5943 24.4281 44.9971 23.8308 44.2603 23.8308Z" fill="#FED19A"/>
<path d="M40.5736 15.1799C39.2374 14.0294 37.3592 14.1041 34.8782 14.0764C32.3972 14.1041 30.519 14.0293 29.1828 15.1798C27.4786 16.6472 26.5552 18.8265 26.5552 21.0755V27.6129C26.5552 29.8619 29.3819 35.8273 34.8781 35.8273C40.3743 35.8273 43.201 29.8619 43.201 27.6129V21.0756C43.2011 18.8266 42.2778 16.6473 40.5736 15.1799Z" fill="#FED19A"/>
<path d="M39.8861 12H34.879H29.872C27.2953 12 25.2065 14.0888 25.2065 16.6655V24.3245C25.2065 24.3245 26.4912 24.2955 27.3168 25.1125C27.4887 25.2826 27.7808 25.1583 27.7808 24.9164V18.6495C27.7808 17.5107 28.7041 16.5874 29.843 16.5874H31.7168C32.2083 16.5874 32.6846 16.7573 33.0651 17.0683L33.2488 17.2186C33.7089 17.5947 34.2847 17.8001 34.8789 17.8001C35.4731 17.8001 36.049 17.5946 36.5091 17.2186L36.6928 17.0683C37.0733 16.7573 37.5497 16.5874 38.0411 16.5874H39.9149C41.0538 16.5874 41.9771 17.5107 41.9771 18.6495V24.9165C41.9771 25.1584 42.2692 25.2827 42.4411 25.1126C43.2667 24.2955 44.5514 24.3246 44.5514 24.3246V16.6655C44.5515 14.0888 42.4627 12 39.8861 12Z" fill="#414451"/>
<path d="M39.8856 12H35.4053C37.9579 12 40.0305 14.0502 40.069 16.5937C41.1357 16.6727 41.9767 17.5626 41.9767 18.6495V24.9165C41.9767 25.1584 42.2689 25.2827 42.4408 25.1126C43.2663 24.2955 44.551 24.3246 44.551 24.3246V16.6655C44.551 14.0888 42.4622 12 39.8856 12Z" fill="#414451"/>
</svg>
