<svg width="26" height="12" viewBox="0 0 26 12" fill="none" xmlns="http://www.w3.org/2000/svg">
<path d="M5.58594 2.14062L2.1875 12H0.132812L4.41406 0.625H5.72656L5.58594 2.14062ZM8.42969 12L5.02344 2.14062L4.875 0.625H6.19531L10.4922 12H8.42969ZM8.26562 7.78125V9.33594H2.07812V7.78125H8.26562ZM16.0312 6.85938H13.1328L13.1172 5.42969H15.6484C16.0755 5.42969 16.4375 5.36719 16.7344 5.24219C17.0365 5.11198 17.2656 4.92708 17.4219 4.6875C17.5781 4.44271 17.6562 4.14844 17.6562 3.80469C17.6562 3.42448 17.5833 3.11458 17.4375 2.875C17.2917 2.63542 17.0677 2.46094 16.7656 2.35156C16.4688 2.24219 16.0885 2.1875 15.625 2.1875H13.7266V12H11.7656V0.625H15.625C16.25 0.625 16.8073 0.684896 17.2969 0.804688C17.7917 0.924479 18.2109 1.11198 18.5547 1.36719C18.9036 1.61719 19.1667 1.9349 19.3438 2.32031C19.526 2.70573 19.6172 3.16406 19.6172 3.69531C19.6172 4.16406 19.5052 4.59375 19.2812 4.98438C19.0573 5.36979 18.7266 5.6849 18.2891 5.92969C17.8516 6.17448 17.3073 6.32031 16.6562 6.36719L16.0312 6.85938ZM15.9453 12H12.5156L13.3984 10.4453H15.9453C16.388 10.4453 16.7578 10.3724 17.0547 10.2266C17.3516 10.0755 17.5729 9.86979 17.7188 9.60938C17.8698 9.34375 17.9453 9.03385 17.9453 8.67969C17.9453 8.3099 17.8802 7.98958 17.75 7.71875C17.6198 7.44271 17.4141 7.23177 17.1328 7.08594C16.8516 6.9349 16.4844 6.85938 16.0312 6.85938H13.8281L13.8438 5.42969H16.7109L17.1562 5.96875C17.7812 5.98958 18.2943 6.1276 18.6953 6.38281C19.1016 6.63802 19.4036 6.96875 19.6016 7.375C19.7995 7.78125 19.8984 8.21875 19.8984 8.6875C19.8984 9.41146 19.7396 10.0182 19.4219 10.5078C19.1094 10.9974 18.6589 11.3698 18.0703 11.625C17.4818 11.875 16.7734 12 15.9453 12ZM25.4766 6.39062V7.89062H21.3438V6.39062H25.4766Z" fill="#F40505"/>
</svg>
