<svg width="16" height="13" viewBox="0 0 16 13" fill="none" xmlns="http://www.w3.org/2000/svg">
<path d="M10.2266 6V6.625C10.2266 7.48438 10.1146 8.25521 9.89062 8.9375C9.66667 9.61979 9.34635 10.2005 8.92969 10.6797C8.51823 11.1589 8.02344 11.526 7.44531 11.7812C6.86719 12.0312 6.22656 12.1562 5.52344 12.1562C4.82552 12.1562 4.1875 12.0312 3.60938 11.7812C3.03646 11.526 2.53906 11.1589 2.11719 10.6797C1.69531 10.2005 1.36719 9.61979 1.13281 8.9375C0.903646 8.25521 0.789062 7.48438 0.789062 6.625V6C0.789062 5.14062 0.903646 4.3724 1.13281 3.69531C1.36198 3.01302 1.6849 2.43229 2.10156 1.95312C2.52344 1.46875 3.02083 1.10156 3.59375 0.851562C4.17188 0.596354 4.8099 0.46875 5.50781 0.46875C6.21094 0.46875 6.85156 0.596354 7.42969 0.851562C8.00781 1.10156 8.50521 1.46875 8.92188 1.95312C9.33854 2.43229 9.65885 3.01302 9.88281 3.69531C10.112 4.3724 10.2266 5.14062 10.2266 6ZM8.26562 6.625V5.98438C8.26562 5.34896 8.20312 4.78906 8.07812 4.30469C7.95833 3.8151 7.77865 3.40625 7.53906 3.07812C7.30469 2.74479 7.01562 2.49479 6.67188 2.32812C6.32812 2.15625 5.9401 2.07031 5.50781 2.07031C5.07552 2.07031 4.6901 2.15625 4.35156 2.32812C4.01302 2.49479 3.72396 2.74479 3.48438 3.07812C3.25 3.40625 3.07031 3.8151 2.94531 4.30469C2.82031 4.78906 2.75781 5.34896 2.75781 5.98438V6.625C2.75781 7.26042 2.82031 7.82292 2.94531 8.3125C3.07031 8.80208 3.2526 9.21615 3.49219 9.55469C3.73698 9.88802 4.02865 10.1406 4.36719 10.3125C4.70573 10.4792 5.09115 10.5625 5.52344 10.5625C5.96094 10.5625 6.34896 10.4792 6.6875 10.3125C7.02604 10.1406 7.3125 9.88802 7.54688 9.55469C7.78125 9.21615 7.95833 8.80208 8.07812 8.3125C8.20312 7.82292 8.26562 7.26042 8.26562 6.625ZM15.7891 6.39062V7.89062H11.6562V6.39062H15.7891Z" fill="#F40505"/>
</svg>
