<?xml version="1.0" encoding="utf-8"?>
<!-- Generator: Adobe Illustrator 25.1.0, SVG Export Plug-In . SVG Version: 6.00 Build 0)  -->
<svg version="1.1" id="Layer_1" xmlns="http://www.w3.org/2000/svg" xmlns:xlink="http://www.w3.org/1999/xlink" x="0px" y="0px"
	 viewBox="0 0 228.7 80" style="enable-background:new 0 0 228.7 80;" xml:space="preserve">
<style type="text/css">
	.st0{fill:#0F4674;}
	.st1{fill:#3DBB96;}
</style>
<g>
	<path class="st0" d="M58.84,65.71v-5.97h0.79v5.97H58.84z"/>
	<path class="st0" d="M61.92,60.97v0.77c0.32-0.56,0.84-0.85,1.54-0.85c0.52,0,0.96,0.17,1.31,0.52c0.35,0.35,0.53,0.84,0.53,1.49
		v2.8h-0.78v-2.67c0-0.48-0.12-0.84-0.34-1.09c-0.23-0.25-0.55-0.37-0.95-0.37c-0.4,0-0.72,0.12-0.96,0.37
		c-0.23,0.25-0.35,0.61-0.35,1.09v2.67h-0.79v-4.73L61.92,60.97L61.92,60.97z"/>
	<path class="st0" d="M68.32,65.07h0.65v0.64h-0.79c-0.82,0-1.23-0.4-1.23-1.21v-2.88h-0.61v-0.64h0.61V59.8h0.79v1.17h1.22v0.64
		h-1.22v2.88c0,0.21,0.04,0.36,0.13,0.45C67.95,65.03,68.1,65.07,68.32,65.07z"/>
	<path class="st0" d="M72.03,65.79c-0.68,0-1.23-0.22-1.66-0.67c-0.42-0.45-0.64-1.04-0.64-1.78s0.21-1.32,0.65-1.77
		c0.43-0.45,0.99-0.67,1.68-0.67s1.24,0.21,1.66,0.63c0.42,0.42,0.63,0.96,0.63,1.62c0,0.17-0.01,0.32-0.04,0.47h-3.77
		c0.02,0.47,0.17,0.84,0.44,1.12c0.27,0.27,0.62,0.41,1.05,0.41c0.32,0,0.59-0.07,0.82-0.21c0.22-0.14,0.38-0.33,0.49-0.57h0.85
		c-0.15,0.41-0.41,0.75-0.77,1.03C73.03,65.65,72.58,65.79,72.03,65.79z M73.09,61.95c-0.28-0.27-0.63-0.41-1.05-0.41
		c-0.42,0-0.76,0.13-1.04,0.4c-0.28,0.27-0.43,0.63-0.46,1.1h2.97C73.51,62.59,73.37,62.22,73.09,61.95z"/>
	<path class="st0" d="M75.53,65.71v-6.38h0.79v6.38H75.53z"/>
	<path class="st0" d="M77.82,65.71v-6.38h0.79v6.38H77.82z"/>
	<path class="st0" d="M80.89,60.06c-0.1,0.1-0.23,0.15-0.38,0.15c-0.15,0-0.28-0.05-0.37-0.15c-0.1-0.1-0.15-0.23-0.15-0.38
		c0-0.15,0.05-0.28,0.15-0.38c0.1-0.1,0.23-0.15,0.37-0.15c0.15,0,0.27,0.05,0.37,0.15c0.1,0.1,0.15,0.23,0.15,0.38
		C81.04,59.83,80.99,59.96,80.89,60.06z M80.11,65.71v-4.73h0.79v4.73H80.11L80.11,65.71z"/>
	<path class="st0" d="M82.74,65.09c-0.43-0.46-0.65-1.05-0.65-1.78s0.21-1.31,0.64-1.75c0.43-0.44,0.97-0.67,1.62-0.67
		c0.4,0,0.75,0.09,1.06,0.28c0.3,0.19,0.53,0.44,0.69,0.74v-0.95h0.79v4.85c0,0.65-0.21,1.18-0.63,1.59
		c-0.42,0.41-0.95,0.62-1.59,0.62s-1.18-0.15-1.6-0.45c-0.42-0.3-0.66-0.69-0.72-1.17h0.77c0.07,0.27,0.25,0.49,0.53,0.67
		c0.28,0.18,0.62,0.27,1.03,0.27c0.41,0,0.75-0.13,1.02-0.4c0.27-0.27,0.41-0.64,0.41-1.13v-1.09c-0.15,0.31-0.38,0.56-0.69,0.75
		s-0.65,0.29-1.06,0.29C83.71,65.79,83.17,65.56,82.74,65.09z M85.63,64.63c0.31-0.32,0.47-0.75,0.47-1.28
		c0-0.53-0.16-0.96-0.47-1.28c-0.31-0.32-0.69-0.48-1.13-0.48c-0.44,0-0.82,0.15-1.13,0.47c-0.31,0.31-0.47,0.73-0.47,1.27
		s0.16,0.97,0.47,1.3s0.69,0.5,1.13,0.5C84.94,65.11,85.31,64.95,85.63,64.63z"/>
	<path class="st0" d="M90.38,65.79c-0.68,0-1.23-0.22-1.66-0.67c-0.42-0.45-0.64-1.04-0.64-1.78s0.21-1.32,0.65-1.77
		c0.43-0.45,0.99-0.67,1.68-0.67c0.69,0,1.24,0.21,1.66,0.63c0.42,0.42,0.63,0.96,0.63,1.62c0,0.17-0.01,0.32-0.04,0.47h-3.77
		c0.02,0.47,0.17,0.84,0.44,1.12c0.27,0.27,0.62,0.41,1.05,0.41c0.32,0,0.59-0.07,0.82-0.21c0.22-0.14,0.38-0.33,0.49-0.57h0.85
		c-0.15,0.41-0.41,0.75-0.77,1.03C91.39,65.65,90.93,65.79,90.38,65.79z M91.44,61.95c-0.28-0.27-0.63-0.41-1.05-0.41
		c-0.42,0-0.76,0.13-1.04,0.4c-0.28,0.27-0.43,0.63-0.46,1.1h2.97C91.87,62.59,91.73,62.22,91.44,61.95z"/>
	<path class="st0" d="M94.67,60.97v0.77c0.32-0.56,0.84-0.85,1.54-0.85c0.52,0,0.96,0.17,1.31,0.52c0.35,0.35,0.53,0.84,0.53,1.49
		v2.8h-0.78v-2.67c0-0.48-0.12-0.84-0.34-1.09c-0.23-0.25-0.55-0.37-0.95-0.37c-0.4,0-0.72,0.12-0.96,0.37
		c-0.23,0.25-0.35,0.61-0.35,1.09v2.67h-0.79v-4.73L94.67,60.97L94.67,60.97z"/>
	<path class="st0" d="M101.07,65.07h0.65v0.64h-0.79c-0.82,0-1.23-0.4-1.23-1.21v-2.88h-0.61v-0.64h0.61V59.8h0.79v1.17h1.22v0.64
		h-1.22v2.88c0,0.21,0.04,0.36,0.13,0.45C100.69,65.03,100.84,65.07,101.07,65.07z"/>
	<path class="st0" d="M105.59,65.71v-5.97h0.79v5.97H105.59z"/>
	<path class="st0" d="M108.67,60.97v0.77c0.32-0.56,0.84-0.85,1.54-0.85c0.52,0,0.96,0.17,1.31,0.52c0.35,0.35,0.53,0.84,0.53,1.49
		v2.8h-0.78v-2.67c0-0.48-0.12-0.84-0.34-1.09c-0.23-0.25-0.55-0.37-0.95-0.37s-0.72,0.12-0.96,0.37c-0.23,0.25-0.35,0.61-0.35,1.09
		v2.67h-0.79v-4.73L108.67,60.97L108.67,60.97z"/>
	<path class="st0" d="M114.3,60.97v0.77c0.32-0.56,0.84-0.85,1.54-0.85c0.52,0,0.96,0.17,1.31,0.52c0.35,0.35,0.53,0.84,0.53,1.49
		v2.8h-0.78v-2.67c0-0.48-0.12-0.84-0.34-1.09c-0.23-0.25-0.55-0.37-0.95-0.37c-0.4,0-0.72,0.12-0.96,0.37
		c-0.23,0.25-0.35,0.61-0.35,1.09v2.67h-0.79v-4.73L114.3,60.97L114.3,60.97z"/>
	<path class="st0" d="M119.49,65.11c-0.44-0.45-0.65-1.04-0.65-1.77s0.23-1.32,0.68-1.77c0.45-0.45,1.02-0.68,1.71-0.68
		c0.68,0,1.25,0.23,1.71,0.68c0.45,0.45,0.68,1.04,0.68,1.77s-0.24,1.32-0.71,1.77c-0.47,0.45-1.05,0.68-1.74,0.68
		C120.48,65.79,119.92,65.56,119.49,65.11z M121.16,65.14c0.44,0,0.83-0.16,1.15-0.48c0.33-0.32,0.49-0.76,0.49-1.32
		s-0.15-1-0.47-1.32c-0.31-0.32-0.69-0.47-1.13-0.47s-0.82,0.16-1.12,0.47c-0.3,0.32-0.45,0.76-0.45,1.32s0.14,1.01,0.43,1.32
		C120.35,64.98,120.72,65.14,121.16,65.14z"/>
	<path class="st0" d="M124.27,60.97h0.84l1.45,4l1.46-4h0.85L127,65.71h-0.89L124.27,60.97z"/>
	<path class="st0" d="M130.15,65.09c-0.43-0.46-0.65-1.05-0.65-1.78s0.21-1.31,0.64-1.75c0.43-0.44,0.97-0.67,1.62-0.67
		c0.4,0,0.75,0.09,1.06,0.28c0.3,0.19,0.53,0.44,0.69,0.74v-0.95h0.79v4.73h-0.79v-0.97c-0.15,0.31-0.38,0.56-0.69,0.75
		c-0.3,0.19-0.65,0.29-1.06,0.29C131.12,65.79,130.59,65.56,130.15,65.09z M133.04,64.63c0.31-0.32,0.47-0.75,0.47-1.28
		c0-0.53-0.16-0.96-0.47-1.28c-0.31-0.32-0.69-0.48-1.13-0.48c-0.44,0-0.82,0.15-1.13,0.47c-0.31,0.31-0.47,0.73-0.47,1.27
		s0.16,0.97,0.47,1.3s0.69,0.5,1.13,0.5C132.35,65.11,132.73,64.95,133.04,64.63z"/>
	<path class="st0" d="M137.36,65.07h0.65v0.64h-0.79c-0.82,0-1.23-0.4-1.23-1.21v-2.88h-0.61v-0.64h0.61V59.8h0.79v1.17H138v0.64
		h-1.23v2.88c0,0.21,0.04,0.36,0.13,0.45C136.99,65.03,137.15,65.07,137.36,65.07z"/>
	<path class="st0" d="M139.86,60.06c-0.1,0.1-0.23,0.15-0.38,0.15c-0.15,0-0.28-0.05-0.37-0.15c-0.1-0.1-0.15-0.23-0.15-0.38
		c0-0.15,0.05-0.28,0.15-0.38c0.1-0.1,0.23-0.15,0.37-0.15c0.15,0,0.27,0.05,0.37,0.15c0.1,0.1,0.15,0.23,0.15,0.38
		C140.02,59.83,139.97,59.96,139.86,60.06z M139.09,65.71v-4.73h0.79v4.73H139.09L139.09,65.71z"/>
	<path class="st0" d="M141.72,65.11c-0.44-0.45-0.65-1.04-0.65-1.77s0.23-1.32,0.68-1.77c0.45-0.45,1.02-0.68,1.71-0.68
		c0.68,0,1.25,0.23,1.71,0.68c0.45,0.45,0.68,1.04,0.68,1.77s-0.24,1.32-0.71,1.77c-0.47,0.45-1.05,0.68-1.74,0.68
		S142.16,65.56,141.72,65.11z M143.4,65.14c0.44,0,0.83-0.16,1.15-0.48c0.33-0.32,0.49-0.76,0.49-1.32s-0.15-1-0.47-1.32
		c-0.31-0.32-0.69-0.47-1.13-0.47c-0.45,0-0.82,0.16-1.12,0.47c-0.3,0.32-0.45,0.76-0.45,1.32s0.14,1.01,0.43,1.32
		C142.59,64.98,142.96,65.14,143.4,65.14z"/>
	<path class="st0" d="M147.83,60.97v0.77c0.32-0.56,0.84-0.85,1.54-0.85c0.52,0,0.96,0.17,1.31,0.52c0.35,0.35,0.53,0.84,0.53,1.49
		v2.8h-0.78v-2.67c0-0.48-0.12-0.84-0.34-1.09c-0.23-0.25-0.55-0.37-0.95-0.37s-0.72,0.12-0.96,0.37s-0.35,0.61-0.35,1.09v2.67
		h-0.79v-4.73L147.83,60.97L147.83,60.97z"/>
	<path class="st0" d="M152.5,62.31c0-0.4,0.17-0.73,0.5-1.01s0.76-0.41,1.28-0.41c0.53,0,0.94,0.13,1.24,0.4
		c0.3,0.27,0.46,0.63,0.49,1.1h-0.81c-0.01-0.26-0.1-0.48-0.27-0.64c-0.17-0.16-0.4-0.24-0.69-0.24c-0.29,0-0.53,0.07-0.7,0.21
		c-0.17,0.14-0.25,0.32-0.25,0.54c0,0.22,0.1,0.39,0.29,0.51c0.19,0.12,0.43,0.21,0.7,0.26c0.27,0.06,0.55,0.12,0.82,0.19
		c0.27,0.07,0.51,0.21,0.7,0.4s0.29,0.48,0.29,0.85s-0.17,0.67-0.5,0.92c-0.33,0.25-0.76,0.37-1.29,0.37c-0.53,0-0.95-0.13-1.27-0.4
		c-0.32-0.26-0.49-0.63-0.52-1.1h0.81c0.01,0.26,0.1,0.48,0.28,0.63c0.18,0.16,0.42,0.24,0.72,0.24c0.31,0,0.55-0.07,0.72-0.2
		c0.18-0.13,0.26-0.3,0.26-0.5c0-0.2-0.07-0.37-0.21-0.49c-0.14-0.12-0.31-0.2-0.52-0.25c-0.21-0.05-0.43-0.1-0.68-0.16
		c-0.25-0.06-0.47-0.13-0.68-0.2c-0.21-0.07-0.38-0.2-0.52-0.37C152.57,62.81,152.5,62.58,152.5,62.31z"/>
	<path class="st0" d="M160.23,65.71v-5.97h3.36v0.63h-2.58v2.03h2.04v0.62h-2.04v2.7L160.23,65.71L160.23,65.71z"/>
	<path class="st0" d="M165.01,65.11c-0.44-0.45-0.65-1.04-0.65-1.77s0.23-1.32,0.68-1.77c0.45-0.45,1.02-0.68,1.71-0.68
		c0.68,0,1.25,0.23,1.71,0.68c0.45,0.45,0.68,1.04,0.68,1.77s-0.24,1.32-0.71,1.77s-1.05,0.68-1.74,0.68
		C166,65.79,165.44,65.56,165.01,65.11z M166.69,65.14c0.44,0,0.83-0.16,1.15-0.48c0.33-0.32,0.49-0.76,0.49-1.32s-0.15-1-0.47-1.32
		c-0.31-0.32-0.69-0.47-1.13-0.47c-0.45,0-0.82,0.16-1.12,0.47c-0.3,0.32-0.45,0.76-0.45,1.32s0.14,1.01,0.43,1.32
		C165.88,64.98,166.25,65.14,166.69,65.14z"/>
	<path class="st0" d="M171.12,60.97v0.8c0.28-0.59,0.76-0.88,1.44-0.88v0.82h-0.21c-0.4,0-0.71,0.1-0.92,0.31
		c-0.21,0.21-0.31,0.57-0.31,1.09v2.59h-0.79v-4.73L171.12,60.97L171.12,60.97z"/>
	<path class="st0" d="M180.32,59.73h0.79v5.97h-0.79v-2.7h-3.01v2.7h-0.79v-5.97h0.79v2.66h3.01V59.73z"/>
	<path class="st0" d="M184.6,65.79c-0.68,0-1.23-0.22-1.66-0.67c-0.43-0.45-0.64-1.04-0.64-1.78s0.21-1.32,0.65-1.77
		c0.43-0.45,0.99-0.67,1.68-0.67s1.24,0.21,1.66,0.63s0.63,0.96,0.63,1.62c0,0.17-0.01,0.32-0.04,0.47h-3.77
		c0.02,0.47,0.17,0.84,0.44,1.12c0.27,0.27,0.62,0.41,1.05,0.41c0.32,0,0.59-0.07,0.82-0.21c0.22-0.14,0.38-0.33,0.49-0.57h0.85
		c-0.15,0.41-0.41,0.75-0.77,1.03C185.61,65.65,185.16,65.79,184.6,65.79z M185.66,61.95c-0.28-0.27-0.63-0.41-1.05-0.41
		s-0.76,0.13-1.04,0.4c-0.28,0.27-0.43,0.63-0.46,1.1h2.97C186.09,62.59,185.95,62.22,185.66,61.95z"/>
	<path class="st0" d="M188.44,65.09c-0.43-0.46-0.65-1.05-0.65-1.78s0.21-1.31,0.64-1.75c0.43-0.44,0.97-0.67,1.62-0.67
		c0.4,0,0.75,0.09,1.06,0.28c0.3,0.19,0.53,0.44,0.69,0.74v-0.95h0.79v4.73h-0.79v-0.97c-0.15,0.31-0.38,0.56-0.69,0.75
		c-0.3,0.19-0.65,0.29-1.06,0.29C189.41,65.79,188.87,65.56,188.44,65.09z M191.32,64.63c0.31-0.32,0.47-0.75,0.47-1.28
		c0-0.53-0.16-0.96-0.47-1.28c-0.31-0.32-0.69-0.48-1.13-0.48s-0.82,0.15-1.13,0.47c-0.31,0.31-0.47,0.73-0.47,1.27
		s0.16,0.97,0.47,1.3s0.69,0.5,1.13,0.5C190.64,65.11,191.01,64.95,191.32,64.63z"/>
	<path class="st0" d="M194.1,65.71v-6.38h0.79v6.38H194.1z"/>
	<path class="st0" d="M197.94,65.07h0.65v0.64h-0.79c-0.82,0-1.23-0.4-1.23-1.21v-2.88h-0.61v-0.64h0.61V59.8h0.79v1.17h1.23v0.64
		h-1.23v2.88c0,0.21,0.04,0.36,0.13,0.45C197.57,65.03,197.73,65.07,197.94,65.07z"/>
	<path class="st0" d="M200.45,59.33v2.41c0.32-0.56,0.84-0.85,1.54-0.85c0.52,0,0.96,0.17,1.31,0.52c0.35,0.35,0.53,0.84,0.53,1.49
		v2.8h-0.78v-2.67c0-0.48-0.12-0.84-0.34-1.09c-0.23-0.25-0.55-0.37-0.95-0.37s-0.72,0.12-0.96,0.37s-0.35,0.61-0.35,1.09v2.67
		h-0.79v-6.38L200.45,59.33L200.45,59.33z"/>
	<path class="st0" d="M205.63,65.11c-0.43-0.45-0.64-1.04-0.64-1.77s0.21-1.32,0.64-1.77c0.43-0.45,0.98-0.67,1.66-0.67
		c0.57,0,1.03,0.13,1.39,0.4c0.36,0.26,0.61,0.64,0.75,1.13h-0.85c-0.09-0.28-0.25-0.49-0.47-0.65c-0.22-0.16-0.5-0.23-0.83-0.23
		c-0.45,0-0.81,0.16-1.08,0.47c-0.27,0.31-0.41,0.75-0.41,1.33c0,0.57,0.14,1.01,0.41,1.33c0.27,0.31,0.63,0.47,1.08,0.47
		c0.67,0,1.11-0.29,1.3-0.88h0.85c-0.14,0.47-0.4,0.84-0.76,1.11c-0.37,0.28-0.83,0.41-1.38,0.41
		C206.6,65.79,206.05,65.56,205.63,65.11z"/>
	<path class="st0" d="M211.02,65.09c-0.43-0.46-0.65-1.05-0.65-1.78s0.21-1.31,0.64-1.75c0.43-0.44,0.97-0.67,1.62-0.67
		c0.4,0,0.75,0.09,1.06,0.28c0.3,0.19,0.53,0.44,0.69,0.74v-0.95h0.79v4.73h-0.79v-0.97c-0.15,0.31-0.38,0.56-0.69,0.75
		s-0.65,0.29-1.06,0.29C211.99,65.79,211.45,65.56,211.02,65.09z M213.91,64.63c0.31-0.32,0.47-0.75,0.47-1.28
		c0-0.53-0.16-0.96-0.47-1.28c-0.31-0.32-0.69-0.48-1.13-0.48s-0.82,0.15-1.13,0.47c-0.31,0.31-0.47,0.73-0.47,1.27
		s0.16,0.97,0.47,1.3s0.69,0.5,1.13,0.5C213.22,65.11,213.59,64.95,213.91,64.63z"/>
	<path class="st0" d="M217.46,60.97v0.8c0.28-0.59,0.76-0.88,1.44-0.88v0.82h-0.21c-0.4,0-0.71,0.1-0.92,0.31
		c-0.21,0.21-0.31,0.57-0.31,1.09v2.59h-0.79v-4.73L217.46,60.97L217.46,60.97z"/>
	<path class="st0" d="M222.05,65.79c-0.68,0-1.23-0.22-1.66-0.67c-0.43-0.45-0.64-1.04-0.64-1.78s0.21-1.32,0.65-1.77
		c0.43-0.45,0.99-0.67,1.68-0.67c0.69,0,1.24,0.21,1.66,0.63c0.42,0.42,0.63,0.96,0.63,1.62c0,0.17-0.01,0.32-0.04,0.47h-3.77
		c0.02,0.47,0.17,0.84,0.44,1.12c0.27,0.27,0.62,0.41,1.05,0.41c0.32,0,0.59-0.07,0.82-0.21c0.22-0.14,0.38-0.33,0.49-0.57h0.85
		c-0.15,0.41-0.41,0.75-0.77,1.03C223.06,65.65,222.6,65.79,222.05,65.79z M223.11,61.95c-0.28-0.27-0.63-0.41-1.05-0.41
		s-0.76,0.13-1.04,0.4c-0.28,0.27-0.43,0.63-0.46,1.1h2.97C223.54,62.59,223.39,62.22,223.11,61.95z"/>
</g>
<g>
	<g>
		<g>
			<path class="st0" d="M45.85,62.04v7.47H32.01v-36.8h6.09v-7.75H24.27v21.58H9.05V32.71h7.47v-7.75H8.5
				c-3.97,0-7.19,3.23-7.19,7.19V47.1c0,3.97,3.23,7.19,7.19,7.19h15.77v15.77c0,3.97,3.23,7.19,7.19,7.19H46.4
				c3.97,0,7.19-3.23,7.19-7.19v-8.02L45.85,62.04L45.85,62.04z"/>
		</g>
		<g>
			<path class="st1" d="M69.36,24.97H53.59V9.2c0-3.97-3.23-7.19-7.19-7.19H31.46c-3.97,0-7.19,3.23-7.19,7.19v8.02h7.75V9.75h13.83
				v36.8h-6.09v7.75h13.83V32.71h15.22v13.83h-7.47v7.75h8.02c3.97,0,7.19-3.23,7.19-7.19V32.15
				C76.56,28.19,73.33,24.97,69.36,24.97z"/>
		</g>
	</g>
</g>
<g>
	<path class="st0" d="M92.86,25.3v29.12h-8.45V25.3H92.86z"/>
	<path class="st0" d="M117.88,54.42h-7.79V38.63c0-1.61-0.45-2.41-1.34-2.41c-0.91,0-1.7,0.64-2.37,1.91c-0.67,1.27-1,2.78-1,4.51
		v11.78h-7.79V32.87c2.67,0,5.27-0.18,7.79-0.53v4.03c1.93-2.67,4.29-4.01,7.08-4.01c3.61,0,5.42,1.83,5.42,5.5L117.88,54.42
		L117.88,54.42z"/>
	<path class="st0" d="M133.5,32.91v2.41h-3.07v19.09h-7.79V35.32h-2.73v-2.41h2.73v-1.92c0-1.76,0.62-3.23,1.87-4.39
		c1.25-1.17,2.81-1.75,4.68-1.75c3.75,0,5.63,1.41,5.63,4.23c0,0.21-0.01,0.48-0.02,0.81l-3.69,1.3c0.2-0.74,0.3-1.32,0.3-1.75
		c0-1.51-0.53-2.26-1.58-2.26c-0.91,0-1.37,0.66-1.37,1.98c0,0.81,0.65,2.06,1.96,3.75L133.5,32.91L133.5,32.91z"/>
	<path class="st0" d="M136.14,54.42V32.93c2.43,0,5.03-0.19,7.79-0.58v22.06H136.14z M140.09,24.57c2.42,0,3.63,0.94,3.63,2.82
		c0,1.88-1.21,2.82-3.63,2.82s-3.63-0.94-3.63-2.82C136.46,25.51,137.67,24.57,140.09,24.57z"/>
	<path class="st0" d="M163.79,40.72h-5.33c0.18-0.84,0.35-1.46,0.49-1.86c0.2-0.58,0.3-1.11,0.3-1.58c0-0.91-0.33-1.37-0.98-1.37
		c-0.5,0-0.98,0.6-1.43,1.8s-0.68,2.47-0.68,3.81v12.89h-7.79v-21.5l1.51,0.02c1.79,0,3.88-0.19,6.27-0.58v3.54
		c1.27-2.36,2.82-3.54,4.65-3.54c2.5,0,3.75,1.38,3.75,4.14c0,0.72-0.12,1.56-0.36,2.5C164.11,39.38,163.98,39.95,163.79,40.72z"/>
	<path class="st0" d="M198.52,54.42h-7.79V38.27c0-1.41-0.41-2.11-1.24-2.11c-1.91,0-2.86,2.03-2.86,6.08v12.18h-7.79V38.61
		c0-1.61-0.37-2.41-1.11-2.41c-1.93,0-2.9,2.02-2.9,6.06v12.16h-7.79V32.85c2.63,0,5.23-0.18,7.79-0.53v3.71
		c1.83-2.46,4.1-3.69,6.78-3.69c2.25,0,3.92,1.16,5.01,3.48c1.74-2.35,3.9-3.52,6.51-3.52c3.58,0,5.38,1.81,5.38,5.44L198.52,54.42
		L198.52,54.42z"/>
	<path class="st0" d="M224.59,53.65c-1.91,0.74-3.76,1.11-5.57,1.11c-2.67,0-4.32-0.83-4.95-2.5c-1.29,1.74-3.16,2.6-5.59,2.6
		c-4.54,0-6.81-2.1-6.81-6.31c0-3.2,2.08-5.45,6.23-6.74c3.81-1.2,5.72-2.63,5.72-4.31c0-2.2-1.1-3.31-3.29-3.31
		c-2.53,0-3.8,1.07-3.8,3.2c0,0.67,0.2,1.55,0.6,2.64l-3.86-0.75c-0.1-0.67-0.15-1.29-0.15-1.88c0-3.41,3.12-5.12,9.34-5.12
		c5.92,0,8.87,1.59,8.87,4.78v13.06c0,1.34,0.43,2.01,1.3,2.01c0.27,0,0.67-0.15,1.2-0.45L224.59,53.65z M213.56,41.49
		c-0.48,0.55-1.05,1.02-1.69,1.39c-1.61,0.94-2.41,2.52-2.41,4.73c0,2.85,0.55,4.27,1.66,4.27c1.62,0,2.43-1.41,2.43-4.22
		L213.56,41.49L213.56,41.49z"/>
</g>
</svg>
