<svg width="39" height="30" viewBox="0 0 39 30" fill="none" xmlns="http://www.w3.org/2000/svg">
	<path d="M6.43024 21.0972C4.14714 21.0972 2.28833 22.956 2.28833 25.2391C2.28833 27.5238 4.14714 29.381 6.43024 29.381C8.71496 29.381 10.5722 27.5238 10.5722 25.2391C10.5722 22.9552 8.71496 21.0972 6.43024 21.0972Z" fill="#16C79A" />
	<path d="M32.8875 21.0972C30.6036 21.0972 28.7456 22.956 28.7456 25.2391C28.7456 27.5238 30.6036 29.381 32.8875 29.381C35.1706 29.381 37.0278 27.5238 37.0278 25.2391C37.0278 22.9552 35.1714 21.0972 32.8875 21.0972Z" fill="#16C79A" />
	<path d="M37.5985 8.00949H10.2999L7.27728 5.20754C7.27405 5.2035 7.2692 5.20108 7.26597 5.19784L2.00392 0.318064C1.52225 -0.129666 0.764987 -0.10138 0.318064 0.38191C-0.129666 0.8652 -0.10138 1.62004 0.38191 2.06858L5.23664 6.57013V21.8924C5.23664 22.5502 5.77165 23.0861 6.43031 23.0861C7.08898 23.0861 7.62399 22.551 7.62399 21.8924V20.1621H31.6948V21.8924C31.6948 22.5502 32.229 23.0861 32.8884 23.0861C33.5479 23.0861 34.0829 22.551 34.0829 21.8924V10.3968H37.6001C38.2588 10.3968 38.7938 9.86184 38.7938 9.20317C38.7922 8.54451 38.258 8.00949 37.5985 8.00949ZM7.62399 17.7755V13.7799H31.6948V17.7755H7.62399Z" fill="#16C79A" />
</svg>
