<svg width="15" height="15" viewBox="0 0 15 15" fill="none" xmlns="http://www.w3.org/2000/svg">
<g clip-path="url(#clip0)">
<path d="M14.501 3.43628C14.2015 3.12259 13.788 2.93723 13.3175 2.93723H10.9506V2.90871C10.9506 2.55225 10.808 2.21004 10.5656 1.9819C10.3232 1.73951 9.99525 1.59692 9.63878 1.59692H5.36122C4.99049 1.59692 4.66255 1.73951 4.42015 1.9819C4.17776 2.2243 4.03517 2.55225 4.03517 2.90871V2.93723H1.68251C1.21198 2.93723 0.798479 3.12259 0.499049 3.43628C0.19962 3.73571 0 4.16346 0 4.61974V11.7205C0 12.191 0.185361 12.6045 0.499049 12.904C0.798479 13.2034 1.22624 13.403 1.68251 13.403H13.3175C13.788 13.403 14.2015 13.2176 14.501 12.904C14.8004 12.6045 15 12.1768 15 11.7205V4.61974C15 4.14921 14.8146 3.73571 14.501 3.43628ZM14.2586 11.7205H14.2443C14.2443 11.9772 14.1445 12.2053 13.9734 12.3764C13.8023 12.5475 13.5741 12.6473 13.3175 12.6473H1.68251C1.42586 12.6473 1.19772 12.5475 1.02662 12.3764C0.855513 12.2053 0.755703 11.9772 0.755703 11.7205V4.61974C0.755703 4.36308 0.855513 4.13495 1.02662 3.96384C1.19772 3.79274 1.42586 3.69293 1.68251 3.69293H4.43441C4.64829 3.69293 4.81939 3.52183 4.81939 3.30795V2.89445C4.81939 2.73761 4.87643 2.59502 4.97624 2.49521C5.07605 2.3954 5.21863 2.33837 5.37548 2.33837H9.63878C9.79563 2.33837 9.93821 2.3954 10.038 2.49521C10.1378 2.59502 10.1949 2.73761 10.1949 2.89445V3.30795C10.1949 3.52183 10.366 3.69293 10.5798 3.69293H13.3317C13.5884 3.69293 13.8165 3.79274 13.9876 3.96384C14.1587 4.13495 14.2586 4.36308 14.2586 4.61974V11.7205Z" fill="white"/>
<path d="M7.50004 4.6626C6.53046 4.6626 5.64643 5.06184 5.01905 5.68922C4.37741 6.33085 3.99243 7.20063 3.99243 8.17021C3.99243 9.13979 4.39167 10.0238 5.01905 10.6512C5.66068 11.2928 6.53046 11.6778 7.50004 11.6778C8.46962 11.6778 9.35365 11.2786 9.98103 10.6512C10.6227 10.0096 11.0076 9.13979 11.0076 8.17021C11.0076 7.20063 10.6084 6.31659 9.98103 5.68922C9.35365 5.06184 8.46962 4.6626 7.50004 4.6626ZM9.43921 10.1236C8.94016 10.6084 8.25574 10.9221 7.50004 10.9221C6.74434 10.9221 6.05992 10.6084 5.56087 10.1236C5.06182 9.62459 4.76239 8.94017 4.76239 8.18447C4.76239 7.42876 5.07608 6.74435 5.56087 6.2453C6.05992 5.74625 6.74434 5.44682 7.50004 5.44682C8.25574 5.44682 8.94016 5.76051 9.43921 6.2453C9.93826 6.74435 10.2377 7.42876 10.2377 8.18447C10.2519 8.94017 9.93826 9.62459 9.43921 10.1236Z" fill="white"/>
<path d="M12.5761 6.04553C12.962 6.04553 13.2748 5.73273 13.2748 5.34686C13.2748 4.961 12.962 4.64819 12.5761 4.64819C12.1902 4.64819 11.8774 4.961 11.8774 5.34686C11.8774 5.73273 12.1902 6.04553 12.5761 6.04553Z" fill="white"/>
</g>
<defs>
<clipPath id="clip0">
<rect width="15" height="15" fill="white"/>
</clipPath>
</defs>
</svg>
