<svg width="24" height="24" viewBox="0 0 24 24" fill="none" xmlns="http://www.w3.org/2000/svg">
<path d="M12 0C5.38312 0 0 5.38312 0 12C0 18.6169 5.38312 24 12 24C18.6169 24 24 18.6169 24 12C24 5.38312 18.6169 0 12 0ZM12 22.2858C6.32849 22.2858 1.71423 17.6715 1.71423 12C1.71423 6.32849 6.32849 1.71423 12 1.71423C17.6715 1.71423 22.2858 6.32849 22.2858 12C22.2858 17.6715 17.6715 22.2858 12 22.2858Z" fill="#FEFEFE"/>
<path d="M16.286 6.85693C16.0667 6.85693 15.8473 6.94061 15.6799 7.10815L7.1086 15.6795C6.7737 16.0144 6.7737 16.5568 7.1086 16.8915C7.44331 17.2262 7.98586 17.2264 8.32057 16.8915L16.8919 8.32012C17.2268 7.98522 17.2268 7.44286 16.8919 7.10815C16.7246 6.94061 16.5054 6.85693 16.286 6.85693Z" fill="#FEFEFE"/>
<path d="M7.71449 6.85698C7.49513 6.85698 7.27596 6.94066 7.1086 7.1082C6.7737 7.44292 6.7737 7.98546 7.1086 8.32017L15.6799 16.8915C16.0148 17.2264 16.5572 17.2264 16.8919 16.8915C17.2266 16.5568 17.2268 16.0143 16.8919 15.6796L8.32057 7.1082C8.15321 6.94066 7.93385 6.85698 7.71449 6.85698Z" fill="#FEFEFE"/>
</svg>
