<svg
    width="26"
    height="25"
    viewBox="0 0 26 25"
    fill="none"
    xmlns="http://www.w3.org/2000/svg"
  >
    <path
      d="M7.46248 1.78556C7.46248 1.29324 7.06194 0.8927 6.56962 0.8927C6.0773 0.8927 5.67676 1.29324 5.67676 1.78556V10.4166H7.46248V1.78556Z"
      fill="#FF5A3B"
    />
    <path
      d="M16.0719 13.988H13.9886C13.4962 13.988 13.0957 14.3885 13.0957 14.8809C13.0957 15.3732 13.4962 15.7738 13.9886 15.7738H16.0719V13.988Z"
      fill="#FF5A3B"
    />
    <path
      d="M10.85 17.9907C10.6607 17.3767 10.1017 16.9642 9.45924 16.9642H3.68039C3.03789 16.9642 2.47902 17.3767 2.28973 17.9907L0.70502 23.1287C0.417935 24.059 1.11228 25 2.0861 25H2.70075V22.9166C2.70075 22.7522 2.83396 22.619 2.99837 22.619C3.16277 22.619 3.29599 22.7522 3.29599 22.9166V25H4.48647V22.9166C4.48647 22.7522 4.61969 22.619 4.78409 22.619C4.9485 22.619 5.08171 22.7522 5.08171 22.9166V25H6.27219V22.9166C6.27219 22.7522 6.40541 22.619 6.56982 22.619C6.73422 22.619 6.86744 22.7522 6.86744 22.9166V25H8.05792V22.9166C8.05792 22.7522 8.19113 22.619 8.35554 22.619C8.51995 22.619 8.65316 22.7522 8.65316 22.9166V25H9.84364V22.9166C9.84364 22.7522 9.97686 22.619 10.1413 22.619C10.3057 22.619 10.4389 22.7522 10.4389 22.9166V25H11.0536C12.0271 25 12.7217 24.0593 12.4347 23.1287L10.85 17.9907ZM3.702 18.1547H9.43757C9.60198 18.1547 9.73519 18.2879 9.73519 18.4523C9.73519 18.6167 9.60198 18.75 9.43757 18.75H3.702C3.5376 18.75 3.40438 18.6167 3.40438 18.4523C3.40438 18.2879 3.53766 18.1547 3.702 18.1547ZM9.77126 20.5357H3.36843C3.20402 20.5357 3.07081 20.4025 3.07081 20.2381C3.07081 20.0737 3.20402 19.9404 3.36843 19.9404H9.77126C9.93567 19.9404 10.0689 20.0737 10.0689 20.2381C10.0689 20.4025 9.93567 20.5357 9.77126 20.5357Z"
      fill="#FF5A3B"
    />
    <path
      d="M5.67676 11.0118H7.46248V12.4999H5.67676V11.0118Z"
      fill="#FF5A3B"
    />
    <path
      d="M9.49388 16.369C9.3556 15.6906 8.75429 15.1785 8.03565 15.1785C7.12583 15.1785 6.01618 15.1785 5.10373 15.1785C4.3851 15.1785 3.78378 15.6906 3.64551 16.369H9.49388Z"
      fill="#FF5A3B"
    />
    <path
      d="M5.67676 13.0952H7.46248V14.5833H5.67676V13.0952Z"
      fill="#FF5A3B"
    />
    <path d="M16.667 12.4999H18.4527V17.5595H16.667V12.4999Z" fill="#FF5A3B" />
    <path
      d="M13.0953 10.7142C13.9078 10.7142 14.6183 10.1659 14.8231 9.3808C14.8631 9.22753 15.0157 9.13229 15.1712 9.16443C16.2638 9.38937 17.3591 8.98241 18.0479 8.16788C17.9268 7.95264 17.8573 7.70448 17.8573 7.44037C17.8573 6.83346 18.2227 6.31054 18.7449 6.07923C18.6561 4.51732 17.3577 3.27368 15.7739 3.27368C13.9047 3.27368 12.4765 4.99286 12.8593 6.85263C12.8913 7.00769 12.7961 7.16061 12.643 7.20061C11.8579 7.40549 11.3096 8.11597 11.3096 8.92848C11.3096 9.91313 12.1107 10.7142 13.0953 10.7142Z"
      fill="#FF5A3B"
    />
    <path
      d="M24.4051 5.95228C25.2256 5.95228 25.8932 5.28472 25.8932 4.46418C25.8932 3.64364 25.2256 2.97607 24.4051 2.97607C23.5846 2.97607 22.917 3.64364 22.917 4.46418C22.917 5.28472 23.5846 5.95228 24.4051 5.95228Z"
      fill="#FF5A3B"
    />
    <path
      d="M18.4531 7.44041C18.4531 7.93273 18.8536 8.33327 19.346 8.33327C19.8383 8.33327 20.2388 7.93273 20.2388 7.44041C20.2388 6.94808 19.8383 6.54755 19.346 6.54755C18.8536 6.54755 18.4531 6.94808 18.4531 7.44041Z"
      fill="#FF5A3B"
    />
    <path
      d="M19.0482 17.8571C19.0482 18.0215 18.915 18.1547 18.7506 18.1547H16.3696C16.2052 18.1547 16.072 18.0215 16.072 17.8571V16.369H14.6357L15.8395 23.8323C15.9487 24.5089 16.5253 25 17.2107 25H21.481C22.1664 25 22.743 24.5089 22.8521 23.8323L24.0559 16.369H19.0482V17.8571Z"
      fill="#FF5A3B"
    />
    <path
      d="M25.5955 14.8809C25.5955 14.3885 25.195 13.988 24.7026 13.988H19.0479V15.7738H24.7026C25.195 15.7738 25.5955 15.3733 25.5955 14.8809Z"
      fill="#FF5A3B"
    />
    <path
      d="M1.78619 12.7976C2.44262 12.7976 2.97667 12.2635 2.97667 11.6071C2.97667 10.9507 2.44262 10.4166 1.78619 10.4166C1.12975 10.4166 0.595703 10.9507 0.595703 11.6071C0.595703 12.2635 1.12975 12.7976 1.78619 12.7976Z"
      fill="#FF5A3B"
    />
    <path
      d="M18.3039 0.892862C18.5504 0.892862 18.7503 0.692988 18.7503 0.446431C18.7503 0.199874 18.5504 0 18.3039 0C18.0573 0 17.8574 0.199874 17.8574 0.446431C17.8574 0.692988 18.0573 0.892862 18.3039 0.892862Z"
      fill="#FF5A3B"
    />
    <path
      d="M24.8517 9.52384C25.0983 9.52384 25.2981 9.32397 25.2981 9.07741C25.2981 8.83086 25.0983 8.63098 24.8517 8.63098C24.6051 8.63098 24.4053 8.83086 24.4053 9.07741C24.4053 9.32397 24.6051 9.52384 24.8517 9.52384Z"
      fill="#FF5A3B"
    />
    <path
      d="M10.8634 3.27384C11.11 3.27384 11.3099 3.07397 11.3099 2.82741C11.3099 2.58086 11.11 2.38098 10.8634 2.38098C10.6169 2.38098 10.417 2.58086 10.417 2.82741C10.417 3.07397 10.6169 3.27384 10.8634 3.27384Z"
      fill="#FF5A3B"
    />
    <path
      d="M0.446431 2.38072C0.692988 2.38072 0.892862 2.18084 0.892862 1.93429C0.892862 1.68773 0.692988 1.48785 0.446431 1.48785C0.199874 1.48785 0 1.68773 0 1.93429C0 2.18084 0.199874 2.38072 0.446431 2.38072Z"
      fill="#FF5A3B"
    />
    <path
      d="M3.42299 7.73814C3.66955 7.73814 3.86942 7.53826 3.86942 7.29171C3.86942 7.04515 3.66955 6.84528 3.42299 6.84528C3.17644 6.84528 2.97656 7.04515 2.97656 7.29171C2.97656 7.53826 3.17644 7.73814 3.42299 7.73814Z"
      fill="#FF5A3B"
    />
    <path
      d="M0.446431 17.5594C0.692988 17.5594 0.892862 17.3595 0.892862 17.1129C0.892862 16.8664 0.692988 16.6665 0.446431 16.6665C0.199874 16.6665 0 16.8664 0 17.1129C0 17.3595 0.199874 17.5594 0.446431 17.5594Z"
      fill="#FF5A3B"
    />
    <path
      d="M25.4464 24.4046C25.693 24.4046 25.8929 24.2048 25.8929 23.9582C25.8929 23.7117 25.693 23.5118 25.4464 23.5118C25.1999 23.5118 25 23.7117 25 23.9582C25 24.2048 25.1999 24.4046 25.4464 24.4046Z"
      fill="#FF5A3B"
    />
  </svg>