<svg width="20" height="20" viewBox="0 0 20 20" fill="none" xmlns="http://www.w3.org/2000/svg">
<g clip-path="url(#clip0)">
<path d="M16.6306 0C16.4343 0 16.2752 0.159058 16.2752 0.355402V5.8683C16.2752 8.33985 14.2541 10.3507 11.7811 10.3507C9.30958 10.3507 7.28863 8.34005 7.28863 5.8683V0.355402C7.28863 0.159058 7.12937 0 6.93322 0C6.73688 0 6.57782 0.159058 6.57782 0.355402V5.8683C6.57782 8.61216 8.71023 10.8655 11.4011 11.049V16.2684C11.4011 17.9367 10.0485 19.2893 8.38022 19.2893C6.71169 19.2893 5.3593 17.9367 5.3593 16.2684V15.1088C6.26823 14.9471 6.92747 14.1528 6.91875 13.2296C6.91339 12.1771 6.0586 11.3267 5.00588 11.3267C3.95316 11.3267 3.09837 12.1771 3.09302 13.2296C3.09302 14.1627 3.78538 14.9416 4.6485 15.1088V16.2684C4.6485 18.3292 6.3192 20.0001 8.38022 20.0001C10.441 20.0001 12.1119 18.3292 12.1119 16.2684V11.049C14.8028 10.8661 16.986 8.61235 16.986 5.8681V0.355402C16.986 0.159058 16.8268 0 16.6306 0Z" fill="#003761"/>
</g>
<defs>
<clipPath id="clip0">
<rect width="20" height="20" fill="white"/>
</clipPath>
</defs>
</svg>
