<svg width="19" height="18" viewBox="0 0 19 18" fill="none" xmlns="http://www.w3.org/2000/svg">
<g clip-path="url(#clip0)">
<path d="M15.6756 1.23596C14.7684 0.330323 13.2992 0.330323 12.392 1.23596L11.57 2.06242L2.82035 10.8075L2.80176 10.8262C2.79726 10.8307 2.79725 10.8355 2.79246 10.8355C2.78316 10.8495 2.76922 10.8633 2.76006 10.8772C2.76006 10.8818 2.75527 10.8818 2.75527 10.8865C2.74597 10.9004 2.74147 10.9097 2.73203 10.9237C2.72752 10.9283 2.72752 10.9328 2.72287 10.9376C2.71823 10.9516 2.71358 10.9609 2.70878 10.9748C2.70878 10.9793 2.70428 10.9793 2.70428 10.9841L0.762986 16.8218C0.706039 16.988 0.74933 17.1721 0.874411 17.2954C0.962302 17.3821 1.08085 17.4306 1.20418 17.4302C1.25459 17.4293 1.30457 17.4215 1.3528 17.407L7.18598 15.461C7.19048 15.461 7.19048 15.461 7.19527 15.4565C7.20995 15.4522 7.22404 15.4459 7.23697 15.4378C7.2406 15.4373 7.24379 15.4357 7.24641 15.4333C7.26021 15.424 7.27881 15.4145 7.29275 15.4052C7.30655 15.3961 7.32064 15.3821 7.33459 15.3728C7.33924 15.368 7.34374 15.368 7.34374 15.3635C7.34854 15.3589 7.35783 15.3544 7.36248 15.3449L16.9341 5.7733C17.8398 4.86606 17.8398 3.39691 16.9341 2.48982L15.6756 1.23596ZM7.03736 14.3696L3.80502 11.1374L11.8952 3.04723L15.1275 6.27943L7.03736 14.3696ZM3.34973 11.9965L6.17356 14.8202L1.93331 16.232L3.34973 11.9965ZM16.2794 5.12305L15.7871 5.62003L12.5546 2.38754L13.0517 1.89071C13.5955 1.34738 14.4768 1.34738 15.0207 1.89071L16.2839 3.15386C16.8236 3.70009 16.8216 4.57944 16.2794 5.12305Z" fill="#19456B"/>
</g>
<defs>
<clipPath id="clip0">
<rect width="18" height="18" fill="white" transform="translate(0.179688)"/>
</clipPath>
</defs>
</svg>
