<svg width="20" height="14" viewBox="0 0 20 14" fill="none" xmlns="http://www.w3.org/2000/svg">
	<path d="M0.624984 1.24997H19.375C19.72 1.24997 19.9999 0.969946 19.9999 0.624984C19.9999 0.27997 19.7199 0 19.375 0H0.624984C0.280022 0 0 0.27997 0 0.624984C0 0.969998 0.280022 1.24997 0.624984 1.24997Z" fill="white" />
	<path d="M19.375 6.25H0.624984C0.27997 6.25 0 6.53002 0 6.87498C0 7.21995 0.280022 7.49997 0.624984 7.49997H19.375C19.72 7.49997 19.9999 7.21995 19.9999 6.87498C19.9999 6.53002 19.72 6.25 19.375 6.25Z" fill="white" />
	<path d="M19.375 12.5H0.624984C0.27997 12.5 0 12.78 0 13.125C0 13.47 0.280022 13.75 0.624984 13.75H19.375C19.72 13.75 19.9999 13.4699 19.9999 13.125C20 12.78 19.72 12.5 19.375 12.5Z" fill="white" />
</svg>
