<svg width="56" height="56" viewBox="0 0 56 56" fill="none" xmlns="http://www.w3.org/2000/svg">
<path d="M28 17V28V17ZM28 39H28.0275H28ZM52.75 28C52.75 31.2502 52.1098 34.4685 50.866 37.4715C49.6221 40.4743 47.7992 43.2026 45.501 45.501C43.2026 47.7992 40.4743 49.6221 37.4715 50.866C34.4685 52.1098 31.2502 52.75 28 52.75C24.7498 52.75 21.5314 52.1098 18.5286 50.866C15.5258 49.6221 12.7974 47.7992 10.4991 45.501C8.20085 43.2026 6.3778 40.4743 5.13397 37.4715C3.89017 34.4685 3.25 31.2502 3.25 28C3.25 21.4359 5.85758 15.1406 10.4991 10.4991C15.1406 5.85758 21.4359 3.25 28 3.25C34.564 3.25 40.8593 5.85758 45.501 10.4991C50.1425 15.1406 52.75 21.4359 52.75 28Z" stroke="#FFBE0B" stroke-width="5.5" stroke-linecap="round" stroke-linejoin="round"/>
</svg>
