<svg width="14" height="27" viewBox="0 0 14 27" fill="none" xmlns="http://www.w3.org/2000/svg">
	<path d="M3.59743 20.5787V25.3804C3.59743 26.1381 4.2116 26.7523 4.96935 26.7523H5.17374C5.93149 26.7523 6.54567 26.1381 6.54567 25.3804V20.5787H7.71315V25.3804C7.71315 26.1381 8.32733 26.7523 9.08508 26.7523H9.28946C10.0472 26.7523 10.6614 26.1381 10.6614 25.3804V20.5787H11.271C12.0287 20.5787 12.6429 19.9645 12.6429 19.2068L12.3804 18.0255C13.2922 17.7763 13.0238 17.3396 13.0238 17.3396C13.0238 17.3396 10.9659 8.68879 10.8137 7.96485C10.6614 7.24091 9.94803 7.07951 9.94803 7.07951L9.94713 7.07495C9.17245 7.79062 8.14032 8.23146 7.003 8.23146C5.86567 8.23146 4.8331 7.79062 4.05886 7.07495L4.04238 7.14764L4.0547 7.08361C4.0547 7.08361 3.33762 7.22674 3.16705 7.94702C2.99602 8.66679 0.721875 17.2632 0.721875 17.2632C0.721875 17.2632 0.387585 17.7745 1.6232 18.0351L1.36255 19.2068C1.36255 19.9645 1.97673 20.5787 2.73447 20.5787H3.59743Z" fill="#F25287" />
	<path d="M4.15305 6.52208C4.86371 7.2899 5.87614 7.77417 7.0025 7.77417C8.12885 7.77417 9.14128 7.2899 9.85195 6.52208C10.4935 5.82835 10.8896 4.90413 10.8896 3.88709C10.8896 1.74368 9.1459 0 7.0025 0C4.85909 0 3.11541 1.74368 3.11541 3.88709C3.11541 4.90413 3.51147 5.82835 4.15305 6.52208Z" fill="#F25287" />
</svg>
