<?xml version="1.0" encoding="UTF-8"?>
<svg version="1.1" xmlns="http://www.w3.org/2000/svg" width="2534" height="863">
<path d="M0 0 C0.33 0.66 0.66 1.32 1 2 C-0.17691406 2.44988281 -1.35382813 2.89976563 -2.56640625 3.36328125 C-32.2586509 14.87311053 -59.60578988 29.73453509 -85 49 C-86.16630237 49.87028009 -87.33295067 50.74009684 -88.5 51.609375 C-104.67844224 63.75757474 -119.55106186 77.49124827 -133.875 91.75 C-134.57665283 92.44697998 -135.27830566 93.14395996 -136.0012207 93.86206055 C-140.53704045 98.41190137 -144.83623079 103.10826534 -149 108 C-149.54414551 108.63744141 -150.08829102 109.27488281 -150.64892578 109.93164062 C-173.0450094 136.36155295 -191.51052963 165.05737081 -207 196 C-207.43989258 196.87479004 -207.87978516 197.74958008 -208.33300781 198.65087891 C-223.84427329 229.90625795 -233.26299353 264.38297771 -237 299 C-237.0942627 299.75740479 -237.18852539 300.51480957 -237.28564453 301.29516602 C-238.42049807 311.5017423 -238.2439638 321.80669177 -238.25 332.0625 C-238.25067474 333.09088989 -238.25134949 334.11927979 -238.25204468 335.17883301 C-238.23556714 350.99665261 -237.66689212 366.37591493 -235 382 C-234.82839355 383.04881348 -234.65678711 384.09762695 -234.47998047 385.17822266 C-224.33202032 446.07505233 -197.45609085 505.12415414 -155.25390625 550.5625 C-153.34357219 552.62844186 -151.5067003 554.72950579 -149.6875 556.875 C-142.09966903 565.5697616 -133.83464765 573.61917212 -124.78125 580.7734375 C-122.31692854 582.74627911 -119.94132653 584.79320059 -117.57202148 586.87817383 C-57.66609139 639.15514559 25.59336026 662.82330258 103.93408203 658.79785156 C185.49887117 652.83271589 265.74570211 613.32561383 325.4609375 558.3203125 C327.54494903 556.41584658 329.65871086 554.57384698 331.8125 552.75 C340.84429642 544.89382998 349.31189574 536.16724737 357 527 C357.79277344 526.09636719 358.58554687 525.19273437 359.40234375 524.26171875 C368.80180632 513.48362249 377.07224017 501.89163975 385 490 C323.29 490 261.58 490 198 490 C199 488 199 488 201.44140625 487.140625 C202.47136719 486.84671875 203.50132812 486.5528125 204.5625 486.25 C213.24505767 483.40731208 218.07411462 480.33390143 222.375 472.125 C227.64650215 460.52483808 228.1507518 448.90263192 228.14526367 436.31835938 C228.14862228 435.19489105 228.1519809 434.07142273 228.15544128 432.91390991 C228.16488821 429.22384514 228.1668915 425.53382609 228.16796875 421.84375 C228.17118659 419.25557436 228.17455105 416.6673989 228.17805481 414.07922363 C228.18403112 408.65925599 228.18593944 403.23930621 228.18530273 397.81933594 C228.18470408 391.60171343 228.19522065 385.38417827 228.2110464 379.16657782 C228.22583491 373.13633722 228.22928703 367.10614304 228.22869301 361.07588196 C228.22986318 358.53412012 228.23423001 355.99235745 228.24202538 353.4506073 C228.37739054 313.04512744 228.37739054 313.04512744 210 278 C199.11433433 269.09522927 189.0995233 264.88099021 175 266 C163.20862539 268.59597903 152.35627155 276.42734023 145.4140625 286.2421875 C132.65954785 306.50697473 132.53126906 327.5132925 132.59702349 350.71536613 C132.60473362 354.29753998 132.59754401 357.87969327 132.59286499 361.46186829 C132.58744202 367.4688437 132.59450941 373.47570762 132.60888672 379.48266602 C132.62522899 386.38959751 132.61989936 393.29626344 132.6034075 400.2031886 C132.58971986 406.17909511 132.58790758 412.1549225 132.59572351 418.13083965 C132.60035748 421.68017821 132.60114438 425.22939259 132.59111404 428.77872276 C132.58070278 432.73759378 132.59519982 436.69617561 132.61181641 440.6550293 C132.60270737 442.37688698 132.60270737 442.37688698 132.59341431 444.13352966 C132.69420061 457.2023934 134.48198749 468.9771809 143.62890625 478.73828125 C148.82336547 483.5952814 155.10389343 486.42774997 162 488 C162 488.66 162 489.32 162 490 C123.39 490 84.78 490 45 490 C46 488 46 488 48.29296875 487.0703125 C49.24816406 486.75835938 50.20335937 486.44640625 51.1875 486.125 C59.17948557 483.31281362 65.21905515 479.47528588 69.12890625 471.77734375 C73.7430521 461.03370526 74.29680316 450.23236897 74.2746582 438.6628418 C74.27901593 437.25537854 74.28420257 435.84791766 74.29014587 434.44046021 C74.30343433 430.64894301 74.30412589 426.85752612 74.30158257 423.06599021 C74.30050576 419.88552973 74.30541435 416.70508896 74.310188 413.52463275 C74.32124844 406.01258169 74.3217404 398.50058064 74.31567383 390.98852539 C74.3096389 383.27398954 74.32194077 375.55963629 74.3432439 367.84513158 C74.36093676 361.18995726 74.36684915 354.53484067 74.36360615 347.87964374 C74.36180509 343.91884912 74.3643103 339.95818475 74.37832069 335.99741173 C74.39102013 332.26834256 74.38884237 328.53955517 74.37590981 324.81048965 C74.37246763 322.81417841 74.38363244 320.81785805 74.39547729 318.82157898 C74.32332381 306.23693439 72.92386054 292.18113445 64.47265625 282.1953125 C60.60045795 278.53266846 56.31154591 276.64729522 51.33203125 274.859375 C49.12393984 274.04567297 47.08236521 273.09144659 45 272 C47.92795518 271.18374445 50.68807243 270.80282216 53.71875 270.60546875 C79.62033813 268.75503175 104.29236162 263.24301727 127.85327148 251.93334961 C130 251 130 251 132 251 C132.33 261.89 132.66 272.78 133 284 C135.64 280.37 138.28 276.74 141 273 C153.63262001 258.17040259 172.25657067 246.62380685 192 245 C214.67076699 243.76054455 236.1675081 249.38565478 253.64501953 264.41455078 C274.47823073 283.09692859 284.13119142 309.51472289 286 337 C286.30883771 344.80890382 286.29894211 352.6244614 286.30496025 360.43837738 C286.30867224 364.31637829 286.32552584 368.1941343 286.34571838 372.07208252 C286.39439836 381.69280287 286.42576094 391.31356797 286.44702148 400.93438721 C286.46507237 409.09600169 286.49456539 417.25738614 286.54106331 425.41889191 C286.55264764 427.98150983 286.55864308 430.54415979 286.55874443 433.10680389 C286.55893796 436.6947642 286.57730867 440.28223374 286.59936523 443.87011719 C286.59478806 444.90940872 286.59021088 445.94870026 286.585495 447.01948547 C286.69584092 458.39496429 288.54598698 470.01945708 296 479 C301.01444374 483.5422739 307.09456897 487.0116253 314 487 C321.13457122 485.47751362 327.41126668 481.6618224 332 476 C338.90325184 464.02031105 339.30148787 450.33478502 339.2746582 436.8347168 C339.27901923 435.46961187 339.28420694 434.10450938 339.29014587 432.7394104 C339.30339858 429.07183932 339.30413001 425.40437215 339.30158257 421.73678184 C339.30050333 418.65582244 339.30542041 415.57488326 339.310188 412.49392825 C339.321236 405.21476778 339.32174743 397.93565892 339.31567383 390.65649414 C339.30963954 383.19075427 339.32194204 375.72520313 339.3432439 368.25949544 C339.3609583 361.80976765 339.36684582 355.3600994 339.36360615 348.91034824 C339.36180855 345.07583235 339.36427467 341.24145108 339.37832069 337.40695763 C340.68558209 308.17219047 340.68558209 308.17219047 329.47265625 282.203125 C325.60793727 278.5293686 321.31235572 276.64758599 316.33203125 274.859375 C314.12393984 274.04567297 312.08236521 273.09144659 310 272 C312.74877818 271.08374061 314.7625437 270.7904255 317.62109375 270.60546875 C342.24123368 268.84734677 365.92813642 264.15803982 388.35400391 253.54003906 C393.73021341 251 393.73021341 251 397 251 C397.33 261.56 397.66 272.12 398 283 C403.414351 276.24967474 403.414351 276.24967474 408.75 269.4375 C420.54868939 255.99835112 439.44299806 247.11641009 457 245 C479.04119049 243.85500309 500.91642529 249.13526509 517.80322266 264.05908203 C520.26384317 266.31484194 522.63760388 268.64113512 525 271 C525.58394531 271.57234375 526.16789063 272.1446875 526.76953125 272.734375 C543.11984071 290.21073883 550.11567463 316.05661838 550.17358398 339.35693359 C550.180271 340.48157013 550.18695801 341.60620667 550.19384766 342.7649231 C550.20786407 345.20114449 550.21976887 347.63737876 550.22979546 350.07361984 C550.24628562 353.94346494 550.26953043 357.81321605 550.29469299 361.68301392 C550.36522082 372.68429844 550.42534864 383.68562185 550.47680664 394.68701172 C550.50840716 401.42546825 550.55015733 408.16381251 550.59700203 414.90217972 C550.61289447 417.45590898 550.62527392 420.00966285 550.63390923 422.56342697 C549.789535 451.82177331 549.789535 451.82177331 560.1875 478.4375 C566.05559362 483.7839853 573.60003932 486.39631013 581 489 C581 489.33 581 489.66 581 490 C542.06 490 503.12 490 463 490 C464 488 464 488 466.4765625 487.10546875 C467.51554688 486.80253906 468.55453125 486.49960937 469.625 486.1875 C477.67732748 483.57980676 482.67145895 480.60706651 486.9375 473.18359375 C490.32208691 466.22776991 492.11349293 459.05650249 492.14717102 451.32553101 C492.15432632 450.19337662 492.16148163 449.06122223 492.16885376 447.89476013 C492.17154266 446.66153519 492.17423157 445.42831024 492.17700195 444.15771484 C492.18357315 442.85126511 492.19014435 441.54481537 492.19691467 440.19877625 C492.21790554 435.86950903 492.22832196 431.54024173 492.23828125 427.2109375 C492.24233261 425.71279508 492.24644964 424.21465284 492.25063133 422.71651077 C492.26968305 415.66586758 492.28390632 408.61523476 492.2922433 401.56457078 C492.30197403 393.471654 492.32818359 385.37901377 492.36874419 377.28619421 C492.3991254 371.00474225 492.41373333 364.72336846 492.41702431 358.44184458 C492.41935261 354.70373336 492.42801547 350.96591743 492.45348549 347.2278862 C492.60743268 323.35415188 492.69857877 296.93759177 474.76171875 278.59765625 C474.18035156 278.07042969 473.59898437 277.54320312 473 277 C472.40832031 276.46246094 471.81664062 275.92492187 471.20703125 275.37109375 C463.02502728 268.63991935 453.77640609 265.10470951 443.1640625 265.5859375 C430.29020833 267.2706641 419.13946816 275.10064683 411 285 C400.50772251 300.12690312 397.67988939 316.4168258 397.74121094 334.50439453 C397.7377063 335.79706238 397.73420166 337.08973022 397.73059082 338.42156982 C397.72156436 341.92972234 397.7249698 345.43775569 397.73134899 348.94590998 C397.73645784 352.63808642 397.7317043 356.33025352 397.72857666 360.02243042 C397.72495203 366.21728321 397.72969738 372.4120881 397.73925781 378.60693359 C397.7501491 385.74611592 397.74660583 392.88518405 397.735605 400.02436364 C397.72650058 406.18183332 397.72526193 412.33926883 397.73048234 418.49674308 C397.73358352 422.16225738 397.73406259 425.82771816 397.72740936 429.49322891 C397.72050706 433.58035188 397.73009997 437.66728083 397.74121094 441.75439453 C397.73513824 443.55168503 397.73513824 443.55168503 397.72894287 445.38528442 C397.78933277 457.42012825 399.38387497 468.34932562 407.375 477.8125 C413.58069716 482.9839143 419.35492635 486.24654289 427 489 C427 489.33 427 489.66 427 490 C414.13 490.33 401.26 490.66 388 491 C386.14375 494.67125 384.2875 498.3425 382.375 502.125 C375.97035412 514.5683354 368.81385046 526.39023022 361 538 C360.5452832 538.67595215 360.09056641 539.3519043 359.62207031 540.04833984 C350.47289497 553.51190341 340.01053067 566.0293674 329 578 C327.52035559 579.66624255 326.04119744 581.33291702 324.5625 583 C317.49758045 590.84033755 310.04471094 598.17332628 302 605 C301.1028125 605.78632812 300.205625 606.57265625 299.28125 607.3828125 C237.07276355 661.54909884 154.86348564 691.29976115 72.625 691.1875 C71.73750061 691.18656342 70.85000122 691.18562683 69.93560791 691.18466187 C18.90270107 691.06810643 -31.96938441 680.37958292 -78 658 C-78.69303223 657.66790527 -79.38606445 657.33581055 -80.10009766 656.99365234 C-84.77852282 654.74662273 -89.40092198 652.40487852 -94 650 C-95.03060547 649.46584473 -95.03060547 649.46584473 -96.08203125 648.92089844 C-114.61354424 639.24013091 -131.90200481 627.32368105 -148 614 C-148.53882813 613.55736816 -149.07765625 613.11473633 -149.6328125 612.65869141 C-215.29558058 558.5685972 -258.16174479 483.79360059 -273.25 400.1875 C-273.40138428 399.35395996 -273.55276855 398.52041992 -273.70874023 397.66162109 C-276.78129601 379.47639837 -277.37202979 361.34720841 -277.3125 342.9375 C-277.31067719 341.76746429 -277.30885437 340.59742859 -277.30697632 339.39193726 C-277.26242808 322.41267555 -276.88146018 305.77150381 -274 289 C-273.82839355 287.95102539 -273.65678711 286.90205078 -273.47998047 285.82128906 C-263.84961496 227.97024621 -240.56434751 173.009541 -204 127 C-203.28972656 126.09894531 -202.57945312 125.19789063 -201.84765625 124.26953125 C-197.0186605 118.25238189 -191.91972487 112.53592122 -186.66796875 106.890625 C-184.33310178 104.3609009 -182.07054953 101.78533222 -179.8125 99.1875 C-170.21214611 88.50128921 -159.30052247 78.84099699 -148 70 C-147.1028125 69.27296875 -146.205625 68.5459375 -145.28125 67.796875 C-102.96309329 34.16507677 -52.85146759 11.03261252 0 0 Z " fill="#FFFFFF" transform="translate(364,95)"/>
<path d="M0 0 C39.6 0 79.2 0 120 0 C117.76982076 2.23017924 116.32530524 2.67818505 113.375 3.6875 C104.32701247 7.27279765 99.31710548 12.69361828 95.34694386 21.55441856 C91.44039718 31.54765226 90.55453451 41.79766469 90.56762695 52.43115234 C90.55735316 53.71151178 90.54707937 54.99187122 90.53649426 56.31102943 C90.50937196 59.72673112 90.49946463 63.14226419 90.49352264 66.55805969 C90.48519145 69.78137095 90.46080221 73.00454735 90.43786621 76.2277832 C90.38021516 85.61010474 90.34785144 94.99256794 90.3125 104.375 C90.1578125 135.869375 90.1578125 135.869375 90 168 C137.19 168 184.38 168 233 168 C232.896875 147.725625 232.79375 127.45125 232.6875 106.5625 C232.65015747 97.00583374 232.65015747 97.00583374 232.61206055 87.25610352 C232.5754409 81.48038696 232.5754409 81.48038696 232.5349884 75.70469666 C232.51897523 73.15797158 232.50859542 70.61120688 232.50288391 68.06443787 C233.02178086 36.44612178 233.02178086 36.44612178 219 9 C216.92862411 7.48549268 216.92862411 7.48549268 214.6875 6.375 C213.90890625 5.96636719 213.1303125 5.55773437 212.328125 5.13671875 C209.25853337 3.63797519 206.16695315 2.28025766 203 1 C203 0.67 203 0.34 203 0 C242.6 0 282.2 0 323 0 C320.58093597 2.41906403 318.51718174 3.00936732 315.3125 4.1875 C305.34120926 8.3213565 301.44659087 13.89908132 297.21875 23.7265625 C293.18830018 34.55193734 292.84754069 46.26620361 292.86628723 57.70646667 C292.86402167 58.73756618 292.86175612 59.76866569 292.85942191 60.83101064 C292.85312817 64.26129411 292.85390829 67.6915376 292.85473633 71.12182617 C292.85174194 73.59154308 292.84833876 76.06125951 292.84455872 78.53097534 C292.83665722 84.52911936 292.83350528 90.52724787 292.83294634 96.52539565 C292.83246967 101.40584596 292.83040742 106.28629304 292.82724571 111.16674232 C292.81844738 125.03207222 292.81382501 138.8973944 292.81457619 152.7627271 C292.81461614 153.5088421 292.8146561 154.2549571 292.81469727 155.02368164 C292.81473815 155.77071751 292.81477903 156.51775337 292.81482115 157.28742669 C292.81522732 169.38524164 292.80566295 181.48302543 292.7915589 193.58083137 C292.77716017 206.03056922 292.77029064 218.4802919 292.77115268 230.93003827 C292.77148345 237.90841668 292.76878893 244.88676242 292.75797462 251.86513329 C292.74786194 258.43235642 292.74824055 264.99952266 292.75549126 271.56675339 C292.75653239 273.96801034 292.75420243 276.36927166 292.7481308 278.77052116 C292.15004638 309.2367006 292.15004638 309.2367006 305 336 C310.22318915 341.03182231 316.21825459 343.63750672 323 346 C323 346.33 323 346.66 323 347 C283.4 347 243.8 347 203 347 C203 346.34 203 345.68 203 345 C204.03447266 344.70609375 204.03447266 344.70609375 205.08984375 344.40625 C214.3789685 341.4500402 221.2026368 336.93427516 225.875 328.1875 C231.16958618 316.30206689 232.14047783 304.45357837 232.20532227 291.6171875 C232.21535499 290.37720001 232.22538771 289.13721252 232.23572445 287.85964966 C232.26180901 284.52649427 232.28386725 281.19336214 232.30391693 277.86016846 C232.32364465 274.72446203 232.34850492 271.58879792 232.3729248 268.453125 C232.44123488 259.30212011 232.50137566 250.15105571 232.5625 241 C232.706875 220.54 232.85125 200.08 233 179 C185.81 179 138.62 179 90 179 C90.0825 199.955 90.165 220.91 90.25 242.5 C90.27368652 252.38356445 90.27368652 252.38356445 90.29785156 262.46679688 C90.33111743 268.43147371 90.33111743 268.43147371 90.36956787 274.39611816 C90.38407576 277.0298249 90.39243915 279.66282942 90.39154053 282.29650879 C90.01330577 308.86768253 90.01330577 308.86768253 100 333 C100.53625 333.886875 101.0725 334.77375 101.625 335.6875 C106.66950729 340.5992571 113.48094182 343.50359115 120 346 C120 346.33 120 346.66 120 347 C80.4 347 40.8 347 0 347 C1.49197203 344.01605594 3.67392059 343.83915412 6.75 342.6875 C11.51957502 340.76045606 14.72931254 339.08835933 18 335 C18.97066406 333.85917969 18.97066406 333.85917969 19.9609375 332.6953125 C22.01550438 329.9795057 23.3152098 327.51004623 24.625 324.375 C25.02976562 323.43398438 25.43453125 322.49296875 25.8515625 321.5234375 C28.62807474 313.00502241 29.29447915 304.55031637 29.26069641 295.64178467 C29.26452196 294.552661 29.26834751 293.46353734 29.27228898 292.34140992 C29.2825425 288.72072045 29.27864139 285.10019183 29.2746582 281.47949219 C29.27900894 278.87169753 29.2841933 276.26390416 29.29014587 273.65611267 C29.30285048 267.3245526 29.30469182 260.99303503 29.30234561 254.66146436 C29.30055728 249.5102489 29.3023231 244.35904627 29.30657005 239.20783234 C29.30716524 238.47263212 29.30776043 237.7374319 29.30837366 236.97995289 C29.30958551 235.48601673 29.31079964 233.99208057 29.31201603 232.49814442 C29.32287557 218.50893122 29.3207368 204.51974217 29.31463119 190.53052762 C29.3094653 177.7602404 29.32071163 164.99002953 29.33972941 152.21975741 C29.35914833 139.07841532 29.3673566 125.93710928 29.36360615 112.79575276 C29.36170001 105.42949106 29.36412398 98.0632943 29.37832069 90.69704437 C29.3915441 83.7661691 29.38891961 76.83544844 29.37590981 69.90457344 C29.37355248 67.36947388 29.37624823 64.83436347 29.38453293 62.29927635 C29.76931584 33.97431887 29.76931584 33.97431887 16.8046875 9.53125 C11.97943874 5.43709953 5.82342215 3.29407539 0 1 C0 0.67 0 0.34 0 0 Z " fill="#FFFFFF" transform="translate(1157,238)"/>
<path d="M0 0 C0.33 51.48 0.66 102.96 1 156 C4.3 151.71 7.6 147.42 11 143 C26.55256392 127.44743608 46.32598412 117.84183032 68.5 117.625 C91.08863402 117.8706112 111.03049177 127.30488194 127 143 C127.62648438 143.61359375 128.25296875 144.2271875 128.8984375 144.859375 C134.49020913 150.78007437 138.21999306 157.85554713 142 165 C142.47566406 165.88429688 142.95132813 166.76859375 143.44140625 167.6796875 C150.51392922 181.91341712 153.13534158 197.85835003 153.17358398 213.58813477 C153.180271 214.73709732 153.18695801 215.88605988 153.19384766 217.06983948 C153.20786441 219.55845152 153.21976911 222.04707616 153.22979546 224.53570747 C153.24627372 228.48453317 153.26931191 232.4332892 153.29469299 236.38206482 C153.3655885 247.60760574 153.42545375 258.83319111 153.47680664 270.05883789 C153.50528105 276.26711099 153.54075388 282.47530696 153.58346039 288.6834988 C153.60565044 291.95908215 153.62309359 295.23458208 153.63390923 298.5102253 C152.51178352 327.31008433 152.51178352 327.31008433 164.171875 352.5078125 C169.87002365 357.15886546 177.13798862 359.58558859 184 362 C184 362.33 184 362.66 184 363 C145.06 363 106.12 363 66 363 C67 361 67 361 69.29296875 360.0703125 C70.24816406 359.75835938 71.20335938 359.44640625 72.1875 359.125 C79.73503662 356.46288437 85.66891883 352.8565285 90 346 C93.06294605 338.66837676 95.1160274 331.34373104 95.14044189 323.38127136 C95.14615204 322.2616098 95.15186218 321.14194824 95.15774536 319.98835754 C95.15886322 318.76912094 95.15998108 317.54988434 95.16113281 316.29370117 C95.16609772 315.0019397 95.17106262 313.71017822 95.17617798 312.37927246 C95.18927016 308.83935143 95.19574198 305.29944935 95.20018864 301.75950789 C95.20312758 299.54102246 95.20723415 297.32254209 95.21169281 295.10405922 C95.22536614 288.14365419 95.23503074 281.18326088 95.2388947 274.22284335 C95.24335994 266.2255971 95.26083672 258.22852308 95.2898953 250.23132914 C95.31164097 244.02805372 95.32160597 237.82482625 95.32293582 231.62151319 C95.3239757 227.92770935 95.3297052 224.23406741 95.34775543 220.54030418 C95.45944121 196.2791181 95.41650158 170.24356273 77.75 151.25 C68.83143309 142.9207657 58.25214032 138.29576019 46.05078125 138.65234375 C37.22818504 139.65773564 29.98774614 143.72622933 23 149 C21.75863281 149.92619141 21.75863281 149.92619141 20.4921875 150.87109375 C8.6206251 161.01216195 2.43075622 177.76526153 1 193 C0.84498881 197.36269138 0.84284183 201.7234966 0.83886719 206.08862305 C0.83390228 207.39685532 0.82893738 208.70508759 0.82382202 210.05296326 C0.81076501 213.62762016 0.80426615 217.20225834 0.79981136 220.77693534 C0.79686959 223.01583652 0.79276274 225.25473271 0.78830719 227.49363136 C0.77464949 234.51488999 0.76497457 241.53613705 0.7611053 248.55740803 C0.75662959 256.63221393 0.73909711 264.70685013 0.7101047 272.78160447 C0.68841049 279.04345593 0.6783969 285.30525991 0.67706418 291.56714851 C0.67602162 295.29768249 0.67023191 299.0280566 0.65224457 302.75855064 C0.63253342 306.92727143 0.63708351 311.09564185 0.64355469 315.2644043 C0.6343399 316.48196411 0.62512512 317.69952393 0.6156311 318.95397949 C0.67161837 330.52213374 2.47016604 343.95385359 10.6796875 352.8125 C15.42885744 356.75371987 20.67761845 358.46244932 26.55859375 360.140625 C29 361 29 361 30 363 C-8.94 363 -47.88 363 -88 363 C-87 361 -87 361 -84.77734375 360.140625 C-83.84019531 359.84671875 -82.90304688 359.5528125 -81.9375 359.25 C-72.58212223 355.94168636 -66.57566616 350.86535318 -62 342 C-58.114887 332.34792238 -57.85004275 322.38093781 -57.86628723 312.10334778 C-57.86402167 311.03972871 -57.86175612 309.97610964 -57.85942191 308.88025969 C-57.85311706 305.33398029 -57.85390901 301.78773945 -57.85473633 298.24145508 C-57.85174263 295.69144644 -57.84833961 293.14143826 -57.84455872 290.59143066 C-57.83665122 284.39362545 -57.83350497 278.19583423 -57.83294634 271.99802444 C-57.83246998 266.95592837 -57.83040928 261.91383542 -57.82724571 256.87174034 C-57.81844541 242.55273646 -57.81382531 228.23374005 -57.81457619 213.91473345 C-57.81463612 212.75847481 -57.81463612 212.75847481 -57.81469727 211.57885742 C-57.81473815 210.80706883 -57.81477903 210.03528023 -57.81482115 209.2401041 C-57.81522734 196.7406258 -57.80566291 184.24117766 -57.7915589 171.74170808 C-57.77716612 158.88407231 -57.77029032 146.02645123 -57.77115268 133.16880721 C-57.77148367 125.95961494 -57.76877977 118.75045428 -57.75797462 111.5412693 C-57.74787147 104.75737069 -57.74823453 97.97354966 -57.75549126 91.18964386 C-57.75653349 88.70733988 -57.7541958 86.2250317 -57.7481308 83.74273491 C-57.49368092 57.11696265 -57.49368092 57.11696265 -67.0625 32.625 C-73.00440992 27.31520815 -80.46747897 24.37987252 -88 22 C-88 21.67 -88 21.34 -88 21 C-87.08226807 20.94054199 -87.08226807 20.94054199 -86.14599609 20.87988281 C-57.52270889 18.95070203 -29.56816879 14.3359337 -3.87817383 0.8894043 C-2 0 -2 0 0 0 Z " fill="#FFFFFF" transform="translate(2279,222)"/>
<path d="M0 0 C1.07309921 -0.00058914 1.07309921 -0.00058914 2.1678772 -0.00119019 C16.54635061 0.00821523 30.88199198 0.64463023 45.0625 3.1875 C45.0625 3.5175 45.0625 3.8475 45.0625 4.1875 C43.60118652 4.28454224 43.60118652 4.28454224 42.11035156 4.38354492 C-40.31349258 9.96884866 -117.08803056 39.04371665 -178.59765625 95.0703125 C-180.15300368 96.47765525 -181.72341137 97.86853687 -183.30859375 99.2421875 C-187.59421324 102.95687286 -191.48713009 106.75061988 -195.14453125 111.0859375 C-197.07569529 113.34948054 -199.09711373 115.51034382 -201.125 117.6875 C-248.24054584 170.22412387 -267.41816703 242.63493761 -263.73535156 311.99462891 C-261.2461081 346.50117938 -252.3639765 381.1428727 -236.9375 412.1875 C-236.28442871 413.5180542 -236.28442871 413.5180542 -235.61816406 414.87548828 C-223.91149465 438.55799212 -209.26382936 459.3111639 -191.9375 479.1875 C-191.49873535 479.69087891 -191.0599707 480.19425781 -190.60791016 480.71289062 C-186.00002749 485.96625555 -181.33302897 490.95917127 -175.98046875 495.45703125 C-173.67584683 497.40912974 -171.46965342 499.451914 -169.25 501.5 C-152.93164359 516.15928223 -134.35754244 528.08269418 -114.9375 538.1875 C-114.21046875 538.5700293 -113.4834375 538.95255859 -112.734375 539.34667969 C-78.59288247 557.09843977 -39.23415045 565.14541427 -0.9375 566.1875 C-0.1753418 566.20941406 0.58681641 566.23132813 1.37207031 566.25390625 C53.75192892 567.523721 106.32398985 556.62988282 154.0625 535.1875 C155.34954834 534.61515625 155.34954834 534.61515625 156.66259766 534.03125 C172.28969229 527.03594671 186.87142344 518.72920632 200.79956055 508.76611328 C204.12221673 506.40832283 207.15912724 504.4985565 211.0625 503.1875 C202.01474478 514.49719402 190.57995724 523.52231842 179.0625 532.1875 C178.22380371 532.81954346 178.22380371 532.81954346 177.36816406 533.46435547 C138.97312742 562.16537381 94.23373086 580.30960117 47.0625 588.1875 C46.08780762 588.35266113 45.11311523 588.51782227 44.10888672 588.68798828 C-31.12456971 600.83132869 -110.44631321 580.55296067 -172.13208008 536.4765625 C-177.92399478 532.26677211 -183.48703317 527.83136039 -188.9375 523.1875 C-190.00970227 522.29991755 -191.08265914 521.41324611 -192.15625 520.52734375 C-205.292853 509.59390144 -217.42183403 497.67823872 -227.9375 484.1875 C-228.87461793 483.04831812 -229.81493004 481.91175903 -230.7578125 480.77734375 C-280.04668793 421.12569733 -301.04073888 341.75465073 -294.16357422 265.3190918 C-291.69105229 242.38378583 -286.59974216 219.9288857 -278.9375 198.1875 C-278.58268555 197.14891846 -278.58268555 197.14891846 -278.22070312 196.08935547 C-254.07361506 125.55536129 -200.32242704 65.27985612 -133.8125 31.9375 C-131.85019045 30.98202099 -129.88171786 30.04221816 -127.90625 29.11425781 C-126.59497614 28.49699646 -125.28762336 27.87133501 -123.984375 27.23730469 C-85.61970214 8.60249558 -42.48990852 -0.04984695 0 0 Z " fill="#FFFFFF" transform="translate(439.9375,129.8125)"/>
<path d="M0 0 C27.31875628 -0.48681222 55.09952992 6.1864651 75.6640625 25.12109375 C76.54191406 25.90742188 77.41976563 26.69375 78.32421875 27.50390625 C100.72077349 48.60895783 114.76327916 80.21607169 115.7902832 110.89111328 C116.67838232 153.20646065 110.07226096 188.96923817 80.26196289 221.04052734 C62.52401642 239.32240222 36.27069549 249.63619049 11.01171875 250.32421875 C-19.27075772 250.70395139 -46.43548854 244.0127314 -69.3359375 223.12109375 C-70.11324219 222.425 -70.89054688 221.72890625 -71.69140625 221.01171875 C-93.35407484 200.57945991 -106.20082311 167.246218 -107.47851562 137.83959961 C-108.47381951 99.08622423 -100.95657861 60.42611086 -73.48632812 31.24609375 C-54.14106814 11.3910419 -27.455755 0.99663748 0 0 Z M-24.49609375 27.625 C-42.5222469 50.93048895 -48.27112263 85.72905383 -48.57421875 114.58203125 C-48.58884155 115.75188568 -48.58884155 115.75188568 -48.60375977 116.94537354 C-48.78982193 135.7185806 -48.11522924 153.65917711 -44.3359375 172.12109375 C-44.04710693 173.56186279 -44.04710693 173.56186279 -43.75244141 175.03173828 C-39.14123877 197.46367892 -32.07269356 220.23871652 -12.28125 233.9375 C-4.29665446 238.79559729 4.22172933 239.51553816 13.37109375 237.53515625 C26.61648727 232.98791879 36.11719363 220.21043586 42.10571289 208.09204102 C63.96294232 160.76446088 62.64068615 97.75578693 45.51171875 49.32714844 C40.23487266 35.59397412 31.95683905 22.16267268 18.6640625 15.12109375 C17.73013672 14.61449219 17.73013672 14.61449219 16.77734375 14.09765625 C0.50676452 6.66162633 -13.9945768 15.45235558 -24.49609375 27.625 Z " fill="#FFFFFF" transform="translate(1043.3359375,339.87890625)"/>
<path d="M0 0 C18.84917199 16.25281099 26.52980856 39.28550723 28.890625 63.51953125 C29.42114533 72.82350058 29.3316678 82.14921051 29.33203125 91.46484375 C29.34383477 94.1322535 29.3569745 96.79962094 29.37205505 99.4670105 C29.4126103 107.14971487 29.43152989 114.83239562 29.44822693 122.5151825 C29.47073561 132.30042643 29.5046512 142.08560417 29.55542606 151.87074268 C29.57817718 156.40719478 29.58508595 160.94350918 29.58851624 165.48001099 C28.59120904 194.94810813 28.59120904 194.94810813 40.890625 220.51953125 C45.7357754 224.48670138 50.85842678 226.34357963 56.88671875 227.84375 C58.890625 228.51953125 58.890625 228.51953125 59.890625 230.51953125 C57.05830953 231.17011654 54.22490299 231.81509838 51.390625 232.45703125 C50.59914063 232.63943359 49.80765625 232.82183594 48.9921875 233.00976562 C28.93621656 237.53057875 7.91002539 237.50304058 -10.109375 226.51953125 C-13.76723723 223.88565141 -16.27028941 221.24411585 -18.796875 217.51953125 C-19.37824219 216.67390625 -19.95960938 215.82828125 -20.55859375 214.95703125 C-24.109375 209.37595442 -24.109375 209.37595442 -24.109375 205.51953125 C-24.60566406 205.95523438 -25.10195312 206.3909375 -25.61328125 206.83984375 C-27.04628477 208.09610111 -28.48275016 209.34841594 -29.921875 210.59765625 C-31.19049515 211.71222967 -32.44757633 212.84082251 -33.671875 214.00390625 C-50.62790905 229.72356282 -73.57769158 236.42154548 -96.2734375 235.80078125 C-115.27477046 234.90904877 -130.92195042 227.37843621 -143.859375 213.64453125 C-157.20270359 198.25381362 -161.4459823 180.65217874 -160.109375 160.51953125 C-157.47683828 141.35137328 -148.47314688 125.30015473 -135.109375 111.51953125 C-134.58214844 110.91882813 -134.05492187 110.318125 -133.51171875 109.69921875 C-129.83795126 105.65901409 -125.59633381 102.5856005 -121.109375 99.51953125 C-120.54718262 99.12830078 -119.98499023 98.73707031 -119.40576172 98.33398438 C-106.55822895 89.82716464 -91.79794779 85.11822947 -77.30053711 80.29272461 C-50.16437798 71.55405693 -50.16437798 71.55405693 -30.00390625 52.6953125 C-27.59589273 46.83826652 -28.36037974 39.46396976 -30.734375 33.70703125 C-36.52404491 22.56995789 -45.92803455 17.20477395 -57.58203125 13.265625 C-60.78002354 12.32155 -63.78180287 11.76601807 -67.109375 11.51953125 C-67.73585938 11.46796875 -68.36234375 11.41640625 -69.0078125 11.36328125 C-87.33356318 10.54577564 -107.28432222 18.47201987 -120.85888672 30.57739258 C-122.97603621 32.52402645 -125.05362701 34.50829749 -127.109375 36.51953125 C-128.099375 36.02453125 -128.099375 36.02453125 -129.109375 35.51953125 C-112.95151106 11.02212463 -91.25195255 -6.56967925 -62.0859375 -13.1640625 C-40.88731606 -17.19792091 -17.15457619 -13.68486919 0 0 Z M-73.0078125 101.33203125 C-90.73460439 119.20258378 -101.37094026 142.31706636 -101.3581543 167.62304688 C-101.26865389 173.9743562 -100.4582046 179.57613652 -98.109375 185.51953125 C-97.78066406 186.35613281 -97.45195313 187.19273437 -97.11328125 188.0546875 C-92.45506186 198.48329631 -84.57520073 206.82377169 -74.109375 211.51953125 C-62.63759376 214.36565049 -52.94389615 211.01292269 -42.93359375 205.34375 C-37.66261781 201.93912239 -32.55482549 197.96498174 -28.109375 193.51953125 C-28.01343275 191.93798277 -27.9874954 190.35214 -27.98912048 188.76768494 C-27.98774582 187.73978348 -27.98637115 186.71188202 -27.98495483 185.65283203 C-27.98855011 184.51563721 -27.99214539 183.37844238 -27.99584961 182.20678711 C-27.99570358 181.01670547 -27.99555756 179.82662384 -27.9954071 178.60047913 C-27.99598606 175.32789851 -28.00101519 172.05536018 -28.00798106 168.78278804 C-28.01421533 165.3661446 -28.01481846 161.94950042 -28.01600647 158.53285217 C-28.01911957 152.05883858 -28.02733267 145.58484179 -28.03735596 139.11083561 C-28.04851775 131.74215205 -28.05402771 124.3734677 -28.05905139 117.00477779 C-28.06951531 101.84301956 -28.08711434 86.68127708 -28.109375 71.51953125 C-41.78238812 71.51953125 -63.46051723 92.05571628 -73.0078125 101.33203125 Z " fill="#FFFFFF" transform="translate(1837.109375,354.48046875)"/>
<path d="M0 0 C39.6 0 79.2 0 120 0 C119 2 119 2 116.7421875 2.859375 C115.79601562 3.15328125 114.84984375 3.4471875 113.875 3.75 C103.92634819 7.32328838 100.3875563 12.34565587 95.578125 21.68359375 C89.78161148 36.08979113 90.57145486 51.56293098 90.61181641 66.79101562 C90.60774522 69.37969687 90.60240028 71.96837637 90.59588623 74.55705261 C90.58262612 80.82659303 90.58539187 87.09602501 90.59412415 93.36556947 C90.60093097 98.46615949 90.60180455 103.56671936 90.5985527 108.66731262 C90.59786316 109.76097393 90.59786316 109.76097393 90.59715968 110.8767294 C90.59620039 112.35842543 90.59522775 113.84012145 90.5942419 115.32181746 C90.58571063 129.17848767 90.59548646 143.0350981 90.611643 156.8917585 C90.62504412 168.7519249 90.62271539 180.61200316 90.60888672 192.47216797 C90.59279074 206.28312487 90.5865344 220.09402952 90.59572351 233.90499449 C90.59667904 235.38089211 90.59762216 236.85678974 90.5985527 238.33268738 C90.59901553 239.0586411 90.59947836 239.78459482 90.59995521 240.53254715 C90.60253308 245.62024715 90.59820023 250.7079137 90.59111404 255.79560852 C90.58176563 262.65760142 90.58852959 269.51942622 90.60579681 276.38140297 C90.60974316 278.89070169 90.60865962 281.40001447 90.60200882 283.90930748 C90.29530084 312.23432171 90.29530084 312.23432171 103.0625 336.875 C107.84805048 341.28160418 114.05456382 343.55924199 120 346 C120 346.33 120 346.66 120 347 C80.4 347 40.8 347 0 347 C1.36901717 344.26196565 2.70681981 344.2440383 5.5625 343.25 C14.06726807 339.94529012 20.09655702 335.36452067 24 327 C27.8105271 317.21621421 29.14904561 308.53084465 29.14717102 298.09793091 C29.15084771 296.99745072 29.1545244 295.89697054 29.1583125 294.76314247 C29.1693291 291.07402383 29.17318979 287.38493339 29.17700195 283.69580078 C29.18326823 281.05095758 29.18990275 278.40611736 29.19691467 275.76127625 C29.21664208 267.82295921 29.22674139 259.88464098 29.23564246 251.94630557 C29.2400322 248.20167923 29.24539729 244.45705429 29.25063133 240.71242905 C29.26764126 228.25301215 29.2821328 215.79359611 29.28938007 203.33416939 C29.29128976 200.10363896 29.29321012 196.87310853 29.29516602 193.64257812 C29.29564976 192.8397115 29.2961335 192.03684487 29.2966319 191.20964895 C29.30492238 178.21984379 29.33024372 165.230131 29.36274669 152.24036612 C29.39589417 138.8833505 29.41383583 125.5263817 29.41702431 112.16932476 C29.41918251 104.67828634 29.42782913 97.18738257 29.45348549 89.69638443 C29.475298 83.31318799 29.48319157 76.93015891 29.47351871 70.54692943 C29.46900399 67.29622902 29.47291977 64.04594168 29.49028015 60.79527473 C29.73688479 33.73021254 29.73688479 33.73021254 17.48046875 10.23828125 C12.57161776 5.49664173 6.30581303 3.34008825 0 1 C0 0.67 0 0.34 0 0 Z " fill="#FFFFFF" transform="translate(277,238)"/>
<path d="M0 0 C0.00203479 0.99963466 0.00203479 0.99963466 0.00411069 2.01946396 C0.08486301 41.5682897 0.17585924 81.11708011 0.28005161 120.66585135 C0.29256961 125.42070735 0.30500252 130.17556356 0.31738281 134.93041992 C0.31984881 135.87697614 0.3223148 136.82353236 0.32485552 137.7987721 C0.3645161 153.10001261 0.397293 168.40126045 0.42749982 183.70252221 C0.45867799 199.41770867 0.49731432 215.1328642 0.54279006 230.84801584 C0.57059001 240.53526513 0.5926596 250.22249194 0.60726251 259.90977026 C0.61785216 266.56402912 0.63572425 273.21824432 0.65916704 279.87247019 C0.67245658 283.70436762 0.68268516 287.53620422 0.68421364 291.36812592 C-1.00410975 324.29092872 -1.00410975 324.29092872 12 353 C16.8451504 356.96717013 21.96780178 358.82404838 27.99609375 360.32421875 C30 361 30 361 31 363 C-7.94 363 -46.88 363 -87 363 C-86 361 -86 361 -83.55859375 360.140625 C-82.52863281 359.84671875 -81.49867187 359.5528125 -80.4375 359.25 C-71.79318122 356.41983157 -66.93713265 353.34530864 -62.625 345.1875 C-58.42620308 336.49669409 -57.70414064 328.06448082 -57.73257446 318.53388977 C-57.72804335 317.40901742 -57.72351224 316.28414506 -57.71884382 315.12518567 C-57.70622576 311.37158217 -57.70781854 307.61812426 -57.70947266 303.86450195 C-57.70348577 301.16670701 -57.69673596 298.46892329 -57.68911743 295.77113342 C-57.67254793 289.21237374 -57.66700971 282.65365001 -57.66589268 276.09487114 C-57.66494021 270.759579 -57.66082002 265.42429865 -57.65449142 260.08901024 C-57.63688951 244.93993903 -57.62765083 229.79089608 -57.62915237 214.64181457 C-57.62923228 213.82617055 -57.6293122 213.01052652 -57.62939453 212.17016602 C-57.62947629 211.3535182 -57.62955805 210.53687038 -57.62964229 209.69547566 C-57.63045474 196.46847711 -57.61132482 183.24159255 -57.5831178 170.01462696 C-57.55433841 156.41117705 -57.5405803 142.80778264 -57.54230535 129.20430154 C-57.54296754 121.57588806 -57.53755055 113.94759408 -57.51594925 106.31920815 C-57.49767069 99.82293182 -57.49344447 93.32682914 -57.5069681 86.83053813 C-57.5134647 83.52128381 -57.51153086 80.21263161 -57.4962616 76.90336609 C-56.92558884 52.28415738 -56.92558884 52.28415738 -68 31 C-73.46979278 26.33564923 -80.26346192 24.21661823 -87 22 C-87 21.67 -87 21.34 -87 21 C-86.40388916 20.96559814 -85.80777832 20.93119629 -85.19360352 20.89575195 C-56.73735441 19.14855722 -28.82468393 13.77612801 -3.09765625 1.03125 C-1 0 -1 0 0 0 Z " fill="#FFFFFF" transform="translate(1997,222)"/>
<path d="M0 0 C9.19951312 8.57475841 19.35472737 20.24829358 21.30078125 33.14453125 C20.05295236 35.67511554 18.9890006 37.32697877 17.23828125 39.45703125 C16.29613659 40.68563203 15.35476843 41.91482853 14.4140625 43.14453125 C13.65343506 44.11519531 13.65343506 44.11519531 12.87744141 45.10546875 C10.13326174 48.65446047 7.54006657 52.31193696 4.92578125 55.95703125 C3.81393712 57.4948893 2.70195738 59.03264933 1.58984375 60.5703125 C-1.53655111 64.90742809 -4.62354906 69.27135315 -7.69921875 73.64453125 C-13.41280144 81.76645821 -19.2186949 89.8194689 -25.04492188 97.86083984 C-27.82840077 101.70332237 -30.60796474 105.54863095 -33.38671875 109.39453125 C-33.93062256 110.14726318 -34.47452637 110.89999512 -35.03491211 111.67553711 C-38.67222917 116.71296533 -42.29044781 121.76360179 -45.89575195 126.82397461 C-49.26671206 131.55088939 -52.66953539 136.25437182 -56.07421875 140.95703125 C-61.83188037 148.9154816 -67.51233311 156.92600321 -73.16259766 164.9609375 C-75.92018172 168.87956347 -78.68523034 172.79292134 -81.44921875 176.70703125 C-82.46487429 178.14581178 -83.48050225 179.58461177 -84.49609375 181.0234375 C-85.58664062 182.56837891 -85.58664062 182.56837891 -86.69921875 184.14453125 C-81.7850173 194.51577405 -71.45025141 200.83655722 -61.69921875 206.14453125 C-60.33990234 206.88703125 -60.33990234 206.88703125 -58.953125 207.64453125 C-44.89277913 214.66425816 -29.98110818 215.64624634 -14.94921875 211.45703125 C0.31669659 206.27587211 10.64360795 195.62421172 20.30078125 183.14453125 C20.63078125 183.80453125 20.96078125 184.46453125 21.30078125 185.14453125 C15.34691636 201.27328465 2.69667511 214.67502673 -12.63671875 222.33203125 C-40.67689622 234.50605848 -74.34738748 234.80520658 -102.99609375 224.65625 C-113.10582662 220.5291755 -122.42506271 215.32267035 -130.69921875 208.14453125 C-131.47265625 207.51417969 -132.24609375 206.88382813 -133.04296875 206.234375 C-156.787101 186.13451621 -170.00732266 156.0821608 -173.51831055 125.54516602 C-176.31200681 88.47308057 -170.55780644 49.08775268 -145.96875 19.703125 C-111.58038562 -19.06516875 -42.9988966 -36.80592949 0 0 Z M-91.984375 8.84765625 C-102.99287117 23.59252129 -108.557541 41.22017425 -111.69921875 59.14453125 C-112.03759766 61.00078125 -112.03759766 61.00078125 -112.3828125 62.89453125 C-117.71599776 98.79238511 -115.31613912 143.75745866 -95.69921875 175.14453125 C-87.1304142 164.5393755 -79.1933505 153.51763554 -71.56347656 142.22314453 C-68.01806031 137.000384 -64.33676311 131.91544162 -60.51171875 126.89453125 C-40.56309491 100.58495579 -27.97126499 71.42254525 -32.203125 37.76171875 C-34.49949351 22.07830764 -39.92293066 5.41223309 -52.69921875 -4.85546875 C-66.36629463 -13.41174735 -83.35604236 -1.56112599 -91.984375 8.84765625 Z " fill="#FFFFFF" transform="translate(1644.69921875,358.85546875)"/>
<path d="M0 0 C431.64 0 863.28 0 1308 0 C1308 4.29 1308 8.58 1308 13 C876.36 13 444.72 13 0 13 C0 8.71 0 4.42 0 0 Z " fill="#FFFFFF" transform="translate(1147,631)"/>
<path d="M0 0 C0.33 0 0.66 0 1 0 C1 16.83 1 33.66 1 51 C14.2 51 27.4 51 41 51 C41 54.63 41 58.26 41 62 C27.8 62 14.6 62 1 62 C1.08584559 80.39538324 1.1796481 98.79067184 1.28752708 117.18593788 C1.33738351 125.7295724 1.38382637 134.27319859 1.421875 142.81689453 C1.4550955 150.27441499 1.49508545 157.73186522 1.54279006 165.18930757 C1.56776079 169.12810973 1.58962383 173.06686711 1.60334396 177.00572586 C0.66407355 227.45646334 0.66407355 227.45646334 23.64453125 270.6640625 C30.94357275 277.3534775 39.07488966 280.61167577 49 281 C58.5713007 280.23272204 66.79111785 277.66235254 75.30395508 273.25024414 C76.84556415 272.45251055 78.42052861 271.71986632 80 271 C80.66 271.33 81.32 271.66 82 272 C66.26066353 287.35629952 47.60432034 294.76628641 25.6875 295.3125 C3.92270436 294.95642972 -14.92863268 286.55825437 -30 271 C-50.12252006 248.03587613 -56.15706419 219.88323146 -56.1418457 190.04370117 C-56.14705734 188.35083229 -56.14705734 188.35083229 -56.15237427 186.62376404 C-56.15967451 184.19471404 -56.16505008 181.76565763 -56.16866493 179.33659935 C-56.17590031 175.47949862 -56.1916177 171.62252004 -56.21000671 167.76545715 C-56.21626918 166.44931333 -56.22253164 165.1331695 -56.22898388 163.77714252 C-56.23214969 163.11199875 -56.2353155 162.44685497 -56.23857725 161.76155531 C-56.28038283 152.80353569 -56.31361423 143.84556205 -56.32592773 134.88745117 C-56.33526539 128.16260125 -56.36549634 121.43811177 -56.40724754 114.71337318 C-56.41948357 112.16636868 -56.42469248 109.61931952 -56.42244911 107.07228661 C-55.71939962 82.21561772 -55.71939962 82.21561772 -67 61 C-70.68986793 57.31013207 -74.78356005 55.72477422 -79.59765625 53.9296875 C-81.81548186 53.07140702 -83.88304148 52.07789705 -86 51 C-85.32235596 50.91548584 -84.64471191 50.83097168 -83.9465332 50.74389648 C-58.84237307 47.51195546 -35.41463342 42.17961548 -16 25 C-15.29101562 24.40832031 -14.58203125 23.81664062 -13.8515625 23.20703125 C-6.97727163 17.03070478 -2.9016515 8.70495449 0 0 Z " fill="#FFFFFF" transform="translate(2110,295)"/>
<path d="M0 0 C3.3 0 6.6 0 10 0 C10.4439209 1.06959961 10.8878418 2.13919922 11.34521484 3.24121094 C12.99497047 7.21512109 14.64661553 11.18824363 16.29882812 15.16113281 C17.01321015 16.87966889 17.72708184 18.5984172 18.44042969 20.31738281 C19.46675178 22.79027588 20.49491581 25.26239612 21.5234375 27.734375 C21.84122162 28.50118591 22.15900574 29.26799683 22.48641968 30.05804443 C22.93666 31.13871185 22.93666 31.13871185 23.39599609 32.24121094 C23.65802826 32.87186462 23.92006042 33.50251831 24.19003296 34.15228271 C25.05827646 36.13294173 26.032854 38.065708 27 40 C32.28 26.8 37.56 13.6 43 0 C46.63 0 50.26 0 54 0 C54 17.49 54 34.98 54 53 C51.36 53 48.72 53 46 53 C45.67 41.12 45.34 29.24 45 17 C44.00097656 19.51496094 43.00195312 22.02992188 41.97265625 24.62109375 C41.00688683 27.0472042 40.04023054 29.47295948 39.07348633 31.89868164 C38.40035575 33.58906679 37.72815264 35.27982156 37.05688477 36.97094727 C36.09372723 39.39696695 35.12727851 41.82165233 34.16015625 44.24609375 C33.85908463 45.00651474 33.558013 45.76693573 33.24781799 46.55039978 C31.11387171 51.88612829 31.11387171 51.88612829 30 53 C27.69 53 25.38 53 23 53 C18.05 40.79 13.1 28.58 8 16 C8 28.21 8 40.42 8 53 C5.36 53 2.72 53 0 53 C0 35.51 0 18.02 0 0 Z " fill="#FFFFFF" transform="translate(1736,685)"/>
<path d="M0 0 C2.64 0 5.28 0 8 0 C8 7.59 8 15.18 8 23 C16.58 23 25.16 23 34 23 C34 15.41 34 7.82 34 0 C36.64 0 39.28 0 42 0 C42 17.49 42 34.98 42 53 C39.36 53 36.72 53 34 53 C34 45.08 34 37.16 34 29 C25.42 29 16.84 29 8 29 C8 36.92 8 44.84 8 53 C5.36 53 2.72 53 0 53 C0 35.51 0 18.02 0 0 Z " fill="#FFFFFF" transform="translate(2047,685)"/>
<path d="M0 0 C3.26336808 1.97592118 5.52648517 3.9491139 7.4375 7.3125 C8.0263136 10.01500345 8.24936482 12.53750615 8.4375 15.3125 C5.7975 14.9825 3.1575 14.6525 0.4375 14.3125 C0.251875 13.19875 0.06625 12.085 -0.125 10.9375 C-1.18953188 7.05670639 -1.18953188 7.05670639 -4.6875 5.8125 C-10.04651815 5.12101379 -14.38452954 4.931348 -19.125 7.9375 C-20.83235566 10.35129666 -20.83235566 10.35129666 -20.8125 13.8125 C-19.86326647 17.58299584 -19.86326647 17.58299584 -16.3125 19.4375 C-13.68003229 20.55617977 -11.00601196 21.51406787 -8.31640625 22.48828125 C-0.42426554 25.38176757 3.75263325 27.28519987 8.4375 34.3125 C9.03742545 38.47302196 8.87533544 42.2179114 7.3125 46.125 C3.52556423 50.54309173 -0.8267213 53.10045108 -6.63671875 53.55078125 C-19.72963126 53.81971675 -19.72963126 53.81971675 -25.5625 49.3125 C-29.31035083 45.66327682 -30.39589269 42.27058107 -31.5625 37.3125 C-28.9225 37.3125 -26.2825 37.3125 -23.5625 37.3125 C-23.211875 38.240625 -22.86125 39.16875 -22.5 40.125 C-20.54529802 43.34080003 -19.20979312 44.63389118 -15.66796875 45.91015625 C-11.62033941 46.68363644 -7.52597796 46.40730685 -3.5625 45.3125 C-0.77334124 43.19125509 -0.59153655 42.48994557 0 38.875 C-0.17908757 35.15367056 -0.17908757 35.15367056 -3.09765625 33.26953125 C-7.45818875 30.80659237 -11.88338743 29.28857147 -16.640625 27.77734375 C-21.94231383 25.9460352 -24.90144345 23.58745323 -28.5625 19.3125 C-30.24970945 14.25087164 -30.07736141 10.57820096 -28.0625 5.625 C-22.2018096 -3.37896727 -9.18753547 -4.20737606 0 0 Z " fill="#FFFFFF" transform="translate(1248.5625,685.6875)"/>
<path d="M0 0 C2.31 0 4.62 0 7 0 C7 18.48 7 36.96 7 56 C3.66666667 56 0.33333333 56 -3 56 C-3.99 56.495 -3.99 56.495 -5 57 C-10.20185538 57.51848559 -14.63560371 57.62018013 -19.4375 55.4375 C-24.19018182 50.91665632 -26.66085556 45.84178375 -27.23828125 39.30078125 C-27.40994355 32.38911507 -26.86766811 26.86990144 -23 21 C-18.90652869 17.1014559 -16.26597826 15.84058422 -10.6875 15.75 C-9.74261719 15.72421875 -8.79773437 15.6984375 -7.82421875 15.671875 C-5 16 -5 16 0 19 C0 12.73 0 6.46 0 0 Z M-16 25 C-20.09676554 30.62437303 -19.76699372 36.29091212 -19 43 C-17.80042577 46.32189787 -15.96145161 48.23746942 -13.1875 50.4375 C-9.78739025 51.31181393 -7.37376979 50.90368834 -4 50 C-0.84726818 47.12876209 0.25352966 44.8756895 0.53125 40.71484375 C0.54180474 39.12239674 0.53084132 37.52968331 0.5 35.9375 C0.51546875 35.13505859 0.5309375 34.33261719 0.546875 33.50585938 C0.52157913 29.69566829 0.46702842 27.64279181 -1.81640625 24.5 C-6.78034835 21.09006482 -11.42123353 21.18436128 -16 25 Z " fill="#FFFFFF" transform="translate(1878,682)"/>
<path d="M0 0 C5.15509152 2.3109031 6.85468759 4.88562368 9 10 C9.43237305 13.43505859 9.43237305 13.43505859 9.51171875 17.1484375 C9.52966995 17.80582916 9.54762115 18.46322083 9.56611633 19.14053345 C9.61984437 21.21862572 9.65399125 23.29649347 9.6875 25.375 C9.72070653 26.79299976 9.75519924 28.21097001 9.79101562 29.62890625 C9.87554651 33.0857218 9.94253568 36.54261638 10 40 C7.36 40 4.72 40 2 40 C2 39.34 2 38.68 2 38 C1.236875 38.495 0.47375 38.99 -0.3125 39.5 C-5.29711675 41.52764071 -9.68350294 41.72677226 -15 41 C-18.91075925 39.01031547 -20.57689098 37.63466354 -23 34 C-23.66036734 29.96133239 -23.89569891 25.81730647 -22.0546875 22.08203125 C-19.46566335 18.78468917 -16.93408979 17.20453873 -13 16 C-9.44921875 15.8046875 -9.44921875 15.8046875 -5.6875 15.875 C-4.43324219 15.89304687 -3.17898437 15.91109375 -1.88671875 15.9296875 C-0.45779297 15.96449219 -0.45779297 15.96449219 1 16 C0.10084562 11.24546211 0.10084562 11.24546211 -2.6875 7.5 C-6.09338803 6.76359178 -8.63671867 7.14389202 -12 8 C-12.474375 8.680625 -12.94875 9.36125 -13.4375 10.0625 C-15 12 -15 12 -16.953125 12.26171875 C-18.97060931 12.25113754 -20.98681158 12.13201236 -23 12 C-21.58517999 6.81232662 -19.86332924 3.79280524 -15.265625 0.9140625 C-10.46219596 -1.02387266 -5.07230394 -0.50470686 0 0 Z M-15 25 C-16.05749557 28.08369887 -16.05749557 28.08369887 -16 31 C-13.92860404 33.20954506 -13.92860404 33.20954506 -11 35 C-7.00742811 35 -4.5787948 34.30786958 -1.0625 32.4375 C1.94350429 28.88494948 1.37976069 26.55712827 1 22 C-5.06103053 21.6289165 -9.75882155 21.72426347 -15 25 Z " fill="#FFFFFF" transform="translate(2361,698)"/>
<path d="M0 0 C5.15509152 2.3109031 6.85468759 4.88562368 9 10 C9.43237305 13.43505859 9.43237305 13.43505859 9.51171875 17.1484375 C9.52966995 17.80582916 9.54762115 18.46322083 9.56611633 19.14053345 C9.61984437 21.21862572 9.65399125 23.29649347 9.6875 25.375 C9.72070653 26.79299976 9.75519924 28.21097001 9.79101562 29.62890625 C9.87554651 33.0857218 9.94253568 36.54261638 10 40 C7.36 40 4.72 40 2 40 C2 39.34 2 38.68 2 38 C1.236875 38.495 0.47375 38.99 -0.3125 39.5 C-5.29711675 41.52764071 -9.68350294 41.72677226 -15 41 C-18.91075925 39.01031547 -20.57689098 37.63466354 -23 34 C-23.66036734 29.96133239 -23.89569891 25.81730647 -22.0546875 22.08203125 C-19.46566335 18.78468917 -16.93408979 17.20453873 -13 16 C-9.44921875 15.8046875 -9.44921875 15.8046875 -5.6875 15.875 C-4.43324219 15.89304687 -3.17898437 15.91109375 -1.88671875 15.9296875 C-0.45779297 15.96449219 -0.45779297 15.96449219 1 16 C0.10084562 11.24546211 0.10084562 11.24546211 -2.6875 7.5 C-6.09338803 6.76359178 -8.63671867 7.14389202 -12 8 C-12.474375 8.680625 -12.94875 9.36125 -13.4375 10.0625 C-15 12 -15 12 -16.953125 12.26171875 C-18.97060931 12.25113754 -20.98681158 12.13201236 -23 12 C-21.58517999 6.81232662 -19.86332924 3.79280524 -15.265625 0.9140625 C-10.46219596 -1.02387266 -5.07230394 -0.50470686 0 0 Z M-15 25 C-16.05749557 28.08369887 -16.05749557 28.08369887 -16 31 C-13.92860404 33.20954506 -13.92860404 33.20954506 -11 35 C-7.00742811 35 -4.5787948 34.30786958 -1.0625 32.4375 C1.94350429 28.88494948 1.37976069 26.55712827 1 22 C-5.06103053 21.6289165 -9.75882155 21.72426347 -15 25 Z " fill="#FFFFFF" transform="translate(2171,698)"/>
<path d="M0 0 C5.15509152 2.3109031 6.85468759 4.88562368 9 10 C9.43237305 13.43505859 9.43237305 13.43505859 9.51171875 17.1484375 C9.52966995 17.80582916 9.54762115 18.46322083 9.56611633 19.14053345 C9.61984437 21.21862572 9.65399125 23.29649347 9.6875 25.375 C9.72070653 26.79299976 9.75519924 28.21097001 9.79101562 29.62890625 C9.87554651 33.0857218 9.94253568 36.54261638 10 40 C7.36 40 4.72 40 2 40 C2 39.34 2 38.68 2 38 C1.236875 38.495 0.47375 38.99 -0.3125 39.5 C-5.29711675 41.52764071 -9.68350294 41.72677226 -15 41 C-18.91075925 39.01031547 -20.57689098 37.63466354 -23 34 C-23.66036734 29.96133239 -23.89569891 25.81730647 -22.0546875 22.08203125 C-19.46566335 18.78468917 -16.93408979 17.20453873 -13 16 C-9.44921875 15.8046875 -9.44921875 15.8046875 -5.6875 15.875 C-4.43324219 15.89304687 -3.17898438 15.91109375 -1.88671875 15.9296875 C-0.45779297 15.96449219 -0.45779297 15.96449219 1 16 C0.10084562 11.24546211 0.10084562 11.24546211 -2.6875 7.5 C-6.09338803 6.76359178 -8.63671867 7.14389202 -12 8 C-12.474375 8.680625 -12.94875 9.36125 -13.4375 10.0625 C-15 12 -15 12 -16.953125 12.26171875 C-18.97060931 12.25113754 -20.98681158 12.13201236 -23 12 C-21.58517999 6.81232662 -19.86332924 3.79280524 -15.265625 0.9140625 C-10.46219596 -1.02387266 -5.07230394 -0.50470686 0 0 Z M-15 25 C-16.05749557 28.08369887 -16.05749557 28.08369887 -16 31 C-13.92860404 33.20954506 -13.92860404 33.20954506 -11 35 C-7.00742811 35 -4.5787948 34.30786958 -1.0625 32.4375 C1.94350429 28.88494948 1.37976069 26.55712827 1 22 C-5.06103053 21.6289165 -9.75882155 21.72426347 -15 25 Z " fill="#FFFFFF" transform="translate(1033,698)"/>
<path d="M0 0 C2.31 0 4.62 0 7 0 C7.33 6.27 7.66 12.54 8 19 C9.65 18.01 11.3 17.02 13 16 C17.80388818 15.2959819 22.41600785 15.43900278 27 17.0625 C30.62208367 20.57139356 31.87115007 24.65746688 32.34057617 29.54858398 C32.3170105 31.37885132 32.3170105 31.37885132 32.29296875 33.24609375 C32.28872391 33.90207047 32.28447906 34.55804718 32.28010559 35.23390198 C32.26348779 37.30220911 32.22587238 39.36949401 32.1875 41.4375 C32.17243111 42.85089725 32.15874659 44.26430998 32.14648438 45.67773438 C32.11364104 49.11881435 32.06198015 52.55930719 32 56 C29.36 56 26.72 56 24 56 C23.9906543 55.14245117 23.98130859 54.28490234 23.97167969 53.40136719 C23.92758709 50.21027321 23.86593944 47.02013244 23.79248047 43.82958984 C23.76430901 42.45048349 23.74307528 41.07121682 23.72900391 39.69189453 C23.70752455 37.70577051 23.65876868 35.72000091 23.609375 33.734375 C23.58842773 32.54038086 23.56748047 31.34638672 23.54589844 30.11621094 C22.89926645 26.42497182 22.02269338 25.16871832 19 23 C15.37542227 23.19076725 12.43470709 23.85509764 9 25 C7.8992924 28.3021228 7.79372928 30.94083279 7.68359375 34.41796875 C7.64169922 35.67158203 7.59980469 36.92519531 7.55664062 38.21679688 C7.51732422 39.52712891 7.47800781 40.83746094 7.4375 42.1875 C7.39429008 43.52279978 7.350675 44.85808652 7.30664062 46.19335938 C7.20043498 49.46213297 7.09839003 52.73098333 7 56 C4.69 56 2.38 56 0 56 C0 37.52 0 19.04 0 0 Z " fill="#FFFFFF" transform="translate(2248,682)"/>
<path d="M0 0 C4.09091102 1.75324758 6.14423576 3.81635453 8.375 7.5625 C10 12 10 12 10 23 C1.42 23 -7.16 23 -16 23 C-13.93803603 30.68203822 -13.93803603 30.68203822 -10.25 33.0625 C-6.33930011 34.19058651 -3.92836058 34.01846385 0 33 C1.33790641 32.00612666 2.67218122 31.0073108 4 30 C6.125 30.125 6.125 30.125 8 31 C8.66 31.99 9.32 32.98 10 34 C6.15046963 38.06339317 3.62897852 40.70789128 -2.0234375 41.3359375 C-13.16209476 41.46575868 -13.16209476 41.46575868 -18 37 C-18.7425 36.38125 -19.485 35.7625 -20.25 35.125 C-25.00815182 29.34724422 -24.58089156 22.12060618 -24 15 C-22.79044682 8.40243718 -19.41531782 4.77114903 -14 1 C-9.80895066 -1.09552467 -4.56413839 -0.41220622 0 0 Z M-13 9 C-15.1477418 11.96240248 -16 13.31446856 -16 17 C-9.73 17 -3.46 17 3 17 C2.16862038 10.72973703 2.16862038 10.72973703 -2 7 C-6.72449837 5.49218137 -9.14808282 5.87682391 -13 9 Z " fill="#FFFFFF" transform="translate(2437,698)"/>
<path d="M0 0 C4.09091102 1.75324758 6.14423576 3.81635453 8.375 7.5625 C10 12 10 12 10 23 C1.42 23 -7.16 23 -16 23 C-13.93803603 30.68203822 -13.93803603 30.68203822 -10.25 33.0625 C-6.33930011 34.19058651 -3.92836058 34.01846385 0 33 C1.33790641 32.00612666 2.67218122 31.0073108 4 30 C6.125 30.125 6.125 30.125 8 31 C8.66 31.99 9.32 32.98 10 34 C6.15046963 38.06339317 3.62897852 40.70789128 -2.0234375 41.3359375 C-13.16209476 41.46575868 -13.16209476 41.46575868 -18 37 C-18.7425 36.38125 -19.485 35.7625 -20.25 35.125 C-25.00815182 29.34724422 -24.58089156 22.12060618 -24 15 C-22.79044682 8.40243718 -19.41531782 4.77114903 -14 1 C-9.80895066 -1.09552467 -4.56413839 -0.41220622 0 0 Z M-13 9 C-15.1477418 11.96240248 -16 13.31446856 -16 17 C-9.73 17 -3.46 17 3 17 C2.16862038 10.72973703 2.16862038 10.72973703 -2 7 C-6.72449837 5.49218137 -9.14808282 5.87682391 -13 9 Z " fill="#FFFFFF" transform="translate(2126,698)"/>
<path d="M0 0 C4.09091102 1.75324758 6.14423576 3.81635453 8.375 7.5625 C10 12 10 12 10 23 C1.42 23 -7.16 23 -16 23 C-13.93803603 30.68203822 -13.93803603 30.68203822 -10.25 33.0625 C-6.33930011 34.19058651 -3.92836058 34.01846385 0 33 C1.33790641 32.00612666 2.67218122 31.0073108 4 30 C6.125 30.125 6.125 30.125 8 31 C8.66 31.99 9.32 32.98 10 34 C6.15046963 38.06339317 3.62897852 40.70789128 -2.0234375 41.3359375 C-13.16209476 41.46575868 -13.16209476 41.46575868 -18 37 C-18.7425 36.38125 -19.485 35.7625 -20.25 35.125 C-25.00815182 29.34724422 -24.58089156 22.12060618 -24 15 C-22.79044682 8.40243718 -19.41531782 4.77114903 -14 1 C-9.80895066 -1.09552467 -4.56413839 -0.41220622 0 0 Z M-13 9 C-15.1477418 11.96240248 -16 13.31446856 -16 17 C-9.73 17 -3.46 17 3 17 C2.16862038 10.72973703 2.16862038 10.72973703 -2 7 C-6.72449837 5.49218137 -9.14808282 5.87682391 -13 9 Z " fill="#FFFFFF" transform="translate(1922,698)"/>
<path d="M0 0 C4.09091102 1.75324758 6.14423576 3.81635453 8.375 7.5625 C10 12 10 12 10 23 C1.42 23 -7.16 23 -16 23 C-13.93803603 30.68203822 -13.93803603 30.68203822 -10.25 33.0625 C-6.33930011 34.19058651 -3.92836058 34.01846385 0 33 C1.33790641 32.00612666 2.67218122 31.0073108 4 30 C6.125 30.125 6.125 30.125 8 31 C8.66 31.99 9.32 32.98 10 34 C6.15046963 38.06339317 3.62897852 40.70789128 -2.0234375 41.3359375 C-13.16209476 41.46575868 -13.16209476 41.46575868 -18 37 C-18.7425 36.38125 -19.485 35.7625 -20.25 35.125 C-25.00815182 29.34724422 -24.58089156 22.12060618 -24 15 C-22.79044682 8.40243718 -19.41531782 4.77114903 -14 1 C-9.80895066 -1.09552467 -4.56413839 -0.41220622 0 0 Z M-13 9 C-15.1477418 11.96240248 -16 13.31446856 -16 17 C-9.73 17 -3.46 17 3 17 C2.16862038 10.72973703 2.16862038 10.72973703 -2 7 C-6.72449837 5.49218137 -9.14808282 5.87682391 -13 9 Z " fill="#FFFFFF" transform="translate(1173,698)"/>
<path d="M0 0 C5.56196843 3.97283459 8.39424685 8.16180098 9.625 14.875 C10.39151762 21.97413245 9.5400672 27.80484993 5.625 33.875 C2.27113155 37.54411457 -1.04619655 39.67001153 -6.08203125 40.11328125 C-12.36206119 40.26337002 -16.5380672 40.34916284 -21.375 35.875 C-27.04864632 29.72854982 -27.83502723 24.26556845 -27.6875 16.10546875 C-27.10036689 10.03598025 -24.86188172 5.94231732 -20.3125 1.9375 C-14.30615369 -2.27972188 -6.8508692 -2.28362307 0 0 Z M-17.375 8.875 C-20.68938746 13.8689757 -19.9584234 20.14748982 -19.375 25.875 C-18.18294044 29.19924856 -16.33533222 31.1133572 -13.5625 33.3125 C-10.156792 34.18825348 -7.76219708 33.76636765 -4.375 32.875 C-1.25594953 30.29839309 0.3431368 28.7205896 1.625 24.875 C2.12642912 18.7324933 2.46858043 12.99977391 -1.375 7.875 C-7.75375668 3.80345318 -11.49339691 4.27200628 -17.375 8.875 Z " fill="#FFFFFF" transform="translate(1830.375,699.125)"/>
<path d="M0 0 C5.56196843 3.97283459 8.39424685 8.16180098 9.625 14.875 C10.39151762 21.97413245 9.5400672 27.80484993 5.625 33.875 C2.27113155 37.54411457 -1.04619655 39.67001153 -6.08203125 40.11328125 C-12.36206119 40.26337002 -16.5380672 40.34916284 -21.375 35.875 C-27.04864632 29.72854982 -27.83502723 24.26556845 -27.6875 16.10546875 C-27.10036689 10.03598025 -24.86188172 5.94231732 -20.3125 1.9375 C-14.30615369 -2.27972188 -6.8508692 -2.28362307 0 0 Z M-17.375 8.875 C-20.68938746 13.8689757 -19.9584234 20.14748982 -19.375 25.875 C-18.18294044 29.19924856 -16.33533222 31.1133572 -13.5625 33.3125 C-10.156792 34.18825348 -7.76219708 33.76636765 -4.375 32.875 C-1.25594953 30.29839309 0.3431368 28.7205896 1.625 24.875 C2.12642912 18.7324933 2.46858043 12.99977391 -1.375 7.875 C-7.75375668 3.80345318 -11.49339691 4.27200628 -17.375 8.875 Z " fill="#FFFFFF" transform="translate(1658.375,699.125)"/>
<path d="M0 0 C5.56196843 3.97283459 8.39424685 8.16180098 9.625 14.875 C10.39151762 21.97413245 9.5400672 27.80484993 5.625 33.875 C2.27113155 37.54411457 -1.04619655 39.67001153 -6.08203125 40.11328125 C-12.36206119 40.26337002 -16.5380672 40.34916284 -21.375 35.875 C-27.04864632 29.72854982 -27.83502723 24.26556845 -27.6875 16.10546875 C-27.10036689 10.03598025 -24.86188172 5.94231732 -20.3125 1.9375 C-14.30615369 -2.27972188 -6.8508692 -2.28362307 0 0 Z M-17.375 8.875 C-20.68938746 13.8689757 -19.9584234 20.14748982 -19.375 25.875 C-18.18294044 29.19924856 -16.33533222 31.1133572 -13.5625 33.3125 C-10.156792 34.18825348 -7.76219708 33.76636765 -4.375 32.875 C-1.25594953 30.29839309 0.3431368 28.7205896 1.625 24.875 C2.12642912 18.7324933 2.46858043 12.99977391 -1.375 7.875 C-7.75375668 3.80345318 -11.49339691 4.27200628 -17.375 8.875 Z " fill="#FFFFFF" transform="translate(1465.375,699.125)"/>
<path d="M0 0 C5.56196843 3.97283459 8.39424685 8.16180098 9.625 14.875 C10.39151762 21.97413245 9.5400672 27.80484993 5.625 33.875 C2.27113155 37.54411457 -1.04619655 39.67001153 -6.08203125 40.11328125 C-12.36206119 40.26337002 -16.5380672 40.34916284 -21.375 35.875 C-27.04864632 29.72854982 -27.83502723 24.26556845 -27.6875 16.10546875 C-27.10036689 10.03598025 -24.86188172 5.94231732 -20.3125 1.9375 C-14.30615369 -2.27972188 -6.8508692 -2.28362307 0 0 Z M-17.375 8.875 C-20.68938746 13.8689757 -19.9584234 20.14748982 -19.375 25.875 C-18.18294044 29.19924856 -16.33533222 31.1133572 -13.5625 33.3125 C-10.156792 34.18825348 -7.76219708 33.76636765 -4.375 32.875 C-1.25594953 30.29839309 0.3431368 28.7205896 1.625 24.875 C2.12642912 18.7324933 2.46858043 12.99977391 -1.375 7.875 C-7.75375668 3.80345318 -11.49339691 4.27200628 -17.375 8.875 Z " fill="#FFFFFF" transform="translate(1294.375,699.125)"/>
<path d="M0 0 C5.56196843 3.97283459 8.39424685 8.16180098 9.625 14.875 C10.39151762 21.97413245 9.5400672 27.80484993 5.625 33.875 C2.27113155 37.54411457 -1.04619655 39.67001153 -6.08203125 40.11328125 C-12.36206119 40.26337002 -16.5380672 40.34916284 -21.375 35.875 C-27.04864632 29.72854982 -27.83502723 24.26556845 -27.6875 16.10546875 C-27.10036689 10.03598025 -24.86188172 5.94231732 -20.3125 1.9375 C-14.30615369 -2.27972188 -6.8508692 -2.28362307 0 0 Z M-17.375 8.875 C-20.68938746 13.8689757 -19.9584234 20.14748982 -19.375 25.875 C-18.18294044 29.19924856 -16.33533222 31.1133572 -13.5625 33.3125 C-10.156792 34.18825348 -7.76219708 33.76636765 -4.375 32.875 C-1.25594953 30.29839309 0.3431368 28.7205896 1.625 24.875 C2.12642912 18.7324933 2.46858043 12.99977391 -1.375 7.875 C-7.75375668 3.80345318 -11.49339691 4.27200628 -17.375 8.875 Z " fill="#FFFFFF" transform="translate(948.375,699.125)"/>
<path d="M0 0 C5.34794776 4.93656716 5.34794776 4.93656716 5.625 9 C5.5321875 10.11375 5.5321875 10.11375 5.4375 11.25 C0.06079486 11.69071354 0.06079486 11.69071354 -2.5625 11.25 C-3.61142238 9.61368108 -4.61156703 7.94514137 -5.5625 6.25 C-9.45585307 5.27666173 -11.74103346 4.97617782 -15.5625 6.25 C-15.8925 7.9 -16.2225 9.55 -16.5625 11.25 C-11.49364731 13.50282342 -6.38727996 15.36665605 -1.11328125 17.08984375 C1.82973897 18.42839965 3.4474394 19.70308757 5.4375 22.25 C6.24035467 25.65521117 6.08786995 28.82027131 5.4375 32.25 C2.8861114 35.65185147 0.3491285 37.66884964 -3.5625 39.25 C-9.29283604 39.89419464 -15.46162162 40.32650848 -20.6875 37.5625 C-23.56588375 35.24727829 -25.12367122 33.63547948 -26.5625 30.25 C-26.5625 28.93 -26.5625 27.61 -26.5625 26.25 C-21.18226637 25.80899724 -21.18226637 25.80899724 -18.5625 26.25 C-17.54383771 27.90532623 -16.54439187 29.57260138 -15.5625 31.25 C-11.63097799 32.71349608 -8.4553949 32.58483559 -4.5625 31.125 C-2.2657124 29.40771665 -2.2657124 29.40771665 -2.4375 26.6328125 C-2.47875 25.84648438 -2.52 25.06015625 -2.5625 24.25 C-3.25214844 24.07984375 -3.94179687 23.9096875 -4.65234375 23.734375 C-20.85886725 19.55491489 -20.85886725 19.55491489 -24.6875 14.375 C-25.70463142 10.74238777 -25.7080838 8.83949592 -24.5625 5.25 C-19.25358147 -3.09258626 -8.54234013 -4.19623725 0 0 Z " fill="#FFFFFF" transform="translate(1558.5625,699.75)"/>
<path d="M0 0 C2.31 0 4.62 0 7 0 C7.01981934 0.85754883 7.03963867 1.71509766 7.06005859 2.59863281 C7.13829521 5.78947642 7.22499343 8.9799474 7.31738281 12.17041016 C7.35559338 13.54955243 7.39046002 14.92879167 7.421875 16.30810547 C7.46769624 18.29416967 7.52666263 20.27991679 7.5859375 22.265625 C7.6173584 23.45961914 7.6487793 24.65361328 7.68115234 25.88378906 C7.98393982 28.84303822 8.26890094 30.59979071 10 33 C13.98496041 34.12781898 16.10041891 34.43023443 19.875 32.625 C21.8719664 31.17208818 21.8719664 31.17208818 23 30 C23.15873955 27.78312006 23.25133837 25.56144702 23.31640625 23.33984375 C23.33718735 22.67537735 23.35796844 22.01091095 23.37937927 21.3263092 C23.44493658 19.19681457 23.50378785 17.06719332 23.5625 14.9375 C23.60567939 13.49673153 23.64929349 12.05597601 23.69335938 10.61523438 C23.80062393 7.0769596 23.90187371 3.53854131 24 0 C26.64 0 29.28 0 32 0 C32 13.2 32 26.4 32 40 C28.33333333 40 24.66666667 40 21 40 C20.01 40.495 20.01 40.495 19 41 C9.13530233 42.0337258 9.13530233 42.0337258 4.91015625 39.98828125 C2.31198477 37.87289958 1.06130429 36.18391286 0 33 C-0.0846817 30.48631945 -0.11601885 28.00130626 -0.09765625 25.48828125 C-0.0962413 24.76005661 -0.09482635 24.03183197 -0.09336853 23.28153992 C-0.08777659 20.95848461 -0.07522562 18.63552612 -0.0625 16.3125 C-0.05748396 14.73632952 -0.05292123 13.16015752 -0.04882812 11.58398438 C-0.0378098 7.72261902 -0.02055074 3.86132592 0 0 Z " fill="#FFFFFF" transform="translate(1340,698)"/>
<path d="M0 0 C2.31 0 4.62 0 7 0 C7.33 0.99 7.66 1.98 8 3 C8.598125 2.505 9.19625 2.01 9.8125 1.5 C15.28702907 -1.07624897 21.32013725 -0.94911806 27 1.0625 C30.62208367 4.57139356 31.87115007 8.65746688 32.34057617 13.54858398 C32.3170105 15.37885132 32.3170105 15.37885132 32.29296875 17.24609375 C32.28872391 17.90207047 32.28447906 18.55804718 32.28010559 19.23390198 C32.26348779 21.30220911 32.22587238 23.36949401 32.1875 25.4375 C32.17243111 26.85089725 32.15874659 28.26430998 32.14648438 29.67773438 C32.11364104 33.11881435 32.06198015 36.55930719 32 40 C29.36 40 26.72 40 24 40 C23.9906543 39.14245117 23.98130859 38.28490234 23.97167969 37.40136719 C23.92758709 34.21027321 23.86593944 31.02013244 23.79248047 27.82958984 C23.76430901 26.45048349 23.74307528 25.07121682 23.72900391 23.69189453 C23.70752455 21.70577051 23.65876868 19.72000091 23.609375 17.734375 C23.58842773 16.54038086 23.56748047 15.34638672 23.54589844 14.11621094 C22.89926645 10.42497182 22.02269338 9.16871832 19 7 C15.37542227 7.19076725 12.43470709 7.85509764 9 9 C7.8992924 12.3021228 7.79372928 14.94083279 7.68359375 18.41796875 C7.64169922 19.67158203 7.59980469 20.92519531 7.55664062 22.21679688 C7.51732422 23.52712891 7.47800781 24.83746094 7.4375 26.1875 C7.39429008 27.52279978 7.350675 28.85808652 7.30664062 30.19335938 C7.20043498 33.46213297 7.09839003 36.73098333 7 40 C4.69 40 2.38 40 0 40 C0 26.8 0 13.6 0 0 Z " fill="#FFFFFF" transform="translate(1976,698)"/>
<path d="M0 0 C2.31 0 4.62 0 7 0 C7.33 0.99 7.66 1.98 8 3 C8.598125 2.505 9.19625 2.01 9.8125 1.5 C15.28702907 -1.07624897 21.32013725 -0.94911806 27 1.0625 C30.62208367 4.57139356 31.87115007 8.65746688 32.34057617 13.54858398 C32.3170105 15.37885132 32.3170105 15.37885132 32.29296875 17.24609375 C32.28872391 17.90207047 32.28447906 18.55804718 32.28010559 19.23390198 C32.26348779 21.30220911 32.22587238 23.36949401 32.1875 25.4375 C32.17243111 26.85089725 32.15874659 28.26430998 32.14648438 29.67773438 C32.11364104 33.11881435 32.06198015 36.55930719 32 40 C29.36 40 26.72 40 24 40 C23.9906543 39.14245117 23.98130859 38.28490234 23.97167969 37.40136719 C23.92758709 34.21027321 23.86593944 31.02013244 23.79248047 27.82958984 C23.76430901 26.45048349 23.74307528 25.07121682 23.72900391 23.69189453 C23.70752455 21.70577051 23.65876868 19.72000091 23.609375 17.734375 C23.58842773 16.54038086 23.56748047 15.34638672 23.54589844 14.11621094 C22.89926645 10.42497182 22.02269338 9.16871832 19 7 C15.37542227 7.19076725 12.43470709 7.85509764 9 9 C7.8992924 12.3021228 7.79372928 14.94083279 7.68359375 18.41796875 C7.64169922 19.67158203 7.59980469 20.92519531 7.55664062 22.21679688 C7.51732422 23.52712891 7.47800781 24.83746094 7.4375 26.1875 C7.39429008 27.52279978 7.350675 28.85808652 7.30664062 30.19335938 C7.20043498 33.46213297 7.09839003 36.73098333 7 40 C4.69 40 2.38 40 0 40 C0 26.8 0 13.6 0 0 Z " fill="#FFFFFF" transform="translate(1488,698)"/>
<path d="M0 0 C2.31 0 4.62 0 7 0 C7.33 0.99 7.66 1.98 8 3 C8.598125 2.505 9.19625 2.01 9.8125 1.5 C15.28702907 -1.07624897 21.32013725 -0.94911806 27 1.0625 C30.62208367 4.57139356 31.87115007 8.65746688 32.34057617 13.54858398 C32.3170105 15.37885132 32.3170105 15.37885132 32.29296875 17.24609375 C32.28872391 17.90207047 32.28447906 18.55804718 32.28010559 19.23390198 C32.26348779 21.30220911 32.22587238 23.36949401 32.1875 25.4375 C32.17243111 26.85089725 32.15874659 28.26430998 32.14648438 29.67773438 C32.11364104 33.11881435 32.06198015 36.55930719 32 40 C29.36 40 26.72 40 24 40 C23.9906543 39.14245117 23.98130859 38.28490234 23.97167969 37.40136719 C23.92758709 34.21027321 23.86593944 31.02013244 23.79248047 27.82958984 C23.76430901 26.45048349 23.74307528 25.07121682 23.72900391 23.69189453 C23.70752455 21.70577051 23.65876868 19.72000091 23.609375 17.734375 C23.58842773 16.54038086 23.56748047 15.34638672 23.54589844 14.11621094 C22.89926645 10.42497182 22.02269338 9.16871832 19 7 C15.37542227 7.19076725 12.43470709 7.85509764 9 9 C7.8992924 12.3021228 7.79372928 14.94083279 7.68359375 18.41796875 C7.64169922 19.67158203 7.59980469 20.92519531 7.55664062 22.21679688 C7.51732422 23.52712891 7.47800781 24.83746094 7.4375 26.1875 C7.39429008 27.52279978 7.350675 28.85808652 7.30664062 30.19335938 C7.20043498 33.46213297 7.09839003 36.73098333 7 40 C4.69 40 2.38 40 0 40 C0 26.8 0 13.6 0 0 Z " fill="#FFFFFF" transform="translate(877,698)"/>
<path d="M0 0 C2.31 0 4.62 0 7 0 C7.33 0.99 7.66 1.98 8 3 C8.598125 2.505 9.19625 2.01 9.8125 1.5 C15.28702907 -1.07624897 21.32013725 -0.94911806 27 1.0625 C30.62208367 4.57139356 31.87115007 8.65746688 32.34057617 13.54858398 C32.3170105 15.37885132 32.3170105 15.37885132 32.29296875 17.24609375 C32.28872391 17.90207047 32.28447906 18.55804718 32.28010559 19.23390198 C32.26348779 21.30220911 32.22587238 23.36949401 32.1875 25.4375 C32.17243111 26.85089725 32.15874659 28.26430998 32.14648438 29.67773438 C32.11364104 33.11881435 32.06198015 36.55930719 32 40 C29.36 40 26.72 40 24 40 C23.9906543 39.14245117 23.98130859 38.28490234 23.97167969 37.40136719 C23.92758709 34.21027321 23.86593944 31.02013244 23.79248047 27.82958984 C23.76430901 26.45048349 23.74307528 25.07121682 23.72900391 23.69189453 C23.70752455 21.70577051 23.65876868 19.72000091 23.609375 17.734375 C23.58842773 16.54038086 23.56748047 15.34638672 23.54589844 14.11621094 C22.89926645 10.42497182 22.02269338 9.16871832 19 7 C15.37542227 7.19076725 12.43470709 7.85509764 9 9 C7.8992924 12.3021228 7.79372928 14.94083279 7.68359375 18.41796875 C7.64169922 19.67158203 7.59980469 20.92519531 7.55664062 22.21679688 C7.51732422 23.52712891 7.47800781 24.83746094 7.4375 26.1875 C7.39429008 27.52279978 7.350675 28.85808652 7.30664062 30.19335938 C7.20043498 33.46213297 7.09839003 36.73098333 7 40 C4.69 40 2.38 40 0 40 C0 26.8 0 13.6 0 0 Z " fill="#FFFFFF" transform="translate(830,698)"/>
<path d="M0 0 C3.54220284 3.3650927 6.31472576 6.24434621 6.75 11.25 C6.6675 11.95125 6.585 12.6525 6.5 13.375 C4.19 13.375 1.88 13.375 -0.5 13.375 C-0.9125 12.42625 -1.325 11.4775 -1.75 10.5 C-3.22315321 7.42457237 -3.22315321 7.42457237 -5.25 5.9375 C-8.59473496 5.10131626 -11.17106331 5.58816042 -14.5 6.375 C-17.08455285 8.27033875 -17.46275506 9.26326517 -18.5 12.375 C-18.67143087 14.66261847 -18.76643463 16.95642969 -18.8125 19.25 C-18.84988281 20.46429687 -18.88726563 21.67859375 -18.92578125 22.9296875 C-18.42472267 26.98412483 -17.41488377 28.56384875 -14.5 31.375 C-10.55070721 32.52388518 -8.47041141 32.80629396 -4.6875 31.125 C-2.2897427 29.38808468 -2.2897427 29.38808468 -0.5 26.375 C3.125 26.1875 3.125 26.1875 6.5 26.375 C6.42478893 29.53386495 6.12522327 31.67584288 3.98046875 34.07421875 C-1.45270541 38.79822071 -5.54014213 39.73755115 -12.70703125 39.65234375 C-17.01971013 39.22409172 -19.06369156 38.03989226 -22.5 35.375 C-28.14574913 28.24352741 -28.2471937 21.23754744 -27.5 12.375 C-25.97793928 6.63418403 -23.66338023 2.55246476 -18.5 -0.625 C-12.47662369 -2.6327921 -5.76053591 -2.67453453 0 0 Z " fill="#FFFFFF" transform="translate(2319.5,699.625)"/>
<path d="M0 0 C0.98484375 0.01804687 1.9696875 0.03609375 2.984375 0.0546875 C4.10585937 0.08949219 4.10585937 0.08949219 5.25 0.125 C4.92 2.435 4.59 4.745 4.25 7.125 C3.321875 7.08375 2.39375 7.0425 1.4375 7 C-1.90809719 6.85363661 -1.90809719 6.85363661 -4.75 9.125 C-5.32748803 11.08861864 -5.32748803 11.08861864 -5.4375 13.25 C-5.5921875 15.168125 -5.5921875 15.168125 -5.75 17.125 C-3.11 17.125 -0.47 17.125 2.25 17.125 C2.25 19.105 2.25 21.085 2.25 23.125 C-0.39 23.125 -3.03 23.125 -5.75 23.125 C-5.75 34.345 -5.75 45.565 -5.75 57.125 C-8.39 57.125 -11.03 57.125 -13.75 57.125 C-13.75 45.905 -13.75 34.685 -13.75 23.125 C-15.73 23.125 -17.71 23.125 -19.75 23.125 C-19.75 21.145 -19.75 19.165 -19.75 17.125 C-17.77 17.125 -15.79 17.125 -13.75 17.125 C-13.79640625 16.54492188 -13.8428125 15.96484375 -13.890625 15.3671875 C-14.15087738 9.7345825 -13.62289911 6.53580176 -9.75 2.125 C-6.47129345 0.00390694 -3.85726865 -0.09183973 0 0 Z " fill="#FFFFFF" transform="translate(1617.75,680.875)"/>
<path d="M0 0 C2.64 0 5.28 0 8 0 C10.97 8.91 13.94 17.82 17 27 C19.97 18.09 22.94 9.18 26 0 C28.64 0 31.28 0 34 0 C33.36164426 4.83413658 31.99536232 9.21636855 30.3125 13.76953125 C30.04993408 14.49113937 29.78736816 15.2127475 29.5168457 15.95622253 C28.96456134 17.47066544 28.40974999 18.98418897 27.85253906 20.49682617 C26.99704298 22.82053188 26.15027567 25.14728225 25.3046875 27.47460938 C24.76613289 28.9481024 24.22708785 30.42141628 23.6875 31.89453125 C23.43331299 32.59238235 23.17912598 33.29023346 22.91723633 34.00923157 C21.11593697 38.88406303 21.11593697 38.88406303 20 40 C18.00041636 40.04080783 15.99954746 40.04254356 14 40 C10.67442458 31.91889877 7.68658948 23.72927982 4.75 15.5 C4.28655137 14.21350815 3.82301026 12.9270496 3.359375 11.640625 C2.92625 10.42890625 2.493125 9.2171875 2.046875 7.96875 C1.65338867 6.86982422 1.25990234 5.77089844 0.85449219 4.63867188 C0 2 0 2 0 0 Z " fill="#FFFFFF" transform="translate(1106,698)"/>
<path d="M0 0 C2.64 0 5.28 0 8 0 C10.97 8.91 13.94 17.82 17 27 C19.97 18.09 22.94 9.18 26 0 C28.64 0 31.28 0 34 0 C33.36164426 4.83413658 31.99536232 9.21636855 30.3125 13.76953125 C30.04993408 14.49113937 29.78736816 15.2127475 29.5168457 15.95622253 C28.96456134 17.47066544 28.40974999 18.98418897 27.85253906 20.49682617 C26.99704298 22.82053188 26.15027567 25.14728225 25.3046875 27.47460938 C24.76613289 28.9481024 24.22708785 30.42141628 23.6875 31.89453125 C23.43331299 32.59238235 23.17912598 33.29023346 22.91723633 34.00923157 C21.11593697 38.88406303 21.11593697 38.88406303 20 40 C18.00041636 40.04080783 15.99954746 40.04254356 14 40 C10.67442458 31.91889877 7.68658948 23.72927982 4.75 15.5 C4.28655137 14.21350815 3.82301026 12.9270496 3.359375 11.640625 C2.92625 10.42890625 2.493125 9.2171875 2.046875 7.96875 C1.65338867 6.86982422 1.25990234 5.77089844 0.85449219 4.63867188 C0 2 0 2 0 0 Z " fill="#FFFFFF" transform="translate(966,698)"/>
<path d="M0 0 C2.64 0 5.28 0 8 0 C8 3.3 8 6.6 8 10 C10.31 10 12.62 10 15 10 C15 11.98 15 13.96 15 16 C12.69 16 10.38 16 8 16 C8.33 24.91 8.66 33.82 9 43 C12.63619656 44.08084521 12.63619656 44.08084521 15 44 C15 46.31 15 48.62 15 51 C5.8853167 51.62619962 5.8853167 51.62619962 2.4375 49.1875 C-0.12300607 45.29107772 -0.1182626 42.1360346 -0.09765625 37.58203125 C-0.09443359 36.32841797 -0.09121094 35.07480469 -0.08789062 33.78320312 C-0.07951172 32.47287109 -0.07113281 31.16253906 -0.0625 29.8125 C-0.05748317 28.47721519 -0.05292059 27.14192859 -0.04882812 25.80664062 C-0.03702695 22.53771527 -0.02056297 19.26888009 0 16 C-2.31 16 -4.62 16 -7 16 C-7 14.02 -7 12.04 -7 10 C-4.69 10 -2.38 10 0 10 C0 6.7 0 3.4 0 0 Z " fill="#FFFFFF" transform="translate(2220,688)"/>
<path d="M0 0 C2.64 0 5.28 0 8 0 C8 3.3 8 6.6 8 10 C10.31 10 12.62 10 15 10 C15 11.98 15 13.96 15 16 C12.69 16 10.38 16 8 16 C8.33 24.91 8.66 33.82 9 43 C12.63619656 44.08084521 12.63619656 44.08084521 15 44 C15 46.31 15 48.62 15 51 C5.8853167 51.62619962 5.8853167 51.62619962 2.4375 49.1875 C-0.12300607 45.29107772 -0.1182626 42.1360346 -0.09765625 37.58203125 C-0.09443359 36.32841797 -0.09121094 35.07480469 -0.08789062 33.78320312 C-0.07951172 32.47287109 -0.07113281 31.16253906 -0.0625 29.8125 C-0.05748317 28.47721519 -0.05292059 27.14192859 -0.04882812 25.80664062 C-0.03702695 22.53771527 -0.02056297 19.26888009 0 16 C-2.31 16 -4.62 16 -7 16 C-7 14.02 -7 12.04 -7 10 C-4.69 10 -2.38 10 0 10 C0 6.7 0 3.4 0 0 Z " fill="#FFFFFF" transform="translate(1389,688)"/>
<path d="M0 0 C2.64 0 5.28 0 8 0 C8 3.3 8 6.6 8 10 C10.31 10 12.62 10 15 10 C15 11.98 15 13.96 15 16 C12.69 16 10.38 16 8 16 C8.33 24.91 8.66 33.82 9 43 C12.63619656 44.08084521 12.63619656 44.08084521 15 44 C15 46.31 15 48.62 15 51 C5.8853167 51.62619962 5.8853167 51.62619962 2.4375 49.1875 C-0.12300607 45.29107772 -0.1182626 42.1360346 -0.09765625 37.58203125 C-0.09443359 36.32841797 -0.09121094 35.07480469 -0.08789062 33.78320312 C-0.07951172 32.47287109 -0.07113281 31.16253906 -0.0625 29.8125 C-0.05748317 28.47721519 -0.05292059 27.14192859 -0.04882812 25.80664062 C-0.03702695 22.53771527 -0.02056297 19.26888009 0 16 C-2.31 16 -4.62 16 -7 16 C-7 14.02 -7 12.04 -7 10 C-4.69 10 -2.38 10 0 10 C0 6.7 0 3.4 0 0 Z " fill="#FFFFFF" transform="translate(1059,688)"/>
<path d="M0 0 C2.64 0 5.28 0 8 0 C8 18.48 8 36.96 8 56 C5.36 56 2.72 56 0 56 C0 37.52 0 19.04 0 0 Z " fill="#FFFFFF" transform="translate(2195,682)"/>
<path d="M0 0 C2.64 0 5.28 0 8 0 C8 18.48 8 36.96 8 56 C5.36 56 2.72 56 0 56 C0 37.52 0 19.04 0 0 Z " fill="#FFFFFF" transform="translate(1317,682)"/>
<path d="M0 0 C2.64 0 5.28 0 8 0 C8 17.49 8 34.98 8 53 C5.36 53 2.72 53 0 53 C0 35.51 0 18.02 0 0 Z " fill="#FFFFFF" transform="translate(806,685)"/>
<path d="M0 0 C2.31 0 4.62 0 7 0 C7.33 0.66 7.66 1.32 8 2 C8.495 1.67 8.99 1.34 9.5 1 C13.09090894 -0.43636358 16.14456127 -0.12851462 20 0 C20 2.31 20 4.62 20 7 C19.38511719 7.02578125 18.77023438 7.0515625 18.13671875 7.078125 C17.32847656 7.13484375 16.52023438 7.1915625 15.6875 7.25 C14.48673828 7.31960938 14.48673828 7.31960938 13.26171875 7.390625 C10.20031433 8.21545935 9.59486955 9.2828978 8 12 C7.49682807 15.09151231 7.49682807 15.09151231 7.48828125 18.515625 C7.45283203 19.76601563 7.41738281 21.01640625 7.38085938 22.3046875 C7.35830078 23.60664062 7.33574219 24.90859375 7.3125 26.25 C7.27833984 27.56742188 7.24417969 28.88484375 7.20898438 30.2421875 C7.12649294 33.49470678 7.0573433 36.74695596 7 40 C4.69 40 2.38 40 0 40 C0 26.8 0 13.6 0 0 Z " fill="#FFFFFF" transform="translate(2385,698)"/>
<path d="M0 0 C2.31 0 4.62 0 7 0 C7.33 0.66 7.66 1.32 8 2 C8.495 1.67 8.99 1.34 9.5 1 C13.09090894 -0.43636358 16.14456127 -0.12851462 20 0 C20 2.31 20 4.62 20 7 C19.38511719 7.02578125 18.77023437 7.0515625 18.13671875 7.078125 C17.32847656 7.13484375 16.52023437 7.1915625 15.6875 7.25 C14.48673828 7.31960938 14.48673828 7.31960938 13.26171875 7.390625 C10.20031433 8.21545935 9.59486955 9.2828978 8 12 C7.49682807 15.09151231 7.49682807 15.09151231 7.48828125 18.515625 C7.45283203 19.76601563 7.41738281 21.01640625 7.38085938 22.3046875 C7.35830078 23.60664062 7.33574219 24.90859375 7.3125 26.25 C7.27833984 27.56742188 7.24417969 28.88484375 7.20898438 30.2421875 C7.12649294 33.49470678 7.0573433 36.74695596 7 40 C4.69 40 2.38 40 0 40 C0 26.8 0 13.6 0 0 Z " fill="#FFFFFF" transform="translate(1945,698)"/>
<path d="M0 0 C2.31 0 4.62 0 7 0 C7.33 0.66 7.66 1.32 8 2 C8.495 1.67 8.99 1.34 9.5 1 C13.09090894 -0.43636358 16.14456127 -0.12851462 20 0 C20 2.31 20 4.62 20 7 C19.38511719 7.02578125 18.77023437 7.0515625 18.13671875 7.078125 C17.32847656 7.13484375 16.52023437 7.1915625 15.6875 7.25 C14.48673828 7.31960938 14.48673828 7.31960938 13.26171875 7.390625 C10.20031433 8.21545935 9.59486955 9.2828978 8 12 C7.49682807 15.09151231 7.49682807 15.09151231 7.48828125 18.515625 C7.45283203 19.76601563 7.41738281 21.01640625 7.38085938 22.3046875 C7.35830078 23.60664062 7.33574219 24.90859375 7.3125 26.25 C7.27833984 27.56742188 7.24417969 28.88484375 7.20898438 30.2421875 C7.12649294 33.49470678 7.0573433 36.74695596 7 40 C4.69 40 2.38 40 0 40 C0 26.8 0 13.6 0 0 Z " fill="#FFFFFF" transform="translate(1680,698)"/>
<path d="M0 0 C2.64 0 5.28 0 8 0 C8 13.2 8 26.4 8 40 C5.36 40 2.72 40 0 40 C0 26.8 0 13.6 0 0 Z " fill="#FFFFFF" transform="translate(1416,698)"/>
<path d="M0 0 C2.64 0 5.28 0 8 0 C8 13.2 8 26.4 8 40 C5.36 40 2.72 40 0 40 C0 26.8 0 13.6 0 0 Z " fill="#FFFFFF" transform="translate(1087,698)"/>
<path d="M0 0 C1.4540625 0.0309375 1.4540625 0.0309375 2.9375 0.0625 C4.0625 2.375 4.0625 2.375 4.9375 5.0625 C3.9475 6.5475 3.9475 6.5475 2.9375 8.0625 C-0.125 8.3125 -0.125 8.3125 -3.0625 8.0625 C-4.0625 7.0625 -4.0625 7.0625 -4.1875 4.0625 C-4.02164894 0.08207447 -4.02164894 0.08207447 0 0 Z " fill="#FFFFFF" transform="translate(1420.0625,682.9375)"/>
<path d="M0 0 C1.4540625 0.0309375 1.4540625 0.0309375 2.9375 0.0625 C4.0625 2.375 4.0625 2.375 4.9375 5.0625 C3.9475 6.5475 3.9475 6.5475 2.9375 8.0625 C-0.125 8.3125 -0.125 8.3125 -3.0625 8.0625 C-4.0625 7.0625 -4.0625 7.0625 -4.1875 4.0625 C-4.02164894 0.08207447 -4.02164894 0.08207447 0 0 Z " fill="#FFFFFF" transform="translate(1091.0625,682.9375)"/>
</svg>
