<svg
    width="39"
    height="30"
    viewBox="0 0 19 18"
    fill="none"
    xmlns="http://www.w3.org/2000/svg"
  >
    <path
      d="M14.4037 15.6025H4.01398C2.6901 15.6029 1.61687 16.6761 1.61646 18H16.8012C16.8012 16.6757 15.728 15.6025 14.4037 15.6025Z"
      fill="#FA2C2C"
    />
    <path
      d="M9.2091 4.41406C6.41137 4.41406 4.41406 6.41179 4.41406 9.34613V14.767H14.0041V9.34613C14.0041 6.41179 12.0081 4.41406 9.2091 4.41406ZM12.4075 10.426C12.1769 10.426 11.9897 10.2389 11.9897 10.0083C11.9897 8.50936 11.2536 7.13367 10.2769 6.80866C10.0576 6.73555 9.93893 6.4991 10.012 6.27977C10.0851 6.06045 10.3216 5.94181 10.5409 6.01492C11.8644 6.45649 12.8252 8.13588 12.8252 10.0083C12.8252 10.2389 12.6381 10.426 12.4075 10.426Z"
      fill="#FA2C2C"
    />
    <path
      d="M2.81528 9.62683H0.417759C0.187156 9.62683 0 9.43968 0 9.20908C0 8.97848 0.187156 8.79132 0.417759 8.79132H2.81528C3.04588 8.79132 3.23304 8.97848 3.23304 9.20908C3.23304 9.43968 3.04588 9.62683 2.81528 9.62683Z"
      fill="#FA2C2C"
    />
    <path
      d="M4.38019 5.00224C4.26949 5.00224 4.16296 4.95838 4.08484 4.87984L2.48649 3.28107C2.32607 3.11522 2.33067 2.85078 2.49694 2.69036C2.65903 2.53412 2.91553 2.53412 3.0772 2.69036L4.67555 4.28913C4.83847 4.45247 4.83847 4.71691 4.67555 4.87984C4.59701 4.95838 4.4909 5.00224 4.38019 5.00224Z"
      fill="#FA2C2C"
    />
    <path
      d="M9.20902 3.23304C8.97841 3.23304 8.79126 3.04588 8.79126 2.81528V0.417759C8.79126 0.187156 8.97841 0 9.20902 0C9.43962 0 9.62677 0.187156 9.62677 0.417759V2.81528C9.62677 3.04588 9.43962 3.23304 9.20902 3.23304Z"
      fill="#FA2C2C"
    />
    <path
      d="M14.1282 4.91156C13.8976 4.91156 13.7104 4.7244 13.7104 4.4938C13.7104 4.3831 13.7543 4.27698 13.8329 4.19845L15.4312 2.6001C15.5941 2.43676 15.859 2.43676 16.0223 2.59968C16.1857 2.76261 16.1857 3.02747 16.0223 3.19081L14.4236 4.78916C14.3454 4.8677 14.2389 4.91156 14.1282 4.91156Z"
      fill="#FA2C2C"
    />
    <path
      d="M18.0003 9.62683H15.6028C15.3722 9.62683 15.1851 9.43968 15.1851 9.20908C15.1851 8.97848 15.3722 8.79132 15.6028 8.79132H18.0003C18.2309 8.79132 18.4181 8.97848 18.4181 9.20908C18.4181 9.43968 18.2309 9.62683 18.0003 9.62683Z"
      fill="#FA2C2C"
    />
  </svg>