<?xml version="1.0" encoding="utf-8"?>
<!-- Generator: Adobe Illustrator 25.1.0, SVG Export Plug-In . SVG Version: 6.00 Build 0)  -->
<svg version="1.1" id="Layer_1" xmlns="http://www.w3.org/2000/svg" xmlns:xlink="http://www.w3.org/1999/xlink" x="0px" y="0px"
	 viewBox="0 0 8106.45 2732.06" style="enable-background:new 0 0 8106.45 2732.06;" xml:space="preserve">
<style type="text/css">
	.st0{fill:#FFFFFF;}
	.st1{fill:#0F4674;}
	.st2{fill:#3DBB96;}
</style>
<g>
	<path class="st0" d="M2088.94,2312.75v-216.93h28.48v216.93H2088.94z"/>
	<path class="st0" d="M2200.69,2140.9v27.86c11.68-20.45,30.37-30.68,56.04-30.68c18.99,0,34.85,6.32,47.58,18.94
		c12.73,12.63,19.1,30.63,19.1,54v101.74h-28.18v-97.04c0-17.32-4.17-30.47-12.52-39.44s-19.88-13.46-34.59-13.46
		c-14.72,0-26.3,4.49-34.75,13.46c-8.45,8.98-12.68,22.12-12.68,39.44v97.04h-28.48V2140.9H2200.69z"/>
	<path class="st0" d="M2432.96,2289.59h23.47v23.16h-28.8c-29.85,0-44.76-14.72-44.76-44.14v-104.55h-22.23v-23.16h22.23v-42.57
		h28.8v42.57h44.45v23.16h-44.45v104.55c0,7.72,1.56,13.15,4.69,16.28C2419.5,2288.02,2425.03,2289.59,2432.96,2289.59z"/>
	<path class="st0" d="M2567.57,2315.57c-24.63,0-44.66-8.14-60.1-24.42c-15.45-16.28-23.16-37.77-23.16-64.48
		c0-26.71,7.82-48.15,23.47-64.33s35.95-24.26,60.89-24.26s44.97,7.67,60.1,23.01c15.13,15.34,22.7,34.9,22.7,58.69
		c0,6.06-0.42,11.69-1.25,16.9h-136.8c0.83,17.11,6.21,30.63,16.12,40.54c9.91,9.91,22.59,14.87,38.04,14.87
		c11.68,0,21.54-2.61,29.58-7.83c8.03-5.21,13.93-12.1,17.68-20.66h30.68c-5.43,15.03-14.77,27.45-28.02,37.25
		C2604.24,2310.67,2587.6,2315.57,2567.57,2315.57z M2606.07,2176.42c-10.23-9.91-22.9-14.87-38.03-14.87
		c-15.13,0-27.7,4.85-37.72,14.56c-10.02,9.7-15.55,23.01-16.59,39.91h108C2621.51,2199.54,2616.3,2186.34,2606.07,2176.42z"/>
	<path class="st0" d="M2694.66,2312.75V2081.1h28.48v231.65H2694.66z"/>
	<path class="st0" d="M2777.93,2312.75V2081.1h28.48v231.65H2777.93z"/>
	<path class="st0" d="M2889.36,2107.72c-3.76,3.76-8.35,5.63-13.77,5.63c-5.43,0-9.97-1.88-13.62-5.63
		c-3.65-3.76-5.48-8.34-5.48-13.77c0-5.42,1.88-10.02,5.63-13.77s8.3-5.63,13.62-5.63c5.32,0,9.86,1.88,13.62,5.63
		s5.63,8.35,5.63,13.77C2895,2099.37,2893.12,2103.96,2889.36,2107.72z M2861.19,2312.75V2140.9h28.48v171.86H2861.19z"/>
	<path class="st0" d="M2956.66,2290.37c-15.65-16.8-23.47-38.29-23.47-64.49c0-26.18,7.77-47.37,23.32-63.54s35.11-24.26,58.7-24.26
		c14.6,0,27.39,3.45,38.35,10.33c10.95,6.89,19.25,15.86,24.88,26.92v-34.43h28.8v176.24c0,23.58-7.62,42.83-22.85,57.76
		c-15.24,14.92-34.54,22.38-57.91,22.38c-23.37,0-42.73-5.43-58.07-16.28c-15.34-10.85-24.05-25.04-26.14-42.57h27.86
		c2.71,9.81,9.08,17.95,19.09,24.42c10.02,6.47,22.43,9.71,37.25,9.71c14.81,0,27.18-4.86,37.1-14.56
		c9.91-9.71,14.87-23.32,14.87-40.85v-39.44c-5.63,11.27-13.93,20.4-24.88,27.39c-10.96,7-23.74,10.49-38.35,10.49
		C2991.83,2315.57,2972.31,2307.17,2956.66,2290.37z M3061.37,2273.62c11.37-11.68,17.06-27.23,17.06-46.64s-5.69-34.95-17.06-46.64
		c-11.37-11.68-25.04-17.53-41-17.53c-15.97,0-29.64,5.63-41.01,16.9c-11.38,11.27-17.06,26.61-17.06,46.02s5.74,35.16,17.22,47.27
		c11.47,12.11,25.14,18.16,41,18.16C3036.38,2291.15,3050,2285.31,3061.37,2273.62z"/>
	<path class="st0" d="M3234.02,2315.57c-24.63,0-44.66-8.14-60.1-24.42c-15.45-16.28-23.16-37.77-23.16-64.48
		c0-26.71,7.82-48.15,23.47-64.33s35.95-24.26,60.89-24.26s44.97,7.67,60.1,23.01c15.13,15.34,22.7,34.9,22.7,58.69
		c0,6.06-0.42,11.69-1.25,16.9h-136.8c0.83,17.11,6.21,30.63,16.12,40.54s22.59,14.87,38.04,14.87c11.68,0,21.54-2.61,29.58-7.83
		c8.03-5.21,13.93-12.1,17.68-20.66h30.68c-5.43,15.03-14.77,27.45-28.02,37.25C3270.69,2310.67,3254.05,2315.57,3234.02,2315.57z
		 M3272.52,2176.42c-10.23-9.91-22.9-14.87-38.03-14.87c-15.13,0-27.7,4.85-37.72,14.56c-10.02,9.7-15.55,23.01-16.59,39.91h108
		C3287.97,2199.54,3282.75,2186.34,3272.52,2176.42z"/>
	<path class="st0" d="M3389.59,2140.9v27.86c11.68-20.45,30.37-30.68,56.04-30.68c18.99,0,34.85,6.32,47.58,18.94
		c12.73,12.63,19.1,30.63,19.1,54v101.74h-28.18v-97.04c0-17.32-4.17-30.47-12.52-39.44c-8.35-8.98-19.88-13.46-34.59-13.46
		c-14.72,0-26.3,4.49-34.75,13.46c-8.45,8.98-12.68,22.12-12.68,39.44v97.04h-28.48V2140.9H3389.59z"/>
	<path class="st0" d="M3621.86,2289.59h23.47v23.16h-28.8c-29.85,0-44.76-14.72-44.76-44.14v-104.55h-22.23v-23.16h22.23v-42.57
		h28.8v42.57h44.45v23.16h-44.45v104.55c0,7.72,1.56,13.15,4.69,16.28C3608.4,2288.02,3613.93,2289.59,3621.86,2289.59z"/>
	<path class="st0" d="M3786.21,2312.75v-216.93h28.48v216.93H3786.21z"/>
	<path class="st0" d="M3897.96,2140.9v27.86c11.68-20.45,30.37-30.68,56.04-30.68c18.99,0,34.85,6.32,47.58,18.94
		c12.73,12.63,19.1,30.63,19.1,54v101.74h-28.18v-97.04c0-17.32-4.17-30.47-12.52-39.44c-8.35-8.98-19.88-13.46-34.59-13.46
		c-14.72,0-26.3,4.49-34.75,13.46c-8.45,8.98-12.68,22.12-12.68,39.44v97.04h-28.48V2140.9H3897.96z"/>
	<path class="st0" d="M4102.36,2140.9v27.86c11.68-20.45,30.37-30.68,56.04-30.68c18.99,0,34.85,6.32,47.58,18.94
		c12.73,12.63,19.1,30.63,19.1,54v101.74h-28.18v-97.04c0-17.32-4.17-30.47-12.52-39.44c-8.35-8.98-19.88-13.46-34.59-13.46
		c-14.71,0-26.3,4.49-34.75,13.46c-8.45,8.98-12.68,22.12-12.68,39.44v97.04h-28.48V2140.9H4102.36z"/>
	<path class="st0" d="M4290.66,2291.15c-15.76-16.28-23.63-37.66-23.63-64.17c0-26.5,8.24-47.94,24.73-64.33
		c16.48-16.38,37.14-24.57,61.98-24.57c24.83,0,45.5,8.2,61.99,24.57c16.48,16.39,24.73,37.77,24.73,64.17
		c0,26.41-8.61,47.79-25.83,64.17c-17.21,16.38-38.24,24.57-63.07,24.57C4326.71,2315.57,4306.41,2307.43,4290.66,2291.15z
		 M4351.54,2292.09c16.07,0,30-5.79,41.79-17.37c11.79-11.58,17.69-27.6,17.69-48.05c0-20.45-5.63-36.41-16.9-47.89
		c-11.27-11.48-25-17.22-41.16-17.22c-16.18,0-29.69,5.74-40.54,17.22c-10.85,11.48-16.28,27.49-16.28,48.05
		c0,20.56,5.21,36.57,15.65,48.05C4322.22,2286.35,4335.47,2292.09,4351.54,2292.09z"/>
	<path class="st0" d="M4464.23,2140.9h30.37l52.59,145.25l52.9-145.25h30.68l-67.3,171.86h-32.24L4464.23,2140.9z"/>
	<path class="st0" d="M4678.04,2290.37c-15.65-16.8-23.47-38.29-23.47-64.49c0-26.18,7.77-47.37,23.32-63.54s35.11-24.26,58.7-24.26
		c14.6,0,27.39,3.45,38.35,10.33c10.95,6.89,19.25,15.86,24.88,26.92v-34.43h28.8v171.86h-28.8v-35.06
		c-5.63,11.27-13.93,20.4-24.88,27.39c-10.96,7-23.74,10.49-38.35,10.49C4713.2,2315.57,4693.69,2307.17,4678.04,2290.37z
		 M4782.75,2273.62c11.37-11.68,17.06-27.23,17.06-46.64s-5.69-34.95-17.06-46.64c-11.37-11.68-25.04-17.53-41-17.53
		c-15.97,0-29.64,5.63-41.01,16.9c-11.38,11.27-17.06,26.61-17.06,46.02s5.74,35.16,17.22,47.27c11.47,12.11,25.14,18.16,41,18.16
		C4757.75,2291.15,4771.37,2285.31,4782.75,2273.62z"/>
	<path class="st0" d="M4939.74,2289.59h23.47v23.16h-28.8c-29.85,0-44.76-14.72-44.76-44.14v-104.55h-22.23v-23.16h22.23v-42.57
		h28.8v42.57h44.45v23.16h-44.45v104.55c0,7.72,1.56,13.15,4.69,16.28S4931.8,2289.59,4939.74,2289.59z"/>
	<path class="st0" d="M5030.52,2107.72c-3.76,3.76-8.35,5.63-13.77,5.63c-5.43,0-9.97-1.88-13.62-5.63
		c-3.65-3.76-5.48-8.34-5.48-13.77c0-5.42,1.88-10.02,5.63-13.77s8.3-5.63,13.62-5.63c5.32,0,9.86,1.88,13.62,5.63
		s5.63,8.35,5.63,13.77C5036.15,2099.37,5034.27,2103.96,5030.52,2107.72z M5002.34,2312.75V2140.9h28.48v171.86H5002.34z"/>
	<path class="st0" d="M5097.97,2291.15c-15.76-16.28-23.63-37.66-23.63-64.17c0-26.5,8.24-47.94,24.73-64.33
		c16.48-16.38,37.14-24.57,61.98-24.57c24.83,0,45.5,8.2,61.99,24.57c16.48,16.39,24.73,37.77,24.73,64.17
		c0,26.41-8.61,47.79-25.83,64.17c-17.21,16.38-38.24,24.57-63.07,24.57C5134.02,2315.57,5113.72,2307.43,5097.97,2291.15z
		 M5158.86,2292.09c16.07,0,30-5.79,41.79-17.37c11.79-11.58,17.69-27.6,17.69-48.05c0-20.45-5.63-36.41-16.9-47.89
		c-11.27-11.48-25-17.22-41.16-17.22c-16.18,0-29.69,5.74-40.54,17.22c-10.85,11.48-16.28,27.49-16.28,48.05
		c0,20.56,5.21,36.57,15.65,48.05C5129.53,2286.35,5142.79,2292.09,5158.86,2292.09z"/>
	<path class="st0" d="M5319.75,2140.9v27.86c11.68-20.45,30.37-30.68,56.04-30.68c18.99,0,34.85,6.32,47.58,18.94
		c12.73,12.63,19.1,30.63,19.1,54v101.74h-28.18v-97.04c0-17.32-4.17-30.47-12.52-39.44c-8.35-8.98-19.88-13.46-34.59-13.46
		c-14.72,0-26.3,4.49-34.75,13.46c-8.45,8.98-12.68,22.12-12.68,39.44v97.04h-28.48V2140.9H5319.75z"/>
	<path class="st0" d="M5489.42,2189.42c0-14.4,5.99-26.56,18-36.47c12-9.91,27.55-14.87,46.64-14.87c19.09,0,34.07,4.86,44.92,14.56
		c10.85,9.71,16.8,23.01,17.84,39.92h-29.43c-0.42-9.6-3.65-17.32-9.7-23.16c-6.06-5.84-14.45-8.77-25.2-8.77
		c-10.75,0-19.2,2.56-25.36,7.67c-6.16,5.12-9.23,11.69-9.23,19.72c0,8.03,3.49,14.24,10.48,18.62c6.99,4.38,15.45,7.57,25.36,9.55
		c9.91,1.98,19.82,4.28,29.74,6.89c9.91,2.61,18.36,7.51,25.35,14.72c6.99,7.2,10.49,17.42,10.49,30.68c0,13.25-6,24.42-18,33.49
		c-12,9.08-27.6,13.62-46.8,13.62c-19.2,0-34.59-4.8-46.18-14.4c-11.58-9.6-17.89-22.85-18.93-39.75h29.42
		c0.42,9.6,3.8,17.27,10.17,23.01c6.37,5.75,15.13,8.61,26.3,8.61c11.16,0,19.92-2.39,26.29-7.2c6.36-4.8,9.54-10.9,9.54-18.31
		c0-7.4-2.5-13.31-7.51-17.69c-5.01-4.38-11.27-7.4-18.78-9.08c-7.51-1.67-15.7-3.65-24.57-5.95c-8.87-2.29-17.06-4.75-24.57-7.35
		c-7.51-2.61-13.77-7.14-18.78-13.62C5491.92,2207.37,5489.42,2199.23,5489.42,2189.42z"/>
	<path class="st0" d="M5769.89,2312.75v-216.93h122.08v22.85h-93.6v73.57h73.88v22.54h-73.88v97.98H5769.89z"/>
	<path class="st0" d="M5943.47,2291.15c-15.76-16.28-23.63-37.66-23.63-64.17c0-26.5,8.24-47.94,24.73-64.33
		c16.48-16.38,37.14-24.57,61.98-24.57c24.83,0,45.5,8.2,61.99,24.57c16.48,16.39,24.73,37.77,24.73,64.17
		c0,26.41-8.61,47.79-25.83,64.17c-17.21,16.38-38.24,24.57-63.07,24.57C5979.52,2315.57,5959.22,2307.43,5943.47,2291.15z
		 M6004.35,2292.09c16.07,0,30-5.79,41.79-17.37c11.79-11.58,17.69-27.6,17.69-48.05c0-20.45-5.63-36.41-16.9-47.89
		c-11.27-11.48-25-17.22-41.16-17.22c-16.18,0-29.69,5.74-40.54,17.22c-10.85,11.48-16.28,27.49-16.28,48.05
		c0,20.56,5.21,36.57,15.65,48.05C5975.03,2286.35,5988.28,2292.09,6004.35,2292.09z"/>
	<path class="st0" d="M6165.25,2140.9v29.11c10.22-21.29,27.65-31.93,52.28-31.93v29.74h-7.51c-14.61,0-25.72,3.81-33.34,11.43
		c-7.62,7.62-11.43,20.82-11.43,39.6v93.91h-28.48V2140.9H6165.25z"/>
	<path class="st0" d="M6499.25,2095.82h28.8v216.93h-28.8v-97.98H6390v97.98h-28.48v-216.93H6390v96.41h109.25V2095.82z"/>
	<path class="st0" d="M6654.83,2315.57c-24.63,0-44.66-8.14-60.1-24.42c-15.45-16.28-23.16-37.77-23.16-64.48
		c0-26.71,7.82-48.15,23.47-64.33c15.65-16.17,35.95-24.26,60.89-24.26c24.94,0,44.97,7.67,60.1,23.01
		c15.13,15.34,22.7,34.9,22.7,58.69c0,6.06-0.42,11.69-1.25,16.9h-136.8c0.83,17.11,6.21,30.63,16.12,40.54
		c9.91,9.91,22.59,14.87,38.04,14.87c11.68,0,21.54-2.61,29.58-7.83c8.03-5.21,13.93-12.1,17.68-20.66h30.68
		c-5.43,15.03-14.77,27.45-28.02,37.25C6691.51,2310.67,6674.87,2315.57,6654.83,2315.57z M6693.33,2176.42
		c-10.23-9.91-22.9-14.87-38.03-14.87c-15.13,0-27.7,4.85-37.72,14.56c-10.02,9.7-15.55,23.01-16.59,39.91h108
		C6708.78,2199.54,6703.56,2186.34,6693.33,2176.42z"/>
	<path class="st0" d="M6794.13,2290.37c-15.65-16.8-23.48-38.29-23.48-64.49c0-26.18,7.77-47.37,23.32-63.54s35.11-24.26,58.7-24.26
		c14.6,0,27.39,3.45,38.35,10.33c10.95,6.89,19.25,15.86,24.88,26.92v-34.43h28.8v171.86h-28.8v-35.06
		c-5.63,11.27-13.93,20.4-24.88,27.39c-10.96,7-23.74,10.49-38.35,10.49C6829.3,2315.57,6809.78,2307.17,6794.13,2290.37z
		 M6898.84,2273.62c11.37-11.68,17.06-27.23,17.06-46.64s-5.69-34.95-17.06-46.64c-11.37-11.68-25.04-17.53-41-17.53
		c-15.97,0-29.64,5.63-41.01,16.9c-11.38,11.27-17.06,26.61-17.06,46.02s5.74,35.16,17.22,47.27c11.47,12.11,25.14,18.16,41,18.16
		C6873.85,2291.15,6887.47,2285.31,6898.84,2273.62z"/>
	<path class="st0" d="M6999.48,2312.75V2081.1h28.48v231.65H6999.48z"/>
	<path class="st0" d="M7139.1,2289.59h23.47v23.16h-28.8c-29.85,0-44.76-14.72-44.76-44.14v-104.55h-22.23v-23.16h22.23v-42.57h28.8
		v42.57h44.45v23.16h-44.45v104.55c0,7.72,1.56,13.15,4.69,16.28S7131.16,2289.59,7139.1,2289.59z"/>
	<path class="st0" d="M7230.19,2081.1v87.65c11.69-20.45,30.37-30.68,56.04-30.68c18.99,0,34.85,6.32,47.58,18.94
		c12.73,12.63,19.1,30.63,19.1,54v101.74h-28.18v-97.04c0-17.32-4.17-30.47-12.52-39.44c-8.35-8.98-19.88-13.46-34.59-13.46
		c-14.72,0-26.3,4.49-34.75,13.46c-8.45,8.98-12.68,22.12-12.68,39.44v97.04h-28.48V2081.1H7230.19z"/>
	<path class="st0" d="M7418.01,2291.15c-15.45-16.28-23.16-37.72-23.16-64.33c0-26.61,7.72-48.05,23.16-64.33
		c15.44-16.28,35.48-24.42,60.1-24.42c20.66,0,37.51,4.8,50.55,14.4c13.04,9.6,22.18,23.27,27.39,41.01h-30.68
		c-3.34-10.02-9.08-17.84-17.21-23.47s-18.16-8.45-30.05-8.45c-16.28,0-29.38,5.69-39.29,17.06c-9.91,11.37-14.87,27.44-14.87,48.21
		c0,20.77,4.96,36.84,14.87,48.21c9.91,11.38,23.01,17.06,39.29,17.06c24.42,0,40.17-10.64,47.27-31.93h30.68
		c-5.22,16.9-14.46,30.36-27.7,40.38c-13.26,10.02-30,15.03-50.24,15.03C7453.49,2315.57,7433.45,2307.43,7418.01,2291.15z"/>
	<path class="st0" d="M7613.96,2290.37c-15.65-16.8-23.47-38.29-23.47-64.49c0-26.18,7.77-47.37,23.32-63.54s35.11-24.26,58.7-24.26
		c14.6,0,27.39,3.45,38.35,10.33c10.95,6.89,19.25,15.86,24.88,26.92v-34.43h28.8v171.86h-28.8v-35.06
		c-5.63,11.27-13.93,20.4-24.88,27.39c-10.96,7-23.74,10.49-38.35,10.49C7649.13,2315.57,7629.61,2307.17,7613.96,2290.37z
		 M7718.67,2273.62c11.37-11.68,17.06-27.23,17.06-46.64s-5.69-34.95-17.06-46.64c-11.37-11.68-25.04-17.53-41-17.53
		c-15.97,0-29.64,5.63-41.01,16.9c-11.38,11.27-17.06,26.61-17.06,46.02s5.74,35.16,17.22,47.27c11.47,12.11,25.14,18.16,41,18.16
		C7693.68,2291.15,7707.3,2285.31,7718.67,2273.62z"/>
	<path class="st0" d="M7847.8,2140.9v29.11c10.22-21.29,27.65-31.93,52.28-31.93v29.74h-7.51c-14.61,0-25.72,3.81-33.34,11.43
		c-7.62,7.62-11.43,20.82-11.43,39.6v93.91h-28.48V2140.9H7847.8z"/>
	<path class="st0" d="M8014.34,2315.57c-24.63,0-44.66-8.14-60.1-24.42c-15.45-16.28-23.16-37.77-23.16-64.48
		c0-26.71,7.82-48.15,23.47-64.33c15.65-16.17,35.95-24.26,60.89-24.26c24.94,0,44.97,7.67,60.1,23.01
		c15.13,15.34,22.7,34.9,22.7,58.69c0,6.06-0.42,11.69-1.25,16.9h-136.8c0.83,17.11,6.21,30.63,16.12,40.54
		c9.91,9.91,22.59,14.87,38.04,14.87c11.68,0,21.54-2.61,29.58-7.83c8.03-5.21,13.93-12.1,17.68-20.66h30.68
		c-5.43,15.03-14.77,27.45-28.02,37.25C8051.01,2310.67,8034.37,2315.57,8014.34,2315.57z M8052.84,2176.42
		c-10.23-9.91-22.9-14.87-38.03-14.87c-15.13,0-27.7,4.85-37.72,14.56c-10.02,9.7-15.55,23.01-16.59,39.91h108
		C8068.28,2199.54,8063.07,2186.34,8052.84,2176.42z"/>
</g>
<g>
	<g>
		<g>
			<path class="st0" d="M1617.15,2179.6v271.17h-502.22V1114.89h220.98V833.64H833.76v783.49H281.29v-502.24h271.18V833.64H261.16
				C117.23,833.64,0,950.83,0,1094.81v542.38c0,144,117.23,261.16,261.16,261.16h572.6v572.55c0,144.01,117.07,261.16,261.12,261.16
				h542.35c144.05,0,261.13-117.16,261.13-261.16v-291.3H1617.15z"/>
		</g>
		<g>
			<path class="st0" d="M2470.92,833.64h-572.55V261.12C1898.36,117.16,1781.29,0,1637.23,0h-542.35
				C950.83,0,833.76,117.16,833.76,261.12v291.27h281.18V281.22h502.22v1335.91h-220.97v281.22h502.18v-783.45h552.46v502.24
				h-271.17v281.22h291.26c143.97,0,261.19-117.16,261.19-261.16v-542.38C2732.11,950.83,2614.89,833.64,2470.92,833.64z"/>
		</g>
	</g>
</g>
<g>
	<path class="st0" d="M3323.99,845.64v1057.17h-306.7V845.64H3323.99z"/>
	<path class="st0" d="M4232.46,1902.81h-282.69v-573.12c0-58.34-16.26-87.52-48.79-87.52c-33.05,0-61.71,23.12-85.97,69.32
		c-24.27,46.21-36.4,100.82-36.4,163.8v427.52h-282.69v-782.23c97.07,0,191.3-6.45,282.69-19.36v146.38
		c70.21-97.07,155.93-145.6,257.13-145.6c131.15,0,196.72,66.6,196.72,199.82V1902.81z"/>
	<path class="st0" d="M4799.39,1122.12v87.52h-111.52v693.17h-282.69v-693.17h-99.13v-87.52h99.13v-69.7
		c0-64.02,22.58-117.2,67.77-159.54c45.18-42.33,101.85-63.51,170-63.51c136.31,0,204.46,51.12,204.46,153.35
		c0,7.74-0.26,17.56-0.77,29.43l-133.99,47.24c7.23-26.84,10.84-48.02,10.84-63.51c0-54.72-19.11-82.1-57.31-82.1
		c-33.05,0-49.57,24.01-49.57,72.03c0,29.43,23.74,74.87,71.26,136.31H4799.39z"/>
	<path class="st0" d="M4895.42,1902.81V1122.9c88.29,0,182.52-6.97,282.69-20.91v800.82H4895.42z M5038.7,819.3
		c87.78,0,131.66,34.08,131.66,102.23c0,68.15-43.89,102.23-131.66,102.23c-87.78,0-131.66-34.08-131.66-102.23
		C4907.04,853.38,4950.92,819.3,5038.7,819.3z"/>
	<path class="st0" d="M5899.16,1405.59h-193.62c6.7-30.46,12.65-52.92,17.81-67.38c7.22-21.17,10.84-40.27,10.84-57.31
		c0-33.04-11.88-49.57-35.63-49.57c-18.08,0-35.37,21.82-51.89,65.45c-16.53,43.64-24.78,89.72-24.78,138.24v467.79h-282.69v-780.68
		l54.99,0.78c65.06,0,140.95-6.97,227.7-20.91v128.56c45.95-85.7,102.23-128.56,168.84-128.56c90.87,0,136.31,50.09,136.31,150.25
		c0,26.33-4.39,56.54-13.17,90.62C5910.78,1356.8,5905.86,1377.7,5899.16,1405.59z"/>
	<path class="st0" d="M7160.02,1902.81h-282.69v-586.28c0-51.12-14.98-76.67-44.92-76.67c-69.2,0-103.78,73.58-103.78,220.73v442.23
		h-282.69v-573.89c0-58.34-13.43-87.52-40.27-87.52c-70.22,0-105.33,73.32-105.33,219.95v441.46h-282.69V1119.8
		c95.51,0,189.75-6.45,282.69-19.36v134.76c66.6-89.32,148.7-133.98,246.29-133.98c81.57,0,142.24,42.09,182,126.24
		c62.99-85.19,141.73-127.79,236.22-127.79c130.11,0,195.17,65.83,195.17,197.49V1902.81z"/>
	<path class="st0" d="M8106.45,1874.92c-69.2,26.85-136.58,40.27-202.14,40.27c-97.08,0-156.97-30.2-179.69-90.61
		c-46.99,63-114.62,94.48-202.91,94.48c-164.71,0-247.06-76.41-247.06-229.24c0-116.17,75.38-197.75,226.15-244.74
		c138.37-43.37,207.56-95.52,207.56-156.45c0-80.03-39.76-120.05-119.27-120.05c-91.91,0-137.85,38.73-137.85,116.17
		c0,24.27,7.22,56.28,21.69,96.03l-140.19-27.1c-3.62-24.26-5.42-46.98-5.42-68.16c0-123.92,113.08-185.88,339.23-185.88
		c214.78,0,322.19,57.83,322.19,173.49v473.98c0,48.54,15.74,72.8,47.24,72.8c9.8,0,24.26-5.42,43.37-16.26L8106.45,1874.92z
		 M7706.04,1433.47c-17.56,20.13-37.95,36.92-61.18,50.34c-58.36,34.08-87.52,91.39-87.52,171.94c0,103.27,20.13,154.9,60.41,154.9
		c58.86,0,88.29-51.12,88.29-153.35V1433.47z"/>
</g>
<g>
	<path class="st1" d="M2088.94-678.68v-216.93h28.48v216.93H2088.94z"/>
	<path class="st1" d="M2200.69-850.54v27.86c11.68-20.45,30.37-30.68,56.04-30.68c18.99,0,34.85,6.32,47.58,18.94
		c12.73,12.63,19.1,30.63,19.1,54v101.74h-28.18v-97.04c0-17.32-4.17-30.47-12.52-39.44s-19.88-13.46-34.59-13.46
		c-14.72,0-26.3,4.49-34.75,13.46c-8.45,8.98-12.68,22.12-12.68,39.44v97.04h-28.48v-171.86H2200.69z"/>
	<path class="st1" d="M2432.96-701.85h23.47v23.16h-28.8c-29.85,0-44.76-14.72-44.76-44.14v-104.55h-22.23v-23.16h22.23v-42.57h28.8
		v42.57h44.45v23.16h-44.45v104.55c0,7.72,1.56,13.15,4.69,16.28C2419.5-703.42,2425.03-701.85,2432.96-701.85z"/>
	<path class="st1" d="M2567.57-675.86c-24.63,0-44.66-8.14-60.1-24.42c-15.45-16.28-23.16-37.77-23.16-64.48
		c0-26.71,7.82-48.15,23.47-64.33s35.95-24.26,60.89-24.26s44.97,7.67,60.1,23.01c15.13,15.34,22.7,34.9,22.7,58.69
		c0,6.06-0.42,11.69-1.25,16.9h-136.8c0.83,17.11,6.21,30.63,16.12,40.54c9.91,9.91,22.59,14.87,38.04,14.87
		c11.68,0,21.54-2.61,29.58-7.83c8.03-5.21,13.93-12.1,17.68-20.66h30.68c-5.43,15.03-14.77,27.45-28.02,37.25
		C2604.24-680.77,2587.6-675.86,2567.57-675.86z M2606.07-815.01c-10.23-9.91-22.9-14.87-38.03-14.87
		c-15.13,0-27.7,4.85-37.72,14.56c-10.02,9.7-15.55,23.01-16.59,39.91h108C2621.51-791.9,2616.3-805.1,2606.07-815.01z"/>
	<path class="st1" d="M2694.66-678.68v-231.65h28.48v231.65H2694.66z"/>
	<path class="st1" d="M2777.93-678.68v-231.65h28.48v231.65H2777.93z"/>
	<path class="st1" d="M2889.36-883.72c-3.76,3.76-8.35,5.63-13.77,5.63c-5.43,0-9.97-1.88-13.62-5.63
		c-3.65-3.76-5.48-8.34-5.48-13.77c0-5.42,1.88-10.02,5.63-13.77c3.76-3.76,8.3-5.63,13.62-5.63c5.32,0,9.86,1.88,13.62,5.63
		c3.76,3.76,5.63,8.35,5.63,13.77C2895-892.07,2893.12-887.48,2889.36-883.72z M2861.19-678.68v-171.86h28.48v171.86H2861.19z"/>
	<path class="st1" d="M2956.66-701.06c-15.65-16.8-23.47-38.3-23.47-64.49c0-26.18,7.77-47.37,23.32-63.54s35.11-24.26,58.7-24.26
		c14.6,0,27.39,3.45,38.35,10.33c10.95,6.89,19.25,15.86,24.88,26.92v-34.43h28.8v176.24c0,23.58-7.62,42.83-22.85,57.76
		c-15.24,14.92-34.54,22.38-57.91,22.38c-23.37,0-42.73-5.43-58.07-16.28c-15.34-10.85-24.05-25.04-26.14-42.57h27.86
		c2.71,9.81,9.08,17.95,19.09,24.42c10.02,6.47,22.43,9.71,37.25,9.71c14.81,0,27.18-4.86,37.1-14.56
		c9.91-9.71,14.87-23.32,14.87-40.85v-39.44c-5.63,11.27-13.93,20.4-24.88,27.39c-10.96,7-23.74,10.49-38.35,10.49
		C2991.83-675.86,2972.31-684.27,2956.66-701.06z M3061.37-717.82c11.37-11.68,17.06-27.23,17.06-46.64s-5.69-34.95-17.06-46.64
		c-11.37-11.68-25.04-17.53-41-17.53c-15.97,0-29.64,5.63-41.01,16.9c-11.38,11.27-17.06,26.61-17.06,46.02s5.74,35.16,17.22,47.27
		c11.47,12.11,25.14,18.16,41,18.16C3036.38-700.29,3050-706.13,3061.37-717.82z"/>
	<path class="st1" d="M3234.02-675.86c-24.63,0-44.66-8.14-60.1-24.42c-15.45-16.28-23.16-37.77-23.16-64.48
		c0-26.71,7.82-48.15,23.47-64.33s35.95-24.26,60.89-24.26s44.97,7.67,60.1,23.01c15.13,15.34,22.7,34.9,22.7,58.69
		c0,6.06-0.42,11.69-1.25,16.9h-136.8c0.83,17.11,6.21,30.63,16.12,40.54c9.91,9.91,22.59,14.87,38.04,14.87
		c11.68,0,21.54-2.61,29.58-7.83c8.03-5.21,13.93-12.1,17.68-20.66h30.68c-5.43,15.03-14.77,27.45-28.02,37.25
		C3270.69-680.77,3254.05-675.86,3234.02-675.86z M3272.52-815.01c-10.23-9.91-22.9-14.87-38.03-14.87
		c-15.13,0-27.7,4.85-37.72,14.56c-10.02,9.7-15.55,23.01-16.59,39.91h108C3287.97-791.9,3282.75-805.1,3272.52-815.01z"/>
	<path class="st1" d="M3389.59-850.54v27.86c11.68-20.45,30.37-30.68,56.04-30.68c18.99,0,34.85,6.32,47.58,18.94
		c12.73,12.63,19.1,30.63,19.1,54v101.74h-28.18v-97.04c0-17.32-4.17-30.47-12.52-39.44c-8.35-8.98-19.88-13.46-34.59-13.46
		c-14.72,0-26.3,4.49-34.75,13.46c-8.45,8.98-12.68,22.12-12.68,39.44v97.04h-28.48v-171.86H3389.59z"/>
	<path class="st1" d="M3621.86-701.85h23.47v23.16h-28.8c-29.85,0-44.76-14.72-44.76-44.14v-104.55h-22.23v-23.16h22.23v-42.57h28.8
		v42.57h44.45v23.16h-44.45v104.55c0,7.72,1.56,13.15,4.69,16.28C3608.4-703.42,3613.93-701.85,3621.86-701.85z"/>
	<path class="st1" d="M3786.21-678.68v-216.93h28.48v216.93H3786.21z"/>
	<path class="st1" d="M3897.96-850.54v27.86c11.68-20.45,30.37-30.68,56.04-30.68c18.99,0,34.85,6.32,47.58,18.94
		c12.73,12.63,19.1,30.63,19.1,54v101.74h-28.18v-97.04c0-17.32-4.17-30.47-12.52-39.44c-8.35-8.98-19.88-13.46-34.59-13.46
		c-14.72,0-26.3,4.49-34.75,13.46c-8.45,8.98-12.68,22.12-12.68,39.44v97.04h-28.48v-171.86H3897.96z"/>
	<path class="st1" d="M4102.36-850.54v27.86c11.68-20.45,30.37-30.68,56.04-30.68c18.99,0,34.85,6.32,47.58,18.94
		c12.73,12.63,19.1,30.63,19.1,54v101.74h-28.18v-97.04c0-17.32-4.17-30.47-12.52-39.44c-8.35-8.98-19.88-13.46-34.59-13.46
		c-14.71,0-26.3,4.49-34.75,13.46c-8.45,8.98-12.68,22.12-12.68,39.44v97.04h-28.48v-171.86H4102.36z"/>
	<path class="st1" d="M4290.66-700.29c-15.76-16.28-23.63-37.66-23.63-64.17c0-26.5,8.24-47.94,24.73-64.33
		c16.48-16.38,37.14-24.57,61.98-24.57c24.83,0,45.5,8.2,61.99,24.57c16.48,16.39,24.73,37.77,24.73,64.17
		c0,26.41-8.61,47.79-25.83,64.17c-17.21,16.38-38.24,24.57-63.07,24.57C4326.71-675.86,4306.41-684.01,4290.66-700.29z
		 M4351.54-699.34c16.07,0,30-5.79,41.79-17.37c11.79-11.58,17.69-27.6,17.69-48.05c0-20.45-5.63-36.41-16.9-47.89
		c-11.27-11.48-25-17.22-41.16-17.22c-16.18,0-29.69,5.74-40.54,17.22c-10.85,11.48-16.28,27.49-16.28,48.05
		c0,20.56,5.21,36.57,15.65,48.05C4322.22-705.08,4335.47-699.34,4351.54-699.34z"/>
	<path class="st1" d="M4464.23-850.54h30.37l52.59,145.25l52.9-145.25h30.68l-67.3,171.86h-32.24L4464.23-850.54z"/>
	<path class="st1" d="M4678.04-701.06c-15.65-16.8-23.47-38.3-23.47-64.49c0-26.18,7.77-47.37,23.32-63.54s35.11-24.26,58.7-24.26
		c14.6,0,27.39,3.45,38.35,10.33c10.95,6.89,19.25,15.86,24.88,26.92v-34.43h28.8v171.86h-28.8v-35.06
		c-5.63,11.27-13.93,20.4-24.88,27.39c-10.96,7-23.74,10.49-38.35,10.49C4713.2-675.86,4693.69-684.27,4678.04-701.06z
		 M4782.75-717.82c11.37-11.68,17.06-27.23,17.06-46.64s-5.69-34.95-17.06-46.64c-11.37-11.68-25.04-17.53-41-17.53
		c-15.97,0-29.64,5.63-41.01,16.9c-11.38,11.27-17.06,26.61-17.06,46.02s5.74,35.16,17.22,47.27c11.47,12.11,25.14,18.16,41,18.16
		C4757.75-700.29,4771.37-706.13,4782.75-717.82z"/>
	<path class="st1" d="M4939.74-701.85h23.47v23.16h-28.8c-29.85,0-44.76-14.72-44.76-44.14v-104.55h-22.23v-23.16h22.23v-42.57h28.8
		v42.57h44.45v23.16h-44.45v104.55c0,7.72,1.56,13.15,4.69,16.28S4931.8-701.85,4939.74-701.85z"/>
	<path class="st1" d="M5030.52-883.72c-3.76,3.76-8.35,5.63-13.77,5.63c-5.43,0-9.97-1.88-13.62-5.63
		c-3.65-3.76-5.48-8.34-5.48-13.77c0-5.42,1.88-10.02,5.63-13.77c3.76-3.76,8.3-5.63,13.62-5.63c5.32,0,9.86,1.88,13.62,5.63
		c3.76,3.76,5.63,8.35,5.63,13.77C5036.15-892.07,5034.27-887.48,5030.52-883.72z M5002.34-678.68v-171.86h28.48v171.86H5002.34z"/>
	<path class="st1" d="M5097.97-700.29c-15.76-16.28-23.63-37.66-23.63-64.17c0-26.5,8.24-47.94,24.73-64.33
		c16.48-16.38,37.14-24.57,61.98-24.57c24.83,0,45.5,8.2,61.99,24.57c16.48,16.39,24.73,37.77,24.73,64.17
		c0,26.41-8.61,47.79-25.83,64.17c-17.21,16.38-38.24,24.57-63.07,24.57C5134.02-675.86,5113.72-684.01,5097.97-700.29z
		 M5158.86-699.34c16.07,0,30-5.79,41.79-17.37c11.79-11.58,17.69-27.6,17.69-48.05c0-20.45-5.63-36.41-16.9-47.89
		c-11.27-11.48-25-17.22-41.16-17.22c-16.18,0-29.69,5.74-40.54,17.22c-10.85,11.48-16.28,27.49-16.28,48.05
		c0,20.56,5.21,36.57,15.65,48.05C5129.53-705.08,5142.79-699.34,5158.86-699.34z"/>
	<path class="st1" d="M5319.75-850.54v27.86c11.68-20.45,30.37-30.68,56.04-30.68c18.99,0,34.85,6.32,47.58,18.94
		c12.73,12.63,19.1,30.63,19.1,54v101.74h-28.18v-97.04c0-17.32-4.17-30.47-12.52-39.44c-8.35-8.98-19.88-13.46-34.59-13.46
		c-14.72,0-26.3,4.49-34.75,13.46c-8.45,8.98-12.68,22.12-12.68,39.44v97.04h-28.48v-171.86H5319.75z"/>
	<path class="st1" d="M5489.42-802.02c0-14.4,5.99-26.56,18-36.47c12-9.91,27.55-14.87,46.64-14.87c19.09,0,34.07,4.86,44.92,14.56
		c10.85,9.71,16.8,23.01,17.84,39.92h-29.43c-0.42-9.6-3.65-17.32-9.7-23.16c-6.06-5.85-14.45-8.77-25.2-8.77
		c-10.75,0-19.2,2.56-25.36,7.67c-6.16,5.12-9.23,11.69-9.23,19.72c0,8.03,3.49,14.24,10.48,18.62c6.99,4.38,15.45,7.57,25.36,9.55
		s19.82,4.28,29.74,6.89c9.91,2.61,18.36,7.51,25.35,14.72c6.99,7.2,10.49,17.42,10.49,30.68c0,13.25-6,24.42-18,33.49
		c-12,9.08-27.6,13.62-46.8,13.62c-19.2,0-34.59-4.8-46.18-14.4c-11.58-9.6-17.89-22.85-18.93-39.75h29.42
		c0.42,9.6,3.8,17.27,10.17,23.01c6.37,5.75,15.13,8.61,26.3,8.61c11.16,0,19.92-2.39,26.29-7.2c6.36-4.8,9.54-10.9,9.54-18.31
		c0-7.4-2.5-13.31-7.51-17.69c-5.01-4.38-11.27-7.4-18.78-9.08c-7.51-1.67-15.7-3.65-24.57-5.95c-8.87-2.29-17.06-4.75-24.57-7.35
		c-7.51-2.61-13.77-7.14-18.78-13.62C5491.92-784.07,5489.42-792.21,5489.42-802.02z"/>
	<path class="st1" d="M5769.89-678.68v-216.93h122.08v22.85h-93.6v73.57h73.88v22.54h-73.88v97.98H5769.89z"/>
	<path class="st1" d="M5943.47-700.29c-15.76-16.28-23.63-37.66-23.63-64.17c0-26.5,8.24-47.94,24.73-64.33
		c16.48-16.38,37.14-24.57,61.98-24.57c24.83,0,45.5,8.2,61.99,24.57c16.48,16.39,24.73,37.77,24.73,64.17
		c0,26.41-8.61,47.79-25.83,64.17c-17.21,16.38-38.24,24.57-63.07,24.57C5979.52-675.86,5959.22-684.01,5943.47-700.29z
		 M6004.35-699.34c16.07,0,30-5.79,41.79-17.37c11.79-11.58,17.69-27.6,17.69-48.05c0-20.45-5.63-36.41-16.9-47.89
		c-11.27-11.48-25-17.22-41.16-17.22c-16.18,0-29.69,5.74-40.54,17.22c-10.85,11.48-16.28,27.49-16.28,48.05
		c0,20.56,5.21,36.57,15.65,48.05C5975.03-705.08,5988.28-699.34,6004.35-699.34z"/>
	<path class="st1" d="M6165.25-850.54v29.11c10.22-21.29,27.65-31.93,52.28-31.93v29.74h-7.51c-14.61,0-25.72,3.81-33.34,11.43
		c-7.62,7.62-11.43,20.82-11.43,39.6v93.91h-28.48v-171.86H6165.25z"/>
	<path class="st1" d="M6499.25-895.62h28.8v216.93h-28.8v-97.98H6390v97.98h-28.48v-216.93H6390v96.41h109.25V-895.62z"/>
	<path class="st1" d="M6654.83-675.86c-24.63,0-44.66-8.14-60.1-24.42c-15.45-16.28-23.16-37.77-23.16-64.48
		c0-26.71,7.82-48.15,23.47-64.33c15.65-16.17,35.95-24.26,60.89-24.26c24.94,0,44.97,7.67,60.1,23.01
		c15.13,15.34,22.7,34.9,22.7,58.69c0,6.06-0.42,11.69-1.25,16.9h-136.8c0.83,17.11,6.21,30.63,16.12,40.54
		c9.91,9.91,22.59,14.87,38.04,14.87c11.68,0,21.54-2.61,29.58-7.83c8.03-5.21,13.93-12.1,17.68-20.66h30.68
		c-5.43,15.03-14.77,27.45-28.02,37.25C6691.51-680.77,6674.87-675.86,6654.83-675.86z M6693.33-815.01
		c-10.23-9.91-22.9-14.87-38.03-14.87c-15.13,0-27.7,4.85-37.72,14.56c-10.02,9.7-15.55,23.01-16.59,39.91h108
		C6708.78-791.9,6703.56-805.1,6693.33-815.01z"/>
	<path class="st1" d="M6794.13-701.06c-15.65-16.8-23.48-38.3-23.48-64.49c0-26.18,7.77-47.37,23.32-63.54s35.11-24.26,58.7-24.26
		c14.6,0,27.39,3.45,38.35,10.33c10.95,6.89,19.25,15.86,24.88,26.92v-34.43h28.8v171.86h-28.8v-35.06
		c-5.63,11.27-13.93,20.4-24.88,27.39c-10.96,7-23.74,10.49-38.35,10.49C6829.3-675.86,6809.78-684.27,6794.13-701.06z
		 M6898.84-717.82c11.37-11.68,17.06-27.23,17.06-46.64s-5.69-34.95-17.06-46.64c-11.37-11.68-25.04-17.53-41-17.53
		c-15.97,0-29.64,5.63-41.01,16.9c-11.38,11.27-17.06,26.61-17.06,46.02s5.74,35.16,17.22,47.27c11.47,12.11,25.14,18.16,41,18.16
		C6873.85-700.29,6887.47-706.13,6898.84-717.82z"/>
	<path class="st1" d="M6999.48-678.68v-231.65h28.48v231.65H6999.48z"/>
	<path class="st1" d="M7139.1-701.85h23.47v23.16h-28.8c-29.85,0-44.76-14.72-44.76-44.14v-104.55h-22.23v-23.16h22.23v-42.57h28.8
		v42.57h44.45v23.16h-44.45v104.55c0,7.72,1.56,13.15,4.69,16.28S7131.16-701.85,7139.1-701.85z"/>
	<path class="st1" d="M7230.19-910.33v87.65c11.69-20.45,30.37-30.68,56.04-30.68c18.99,0,34.85,6.32,47.58,18.94
		c12.73,12.63,19.1,30.63,19.1,54v101.74h-28.18v-97.04c0-17.32-4.17-30.47-12.52-39.44c-8.35-8.98-19.88-13.46-34.59-13.46
		c-14.72,0-26.3,4.49-34.75,13.46c-8.45,8.98-12.68,22.12-12.68,39.44v97.04h-28.48v-231.65H7230.19z"/>
	<path class="st1" d="M7418.01-700.29c-15.45-16.28-23.16-37.72-23.16-64.33c0-26.61,7.72-48.05,23.16-64.33
		c15.44-16.28,35.48-24.42,60.1-24.42c20.66,0,37.51,4.8,50.55,14.4c13.04,9.6,22.18,23.27,27.39,41.01h-30.68
		c-3.34-10.02-9.08-17.84-17.21-23.47s-18.16-8.45-30.05-8.45c-16.28,0-29.38,5.69-39.29,17.06c-9.91,11.37-14.87,27.44-14.87,48.21
		s4.96,36.84,14.87,48.21c9.91,11.38,23.01,17.06,39.29,17.06c24.42,0,40.17-10.64,47.27-31.93h30.68
		c-5.22,16.9-14.46,30.36-27.7,40.38c-13.26,10.02-30,15.03-50.24,15.03C7453.49-675.86,7433.45-684.01,7418.01-700.29z"/>
	<path class="st1" d="M7613.96-701.06c-15.65-16.8-23.47-38.3-23.47-64.49c0-26.18,7.77-47.37,23.32-63.54s35.11-24.26,58.7-24.26
		c14.6,0,27.39,3.45,38.35,10.33c10.95,6.89,19.25,15.86,24.88,26.92v-34.43h28.8v171.86h-28.8v-35.06
		c-5.63,11.27-13.93,20.4-24.88,27.39c-10.96,7-23.74,10.49-38.35,10.49C7649.13-675.86,7629.61-684.27,7613.96-701.06z
		 M7718.67-717.82c11.37-11.68,17.06-27.23,17.06-46.64s-5.69-34.95-17.06-46.64c-11.37-11.68-25.04-17.53-41-17.53
		c-15.97,0-29.64,5.63-41.01,16.9c-11.38,11.27-17.06,26.61-17.06,46.02s5.74,35.16,17.22,47.27c11.47,12.11,25.14,18.16,41,18.16
		C7693.68-700.29,7707.3-706.13,7718.67-717.82z"/>
	<path class="st1" d="M7847.8-850.54v29.11c10.22-21.29,27.65-31.93,52.28-31.93v29.74h-7.51c-14.61,0-25.72,3.81-33.34,11.43
		c-7.62,7.62-11.43,20.82-11.43,39.6v93.91h-28.48v-171.86H7847.8z"/>
	<path class="st1" d="M8014.34-675.86c-24.63,0-44.66-8.14-60.1-24.42c-15.45-16.28-23.16-37.77-23.16-64.48
		c0-26.71,7.82-48.15,23.47-64.33c15.65-16.17,35.95-24.26,60.89-24.26c24.94,0,44.97,7.67,60.1,23.01
		c15.13,15.34,22.7,34.9,22.7,58.69c0,6.06-0.42,11.69-1.25,16.9h-136.8c0.83,17.11,6.21,30.63,16.12,40.54
		c9.91,9.91,22.59,14.87,38.04,14.87c11.68,0,21.54-2.61,29.58-7.83c8.03-5.21,13.93-12.1,17.68-20.66h30.68
		c-5.43,15.03-14.77,27.45-28.02,37.25C8051.01-680.77,8034.37-675.86,8014.34-675.86z M8052.84-815.01
		c-10.23-9.91-22.9-14.87-38.03-14.87c-15.13,0-27.7,4.85-37.72,14.56c-10.02,9.7-15.55,23.01-16.59,39.91h108
		C8068.28-791.9,8063.07-805.1,8052.84-815.01z"/>
</g>
<g>
	<g>
		<g>
			<path class="st1" d="M1617.15-811.83v271.17h-502.22v-1335.88h220.98v-281.25H833.76v783.49H281.29v-502.24h271.18v-281.25
				H261.16C117.23-2157.79,0-2040.6,0-1896.63v542.38c0,144,117.23,261.16,261.16,261.16h572.6v572.55
				c0,144.01,117.07,261.16,261.12,261.16h542.35c144.05,0,261.13-117.16,261.13-261.16v-291.3H1617.15z"/>
		</g>
		<g>
			<path class="st2" d="M2470.92-2157.79h-572.55v-572.52c0-143.96-117.08-261.12-261.13-261.12h-542.35
				c-144.05,0-261.12,117.16-261.12,261.12v291.27h281.18v-271.17h502.22v1335.91h-220.97v281.22h502.18v-783.45h552.46v502.24
				h-271.17v281.22h291.26c143.97,0,261.19-117.16,261.19-261.16v-542.38C2732.11-2040.6,2614.89-2157.79,2470.92-2157.79z"/>
		</g>
	</g>
</g>
<g>
	<path class="st1" d="M3323.99-2145.8v1057.17h-306.7V-2145.8H3323.99z"/>
	<path class="st1" d="M4232.46-1088.63h-282.69v-573.12c0-58.34-16.26-87.52-48.79-87.52c-33.05,0-61.71,23.12-85.97,69.32
		c-24.27,46.21-36.4,100.82-36.4,163.8v427.52h-282.69v-782.23c97.07,0,191.3-6.45,282.69-19.36v146.38
		c70.21-97.07,155.93-145.6,257.13-145.6c131.15,0,196.72,66.6,196.72,199.82V-1088.63z"/>
	<path class="st1" d="M4799.39-1869.31v87.52h-111.52v693.17h-282.69v-693.17h-99.13v-87.52h99.13v-69.7
		c0-64.02,22.58-117.2,67.77-159.54c45.18-42.33,101.85-63.51,170-63.51c136.31,0,204.46,51.12,204.46,153.35
		c0,7.74-0.26,17.56-0.77,29.43l-133.99,47.24c7.23-26.84,10.84-48.02,10.84-63.51c0-54.72-19.11-82.1-57.31-82.1
		c-33.05,0-49.57,24.01-49.57,72.03c0,29.43,23.74,74.87,71.26,136.31H4799.39z"/>
	<path class="st1" d="M4895.42-1088.63v-779.91c88.29,0,182.52-6.97,282.69-20.91v800.82H4895.42z M5038.7-2172.13
		c87.78,0,131.66,34.08,131.66,102.23c0,68.15-43.89,102.23-131.66,102.23c-87.78,0-131.66-34.08-131.66-102.23
		C4907.04-2138.06,4950.92-2172.13,5038.7-2172.13z"/>
	<path class="st1" d="M5899.16-1585.85h-193.62c6.7-30.46,12.65-52.92,17.81-67.38c7.22-21.17,10.84-40.27,10.84-57.31
		c0-33.04-11.88-49.57-35.63-49.57c-18.08,0-35.37,21.82-51.89,65.45c-16.53,43.64-24.78,89.72-24.78,138.24v467.79h-282.69v-780.68
		l54.99,0.78c65.06,0,140.95-6.97,227.7-20.91v128.56c45.95-85.7,102.23-128.56,168.84-128.56c90.87,0,136.31,50.08,136.31,150.25
		c0,26.33-4.39,56.54-13.17,90.62C5910.78-1634.64,5905.86-1613.73,5899.16-1585.85z"/>
	<path class="st1" d="M7160.02-1088.63h-282.69v-586.28c0-51.12-14.98-76.67-44.92-76.67c-69.2,0-103.78,73.58-103.78,220.73v442.23
		h-282.69v-573.89c0-58.34-13.43-87.52-40.27-87.52c-70.22,0-105.33,73.32-105.33,219.95v441.46h-282.69v-783.01
		c95.51,0,189.75-6.45,282.69-19.36v134.76c66.6-89.32,148.7-133.98,246.29-133.98c81.57,0,142.24,42.09,182,126.24
		c62.99-85.19,141.73-127.79,236.22-127.79c130.11,0,195.17,65.83,195.17,197.49V-1088.63z"/>
	<path class="st1" d="M8106.45-1116.51c-69.2,26.85-136.58,40.27-202.14,40.27c-97.08,0-156.97-30.2-179.69-90.61
		c-46.99,63-114.62,94.48-202.91,94.48c-164.71,0-247.06-76.41-247.06-229.24c0-116.17,75.38-197.75,226.15-244.74
		c138.37-43.37,207.56-95.52,207.56-156.45c0-80.03-39.76-120.05-119.27-120.05c-91.91,0-137.85,38.73-137.85,116.17
		c0,24.27,7.22,56.28,21.69,96.03l-140.19-27.1c-3.62-24.26-5.42-46.98-5.42-68.16c0-123.92,113.08-185.88,339.23-185.88
		c214.78,0,322.19,57.83,322.19,173.49v473.98c0,48.54,15.74,72.8,47.24,72.8c9.8,0,24.26-5.42,43.37-16.26L8106.45-1116.51z
		 M7706.04-1557.97c-17.56,20.13-37.95,36.92-61.18,50.34c-58.36,34.08-87.52,91.39-87.52,171.94c0,103.27,20.13,154.9,60.41,154.9
		c58.86,0,88.29-51.12,88.29-153.35V-1557.97z"/>
</g>
<g>
	<g>
		<g>
			<path class="st1" d="M-1849.17-2136.63h5.28v40.42h-5.28V-2136.63z"/>
			<path class="st1" d="M-1810.19-2114.18c0-6.5-3.54-9.8-8.87-9.8c-5.39,0-9.11,3.36-9.11,10.21v17.57h-5.28v-31.78h5.28v4.52
				c2.09-3.31,5.92-5.1,10.21-5.1c7.37,0,12.99,4.52,12.99,13.63v18.73h-5.22V-2114.18z"/>
			<path class="st1" d="M-1793.72-2123.64h-4.12v-4.35h4.12v-8h5.28v8h8.29v4.35h-8.29v18.73c0,3.13,1.16,4.23,4.41,4.23h3.89v4.47
				h-4.76c-5.63,0-8.82-2.32-8.82-8.7V-2123.64z"/>
			<path class="st1" d="M-1758.57-2095.68c-9.05,0-15.72-6.38-15.72-16.47c0-10.03,6.44-16.36,15.72-16.36
				c9.22,0,15.25,6.5,15.25,15.2c0,1.16-0.06,2.09-0.17,3.19h-25.4c0.41,6.44,4.93,9.98,10.32,9.98c4.76,0,7.77-2.44,8.93-5.86h5.68
				C-1745.58-2100.21-1750.68-2095.68-1758.57-2095.68z M-1768.84-2114.42h20.07c0.06-6.21-4.58-9.63-10.03-9.63
				C-1763.97-2124.04-1768.26-2120.62-1768.84-2114.42z"/>
			<path class="st1" d="M-1734.91-2139.12h5.28v42.92h-5.28V-2139.12z"/>
			<path class="st1" d="M-1719.19-2139.12h5.28v42.92h-5.28V-2139.12z"/>
			<path class="st1" d="M-1704.34-2136.74c0-2.03,1.57-3.6,3.6-3.6c1.91,0,3.48,1.57,3.48,3.6s-1.57,3.6-3.48,3.6
				C-1702.78-2133.15-1704.34-2134.71-1704.34-2136.74z M-1703.47-2127.99h5.28v31.78h-5.28V-2127.99z"/>
			<path class="st1" d="M-1674.65-2128.51c5.8,0,9.98,2.9,11.83,6.32v-5.8h5.34v32.48c0,8.76-5.86,14.96-15.2,14.96
				c-8.35,0-14.33-4.23-15.37-11.02h5.22c1.16,3.83,4.93,6.44,10.15,6.44c5.63,0,9.86-3.6,9.86-10.38v-6.67
				c-1.91,3.42-6.03,6.5-11.83,6.5c-8.53,0-15.08-6.67-15.08-16.53C-1689.73-2122.13-1683.17-2128.51-1674.65-2128.51z
				 M-1673.61-2123.93c-5.8,0-10.73,4.23-10.73,11.72c0,7.48,4.93,11.89,10.73,11.89s10.79-4.35,10.79-11.83
				C-1662.82-2119.52-1667.81-2123.93-1673.61-2123.93z"/>
			<path class="st1" d="M-1633.35-2095.68c-9.05,0-15.72-6.38-15.72-16.47c0-10.03,6.44-16.36,15.72-16.36
				c9.22,0,15.25,6.5,15.25,15.2c0,1.16-0.06,2.09-0.17,3.19h-25.4c0.41,6.44,4.93,9.98,10.32,9.98c4.76,0,7.77-2.44,8.93-5.86h5.68
				C-1620.36-2100.21-1625.46-2095.68-1633.35-2095.68z M-1643.62-2114.42h20.07c0.06-6.21-4.58-9.63-10.03-9.63
				C-1638.75-2124.04-1643.04-2120.62-1643.62-2114.42z"/>
			<path class="st1" d="M-1586.43-2114.18c0-6.5-3.54-9.8-8.87-9.8c-5.39,0-9.11,3.36-9.11,10.21v17.57h-5.28v-31.78h5.28v4.52
				c2.09-3.31,5.92-5.1,10.21-5.1c7.37,0,12.99,4.52,12.99,13.63v18.73h-5.22V-2114.18z"/>
			<path class="st1" d="M-1569.96-2123.64h-4.12v-4.35h4.12v-8h5.28v8h8.29v4.35h-8.29v18.73c0,3.13,1.16,4.23,4.41,4.23h3.89v4.47
				h-4.76c-5.63,0-8.82-2.32-8.82-8.7V-2123.64z"/>
			<path class="st1" d="M-1531.62-2136.63h5.28v40.42h-5.28V-2136.63z"/>
			<path class="st1" d="M-1492.65-2114.18c0-6.5-3.54-9.8-8.87-9.8c-5.39,0-9.11,3.36-9.11,10.21v17.57h-5.28v-31.78h5.28v4.52
				c2.09-3.31,5.92-5.1,10.21-5.1c7.37,0,12.99,4.52,12.99,13.63v18.73h-5.22V-2114.18z"/>
			<path class="st1" d="M-1454.08-2114.18c0-6.5-3.54-9.8-8.87-9.8c-5.39,0-9.11,3.36-9.11,10.21v17.57h-5.28v-31.78h5.28v4.52
				c2.09-3.31,5.92-5.1,10.21-5.1c7.37,0,12.99,4.52,12.99,13.63v18.73h-5.22V-2114.18z"/>
			<path class="st1" d="M-1424.9-2095.68c-8.99,0-15.83-6.38-15.83-16.47c0-10.03,7.08-16.36,16.07-16.36
				c9.05,0,16.07,6.32,16.07,16.36C-1408.6-2102.06-1415.85-2095.68-1424.9-2095.68z M-1424.9-2100.32c5.51,0,10.9-3.77,10.9-11.83
				c0-8-5.28-11.77-10.73-11.77c-5.57,0-10.61,3.77-10.61,11.77C-1435.34-2104.09-1430.41-2100.32-1424.9-2100.32z"/>
			<path class="st1" d="M-1398.28-2127.99l9.92,26.91l9.86-26.91h5.63l-12.47,31.78h-6.15l-12.47-31.78H-1398.28z"/>
			<path class="st1" d="M-1353.1-2128.51c5.92,0,9.98,3.02,11.83,6.32v-5.8h5.34v31.78h-5.34v-5.92c-1.91,3.42-6.03,6.44-11.89,6.44
				c-8.47,0-15.02-6.67-15.02-16.53C-1368.18-2122.13-1361.63-2128.51-1353.1-2128.51z M-1352.06-2123.93
				c-5.8,0-10.73,4.23-10.73,11.72c0,7.48,4.93,11.89,10.73,11.89s10.79-4.35,10.79-11.83
				C-1341.27-2119.52-1346.26-2123.93-1352.06-2123.93z"/>
			<path class="st1" d="M-1324.39-2123.64h-4.12v-4.35h4.12v-8h5.28v8h8.29v4.35h-8.29v18.73c0,3.13,1.16,4.23,4.41,4.23h3.89v4.47
				h-4.76c-5.63,0-8.82-2.32-8.82-8.7V-2123.64z"/>
			<path class="st1" d="M-1303.86-2136.74c0-2.03,1.57-3.6,3.6-3.6c1.91,0,3.48,1.57,3.48,3.6s-1.57,3.6-3.48,3.6
				C-1302.29-2133.15-1303.86-2134.71-1303.86-2136.74z M-1302.99-2127.99h5.28v31.78h-5.28V-2127.99z"/>
			<path class="st1" d="M-1273.41-2095.68c-8.99,0-15.83-6.38-15.83-16.47c0-10.03,7.08-16.36,16.07-16.36
				c9.05,0,16.07,6.32,16.07,16.36C-1257.11-2102.06-1264.36-2095.68-1273.41-2095.68z M-1273.41-2100.32
				c5.51,0,10.9-3.77,10.9-11.83c0-8-5.28-11.77-10.73-11.77c-5.57,0-10.61,3.77-10.61,11.77
				C-1283.85-2104.09-1278.92-2100.32-1273.41-2100.32z"/>
			<path class="st1" d="M-1225.44-2114.18c0-6.5-3.54-9.8-8.87-9.8c-5.39,0-9.11,3.36-9.11,10.21v17.57h-5.28v-31.78h5.28v4.52
				c2.09-3.31,5.92-5.1,10.21-5.1c7.37,0,12.99,4.52,12.99,13.63v18.73h-5.22V-2114.18z"/>
			<path class="st1" d="M-1198.88-2095.68c-7.42,0-12.64-4.06-12.99-9.86h5.45c0.29,3.07,3.02,5.39,7.48,5.39
				c4.18,0,6.5-2.09,6.5-4.7c0-7.08-18.79-2.96-18.79-14.79c0-4.87,4.58-8.87,11.66-8.87c7.02,0,11.66,3.77,12.01,9.98h-5.28
				c-0.23-3.19-2.67-5.51-6.9-5.51c-3.89,0-6.21,1.86-6.21,4.41c0,7.54,18.44,3.42,18.68,14.79
				C-1187.28-2099.63-1191.86-2095.68-1198.88-2095.68z"/>
			<path class="st1" d="M-1161.47-2136.63h22.85v4.29h-17.57v13.63h14.27v4.29h-14.27v18.21h-5.28V-2136.63z"/>
			<path class="st1" d="M-1116.93-2095.68c-8.99,0-15.83-6.38-15.83-16.47c0-10.03,7.08-16.36,16.07-16.36
				c9.05,0,16.07,6.32,16.07,16.36C-1100.63-2102.06-1107.88-2095.68-1116.93-2095.68z M-1116.93-2100.32
				c5.51,0,10.9-3.77,10.9-11.83c0-8-5.28-11.77-10.73-11.77c-5.57,0-10.61,3.77-10.61,11.77
				C-1127.37-2104.09-1122.44-2100.32-1116.93-2100.32z"/>
			<path class="st1" d="M-1086.94-2096.2h-5.28v-31.78h5.28v5.16c1.8-3.54,5.22-5.74,10.27-5.74v5.45h-1.39
				c-5.05,0-8.87,2.26-8.87,9.63V-2096.2z"/>
			<path class="st1" d="M-1026.33-2114.53h-20.59v18.33h-5.28v-40.42h5.28v17.75h20.59v-17.75h5.28v40.42h-5.28V-2114.53z"/>
			<path class="st1" d="M-996.92-2095.68c-9.05,0-15.72-6.38-15.72-16.47c0-10.03,6.44-16.36,15.72-16.36
				c9.22,0,15.25,6.5,15.25,15.2c0,1.16-0.06,2.09-0.17,3.19h-25.4c0.41,6.44,4.93,9.98,10.32,9.98c4.76,0,7.77-2.44,8.93-5.86h5.68
				C-983.93-2100.21-989.04-2095.68-996.92-2095.68z M-1007.19-2114.42h20.07c0.06-6.21-4.58-9.63-10.03-9.63
				C-1002.32-2124.04-1006.61-2120.62-1007.19-2114.42z"/>
			<path class="st1" d="M-960.15-2128.51c5.92,0,9.98,3.02,11.83,6.32v-5.8h5.34v31.78h-5.34v-5.92c-1.91,3.42-6.03,6.44-11.89,6.44
				c-8.47,0-15.02-6.67-15.02-16.53C-975.23-2122.13-968.68-2128.51-960.15-2128.51z M-959.11-2123.93
				c-5.8,0-10.73,4.23-10.73,11.72c0,7.48,4.93,11.89,10.73,11.89s10.79-4.35,10.79-11.83
				C-948.32-2119.52-953.31-2123.93-959.11-2123.93z"/>
			<path class="st1" d="M-932.6-2139.12h5.28v42.92h-5.28V-2139.12z"/>
			<path class="st1" d="M-915.73-2123.64h-4.12v-4.35h4.12v-8h5.28v8h8.29v4.35h-8.29v18.73c0,3.13,1.16,4.23,4.41,4.23h3.89v4.47
				h-4.76c-5.63,0-8.82-2.32-8.82-8.7V-2123.64z"/>
			<path class="st1" d="M-894.32-2139.12h5.28v15.72c2.09-3.36,6.03-5.16,10.5-5.16c7.08,0,12.7,4.52,12.7,13.63v18.73h-5.22v-17.98
				c0-6.5-3.54-9.8-8.87-9.8c-5.39,0-9.11,3.36-9.11,10.21v17.57h-5.28V-2139.12z"/>
			<path class="st1" d="M-842.24-2128.51c7.89,0,13.05,4.06,14.67,10.73h-5.68c-1.1-3.83-4.29-6.26-8.99-6.26
				c-5.8,0-10.09,4.12-10.09,11.89c0,7.89,4.29,12,10.09,12c4.7,0,7.83-2.26,8.99-6.26h5.68c-1.62,6.32-6.79,10.73-14.67,10.73
				c-9.05,0-15.49-6.38-15.49-16.47C-857.73-2122.13-851.29-2128.51-842.24-2128.51z"/>
			<path class="st1" d="M-805.99-2128.51c5.92,0,9.98,3.02,11.83,6.32v-5.8h5.34v31.78h-5.34v-5.92c-1.91,3.42-6.03,6.44-11.89,6.44
				c-8.47,0-15.02-6.67-15.02-16.53C-821.07-2122.13-814.52-2128.51-805.99-2128.51z M-804.95-2123.93
				c-5.8,0-10.73,4.23-10.73,11.72c0,7.48,4.93,11.89,10.73,11.89s10.79-4.35,10.79-11.83
				C-794.16-2119.52-799.15-2123.93-804.95-2123.93z"/>
			<path class="st1" d="M-773.16-2096.2h-5.28v-31.78h5.28v5.16c1.8-3.54,5.22-5.74,10.27-5.74v5.45h-1.39
				c-5.05,0-8.87,2.26-8.87,9.63V-2096.2z"/>
			<path class="st1" d="M-741.61-2095.68c-9.05,0-15.72-6.38-15.72-16.47c0-10.03,6.44-16.36,15.72-16.36
				c9.22,0,15.25,6.5,15.25,15.2c0,1.16-0.06,2.09-0.17,3.19h-25.4c0.41,6.44,4.93,9.98,10.32,9.98c4.76,0,7.77-2.44,8.93-5.86h5.68
				C-728.62-2100.21-733.72-2095.68-741.61-2095.68z M-751.88-2114.42h20.07c0.06-6.21-4.58-9.63-10.03-9.63
				C-747-2124.04-751.3-2120.62-751.88-2114.42z"/>
		</g>
	</g>
	<g>
		<g>
			<g>
				<path class="st1" d="M-1932.85-2120.92v50.33h-93.22v-247.97h41.02v-52.21h-93.21v145.43h-102.55v-93.23h50.34v-52.21h-54.07
					c-26.72,0-48.48,21.75-48.48,48.48v100.68c0,26.73,21.76,48.48,48.48,48.48h106.29v106.28c0,26.73,21.73,48.48,48.47,48.48
					h100.67c26.74,0,48.47-21.75,48.47-48.48v-54.07H-1932.85z"/>
			</g>
			<g>
				<path class="st2" d="M-1774.37-2370.76h-106.28v-106.27c0-26.72-21.73-48.47-48.47-48.47h-100.67
					c-26.74,0-48.47,21.75-48.47,48.47v54.07h52.19v-50.34h93.22v247.97h-41.02v52.2h93.22v-145.43h102.55v93.23h-50.33v52.2h54.06
					c26.72,0,48.48-21.75,48.48-48.48v-100.68C-1725.89-2349.01-1747.65-2370.76-1774.37-2370.76z"/>
			</g>
		</g>
	</g>
	<g>
		<g>
			<path class="st1" d="M-1617.13-2368.25v195.95h-56.85v-195.95H-1617.13z"/>
			<path class="st1" d="M-1448.74-2172.3h-52.4v-106.23c0-10.81-3.01-16.22-9.04-16.22c-6.13,0-11.44,4.28-15.93,12.85
				c-4.5,8.57-6.75,18.69-6.75,30.36v79.24h-52.4v-144.99c17.99,0,35.46-1.2,52.4-3.59v27.13c13.01-17.99,28.9-26.99,47.66-26.99
				c24.31,0,36.46,12.35,36.46,37.04V-2172.3z"/>
			<path class="st1" d="M-1343.66-2317v16.22h-20.67v128.48h-52.4v-128.48h-18.38V-2317h18.38v-12.92
				c0-11.87,4.19-21.72,12.56-29.57c8.37-7.85,18.88-11.77,31.51-11.77c25.27,0,37.9,9.47,37.9,28.42c0,1.44-0.05,3.25-0.14,5.46
				l-24.83,8.76c1.34-4.97,2.01-8.9,2.01-11.77c0-10.14-3.54-15.22-10.62-15.22c-6.13,0-9.19,4.45-9.19,13.35
				c0,5.46,4.4,13.88,13.21,25.27H-1343.66z"/>
			<path class="st1" d="M-1325.86-2172.3v-144.56c16.37,0,33.83-1.29,52.4-3.88v148.44H-1325.86z M-1299.3-2373.13
				c16.27,0,24.4,6.32,24.4,18.95s-8.14,18.95-24.4,18.95c-16.27,0-24.4-6.32-24.4-18.95S-1315.57-2373.13-1299.3-2373.13z"/>
			<path class="st1" d="M-1139.81-2264.46h-35.89c1.24-5.65,2.34-9.81,3.3-12.49c1.34-3.92,2.01-7.46,2.01-10.62
				c0-6.12-2.2-9.19-6.6-9.19c-3.35,0-6.56,4.04-9.62,12.13c-3.06,8.09-4.59,16.63-4.59,25.63v86.71h-52.4V-2317l10.19,0.14
				c12.06,0,26.13-1.29,42.21-3.88v23.83c8.52-15.88,18.95-23.83,31.29-23.83c16.84,0,25.27,9.28,25.27,27.85
				c0,4.88-0.81,10.48-2.44,16.8C-1137.66-2273.5-1138.57-2269.63-1139.81-2264.46z"/>
			<path class="st1" d="M-906.1-2172.3h-52.4v-108.67c0-9.47-2.78-14.21-8.33-14.21c-12.83,0-19.24,13.64-19.24,40.91v81.97h-52.4
				v-106.37c0-10.81-2.49-16.22-7.46-16.22c-13.02,0-19.52,13.59-19.52,40.77v81.83h-52.4v-145.13c17.7,0,35.17-1.2,52.4-3.59v24.98
				c12.35-16.56,27.56-24.83,45.65-24.83c15.12,0,26.36,7.8,33.74,23.4c11.67-15.79,26.27-23.69,43.78-23.69
				c24.12,0,36.18,12.2,36.18,36.61V-2172.3z"/>
			<path class="st1" d="M-730.68-2177.47c-12.83,4.98-25.32,7.46-37.47,7.46c-17.99,0-29.09-5.6-33.3-16.8
				c-8.71,11.68-21.25,17.51-37.61,17.51c-30.53,0-45.79-14.16-45.79-42.49c0-21.53,13.97-36.65,41.92-45.36
				c25.65-8.04,38.47-17.7,38.47-29c0-14.83-7.37-22.25-22.11-22.25c-17.04,0-25.55,7.18-25.55,21.53c0,4.5,1.34,10.43,4.02,17.8
				l-25.98-5.02c-0.67-4.5-1-8.71-1-12.63c0-22.97,20.96-34.45,62.88-34.45c39.81,0,59.72,10.72,59.72,32.16v87.86
				c0,9,2.92,13.49,8.76,13.49c1.82,0,4.5-1,8.04-3.01L-730.68-2177.47z M-804.9-2259.29c-3.25,3.73-7.03,6.84-11.34,9.33
				c-10.82,6.32-16.22,16.94-16.22,31.87c0,19.14,3.73,28.71,11.2,28.71c10.91,0,16.37-9.47,16.37-28.42V-2259.29z"/>
		</g>
	</g>
</g>
<g>
	<g>
		<path class="st0" d="M-1829.25-2700.37h5.28v40.42h-5.28V-2700.37z"/>
		<path class="st0" d="M-1790.28-2677.93c0-6.5-3.54-9.8-8.87-9.8c-5.39,0-9.11,3.36-9.11,10.21v17.57h-5.28v-31.78h5.28v4.52
			c2.09-3.31,5.92-5.1,10.21-5.1c7.37,0,12.99,4.52,12.99,13.63v18.73h-5.22V-2677.93z"/>
		<path class="st0" d="M-1773.8-2687.38h-4.12v-4.35h4.12v-8h5.28v8h8.29v4.35h-8.29v18.73c0,3.13,1.16,4.23,4.41,4.23h3.89v4.47
			h-4.76c-5.63,0-8.82-2.32-8.82-8.7V-2687.38z"/>
		<path class="st0" d="M-1738.66-2659.43c-9.05,0-15.72-6.38-15.72-16.47c0-10.03,6.44-16.36,15.72-16.36
			c9.22,0,15.25,6.5,15.25,15.2c0,1.16-0.06,2.09-0.17,3.19h-25.4c0.41,6.44,4.93,9.98,10.32,9.98c4.76,0,7.77-2.44,8.93-5.86h5.68
			C-1725.67-2663.95-1730.77-2659.43-1738.66-2659.43z M-1748.92-2678.16h20.07c0.06-6.21-4.58-9.63-10.03-9.63
			C-1744.05-2687.79-1748.34-2684.37-1748.92-2678.16z"/>
		<path class="st0" d="M-1714.99-2702.87h5.28v42.92h-5.28V-2702.87z"/>
		<path class="st0" d="M-1699.28-2702.87h5.28v42.92h-5.28V-2702.87z"/>
		<path class="st0" d="M-1684.43-2700.49c0-2.03,1.57-3.6,3.6-3.6c1.91,0,3.48,1.57,3.48,3.6s-1.57,3.6-3.48,3.6
			C-1682.86-2696.89-1684.43-2698.46-1684.43-2700.49z M-1683.56-2691.73h5.28v31.78h-5.28V-2691.73z"/>
		<path class="st0" d="M-1654.73-2692.25c5.8,0,9.98,2.9,11.83,6.32v-5.8h5.34v32.48c0,8.76-5.86,14.96-15.2,14.96
			c-8.35,0-14.33-4.23-15.37-11.02h5.22c1.16,3.83,4.93,6.44,10.15,6.44c5.63,0,9.86-3.6,9.86-10.38v-6.67
			c-1.91,3.42-6.03,6.5-11.83,6.5c-8.53,0-15.08-6.67-15.08-16.53C-1669.81-2685.87-1663.26-2692.25-1654.73-2692.25z
			 M-1653.69-2687.67c-5.8,0-10.73,4.23-10.73,11.72c0,7.48,4.93,11.89,10.73,11.89s10.79-4.35,10.79-11.83
			C-1642.9-2683.26-1647.89-2687.67-1653.69-2687.67z"/>
		<path class="st0" d="M-1613.44-2659.43c-9.05,0-15.72-6.38-15.72-16.47c0-10.03,6.44-16.36,15.72-16.36
			c9.22,0,15.25,6.5,15.25,15.2c0,1.16-0.06,2.09-0.17,3.19h-25.4c0.41,6.44,4.93,9.98,10.32,9.98c4.76,0,7.77-2.44,8.93-5.86h5.68
			C-1600.45-2663.95-1605.55-2659.43-1613.44-2659.43z M-1623.7-2678.16h20.07c0.06-6.21-4.58-9.63-10.03-9.63
			C-1618.83-2687.79-1623.12-2684.37-1623.7-2678.16z"/>
		<path class="st0" d="M-1566.52-2677.93c0-6.5-3.54-9.8-8.87-9.8c-5.39,0-9.11,3.36-9.11,10.21v17.57h-5.28v-31.78h5.28v4.52
			c2.09-3.31,5.92-5.1,10.21-5.1c7.37,0,12.99,4.52,12.99,13.63v18.73h-5.22V-2677.93z"/>
		<path class="st0" d="M-1550.04-2687.38h-4.12v-4.35h4.12v-8h5.28v8h8.29v4.35h-8.29v18.73c0,3.13,1.16,4.23,4.41,4.23h3.89v4.47
			h-4.76c-5.63,0-8.82-2.32-8.82-8.7V-2687.38z"/>
		<path class="st0" d="M-1511.71-2700.37h5.28v40.42h-5.28V-2700.37z"/>
		<path class="st0" d="M-1472.73-2677.93c0-6.5-3.54-9.8-8.87-9.8c-5.39,0-9.11,3.36-9.11,10.21v17.57h-5.28v-31.78h5.28v4.52
			c2.09-3.31,5.92-5.1,10.21-5.1c7.37,0,12.99,4.52,12.99,13.63v18.73h-5.22V-2677.93z"/>
		<path class="st0" d="M-1434.16-2677.93c0-6.5-3.54-9.8-8.87-9.8c-5.39,0-9.11,3.36-9.11,10.21v17.57h-5.28v-31.78h5.28v4.52
			c2.09-3.31,5.92-5.1,10.21-5.1c7.37,0,12.99,4.52,12.99,13.63v18.73h-5.22V-2677.93z"/>
		<path class="st0" d="M-1404.99-2659.43c-8.99,0-15.83-6.38-15.83-16.47c0-10.03,7.08-16.36,16.07-16.36
			c9.05,0,16.07,6.32,16.07,16.36C-1388.69-2665.81-1395.94-2659.43-1404.99-2659.43z M-1404.99-2664.07
			c5.51,0,10.9-3.77,10.9-11.83c0-8-5.28-11.77-10.73-11.77c-5.57,0-10.61,3.77-10.61,11.77
			C-1415.43-2667.84-1410.5-2664.07-1404.99-2664.07z"/>
		<path class="st0" d="M-1378.37-2691.73l9.92,26.91l9.86-26.91h5.63l-12.47,31.78h-6.15l-12.47-31.78H-1378.37z"/>
		<path class="st0" d="M-1333.18-2692.25c5.92,0,9.98,3.02,11.83,6.32v-5.8h5.34v31.78h-5.34v-5.92c-1.91,3.42-6.03,6.44-11.89,6.44
			c-8.47,0-15.02-6.67-15.02-16.53C-1348.26-2685.87-1341.71-2692.25-1333.18-2692.25z M-1332.14-2687.67
			c-5.8,0-10.73,4.23-10.73,11.72c0,7.48,4.93,11.89,10.73,11.89s10.79-4.35,10.79-11.83
			C-1321.35-2683.26-1326.34-2687.67-1332.14-2687.67z"/>
		<path class="st0" d="M-1304.47-2687.38h-4.12v-4.35h4.12v-8h5.28v8h8.29v4.35h-8.29v18.73c0,3.13,1.16,4.23,4.41,4.23h3.89v4.47
			h-4.76c-5.63,0-8.82-2.32-8.82-8.7V-2687.38z"/>
		<path class="st0" d="M-1283.94-2700.49c0-2.03,1.57-3.6,3.6-3.6c1.91,0,3.48,1.57,3.48,3.6s-1.57,3.6-3.48,3.6
			C-1282.38-2696.89-1283.94-2698.46-1283.94-2700.49z M-1283.07-2691.73h5.28v31.78h-5.28V-2691.73z"/>
		<path class="st0" d="M-1253.49-2659.43c-8.99,0-15.83-6.38-15.83-16.47c0-10.03,7.08-16.36,16.07-16.36
			c9.05,0,16.07,6.32,16.07,16.36C-1237.2-2665.81-1244.45-2659.43-1253.49-2659.43z M-1253.49-2664.07c5.51,0,10.9-3.77,10.9-11.83
			c0-8-5.28-11.77-10.73-11.77c-5.57,0-10.61,3.77-10.61,11.77C-1263.93-2667.84-1259-2664.07-1253.49-2664.07z"/>
		<path class="st0" d="M-1205.53-2677.93c0-6.5-3.54-9.8-8.87-9.8c-5.39,0-9.11,3.36-9.11,10.21v17.57h-5.28v-31.78h5.28v4.52
			c2.09-3.31,5.92-5.1,10.21-5.1c7.37,0,12.99,4.52,12.99,13.63v18.73h-5.22V-2677.93z"/>
		<path class="st0" d="M-1178.96-2659.43c-7.42,0-12.64-4.06-12.99-9.86h5.45c0.29,3.07,3.02,5.39,7.48,5.39
			c4.18,0,6.5-2.09,6.5-4.7c0-7.08-18.79-2.96-18.79-14.79c0-4.87,4.58-8.87,11.66-8.87c7.02,0,11.66,3.77,12.01,9.98h-5.28
			c-0.23-3.19-2.67-5.51-6.9-5.51c-3.89,0-6.21,1.86-6.21,4.41c0,7.54,18.44,3.42,18.68,14.79
			C-1167.36-2663.37-1171.95-2659.43-1178.96-2659.43z"/>
		<path class="st0" d="M-1141.55-2700.37h22.85v4.29h-17.57v13.63h14.27v4.29h-14.27v18.21h-5.28V-2700.37z"/>
		<path class="st0" d="M-1097.01-2659.43c-8.99,0-15.83-6.38-15.83-16.47c0-10.03,7.08-16.36,16.07-16.36
			c9.05,0,16.07,6.32,16.07,16.36C-1080.71-2665.81-1087.96-2659.43-1097.01-2659.43z M-1097.01-2664.07
			c5.51,0,10.9-3.77,10.9-11.83c0-8-5.28-11.77-10.73-11.77c-5.57,0-10.61,3.77-10.61,11.77
			C-1107.45-2667.84-1102.52-2664.07-1097.01-2664.07z"/>
		<path class="st0" d="M-1067.02-2659.95h-5.28v-31.78h5.28v5.16c1.8-3.54,5.22-5.74,10.27-5.74v5.45h-1.39
			c-5.05,0-8.87,2.26-8.87,9.63V-2659.95z"/>
		<path class="st0" d="M-1006.42-2678.28H-1027v18.33h-5.28v-40.42h5.28v17.75h20.59v-17.75h5.28v40.42h-5.28V-2678.28z"/>
		<path class="st0" d="M-977.01-2659.43c-9.05,0-15.72-6.38-15.72-16.47c0-10.03,6.44-16.36,15.72-16.36
			c9.22,0,15.25,6.5,15.25,15.2c0,1.16-0.06,2.09-0.17,3.19h-25.4c0.41,6.44,4.93,9.98,10.32,9.98c4.76,0,7.77-2.44,8.93-5.86h5.68
			C-964.02-2663.95-969.12-2659.43-977.01-2659.43z M-987.27-2678.16h20.07c0.06-6.21-4.58-9.63-10.03-9.63
			C-982.4-2687.79-986.7-2684.37-987.27-2678.16z"/>
		<path class="st0" d="M-940.24-2692.25c5.92,0,9.98,3.02,11.83,6.32v-5.8h5.34v31.78h-5.34v-5.92c-1.91,3.42-6.03,6.44-11.89,6.44
			c-8.47,0-15.02-6.67-15.02-16.53C-955.32-2685.87-948.76-2692.25-940.24-2692.25z M-939.19-2687.67c-5.8,0-10.73,4.23-10.73,11.72
			c0,7.48,4.93,11.89,10.73,11.89s10.79-4.35,10.79-11.83C-928.41-2683.26-933.39-2687.67-939.19-2687.67z"/>
		<path class="st0" d="M-912.69-2702.87h5.28v42.92h-5.28V-2702.87z"/>
		<path class="st0" d="M-895.81-2687.38h-4.12v-4.35h4.12v-8h5.28v8h8.29v4.35h-8.29v18.73c0,3.13,1.16,4.23,4.41,4.23h3.89v4.47
			H-887c-5.63,0-8.82-2.32-8.82-8.7V-2687.38z"/>
		<path class="st0" d="M-874.41-2702.87h5.28v15.72c2.09-3.36,6.03-5.16,10.5-5.16c7.08,0,12.7,4.52,12.7,13.63v18.73h-5.22v-17.98
			c0-6.5-3.54-9.8-8.87-9.8c-5.39,0-9.11,3.36-9.11,10.21v17.57h-5.28V-2702.87z"/>
		<path class="st0" d="M-822.33-2692.25c7.89,0,13.05,4.06,14.67,10.73h-5.68c-1.1-3.83-4.29-6.26-8.99-6.26
			c-5.8,0-10.09,4.12-10.09,11.89c0,7.89,4.29,12,10.09,12c4.7,0,7.83-2.26,8.99-6.26h5.68c-1.62,6.32-6.79,10.73-14.67,10.73
			c-9.05,0-15.49-6.38-15.49-16.47C-837.81-2685.87-831.37-2692.25-822.33-2692.25z"/>
		<path class="st0" d="M-786.08-2692.25c5.92,0,9.98,3.02,11.83,6.32v-5.8h5.34v31.78h-5.34v-5.92c-1.91,3.42-6.03,6.44-11.89,6.44
			c-8.47,0-15.02-6.67-15.02-16.53C-801.15-2685.87-794.6-2692.25-786.08-2692.25z M-785.03-2687.67c-5.8,0-10.73,4.23-10.73,11.72
			c0,7.48,4.93,11.89,10.73,11.89s10.79-4.35,10.79-11.83C-774.24-2683.26-779.23-2687.67-785.03-2687.67z"/>
		<path class="st0" d="M-753.25-2659.95h-5.28v-31.78h5.28v5.16c1.8-3.54,5.22-5.74,10.27-5.74v5.45h-1.39
			c-5.05,0-8.87,2.26-8.87,9.63V-2659.95z"/>
		<path class="st0" d="M-721.7-2659.43c-9.05,0-15.72-6.38-15.72-16.47c0-10.03,6.44-16.36,15.72-16.36c9.22,0,15.25,6.5,15.25,15.2
			c0,1.16-0.06,2.09-0.17,3.19h-25.4c0.41,6.44,4.93,9.98,10.32,9.98c4.76,0,7.77-2.44,8.93-5.86h5.68
			C-708.7-2663.95-713.81-2659.43-721.7-2659.43z M-731.96-2678.16h20.07c0.06-6.21-4.58-9.63-10.03-9.63
			C-727.09-2687.79-731.38-2684.37-731.96-2678.16z"/>
	</g>
	<g>
		<g>
			<g>
				<path class="st0" d="M-1912.93-2684.66v50.33h-93.22v-247.97h41.02v-52.21h-93.21v145.43h-102.55v-93.23h50.34v-52.21h-54.07
					c-26.72,0-48.48,21.75-48.48,48.48v100.68c0,26.73,21.76,48.48,48.48,48.48h106.29v106.28c0,26.73,21.73,48.48,48.47,48.48
					h100.67c26.74,0,48.47-21.75,48.47-48.48v-54.07H-1912.93z"/>
			</g>
			<g>
				<path class="st0" d="M-1754.46-2934.5h-106.28v-106.27c0-26.72-21.73-48.47-48.47-48.47h-100.67
					c-26.74,0-48.47,21.75-48.47,48.47v54.07h52.19v-50.33h93.22v247.97h-41.02v52.2h93.22v-145.43h102.55v93.23h-50.33v52.2h54.06
					c26.72,0,48.48-21.75,48.48-48.48v-100.68C-1705.97-2912.75-1727.73-2934.5-1754.46-2934.5z"/>
			</g>
		</g>
	</g>
	<g>
		<path class="st0" d="M-1597.21-2932v195.95h-56.85V-2932H-1597.21z"/>
		<path class="st0" d="M-1428.82-2736.04h-52.4v-106.23c0-10.81-3.01-16.22-9.04-16.22c-6.13,0-11.44,4.28-15.93,12.85
			c-4.5,8.57-6.75,18.69-6.75,30.36v79.24h-52.4v-144.99c17.99,0,35.46-1.2,52.4-3.59v27.13c13.01-17.99,28.9-26.99,47.66-26.99
			c24.31,0,36.46,12.35,36.46,37.04V-2736.04z"/>
		<path class="st0" d="M-1323.74-2880.75v16.22h-20.67v128.48h-52.4v-128.48h-18.38v-16.22h18.38v-12.92
			c0-11.87,4.19-21.72,12.56-29.57c8.37-7.85,18.88-11.77,31.51-11.77c25.27,0,37.9,9.47,37.9,28.42c0,1.44-0.05,3.25-0.14,5.46
			l-24.83,8.76c1.34-4.97,2.01-8.9,2.01-11.77c0-10.14-3.54-15.22-10.62-15.22c-6.13,0-9.19,4.45-9.19,13.35
			c0,5.46,4.4,13.88,13.21,25.27H-1323.74z"/>
		<path class="st0" d="M-1305.94-2736.04v-144.56c16.37,0,33.83-1.29,52.4-3.88v148.44H-1305.94z M-1279.38-2936.88
			c16.27,0,24.4,6.32,24.4,18.95s-8.14,18.95-24.4,18.95c-16.27,0-24.4-6.32-24.4-18.95S-1295.65-2936.88-1279.38-2936.88z"/>
		<path class="st0" d="M-1119.89-2828.21h-35.89c1.24-5.65,2.34-9.81,3.3-12.49c1.34-3.92,2.01-7.46,2.01-10.62
			c0-6.12-2.2-9.19-6.6-9.19c-3.35,0-6.56,4.04-9.62,12.13c-3.06,8.09-4.59,16.63-4.59,25.63v86.71h-52.4v-144.7l10.19,0.14
			c12.06,0,26.13-1.29,42.21-3.88v23.83c8.52-15.88,18.95-23.83,31.29-23.83c16.84,0,25.27,9.28,25.27,27.85
			c0,4.88-0.81,10.48-2.44,16.8C-1117.74-2837.25-1118.65-2833.37-1119.89-2828.21z"/>
		<path class="st0" d="M-886.19-2736.04h-52.4v-108.67c0-9.47-2.78-14.21-8.33-14.21c-12.83,0-19.24,13.64-19.24,40.91v81.97h-52.4
			v-106.37c0-10.81-2.49-16.22-7.46-16.22c-13.02,0-19.52,13.59-19.52,40.77v81.83h-52.4v-145.13c17.7,0,35.17-1.2,52.4-3.59v24.98
			c12.35-16.56,27.56-24.83,45.65-24.83c15.12,0,26.36,7.8,33.74,23.4c11.67-15.79,26.27-23.69,43.78-23.69
			c24.12,0,36.18,12.2,36.18,36.61V-2736.04z"/>
		<path class="st0" d="M-710.76-2741.21c-12.83,4.98-25.32,7.46-37.47,7.46c-17.99,0-29.09-5.6-33.3-16.8
			c-8.71,11.68-21.25,17.51-37.61,17.51c-30.53,0-45.79-14.16-45.79-42.49c0-21.53,13.97-36.65,41.92-45.36
			c25.65-8.04,38.47-17.7,38.47-29c0-14.83-7.37-22.25-22.11-22.25c-17.04,0-25.55,7.18-25.55,21.53c0,4.5,1.34,10.43,4.02,17.8
			l-25.98-5.02c-0.67-4.5-1-8.71-1-12.63c0-22.97,20.96-34.45,62.88-34.45c39.81,0,59.72,10.72,59.72,32.16v87.86
			c0,9,2.92,13.49,8.76,13.49c1.82,0,4.5-1,8.04-3.01L-710.76-2741.21z M-784.98-2823.04c-3.25,3.73-7.03,6.84-11.34,9.33
			c-10.82,6.32-16.22,16.94-16.22,31.87c0,19.14,3.73,28.71,11.2,28.71c10.91,0,16.37-9.47,16.37-28.42V-2823.04z"/>
	</g>
</g>
</svg>
