<svg width="120" height="41" viewBox="0 0 120 41" fill="none" xmlns="http://www.w3.org/2000/svg">
    <g clip-path="url(#clip0)">
        <path d="M30.9218 34.2361V31.0254H31.3438V34.2361H30.9218Z" fill="#0F4674" />
        <path d="M32.5768 31.6916V32.1046C32.75 31.8026 33.0268 31.6501 33.4058 31.6501C33.6871 31.6501 33.9224 31.7434 34.1104 31.9299C34.2984 32.1164 34.3932 32.3829 34.3932 32.7293V34.2347H33.9757V32.7988C33.9757 32.5428 33.9135 32.3474 33.7907 32.2156C33.6678 32.0839 33.4961 32.0158 33.2785 32.0158C33.0609 32.0158 32.8892 32.0824 32.7633 32.2156C32.639 32.3488 32.5753 32.5428 32.5753 32.7988V34.2347H32.1534V31.6901H32.5768V31.6916Z" fill="#0F4674" />
        <path d="M36.0155 33.8927H36.3634V34.2361H35.937C35.4944 34.2361 35.2739 34.0185 35.2739 33.5833V32.0349H34.9453V31.6915H35.2739V31.0609H35.7002V31.6915H36.3574V32.0349H35.7002V33.5833C35.7002 33.6973 35.7239 33.7773 35.7698 33.8246C35.8157 33.869 35.8971 33.8927 36.0155 33.8927Z" fill="#0F4674" />
        <path d="M38.008 34.2777C37.6438 34.2777 37.3463 34.1578 37.1183 33.9165C36.8904 33.6752 36.7749 33.3569 36.7749 32.9617C36.7749 32.5665 36.8904 32.2497 37.1228 32.0099C37.3552 31.77 37.6542 31.6501 38.0243 31.6501C38.3943 31.6501 38.6904 31.7641 38.9139 31.9906C39.1374 32.2171 39.2499 32.5072 39.2499 32.8596C39.2499 32.9499 39.244 33.0327 39.2307 33.1097H37.2057C37.2175 33.3629 37.2974 33.5627 37.444 33.7092C37.5905 33.8558 37.7785 33.9298 38.0065 33.9298C38.1797 33.9298 38.3248 33.8913 38.4447 33.8144C38.5631 33.7374 38.6504 33.6352 38.7067 33.5079H39.1611C39.0812 33.73 38.942 33.9135 38.7466 34.0601C38.5498 34.2052 38.304 34.2777 38.008 34.2777ZM38.5779 32.2171C38.4269 32.0706 38.2389 31.9965 38.0154 31.9965C37.7919 31.9965 37.6053 32.0691 37.4573 32.2127C37.3093 32.3563 37.2264 32.5531 37.2116 32.8033H38.8103C38.8059 32.5591 38.7289 32.3637 38.5779 32.2171Z" fill="#0F4674" />
        <path d="M39.8895 34.2361V30.8077H40.3114V34.2361H39.8895Z" fill="#0F4674" />
        <path d="M41.1211 34.2361V30.8077H41.543V34.2361H41.1211Z" fill="#0F4674" />
        <path d="M42.7715 31.2001C42.7153 31.2563 42.6472 31.283 42.5673 31.283C42.4873 31.283 42.4192 31.2548 42.366 31.2001C42.3127 31.1438 42.2845 31.0772 42.2845 30.9958C42.2845 30.9159 42.3127 30.8478 42.3674 30.7915C42.4222 30.7353 42.4903 30.7086 42.5687 30.7086C42.6472 30.7086 42.7153 30.7367 42.77 30.7915C42.8248 30.8463 42.8529 30.9159 42.8529 30.9958C42.8544 31.0772 42.8263 31.1453 42.7715 31.2001ZM42.3541 34.2362V31.6915H42.7759V34.2362H42.3541Z" fill="#0F4674" />
        <path d="M43.7679 33.9046C43.537 33.6559 43.42 33.3377 43.42 32.9498C43.42 32.562 43.5355 32.2482 43.7649 32.0099C43.9944 31.7715 44.2845 31.6501 44.6339 31.6501C44.85 31.6501 45.0394 31.7005 45.2023 31.8026C45.3636 31.9048 45.488 32.038 45.5709 32.2008V31.6916H45.9972V34.2999C45.9972 34.6492 45.8847 34.9334 45.6582 35.1555C45.4332 35.376 45.1475 35.4871 44.8011 35.4871C44.4547 35.4871 44.1691 35.4071 43.9411 35.2458C43.7131 35.0844 43.5844 34.8757 43.5547 34.6152H43.9677C44.0077 34.7602 44.1024 34.8801 44.2505 34.9764C44.3985 35.0726 44.582 35.12 44.8026 35.12C45.0217 35.12 45.2052 35.0474 45.3518 34.9038C45.4983 34.7602 45.5723 34.5589 45.5723 34.2984V33.7152C45.4894 33.8824 45.3666 34.0171 45.2037 34.1208C45.0409 34.2244 44.8529 34.2762 44.6353 34.2762C44.2875 34.2777 43.9988 34.1533 43.7679 33.9046ZM45.3177 33.6559C45.4865 33.4827 45.5709 33.2533 45.5709 32.9661C45.5709 32.6789 45.4865 32.4495 45.3177 32.2763C45.149 32.1031 44.9477 32.0173 44.7108 32.0173C44.474 32.0173 44.2727 32.1002 44.1039 32.2674C43.9352 32.4347 43.8508 32.6612 43.8508 32.9484C43.8508 33.2355 43.9352 33.4694 44.1054 33.6485C44.2756 33.8277 44.4769 33.918 44.7123 33.918C44.9477 33.915 45.149 33.8291 45.3177 33.6559Z" fill="#0F4674" />
        <path d="M47.8727 34.2777C47.5085 34.2777 47.211 34.1578 46.983 33.9165C46.755 33.6752 46.6396 33.3569 46.6396 32.9617C46.6396 32.5665 46.755 32.2497 46.9875 32.0099C47.2199 31.77 47.5189 31.6501 47.889 31.6501C48.259 31.6501 48.5551 31.7641 48.7786 31.9906C49.0021 32.2171 49.1146 32.5072 49.1146 32.8596C49.1146 32.9499 49.1087 33.0327 49.0954 33.1097H47.0704C47.0822 33.3629 47.1621 33.5627 47.3087 33.7092C47.4552 33.8558 47.6432 33.9298 47.8712 33.9298C48.0444 33.9298 48.1894 33.8913 48.3094 33.8144C48.4278 33.7374 48.5151 33.6352 48.5714 33.5079H49.0258C48.9459 33.73 48.8067 33.9135 48.6113 34.0601C48.4159 34.2052 48.1702 34.2777 47.8727 34.2777ZM48.4426 32.2171C48.2916 32.0706 48.1036 31.9965 47.8801 31.9965C47.6565 31.9965 47.47 32.0691 47.322 32.2127C47.174 32.3563 47.0911 32.5531 47.0763 32.8033H48.675C48.672 32.5591 48.595 32.3637 48.4426 32.2171Z" fill="#0F4674" />
        <path d="M50.176 31.6916V32.1046C50.3492 31.8026 50.626 31.6501 51.005 31.6501C51.2863 31.6501 51.5216 31.7434 51.7096 31.9299C51.8976 32.1164 51.9924 32.3829 51.9924 32.7293V34.2347H51.5749V32.7988C51.5749 32.5428 51.5128 32.3474 51.3899 32.2156C51.2655 32.0824 51.0953 32.0158 50.8777 32.0158C50.6601 32.0158 50.4884 32.0824 50.3625 32.2156C50.2382 32.3488 50.1745 32.5428 50.1745 32.7988V34.2347H49.7526V31.6901H50.176V31.6916Z" fill="#0F4674" />
        <path d="M53.6146 33.8927H53.9625V34.2361H53.5362C53.0936 34.2361 52.8731 34.0185 52.8731 33.5833V32.0349H52.5445V31.6915H52.8731V31.0609H53.2994V31.6915H53.9566V32.0349H53.2994V33.5833C53.2994 33.6973 53.3231 33.7773 53.3689 33.8246C53.4148 33.869 53.4962 33.8927 53.6146 33.8927Z" fill="#0F4674" />
        <path d="M56.0469 34.2361V31.0254H56.4688V34.2361H56.0469Z" fill="#0F4674" />
        <path d="M57.7018 31.6916V32.1046C57.875 31.8026 58.1518 31.6501 58.5308 31.6501C58.8121 31.6501 59.0475 31.7434 59.2355 31.9299C59.4235 32.1164 59.5182 32.3829 59.5182 32.7293V34.2347H59.1007V32.7988C59.1007 32.5428 59.0386 32.3474 58.9157 32.2156C58.7914 32.0824 58.6211 32.0158 58.4035 32.0158C58.1859 32.0158 58.0142 32.0824 57.8883 32.2156C57.764 32.3488 57.7003 32.5428 57.7003 32.7988V34.2347H57.2784V31.6901H57.7018V31.6916Z" fill="#0F4674" />
        <path d="M60.7276 31.6916V32.1046C60.9008 31.8026 61.1776 31.6501 61.5565 31.6501C61.8378 31.6501 62.0731 31.7434 62.2611 31.9299C62.4491 32.1164 62.5439 32.3829 62.5439 32.7293V34.2347H62.1264V32.7988C62.1264 32.5428 62.0643 32.3474 61.9414 32.2156C61.8171 32.0824 61.6468 32.0158 61.4292 32.0158C61.2116 32.0158 61.0399 32.0824 60.9141 32.2156C60.7883 32.3488 60.7261 32.5428 60.7261 32.7988V34.2347H60.3042V31.6901H60.7276V31.6916Z" fill="#0F4674" />
        <path d="M63.5149 33.915C63.2811 33.6737 63.1656 33.3569 63.1656 32.9647C63.1656 32.5724 63.287 32.2556 63.5312 32.0128C63.7755 31.7701 64.0804 31.6487 64.449 31.6487C64.8161 31.6487 65.1225 31.7701 65.3668 32.0128C65.611 32.2556 65.7324 32.5724 65.7324 32.9632C65.7324 33.354 65.6051 33.6708 65.3505 33.9135C65.0959 34.1563 64.785 34.2777 64.4164 34.2777C64.0478 34.2777 63.7473 34.1563 63.5149 33.915ZM64.4149 33.9298C64.6533 33.9298 64.859 33.844 65.0337 33.6723C65.2084 33.5005 65.2957 33.2637 65.2957 32.9602C65.2957 32.6568 65.2128 32.4214 65.0456 32.2512C64.8783 32.0809 64.6755 31.9966 64.4357 31.9966C64.1959 31.9966 63.996 32.0809 63.8362 32.2512C63.6763 32.4214 63.5949 32.6582 63.5949 32.9632C63.5949 33.2681 63.6718 33.505 63.8258 33.6752C63.9812 33.8454 64.1781 33.9298 64.4149 33.9298Z" fill="#0F4674" />
        <path d="M66.0833 31.6917H66.5333L67.3119 33.8425L68.095 31.6917H68.5494L67.5532 34.2363H67.0765L66.0833 31.6917Z" fill="#0F4674" />
        <path d="M69.2481 33.9046C69.0172 33.656 68.9003 33.3377 68.9003 32.9499C68.9003 32.562 69.0157 32.2482 69.2452 32.0099C69.4746 31.7715 69.7647 31.6501 70.1141 31.6501C70.3302 31.6501 70.5197 31.7005 70.6825 31.8026C70.8453 31.9048 70.9682 32.038 71.0511 32.2008V31.6916H71.4774V34.2362H71.0511V33.7167C70.9682 33.8839 70.8453 34.0186 70.6825 34.1223C70.5197 34.2259 70.3317 34.2777 70.1141 34.2777C69.7692 34.2777 69.4805 34.1533 69.2481 33.9046ZM70.7994 33.656C70.9682 33.4828 71.0526 33.2533 71.0526 32.9661C71.0526 32.679 70.9682 32.4495 70.7994 32.2763C70.6307 32.1031 70.4294 32.0173 70.1925 32.0173C69.9557 32.0173 69.7544 32.1002 69.5856 32.2674C69.4169 32.4347 69.3325 32.6612 69.3325 32.9484C69.3325 33.2356 69.4169 33.4694 69.5871 33.6486C69.7573 33.8277 69.9587 33.918 70.194 33.918C70.4294 33.915 70.6307 33.8292 70.7994 33.656Z" fill="#0F4674" />
        <path d="M73.1221 33.8927H73.4699V34.2361H73.0436C72.601 34.2361 72.3804 34.0185 72.3804 33.5833V32.0349H72.0518V31.6915H72.3804V31.0609H72.8067V31.6915H73.4655V32.0349H72.8067V33.5833C72.8067 33.6973 72.8304 33.7773 72.8763 33.8246C72.9222 33.872 73.0051 33.8927 73.1221 33.8927Z" fill="#0F4674" />
        <path d="M74.4661 31.2001C74.4099 31.2563 74.3418 31.283 74.2619 31.283C74.1819 31.283 74.1138 31.2548 74.0605 31.2001C74.0073 31.1438 73.9791 31.0772 73.9791 30.9958C73.9791 30.9159 74.0073 30.8478 74.062 30.7915C74.1168 30.7353 74.1849 30.7086 74.2633 30.7086C74.3418 30.7086 74.4099 30.7367 74.4647 30.7915C74.5194 30.8463 74.5475 30.9159 74.5475 30.9958C74.549 31.0772 74.5224 31.1453 74.4661 31.2001ZM74.0487 34.2362V31.6915H74.4706V34.2362H74.0487Z" fill="#0F4674" />
        <path d="M75.4653 33.915C75.2314 33.6737 75.116 33.3569 75.116 32.9647C75.116 32.5724 75.2374 32.2556 75.4816 32.0128C75.7259 31.7701 76.0308 31.6487 76.3994 31.6487C76.7665 31.6487 77.073 31.7701 77.3172 32.0128C77.5615 32.2556 77.6829 32.5724 77.6829 32.9632C77.6829 33.354 77.5555 33.6708 77.3009 33.9135C77.0463 34.1563 76.7354 34.2777 76.3668 34.2777C75.9982 34.2777 75.6977 34.1563 75.4653 33.915ZM76.3668 33.9298C76.6052 33.9298 76.8109 33.844 76.9856 33.6723C77.1603 33.5005 77.2476 33.2637 77.2476 32.9602C77.2476 32.6568 77.1647 32.4214 76.9975 32.2512C76.8302 32.0809 76.6274 31.9966 76.3876 31.9966C76.1478 31.9966 75.9479 32.0809 75.788 32.2512C75.6282 32.4214 75.5467 32.6582 75.5467 32.9632C75.5467 33.2681 75.6237 33.505 75.7777 33.6752C75.9316 33.8454 76.1285 33.9298 76.3668 33.9298Z" fill="#0F4674" />
        <path d="M78.7487 31.6916V32.1046C78.9219 31.8026 79.1987 31.6501 79.5776 31.6501C79.8589 31.6501 80.0942 31.7434 80.2822 31.9299C80.4702 32.1164 80.5649 32.3829 80.5649 32.7293V34.2347H80.1475V32.7988C80.1475 32.5428 80.0853 32.3474 79.9625 32.2156C79.8381 32.0824 79.6679 32.0158 79.4503 32.0158C79.2327 32.0158 79.061 32.0824 78.9352 32.2156C78.8094 32.3488 78.7472 32.5428 78.7472 32.7988V34.2347H78.3253V31.6901H78.7487V31.6916Z" fill="#0F4674" />
        <path d="M81.2592 32.4096C81.2592 32.1964 81.348 32.0158 81.5256 31.8692C81.7033 31.7227 81.9327 31.6487 82.2155 31.6487C82.4982 31.6487 82.7203 31.7212 82.8802 31.8648C83.0415 32.0084 83.1289 32.2053 83.1437 32.4554H82.7084C82.7025 32.3133 82.6552 32.1994 82.5649 32.112C82.4745 32.0262 82.3502 31.9818 82.1918 31.9818C82.0334 31.9818 81.9076 32.0202 81.8158 32.0957C81.724 32.1712 81.6796 32.2689 81.6796 32.3874C81.6796 32.5058 81.7314 32.5976 81.835 32.6627C81.9386 32.7278 82.0645 32.7752 82.211 32.8048C82.3576 32.8344 82.5042 32.8685 82.6507 32.9069C82.7973 32.9454 82.9231 33.018 83.0267 33.1245C83.1304 33.2311 83.1822 33.3821 83.1822 33.579C83.1822 33.7759 83.0933 33.9402 82.9157 34.0749C82.7381 34.2096 82.5071 34.2762 82.2229 34.2762C81.9387 34.2762 81.7107 34.2052 81.5389 34.0631C81.3672 33.921 81.274 33.7241 81.2592 33.4739H81.6944C81.7003 33.616 81.7506 33.73 81.8454 33.8144C81.9401 33.9002 82.0689 33.9417 82.2347 33.9417C82.4005 33.9417 82.5293 33.9061 82.6241 33.8351C82.7188 33.764 82.7647 33.6737 82.7647 33.5642C82.7647 33.4547 82.7277 33.3673 82.6537 33.3022C82.5797 33.237 82.4864 33.1926 82.3754 33.1675C82.2643 33.1423 82.1429 33.1142 82.0112 33.0801C81.8794 33.0461 81.758 33.0091 81.647 32.9706C81.536 32.9321 81.4427 32.8655 81.3687 32.7693C81.2962 32.676 81.2592 32.5546 81.2592 32.4096Z" fill="#0F4674" />
        <path d="M85.4114 34.2361V31.0254H87.2188V31.3644H85.8333V32.4539H86.9272V32.7869H85.8333V34.2376L85.4114 34.2361Z" fill="#0F4674" />
        <path d="M87.9812 33.915C87.7474 33.6737 87.6319 33.3569 87.6319 32.9647C87.6319 32.5724 87.7533 32.2556 87.9975 32.0128C88.2417 31.7701 88.5467 31.6487 88.9152 31.6487C89.2823 31.6487 89.5887 31.7701 89.833 32.0128C90.0772 32.2556 90.1986 32.5724 90.1986 32.9632C90.1986 33.354 90.0713 33.6708 89.8167 33.9135C89.5621 34.1563 89.2513 34.2777 88.8827 34.2777C88.5141 34.2777 88.2136 34.1563 87.9812 33.915ZM88.8827 33.9298C89.121 33.9298 89.3268 33.844 89.5014 33.6723C89.6761 33.5005 89.7634 33.2637 89.7634 32.9602C89.7634 32.6568 89.6805 32.4214 89.5133 32.2512C89.346 32.0809 89.1432 31.9966 88.9034 31.9966C88.6636 31.9966 88.4638 32.0809 88.3039 32.2512C88.1441 32.4214 88.0626 32.6582 88.0626 32.9632C88.0626 33.2681 88.1396 33.505 88.2936 33.6752C88.4475 33.8454 88.6444 33.9298 88.8827 33.9298Z" fill="#0F4674" />
        <path d="M91.2646 31.6916V32.1224C91.4155 31.8071 91.6731 31.6501 92.0386 31.6501V32.0898H91.9276C91.7115 32.0898 91.5473 32.146 91.4348 32.2585C91.3223 32.371 91.2661 32.5664 91.2661 32.8447V34.2347H90.8442V31.6901H91.2646V31.6916Z" fill="#0F4674" />
        <path d="M96.2088 31.0239H96.6351V34.2347H96.2088V32.784H94.5907V34.2347H94.1688V31.0239H94.5907V32.4509H96.2088V31.0239Z" fill="#0F4674" />
        <path d="M98.5106 34.2777C98.1465 34.2777 97.8489 34.1578 97.621 33.9165C97.3916 33.6752 97.2776 33.3569 97.2776 32.9617C97.2776 32.5665 97.393 32.2497 97.6254 32.0099C97.8563 31.77 98.1583 31.6501 98.5269 31.6501C98.8954 31.6501 99.193 31.7641 99.4165 31.9906C99.64 32.2171 99.7525 32.5072 99.7525 32.8596C99.7525 32.9499 99.7466 33.0327 99.7332 33.1097H97.7083C97.7202 33.3629 97.8001 33.5627 97.9466 33.7092C98.0932 33.8558 98.2812 33.9298 98.5091 33.9298C98.6823 33.9298 98.8274 33.8913 98.9472 33.8144C99.0657 33.7374 99.153 33.6352 99.2092 33.5079H99.6637C99.5837 33.73 99.4446 33.9135 99.2492 34.0601C99.0538 34.2052 98.8081 34.2777 98.5106 34.2777ZM99.0805 32.2171C98.9295 32.0706 98.7415 31.9965 98.518 31.9965C98.2945 31.9965 98.108 32.0691 97.96 32.2127C97.8119 32.3563 97.7305 32.5531 97.7142 32.8033H99.3129C99.3099 32.5591 99.2329 32.3637 99.0805 32.2171Z" fill="#0F4674" />
        <path d="M100.573 33.9046C100.342 33.656 100.225 33.3377 100.225 32.9499C100.225 32.562 100.34 32.2482 100.57 32.0099C100.799 31.7715 101.089 31.6501 101.439 31.6501C101.655 31.6501 101.844 31.7005 102.007 31.8026C102.17 31.9048 102.293 32.038 102.376 32.2008V31.6916H102.802V34.2362H102.376V33.7167C102.293 33.8839 102.17 34.0186 102.007 34.1223C101.844 34.2259 101.656 34.2777 101.439 34.2777C101.094 34.2777 100.805 34.1533 100.573 33.9046ZM102.123 33.656C102.291 33.4828 102.376 33.2533 102.376 32.9661C102.376 32.679 102.291 32.4495 102.123 32.2763C101.954 32.1031 101.752 32.0173 101.516 32.0173C101.279 32.0173 101.077 32.1002 100.909 32.2674C100.74 32.4347 100.656 32.6612 100.656 32.9484C100.656 33.2356 100.74 33.4694 100.91 33.6486C101.08 33.8277 101.282 33.918 101.517 33.918C101.754 33.915 101.955 33.8292 102.123 33.656Z" fill="#0F4674" />
        <path d="M103.613 34.2361V30.8077H104.035V34.2361H103.613Z" fill="#0F4674" />
        <path d="M105.68 33.8927H106.027V34.2361H105.601C105.158 34.2361 104.938 34.0185 104.938 33.5833V32.0349H104.609V31.6915H104.938V31.0609H105.364V31.6915H106.023V32.0349H105.364V33.5833C105.364 33.6973 105.388 33.7773 105.434 33.8246C105.48 33.872 105.563 33.8927 105.68 33.8927Z" fill="#0F4674" />
        <path d="M107.028 30.8063V32.103C107.201 31.801 107.478 31.6486 107.857 31.6486C108.138 31.6486 108.374 31.7418 108.562 31.9284C108.75 32.1149 108.844 32.3813 108.844 32.7277V34.2332H108.427V32.7973C108.427 32.5412 108.365 32.3458 108.242 32.214C108.118 32.0808 107.947 32.0142 107.73 32.0142C107.512 32.0142 107.34 32.0808 107.215 32.214C107.089 32.3473 107.027 32.5412 107.027 32.7973V34.2332H106.605V30.8048H107.028V30.8063Z" fill="#0F4674" />
        <path d="M109.808 33.915C109.579 33.6737 109.465 33.3569 109.465 32.9632C109.465 32.5694 109.579 32.2511 109.808 32.0113C110.038 31.7715 110.334 31.6501 110.698 31.6501C111.004 31.6501 111.253 31.7212 111.445 31.8633C111.638 32.0054 111.774 32.2082 111.851 32.4702H111.397C111.348 32.3222 111.262 32.2067 111.142 32.1224C111.022 32.038 110.873 31.998 110.698 31.998C110.457 31.998 110.263 32.0824 110.116 32.2511C109.97 32.4199 109.896 32.6567 109.896 32.9646C109.896 33.2725 109.97 33.5094 110.116 33.6781C110.263 33.8469 110.457 33.9313 110.698 33.9313C111.059 33.9313 111.293 33.7744 111.398 33.4591H111.853C111.776 33.7092 111.638 33.9091 111.442 34.0571C111.246 34.2051 110.998 34.2791 110.699 34.2791C110.334 34.2777 110.038 34.1563 109.808 33.915Z" fill="#0F4674" />
        <path d="M112.71 33.9046C112.479 33.656 112.362 33.3377 112.362 32.9499C112.362 32.562 112.477 32.2482 112.707 32.0099C112.936 31.7715 113.226 31.6501 113.576 31.6501C113.792 31.6501 113.981 31.7005 114.144 31.8026C114.307 31.9048 114.43 32.038 114.513 32.2008V31.6916H114.939V34.2362H114.513V33.7167C114.43 33.8839 114.307 34.0186 114.144 34.1223C113.981 34.2259 113.793 34.2777 113.576 34.2777C113.229 34.2777 112.941 34.1533 112.71 33.9046ZM114.259 33.656C114.428 33.4828 114.513 33.2533 114.513 32.9661C114.513 32.679 114.428 32.4495 114.259 32.2763C114.091 32.1031 113.889 32.0173 113.653 32.0173C113.416 32.0173 113.214 32.1002 113.046 32.2674C112.877 32.4347 112.793 32.6612 112.793 32.9484C112.793 33.2356 112.877 33.4694 113.047 33.6486C113.217 33.8277 113.419 33.918 113.654 33.918C113.889 33.915 114.091 33.8292 114.259 33.656Z" fill="#0F4674" />
        <path d="M116.17 31.6916V32.1224C116.321 31.8071 116.579 31.6501 116.945 31.6501V32.0898H116.834C116.617 32.0898 116.453 32.146 116.341 32.2585C116.228 32.371 116.172 32.5664 116.172 32.8447V34.2347H115.75V31.6901H116.17V31.6916Z" fill="#0F4674" />
        <path d="M118.635 34.2777C118.271 34.2777 117.973 34.1578 117.745 33.9165C117.516 33.6752 117.402 33.3569 117.402 32.9617C117.402 32.5665 117.517 32.2497 117.75 32.0099C117.981 31.77 118.283 31.6501 118.651 31.6501C119.02 31.6501 119.317 31.7641 119.541 31.9906C119.764 32.2171 119.877 32.5072 119.877 32.8596C119.877 32.9499 119.871 33.0327 119.858 33.1097H117.833C117.845 33.3629 117.925 33.5627 118.071 33.7092C118.218 33.8558 118.406 33.9298 118.634 33.9298C118.807 33.9298 118.952 33.8913 119.072 33.8144C119.19 33.7374 119.277 33.6352 119.334 33.5079H119.788C119.708 33.73 119.569 33.9135 119.374 34.0601C119.178 34.2052 118.933 34.2777 118.635 34.2777ZM119.205 32.2171C119.054 32.0706 118.866 31.9965 118.642 31.9965C118.419 31.9965 118.232 32.0691 118.084 32.2127C117.936 32.3563 117.855 32.5531 117.839 32.8033H119.437C119.434 32.5591 119.357 32.3637 119.205 32.2171Z" fill="#0F4674" />
        <path d="M23.9393 32.2644V36.279H16.5053V16.5038H19.7767V12.3397H12.3427V23.9378H4.16407V16.5038H8.17863V12.3397H3.86653C1.73491 12.3397 0 14.0746 0 16.2062V24.2353C0 26.367 1.73491 28.1019 3.86653 28.1019H12.3427V36.578C12.3427 38.7096 14.0761 40.4445 16.2077 40.4445H24.2354C26.3685 40.4445 28.1004 38.7096 28.1004 36.578V32.2659H23.9393V32.2644Z" fill="#0F4674" />
        <path d="M36.5765 12.3397H28.1004V3.86504C28.1004 1.73342 26.3669 0 24.2353 0H16.2077C14.0761 0 12.3427 1.7349 12.3427 3.86504V8.17713H16.5052V4.16258H23.9393V23.9378H20.6678V28.1004H28.1018V16.5023H36.2805V23.9363H32.2659V28.0989H36.578C38.7096 28.0989 40.4445 26.364 40.4445 24.2324V16.2033C40.443 14.0746 38.7081 12.3397 36.5765 12.3397Z" fill="#2F89C8" />
        <path d="M49.2049 12.5173V28.167H44.6649V12.5173H49.2049Z" fill="#0F4674" />
        <path d="M62.6535 28.167H58.4687V19.6835C58.4687 18.8205 58.2274 18.3882 57.7463 18.3882C57.2563 18.3882 56.8329 18.7302 56.4732 19.4141C56.1135 20.098 55.9344 20.9062 55.9344 21.8388V28.167H51.7496V16.5882C53.1869 16.5882 54.5814 16.4935 55.9344 16.301V18.4682C56.9736 17.0308 58.2422 16.3129 59.7402 16.3129C61.6809 16.3129 62.652 17.2987 62.652 19.2705L62.6535 28.167Z" fill="#0F4674" />
        <path d="M71.0452 16.6104V17.9057H69.3947V28.1671H65.2098V17.9057H63.7429V16.6104H65.2098V15.5786C65.2098 14.6313 65.5444 13.8437 66.2135 13.2176C66.8826 12.5914 67.7219 12.2776 68.73 12.2776C70.7477 12.2776 71.7572 13.034 71.7572 14.5484C71.7572 14.6623 71.7528 14.8089 71.7454 14.9836L69.7618 15.6823C69.8684 15.2855 69.9216 14.9717 69.9216 14.7423C69.9216 13.9326 69.6389 13.527 69.0734 13.527C68.5849 13.527 68.3392 13.8822 68.3392 14.5928C68.3392 15.028 68.69 15.7015 69.3947 16.6104H71.0452Z" fill="#0F4674" />
        <path d="M72.4662 28.167V16.6222C73.7733 16.6222 75.1678 16.5186 76.651 16.3128V28.167H72.4662ZM74.5875 12.1281C75.8872 12.1281 76.5371 12.6328 76.5371 13.6409C76.5371 14.649 75.8872 15.1538 74.5875 15.1538C73.2878 15.1538 72.638 14.649 72.638 13.6409C72.638 12.6328 73.2878 12.1281 74.5875 12.1281Z" fill="#0F4674" />
        <path d="M87.3253 20.807H84.4595C84.5587 20.3556 84.6461 20.024 84.723 19.8093C84.8296 19.4955 84.8829 19.2128 84.8829 18.9611C84.8829 18.4726 84.7067 18.2269 84.3559 18.2269C84.088 18.2269 83.8319 18.5496 83.5877 19.195C83.3434 19.8404 83.2206 20.5228 83.2206 21.2408V28.1656H79.0358V16.6089L79.85 16.6208C80.8136 16.6208 81.9372 16.5172 83.2206 16.3114V18.2151C83.9015 16.9464 84.7334 16.3114 85.7193 16.3114C87.0648 16.3114 87.7369 17.053 87.7369 18.5363C87.7369 18.9256 87.6717 19.3726 87.5415 19.8774C87.4971 20.0847 87.4245 20.394 87.3253 20.807Z" fill="#0F4674" />
        <path d="M105.989 28.1671H101.804V19.4881C101.804 18.7317 101.582 18.3527 101.139 18.3527C100.115 18.3527 99.6029 19.4422 99.6029 21.6197V28.1656H95.4181V19.6702C95.4181 18.8072 95.2198 18.3749 94.8216 18.3749C93.7824 18.3749 93.2628 19.46 93.2628 21.6301V28.1656H89.078V16.5749C90.4917 16.5749 91.8876 16.4802 93.2628 16.2877V18.2832C94.2487 16.9613 95.464 16.2996 96.9088 16.2996C98.1167 16.2996 99.0138 16.9228 99.6029 18.1677C100.536 16.9065 101.701 16.2759 103.099 16.2759C105.025 16.2759 105.989 17.2499 105.989 19.1995V28.1671Z" fill="#0F4674" />
        <path d="M120 27.754C118.976 28.1507 117.978 28.3506 117.008 28.3506C115.571 28.3506 114.684 27.9035 114.348 27.0094C113.653 27.942 112.652 28.4083 111.345 28.4083C108.907 28.4083 107.687 27.2774 107.687 25.0155C107.687 23.2954 108.803 22.0875 111.034 21.3932C113.083 20.7508 114.107 19.9795 114.107 19.078C114.107 17.8938 113.518 17.3002 112.341 17.3002C110.981 17.3002 110.3 17.8731 110.3 19.0203C110.3 19.38 110.406 19.8537 110.621 20.4414L108.546 20.0402C108.492 19.6805 108.466 19.3445 108.466 19.0307C108.466 17.1966 110.14 16.2788 113.487 16.2788C116.666 16.2788 118.256 17.1344 118.256 18.8471V25.8637C118.256 26.5816 118.489 26.9413 118.955 26.9413C119.1 26.9413 119.315 26.8614 119.597 26.7001L120 27.754ZM114.071 21.22C113.811 21.5176 113.509 21.7662 113.166 21.9646C112.301 22.4694 111.87 23.3176 111.87 24.5092C111.87 26.0384 112.168 26.8022 112.764 26.8022C113.636 26.8022 114.071 26.0458 114.071 24.5329V21.22Z" fill="#0F4674" />
    </g>
    <defs>
        <clipPath id="clip0">
            <rect width="120" height="40.4431" fill="white" />
        </clipPath>
    </defs>
</svg>