<?xml version="1.0" encoding="utf-8"?>
<!-- Generator: Adobe Illustrator 25.1.0, SVG Export Plug-In . SVG Version: 6.00 Build 0)  -->
<svg version="1.1" id="Layer_1" xmlns="http://www.w3.org/2000/svg" xmlns:xlink="http://www.w3.org/1999/xlink" x="0px" y="0px"
	 viewBox="0 0 135 46.24" style="enable-background:new 0 0 135 46.24;" xml:space="preserve">
<style type="text/css">
	.st0{fill:#0F4674;}
	.st1{fill:#3DBB96;}
</style>
<g>
	<g>
		<path class="st0" d="M35.13,38.11V34.6h0.46v3.52H35.13z"/>
		<path class="st0" d="M36.94,35.33v0.45c0.19-0.33,0.49-0.5,0.91-0.5c0.31,0,0.57,0.1,0.77,0.31c0.21,0.2,0.31,0.5,0.31,0.88v1.65
			h-0.46v-1.57c0-0.28-0.07-0.49-0.2-0.64c-0.13-0.14-0.32-0.22-0.56-0.22s-0.43,0.07-0.56,0.22c-0.14,0.15-0.21,0.36-0.21,0.64
			v1.57h-0.46v-2.79L36.94,35.33L36.94,35.33z"/>
		<path class="st0" d="M40.71,37.74h0.38v0.38h-0.47c-0.48,0-0.73-0.24-0.73-0.71v-1.7h-0.36v-0.38h0.36v-0.69h0.47v0.69h0.72v0.38
			h-0.72v1.7c0,0.12,0.03,0.21,0.08,0.26C40.49,37.71,40.58,37.74,40.71,37.74z"/>
		<path class="st0" d="M42.89,38.16c-0.4,0-0.72-0.13-0.97-0.4c-0.25-0.26-0.38-0.61-0.38-1.05c0-0.43,0.13-0.78,0.38-1.04
			c0.25-0.26,0.58-0.39,0.99-0.39c0.41,0,0.73,0.12,0.97,0.37c0.24,0.25,0.37,0.57,0.37,0.95c0,0.1-0.01,0.19-0.02,0.27h-2.22
			c0.01,0.28,0.1,0.5,0.26,0.66c0.16,0.16,0.37,0.24,0.62,0.24c0.19,0,0.35-0.04,0.48-0.13c0.13-0.08,0.23-0.2,0.29-0.34h0.5
			c-0.09,0.24-0.24,0.44-0.45,0.6C43.48,38.08,43.21,38.16,42.89,38.16z M43.51,35.9c-0.17-0.16-0.37-0.24-0.62-0.24
			c-0.24,0-0.45,0.08-0.61,0.24c-0.16,0.16-0.25,0.37-0.27,0.65h1.75C43.76,36.28,43.68,36.06,43.51,35.9z"/>
		<path class="st0" d="M44.95,38.11v-3.75h0.46v3.75H44.95z"/>
		<path class="st0" d="M46.3,38.11v-3.75h0.46v3.75H46.3z"/>
		<path class="st0" d="M48.11,34.79c-0.06,0.06-0.14,0.09-0.22,0.09c-0.09,0-0.16-0.03-0.22-0.09c-0.06-0.06-0.09-0.13-0.09-0.22
			c0-0.09,0.03-0.16,0.09-0.22c0.06-0.06,0.13-0.09,0.22-0.09s0.16,0.03,0.22,0.09s0.09,0.14,0.09,0.22
			C48.2,34.65,48.17,34.73,48.11,34.79z M47.65,38.11v-2.79h0.46v2.79H47.65L47.65,38.11z"/>
		<path class="st0" d="M49.2,37.75c-0.25-0.27-0.38-0.62-0.38-1.05c0-0.42,0.13-0.77,0.38-1.03s0.57-0.39,0.95-0.39
			c0.24,0,0.44,0.06,0.62,0.17c0.18,0.11,0.31,0.26,0.4,0.44v-0.56h0.47v2.86c0,0.38-0.12,0.69-0.37,0.94
			c-0.25,0.24-0.56,0.36-0.94,0.36s-0.69-0.09-0.94-0.26c-0.25-0.18-0.39-0.41-0.42-0.69h0.45c0.04,0.16,0.15,0.29,0.31,0.4
			c0.16,0.11,0.36,0.16,0.6,0.16c0.24,0,0.44-0.08,0.6-0.24c0.16-0.16,0.24-0.38,0.24-0.66v-0.64c-0.09,0.18-0.23,0.33-0.4,0.44
			c-0.18,0.11-0.38,0.17-0.62,0.17C49.77,38.16,49.45,38.02,49.2,37.75z M50.89,37.48c0.18-0.19,0.28-0.44,0.28-0.76
			c0-0.31-0.09-0.57-0.28-0.76c-0.18-0.19-0.41-0.28-0.66-0.28c-0.26,0-0.48,0.09-0.66,0.27c-0.18,0.18-0.28,0.43-0.28,0.75
			c0,0.31,0.09,0.57,0.28,0.77c0.19,0.2,0.41,0.3,0.66,0.3C50.49,37.76,50.71,37.67,50.89,37.48z"/>
		<path class="st0" d="M53.69,38.16c-0.4,0-0.72-0.13-0.97-0.4c-0.25-0.26-0.38-0.61-0.38-1.05c0-0.43,0.13-0.78,0.38-1.04
			c0.25-0.26,0.58-0.39,0.99-0.39c0.41,0,0.73,0.12,0.97,0.37c0.24,0.25,0.37,0.57,0.37,0.95c0,0.1-0.01,0.19-0.02,0.27h-2.22
			c0.01,0.28,0.1,0.5,0.26,0.66s0.37,0.24,0.62,0.24c0.19,0,0.35-0.04,0.48-0.13c0.13-0.08,0.23-0.2,0.29-0.34h0.5
			c-0.09,0.24-0.24,0.44-0.45,0.6C54.29,38.08,54.02,38.16,53.69,38.16z M54.32,35.9c-0.17-0.16-0.37-0.24-0.62-0.24
			c-0.24,0-0.45,0.08-0.61,0.24c-0.16,0.16-0.25,0.37-0.27,0.65h1.75C54.57,36.28,54.48,36.06,54.32,35.9z"/>
		<path class="st0" d="M56.21,35.33v0.45c0.19-0.33,0.49-0.5,0.91-0.5c0.31,0,0.57,0.1,0.77,0.31c0.21,0.2,0.31,0.5,0.31,0.88v1.65
			h-0.46v-1.57c0-0.28-0.07-0.49-0.2-0.64c-0.14-0.15-0.32-0.22-0.56-0.22c-0.24,0-0.43,0.07-0.56,0.22
			c-0.14,0.15-0.21,0.36-0.21,0.64v1.57h-0.46v-2.79L56.21,35.33L56.21,35.33z"/>
		<path class="st0" d="M59.98,37.74h0.38v0.38h-0.47c-0.48,0-0.73-0.24-0.73-0.71v-1.7h-0.36v-0.38h0.36v-0.69h0.47v0.69h0.72v0.38
			h-0.72v1.7c0,0.12,0.03,0.21,0.08,0.26C59.76,37.71,59.85,37.74,59.98,37.74z"/>
		<path class="st0" d="M62.64,38.11V34.6h0.46v3.52H62.64z"/>
		<path class="st0" d="M64.46,35.33v0.45c0.19-0.33,0.49-0.5,0.91-0.5c0.31,0,0.57,0.1,0.77,0.31s0.31,0.5,0.31,0.88v1.65h-0.46
			v-1.57c0-0.28-0.07-0.49-0.2-0.64c-0.14-0.15-0.32-0.22-0.56-0.22c-0.24,0-0.43,0.07-0.56,0.22c-0.14,0.15-0.21,0.36-0.21,0.64
			v1.57h-0.46v-2.79L64.46,35.33L64.46,35.33z"/>
		<path class="st0" d="M67.77,35.33v0.45c0.19-0.33,0.49-0.5,0.91-0.5c0.31,0,0.57,0.1,0.77,0.31s0.31,0.5,0.31,0.88v1.65H69.3
			v-1.57c0-0.28-0.07-0.49-0.2-0.64c-0.14-0.15-0.32-0.22-0.56-0.22c-0.24,0-0.43,0.07-0.56,0.22c-0.14,0.15-0.21,0.36-0.21,0.64
			v1.57h-0.46v-2.79L67.77,35.33L67.77,35.33z"/>
		<path class="st0" d="M70.82,37.76c-0.26-0.26-0.38-0.61-0.38-1.04c0-0.43,0.13-0.78,0.4-1.04c0.27-0.27,0.6-0.4,1.01-0.4
			c0.4,0,0.74,0.13,1.01,0.4c0.27,0.27,0.4,0.61,0.4,1.04s-0.14,0.77-0.42,1.04s-0.62,0.4-1.02,0.4S71.08,38.03,70.82,37.76z
			 M71.81,37.78c0.26,0,0.49-0.09,0.68-0.28c0.19-0.19,0.29-0.45,0.29-0.78c0-0.33-0.09-0.59-0.27-0.78
			c-0.18-0.19-0.41-0.28-0.67-0.28s-0.48,0.09-0.66,0.28c-0.18,0.19-0.26,0.45-0.26,0.78s0.08,0.59,0.25,0.78
			C71.33,37.69,71.55,37.78,71.81,37.78z"/>
		<path class="st0" d="M73.63,35.33h0.49l0.85,2.36l0.86-2.36h0.5l-1.09,2.79h-0.52L73.63,35.33z"/>
		<path class="st0" d="M77.1,37.75c-0.25-0.27-0.38-0.62-0.38-1.05c0-0.42,0.13-0.77,0.38-1.03s0.57-0.39,0.95-0.39
			c0.24,0,0.44,0.06,0.62,0.17c0.18,0.11,0.31,0.26,0.4,0.44v-0.56h0.47v2.79h-0.47v-0.57c-0.09,0.18-0.23,0.33-0.4,0.44
			c-0.18,0.11-0.38,0.17-0.62,0.17C77.67,38.16,77.35,38.02,77.1,37.75z M78.8,37.48c0.18-0.19,0.28-0.44,0.28-0.76
			c0-0.31-0.09-0.57-0.28-0.76s-0.41-0.28-0.66-0.28c-0.26,0-0.48,0.09-0.66,0.27c-0.18,0.18-0.28,0.43-0.28,0.75
			c0,0.31,0.09,0.57,0.28,0.77s0.41,0.3,0.66,0.3C78.39,37.76,78.61,37.67,78.8,37.48z"/>
		<path class="st0" d="M81.34,37.74h0.38v0.38h-0.47c-0.48,0-0.73-0.24-0.73-0.71v-1.7h-0.36v-0.38h0.36v-0.69H81v0.69h0.72v0.38H81
			v1.7c0,0.12,0.03,0.21,0.08,0.26S81.21,37.74,81.34,37.74z"/>
		<path class="st0" d="M82.81,34.79c-0.06,0.06-0.14,0.09-0.22,0.09c-0.09,0-0.16-0.03-0.22-0.09c-0.06-0.06-0.09-0.13-0.09-0.22
			c0-0.09,0.03-0.16,0.09-0.22c0.06-0.06,0.13-0.09,0.22-0.09c0.09,0,0.16,0.03,0.22,0.09s0.09,0.14,0.09,0.22
			C82.91,34.65,82.88,34.73,82.81,34.79z M82.36,38.11v-2.79h0.46v2.79H82.36L82.36,38.11z"/>
		<path class="st0" d="M83.91,37.76c-0.26-0.26-0.38-0.61-0.38-1.04c0-0.43,0.13-0.78,0.4-1.04c0.27-0.27,0.6-0.4,1.01-0.4
			c0.4,0,0.74,0.13,1.01,0.4c0.27,0.27,0.4,0.61,0.4,1.04s-0.14,0.77-0.42,1.04s-0.62,0.4-1.02,0.4
			C84.49,38.16,84.16,38.03,83.91,37.76z M84.9,37.78c0.26,0,0.49-0.09,0.68-0.28s0.29-0.45,0.29-0.78c0-0.33-0.09-0.59-0.27-0.78
			c-0.18-0.19-0.41-0.28-0.67-0.28c-0.26,0-0.48,0.09-0.66,0.28C84.09,36.13,84,36.39,84,36.72s0.08,0.59,0.25,0.78
			C84.42,37.69,84.63,37.78,84.9,37.78z"/>
		<path class="st0" d="M87.5,35.33v0.45c0.19-0.33,0.49-0.5,0.91-0.5c0.31,0,0.57,0.1,0.77,0.31c0.21,0.2,0.31,0.5,0.31,0.88v1.65
			h-0.46v-1.57c0-0.28-0.07-0.49-0.2-0.64c-0.14-0.15-0.32-0.22-0.56-0.22c-0.24,0-0.43,0.07-0.56,0.22
			c-0.14,0.15-0.21,0.36-0.21,0.64v1.57h-0.46v-2.79L87.5,35.33L87.5,35.33z"/>
		<path class="st0" d="M90.25,36.11c0-0.23,0.1-0.43,0.29-0.59s0.45-0.24,0.76-0.24c0.31,0,0.55,0.08,0.73,0.24
			c0.18,0.16,0.27,0.37,0.29,0.65h-0.48c-0.01-0.16-0.06-0.28-0.16-0.38c-0.1-0.09-0.24-0.14-0.41-0.14c-0.17,0-0.31,0.04-0.41,0.12
			c-0.1,0.08-0.15,0.19-0.15,0.32c0,0.13,0.06,0.23,0.17,0.3c0.11,0.07,0.25,0.12,0.41,0.16s0.32,0.07,0.48,0.11
			c0.16,0.04,0.3,0.12,0.41,0.24c0.11,0.12,0.17,0.28,0.17,0.5s-0.1,0.4-0.29,0.54c-0.19,0.15-0.45,0.22-0.76,0.22
			c-0.31,0-0.56-0.08-0.75-0.23c-0.19-0.16-0.29-0.37-0.31-0.65h0.48c0.01,0.16,0.06,0.28,0.17,0.37c0.1,0.09,0.24,0.14,0.43,0.14
			c0.18,0,0.32-0.04,0.43-0.12c0.1-0.08,0.15-0.18,0.15-0.3s-0.04-0.22-0.12-0.29s-0.18-0.12-0.3-0.15c-0.12-0.03-0.25-0.06-0.4-0.1
			c-0.14-0.04-0.28-0.08-0.4-0.12c-0.12-0.04-0.22-0.12-0.3-0.22C90.29,36.41,90.25,36.27,90.25,36.11z"/>
		<path class="st0" d="M94.8,38.11V34.6h1.98v0.37h-1.52v1.19h1.2v0.36h-1.2v1.59L94.8,38.11L94.8,38.11z"/>
		<path class="st0" d="M97.61,37.76c-0.26-0.26-0.38-0.61-0.38-1.04c0-0.43,0.13-0.78,0.4-1.04c0.27-0.27,0.6-0.4,1.01-0.4
			c0.4,0,0.74,0.13,1.01,0.4c0.27,0.27,0.4,0.61,0.4,1.04s-0.14,0.77-0.42,1.04c-0.28,0.27-0.62,0.4-1.02,0.4
			S97.87,38.03,97.61,37.76z M98.6,37.78c0.26,0,0.49-0.09,0.68-0.28s0.29-0.45,0.29-0.78c0-0.33-0.09-0.59-0.27-0.78
			c-0.18-0.19-0.41-0.28-0.67-0.28s-0.48,0.09-0.66,0.28c-0.18,0.19-0.26,0.45-0.26,0.78s0.08,0.59,0.25,0.78
			C98.13,37.69,98.34,37.78,98.6,37.78z"/>
		<path class="st0" d="M101.21,35.33v0.47c0.17-0.35,0.45-0.52,0.85-0.52v0.48h-0.12c-0.24,0-0.42,0.06-0.54,0.18
			c-0.12,0.12-0.18,0.34-0.18,0.64v1.52h-0.46v-2.79L101.21,35.33L101.21,35.33z"/>
		<path class="st0" d="M106.62,34.6h0.47v3.52h-0.47v-1.59h-1.77v1.59h-0.46V34.6h0.46v1.56h1.77V34.6z"/>
		<path class="st0" d="M109.15,38.16c-0.4,0-0.72-0.13-0.97-0.4c-0.25-0.26-0.38-0.61-0.38-1.05c0-0.43,0.13-0.78,0.38-1.04
			c0.25-0.26,0.58-0.39,0.99-0.39c0.4,0,0.73,0.12,0.97,0.37c0.24,0.25,0.37,0.57,0.37,0.95c0,0.1-0.01,0.19-0.02,0.27h-2.22
			c0.01,0.28,0.1,0.5,0.26,0.66s0.37,0.24,0.62,0.24c0.19,0,0.35-0.04,0.48-0.13c0.13-0.08,0.23-0.2,0.29-0.34h0.5
			c-0.09,0.24-0.24,0.44-0.45,0.6C109.74,38.08,109.47,38.16,109.15,38.16z M109.77,35.9c-0.17-0.16-0.37-0.24-0.62-0.24
			c-0.24,0-0.45,0.08-0.61,0.24c-0.16,0.16-0.25,0.37-0.27,0.65h1.75C110.02,36.28,109.94,36.06,109.77,35.9z"/>
		<path class="st0" d="M111.4,37.75c-0.25-0.27-0.38-0.62-0.38-1.05c0-0.42,0.13-0.77,0.38-1.03s0.57-0.39,0.95-0.39
			c0.24,0,0.44,0.06,0.62,0.17s0.31,0.26,0.4,0.44v-0.56h0.47v2.79h-0.47v-0.57c-0.09,0.18-0.23,0.33-0.4,0.44s-0.38,0.17-0.62,0.17
			C111.97,38.16,111.66,38.02,111.4,37.75z M113.1,37.48c0.18-0.19,0.28-0.44,0.28-0.76c0-0.31-0.09-0.57-0.28-0.76
			s-0.41-0.28-0.66-0.28c-0.26,0-0.48,0.09-0.66,0.27c-0.18,0.18-0.28,0.43-0.28,0.75c0,0.31,0.09,0.57,0.28,0.77
			c0.19,0.2,0.41,0.3,0.66,0.3C112.7,37.76,112.92,37.67,113.1,37.48z"/>
		<path class="st0" d="M114.73,38.11v-3.75h0.46v3.75H114.73z"/>
		<path class="st0" d="M117,37.74h0.38v0.38h-0.47c-0.48,0-0.73-0.24-0.73-0.71v-1.7h-0.36v-0.38h0.36v-0.69h0.47v0.69h0.72v0.38
			h-0.72v1.7c0,0.12,0.03,0.21,0.08,0.26S116.87,37.74,117,37.74z"/>
		<path class="st0" d="M118.47,34.36v1.42c0.19-0.33,0.49-0.5,0.91-0.5c0.31,0,0.57,0.1,0.77,0.31s0.31,0.5,0.31,0.88v1.65H120
			v-1.57c0-0.28-0.07-0.49-0.2-0.64c-0.14-0.15-0.32-0.22-0.56-0.22c-0.24,0-0.43,0.07-0.56,0.22c-0.14,0.15-0.21,0.36-0.21,0.64
			v1.57h-0.46v-3.75L118.47,34.36L118.47,34.36z"/>
		<path class="st0" d="M121.52,37.76c-0.25-0.26-0.38-0.61-0.38-1.04s0.12-0.78,0.38-1.04c0.25-0.26,0.58-0.4,0.97-0.4
			c0.34,0,0.61,0.08,0.82,0.23c0.21,0.16,0.36,0.38,0.44,0.66h-0.5c-0.05-0.16-0.15-0.29-0.28-0.38s-0.3-0.14-0.49-0.14
			c-0.26,0-0.48,0.09-0.64,0.28c-0.16,0.18-0.24,0.44-0.24,0.78c0,0.34,0.08,0.6,0.24,0.78s0.37,0.28,0.64,0.28
			c0.4,0,0.65-0.17,0.77-0.52h0.5c-0.08,0.27-0.24,0.49-0.45,0.65c-0.22,0.16-0.49,0.24-0.81,0.24
			C122.09,38.16,121.77,38.03,121.52,37.76z"/>
		<path class="st0" d="M124.69,37.75c-0.25-0.27-0.38-0.62-0.38-1.05c0-0.42,0.13-0.77,0.38-1.03s0.57-0.39,0.95-0.39
			c0.24,0,0.44,0.06,0.62,0.17c0.18,0.11,0.31,0.26,0.4,0.44v-0.56h0.47v2.79h-0.47v-0.57c-0.09,0.18-0.23,0.33-0.4,0.44
			c-0.18,0.11-0.38,0.17-0.62,0.17C125.26,38.16,124.95,38.02,124.69,37.75z M126.39,37.48c0.18-0.19,0.28-0.44,0.28-0.76
			c0-0.31-0.09-0.57-0.28-0.76s-0.41-0.28-0.66-0.28c-0.26,0-0.48,0.09-0.66,0.27c-0.18,0.18-0.28,0.43-0.28,0.75
			c0,0.31,0.09,0.57,0.28,0.77c0.19,0.2,0.41,0.3,0.66,0.3C125.99,37.76,126.21,37.67,126.39,37.48z"/>
		<path class="st0" d="M128.48,35.33v0.47c0.17-0.35,0.45-0.52,0.85-0.52v0.48h-0.12c-0.24,0-0.42,0.06-0.54,0.18
			c-0.12,0.12-0.18,0.34-0.18,0.64v1.52h-0.46v-2.79L128.48,35.33L128.48,35.33z"/>
		<path class="st0" d="M131.18,38.16c-0.4,0-0.72-0.13-0.97-0.4c-0.25-0.26-0.38-0.61-0.38-1.05c0-0.43,0.13-0.78,0.38-1.04
			c0.25-0.26,0.58-0.39,0.99-0.39s0.73,0.12,0.97,0.37c0.24,0.25,0.37,0.57,0.37,0.95c0,0.1-0.01,0.19-0.02,0.27h-2.22
			c0.01,0.28,0.1,0.5,0.26,0.66c0.16,0.16,0.37,0.24,0.62,0.24c0.19,0,0.35-0.04,0.48-0.13c0.13-0.08,0.23-0.2,0.29-0.34h0.5
			c-0.09,0.24-0.24,0.44-0.45,0.6C131.78,38.08,131.51,38.16,131.18,38.16z M131.81,35.9c-0.17-0.16-0.37-0.24-0.62-0.24
			s-0.45,0.08-0.61,0.24c-0.16,0.16-0.25,0.37-0.27,0.65h1.75C132.06,36.28,131.97,36.06,131.81,35.9z"/>
	</g>
	<g>
		<g>
			<g>
				<path class="st0" d="M27.48,35.95v4.4h-8.14V18.7h3.58v-4.56h-8.14v12.7H5.83V18.7h4.4v-4.56H5.5c-2.33,0-4.23,1.9-4.23,4.23
					v8.79c0,2.33,1.9,4.23,4.23,4.23h9.28v9.28c0,2.33,1.9,4.23,4.23,4.23h8.79c2.34,0,4.23-1.9,4.23-4.23v-4.72L27.48,35.95
					L27.48,35.95z"/>
			</g>
			<g>
				<path class="st1" d="M41.32,14.14h-9.28V4.85c0-2.33-1.9-4.23-4.23-4.23h-8.79c-2.33,0-4.23,1.9-4.23,4.23v4.72h4.56v-4.4h8.14
					v21.66H23.9v4.56h8.14v-12.7H41v8.14h-4.4v4.56h4.72c2.33,0,4.23-1.9,4.23-4.23v-8.79C45.56,16.04,43.66,14.14,41.32,14.14z"/>
			</g>
		</g>
	</g>
	<g>
		<path class="st0" d="M55.15,14.33v17.14h-4.97V14.33H55.15z"/>
		<path class="st0" d="M69.88,31.47H65.3v-9.29c0-0.95-0.26-1.42-0.79-1.42c-0.54,0-1,0.37-1.39,1.12
			c-0.39,0.75-0.59,1.63-0.59,2.66v6.93h-4.58V18.79c1.57,0,3.1-0.1,4.58-0.31v2.37c1.14-1.57,2.53-2.36,4.17-2.36
			c2.13,0,3.19,1.08,3.19,3.24L69.88,31.47L69.88,31.47z"/>
		<path class="st0" d="M79.07,18.81v1.42h-1.81v11.24h-4.58V20.23h-1.61v-1.42h1.61v-1.13c0-1.04,0.37-1.9,1.1-2.59
			c0.73-0.69,1.65-1.03,2.76-1.03c2.21,0,3.32,0.83,3.32,2.49c0,0.12,0,0.29-0.01,0.48l-2.17,0.77c0.12-0.43,0.18-0.78,0.18-1.03
			c0-0.89-0.31-1.33-0.93-1.33c-0.53,0-0.8,0.39-0.8,1.17c0,0.48,0.38,1.21,1.16,2.21L79.07,18.81L79.07,18.81z"/>
		<path class="st0" d="M80.62,31.47V18.83c1.43,0,2.96-0.11,4.58-0.34v12.98H80.62z M82.95,13.9c1.42,0,2.13,0.55,2.13,1.66
			s-0.71,1.66-2.13,1.66c-1.42,0-2.13-0.55-2.13-1.66S81.52,13.9,82.95,13.9z"/>
		<path class="st0" d="M96.9,23.41h-3.14c0.11-0.49,0.2-0.86,0.29-1.09c0.12-0.34,0.18-0.65,0.18-0.93c0-0.53-0.19-0.8-0.58-0.8
			c-0.29,0-0.57,0.35-0.84,1.06c-0.27,0.71-0.4,1.45-0.4,2.24v7.58h-4.58V18.81l0.89,0.01c1.06,0,2.29-0.11,3.69-0.34v2.08
			c0.75-1.39,1.66-2.08,2.74-2.08c1.47,0,2.21,0.81,2.21,2.44c0,0.43-0.07,0.92-0.21,1.47C97.08,22.62,97.01,22.96,96.9,23.41z"/>
		<path class="st0" d="M117.33,31.47h-4.58v-9.5c0-0.83-0.24-1.24-0.73-1.24c-1.12,0-1.68,1.19-1.68,3.58v7.17h-4.58v-9.3
			c0-0.95-0.22-1.42-0.65-1.42c-1.14,0-1.71,1.19-1.71,3.56v7.16h-4.58V18.77c1.55,0,3.08-0.1,4.58-0.31v2.19
			c1.08-1.45,2.41-2.17,3.99-2.17c1.32,0,2.31,0.68,2.95,2.05c1.02-1.38,2.3-2.07,3.83-2.07c2.11,0,3.16,1.07,3.16,3.2L117.33,31.47
			L117.33,31.47z"/>
		<path class="st0" d="M132.68,31.02c-1.12,0.43-2.21,0.65-3.28,0.65c-1.57,0-2.55-0.49-2.91-1.47c-0.76,1.02-1.86,1.53-3.29,1.53
			c-2.67,0-4.01-1.24-4.01-3.72c0-1.88,1.22-3.21,3.67-3.97c2.24-0.7,3.37-1.55,3.37-2.54c0-1.3-0.65-1.95-1.93-1.95
			c-1.49,0-2.24,0.63-2.24,1.88c0,0.39,0.12,0.91,0.35,1.56l-2.27-0.44c-0.06-0.39-0.09-0.76-0.09-1.11c0-2.01,1.83-3.01,5.5-3.01
			c3.48,0,5.22,0.94,5.22,2.81v7.68c0,0.79,0.25,1.18,0.77,1.18c0.16,0,0.39-0.09,0.7-0.26L132.68,31.02z M126.19,23.86
			c-0.29,0.33-0.62,0.6-0.99,0.82c-0.95,0.55-1.42,1.48-1.42,2.79c0,1.67,0.33,2.51,0.98,2.51c0.95,0,1.43-0.83,1.43-2.49
			L126.19,23.86L126.19,23.86z"/>
	</g>
</g>
</svg>
