<svg
    width="39"
    height="30"
    viewBox="0 0 24 25"
    fill="none"
    xmlns="http://www.w3.org/2000/svg"
  >
    <path
      d="M18.1425 25.0001C18.2022 25.0001 18.2613 24.9883 18.3165 24.9655C18.3716 24.9427 18.4217 24.9092 18.4639 24.867C18.5062 24.8248 18.5396 24.7747 18.5625 24.7195C18.5853 24.6643 18.5971 24.6052 18.5971 24.5455V9.12406C18.5956 7.30795 17.8731 5.56672 16.5884 4.28305C15.3037 2.99939 13.5619 2.27832 11.7458 2.27832C9.92968 2.27832 8.18788 2.99939 6.90317 4.28305C5.61847 5.56672 4.896 7.30795 4.89453 9.12406V24.5455C4.89453 24.6661 4.94242 24.7817 5.02767 24.867C5.11291 24.9522 5.22853 25.0001 5.34908 25.0001C5.46963 25.0001 5.58525 24.9522 5.67049 24.867C5.75574 24.7817 5.80363 24.6661 5.80363 24.5455V9.12406C5.80499 7.54899 6.43164 6.0389 7.54587 4.92564C8.66009 3.81238 10.1707 3.18704 11.7458 3.18704C13.3209 3.18704 14.8315 3.81238 15.9457 4.92564C17.0599 6.0389 17.6866 7.54899 17.688 9.12406V24.5455C17.6879 24.6052 17.6997 24.6644 17.7225 24.7195C17.7454 24.7747 17.7788 24.8248 17.8211 24.867C17.8633 24.9092 17.9134 24.9427 17.9685 24.9655C18.0237 24.9884 18.0828 25.0001 18.1425 25.0001Z"
      fill="#163DC7"
    />
    <path
      d="M11.7468 11.8089C12.9392 11.8089 13.9057 10.8424 13.9057 9.65002C13.9057 8.45767 12.9392 7.49109 11.7468 7.49109C10.5545 7.49109 9.58789 8.45767 9.58789 9.65002C9.58789 10.8424 10.5545 11.8089 11.7468 11.8089Z"
      fill="#163DC7"
    />
    <path
      d="M10.506 25.0001H12.9833C13.043 25.0003 13.1022 24.9887 13.1575 24.9659C13.2127 24.9431 13.2629 24.9096 13.3052 24.8674C13.3474 24.8251 13.3809 24.7749 13.4037 24.7197C13.4264 24.6645 13.4381 24.6053 13.4378 24.5455V20.3637C13.4382 20.3131 13.4584 20.2648 13.4941 20.229C13.5298 20.1933 13.5782 20.1731 13.6288 20.1728C13.9193 20.1726 14.1978 20.0572 14.4032 19.8517C14.6086 19.6463 14.7241 19.3678 14.7242 19.0773V14.4273C14.7241 13.9616 14.5394 13.5149 14.2105 13.1852C13.8816 12.8554 13.4354 12.6695 12.9697 12.6682H10.5242C10.058 12.6693 9.61126 12.855 9.28161 13.1847C8.95196 13.5143 8.76626 13.9611 8.76514 14.4273V19.0773C8.76534 19.2215 8.79396 19.3642 8.84937 19.4973C8.90478 19.6304 8.98588 19.7513 9.08805 19.8531C9.19021 19.9548 9.31143 20.0354 9.44477 20.0903C9.57811 20.1451 9.72095 20.1732 9.86514 20.1728C9.88992 20.173 9.91442 20.1781 9.93721 20.1879C9.96001 20.1976 9.98066 20.2118 9.99797 20.2295C10.0153 20.2472 10.0289 20.2682 10.0381 20.2912C10.0473 20.3143 10.0518 20.3389 10.0515 20.3637V24.5455C10.0518 24.6659 10.0998 24.7814 10.185 24.8665C10.2702 24.9517 10.3856 24.9997 10.506 25.0001Z"
      fill="#163DC7"
    />
    <path
      d="M3.57421e-10 8.75632C-3.53146e-06 8.84459 0.0261676 8.93087 0.075204 9.00427C0.12424 9.07766 0.19394 9.13486 0.275487 9.16864C0.357035 9.20242 0.446768 9.21126 0.53334 9.19405C0.619912 9.17683 0.699433 9.13432 0.761848 9.07191C0.824263 9.00949 0.866768 8.92997 0.883987 8.8434C0.901207 8.75683 0.892368 8.6671 0.858589 8.58555C0.824809 8.504 0.767606 8.4343 0.694214 8.38527C0.620821 8.33623 0.534535 8.31006 0.446268 8.31006C0.327912 8.31006 0.214405 8.35708 0.130714 8.44077C0.0470237 8.52446 4.73609e-06 8.63797 3.57421e-10 8.75632Z"
      fill="#163DC7"
    />
    <path
      d="M2.81996 12.0496C3.06652 12.0496 3.26639 11.8497 3.26639 11.6032C3.26639 11.3566 3.06652 11.1567 2.81996 11.1567C2.57341 11.1567 2.37354 11.3566 2.37354 11.6032C2.37354 11.8497 2.57341 12.0496 2.81996 12.0496Z"
      fill="#163DC7"
    />
    <path
      d="M2.12598 16.8595C2.12598 16.9478 2.15215 17.034 2.20119 17.1074C2.25023 17.1808 2.31993 17.238 2.40148 17.2718C2.48303 17.3056 2.57276 17.3144 2.65933 17.2972C2.74589 17.28 2.82541 17.2375 2.88783 17.1751C2.95024 17.1126 2.99274 17.0331 3.00996 16.9466C3.02718 16.86 3.01835 16.7703 2.98457 16.6887C2.95079 16.6072 2.8936 16.5375 2.82021 16.4884C2.74682 16.4394 2.66054 16.4132 2.57227 16.4132C2.51366 16.4132 2.45563 16.4247 2.40148 16.4472C2.34733 16.4696 2.29813 16.5025 2.25669 16.5439C2.21525 16.5854 2.18237 16.6346 2.15994 16.6887C2.13752 16.7429 2.12597 16.8009 2.12598 16.8595Z"
      fill="#163DC7"
    />
    <path
      d="M3.71288 4.11023C3.71288 4.02197 3.68671 3.93568 3.63767 3.86229C3.58863 3.7889 3.51894 3.7317 3.43739 3.69792C3.35584 3.66414 3.26611 3.6553 3.17954 3.67251C3.09297 3.68973 3.01345 3.73223 2.95103 3.79464C2.88862 3.85706 2.84611 3.93657 2.82889 4.02314C2.81167 4.10971 2.8205 4.19945 2.85428 4.28099C2.88805 4.36254 2.94525 4.43224 3.01864 4.48128C3.09203 4.53032 3.17831 4.5565 3.26658 4.5565C3.38494 4.5565 3.49845 4.50949 3.58215 4.4258C3.66585 4.34211 3.71287 4.2286 3.71288 4.11023Z"
      fill="#163DC7"
    />
    <path
      d="M5.94434 1.33884C5.94433 1.42711 5.9705 1.5134 6.01953 1.5868C6.06857 1.66019 6.13827 1.7174 6.21981 1.75118C6.30136 1.78497 6.3911 1.79381 6.47767 1.7766C6.56425 1.75938 6.64377 1.71688 6.70619 1.65447C6.76861 1.59206 6.81112 1.51254 6.82835 1.42597C6.84557 1.33939 6.83674 1.24966 6.80296 1.16811C6.76919 1.08655 6.71199 1.01685 6.6386 0.967805C6.56521 0.918762 6.47892 0.892583 6.39065 0.892578C6.27229 0.892572 6.15877 0.939585 6.07507 1.02328C5.99137 1.10697 5.94434 1.22048 5.94434 1.33884Z"
      fill="#163DC7"
    />
    <path
      d="M13.4507 0.892588C13.4507 0.804321 13.4245 0.718035 13.3755 0.644642C13.3264 0.571248 13.2567 0.514045 13.1752 0.480264C13.0936 0.446484 13.0039 0.437644 12.9173 0.454863C12.8308 0.472082 12.7512 0.514586 12.6888 0.577001C12.6264 0.639415 12.5839 0.718936 12.5667 0.805507C12.5495 0.892078 12.5583 0.981812 12.5921 1.06336C12.6259 1.14491 12.6831 1.21461 12.7565 1.26365C12.8298 1.31268 12.9161 1.33885 13.0044 1.33885C13.1228 1.33885 13.2363 1.29183 13.32 1.20814C13.4036 1.12445 13.4507 1.01094 13.4507 0.892588Z"
      fill="#163DC7"
    />
    <path
      d="M18.6387 2.72727C18.6387 2.81554 18.6648 2.90182 18.7139 2.97521C18.7629 3.0486 18.8326 3.10581 18.9142 3.13959C18.9957 3.17337 19.0854 3.1822 19.172 3.16499C19.2586 3.14777 19.3381 3.10526 19.4005 3.04285C19.4629 2.98043 19.5054 2.90091 19.5227 2.81434C19.5399 2.72777 19.531 2.63804 19.4973 2.55649C19.4635 2.47495 19.4063 2.40525 19.3329 2.35621C19.2595 2.30718 19.1732 2.281 19.0849 2.28101C18.9666 2.28101 18.8531 2.32803 18.7694 2.41172C18.6857 2.49541 18.6387 2.60891 18.6387 2.72727Z"
      fill="#163DC7"
    />
    <path
      d="M22.0107 6.69421C21.9225 6.69421 21.8362 6.72039 21.7628 6.76943C21.6894 6.81847 21.6322 6.88817 21.5984 6.96972C21.5646 7.05128 21.5558 7.14101 21.573 7.22758C21.5903 7.31415 21.6328 7.39368 21.6952 7.45609C21.7576 7.5185 21.8371 7.561 21.9237 7.57822C22.0103 7.59544 22.1 7.5866 22.1815 7.55281C22.2631 7.51903 22.3328 7.46182 22.3818 7.38843C22.4309 7.31503 22.457 7.22875 22.457 7.14048C22.457 7.08187 22.4455 7.02384 22.4231 6.96969C22.4006 6.91555 22.3678 6.86635 22.3263 6.82491C22.2849 6.78347 22.2357 6.7506 22.1815 6.72818C22.1274 6.70575 22.0693 6.69421 22.0107 6.69421Z"
      fill="#163DC7"
    />
    <path
      d="M20.8701 16.8595C20.9584 16.8595 21.0446 16.8333 21.118 16.7843C21.1914 16.7352 21.2486 16.6655 21.2824 16.584C21.3162 16.5025 21.325 16.4127 21.3078 16.3261C21.2906 16.2396 21.2481 16.1601 21.1857 16.0976C21.1233 16.0352 21.0438 15.9927 20.9572 15.9755C20.8706 15.9583 20.7809 15.9671 20.6993 16.0009C20.6178 16.0347 20.5481 16.0919 20.499 16.1652C20.45 16.2386 20.4238 16.3249 20.4238 16.4132C20.4238 16.4718 20.4354 16.5298 20.4578 16.584C20.4802 16.6381 20.5131 16.6873 20.5545 16.7288C20.596 16.7702 20.6452 16.8031 20.6993 16.8255C20.7535 16.8479 20.8115 16.8595 20.8701 16.8595Z"
      fill="#163DC7"
    />
    <path
      d="M21.1176 12.0495C21.1176 11.9613 21.0915 11.875 21.0424 11.8016C20.9934 11.7282 20.9237 11.671 20.8421 11.6372C20.7606 11.6035 20.6709 11.5946 20.5843 11.6118C20.4977 11.6291 20.4182 11.6716 20.3558 11.734C20.2934 11.7964 20.2509 11.8759 20.2337 11.9625C20.2165 12.049 20.2253 12.1388 20.2591 12.2203C20.2928 12.3019 20.35 12.3716 20.4234 12.4206C20.4968 12.4696 20.5831 12.4958 20.6714 12.4958C20.73 12.4958 20.788 12.4843 20.8421 12.4618C20.8963 12.4394 20.9455 12.4065 20.9869 12.3651C21.0284 12.3237 21.0612 12.2745 21.0837 12.2203C21.1061 12.1662 21.1176 12.1081 21.1176 12.0495Z"
      fill="#163DC7"
    />
    <path
      d="M1.33884 0.892562C1.42711 0.892566 1.51339 0.866395 1.58679 0.81736C1.66018 0.768325 1.71738 0.698627 1.75116 0.617081C1.78494 0.535535 1.79378 0.445803 1.77657 0.359232C1.75935 0.272661 1.71685 0.19314 1.65444 0.130724C1.59203 0.0683081 1.51251 0.0258012 1.42594 0.00857834C1.33937 -0.00864446 1.24964 0.000190276 1.16809 0.0339656C1.08654 0.067741 1.01684 0.12494 0.967798 0.198329C0.918757 0.271718 0.892581 0.358002 0.892578 0.446268C0.892577 0.564627 0.939592 0.67814 1.02328 0.761836C1.10697 0.845532 1.22048 0.892555 1.33884 0.892562Z"
      fill="#163DC7"
    />
    <path
      d="M23.1011 0.446263C23.1011 0.53453 23.1272 0.620815 23.1763 0.694208C23.2253 0.767601 23.295 0.824804 23.3766 0.858585C23.4581 0.892366 23.5478 0.901207 23.6344 0.88399C23.721 0.866773 23.8005 0.824271 23.8629 0.761859C23.9253 0.699447 23.9678 0.619929 23.9851 0.533359C24.0023 0.446789 23.9934 0.357056 23.9597 0.275507C23.9259 0.193959 23.8687 0.124257 23.7953 0.0752174C23.7219 0.0261776 23.6356 1.76601e-06 23.5474 0C23.429 -1.1841e-06 23.3155 0.0470146 23.2318 0.130705C23.1481 0.214395 23.1011 0.327904 23.1011 0.446263Z"
      fill="#163DC7"
    />
  </svg>