<svg width="1440" height="1024" viewBox="0 0 1440 1024" fill="none" xmlns="http://www.w3.org/2000/svg">
<rect width="1440" height="1024" fill="#F5F5F5"/>
<g clip-path="url(#clip0_0_1)">
<rect width="1440" height="1024" fill="#0F4674"/>
<g opacity="0.5">
<path opacity="0.49" d="M408.398 943.627H82.6211L82.4745 943.393L-80.2821 661.487L-80.1355 661.252L82.6211 379.346H408.398L408.545 379.58L571.302 661.487L571.155 661.721L408.398 943.627ZM83.1783 942.66H407.841L570.187 661.487L407.841 380.314H83.1783L-79.1677 661.487L83.1783 942.66Z" fill="white"/>
<path opacity="0.49" d="M654.029 723.305H328.252L328.105 723.07L165.349 441.164L165.495 440.929L328.252 159.023H654.029L654.176 159.258L816.932 441.164L816.786 441.399L654.029 723.305ZM328.78 722.337H653.442L815.789 441.164L653.442 159.991H328.78L166.434 441.164L328.78 722.337Z" fill="white"/>
</g>
<g opacity="0.5">
<path opacity="0.52" d="M1482.86 415.182H1157.08L1156.93 414.947L994.175 133.041L994.322 132.806L1157.08 -149.1H1482.86L1483 -148.865L1645.76 133.041L1645.61 133.275L1482.86 415.182ZM1157.64 414.214H1482.3L1644.64 133.041L1482.3 -148.132H1157.64L995.29 133.041L1157.64 414.214Z" fill="white"/>
</g>
<g opacity="0.15">
<path d="M1192.97 513.686H867.724L705.114 795.328L867.724 1077H1192.97L1355.58 795.328L1192.97 513.686Z" fill="white"/>
</g>
<g opacity="0.1">
<path d="M1414.41 144.038H1089.16L926.551 425.68L1089.16 707.352H1414.41L1577.02 425.68L1414.41 144.038Z" fill="white"/>
</g>
<g opacity="0.13">
<path d="M290.891 -71.5927H-34.329L-196.968 210.079L-34.329 491.721H290.891L453.501 210.079L290.891 -71.5927Z" fill="white"/>
</g>
<path d="M877.833 485.02V483.833C877.833 480.612 875.222 478 872 478C868.778 478 866.167 480.612 866.167 483.833V485.02C864.65 485.682 863.669 487.179 863.667 488.833V493.833C863.669 496.133 865.533 497.997 867.833 498H876.167C878.467 497.997 880.331 496.133 880.333 493.833V488.833C880.331 487.179 879.35 485.682 877.833 485.02ZM872.833 492.167C872.833 492.627 872.46 493 872 493C871.54 493 871.167 492.627 871.167 492.167V490.5C871.167 490.04 871.54 489.667 872 489.667C872.46 489.667 872.833 490.04 872.833 490.5V492.167ZM876.167 484.667H867.833V483.833C867.833 481.532 869.699 479.667 872 479.667C874.301 479.667 876.167 481.532 876.167 483.833V484.667Z" fill="#0F4674"/>
</g>
<defs>
<clipPath id="clip0_0_1">
<rect width="1440" height="1024" fill="white"/>
</clipPath>
</defs>
</svg>
