<svg xmlns="http://www.w3.org/2000/svg" width="96.389" height="96.389" viewBox="0 0 96.389 96.389">
  <g id="Group_687" data-name="Group 687" transform="translate(6567 -17547)">
    <path id="Path_1483" data-name="Path 1483" d="M17.189,0H79.2A17.189,17.189,0,0,1,96.389,17.189V79.2A17.189,17.189,0,0,1,79.2,96.389H17.189A17.189,17.189,0,0,1,0,79.2V17.189A17.189,17.189,0,0,1,17.189,0Z" transform="translate(-6567 17547)" fill="#fff"/>
    <path id="Path_1481" data-name="Path 1481" d="M13.61,0H27.22V13.61A13.61,13.61,0,1,1,13.61,0Z" transform="translate(-6538.054 17572.738) rotate(45)" fill="#2659B6"/>
    <path id="Path_1480" data-name="Path 1480" d="M13.61,0A13.61,13.61,0,0,1,27.22,13.61V49.086a5.353,5.353,0,0,1-5.353,5.353H0V13.61A13.61,13.61,0,0,1,13.61,0Z" transform="translate(-6499.56 17572.738) rotate(45)" fill="#2659B6"/>
    <path id="Path_1482" data-name="Path 1482" d="M9.073,0A9.073,9.073,0,1,1,0,9.073,9.073,9.073,0,0,1,9.073,0Z" transform="translate(-6518.808 17559.877) rotate(45)" fill="#2659B6"/>
  </g>
</svg>
