<svg width="12" height="29" viewBox="0 0 12 29" fill="none" xmlns="http://www.w3.org/2000/svg">
	<path d="M9.35608 7.62799C9.35161 7.63246 9.34666 7.63644 9.34213 7.64042C9.08539 7.88675 8.80026 8.10216 8.49277 8.2858C7.78471 8.70873 6.95972 8.95653 6.0745 8.95653C5.09874 8.95653 4.19215 8.6605 3.43927 8.15395C3.21339 8.00171 3.00337 7.82853 2.80736 7.64042C2.80191 7.63497 2.79591 7.63044 2.79046 7.62499C2.77204 7.62401 2.7601 7.61703 2.74069 7.61703C1.77687 7.61703 0 9.08092 0 10.5443V19.3118C0 20.1039 0.781218 20.7463 1.74553 20.7463C1.79481 20.7463 1.84109 20.7379 1.88932 20.7344C1.8903 20.818 1.89979 20.8996 1.91418 20.9792C1.90022 21.0548 1.8873 21.1309 1.8873 21.2101V27.2428C1.8873 28.0673 2.65903 28.7356 3.61147 28.7356H3.8682C4.82058 28.7356 5.59231 28.0673 5.59231 27.2428V22.2048H6.5576V27.3672C6.5576 28.1917 7.31942 28.86 8.25937 28.86H8.51261C9.45256 28.86 10.2144 28.1917 10.2144 27.3672V21.334C10.2144 21.2683 10.2019 21.2056 10.1925 21.1419C10.2313 21.0145 10.2572 20.8817 10.2596 20.7423C11.207 20.7264 11.9698 20.093 11.9698 19.3108V10.5439C11.9704 9.14164 10.3403 7.74246 9.35608 7.62799Z" fill="#02B0F0" />
	<path d="M3.43179 7.52602C4.15675 8.10817 5.07534 8.45899 6.07497 8.45899C7.07509 8.45899 7.99367 8.10817 8.71815 7.52602C9.68399 6.75031 10.3045 5.56152 10.3045 4.22949C10.3045 1.89728 8.40712 0 6.07497 0C3.74282 0 1.84547 1.89728 1.84547 4.22949C1.84547 5.56152 2.46594 6.75024 3.43179 7.52602Z" fill="#02B0F0" />
</svg>
