<svg width="350" height="82" viewBox="0 0 350 82" fill="none" xmlns="http://www.w3.org/2000/svg">
<path d="M46.613 57.2494C48.4418 56.8863 49.7029 56.1006 50.3829 54.8924C51.063 53.6907 51.4063 52.0401 51.4063 49.9472V33.5336C51.4591 28.4035 50.1981 24.8977 47.6363 23.0094C45.068 21.1277 42.4931 21.1541 39.8983 23.0886C37.3036 25.0231 35.9831 28.0866 35.9303 32.2792V49.9472C35.9303 51.3073 36.0491 52.4363 36.2868 53.321C36.5245 54.2123 37.0065 55.0244 37.7393 55.7573C38.4722 56.4902 39.4692 56.9853 40.7236 57.2494H22.2699C24.1516 56.8863 25.4259 56.1006 26.0795 54.8924C26.7331 53.6907 27.0633 52.0401 27.0633 49.9472V30.1598C27.0633 28.0668 26.7331 26.4162 26.0795 25.2146C25.4259 24.0129 24.1582 23.2273 22.2699 22.8575C27.0831 22.8047 31.6387 21.7087 35.9369 19.5563V25.4457C36.9867 23.564 38.3468 22.0454 40.0238 20.89C41.7008 19.7412 43.424 19.0347 45.2067 18.7706C46.9827 18.5065 48.7786 18.665 50.5876 19.2394C52.3967 19.8138 54.0011 20.7316 55.414 21.986C56.8269 23.2405 57.9889 24.9439 58.9066 27.0897C59.8244 29.2354 60.2799 31.6189 60.2799 34.2335V49.9406C60.2799 52.0335 60.6035 53.6841 61.2637 54.8858C61.9173 56.094 63.185 56.8731 65.0733 57.2428H46.6196L46.613 57.2494Z" fill="#0F4674"/>
<path d="M203.922 50.8847C205.599 52.872 207.494 54.2652 209.613 55.0442C211.732 55.8233 213.852 55.8563 215.971 55.1235C218.091 54.3906 219.886 52.8721 221.352 50.5678C219.418 55.5922 215.047 58.1078 208.24 58.1078C202.898 58.1078 198.607 56.1997 195.359 52.3769C192.11 48.5541 190.512 43.9192 190.565 38.4788C190.565 35.0786 191.192 31.9094 192.447 28.9779C193.701 26.0465 195.708 23.597 198.455 21.6361C201.202 19.6752 204.463 18.6914 208.233 18.6914C214.987 18.6914 219.332 21.3588 221.266 26.7001L211.29 40.5982L203.909 50.8847H203.922ZM208.24 20.3354C206.041 20.3354 204.232 21.504 202.819 23.8281C201.406 26.1587 200.515 28.8921 200.152 32.0349C199.782 35.1776 199.835 38.393 200.31 41.6942C200.779 44.9954 201.644 47.5835 202.898 49.4718L210.201 39.2645C211.402 37.5875 212.228 35.6134 212.677 33.3355C213.119 31.0577 213.185 28.9779 212.875 27.0897C212.564 25.208 211.983 23.6102 211.145 22.2963C210.306 20.989 209.336 20.3354 208.24 20.3354Z" fill="#0F4674"/>
<path d="M253.09 49.9406C253.09 52.0335 253.433 53.6841 254.113 54.8858C254.793 56.094 256.048 56.8731 257.883 57.2428C254.166 58.2398 251.182 58.3454 248.93 57.5597C246.679 56.774 245.24 55.2555 244.612 53.0041C243.51 54.4698 241.971 55.6846 239.978 56.6552C237.99 57.6258 236.049 58.1077 234.167 58.1077C232.702 58.1077 231.342 57.8832 230.087 57.4409C228.833 56.9985 227.783 56.4109 226.944 55.6714C226.106 54.9386 225.373 54.0869 224.746 53.1163C224.119 52.1458 223.696 51.1026 223.491 49.9736C223.28 48.8512 223.214 47.6957 223.293 46.5205C223.372 45.3453 223.683 44.1502 224.237 42.9486C224.785 41.747 225.479 40.618 226.317 39.5748C227.156 38.525 228.252 37.561 229.618 36.6697C230.978 35.7784 232.497 35.0455 234.174 34.4711C234.332 34.4183 234.564 34.3391 234.88 34.2334C236.135 33.8175 237.158 33.461 237.944 33.1705C238.73 32.8865 239.687 32.464 240.809 31.916C241.932 31.368 242.784 30.7672 243.365 30.1069C243.939 29.4533 244.229 28.7865 244.229 28.1064C244.229 26.6407 243.668 25.4126 242.539 24.4157C241.41 23.4187 240.05 22.8047 238.452 22.567C236.855 22.3293 235.098 22.5538 233.19 23.2338C231.276 23.9139 229.618 25.0429 228.205 26.6077C228.833 25.5645 229.552 24.6071 230.364 23.7422C231.177 22.8773 232.015 22.1312 232.88 21.504C233.745 20.8768 234.656 20.3552 235.627 19.9326C236.597 19.5167 237.521 19.1998 238.413 18.9885C239.304 18.7772 240.195 18.6716 241.08 18.6716C243.748 18.6716 245.986 19.2856 247.795 20.5202C249.604 21.7483 250.938 23.5045 251.802 25.7824C252.667 28.0602 253.097 30.8464 253.097 34.1476V49.934L253.09 49.9406ZM244.216 51.3535V32.0348C238.036 34.8607 234.266 38.7363 232.906 43.6551C231.909 47.2138 232.332 50.1452 234.161 52.4495C235.943 54.6481 238.142 55.1432 240.757 53.9416C241.958 53.42 243.114 52.5551 244.21 51.3535H244.216Z" fill="#0F4674"/>
<path d="M260.188 57.2494C262.069 56.8863 263.343 56.1006 263.997 54.8924C264.651 53.6908 264.981 52.0401 264.981 49.9472V10.6035C264.981 8.56332 264.638 6.92592 263.957 5.69787C263.277 4.46983 262.023 3.67094 260.188 3.3012C265.001 3.24838 269.556 2.15238 273.854 0V49.9472C273.854 52.0401 274.191 53.6908 274.878 54.8924C275.558 56.1006 276.812 56.8797 278.648 57.2494H260.194H260.188Z" fill="#0F4674"/>
<path d="M291.905 43.2655C291.905 48.5012 293.068 52.2316 295.398 54.4566C297.729 56.6816 300.832 56.6684 304.701 54.417C302.766 56.2987 300.528 57.4541 297.986 57.8701C295.444 58.286 293.081 58.0021 290.882 57.0051C288.684 56.0082 286.822 54.2321 285.303 51.6638C283.785 49.1021 283.025 46.0386 283.025 42.4733V26.7661C283.025 24.726 282.682 23.0886 282.002 21.8606C281.322 20.6325 280.067 19.86 278.232 19.5431C280.378 19.4903 282.431 19.114 284.399 18.4075C286.366 17.701 288.01 16.7437 289.344 15.5421C290.677 14.3404 291.529 13.0067 291.899 11.5344V19.5431H298.105V21.1937H291.899V43.2589L291.905 43.2655Z" fill="#0F4674"/>
<path d="M329.09 57.2494C330.926 56.8863 332.18 56.1006 332.86 54.8924C333.54 53.6908 333.884 52.0401 333.884 49.9472V33.5336C333.936 28.4035 332.675 24.8977 330.114 23.0094C327.545 21.1277 324.97 21.1541 322.376 23.0886C319.781 25.0231 318.46 28.0866 318.408 32.2792V49.9472C318.408 52.0401 318.731 53.6908 319.391 54.8924C320.045 56.1006 321.313 56.8797 323.201 57.2494H304.747C306.002 56.9853 306.999 56.4902 307.731 55.7573C308.464 55.0244 308.946 54.2123 309.184 53.321C309.422 52.4297 309.54 51.3073 309.54 49.9472V10.6035C309.54 8.56332 309.197 6.92592 308.517 5.69787C307.837 4.46983 306.583 3.67094 304.747 3.3012C309.56 3.24838 314.116 2.15238 318.414 0V25.4457C319.457 23.564 320.824 22.0454 322.494 20.89C324.171 19.7412 325.895 19.0347 327.677 18.7706C329.46 18.5065 331.249 18.665 333.058 19.2394C334.867 19.8138 336.472 20.7315 337.891 21.986C339.304 23.2405 340.466 24.9439 341.384 27.0897C342.302 29.2354 342.757 31.6189 342.757 34.2335V49.9406C342.757 52.0335 343.081 53.6842 343.741 54.8858C344.395 56.094 345.662 56.8731 347.551 57.2428H329.097L329.09 57.2494Z" fill="#0F4674"/>
<path d="M0 65.7005H347.286" stroke="#0F4774" stroke-miterlimit="10"/>
<path d="M2.68057 81.6321H1.44592V72.7123H2.68057V81.6321Z" fill="#0F4674"/>
<path d="M8.24639 75.0033L8.28601 75.8352C8.8208 75.2014 9.51405 74.8779 10.3724 74.8779C11.8447 74.8779 12.5842 75.6702 12.5974 77.2481V81.6255H11.4089V77.2415C11.4089 76.7662 11.2901 76.4096 11.0656 76.1785C10.8411 75.9475 10.4912 75.8352 10.0158 75.8352C9.63289 75.8352 9.28957 75.9343 8.99907 76.1323C8.70856 76.3304 8.47747 76.5879 8.31902 76.9048V81.6255H7.13058V74.9967H8.25299L8.24639 75.0033Z" fill="#0F4674"/>
<path d="M17.8859 75.0033L17.9255 75.8352C18.4603 75.2014 19.1536 74.8779 20.0119 74.8779C21.4842 74.8779 22.2237 75.6702 22.2369 77.2481V81.6255H21.0485V77.2415C21.0485 76.7662 20.9296 76.4096 20.7051 76.1785C20.4806 75.9475 20.1307 75.8352 19.6553 75.8352C19.2724 75.8352 18.9291 75.9343 18.6386 76.1323C18.3481 76.3304 18.117 76.5879 17.9585 76.9048V81.6255H16.7701V74.9967H17.8925L17.8859 75.0033Z" fill="#0F4674"/>
<path d="M26.0795 78.2583C26.0795 77.6113 26.2115 77.0236 26.4822 76.5087C26.7529 75.9871 27.1227 75.5909 27.6047 75.307C28.08 75.0231 28.628 74.8845 29.242 74.8845C30.1928 74.8845 30.9587 75.1948 31.5397 75.822C32.1273 76.4492 32.4178 77.2811 32.4178 78.3177V78.3969C32.4178 79.044 32.2858 79.6184 32.0283 80.1334C31.7708 80.6484 31.401 81.0445 30.9125 81.3284C30.4239 81.6123 29.8759 81.7576 29.2487 81.7576C28.3045 81.7576 27.5386 81.4473 26.9576 80.82C26.37 80.1928 26.0795 79.3675 26.0795 78.3375V78.2583ZM27.2811 78.3904C27.2811 79.1232 27.4594 79.7174 27.8159 80.1598C28.1725 80.6022 28.6544 80.8266 29.2553 80.8266C29.8561 80.8266 30.338 80.6022 30.6946 80.1466C31.0511 79.6976 31.2294 79.0638 31.2294 78.2517C31.2294 77.5254 31.0511 76.9378 30.688 76.4823C30.3248 76.0333 29.8429 75.8022 29.242 75.8022C28.6412 75.8022 28.1791 76.0267 27.8225 76.469C27.4594 76.9114 27.2811 77.5518 27.2811 78.3771V78.3904Z" fill="#0F4674"/>
<path d="M38.4788 80.0938L40.202 75.0033H41.4169L38.9212 81.6321H38.0167L35.4945 75.0033H36.7094L38.4788 80.0938Z" fill="#0F4674"/>
<path d="M49.1351 81.6321C49.0691 81.5001 49.0096 81.269 48.97 80.9323C48.4154 81.4803 47.7552 81.751 46.9893 81.751C46.3027 81.751 45.7415 81.5661 45.2991 81.1964C44.8567 80.8266 44.6389 80.3579 44.6389 79.7901C44.6389 79.1034 44.9162 78.562 45.4642 78.1791C46.0122 77.7961 46.7912 77.6047 47.7882 77.6047H48.9436V77.0831C48.9436 76.6869 48.8182 76.37 48.5739 76.1389C48.323 75.9012 47.9599 75.789 47.4713 75.789C47.0487 75.789 46.6922 75.8946 46.4017 76.0927C46.1112 76.2974 45.9725 76.5417 45.9725 76.8322H44.7775C44.7775 76.5021 44.9029 76.1851 45.1472 75.8748C45.3915 75.5645 45.7283 75.3202 46.1508 75.142C46.5734 74.9637 47.0355 74.8713 47.5439 74.8713C48.3428 74.8713 48.9766 75.0627 49.4256 75.4457C49.8812 75.8286 50.1188 76.3568 50.1321 77.0236V80.074C50.1321 80.6814 50.2113 81.17 50.3763 81.5265V81.6255H49.1285L49.1351 81.6321ZM47.161 80.7672C47.5307 80.7672 47.8872 80.6748 48.224 80.4899C48.5607 80.305 48.7984 80.0674 48.9502 79.7769V78.4167H48.0193C46.5602 78.4167 45.8339 78.8261 45.8339 79.6382C45.8339 79.9947 45.9593 80.272 46.2036 80.4701C46.4545 80.6682 46.7714 80.7672 47.161 80.7672Z" fill="#0F4674"/>
<path d="M55.9884 73.3989V75.0033H57.2891V75.8814H55.9884V79.9947C55.9884 80.2588 56.0478 80.4569 56.16 80.5955C56.2723 80.7342 56.4704 80.7936 56.7543 80.7936C56.8929 80.7936 57.0778 80.7672 57.3221 80.721V81.6321C57.0118 81.7114 56.7014 81.751 56.4109 81.751C55.8761 81.751 55.48 81.5991 55.2093 81.2888C54.9386 80.9851 54.8066 80.5493 54.8066 79.9815V75.8748H53.5389V74.9967H54.8066V73.3923H55.995L55.9884 73.3989Z" fill="#0F4674"/>
<path d="M61.0524 73.2471C61.0524 73.0622 61.1119 72.9104 61.2307 72.7783C61.3495 72.6529 61.5212 72.5868 61.7523 72.5868C61.9834 72.5868 62.1616 72.6529 62.2805 72.7783C62.3993 72.9038 62.4587 73.0622 62.4587 73.2471C62.4587 73.4319 62.3993 73.5838 62.2805 73.7093C62.1616 73.8347 61.9834 73.8941 61.7523 73.8941C61.5212 73.8941 61.3429 73.8347 61.2307 73.7093C61.1185 73.5838 61.0524 73.4319 61.0524 73.2471ZM62.3399 81.6321H61.1515V75.0033H62.3399V81.6321Z" fill="#0F4674"/>
<path d="M68.9093 80.0938L70.6325 75.0033H71.8474L69.3516 81.6321H68.4471L65.925 75.0033H67.1398L68.9093 80.0938Z" fill="#0F4674"/>
<path d="M78.1724 81.7576C77.2283 81.7576 76.4624 81.4605 75.8682 80.8729C75.274 80.2852 74.9835 79.4929 74.9835 78.5092V78.2979C74.9835 77.6377 75.1155 77.0567 75.3796 76.5351C75.6437 76.0201 76.0135 75.6173 76.4888 75.3202C76.9642 75.0297 77.4792 74.8845 78.0272 74.8845C78.9317 74.8845 79.6382 75.1684 80.14 75.7362C80.6418 76.304 80.8926 77.1161 80.8926 78.1725V78.6412H76.1785C76.1983 79.2949 76.3964 79.8231 76.7793 80.2258C77.1623 80.6286 77.6509 80.8266 78.2451 80.8266C78.6676 80.8266 79.0242 80.7474 79.3147 80.5823C79.6052 80.4173 79.8627 80.1994 80.0805 79.9353L80.8068 80.4767C80.2258 81.3284 79.3477 81.7576 78.1857 81.7576H78.1724ZM78.0206 75.8154C77.5386 75.8154 77.1359 75.9805 76.8124 76.3172C76.4888 76.6473 76.2842 77.1161 76.2049 77.7169H79.691V77.6311C79.658 77.0567 79.4929 76.6077 79.2024 76.2908C78.9119 75.9739 78.5158 75.8154 78.0206 75.8154Z" fill="#0F4674"/>
<path d="M93.2061 77.6575C92.1497 77.367 91.3773 77.0105 90.8953 76.5879C90.4133 76.1653 90.169 75.6438 90.169 75.0231C90.169 74.3233 90.4661 73.7423 91.0538 73.2801C91.6414 72.8179 92.4072 72.5934 93.3514 72.5934C93.9918 72.5934 94.5662 72.7123 95.0746 72.95C95.5764 73.1877 95.9659 73.5112 96.2432 73.9271C96.5205 74.3431 96.6592 74.7986 96.6592 75.2938H95.4179C95.4179 74.7524 95.2397 74.3299 94.8765 74.0196C94.5134 73.7093 94.005 73.5574 93.3514 73.5574C92.744 73.5574 92.2686 73.6828 91.9253 73.9403C91.5819 74.1978 91.4169 74.5478 91.4169 75.0033C91.4169 75.3665 91.5819 75.6768 91.9055 75.9277C92.229 76.1786 92.7836 76.4096 93.5561 76.6209C94.3351 76.8322 94.9426 77.0567 95.3849 77.3076C95.8273 77.5585 96.1508 77.849 96.3621 78.1857C96.5734 78.5224 96.679 78.9119 96.679 79.3675C96.679 80.0872 96.3819 80.6682 95.7943 81.1039C95.2001 81.5397 94.4144 81.7576 93.424 81.7576C92.7836 81.7576 92.1828 81.6387 91.6216 81.4076C91.067 81.17 90.6312 80.8531 90.3341 80.4437C90.0304 80.0344 89.8785 79.5722 89.8785 79.0506H91.1198C91.1198 79.592 91.3311 80.0145 91.747 80.3249C92.163 80.6352 92.7242 80.7936 93.424 80.7936C94.0777 80.7936 94.5728 80.6682 94.9228 80.4173C95.2727 80.1664 95.4443 79.8165 95.4443 79.3807C95.4443 78.945 95.2859 78.6082 94.9624 78.3639C94.6389 78.1263 94.0578 77.8886 93.2127 77.6575H93.2061Z" fill="#0F4674"/>
<path d="M100.132 78.2583C100.132 77.6113 100.264 77.0236 100.535 76.5087C100.805 75.9871 101.175 75.5909 101.657 75.307C102.133 75.0231 102.681 74.8845 103.295 74.8845C104.245 74.8845 105.011 75.1948 105.592 75.822C106.18 76.4492 106.47 77.2811 106.47 78.3177V78.3969C106.47 79.044 106.338 79.6184 106.081 80.1334C105.823 80.6484 105.447 81.0445 104.965 81.3284C104.483 81.6123 103.928 81.7576 103.301 81.7576C102.357 81.7576 101.591 81.4473 101.01 80.82C100.423 80.1928 100.132 79.3675 100.132 78.3375V78.2583ZM101.327 78.3904C101.327 79.1232 101.505 79.7174 101.862 80.1598C102.218 80.6022 102.7 80.8266 103.301 80.8266C103.902 80.8266 104.384 80.6022 104.741 80.1466C105.097 79.691 105.275 79.0638 105.275 78.2517C105.275 77.5254 105.097 76.9378 104.734 76.4823C104.371 76.0267 103.889 75.8022 103.288 75.8022C102.687 75.8022 102.225 76.0267 101.868 76.469C101.505 76.9114 101.327 77.5518 101.327 78.3771V78.3904Z" fill="#0F4674"/>
<path d="M111.627 81.6321H110.438V72.2237H111.627V81.6321Z" fill="#0F4674"/>
<path d="M120.197 80.9785C119.735 81.5001 119.055 81.7576 118.157 81.7576C117.417 81.7576 116.849 81.5529 116.46 81.1435C116.07 80.7342 115.879 80.1268 115.872 79.3213V75.0099H117.061V79.2949C117.061 80.2984 117.49 80.8002 118.348 80.8002C119.259 80.8002 119.86 80.4767 120.164 79.8363V75.0165H121.352V81.6453H120.223L120.197 80.9917V80.9785Z" fill="#0F4674"/>
<path d="M127.142 73.3989V75.0033H128.443V75.8814H127.142V79.9947C127.142 80.2588 127.202 80.4569 127.314 80.5955C127.426 80.7276 127.624 80.7936 127.908 80.7936C128.047 80.7936 128.232 80.7672 128.476 80.721V81.6321C128.166 81.7114 127.856 81.751 127.565 81.751C127.03 81.751 126.634 81.5991 126.363 81.2888C126.093 80.9851 125.961 80.5493 125.961 79.9815V75.8748H124.693V74.9967H125.961V73.3923H127.149L127.142 73.3989Z" fill="#0F4674"/>
<path d="M132.213 73.2471C132.213 73.0622 132.273 72.9104 132.391 72.7783C132.51 72.6529 132.682 72.5868 132.913 72.5868C133.144 72.5868 133.322 72.6529 133.441 72.7783C133.56 72.9038 133.619 73.0622 133.619 73.2471C133.619 73.4319 133.56 73.5838 133.441 73.7093C133.322 73.8347 133.144 73.8941 132.913 73.8941C132.682 73.8941 132.504 73.8347 132.391 73.7093C132.279 73.5838 132.213 73.4319 132.213 73.2471ZM133.501 81.6321H132.312V75.0033H133.501V81.6321Z" fill="#0F4674"/>
<path d="M137.455 78.2583C137.455 77.6113 137.587 77.0236 137.858 76.5087C138.129 75.9871 138.499 75.5909 138.981 75.307C139.456 75.0231 140.004 74.8845 140.618 74.8845C141.569 74.8845 142.335 75.1948 142.916 75.822C143.503 76.4492 143.794 77.2811 143.794 78.3177V78.3969C143.794 79.044 143.662 79.6184 143.404 80.1334C143.147 80.6484 142.77 81.0445 142.288 81.3284C141.806 81.6123 141.252 81.7576 140.625 81.7576C139.68 81.7576 138.915 81.4473 138.334 80.82C137.746 80.1928 137.455 79.3675 137.455 78.3375V78.2583ZM138.65 78.3904C138.65 79.1232 138.829 79.7174 139.185 80.1598C139.542 80.6022 140.024 80.8266 140.625 80.8266C141.225 80.8266 141.707 80.6022 142.064 80.1466C142.42 79.691 142.599 79.0638 142.599 78.2517C142.599 77.5254 142.42 76.9378 142.057 76.4823C141.694 76.0267 141.212 75.8022 140.611 75.8022C140.011 75.8022 139.548 76.0267 139.192 76.469C138.829 76.9114 138.65 77.5518 138.65 78.3771V78.3904Z" fill="#0F4674"/>
<path d="M148.779 75.0033L148.818 75.8352C149.346 75.2014 150.046 74.8779 150.905 74.8779C152.377 74.8779 153.116 75.6702 153.13 77.2481V81.6255H151.941V77.2415C151.941 76.7662 151.822 76.4096 151.598 76.1785C151.373 75.9475 151.023 75.8352 150.548 75.8352C150.165 75.8352 149.822 75.9343 149.531 76.1323C149.241 76.3304 149.01 76.5879 148.851 76.9048V81.6255H147.663V74.9967H148.792L148.779 75.0033Z" fill="#0F4674"/>
<path d="M161.35 79.8759C161.35 79.5722 161.231 79.3345 160.986 79.1628C160.742 78.9912 160.32 78.8459 159.719 78.7271C159.118 78.6082 158.636 78.4564 158.286 78.2847C157.929 78.113 157.672 77.9084 157.5 77.6707C157.329 77.433 157.249 77.1491 157.249 76.8256C157.249 76.2842 157.494 75.822 157.976 75.4457C158.458 75.0693 159.072 74.8845 159.824 74.8845C160.61 74.8845 161.251 75.0759 161.746 75.4655C162.234 75.855 162.485 76.3502 162.485 76.951H161.29C161.29 76.6407 161.151 76.37 160.874 76.1521C160.597 75.9277 160.247 75.8154 159.831 75.8154C159.415 75.8154 159.059 75.9078 158.814 76.0861C158.57 76.2644 158.444 76.5021 158.444 76.7926C158.444 77.0633 158.557 77.2745 158.788 77.4132C159.012 77.5518 159.428 77.6839 160.022 77.8093C160.617 77.9348 161.099 78.0866 161.468 78.2649C161.838 78.4432 162.109 78.6544 162.287 78.8987C162.465 79.143 162.551 79.4467 162.551 79.8033C162.551 80.3975 162.3 80.8729 161.805 81.2294C161.31 81.5859 160.663 81.7642 159.871 81.7642C159.316 81.7642 158.821 81.6717 158.392 81.4803C157.962 81.2888 157.626 81.0313 157.388 80.6946C157.144 80.3579 157.025 79.9947 157.025 79.5986H158.213C158.233 79.9815 158.392 80.2786 158.695 80.5031C158.999 80.7276 159.389 80.8398 159.877 80.8398C160.326 80.8398 160.689 80.754 160.96 80.5823C161.231 80.4107 161.369 80.1796 161.369 79.8891L161.35 79.8759Z" fill="#0F4674"/>
<path d="M172.673 81.6321V75.8814H171.57V75.0033H172.673V74.3233C172.673 73.6102 172.871 73.0622 173.273 72.6727C173.67 72.2831 174.237 72.0916 174.964 72.0916C175.241 72.0916 175.512 72.1247 175.782 72.1973L175.716 73.1084C175.518 73.0688 175.3 73.0556 175.076 73.0556C174.693 73.0556 174.389 73.1612 174.185 73.3791C173.973 73.597 173.868 73.9007 173.868 74.3035V75.0033H175.353V75.8814H173.868V81.6321H172.679H172.673Z" fill="#0F4674"/>
<path d="M178.714 78.2583C178.714 77.6113 178.846 77.0236 179.117 76.5087C179.387 75.9871 179.757 75.5909 180.239 75.307C180.714 75.0231 181.262 74.8845 181.876 74.8845C182.827 74.8845 183.593 75.1948 184.174 75.822C184.762 76.4492 185.052 77.2811 185.052 78.3177V78.3969C185.052 79.044 184.92 79.6184 184.663 80.1334C184.405 80.6484 184.029 81.0445 183.547 81.3284C183.065 81.6123 182.51 81.7576 181.883 81.7576C180.939 81.7576 180.173 81.4473 179.592 80.82C179.004 80.1928 178.714 79.3675 178.714 78.3375V78.2583ZM179.915 78.3904C179.915 79.1232 180.094 79.7174 180.45 80.1598C180.807 80.6022 181.289 80.8266 181.89 80.8266C182.49 80.8266 182.972 80.6022 183.329 80.1466C183.685 79.691 183.864 79.0638 183.864 78.2517C183.864 77.5254 183.685 76.9378 183.322 76.4823C182.959 76.0267 182.477 75.8022 181.876 75.8022C181.276 75.8022 180.813 76.0267 180.457 76.469C180.094 76.9114 179.915 77.5518 179.915 78.3771V78.3904Z" fill="#0F4674"/>
<path d="M192.275 76.0201C192.097 75.9937 191.899 75.9805 191.688 75.9805C190.908 75.9805 190.38 76.2974 190.096 76.9312V81.6321H188.908V75.0033H190.063L190.083 75.7692C190.473 75.175 191.027 74.8845 191.74 74.8845C191.971 74.8845 192.15 74.9109 192.269 74.9703V76.0267L192.275 76.0201Z" fill="#0F4674"/>
<path d="M203.156 72.7123L206.219 79.9881L209.283 72.7123H210.887V81.6321H209.653V78.1592L209.772 74.4091L206.695 81.6321H205.751L202.681 74.4289L202.806 78.1592V81.6321H201.571V72.7123H203.169H203.156Z" fill="#0F4674"/>
<path d="M214.928 78.2583C214.928 77.6113 215.06 77.0236 215.331 76.5087C215.601 75.9871 215.971 75.5909 216.453 75.307C216.929 75.0231 217.477 74.8845 218.091 74.8845C219.041 74.8845 219.807 75.1948 220.388 75.822C220.976 76.4492 221.266 77.2811 221.266 78.3177V78.3969C221.266 79.044 221.134 79.6184 220.877 80.1334C220.619 80.6484 220.243 81.0445 219.761 81.3284C219.279 81.6123 218.724 81.7576 218.097 81.7576C217.153 81.7576 216.387 81.4473 215.806 80.82C215.219 80.1928 214.928 79.3675 214.928 78.3375V78.2583ZM216.123 78.3904C216.123 79.1232 216.301 79.7174 216.658 80.1598C217.014 80.6022 217.496 80.8266 218.097 80.8266C218.698 80.8266 219.18 80.6022 219.537 80.1466C219.893 79.691 220.071 79.0638 220.071 78.2517C220.071 77.5254 219.893 76.9378 219.53 76.4823C219.167 76.0267 218.685 75.8022 218.084 75.8022C217.483 75.8022 217.021 76.0267 216.664 76.469C216.301 76.9114 216.123 77.5518 216.123 78.3771V78.3904Z" fill="#0F4674"/>
<path d="M224.838 78.2649C224.838 77.2481 225.089 76.4294 225.598 75.8088C226.106 75.1882 226.766 74.8779 227.585 74.8779C228.404 74.8779 229.044 75.142 229.519 75.6768V72.2237H230.708V81.6321H229.612L229.552 80.9191C229.077 81.4737 228.417 81.751 227.565 81.751C226.713 81.751 226.099 81.4341 225.591 80.8068C225.083 80.1796 224.832 79.3543 224.832 78.3441V78.2583L224.838 78.2649ZM226.027 78.3904C226.027 79.143 226.192 79.7306 226.515 80.1532C226.839 80.5757 227.294 80.787 227.869 80.787C228.621 80.787 229.176 80.4635 229.519 79.8231V76.7794C229.163 76.1521 228.615 75.8418 227.882 75.8418C227.301 75.8418 226.845 76.0597 226.515 76.4823C226.185 76.9048 226.027 77.5452 226.027 78.3838V78.3904Z" fill="#0F4674"/>
<path d="M237.812 81.7576C236.868 81.7576 236.102 81.4605 235.508 80.8729C234.914 80.2852 234.623 79.4929 234.623 78.5092V78.2979C234.623 77.6377 234.755 77.0567 235.019 76.5351C235.283 76.0201 235.653 75.6173 236.128 75.3202C236.604 75.0297 237.119 74.8845 237.667 74.8845C238.571 74.8845 239.278 75.1684 239.779 75.7362C240.281 76.304 240.532 77.1161 240.532 78.1725V78.6412H235.818C235.838 79.2949 236.036 79.8231 236.419 80.2258C236.802 80.6286 237.29 80.8266 237.885 80.8266C238.307 80.8266 238.664 80.7474 238.954 80.5823C239.245 80.4173 239.502 80.1994 239.72 79.9353L240.446 80.4767C239.865 81.3284 238.987 81.7576 237.825 81.7576H237.812ZM237.667 75.8154C237.185 75.8154 236.782 75.9805 236.458 76.3172C236.135 76.6473 235.93 77.1161 235.851 77.7169H239.337V77.6311C239.304 77.0567 239.139 76.6077 238.849 76.2908C238.558 75.9739 238.162 75.8154 237.667 75.8154Z" fill="#0F4674"/>
<path d="M247.643 76.0201C247.465 75.9937 247.267 75.9805 247.055 75.9805C246.276 75.9805 245.748 76.2974 245.464 76.9312V81.6321H244.276V75.0033H245.431L245.451 75.7692C245.84 75.175 246.395 74.8845 247.108 74.8845C247.339 74.8845 247.518 74.9109 247.636 74.9703V76.0267L247.643 76.0201Z" fill="#0F4674"/>
<path d="M252.232 75.0033L252.271 75.8352C252.799 75.2014 253.499 74.8779 254.358 74.8779C255.83 74.8779 256.569 75.6702 256.583 77.2481V81.6255H255.394V77.2415C255.394 76.7662 255.275 76.4096 255.051 76.1785C254.826 75.9475 254.476 75.8352 254.001 75.8352C253.618 75.8352 253.275 75.9343 252.984 76.1323C252.694 76.3304 252.463 76.5879 252.304 76.9048V81.6255H251.116V74.9967H252.245L252.232 75.0033Z" fill="#0F4674"/>
<path d="M273.755 81.6321H272.514V77.5122H267.793V81.6321H266.559V72.7123H267.793V76.5483H272.514V72.7123H273.755V81.6321Z" fill="#0F4674"/>
<path d="M281.025 81.7576C280.081 81.7576 279.315 81.4605 278.72 80.8729C278.126 80.2852 277.836 79.4929 277.836 78.5092V78.2979C277.836 77.6377 277.968 77.0567 278.232 76.5351C278.496 76.0201 278.866 75.6173 279.341 75.3202C279.816 75.0297 280.331 74.8845 280.879 74.8845C281.784 74.8845 282.49 75.1684 282.992 75.7362C283.494 76.304 283.745 77.1161 283.745 78.1725V78.6412H279.031C279.051 79.2949 279.249 79.8231 279.632 80.2258C280.015 80.6286 280.503 80.8266 281.097 80.8266C281.52 80.8266 281.876 80.7474 282.167 80.5823C282.457 80.4173 282.715 80.1994 282.933 79.9353L283.659 80.4767C283.078 81.3284 282.2 81.7576 281.038 81.7576H281.025ZM280.873 75.8154C280.391 75.8154 279.988 75.9805 279.665 76.3172C279.341 76.6473 279.136 77.1161 279.057 77.7169H282.543V77.6311C282.51 77.0567 282.345 76.6077 282.055 76.2908C281.764 75.9739 281.368 75.8154 280.873 75.8154Z" fill="#0F4674"/>
<path d="M291.78 81.6321C291.714 81.5001 291.655 81.269 291.615 80.9323C291.06 81.4803 290.4 81.751 289.634 81.751C288.948 81.751 288.386 81.5661 287.944 81.1964C287.502 80.8266 287.284 80.3579 287.284 79.7901C287.284 79.1034 287.561 78.562 288.109 78.1791C288.657 77.7961 289.436 77.6047 290.433 77.6047H291.589V77.0831C291.589 76.6869 291.463 76.37 291.212 76.1389C290.961 75.9078 290.598 75.789 290.11 75.789C289.687 75.789 289.331 75.8946 289.04 76.0927C288.756 76.2974 288.611 76.5417 288.611 76.8322H287.416C287.416 76.5021 287.541 76.1851 287.786 75.8748C288.03 75.5645 288.367 75.3202 288.789 75.142C289.212 74.9637 289.674 74.8713 290.182 74.8713C290.981 74.8713 291.615 75.0627 292.064 75.4457C292.519 75.8286 292.751 76.3568 292.77 77.0236V80.074C292.77 80.6814 292.85 81.17 293.015 81.5265V81.6255H291.767L291.78 81.6321ZM289.806 80.7672C290.182 80.7672 290.532 80.6748 290.869 80.4899C291.206 80.305 291.443 80.0674 291.595 79.7769V78.4167H290.664C289.205 78.4167 288.479 78.8261 288.479 79.6382C288.479 79.9947 288.604 80.272 288.849 80.4701C289.093 80.6682 289.416 80.7672 289.806 80.7672Z" fill="#0F4674"/>
<path d="M298.316 81.6321H297.128V72.2237H298.316V81.6321Z" fill="#0F4674"/>
<path d="M304.199 73.3989V75.0033H305.5V75.8814H304.199V79.9947C304.199 80.2588 304.259 80.4569 304.371 80.5955C304.483 80.7276 304.681 80.7936 304.965 80.7936C305.104 80.7936 305.289 80.7672 305.533 80.721V81.6321C305.223 81.7114 304.912 81.751 304.622 81.751C304.087 81.751 303.691 81.5991 303.42 81.2888C303.149 80.9851 303.017 80.5493 303.017 79.9815V75.8748H301.75V74.9967H303.017V73.3923H304.206L304.199 73.3989Z" fill="#0F4674"/>
<path d="M310.452 75.8088C310.98 75.1948 311.666 74.8845 312.512 74.8845C313.984 74.8845 314.723 75.6768 314.737 77.2547V81.6321H313.548V77.2481C313.548 76.7728 313.429 76.4162 313.205 76.1852C312.98 75.9541 312.63 75.8418 312.155 75.8418C311.772 75.8418 311.429 75.9409 311.138 76.1389C310.848 76.337 310.617 76.5945 310.458 76.9114V81.6321H309.27V72.2237H310.458V75.8088H310.452Z" fill="#0F4674"/>
<path d="M321.676 80.8332C322.098 80.8332 322.468 80.7078 322.785 80.4635C323.102 80.2192 323.28 79.9089 323.313 79.5458H324.442C324.422 79.9287 324.284 80.2852 324.033 80.6286C323.782 80.9719 323.445 81.2426 323.023 81.4473C322.6 81.6519 322.151 81.751 321.682 81.751C320.732 81.751 319.979 81.4473 319.424 80.8464C318.863 80.2456 318.586 79.4203 318.586 78.3771V78.1857C318.586 77.5386 318.711 76.9642 318.956 76.4625C319.206 75.9607 319.563 75.5711 320.025 75.2938C320.487 75.0165 321.042 74.8779 321.676 74.8779C322.455 74.8779 323.102 75.1024 323.623 75.5447C324.138 75.9871 324.416 76.5681 324.449 77.2811H323.32C323.287 76.852 323.115 76.5021 322.811 76.2248C322.508 75.9475 322.125 75.8088 321.676 75.8088C321.068 75.8088 320.6 76.0135 320.269 76.4294C319.939 76.8454 319.774 77.4462 319.774 78.2253V78.4366C319.774 79.2024 319.939 79.7901 320.269 80.1994C320.6 80.6088 321.068 80.82 321.682 80.82L321.676 80.8332Z" fill="#0F4674"/>
<path d="M332.451 81.6321C332.385 81.5001 332.325 81.269 332.286 80.9323C331.731 81.4803 331.071 81.751 330.305 81.751C329.618 81.751 329.057 81.5661 328.615 81.1964C328.172 80.8266 327.955 80.3579 327.955 79.7901C327.955 79.1034 328.232 78.562 328.78 78.1791C329.328 77.7961 330.107 77.6047 331.104 77.6047H332.259V77.0831C332.259 76.6869 332.134 76.37 331.883 76.1389C331.632 75.9078 331.269 75.789 330.78 75.789C330.358 75.789 330.001 75.8946 329.711 76.0927C329.427 76.2974 329.282 76.5417 329.282 76.8322H328.087C328.087 76.5021 328.212 76.1851 328.456 75.8748C328.701 75.5645 329.037 75.3202 329.46 75.142C329.882 74.9637 330.345 74.8713 330.853 74.8713C331.652 74.8713 332.286 75.0627 332.735 75.4457C333.19 75.8286 333.421 76.3568 333.441 77.0236V80.074C333.441 80.6814 333.52 81.17 333.685 81.5265V81.6255H332.438L332.451 81.6321ZM330.477 80.7672C330.853 80.7672 331.203 80.6748 331.54 80.4899C331.876 80.305 332.114 80.0674 332.266 79.7769V78.4167H331.335C329.876 78.4167 329.15 78.8261 329.15 79.6382C329.15 79.9947 329.275 80.272 329.519 80.4701C329.764 80.6682 330.087 80.7672 330.477 80.7672Z" fill="#0F4674"/>
<path d="M341.054 76.0201C340.875 75.9937 340.677 75.9805 340.466 75.9805C339.687 75.9805 339.159 76.2974 338.875 76.9312V81.6321H337.687V75.0033H338.842L338.862 75.7692C339.251 75.175 339.806 74.8845 340.519 74.8845C340.75 74.8845 340.928 74.9109 341.047 74.9703V76.0267L341.054 76.0201Z" fill="#0F4674"/>
<path d="M347.28 81.7576C346.336 81.7576 345.57 81.4605 344.976 80.8729C344.381 80.2852 344.091 79.4929 344.091 78.5092V78.2979C344.091 77.6377 344.223 77.0567 344.487 76.5351C344.751 76.0201 345.121 75.6173 345.596 75.3202C346.072 75.0297 346.587 74.8845 347.135 74.8845C348.039 74.8845 348.746 75.1684 349.247 75.7362C349.749 76.304 350 77.1161 350 78.1725V78.6412H345.286C345.306 79.2949 345.504 79.8231 345.887 80.2258C346.27 80.6286 346.758 80.8266 347.352 80.8266C347.775 80.8266 348.132 80.7474 348.422 80.5823C348.713 80.4173 348.97 80.1994 349.188 79.9353L349.914 80.4767C349.333 81.3284 348.455 81.7576 347.293 81.7576H347.28ZM347.135 75.8154C346.653 75.8154 346.25 75.9805 345.926 76.3172C345.603 76.6473 345.398 77.1161 345.319 77.7169H348.805V77.6311C348.772 77.0567 348.607 76.6077 348.316 76.2908C348.026 75.9739 347.63 75.8154 347.135 75.8154Z" fill="#0F4674"/>
<path d="M88.5712 57.2494C90.4001 56.8863 91.6612 56.1006 92.3412 54.8924C93.0213 53.6907 93.3646 52.0401 93.3646 49.9472V33.5336C93.4174 28.4035 92.1563 24.8977 89.5946 23.0094C87.0263 21.1277 84.4513 21.1541 81.8566 23.0886C79.2619 25.0231 77.9414 28.0866 77.8886 32.2792V49.9472C77.8886 51.3073 78.0074 52.4363 78.2451 53.321C78.4828 54.2123 78.9648 55.0244 79.6976 55.7573C80.4305 56.4902 81.4274 56.9853 82.6819 57.2494H64.2282C66.1099 56.8863 67.3841 56.1006 68.0378 54.8924C68.6914 53.6907 69.0215 52.0401 69.0215 49.9472V30.1598C69.0215 28.0668 68.6914 26.4162 68.0378 25.2146C67.3841 24.0129 66.1165 23.2273 64.2282 22.8575C69.0413 22.8047 73.597 21.7087 77.8952 19.5563V25.4457C78.9449 23.564 80.305 22.0454 81.982 20.89C83.6591 19.7412 85.3823 19.0347 87.1649 18.7706C88.941 18.5065 90.7368 18.665 92.5459 19.2394C94.3549 19.8138 95.9593 20.7316 97.3722 21.986C98.7852 23.2405 99.9472 24.9439 100.865 27.0897C101.783 29.2354 102.238 31.6189 102.238 34.2335V49.9406C102.238 52.0335 102.562 53.6841 103.222 54.8858C103.876 56.094 105.143 56.8731 107.032 57.2428H88.5778L88.5712 57.2494Z" fill="#0F4674"/>
<path d="M123.432 18.6848C125.947 18.6848 128.258 19.1272 130.384 20.0185C132.504 20.9098 134.26 22.1115 135.646 23.63C137.033 25.1486 138.202 26.9048 139.139 28.8921C140.083 30.8795 140.658 32.9658 140.869 35.138C141.08 37.3102 141.08 39.4824 140.869 41.6546C140.658 43.8268 140.083 45.8933 139.139 47.8608C138.195 49.8284 137.033 51.5648 135.646 53.0833C134.26 54.6019 132.504 55.8167 130.384 56.7345C128.265 57.6522 125.947 58.1078 123.432 58.1078C120.606 58.1078 118.038 57.5334 115.734 56.3779C113.429 55.2291 111.574 53.737 110.154 51.9015C108.742 50.066 107.652 47.9731 106.893 45.616C106.134 43.259 105.757 40.8557 105.757 38.393C105.757 35.9303 106.134 33.5204 106.893 31.17C107.652 28.8129 108.742 26.7067 110.154 24.8449C111.567 22.9896 113.429 21.4974 115.734 20.3684C118.038 19.246 120.599 18.6782 123.432 18.6782V18.6848ZM119.272 54.417C120.474 55.7243 121.847 56.3779 123.392 56.3779C124.937 56.3779 126.311 55.7243 127.512 54.417C128.714 53.1098 129.632 51.3931 130.259 49.2738C130.886 47.1544 131.361 44.8105 131.672 42.2422C131.989 39.6805 131.995 37.1121 131.711 34.5438C131.421 31.9821 130.965 29.6382 130.338 27.5188C129.711 25.3995 128.793 23.6696 127.591 22.336C126.383 21.0023 124.997 20.3354 123.432 20.3354C121.867 20.3354 120.474 21.0023 119.272 22.336C118.071 23.6696 117.153 25.3995 116.526 27.5188C115.899 29.6382 115.436 31.9821 115.153 34.5438C114.862 37.1121 114.862 39.6739 115.153 42.2422C115.436 44.8105 115.899 47.1478 116.526 49.2738C117.153 51.3931 118.071 53.1098 119.272 54.417Z" fill="#0F4674"/>
<path d="M148.713 36.1218H147.425C147.016 36.1218 146.679 35.7916 146.679 35.3823C146.679 34.9729 147.016 34.6428 147.425 34.6428H148.713C148.93 34.6428 149.122 34.7353 149.261 34.8871H154.787V10.6827C154.787 5.81673 156.385 3.08994 159.58 2.51553H140.73C143.926 3.08994 145.524 5.81673 145.524 10.6827V49.0823C145.524 53.902 143.926 56.6222 140.73 57.2495H159.58C156.385 56.6222 154.787 53.902 154.787 49.0823V35.8181H149.32C149.188 36.0029 148.963 36.1284 148.719 36.1284L148.713 36.1218Z" fill="#0F4674"/>
<path d="M186.478 10.6761C186.478 5.81011 188.076 3.08332 191.272 2.50891H172.422C175.617 3.08332 177.215 5.81011 177.215 10.6761V34.9069H186.485V10.6761H186.478Z" fill="#0F4674"/>
<path d="M177.209 35.8445V49.0823C177.209 53.902 175.611 56.6222 172.415 57.2495H191.265C188.069 56.6222 186.472 53.902 186.472 49.0823V35.8445H177.202H177.209Z" fill="#0F4674"/>
<path d="M186.478 34.9069V35.8445H174.125L172.395 32.7677L169.286 42.1035L168.269 35.8445H166.354L165.45 30.1202L163.231 43.939L161.112 35.8379H158.101L157.025 32.814L156.134 35.818H149.313C149.181 36.0029 148.963 36.1218 148.713 36.1218H147.425C147.016 36.1218 146.679 35.7982 146.679 35.3823C146.679 34.9663 147.016 34.6428 147.425 34.6428H148.713C148.93 34.6428 149.129 34.7353 149.261 34.8805H154.787H155.44L156.933 29.7967L158.755 34.9003H161.832L163.013 39.4164L165.463 24.178L167.146 34.9003H169.061L169.596 38.2081L172.177 30.4701L174.673 34.9003H186.478V34.9069Z" fill="#0F4674"/>
<path d="M203.262 50.8847C204.939 52.872 206.833 54.2652 208.953 55.0442C211.072 55.8233 213.192 55.8563 215.311 55.1235C217.43 54.3906 219.226 52.8721 220.692 50.5678C218.757 55.5922 214.387 58.1078 207.58 58.1078C202.238 58.1078 197.947 56.1997 194.698 52.3769C191.45 48.5541 189.852 43.9192 189.905 38.4788C189.905 35.0786 190.532 31.9094 191.787 28.9779C193.041 26.0465 195.048 23.597 197.795 21.6361C200.541 19.6752 203.803 18.6914 207.573 18.6914C214.327 18.6914 218.672 21.3588 220.606 26.7001L210.63 40.5982L203.248 50.8847H203.262ZM207.58 20.3354C205.381 20.3354 203.572 21.504 202.159 23.8281C200.746 26.1587 199.855 28.8921 199.492 32.0349C199.122 35.1776 199.175 38.393 199.65 41.6942C200.119 44.9954 200.984 47.5835 202.238 49.4718L209.54 39.2645C210.742 37.5875 211.567 35.6134 212.016 33.3355C212.459 31.0577 212.525 28.9779 212.214 27.0897C211.904 25.208 211.323 23.6102 210.485 22.2963C209.646 20.989 208.676 20.3354 207.58 20.3354Z" fill="#1ECCD3"/>
<path d="M252.43 49.9406C252.43 52.0335 252.773 53.6841 253.453 54.8858C254.133 56.094 255.388 56.8731 257.223 57.2428C253.506 58.2398 250.522 58.3454 248.27 57.5597C246.019 56.774 244.579 55.2555 243.952 53.0041C242.85 54.4698 241.311 55.6846 239.317 56.6552C237.33 57.6258 235.389 58.1077 233.507 58.1077C232.041 58.1077 230.681 57.8832 229.427 57.4409C228.172 56.9985 227.123 56.4109 226.284 55.6714C225.446 54.9386 224.713 54.0869 224.086 53.1163C223.458 52.1458 223.036 51.1026 222.831 49.9736C222.62 48.8512 222.554 47.6957 222.633 46.5205C222.712 45.3453 223.023 44.1502 223.577 42.9486C224.125 41.747 224.818 40.618 225.657 39.5748C226.495 38.525 227.591 37.561 228.958 36.6697C230.318 35.7784 231.837 35.0455 233.514 34.4711C233.672 34.4183 233.903 34.3391 234.22 34.2334C235.475 33.8175 236.498 33.461 237.284 33.1705C238.069 32.8865 239.027 32.464 240.149 31.916C241.272 31.368 242.123 30.7672 242.704 30.1069C243.279 29.4533 243.569 28.7865 243.569 28.1064C243.569 26.6407 243.008 25.4126 241.879 24.4157C240.75 23.4187 239.39 22.8047 237.792 22.567C236.194 22.3293 234.438 22.5538 232.53 23.2338C230.615 23.9139 228.958 25.0429 227.545 26.6077C228.172 25.5645 228.892 24.6071 229.704 23.7422C230.516 22.8773 231.355 22.1312 232.22 21.504C233.085 20.8768 233.996 20.3552 234.966 19.9326C235.937 19.5167 236.861 19.1998 237.753 18.9885C238.644 18.7772 239.535 18.6716 240.42 18.6716C243.087 18.6716 245.325 19.2856 247.135 20.5202C248.944 21.7483 250.277 23.5045 251.142 25.7824C252.007 28.0602 252.436 30.8464 252.436 34.1476V49.934L252.43 49.9406ZM243.556 51.3535V32.0348C237.376 34.8607 233.606 38.7363 232.246 43.6551C231.249 47.2138 231.672 50.1452 233.501 52.4495C235.283 54.6481 237.482 55.1432 240.096 53.9416C241.298 53.42 242.453 52.5551 243.549 51.3535H243.556Z" fill="#1ECCD3"/>
<path d="M259.527 57.2494C261.409 56.8863 262.683 56.1006 263.337 54.8924C263.99 53.6908 264.321 52.0401 264.321 49.9472V10.6035C264.321 8.56332 263.977 6.92592 263.297 5.69787C262.617 4.46983 261.363 3.67094 259.527 3.3012C264.34 3.24838 268.896 2.15238 273.194 0V49.9472C273.194 52.0401 273.531 53.6908 274.218 54.8924C274.898 56.1006 276.152 56.8797 277.988 57.2494H259.534H259.527Z" fill="#1ECCD3"/>
<path d="M291.245 43.2655C291.245 48.5012 292.407 52.2316 294.738 54.4566C297.069 56.6816 300.172 56.6684 304.041 54.417C302.106 56.2987 299.868 57.4541 297.326 57.8701C294.784 58.286 292.42 58.0021 290.222 57.0051C288.023 56.0082 286.161 54.2321 284.643 51.6638C283.124 49.1021 282.365 46.0386 282.365 42.4733V26.7661C282.365 24.726 282.022 23.0886 281.342 21.8606C280.662 20.6325 279.407 19.86 277.572 19.5431C279.717 19.4903 281.771 19.114 283.738 18.4075C285.706 17.701 287.35 16.7437 288.683 15.5421C290.017 14.3404 290.869 13.0067 291.239 11.5344V19.5431H297.445V21.1937H291.239V43.2589L291.245 43.2655Z" fill="#1ECCD3"/>
<path d="M328.43 57.2494C330.265 56.8863 331.52 56.1006 332.2 54.8924C332.88 53.6908 333.223 52.0401 333.223 49.9472V33.5336C333.276 28.4035 332.015 24.8977 329.453 23.0094C326.885 21.1277 324.31 21.1541 321.715 23.0886C319.121 25.0231 317.8 28.0866 317.747 32.2792V49.9472C317.747 52.0401 318.071 53.6908 318.731 54.8924C319.385 56.1006 320.652 56.8797 322.541 57.2494H304.087C305.341 56.9853 306.338 56.4902 307.071 55.7573C307.804 55.0244 308.286 54.2123 308.524 53.321C308.761 52.4297 308.88 51.3073 308.88 49.9472V10.6035C308.88 8.56332 308.537 6.92592 307.857 5.69787C307.177 4.46983 305.922 3.67094 304.087 3.3012C308.9 3.24838 313.456 2.15238 317.754 0V25.4457C318.797 23.564 320.164 22.0454 321.834 20.89C323.511 19.7412 325.234 19.0347 327.017 18.7706C328.8 18.5065 330.589 18.665 332.398 19.2394C334.207 19.8138 335.811 20.7315 337.231 21.986C338.644 23.2405 339.806 24.9439 340.724 27.0897C341.641 29.2354 342.097 31.6189 342.097 34.2335V49.9406C342.097 52.0335 342.42 53.6842 343.081 54.8858C343.734 56.094 345.002 56.8731 346.89 57.2428H328.437L328.43 57.2494Z" fill="#1ECCD3"/>
<path d="M148.052 36.1218H146.765C146.356 36.1218 146.019 35.7916 146.019 35.3823C146.019 34.9729 146.356 34.6428 146.765 34.6428H148.052C148.27 34.6428 148.462 34.7353 148.6 34.8871H154.127V10.6827C154.127 5.81673 155.724 3.08994 158.92 2.51553H140.07C143.266 3.08994 144.863 5.81673 144.863 10.6827V49.0823C144.863 53.902 143.266 56.6222 140.07 57.2495H158.92C155.724 56.6222 154.127 53.902 154.127 49.0823V35.8181H148.66C148.528 36.0029 148.303 36.1284 148.059 36.1284L148.052 36.1218Z" fill="#1ECCD3"/>
<path d="M185.818 10.6761C185.818 5.81011 187.416 3.08332 190.611 2.50891H171.762C174.957 3.08332 176.555 5.81011 176.555 10.6761V34.9069H185.825V10.6761H185.818Z" fill="#1ECCD3"/>
<path d="M176.548 35.8445V49.0823C176.548 53.902 174.95 56.6222 171.755 57.2495H190.605C187.409 56.6222 185.811 53.902 185.811 49.0823V35.8445H176.542H176.548Z" fill="#1ECCD3"/>
<path d="M185.818 34.9069V35.8445H173.465L171.735 32.7677L168.625 42.1035L167.609 35.8445H165.694L164.789 30.1202L162.571 43.939L160.452 35.8379H157.441L156.365 32.814L155.473 35.818H148.653C148.521 36.0029 148.303 36.1218 148.052 36.1218H146.765C146.355 36.1218 146.019 35.7982 146.019 35.3823C146.019 34.9663 146.355 34.6428 146.765 34.6428H148.052C148.27 34.6428 148.468 34.7353 148.6 34.8805H154.127H154.78L156.272 29.7967L158.095 34.9003H161.171L162.353 39.4164L164.803 24.178L166.486 34.9003H168.401L168.936 38.2081L171.517 30.4701L174.013 34.9003H185.818V34.9069Z" fill="#1ECCD3"/>
<path d="M20.2628 2.50891C19.8666 2.58154 19.4969 2.68718 19.1536 2.82583C18.0708 3.25498 17.2323 4.00105 16.6315 5.06404C15.859 6.41753 15.476 8.28601 15.476 10.6761V13.9179C14.1027 16.8229 12.0428 19.5101 10.2271 22.0586C8.84723 23.8413 7.48053 25.5975 6.20627 27.4066V10.6761C6.20627 5.81011 4.60849 3.08992 1.41953 2.50891H20.2628Z" fill="#0F4674"/>
<path d="M17.5492 25.0429C16.9616 25.8088 16.2353 26.6869 15.476 27.5782V13.9179C16.4136 11.9372 17.0342 9.85079 17.0342 7.64559C17.0144 6.77407 16.8625 5.91576 16.6314 5.06405C17.2323 4.00106 18.0708 3.25499 19.1536 2.82584C25.6041 8.80761 22.4152 19.0677 17.5492 25.0429Z" fill="#1ECCD3"/>
<path d="M10.0951 59.7848C9.52067 58.9133 9.00568 58.0748 8.5303 57.2495H6.80048C7.80404 58.1606 8.90664 59.0123 10.1017 59.7848H10.0951Z" fill="#1ECCD3"/>
<path d="M6.20626 40.585C4.72732 44.3021 4.6745 47.874 5.99498 51.8157C5.7639 53.1692 5.34794 54.2784 4.74052 55.1433C0.125443 49.7425 -1.41952 42.6515 1.74964 35.3031C2.93807 32.4046 4.48963 29.8495 6.20626 27.4066V40.585Z" fill="#1ECCD3"/>
<path d="M18.7971 2.50894H15.6939C15.3374 1.70345 14.9347 0.897951 14.5319 0.0990601C15.9778 0.59424 17.3709 1.3073 18.6122 2.34388C18.6716 2.4033 18.731 2.45612 18.7971 2.50894Z" fill="#1ECCD3"/>
<path d="M20.2628 57.2494H1.41953C2.84564 56.9655 3.95485 56.2591 4.74053 55.1433C5.34795 54.2784 5.76391 53.1692 5.99499 51.8157C6.13364 50.9904 6.20627 50.0858 6.20627 49.0823V40.585C7.32868 37.7658 9.26318 34.8541 12.0296 31.6255C13.0001 30.4371 14.281 28.9846 15.476 27.5782V49.0823C15.476 53.8954 17.0738 56.6156 20.2628 57.2494Z" fill="#0F4674"/>
<path d="M15.476 13.9179V27.5783C14.281 28.9846 13.0001 30.4371 12.0296 31.6255C9.26317 34.8541 7.32866 37.7658 6.20625 40.585V27.4066C7.48052 25.5975 8.84721 23.8413 10.2271 22.0586C12.0428 19.5101 14.1027 16.8229 15.476 13.9179Z" fill="#1ECCD3"/>
</svg>
