<svg width="20" height="20" viewBox="0 0 20 20" fill="none" xmlns="http://www.w3.org/2000/svg">
<path d="M15.4233 3.94661C15.3934 3.83659 15.3699 3.75326 15.3499 3.68669L15.9767 2.12337C16.0369 1.96908 15.9762 1.79378 15.8333 1.70996C13.3467 0.290039 11.7033 0 9.99999 0C8.29671 0 6.65331 0.290039 4.16666 1.70996C4.02376 1.79378 3.96305 1.96908 4.02327 2.12337L4.65006 3.68669C4.63004 3.75326 4.6066 3.83659 4.57665 3.94661C3.24674 8.61995 3.00667 10.98 3.79671 11.5967C5.03189 12.5078 6.47818 13.0905 7.99999 13.29V14.3333C7.99999 14.5174 8.14924 14.6667 8.33333 14.6667C8.51741 14.6667 8.66666 14.5174 8.66666 14.3333V13.3133C9.08186 13.5221 9.53596 13.6424 9.99999 13.6667C10.464 13.6424 10.9181 13.5221 11.3333 13.3133V14.3333C11.3333 14.5174 11.4826 14.6667 11.6667 14.6667C11.8507 14.6667 12 14.5174 12 14.3333V13.29C13.5226 13.0898 14.9699 12.5072 16.2067 11.5967C16.9933 10.98 16.7532 8.61995 15.4233 3.94661ZM13.6667 9.33333C13.6667 11.3034 11.2067 13 9.99999 13C8.79329 13 6.33333 11.3034 6.33333 9.33333V7.55339C9.23339 6.99333 10.98 6.1167 11.5967 5.76335C11.9834 6.19661 12.8533 7.10661 13.6667 7.49007V9.33333ZM14.1667 4.84994C12.8366 4.15999 10.7532 4 9.99999 4C9.24674 4 7.1634 4.15999 5.83333 4.84994L4.74999 2.14665C6.96663 0.92334 8.45995 0.666667 9.99999 0.666667C11.54 0.666667 13.0334 0.92334 15.25 2.14665L14.1667 4.84994Z" fill="black"/>
<path d="M9.33333 2.66659H9.66667V2.99992C9.66667 3.184 9.81592 3.33325 10 3.33325C10.1841 3.33325 10.3333 3.184 10.3333 2.99992V2.66659H10.6667C10.8507 2.66659 11 2.51733 11 2.33325C11 2.14917 10.8507 1.99992 10.6667 1.99992H10.3333V1.66659C10.3333 1.4825 10.1841 1.33325 10 1.33325C9.81592 1.33325 9.66667 1.4825 9.66667 1.66659V1.99992H9.33333C9.14925 1.99992 9 2.14917 9 2.33325C9 2.51733 9.14925 2.66659 9.33333 2.66659Z" fill="black"/>
<path d="M9.66667 19.25L6.56999 18.32C6.42969 18.2765 6.33382 18.147 6.33333 18V16.8734L5.18327 16.2967C5.10433 16.2572 5.04443 16.1878 5.01693 16.1038C4.98942 16.02 4.99642 15.9285 5.03662 15.8499L5.39665 15.13L5.76335 14.4014C2.04264 14.9176 0 16.771 0 19.6667C0 19.8507 0.149251 20 0.333333 20H9.66667V19.25Z" fill="black"/>
<path d="M14.2411 14.4053L14.6034 15.1333L14.9634 15.8499C15.0036 15.9285 15.0106 16.02 14.9831 16.1038C14.9556 16.1878 14.8957 16.2572 14.8168 16.2967L13.6667 16.8734V18C13.6662 18.147 13.5704 18.2765 13.4301 18.32L10.3334 19.25V20H19.6667C19.8508 20 20 19.8507 20 19.6667C20 16.7793 17.9694 14.9281 14.2411 14.4053V14.4053Z" fill="black"/>
<path d="M9.66663 18.5499V17.1962L6.90328 14.4296C6.83964 14.3682 6.755 14.3337 6.66663 14.3333H6.54L6.19657 15.0133L5.77991 15.8499L6.81669 16.3699C6.92932 16.4257 7.00045 16.5408 6.99996 16.6666V17.7532L9.66663 18.5499Z" fill="black"/>
<path d="M13.8034 15.0199L13.4634 14.3333H13.3334C13.245 14.3339 13.1602 14.3686 13.0967 14.4299L10.3334 17.1962V18.5499L13 17.7532V16.6666C12.9996 16.5408 13.0707 16.4257 13.1833 16.3699L14.2201 15.8499L13.8034 15.0199Z" fill="black"/>
</svg>
