<svg width="39" height="37" viewBox="0 0 39 37" fill="none" xmlns="http://www.w3.org/2000/svg">
	<path d="M6.43 28.7162C4.14689 28.7162 2.28809 30.575 2.28809 32.8581C2.28809 35.1428 4.14689 37 6.43 37C8.71472 37 10.5719 35.1428 10.5719 32.8581C10.5719 30.5742 8.71472 28.7162 6.43 28.7162Z" fill="#93329E" />
	<path d="M32.887 28.7162C30.6031 28.7162 28.7451 30.575 28.7451 32.8581C28.7451 35.1428 30.6031 37 32.887 37C35.1701 37 37.0273 35.1428 37.0273 32.8581C37.0273 30.5742 35.1709 28.7162 32.887 28.7162Z" fill="#93329E" />
	<path d="M35.9046 8.46325H19.017C14.7336 8.46325 11.846 6.21167 11.8153 6.18662C11.3401 5.80354 10.7412 5.5918 10.131 5.5918C9.31639 5.5918 8.55832 5.95305 8.04675 6.58182C7.59255 7.13784 7.38485 7.83853 7.45758 8.55296C7.53032 9.26658 7.87703 9.90908 8.43063 10.3592C8.60439 10.5015 12.7495 13.8376 19.0178 13.8376H35.9054C37.3885 13.8376 38.5926 12.6318 38.5926 11.1496C38.5918 9.66825 37.3876 8.46325 35.9046 8.46325Z" fill="#93329E" />
	<path d="M4.60674 0C2.83844 0 1.39746 1.44098 1.39746 3.21008C1.39746 4.97918 2.83844 6.42017 4.60674 6.42017C6.37665 6.42017 7.81763 4.97999 7.81763 3.21008C7.81763 1.44017 6.37745 0 4.60674 0Z" fill="#93329E" />
	<path d="M37.5985 15.6285H10.2999L7.27729 12.8266C7.27405 12.8225 7.2692 12.8201 7.26597 12.8169L2.00392 7.93708C1.52225 7.48935 0.764987 7.51764 0.318064 8.00093C-0.129666 8.48422 -0.10138 9.23906 0.38191 9.6876L5.23664 14.1891V29.5114C5.23664 30.1692 5.77165 30.7051 6.43031 30.7051C7.08898 30.7051 7.62399 30.1701 7.62399 29.5114V27.7811H31.6948V29.5114C31.6948 30.1692 32.229 30.7051 32.8884 30.7051C33.5479 30.7051 34.0829 30.1701 34.0829 29.5114V18.0159H37.6001C38.2588 18.0159 38.7938 17.4809 38.7938 16.8222C38.7922 16.1635 38.258 15.6285 37.5985 15.6285ZM7.62399 25.3945V21.3989H31.6948V25.3945H7.62399Z" fill="#93329E" />
</svg>
