<svg width="25" height="25" viewBox="0 0 25 25" fill="none" xmlns="http://www.w3.org/2000/svg">
	<g clip-path="url(#clip0_203_15839)">
		<path d="M24.9996 5.225C24.873 5.64029 24.7176 6.04627 24.5346 6.44C24.083 7.33519 23.3321 8.04392 22.4123 8.44307C21.4925 8.84223 20.4619 8.9066 19.4996 8.625C19.3556 8.59362 19.215 8.54841 19.0796 8.49C18.9875 8.43711 18.879 8.4206 18.7753 8.44374C18.6717 8.46687 18.5805 8.52797 18.5196 8.615C15.2196 11.915 11.918 15.21 8.61462 18.5C8.5503 18.551 8.50532 18.6224 8.48714 18.7024C8.46895 18.7824 8.47865 18.8662 8.51463 18.94C8.74099 19.4729 8.85765 20.046 8.85765 20.625C8.85765 21.204 8.74099 21.7771 8.51463 22.31C8.22308 23.0074 7.75564 23.6172 7.15796 24.0799C6.56028 24.5427 5.8528 24.8424 5.10463 24.95C5.04844 24.9603 4.99324 24.9753 4.93963 24.995H3.95463L2.57962 24.63L5.49963 21.745L3.36463 19.635L0.499625 22.5H0.429625C0.30157 22.1314 0.194728 21.7558 0.109625 21.375C-0.0657282 20.3517 0.123469 19.2993 0.644257 18.4012C1.16504 17.5031 1.98441 16.8161 2.95963 16.46C3.93281 16.1157 4.9972 16.1316 5.95963 16.505C6.07417 16.5621 6.20493 16.5779 6.32976 16.5496C6.45459 16.5214 6.56583 16.4509 6.64463 16.35C9.91463 13.0567 13.188 9.77333 16.4646 6.5C16.5411 6.44461 16.5943 6.36272 16.6137 6.27028C16.6331 6.17784 16.6174 6.08148 16.5696 6C16.3248 5.38582 16.2222 4.72418 16.2695 4.0647C16.3169 3.40521 16.5129 2.765 16.8429 2.19207C17.1729 1.61913 17.6283 1.12834 18.175 0.7565C18.7217 0.384657 19.3455 0.14141 19.9996 0.045C20.0559 0.0349388 20.1111 0.0198791 20.1646 0L21.1896 0L21.3496 0.05L22.5646 0.38L19.6246 3.3L21.7596 5.44L24.6646 2.535L24.9996 3.565V5.225Z" fill="#5B5858" />
		<path d="M21.9256 25.0001L21.2056 24.2701L15.3356 18.4001C15.2746 18.3451 15.2094 18.2949 15.1406 18.2501L18.3156 15.0751C18.3532 15.1523 18.4002 15.2245 18.4556 15.2901L24.8206 21.6601L25.0006 21.8251V22.0001C24.5006 22.5001 24.0006 22.9601 23.5006 23.4501C23.0006 23.9401 22.5006 24.5001 22.0006 25.0001H21.9256Z" fill="#5B5858" />
		<path d="M2.44 0L3.905 1.085C5.065 1.925 6.23167 2.75833 7.405 3.585C7.46529 3.62256 7.51402 3.67607 7.54579 3.7396C7.57756 3.80314 7.59113 3.87423 7.585 3.945C7.585 4.695 7.585 5.445 7.585 6.195C7.5788 6.28144 7.59222 6.36816 7.62426 6.44868C7.65629 6.5292 7.70612 6.60144 7.77 6.66C8.77 7.66 9.8 8.66 10.815 9.695C10.8724 9.75004 10.9343 9.80021 11 9.845L9.945 10.91L9.795 10.765C8.77 9.74 7.745 8.72 6.725 7.69C6.67232 7.62989 6.60672 7.58248 6.53312 7.55131C6.45952 7.52014 6.37983 7.50601 6.3 7.51C5.53 7.51 4.755 7.51 3.98 7.51C3.88069 7.50937 3.78556 7.46989 3.715 7.4C2.5 5.725 1.265 4.045 0 2.295C0.123239 2.2157 0.240245 2.12711 0.35 2.03C0.965 1.42 1.58 0.8 2.195 0.185C2.25 0.13 2.295 0.06 2.345 0H2.44Z" fill="#5B5858" />
		<path d="M16.1799 13.0801L17.1799 14.0501L14.0999 17.1051L13.1299 16.1051L16.1799 13.0801Z" fill="#5B5858" />
	</g>
	<defs>
		<clipPath id="clip0_203_15839">
			<rect width="25" height="25" fill="white" />
		</clipPath>
	</defs>
</svg>
