<svg width="20" height="20" viewBox="0 0 20 20" fill="none" xmlns="http://www.w3.org/2000/svg">
<g clip-path="url(#clip0)">
<path d="M11.2996 4.12459C11.2996 6.40258 9.45306 8.24917 7.17506 8.24917C4.89707 8.24917 3.05048 6.40258 3.05048 4.12459C3.05048 1.84659 4.89707 0 7.17506 0C9.45306 0 11.2996 1.84659 11.2996 4.12459Z" fill="#003761"/>
<path d="M7.17031 10.9369C5.25924 10.9416 3.47822 11.6856 2.16222 13.0342C0.897433 14.3362 0.167407 16.0892 0.0976562 18.0097L11.0346 17.9865V13.0109C11.0355 12.7272 11.0907 12.4462 11.1974 12.1831C10.0203 11.3636 8.61856 10.9284 7.1843 10.9369H7.17031Z" fill="#003761"/>
<path d="M18.3353 11.4763H18.14V12.1878C18.14 12.3675 17.9942 12.5133 17.8145 12.5133C17.6347 12.5133 17.489 12.3675 17.489 12.1878V11.4763H14.062V12.1878C14.062 12.3675 13.9161 12.5133 13.7365 12.5133C13.5566 12.5133 13.4109 12.3675 13.4109 12.1878V11.4763H13.2155C12.3685 11.477 11.6819 12.1637 11.681 13.0109V13.6944H19.8651V13.0109C19.8666 12.6041 19.706 12.2138 19.419 11.9257C19.1318 11.6378 18.742 11.4761 18.3353 11.4763V11.4763Z" fill="#003761"/>
<path d="M11.6857 18.4655C11.6866 19.3125 12.373 19.9991 13.2202 20H18.3353C19.1825 19.9991 19.8689 19.3125 19.8698 18.4655V14.3455H11.6857V18.4655ZM13.2295 15.815H18.326C18.5057 15.815 18.6515 15.9606 18.6515 16.1405C18.6515 16.3201 18.5057 16.466 18.326 16.466H13.2295C13.0498 16.466 12.904 16.3201 12.904 16.1405C12.904 15.9606 13.0498 15.815 13.2295 15.815ZM13.2295 17.9773H16.1777C16.3574 17.9773 16.5032 18.1229 16.5032 18.3028C16.5032 18.4824 16.3574 18.6283 16.1777 18.6283H13.2295C13.0498 18.6283 12.904 18.4824 12.904 18.3028C12.904 18.1229 13.0498 17.9773 13.2295 17.9773Z" fill="#003761"/>
</g>
<defs>
<clipPath id="clip0">
<rect width="20" height="20" fill="white"/>
</clipPath>
</defs>
</svg>
