<svg width="856" height="620" viewBox="0 0 856 620" fill="none" xmlns="http://www.w3.org/2000/svg">
<g clip-path="url(#clip0)">
<path d="M567.571 322.66L374.001 82.1558C370.989 78.4065 365.851 77.1452 361.425 79.0683L78.4807 202.579C74.2971 204.407 71.7597 208.661 72.1148 213.207L95.9081 509.342C96.2796 513.914 99.5554 517.75 104.009 518.844L398.516 591.151C402.991 592.25 407.65 590.362 410.055 586.471L568.29 335.028C570.707 331.185 570.412 326.214 567.571 322.66ZM396.124 568.597L116.576 499.962L94.0266 219.071L362.525 101.876L546.213 330.114L396.124 568.597Z" fill="black"/>
</g>
<g clip-path="url(#clip1)">
<path d="M543.485 82.188L352.847 325.024C349.874 328.804 349.804 334.094 352.676 337.972L536.832 585.76C539.557 589.423 544.274 590.936 548.623 589.564L831.756 499.579C836.127 498.186 839.125 494.129 839.186 489.544L843.192 186.317C843.252 181.709 840.362 177.596 836.029 176.131L555.372 78.6977C551.082 77.2099 546.306 78.6189 543.485 82.188ZM821.759 193.735L817.956 481.56L549.393 566.894L374.648 331.755L555.564 101.314L821.759 193.735Z" fill="black"/>
</g>
<defs>
<clipPath id="clip0">
<rect width="511.995" height="511.995" fill="white" transform="translate(122.163 0.0837173) rotate(13.7944)"/>
</clipPath>
<clipPath id="clip1">
<rect width="511.995" height="511.995" fill="white" transform="translate(336.297 586.331) rotate(-89.2431)"/>
</clipPath>
</defs>
</svg>
