<svg width="18" height="19" viewBox="0 0 18 19" fill="none" xmlns="http://www.w3.org/2000/svg">
	<path d="M15.75 2.75H15V1.25C15 0.836 14.664 0.5 14.25 0.5H13.5C13.086 0.5 12.75 0.836 12.75 1.25V2.75H5.25V1.25C5.25 0.836 4.914 0.5 4.5 0.5H3.75C3.336 0.5 3 0.836 3 1.25V2.75H2.25C1.0095 2.75 0 3.7595 0 5V16.25C0 17.4905 1.0095 18.5 2.25 18.5H15.75C16.9905 18.5 18 17.4905 18 16.25V5C18 3.7595 16.9905 2.75 15.75 2.75ZM16.5 16.25C16.5 16.664 16.164 17 15.75 17H2.25C1.836 17 1.5 16.664 1.5 16.25V7.28H16.5V16.25Z" fill="#FFBF00" />
	<path d="M6.80569 13.1959L6.47494 15.2224C6.39993 15.6829 6.88894 16.0324 7.30294 15.8052L9.00019 14.8662L10.6982 15.8044C11.1017 16.0287 11.6019 15.6919 11.5262 15.2217L11.1954 13.1952L12.5912 11.7649C12.9099 11.4387 12.7262 10.8852 12.2732 10.8162L10.3674 10.5244L9.50944 8.69742C9.32494 8.30293 8.67619 8.30293 8.49169 8.69742L7.63369 10.5244L5.72793 10.8162C5.27493 10.8852 5.09118 11.4387 5.40993 11.7649L6.80569 13.1959Z" fill="#FFBF00" />
</svg>
