<svg width="9" height="22" viewBox="0 0 9 22" fill="none" xmlns="http://www.w3.org/2000/svg">
	<path d="M3.36274 16.5341C3.08176 16.5341 2.853 16.7628 2.853 17.0438C2.853 17.325 3.08176 17.5535 3.36274 17.5535C3.64392 17.5535 3.87249 17.325 3.87249 17.0438C3.87249 16.7627 3.64392 16.5341 3.36274 16.5341Z" fill="#93329E" />
	<path d="M6.61906 16.5341C6.33798 16.5341 6.10931 16.7628 6.10931 17.0438C6.10931 17.325 6.33798 17.5535 6.61906 17.5535C6.90004 17.5535 7.12861 17.325 7.12861 17.0438C7.12861 16.7627 6.90014 16.5341 6.61906 16.5341Z" fill="#93329E" />
	<path d="M6.99013 14.0416H4.91176C4.38461 14.0416 4.02923 13.7645 4.02545 13.7614C3.96697 13.7143 3.89326 13.6882 3.81817 13.6882C3.71791 13.6882 3.62461 13.7327 3.56166 13.8101C3.50576 13.8785 3.4802 13.9647 3.48915 14.0527C3.4981 14.1405 3.54077 14.2196 3.6089 14.275C3.63028 14.2925 4.14043 14.703 4.91186 14.703H6.99023C7.17274 14.703 7.32094 14.5547 7.32094 14.3722C7.32084 14.1899 7.17264 14.0416 6.99013 14.0416Z" fill="#93329E" />
	<path d="M3.13844 13C2.92081 13 2.74347 13.1773 2.74347 13.3951C2.74347 13.6128 2.92081 13.7901 3.13844 13.7901C3.35626 13.7901 3.5336 13.6129 3.5336 13.3951C3.5336 13.1772 3.35636 13 3.13844 13Z" fill="#93329E" />
	<path d="M7.1987 14.9235H3.83905L3.46706 14.5786C3.46666 14.5781 3.46606 14.5778 3.46567 14.5774L2.81806 13.9769C2.75879 13.9218 2.66559 13.9253 2.61059 13.9847C2.55548 14.0442 2.55896 14.1371 2.61844 14.1923L3.21592 14.7463V16.632C3.21592 16.713 3.28176 16.7789 3.36282 16.7789C3.44388 16.7789 3.50973 16.7131 3.50973 16.632V16.4191H6.47212V16.632C6.47212 16.713 6.53787 16.7789 6.61903 16.7789C6.70019 16.7789 6.76603 16.7131 6.76603 16.632V15.2173H7.1989C7.27996 15.2173 7.3458 15.1514 7.3458 15.0704C7.3456 14.9893 7.27986 14.9235 7.1987 14.9235ZM3.50973 16.1254V15.6336H6.47212V16.1254H3.50973Z" fill="#93329E" />
	<path d="M4.5259 0C2.05885 0 0.0512428 2.1109 0.0512428 4.70581C0.0512428 5.4697 0.64015 6.08916 1.36627 6.08916C2.0929 6.08916 2.68197 5.4697 2.68197 4.70581C2.68197 3.63654 3.50956 2.76696 4.52585 2.76696C5.54236 2.76696 6.36927 3.63654 6.36927 4.70581C6.36927 5.66121 5.70854 6.45761 4.84296 6.61567C4.46534 6.68524 4.07395 6.77841 3.70441 6.88739L2.90549 7.12366C1.1876 7.63159 0 9.2794 0 11.1563V20.8386C0 21.4802 0.494257 22 1.10451 22H7.88401C8.4935 22 8.98776 21.4809 8.98776 20.8396C8.99098 16.9719 9 4.75525 9 4.70577C9.00004 2.1109 6.99303 0 4.5259 0ZM4.5007 18.905C2.57568 18.905 1.00901 17.2582 1.00901 15.2337C1.00901 13.2095 2.57568 11.5628 4.5007 11.5628C6.42521 11.5628 7.99116 13.2095 7.99116 15.2337C7.99116 17.2582 6.42521 18.905 4.5007 18.905Z" fill="#93329E" />
</svg>
