<svg
  width="25"
  height="19"
  viewBox="0 0 25 19"
  fill="none"
  xmlns="http://www.w3.org/2000/svg"
>
  <path
    d="M4.07929 13.3836C2.63094 13.3836 1.45175 14.5628 1.45175 16.0111C1.45175 17.4605 2.63094 18.6387 4.07929 18.6387C5.52867 18.6387 6.70684 17.4605 6.70684 16.0111C6.70684 14.5623 5.52867 13.3836 4.07929 13.3836Z"
    fill="#FF7B54"
  />
  <path
    d="M20.8633 13.3836C19.4144 13.3836 18.2357 14.5628 18.2357 16.0111C18.2357 17.4605 19.4144 18.6387 20.8633 18.6387C22.3116 18.6387 23.4898 17.4605 23.4898 16.0111C23.4898 14.5623 22.3121 13.3836 20.8633 13.3836Z"
    fill="#FF7B54"
  />
  <path
    d="M23.8517 5.08106H6.53403L4.61656 3.30356C4.61451 3.30099 4.61144 3.29946 4.60938 3.29741L1.27125 0.201774C0.965684 -0.0822576 0.485292 -0.0643136 0.201774 0.242276C-0.0822577 0.548866 -0.0643135 1.02772 0.242276 1.31226L3.32202 4.16796V13.8881C3.32202 14.3054 3.66142 14.6453 4.07926 14.6453C4.4971 14.6453 4.83651 14.3059 4.83651 13.8881V12.7904H20.1065V13.8881C20.1065 14.3054 20.4454 14.6453 20.8638 14.6453C21.2821 14.6453 21.6215 14.3059 21.6215 13.8881V6.59555H23.8528C24.2706 6.59555 24.61 6.25615 24.61 5.83831C24.609 5.42046 24.2701 5.08106 23.8517 5.08106ZM4.83651 11.2764V8.74168H20.1065V11.2764H4.83651Z"
    fill="#FF7B54"
  />
</svg>