<svg width="24" height="25" viewBox="0 0 24 25" fill="none" xmlns="http://www.w3.org/2000/svg">
	<path d="M4.11045 23.8024C4.11045 17.016 4.11045 10.2794 4.11045 3.49301C9.25017 3.49301 14.34 3.49301 19.4298 3.49301C19.4298 6.53692 19.4298 9.53094 19.4298 12.5748C19.0306 12.5748 18.6813 12.5748 18.2322 12.5748C18.2322 9.93014 18.2322 7.33533 18.2322 4.69062C13.8909 4.69062 9.64937 4.69062 5.30805 4.69062C5.30805 4.79042 5.25816 4.94012 5.25816 5.03992C5.25816 10.4291 5.25816 15.7685 5.25816 21.1577C5.25816 22.3054 5.25816 23.503 5.25816 24.6507C5.25816 24.9501 5.15835 25 4.90885 25C3.51165 25 2.11444 25 0.717238 25C0.517637 25 0.218236 24.8503 0.118436 24.7006C-0.180966 24.3014 0.118436 23.8024 0.667338 23.8024C1.56554 23.8024 2.51364 23.8024 3.41185 23.8024C3.66135 23.8024 3.86095 23.8024 4.11045 23.8024Z" fill="#FF7B54" />
	<path d="M4.11064 2.64471C4.06074 1.99601 4.06074 1.99601 4.60965 1.89621C8.65156 1.2974 12.7434 0.648702 16.7853 0.0499002C16.8851 0.0499002 17.0348 0.0499002 17.1845 0C17.1845 0.848303 17.1845 1.64671 17.1845 2.49501C17.1845 2.54491 16.9849 2.64471 16.8851 2.64471C15.8372 2.64471 14.7893 2.64471 13.7414 2.64471C10.6476 2.64471 7.55376 2.64471 4.45995 2.64471C4.36015 2.64471 4.26034 2.64471 4.11064 2.64471Z" fill="#FF7B54" />
	<path d="M18.2821 15.8683C18.6813 15.8683 19.0805 15.8683 19.4797 15.8683C19.4797 18.513 19.4797 21.1078 19.4797 23.8024C19.6793 23.8024 19.829 23.8024 19.9787 23.8024C20.9767 23.8024 21.9747 23.8024 23.0226 23.8024C23.4717 23.8024 23.7212 24.002 23.7212 24.3513C23.7212 24.7505 23.5216 25 23.0226 25C21.5256 25 20.0286 25 18.5815 25C18.2322 25 18.2821 24.8004 18.2821 24.6008C18.2821 22.2056 18.2821 19.7605 18.2821 17.3653C18.2821 16.8663 18.2821 16.3673 18.2821 15.8683Z" fill="#FF7B54" />
	<path d="M20.5775 15.0698C19.6793 15.0698 18.8809 15.0698 18.0825 15.0698C17.7831 15.0698 17.5336 15.0698 17.2342 15.0698C16.6853 15.0698 16.336 14.7205 16.336 14.2215C16.336 13.7724 16.6853 13.3732 17.2342 13.3732C18.1823 13.3732 19.1304 13.3732 20.1284 13.3732C20.2781 13.3732 20.3779 13.3732 20.6274 13.3732C20.6274 13.0239 20.6274 12.6746 20.6274 12.3752C20.6274 12.2255 20.7272 12.0259 20.827 11.976C20.9268 11.9261 21.1264 12.0259 21.2262 12.1257C21.7252 12.6247 22.2242 13.1237 22.7232 13.6227C23.0725 14.0219 23.0725 14.471 22.7232 14.8203C22.2242 15.3194 21.7252 15.8184 21.1763 16.3174C21.0765 16.4172 20.8769 16.4671 20.7771 16.4172C20.6773 16.3673 20.6274 16.2176 20.6274 16.0679C20.5775 15.7685 20.5775 15.4691 20.5775 15.0698Z" fill="#FF7B54" />
	<g clip-path="url(#clip0_363_86)">
		<path d="M11.8056 19.6272C13.0066 19.6272 13.9803 18.6535 13.9803 17.4525C13.9803 16.2514 13.0066 15.2778 11.8056 15.2778C10.6045 15.2778 9.63085 16.2514 9.63085 17.4525C9.63085 18.6535 10.6045 19.6272 11.8056 19.6272Z" fill="#FF7B54" />
		<path d="M11.8056 20.1389C9.68607 20.1389 7.96786 21.8571 7.96786 23.9766C7.96786 24.5418 8.42605 25 8.99125 25H14.6199C15.1851 25 15.6433 24.5418 15.6433 23.9766C15.6433 21.8571 13.9251 20.1389 11.8056 20.1389Z" fill="#FF7B54" />
	</g>
	<defs>
		<clipPath id="clip0_363_86">
			<rect width="9.72222" height="9.72222" fill="white" transform="translate(6.94444 15.2778)" />
		</clipPath>
	</defs>
</svg>
