<svg width="13" height="29" viewBox="0 0 13 29" fill="none" xmlns="http://www.w3.org/2000/svg">
	<path d="M10.0367 7.62799C10.0323 7.63246 10.0273 7.63644 10.0228 7.64042C9.76606 7.88675 9.48092 8.10216 9.17344 8.2858C8.46537 8.70873 7.64039 8.95653 6.75516 8.95653C5.7794 8.95653 4.87282 8.6605 4.11994 8.15395C3.89406 8.00171 3.68403 7.82853 3.48802 7.64042C3.48257 7.63497 3.47657 7.63044 3.47113 7.62499C3.4527 7.62401 3.44076 7.61703 3.42136 7.61703C2.45754 7.61703 0.680664 9.08092 0.680664 10.5443V19.3118C0.680664 20.1039 1.46188 20.7463 2.42619 20.7463C2.47547 20.7463 2.52175 20.7379 2.56999 20.7344C2.57097 20.818 2.58046 20.8996 2.59484 20.9792C2.58088 21.0548 2.56797 21.1309 2.56797 21.2101V27.2428C2.56797 28.0673 3.3397 28.7356 4.29213 28.7356H4.54887C5.50124 28.7356 6.27297 28.0673 6.27297 27.2428V22.2048H7.23827V27.3672C7.23827 28.1917 8.00008 28.86 8.94003 28.86H9.19327C10.1332 28.86 10.895 28.1917 10.895 27.3672V21.334C10.895 21.2683 10.8826 21.2056 10.8731 21.1419C10.9119 21.0145 10.9378 20.8817 10.9403 20.7423C11.8877 20.7264 12.6505 20.093 12.6505 19.3108V10.5439C12.651 9.14164 11.021 7.74246 10.0367 7.62799Z" fill="#5A5656" />
	<path d="M4.11245 7.52602C4.83742 8.10817 5.756 8.45899 6.75564 8.45899C7.75576 8.45899 8.67434 8.10817 9.39882 7.52602C10.3647 6.75031 10.9851 5.56152 10.9851 4.22949C10.9851 1.89728 9.08779 0 6.75564 0C4.42349 0 2.52614 1.89728 2.52614 4.22949C2.52614 5.56152 3.14661 6.75024 4.11245 7.52602Z" fill="#5A5656" />
</svg>
