<svg width="15" height="15" viewBox="0 0 15 15" fill="none" xmlns="http://www.w3.org/2000/svg">
<path d="M14.183 7.23804C13.9983 7.23856 13.8487 7.38818 13.8482 7.57286V11.7983C13.8466 12.3523 13.3977 12.8012 12.8437 12.8028H2.12943C1.5754 12.8012 1.12653 12.3523 1.12497 11.7983V7.57286C1.12497 7.38787 0.975133 7.23804 0.790144 7.23804C0.605155 7.23804 0.455322 7.38787 0.455322 7.57286V11.7983C0.455741 12.7227 1.20501 13.472 2.12943 13.4724H12.8437C13.7681 13.472 14.5174 12.7227 14.5178 11.7983V7.57286C14.5173 7.38818 14.3677 7.23856 14.183 7.23804Z" fill="white"/>
<path d="M5.47098 3.82285L7.05133 2.47007V10.7202C7.05133 10.9051 7.20117 11.055 7.38615 11.055C7.57114 11.055 7.72098 10.9051 7.72098 10.7202V2.47007L9.29798 3.82285C9.4385 3.94307 9.64986 3.92654 9.77008 3.78591C9.8902 3.6455 9.87377 3.43414 9.73325 3.31392L7.60379 1.48914C7.6019 1.48914 7.60044 1.48757 7.60044 1.4858L7.5904 1.47565C7.58705 1.4724 7.58035 1.46906 7.577 1.4656C7.57386 1.46152 7.56884 1.45912 7.56361 1.45891C7.56026 1.45566 7.55356 1.45231 7.55022 1.44886C7.54687 1.44562 7.54352 1.44562 7.53682 1.44216C7.53013 1.43892 7.52678 1.43557 7.52008 1.43557C7.51673 1.43212 7.51004 1.43212 7.50669 1.42888C7.49999 1.42542 7.49665 1.42542 7.48995 1.42218C7.4866 1.42218 7.4799 1.41883 7.47656 1.41883C7.46986 1.41883 7.46651 1.41538 7.45981 1.41538C7.45647 1.41538 7.44977 1.41214 7.44642 1.41214C7.43973 1.41214 7.43303 1.40868 7.42633 1.40868H7.41629C7.39515 1.40544 7.3737 1.40544 7.35267 1.40868H7.34263C7.33593 1.40868 7.32923 1.41214 7.32254 1.41214C7.31919 1.41214 7.31249 1.41538 7.30915 1.41538C7.30245 1.41538 7.2991 1.41883 7.2924 1.41883C7.28906 1.41883 7.28236 1.42218 7.27901 1.42218C7.27231 1.42542 7.26897 1.42542 7.26227 1.42888C7.25892 1.43212 7.25223 1.43212 7.24888 1.43557C7.24218 1.43892 7.23883 1.43892 7.23214 1.44216C7.22879 1.44562 7.22209 1.44562 7.21874 1.44886C7.2154 1.45231 7.2087 1.45566 7.20535 1.45891C7.202 1.46236 7.19865 1.46236 7.19196 1.4656C7.18861 1.46906 7.18191 1.4724 7.17856 1.47565L7.16852 1.4858C7.16664 1.4858 7.16517 1.48716 7.16517 1.48914L5.03571 3.31392C4.89508 3.43414 4.87866 3.6455 4.99888 3.78591C5.11899 3.92654 5.33035 3.94307 5.47098 3.82285V3.82285Z" fill="white"/>
</svg>
