<svg width="20" height="20" viewBox="0 0 20 20" fill="none" xmlns="http://www.w3.org/2000/svg">
<path d="M13.5594 6.42678C13.478 6.34511 13.3674 6.29922 13.252 6.29922C13.1366 6.29922 13.0261 6.34511 12.9447 6.42678L9.99221 9.37897L6.88733 6.27409C6.71756 6.10432 6.44222 6.10432 6.27259 6.27409C6.10282 6.44399 6.10282 6.7192 6.27259 6.88911L9.37747 9.99399L6.27259 13.0987C6.19091 13.1801 6.14502 13.2909 6.14502 13.4063C6.14502 13.5216 6.19091 13.6321 6.27259 13.7138C6.3544 13.796 6.46612 13.8416 6.58208 13.8401C6.69776 13.8395 6.8088 13.7943 6.89184 13.7138L9.99672 10.6089L12.9489 13.5611C13.0307 13.6434 13.1424 13.689 13.2585 13.6875C13.3742 13.687 13.4853 13.6416 13.5682 13.5611C13.6498 13.4795 13.6957 13.3689 13.6957 13.2536C13.6957 13.1383 13.6498 13.0276 13.5682 12.9462L10.6158 9.99399L13.5682 7.04167C13.7315 6.8678 13.7275 6.59587 13.5594 6.42678V6.42678Z" fill="#F40505"/>
<path d="M10.0053 0.626919C6.21319 0.626236 2.79418 2.9104 1.34301 6.41396C-0.107876 9.91766 0.694669 13.9503 3.37696 16.631C7.03785 20.2919 12.9731 20.2919 16.6338 16.631C20.2946 12.9704 20.2946 7.03513 16.6338 3.37423C14.8797 1.61016 12.493 0.62091 10.0053 0.626919V0.626919ZM16.0189 16.0162C12.7048 19.3305 7.31033 19.3305 3.99185 16.0162C0.671587 12.6953 0.67186 7.31143 3.9928 3.99062C7.31347 0.670215 12.6973 0.670215 16.0181 3.99062C19.3388 7.31143 19.3393 12.6953 16.0189 16.0162Z" fill="#F40505"/>
</svg>
