<?xml version="1.0" encoding="utf-8"?>
<!-- Generator: Adobe Illustrator 25.1.0, SVG Export Plug-In . SVG Version: 6.00 Build 0)  -->
<svg version="1.1" id="Layer_1" xmlns="http://www.w3.org/2000/svg" xmlns:xlink="http://www.w3.org/1999/xlink" x="0px" y="0px"
	 viewBox="0 0 100 100" style="enable-background:new 0 0 100 100;" xml:space="preserve">
<style type="text/css">
	.st0{fill:#0F4674;}
	.st1{fill:#3DBB96;}
	.st2{fill:#111;}
</style>
<g>
	<path class="st0" d="M114.24-1688.71v-216.93h28.48v216.93H114.24z"/>
	<path class="st0" d="M225.99-1860.57v27.86c11.68-20.45,30.37-30.68,56.04-30.68c18.99,0,34.85,6.32,47.58,18.94
		c12.73,12.63,19.1,30.63,19.1,54v101.74h-28.18v-97.04c0-17.32-4.17-30.47-12.52-39.44c-8.35-8.98-19.88-13.46-34.59-13.46
		c-14.72,0-26.3,4.49-34.75,13.46c-8.45,8.98-12.68,22.12-12.68,39.44v97.04h-28.48v-171.86H225.99z"/>
	<path class="st0" d="M458.27-1711.87h23.47v23.16h-28.8c-29.85,0-44.76-14.72-44.76-44.14v-104.55h-22.23v-23.16h22.23v-42.57h28.8
		v42.57h44.45v23.16h-44.45v104.55c0,7.72,1.56,13.15,4.69,16.28C444.8-1713.44,450.33-1711.87,458.27-1711.87z"/>
	<path class="st0" d="M592.87-1685.89c-24.63,0-44.66-8.14-60.1-24.42c-15.45-16.28-23.16-37.77-23.16-64.48
		c0-26.71,7.82-48.15,23.47-64.33c15.65-16.17,35.95-24.26,60.89-24.26c24.94,0,44.97,7.67,60.1,23.01
		c15.13,15.34,22.7,34.9,22.7,58.69c0,6.06-0.42,11.69-1.25,16.9h-136.8c0.83,17.11,6.21,30.63,16.12,40.54
		c9.91,9.91,22.59,14.87,38.04,14.87c11.68,0,21.54-2.61,29.58-7.83c8.03-5.21,13.93-12.1,17.68-20.66h30.68
		c-5.43,15.03-14.77,27.45-28.02,37.25C629.54-1690.79,612.9-1685.89,592.87-1685.89z M631.37-1825.04
		c-10.23-9.91-22.9-14.87-38.03-14.87s-27.7,4.85-37.72,14.56c-10.02,9.7-15.55,23.01-16.59,39.91h108
		C646.82-1801.92,641.6-1815.12,631.37-1825.04z"/>
	<path class="st0" d="M719.96-1688.71v-231.65h28.48v231.65H719.96z"/>
	<path class="st0" d="M803.23-1688.71v-231.65h28.48v231.65H803.23z"/>
	<path class="st0" d="M914.67-1893.75c-3.76,3.76-8.35,5.63-13.77,5.63c-5.43,0-9.97-1.88-13.62-5.63
		c-3.65-3.76-5.48-8.34-5.48-13.77c0-5.42,1.88-10.02,5.63-13.77c3.76-3.76,8.3-5.63,13.62-5.63c5.32,0,9.86,1.88,13.62,5.63
		c3.76,3.76,5.63,8.35,5.63,13.77C920.3-1902.09,918.42-1897.5,914.67-1893.75z M886.49-1688.71v-171.86h28.48v171.86H886.49z"/>
	<path class="st0" d="M981.96-1711.09c-15.65-16.8-23.47-38.3-23.47-64.49c0-26.18,7.77-47.37,23.32-63.54
		c15.55-16.17,35.11-24.26,58.7-24.26c14.6,0,27.39,3.45,38.35,10.33c10.95,6.89,19.25,15.86,24.88,26.92v-34.43h28.8v176.24
		c0,23.58-7.62,42.83-22.85,57.76c-15.24,14.92-34.54,22.38-57.91,22.38c-23.37,0-42.73-5.43-58.07-16.28
		c-15.34-10.85-24.05-25.04-26.14-42.57h27.86c2.71,9.81,9.08,17.95,19.09,24.42c10.02,6.47,22.43,9.71,37.25,9.71
		c14.82,0,27.18-4.86,37.1-14.56c9.91-9.71,14.87-23.32,14.87-40.85v-39.44c-5.63,11.27-13.93,20.4-24.88,27.39
		c-10.96,7-23.74,10.49-38.35,10.49C1017.13-1685.89,997.62-1694.29,981.96-1711.09z M1086.67-1727.84
		c11.37-11.68,17.06-27.23,17.06-46.64s-5.69-34.95-17.06-46.64c-11.37-11.68-25.04-17.53-41-17.53c-15.97,0-29.64,5.63-41.01,16.9
		c-11.38,11.27-17.06,26.61-17.06,46.02s5.74,35.16,17.22,47.27c11.47,12.11,25.14,18.16,41,18.16
		C1061.68-1710.31,1075.3-1716.15,1086.67-1727.84z"/>
	<path class="st0" d="M1259.32-1685.89c-24.63,0-44.66-8.14-60.1-24.42c-15.45-16.28-23.16-37.77-23.16-64.48
		c0-26.71,7.82-48.15,23.47-64.33c15.65-16.17,35.95-24.26,60.89-24.26c24.94,0,44.97,7.67,60.1,23.01
		c15.13,15.34,22.7,34.9,22.7,58.69c0,6.06-0.42,11.69-1.25,16.9h-136.8c0.83,17.11,6.21,30.63,16.12,40.54
		c9.91,9.91,22.59,14.87,38.04,14.87c11.68,0,21.54-2.61,29.58-7.83c8.03-5.21,13.93-12.1,17.68-20.66h30.68
		c-5.43,15.03-14.77,27.45-28.02,37.25C1296-1690.79,1279.35-1685.89,1259.32-1685.89z M1297.82-1825.04
		c-10.23-9.91-22.9-14.87-38.03-14.87s-27.7,4.85-37.72,14.56c-10.02,9.7-15.55,23.01-16.59,39.91h108
		C1313.27-1801.92,1308.05-1815.12,1297.82-1825.04z"/>
	<path class="st0" d="M1414.9-1860.57v27.86c11.68-20.45,30.37-30.68,56.04-30.68c18.99,0,34.85,6.32,47.58,18.94
		c12.73,12.63,19.1,30.63,19.1,54v101.74h-28.18v-97.04c0-17.32-4.17-30.47-12.52-39.44s-19.88-13.46-34.59-13.46
		c-14.72,0-26.3,4.49-34.75,13.46c-8.45,8.98-12.68,22.12-12.68,39.44v97.04h-28.48v-171.86H1414.9z"/>
	<path class="st0" d="M1647.16-1711.87h23.47v23.16h-28.8c-29.85,0-44.76-14.72-44.76-44.14v-104.55h-22.23v-23.16h22.23v-42.57
		h28.8v42.57h44.45v23.16h-44.45v104.55c0,7.72,1.56,13.15,4.69,16.28C1633.7-1713.44,1639.23-1711.87,1647.16-1711.87z"/>
	<path class="st0" d="M1811.51-1688.71v-216.93h28.48v216.93H1811.51z"/>
	<path class="st0" d="M1923.26-1860.57v27.86c11.68-20.45,30.37-30.68,56.04-30.68c18.99,0,34.85,6.32,47.58,18.94
		c12.73,12.63,19.1,30.63,19.1,54v101.74h-28.18v-97.04c0-17.32-4.17-30.47-12.52-39.44s-19.88-13.46-34.59-13.46
		c-14.72,0-26.3,4.49-34.75,13.46c-8.45,8.98-12.68,22.12-12.68,39.44v97.04h-28.48v-171.86H1923.26z"/>
	<path class="st0" d="M2127.67-1860.57v27.86c11.68-20.45,30.37-30.68,56.04-30.68c18.99,0,34.85,6.32,47.58,18.94
		c12.73,12.63,19.1,30.63,19.1,54v101.74h-28.18v-97.04c0-17.32-4.17-30.47-12.52-39.44c-8.35-8.98-19.88-13.46-34.59-13.46
		c-14.72,0-26.3,4.49-34.75,13.46c-8.45,8.98-12.68,22.12-12.68,39.44v97.04h-28.48v-171.86H2127.67z"/>
	<path class="st0" d="M2315.96-1710.31c-15.76-16.28-23.63-37.66-23.63-64.17c0-26.5,8.24-47.94,24.73-64.33
		c16.48-16.38,37.14-24.57,61.98-24.57c24.83,0,45.5,8.2,61.99,24.57c16.48,16.39,24.73,37.77,24.73,64.17
		c0,26.41-8.61,47.79-25.83,64.17c-17.21,16.38-38.24,24.57-63.07,24.57C2352.01-1685.89,2331.71-1694.03,2315.96-1710.31z
		 M2376.84-1709.37c16.07,0,30-5.79,41.79-17.37c11.79-11.58,17.69-27.6,17.69-48.05c0-20.45-5.63-36.41-16.9-47.89
		c-11.27-11.48-25-17.22-41.16-17.22c-16.18,0-29.69,5.74-40.54,17.22c-10.85,11.48-16.28,27.49-16.28,48.05
		c0,20.56,5.21,36.57,15.65,48.05C2347.52-1715.11,2360.77-1709.37,2376.84-1709.37z"/>
	<path class="st0" d="M2489.53-1860.57h30.37l52.59,145.25l52.9-145.25h30.68l-67.3,171.86h-32.24L2489.53-1860.57z"/>
	<path class="st0" d="M2703.34-1711.09c-15.65-16.8-23.47-38.3-23.47-64.49c0-26.18,7.77-47.37,23.32-63.54
		c15.55-16.17,35.11-24.26,58.7-24.26c14.6,0,27.39,3.45,38.35,10.33c10.95,6.89,19.25,15.86,24.88,26.92v-34.43h28.8v171.86h-28.8
		v-35.06c-5.63,11.27-13.93,20.4-24.88,27.39c-10.96,7-23.74,10.49-38.35,10.49C2738.5-1685.89,2718.99-1694.29,2703.34-1711.09z
		 M2808.05-1727.84c11.37-11.68,17.06-27.23,17.06-46.64s-5.69-34.95-17.06-46.64c-11.37-11.68-25.04-17.53-41-17.53
		c-15.97,0-29.64,5.63-41.01,16.9c-11.38,11.27-17.06,26.61-17.06,46.02s5.74,35.16,17.22,47.27c11.47,12.11,25.14,18.16,41,18.16
		C2783.05-1710.31,2796.67-1716.15,2808.05-1727.84z"/>
	<path class="st0" d="M2965.04-1711.87h23.47v23.16h-28.8c-29.85,0-44.76-14.72-44.76-44.14v-104.55h-22.23v-23.16h22.23v-42.57
		h28.8v42.57h44.45v23.16h-44.45v104.55c0,7.72,1.56,13.15,4.69,16.28C2951.57-1713.44,2957.1-1711.87,2965.04-1711.87z"/>
	<path class="st0" d="M3055.82-1893.75c-3.76,3.76-8.35,5.63-13.77,5.63c-5.43,0-9.97-1.88-13.62-5.63
		c-3.65-3.76-5.48-8.34-5.48-13.77c0-5.42,1.88-10.02,5.63-13.77c3.76-3.76,8.3-5.63,13.62-5.63c5.32,0,9.86,1.88,13.62,5.63
		c3.76,3.76,5.63,8.35,5.63,13.77C3061.45-1902.09,3059.57-1897.5,3055.82-1893.75z M3027.64-1688.71v-171.86h28.48v171.86H3027.64z
		"/>
	<path class="st0" d="M3123.27-1710.31c-15.76-16.28-23.63-37.66-23.63-64.17c0-26.5,8.24-47.94,24.73-64.33
		c16.48-16.38,37.14-24.57,61.98-24.57c24.83,0,45.5,8.2,61.99,24.57c16.48,16.39,24.73,37.77,24.73,64.17
		c0,26.41-8.61,47.79-25.83,64.17c-17.21,16.38-38.24,24.57-63.07,24.57C3159.32-1685.89,3139.03-1694.03,3123.27-1710.31z
		 M3184.16-1709.37c16.07,0,30-5.79,41.79-17.37c11.79-11.58,17.69-27.6,17.69-48.05c0-20.45-5.63-36.41-16.9-47.89
		c-11.27-11.48-25-17.22-41.16-17.22c-16.18,0-29.69,5.74-40.54,17.22c-10.85,11.48-16.28,27.49-16.28,48.05
		c0,20.56,5.21,36.57,15.65,48.05C3154.83-1715.11,3168.09-1709.37,3184.16-1709.37z"/>
	<path class="st0" d="M3345.05-1860.57v27.86c11.68-20.45,30.37-30.68,56.04-30.68c18.99,0,34.85,6.32,47.58,18.94
		c12.73,12.63,19.1,30.63,19.1,54v101.74h-28.18v-97.04c0-17.32-4.17-30.47-12.52-39.44c-8.35-8.98-19.88-13.46-34.59-13.46
		c-14.72,0-26.3,4.49-34.75,13.46c-8.45,8.98-12.68,22.12-12.68,39.44v97.04h-28.48v-171.86H3345.05z"/>
	<path class="st0" d="M3514.72-1812.04c0-14.4,5.99-26.56,18-36.47c12-9.91,27.55-14.87,46.64-14.87c19.09,0,34.07,4.86,44.92,14.56
		c10.85,9.71,16.8,23.01,17.84,39.92h-29.43c-0.42-9.6-3.65-17.32-9.7-23.16c-6.06-5.84-14.45-8.77-25.2-8.77s-19.2,2.56-25.36,7.67
		c-6.16,5.12-9.23,11.69-9.23,19.72s3.49,14.24,10.49,18.62c6.99,4.38,15.45,7.57,25.36,9.55c9.91,1.98,19.82,4.28,29.74,6.89
		c9.91,2.61,18.36,7.51,25.35,14.72c6.99,7.2,10.49,17.42,10.49,30.68s-6,24.42-18,33.49c-12,9.08-27.6,13.62-46.8,13.62
		c-19.2,0-34.59-4.8-46.18-14.4c-11.58-9.6-17.89-22.85-18.93-39.75h29.42c0.42,9.6,3.8,17.27,10.17,23.01
		c6.37,5.75,15.13,8.61,26.3,8.61c11.16,0,19.92-2.39,26.29-7.2c6.36-4.8,9.54-10.9,9.54-18.31c0-7.4-2.5-13.31-7.51-17.69
		s-11.27-7.4-18.78-9.08c-7.51-1.67-15.7-3.65-24.57-5.95c-8.87-2.29-17.06-4.75-24.57-7.35c-7.51-2.61-13.77-7.14-18.78-13.62
		C3517.23-1794.09,3514.72-1802.23,3514.72-1812.04z"/>
	<path class="st0" d="M3795.19-1688.71v-216.93h122.08v22.85h-93.6v73.57h73.88v22.54h-73.88v97.98H3795.19z"/>
	<path class="st0" d="M3968.77-1710.31c-15.76-16.28-23.63-37.66-23.63-64.17c0-26.5,8.24-47.94,24.73-64.33
		c16.48-16.38,37.14-24.57,61.98-24.57c24.83,0,45.5,8.2,61.99,24.57c16.48,16.39,24.73,37.77,24.73,64.17
		c0,26.41-8.61,47.79-25.83,64.17c-17.21,16.38-38.24,24.57-63.07,24.57C4004.82-1685.89,3984.52-1694.03,3968.77-1710.31z
		 M4029.66-1709.37c16.07,0,30-5.79,41.79-17.37c11.79-11.58,17.69-27.6,17.69-48.05c0-20.45-5.63-36.41-16.9-47.89
		c-11.27-11.48-25-17.22-41.16-17.22c-16.18,0-29.69,5.74-40.54,17.22c-10.85,11.48-16.28,27.49-16.28,48.05
		c0,20.56,5.21,36.57,15.65,48.05C4000.33-1715.11,4013.58-1709.37,4029.66-1709.37z"/>
	<path class="st0" d="M4190.55-1860.57v29.11c10.22-21.29,27.65-31.93,52.28-31.93v29.74h-7.51c-14.61,0-25.72,3.81-33.34,11.43
		c-7.62,7.62-11.43,20.82-11.43,39.6v93.91h-28.48v-171.86H4190.55z"/>
	<path class="st0" d="M4524.56-1905.64h28.8v216.93h-28.8v-97.98h-109.25v97.98h-28.48v-216.93h28.48v96.41h109.25V-1905.64z"/>
	<path class="st0" d="M4680.14-1685.89c-24.63,0-44.66-8.14-60.1-24.42c-15.45-16.28-23.16-37.77-23.16-64.48
		c0-26.71,7.82-48.15,23.48-64.33c15.65-16.17,35.95-24.26,60.89-24.26s44.97,7.67,60.1,23.01c15.13,15.34,22.7,34.9,22.7,58.69
		c0,6.06-0.42,11.69-1.25,16.9h-136.8c0.83,17.11,6.21,30.63,16.12,40.54c9.91,9.91,22.59,14.87,38.04,14.87
		c11.68,0,21.54-2.61,29.58-7.83c8.03-5.21,13.93-12.1,17.68-20.66h30.68c-5.43,15.03-14.77,27.45-28.02,37.25
		C4716.81-1690.79,4700.17-1685.89,4680.14-1685.89z M4718.64-1825.04c-10.23-9.91-22.9-14.87-38.03-14.87s-27.7,4.85-37.72,14.56
		c-10.02,9.7-15.55,23.01-16.59,39.91h108C4734.08-1801.92,4728.86-1815.12,4718.64-1825.04z"/>
	<path class="st0" d="M4819.43-1711.09c-15.65-16.8-23.47-38.3-23.47-64.49c0-26.18,7.77-47.37,23.32-63.54
		c15.55-16.17,35.11-24.26,58.7-24.26c14.6,0,27.39,3.45,38.35,10.33c10.95,6.89,19.25,15.86,24.88,26.92v-34.43h28.8v171.86h-28.8
		v-35.06c-5.63,11.27-13.93,20.4-24.88,27.39c-10.96,7-23.74,10.49-38.35,10.49C4854.6-1685.89,4835.08-1694.29,4819.43-1711.09z
		 M4924.14-1727.84c11.37-11.68,17.06-27.23,17.06-46.64s-5.69-34.95-17.06-46.64c-11.37-11.68-25.04-17.53-41-17.53
		c-15.97,0-29.64,5.63-41.01,16.9c-11.38,11.27-17.06,26.61-17.06,46.02s5.74,35.16,17.22,47.27c11.47,12.11,25.14,18.16,41,18.16
		C4899.15-1710.31,4912.77-1716.15,4924.14-1727.84z"/>
	<path class="st0" d="M5024.79-1688.71v-231.65h28.48v231.65H5024.79z"/>
	<path class="st0" d="M5164.4-1711.87h23.47v23.16h-28.8c-29.85,0-44.76-14.72-44.76-44.14v-104.55h-22.23v-23.16h22.23v-42.57h28.8
		v42.57h44.45v23.16h-44.45v104.55c0,7.72,1.56,13.15,4.69,16.28C5150.93-1713.44,5156.46-1711.87,5164.4-1711.87z"/>
	<path class="st0" d="M5255.49-1920.36v87.65c11.68-20.45,30.37-30.68,56.04-30.68c18.99,0,34.85,6.32,47.58,18.94
		c12.73,12.63,19.1,30.63,19.1,54v101.74h-28.18v-97.04c0-17.32-4.17-30.47-12.52-39.44s-19.88-13.46-34.59-13.46
		c-14.72,0-26.3,4.49-34.75,13.46c-8.45,8.98-12.68,22.12-12.68,39.44v97.04H5227v-231.65H5255.49z"/>
	<path class="st0" d="M5443.31-1710.31c-15.45-16.28-23.16-37.72-23.16-64.33s7.72-48.05,23.16-64.33
		c15.44-16.28,35.48-24.42,60.1-24.42c20.66,0,37.51,4.8,50.55,14.4c13.04,9.6,22.18,23.27,27.39,41.01h-30.68
		c-3.34-10.02-9.08-17.84-17.21-23.47c-8.14-5.63-18.16-8.45-30.05-8.45c-16.28,0-29.38,5.69-39.29,17.06
		c-9.91,11.37-14.87,27.44-14.87,48.21c0,20.77,4.96,36.84,14.87,48.21c9.91,11.38,23.01,17.06,39.29,17.06
		c24.42,0,40.17-10.64,47.27-31.93h30.68c-5.22,16.9-14.46,30.36-27.7,40.38c-13.26,10.02-30,15.03-50.24,15.03
		C5478.79-1685.89,5458.75-1694.03,5443.31-1710.31z"/>
	<path class="st0" d="M5639.26-1711.09c-15.65-16.8-23.48-38.3-23.48-64.49c0-26.18,7.77-47.37,23.32-63.54
		c15.55-16.17,35.11-24.26,58.7-24.26c14.6,0,27.39,3.45,38.35,10.33c10.95,6.89,19.25,15.86,24.88,26.92v-34.43h28.8v171.86h-28.8
		v-35.06c-5.63,11.27-13.93,20.4-24.88,27.39c-10.96,7-23.74,10.49-38.35,10.49C5674.43-1685.89,5654.92-1694.29,5639.26-1711.09z
		 M5743.97-1727.84c11.37-11.68,17.06-27.23,17.06-46.64s-5.69-34.95-17.06-46.64c-11.37-11.68-25.04-17.53-41-17.53
		c-15.97,0-29.64,5.63-41.01,16.9c-11.38,11.27-17.06,26.61-17.06,46.02s5.74,35.16,17.22,47.27c11.47,12.11,25.14,18.16,41,18.16
		C5718.98-1710.31,5732.6-1716.15,5743.97-1727.84z"/>
	<path class="st0" d="M5873.1-1860.57v29.11c10.22-21.29,27.65-31.93,52.28-31.93v29.74h-7.51c-14.61,0-25.72,3.81-33.34,11.43
		c-7.62,7.62-11.43,20.82-11.43,39.6v93.91h-28.48v-171.86H5873.1z"/>
	<path class="st0" d="M6039.64-1685.89c-24.63,0-44.66-8.14-60.1-24.42c-15.45-16.28-23.16-37.77-23.16-64.48
		c0-26.71,7.82-48.15,23.47-64.33c15.65-16.17,35.95-24.26,60.89-24.26c24.94,0,44.97,7.67,60.1,23.01
		c15.13,15.34,22.7,34.9,22.7,58.69c0,6.06-0.42,11.69-1.25,16.9h-136.8c0.83,17.11,6.21,30.63,16.12,40.54
		c9.91,9.91,22.59,14.87,38.04,14.87c11.69,0,21.54-2.61,29.58-7.83c8.03-5.21,13.93-12.1,17.68-20.66h30.68
		c-5.43,15.03-14.77,27.45-28.02,37.25C6076.31-1690.79,6059.67-1685.89,6039.64-1685.89z M6078.14-1825.04
		c-10.23-9.91-22.9-14.87-38.03-14.87s-27.7,4.85-37.72,14.56c-10.02,9.7-15.55,23.01-16.59,39.91h108
		C6093.59-1801.92,6088.37-1815.12,6078.14-1825.04z"/>
</g>
<g>
	<g>
		<g>
			<path class="st0" d="M-357.55-1821.86v271.17h-502.22v-1335.88h220.98v-281.25h-502.16v783.49h-552.47v-502.24h271.18v-281.25
				h-291.31c-143.93,0-261.16,117.19-261.16,261.16v542.38c0,144,117.23,261.16,261.16,261.16h572.6v572.55
				c0,144.01,117.07,261.16,261.12,261.16h542.35c144.05,0,261.13-117.16,261.13-261.16v-291.3H-357.55z"/>
		</g>
		<g>
			<path class="st1" d="M496.22-3167.82H-76.34v-572.52c0-143.96-117.08-261.12-261.13-261.12h-542.35
				c-144.05,0-261.12,117.16-261.12,261.12v291.27h281.18v-271.17h502.22v1335.91h-220.97v281.22h502.18v-783.45h552.46v502.24
				H204.95v281.22h291.26c143.97,0,261.19-117.16,261.19-261.16v-542.38C757.41-3050.63,640.19-3167.82,496.22-3167.82z"/>
		</g>
	</g>
</g>
<g>
	<path class="st0" d="M1349.3-3155.83v1057.17h-306.7v-1057.17H1349.3z"/>
	<path class="st0" d="M2257.77-2098.65h-282.69v-573.12c0-58.34-16.26-87.52-48.79-87.52c-33.05,0-61.71,23.12-85.97,69.32
		c-24.27,46.21-36.4,100.82-36.4,163.8v427.52h-282.69v-782.23c97.07,0,191.3-6.45,282.69-19.36v146.38
		c70.21-97.07,155.93-145.6,257.13-145.6c131.15,0,196.72,66.6,196.72,199.82V-2098.65z"/>
	<path class="st0" d="M2824.69-2879.34v87.52h-111.52v693.17h-282.69v-693.17h-99.13v-87.52h99.13v-69.7
		c0-64.02,22.58-117.2,67.77-159.54c45.18-42.33,101.85-63.51,170-63.51c136.31,0,204.46,51.12,204.46,153.35
		c0,7.74-0.26,17.56-0.77,29.43l-133.99,47.24c7.23-26.84,10.84-48.02,10.84-63.51c0-54.72-19.11-82.1-57.31-82.1
		c-33.05,0-49.57,24.01-49.57,72.03c0,29.43,23.74,74.87,71.26,136.31H2824.69z"/>
	<path class="st0" d="M2920.72-2098.65v-779.91c88.29,0,182.52-6.97,282.69-20.91v800.82H2920.72z M3064-3182.16
		c87.78,0,131.66,34.08,131.66,102.23c0,68.15-43.89,102.23-131.66,102.23c-87.78,0-131.66-34.08-131.66-102.23
		C2932.34-3148.08,2976.22-3182.16,3064-3182.16z"/>
	<path class="st0" d="M3924.46-2595.87h-193.62c6.7-30.46,12.65-52.92,17.81-67.38c7.22-21.17,10.84-40.27,10.84-57.31
		c0-33.04-11.88-49.57-35.63-49.57c-18.08,0-35.37,21.82-51.89,65.45c-16.53,43.64-24.78,89.72-24.78,138.24v467.79h-282.69v-780.69
		l54.99,0.78c65.06,0,140.95-6.97,227.7-20.91v128.56c45.95-85.7,102.23-128.56,168.84-128.56c90.87,0,136.31,50.08,136.31,150.25
		c0,26.33-4.39,56.54-13.17,90.62C3936.08-2644.67,3931.16-2623.76,3924.46-2595.87z"/>
	<path class="st0" d="M5185.33-2098.65h-282.69v-586.28c0-51.12-14.98-76.67-44.92-76.67c-69.2,0-103.78,73.58-103.78,220.73v442.23
		h-282.69v-573.89c0-58.34-13.43-87.52-40.27-87.52c-70.22,0-105.33,73.32-105.33,219.95v441.46h-282.69v-783.01
		c95.51,0,189.75-6.45,282.69-19.36v134.76c66.6-89.32,148.7-133.98,246.29-133.98c81.57,0,142.24,42.09,182,126.24
		c62.99-85.19,141.73-127.79,236.22-127.79c130.11,0,195.17,65.83,195.17,197.49V-2098.65z"/>
	<path class="st0" d="M6131.75-2126.54c-69.2,26.85-136.58,40.27-202.14,40.27c-97.08,0-156.97-30.2-179.69-90.61
		c-46.99,63-114.62,94.48-202.91,94.48c-164.71,0-247.06-76.41-247.06-229.24c0-116.17,75.38-197.75,226.15-244.74
		c138.37-43.37,207.56-95.52,207.56-156.45c0-80.03-39.76-120.05-119.27-120.05c-91.91,0-137.85,38.73-137.85,116.17
		c0,24.27,7.22,56.28,21.69,96.03l-140.19-27.1c-3.62-24.26-5.42-46.98-5.42-68.16c0-123.92,113.08-185.88,339.23-185.88
		c214.78,0,322.19,57.83,322.19,173.49v473.98c0,48.54,15.74,72.8,47.24,72.8c9.8,0,24.26-5.42,43.37-16.26L6131.75-2126.54z
		 M5731.34-2567.99c-17.56,20.13-37.95,36.92-61.18,50.34c-58.36,34.08-87.52,91.39-87.52,171.94c0,103.27,20.13,154.9,60.41,154.9
		c58.86,0,88.29-51.12,88.29-153.35V-2567.99z"/>
</g>
<g>
	<path class="st2" d="M1879.35-397.68h5.28v40.42h-5.28V-397.68z"/>
	<path class="st2" d="M1918.32-375.23c0-6.5-3.54-9.8-8.87-9.8c-5.39,0-9.11,3.36-9.11,10.21v17.57h-5.28v-31.78h5.28v4.52
		c2.09-3.31,5.92-5.1,10.21-5.1c7.37,0,12.99,4.52,12.99,13.63v18.73h-5.22V-375.23z"/>
	<path class="st2" d="M1934.79-384.68h-4.12v-4.35h4.12v-8h5.28v8h8.29v4.35h-8.29v18.73c0,3.13,1.16,4.23,4.41,4.23h3.89v4.47
		h-4.76c-5.63,0-8.82-2.32-8.82-8.7V-384.68z"/>
	<path class="st2" d="M1969.94-356.73c-9.05,0-15.72-6.38-15.72-16.47c0-10.03,6.44-16.36,15.72-16.36c9.22,0,15.25,6.5,15.25,15.2
		c0,1.16-0.06,2.09-0.17,3.19h-25.4c0.41,6.44,4.93,9.98,10.32,9.98c4.76,0,7.77-2.44,8.93-5.86h5.68
		C1982.93-361.25,1977.83-356.73,1969.94-356.73z M1959.67-375.46h20.07c0.06-6.21-4.58-9.63-10.03-9.63
		C1964.55-385.09,1960.25-381.67,1959.67-375.46z"/>
	<path class="st2" d="M1993.6-400.17h5.28v42.92h-5.28V-400.17z"/>
	<path class="st2" d="M2009.32-400.17h5.28v42.92h-5.28V-400.17z"/>
	<path class="st2" d="M2024.17-397.79c0-2.03,1.57-3.6,3.6-3.6c1.91,0,3.48,1.57,3.48,3.6s-1.57,3.6-3.48,3.6
		C2025.73-394.2,2024.17-395.76,2024.17-397.79z M2025.04-389.03h5.28v31.78h-5.28V-389.03z"/>
	<path class="st2" d="M2053.86-389.56c5.8,0,9.98,2.9,11.83,6.32v-5.8h5.34v32.48c0,8.76-5.86,14.96-15.2,14.96
		c-8.35,0-14.33-4.23-15.37-11.02h5.22c1.16,3.83,4.93,6.44,10.15,6.44c5.63,0,9.86-3.6,9.86-10.38v-6.67
		c-1.91,3.42-6.03,6.5-11.83,6.5c-8.53,0-15.08-6.67-15.08-16.53C2038.78-383.18,2045.34-389.56,2053.86-389.56z M2054.91-384.97
		c-5.8,0-10.73,4.23-10.73,11.72c0,7.48,4.93,11.89,10.73,11.89s10.79-4.35,10.79-11.83
		C2065.7-380.57,2060.71-384.97,2054.91-384.97z"/>
	<path class="st2" d="M2095.16-356.73c-9.05,0-15.72-6.38-15.72-16.47c0-10.03,6.44-16.36,15.72-16.36c9.22,0,15.25,6.5,15.25,15.2
		c0,1.16-0.06,2.09-0.17,3.19h-25.4c0.41,6.44,4.93,9.98,10.32,9.98c4.76,0,7.77-2.44,8.93-5.86h5.68
		C2108.15-361.25,2103.05-356.73,2095.16-356.73z M2084.89-375.46h20.07c0.06-6.21-4.58-9.63-10.03-9.63
		C2089.77-385.09,2085.47-381.67,2084.89-375.46z"/>
	<path class="st2" d="M2142.08-375.23c0-6.5-3.54-9.8-8.87-9.8c-5.39,0-9.11,3.36-9.11,10.21v17.57h-5.28v-31.78h5.28v4.52
		c2.09-3.31,5.92-5.1,10.21-5.1c7.37,0,12.99,4.52,12.99,13.63v18.73h-5.22V-375.23z"/>
	<path class="st2" d="M2158.55-384.68h-4.12v-4.35h4.12v-8h5.28v8h8.29v4.35h-8.29v18.73c0,3.13,1.16,4.23,4.41,4.23h3.89v4.47
		h-4.76c-5.63,0-8.82-2.32-8.82-8.7V-384.68z"/>
	<path class="st2" d="M2196.89-397.68h5.28v40.42h-5.28V-397.68z"/>
	<path class="st2" d="M2235.87-375.23c0-6.5-3.54-9.8-8.87-9.8c-5.39,0-9.11,3.36-9.11,10.21v17.57h-5.28v-31.78h5.28v4.52
		c2.09-3.31,5.92-5.1,10.21-5.1c7.37,0,12.99,4.52,12.99,13.63v18.73h-5.22V-375.23z"/>
	<path class="st2" d="M2274.44-375.23c0-6.5-3.54-9.8-8.87-9.8c-5.39,0-9.11,3.36-9.11,10.21v17.57h-5.28v-31.78h5.28v4.52
		c2.09-3.31,5.92-5.1,10.21-5.1c7.37,0,12.99,4.52,12.99,13.63v18.73h-5.22V-375.23z"/>
	<path class="st2" d="M2303.61-356.73c-8.99,0-15.83-6.38-15.83-16.47c0-10.03,7.08-16.36,16.07-16.36
		c9.05,0,16.07,6.32,16.07,16.36C2319.91-363.11,2312.66-356.73,2303.61-356.73z M2303.61-361.37c5.51,0,10.9-3.77,10.9-11.83
		c0-8-5.28-11.77-10.73-11.77c-5.57,0-10.61,3.77-10.61,11.77C2293.17-365.14,2298.1-361.37,2303.61-361.37z"/>
	<path class="st2" d="M2330.23-389.03l9.92,26.91l9.86-26.91h5.63l-12.47,31.78h-6.15l-12.47-31.78H2330.23z"/>
	<path class="st2" d="M2375.41-389.56c5.92,0,9.98,3.02,11.83,6.32v-5.8h5.34v31.78h-5.34v-5.92c-1.91,3.42-6.03,6.44-11.89,6.44
		c-8.47,0-15.02-6.67-15.02-16.53C2360.33-383.18,2366.89-389.56,2375.41-389.56z M2376.46-384.97c-5.8,0-10.73,4.23-10.73,11.72
		c0,7.48,4.93,11.89,10.73,11.89s10.79-4.35,10.79-11.83C2387.24-380.57,2382.26-384.97,2376.46-384.97z"/>
	<path class="st2" d="M2404.12-384.68h-4.12v-4.35h4.12v-8h5.28v8h8.29v4.35h-8.29v18.73c0,3.13,1.16,4.23,4.41,4.23h3.89v4.47
		h-4.76c-5.63,0-8.82-2.32-8.82-8.7V-384.68z"/>
	<path class="st2" d="M2424.66-397.79c0-2.03,1.57-3.6,3.6-3.6c1.91,0,3.48,1.57,3.48,3.6s-1.57,3.6-3.48,3.6
		C2426.22-394.2,2424.66-395.76,2424.66-397.79z M2425.53-389.03h5.28v31.78h-5.28V-389.03z"/>
	<path class="st2" d="M2455.1-356.73c-8.99,0-15.83-6.38-15.83-16.47c0-10.03,7.08-16.36,16.07-16.36c9.05,0,16.07,6.32,16.07,16.36
		C2471.4-363.11,2464.15-356.73,2455.1-356.73z M2455.1-361.37c5.51,0,10.9-3.77,10.9-11.83c0-8-5.28-11.77-10.73-11.77
		c-5.57,0-10.61,3.77-10.61,11.77C2444.66-365.14,2449.59-361.37,2455.1-361.37z"/>
	<path class="st2" d="M2503.07-375.23c0-6.5-3.54-9.8-8.87-9.8c-5.39,0-9.11,3.36-9.11,10.21v17.57h-5.28v-31.78h5.28v4.52
		c2.09-3.31,5.92-5.1,10.21-5.1c7.37,0,12.99,4.52,12.99,13.63v18.73h-5.22V-375.23z"/>
	<path class="st2" d="M2529.63-356.73c-7.42,0-12.64-4.06-12.99-9.86h5.45c0.29,3.07,3.02,5.39,7.48,5.39c4.18,0,6.5-2.09,6.5-4.7
		c0-7.08-18.79-2.96-18.79-14.79c0-4.87,4.58-8.87,11.66-8.87c7.02,0,11.66,3.77,12.01,9.98h-5.28c-0.23-3.19-2.67-5.51-6.9-5.51
		c-3.89,0-6.21,1.86-6.21,4.41c0,7.54,18.44,3.42,18.68,14.79C2541.23-360.67,2536.65-356.73,2529.63-356.73z"/>
	<path class="st2" d="M2567.04-397.68h22.85v4.29h-17.57v13.63h14.27v4.29h-14.27v18.21h-5.28V-397.68z"/>
	<path class="st2" d="M2611.59-356.73c-8.99,0-15.83-6.38-15.83-16.47c0-10.03,7.08-16.36,16.07-16.36
		c9.05,0,16.07,6.32,16.07,16.36C2627.88-363.11,2620.63-356.73,2611.59-356.73z M2611.59-361.37c5.51,0,10.9-3.77,10.9-11.83
		c0-8-5.28-11.77-10.73-11.77c-5.57,0-10.61,3.77-10.61,11.77C2601.15-365.14,2606.08-361.37,2611.59-361.37z"/>
	<path class="st2" d="M2641.57-357.25h-5.28v-31.78h5.28v5.16c1.8-3.54,5.22-5.74,10.27-5.74v5.45h-1.39
		c-5.05,0-8.87,2.26-8.87,9.63V-357.25z"/>
	<path class="st2" d="M2702.18-375.58h-20.59v18.33h-5.28v-40.42h5.28v17.75h20.59v-17.75h5.28v40.42h-5.28V-375.58z"/>
	<path class="st2" d="M2731.59-356.73c-9.05,0-15.72-6.38-15.72-16.47c0-10.03,6.44-16.36,15.72-16.36c9.22,0,15.25,6.5,15.25,15.2
		c0,1.16-0.06,2.09-0.17,3.19h-25.4c0.41,6.44,4.93,9.98,10.32,9.98c4.76,0,7.77-2.44,8.93-5.86h5.68
		C2744.58-361.25,2739.48-356.73,2731.59-356.73z M2721.32-375.46h20.07c0.06-6.21-4.58-9.63-10.03-9.63
		C2726.19-385.09,2721.9-381.67,2721.32-375.46z"/>
	<path class="st2" d="M2768.36-389.56c5.92,0,9.98,3.02,11.83,6.32v-5.8h5.34v31.78h-5.34v-5.92c-1.91,3.42-6.03,6.44-11.89,6.44
		c-8.47,0-15.02-6.67-15.02-16.53C2753.28-383.18,2759.83-389.56,2768.36-389.56z M2769.4-384.97c-5.8,0-10.73,4.23-10.73,11.72
		c0,7.48,4.93,11.89,10.73,11.89s10.79-4.35,10.79-11.83C2780.19-380.57,2775.2-384.97,2769.4-384.97z"/>
	<path class="st2" d="M2795.91-400.17h5.28v42.92h-5.28V-400.17z"/>
	<path class="st2" d="M2812.79-384.68h-4.12v-4.35h4.12v-8h5.28v8h8.29v4.35h-8.29v18.73c0,3.13,1.16,4.23,4.41,4.23h3.89v4.47
		h-4.76c-5.63,0-8.82-2.32-8.82-8.7V-384.68z"/>
	<path class="st2" d="M2834.19-400.17h5.28v15.72c2.09-3.36,6.03-5.16,10.5-5.16c7.08,0,12.7,4.52,12.7,13.63v18.73h-5.22v-17.98
		c0-6.5-3.54-9.8-8.87-9.8c-5.39,0-9.11,3.36-9.11,10.21v17.57h-5.28V-400.17z"/>
	<path class="st2" d="M2886.27-389.56c7.89,0,13.05,4.06,14.67,10.73h-5.68c-1.1-3.83-4.29-6.26-8.99-6.26
		c-5.8,0-10.09,4.12-10.09,11.89c0,7.89,4.29,12,10.09,12c4.7,0,7.83-2.26,8.99-6.26h5.68c-1.62,6.32-6.79,10.73-14.67,10.73
		c-9.05,0-15.49-6.38-15.49-16.47C2870.79-383.18,2877.22-389.56,2886.27-389.56z"/>
	<path class="st2" d="M2922.52-389.56c5.92,0,9.98,3.02,11.83,6.32v-5.8h5.34v31.78h-5.34v-5.92c-1.91,3.42-6.03,6.44-11.89,6.44
		c-8.47,0-15.02-6.67-15.02-16.53C2907.44-383.18,2914-389.56,2922.52-389.56z M2923.57-384.97c-5.8,0-10.73,4.23-10.73,11.72
		c0,7.48,4.93,11.89,10.73,11.89s10.79-4.35,10.79-11.83C2934.35-380.57,2929.37-384.97,2923.57-384.97z"/>
	<path class="st2" d="M2955.35-357.25h-5.28v-31.78h5.28v5.16c1.8-3.54,5.22-5.74,10.27-5.74v5.45h-1.39
		c-5.05,0-8.87,2.26-8.87,9.63V-357.25z"/>
	<path class="st2" d="M2986.9-356.73c-9.05,0-15.72-6.38-15.72-16.47c0-10.03,6.44-16.36,15.72-16.36c9.22,0,15.25,6.5,15.25,15.2
		c0,1.16-0.06,2.09-0.17,3.19h-25.4c0.41,6.44,4.93,9.98,10.32,9.98c4.76,0,7.77-2.44,8.93-5.86h5.68
		C2999.89-361.25,2994.79-356.73,2986.9-356.73z M2976.64-375.46h20.07c0.06-6.21-4.58-9.63-10.03-9.63
		C2981.51-385.09,2977.22-381.67,2976.64-375.46z"/>
</g>
<g>
	<g>
		<g>
			<path class="st2" d="M-4539.79-2528.59v50.33h-93.22v-247.97h41.02v-52.21h-93.21V-2633h-102.55v-93.23h50.34v-52.21h-54.07
				c-26.72,0-48.48,21.75-48.48,48.48v100.68c0,26.73,21.76,48.48,48.48,48.48h106.29v106.28c0,26.73,21.73,48.48,48.47,48.48
				h100.67c26.74,0,48.47-21.75,48.47-48.48v-54.07H-4539.79z"/>
		</g>
		<g>
			<path class="st2" d="M-4381.31-2778.43h-106.28v-106.27c0-26.72-21.73-48.47-48.47-48.47h-100.67
				c-26.74,0-48.47,21.75-48.47,48.47v54.07h52.19v-50.33h93.22V-2633h-41.02v52.2h93.22v-145.43h102.55v93.23h-50.33v52.2h54.06
				c26.72,0,48.48-21.75,48.48-48.48v-100.68C-4332.83-2756.68-4354.59-2778.43-4381.31-2778.43z"/>
		</g>
	</g>
</g>
<g>
	<path class="st2" d="M2111.38-629.3v195.95h-56.85V-629.3H2111.38z"/>
	<path class="st2" d="M2279.77-433.35h-52.4v-106.23c0-10.81-3.01-16.22-9.04-16.22c-6.13,0-11.44,4.28-15.93,12.85
		c-4.5,8.57-6.75,18.69-6.75,30.36v79.24h-52.4v-144.99c17.99,0,35.46-1.2,52.4-3.59v27.13c13.01-17.99,28.9-26.99,47.66-26.99
		c24.31,0,36.46,12.35,36.46,37.04V-433.35z"/>
	<path class="st2" d="M2384.86-578.05v16.22h-20.67v128.48h-52.4v-128.48h-18.38v-16.22h18.38v-12.92
		c0-11.87,4.19-21.72,12.56-29.57c8.37-7.85,18.88-11.77,31.51-11.77c25.27,0,37.9,9.47,37.9,28.42c0,1.44-0.05,3.25-0.14,5.46
		l-24.83,8.76c1.34-4.97,2.01-8.9,2.01-11.77c0-10.14-3.54-15.22-10.62-15.22c-6.13,0-9.19,4.45-9.19,13.35
		c0,5.46,4.4,13.88,13.21,25.27H2384.86z"/>
	<path class="st2" d="M2402.66-433.35V-577.9c16.37,0,33.83-1.29,52.4-3.88v148.44H2402.66z M2429.21-634.18
		c16.27,0,24.4,6.32,24.4,18.95s-8.14,18.95-24.4,18.95c-16.27,0-24.4-6.32-24.4-18.95S2412.94-634.18,2429.21-634.18z"/>
	<path class="st2" d="M2588.7-525.51h-35.89c1.24-5.65,2.34-9.81,3.3-12.49c1.34-3.92,2.01-7.46,2.01-10.62
		c0-6.12-2.2-9.19-6.6-9.19c-3.35,0-6.56,4.04-9.62,12.13c-3.06,8.09-4.59,16.63-4.59,25.63v86.71h-52.4v-144.7l10.19,0.14
		c12.06,0,26.13-1.29,42.21-3.88v23.83c8.52-15.88,18.95-23.83,31.29-23.83c16.84,0,25.27,9.28,25.27,27.85
		c0,4.88-0.81,10.48-2.44,16.8C2590.86-534.55,2589.95-530.68,2588.7-525.51z"/>
	<path class="st2" d="M2822.41-433.35h-52.4v-108.67c0-9.47-2.78-14.21-8.33-14.21c-12.83,0-19.24,13.64-19.24,40.91v81.97h-52.4
		v-106.37c0-10.81-2.49-16.22-7.46-16.22c-13.02,0-19.52,13.59-19.52,40.77v81.83h-52.4v-145.13c17.7,0,35.17-1.2,52.4-3.59v24.98
		c12.35-16.56,27.56-24.83,45.65-24.83c15.12,0,26.36,7.8,33.74,23.4c11.67-15.79,26.27-23.69,43.78-23.69
		c24.12,0,36.18,12.2,36.18,36.61V-433.35z"/>
	<path class="st2" d="M2997.83-438.51c-12.83,4.98-25.32,7.46-37.47,7.46c-17.99,0-29.09-5.6-33.3-16.8
		c-8.71,11.68-21.25,17.51-37.61,17.51c-30.53,0-45.79-14.16-45.79-42.49c0-21.53,13.97-36.65,41.92-45.36
		c25.65-8.04,38.47-17.7,38.47-29c0-14.83-7.37-22.25-22.11-22.25c-17.04,0-25.55,7.18-25.55,21.53c0,4.5,1.34,10.43,4.02,17.8
		l-25.98-5.02c-0.67-4.5-1-8.71-1-12.63c0-22.97,20.96-34.45,62.88-34.45c39.81,0,59.72,10.72,59.72,32.16v87.86
		c0,9,2.92,13.49,8.76,13.49c1.82,0,4.5-1,8.04-3.01L2997.83-438.51z M2923.62-520.34c-3.25,3.73-7.03,6.84-11.34,9.33
		c-10.82,6.32-16.22,16.94-16.22,31.87c0,19.14,3.73,28.71,11.2,28.71c10.91,0,16.37-9.47,16.37-28.42V-520.34z"/>
</g>
<g>
	<g>
		<path class="st0" d="M1859.43,166.07h5.28v40.42h-5.28V166.07z"/>
		<path class="st0" d="M1898.41,188.51c0-6.5-3.54-9.8-8.87-9.8c-5.39,0-9.11,3.36-9.11,10.21v17.57h-5.28v-31.78h5.28v4.52
			c2.09-3.31,5.92-5.1,10.21-5.1c7.37,0,12.99,4.52,12.99,13.63v18.73h-5.22V188.51z"/>
		<path class="st0" d="M1914.88,179.06h-4.12v-4.35h4.12v-8h5.28v8h8.29v4.35h-8.29v18.73c0,3.13,1.16,4.23,4.41,4.23h3.89v4.47
			h-4.76c-5.63,0-8.82-2.32-8.82-8.7V179.06z"/>
		<path class="st0" d="M1950.03,207.02c-9.05,0-15.72-6.38-15.72-16.47c0-10.03,6.44-16.36,15.72-16.36c9.22,0,15.25,6.5,15.25,15.2
			c0,1.16-0.06,2.09-0.17,3.19h-25.4c0.41,6.44,4.93,9.98,10.32,9.98c4.76,0,7.77-2.44,8.93-5.86h5.68
			C1963.02,202.49,1957.91,207.02,1950.03,207.02z M1939.76,188.28h20.07c0.06-6.21-4.58-9.63-10.03-9.63
			C1944.63,178.65,1940.34,182.08,1939.76,188.28z"/>
		<path class="st0" d="M1973.69,163.58h5.28v42.92h-5.28V163.58z"/>
		<path class="st0" d="M1989.41,163.58h5.28v42.92h-5.28V163.58z"/>
		<path class="st0" d="M2004.25,165.95c0-2.03,1.57-3.6,3.6-3.6c1.91,0,3.48,1.57,3.48,3.6s-1.57,3.6-3.48,3.6
			C2005.82,169.55,2004.25,167.98,2004.25,165.95z M2005.12,174.71h5.28v31.78h-5.28V174.71z"/>
		<path class="st0" d="M2033.95,174.19c5.8,0,9.98,2.9,11.83,6.32v-5.8h5.34v32.48c0,8.76-5.86,14.96-15.2,14.96
			c-8.35,0-14.33-4.23-15.37-11.02h5.22c1.16,3.83,4.93,6.44,10.15,6.44c5.63,0,9.86-3.6,9.86-10.38v-6.67
			c-1.91,3.42-6.03,6.5-11.83,6.5c-8.53,0-15.08-6.67-15.08-16.53C2018.87,180.57,2025.42,174.19,2033.95,174.19z M2034.99,178.77
			c-5.8,0-10.73,4.23-10.73,11.72c0,7.48,4.93,11.89,10.73,11.89s10.79-4.35,10.79-11.83
			C2045.78,183.18,2040.79,178.77,2034.99,178.77z"/>
		<path class="st0" d="M2075.24,207.02c-9.05,0-15.72-6.38-15.72-16.47c0-10.03,6.44-16.36,15.72-16.36c9.22,0,15.25,6.5,15.25,15.2
			c0,1.16-0.06,2.09-0.17,3.19h-25.4c0.41,6.44,4.93,9.98,10.32,9.98c4.76,0,7.77-2.44,8.93-5.86h5.68
			C2088.24,202.49,2083.13,207.02,2075.24,207.02z M2064.98,188.28h20.07c0.06-6.21-4.58-9.63-10.03-9.63
			C2069.85,178.65,2065.56,182.08,2064.98,188.28z"/>
		<path class="st0" d="M2122.17,188.51c0-6.5-3.54-9.8-8.87-9.8c-5.39,0-9.11,3.36-9.11,10.21v17.57h-5.28v-31.78h5.28v4.52
			c2.09-3.31,5.92-5.1,10.21-5.1c7.37,0,12.99,4.52,12.99,13.63v18.73h-5.22V188.51z"/>
		<path class="st0" d="M2138.64,179.06h-4.12v-4.35h4.12v-8h5.28v8h8.29v4.35h-8.29v18.73c0,3.13,1.16,4.23,4.41,4.23h3.89v4.47
			h-4.76c-5.63,0-8.82-2.32-8.82-8.7V179.06z"/>
		<path class="st0" d="M2176.98,166.07h5.28v40.42h-5.28V166.07z"/>
		<path class="st0" d="M2215.95,188.51c0-6.5-3.54-9.8-8.87-9.8c-5.39,0-9.11,3.36-9.11,10.21v17.57h-5.28v-31.78h5.28v4.52
			c2.09-3.31,5.92-5.1,10.21-5.1c7.37,0,12.99,4.52,12.99,13.63v18.73h-5.22V188.51z"/>
		<path class="st0" d="M2254.52,188.51c0-6.5-3.54-9.8-8.87-9.8c-5.39,0-9.11,3.36-9.11,10.21v17.57h-5.28v-31.78h5.28v4.52
			c2.09-3.31,5.92-5.1,10.21-5.1c7.37,0,12.99,4.52,12.99,13.63v18.73h-5.22V188.51z"/>
		<path class="st0" d="M2283.7,207.02c-8.99,0-15.83-6.38-15.83-16.47c0-10.03,7.08-16.36,16.07-16.36
			c9.05,0,16.07,6.32,16.07,16.36C2299.99,200.64,2292.74,207.02,2283.7,207.02z M2283.7,202.38c5.51,0,10.9-3.77,10.9-11.83
			c0-8-5.28-11.77-10.73-11.77c-5.57,0-10.61,3.77-10.61,11.77C2273.26,198.61,2278.19,202.38,2283.7,202.38z"/>
		<path class="st0" d="M2310.32,174.71l9.92,26.91l9.86-26.91h5.63l-12.47,31.78h-6.15l-12.47-31.78H2310.32z"/>
		<path class="st0" d="M2355.5,174.19c5.92,0,9.98,3.02,11.83,6.32v-5.8h5.34v31.78h-5.34v-5.92c-1.91,3.42-6.03,6.44-11.89,6.44
			c-8.47,0-15.02-6.67-15.02-16.53C2340.42,180.57,2346.97,174.19,2355.5,174.19z M2356.54,178.77c-5.8,0-10.73,4.23-10.73,11.72
			c0,7.48,4.93,11.89,10.73,11.89s10.79-4.35,10.79-11.83C2367.33,183.18,2362.34,178.77,2356.54,178.77z"/>
		<path class="st0" d="M2384.21,179.06h-4.12v-4.35h4.12v-8h5.28v8h8.29v4.35h-8.29v18.73c0,3.13,1.16,4.23,4.41,4.23h3.89v4.47
			h-4.76c-5.63,0-8.82-2.32-8.82-8.7V179.06z"/>
		<path class="st0" d="M2404.74,165.95c0-2.03,1.57-3.6,3.6-3.6c1.91,0,3.48,1.57,3.48,3.6s-1.57,3.6-3.48,3.6
			C2406.31,169.55,2404.74,167.98,2404.74,165.95z M2405.61,174.71h5.28v31.78h-5.28V174.71z"/>
		<path class="st0" d="M2435.19,207.02c-8.99,0-15.83-6.38-15.83-16.47c0-10.03,7.08-16.36,16.07-16.36
			c9.05,0,16.07,6.32,16.07,16.36C2451.49,200.64,2444.24,207.02,2435.19,207.02z M2435.19,202.38c5.51,0,10.9-3.77,10.9-11.83
			c0-8-5.28-11.77-10.73-11.77c-5.57,0-10.61,3.77-10.61,11.77C2424.75,198.61,2429.68,202.38,2435.19,202.38z"/>
		<path class="st0" d="M2483.16,188.51c0-6.5-3.54-9.8-8.87-9.8c-5.39,0-9.11,3.36-9.11,10.21v17.57h-5.28v-31.78h5.28v4.52
			c2.09-3.31,5.92-5.1,10.21-5.1c7.37,0,12.99,4.52,12.99,13.63v18.73h-5.22V188.51z"/>
		<path class="st0" d="M2509.72,207.02c-7.42,0-12.64-4.06-12.99-9.86h5.45c0.29,3.07,3.02,5.39,7.48,5.39c4.18,0,6.5-2.09,6.5-4.7
			c0-7.08-18.79-2.96-18.79-14.79c0-4.87,4.58-8.87,11.66-8.87c7.02,0,11.66,3.77,12.01,9.98h-5.28c-0.23-3.19-2.67-5.51-6.9-5.51
			c-3.89,0-6.21,1.86-6.21,4.41c0,7.54,18.44,3.42,18.68,14.79C2521.32,203.07,2516.74,207.02,2509.72,207.02z"/>
		<path class="st0" d="M2547.13,166.07h22.85v4.29h-17.57v13.63h14.27v4.29h-14.27v18.21h-5.28V166.07z"/>
		<path class="st0" d="M2591.67,207.02c-8.99,0-15.83-6.38-15.83-16.47c0-10.03,7.08-16.36,16.07-16.36
			c9.05,0,16.07,6.32,16.07,16.36C2607.97,200.64,2600.72,207.02,2591.67,207.02z M2591.67,202.38c5.51,0,10.9-3.77,10.9-11.83
			c0-8-5.28-11.77-10.73-11.77c-5.57,0-10.61,3.77-10.61,11.77C2581.23,198.61,2586.16,202.38,2591.67,202.38z"/>
		<path class="st0" d="M2621.66,206.49h-5.28v-31.78h5.28v5.16c1.8-3.54,5.22-5.74,10.27-5.74v5.45h-1.39
			c-5.05,0-8.87,2.26-8.87,9.63V206.49z"/>
		<path class="st0" d="M2682.27,188.17h-20.59v18.33h-5.28v-40.42h5.28v17.75h20.59v-17.75h5.28v40.42h-5.28V188.17z"/>
		<path class="st0" d="M2711.67,207.02c-9.05,0-15.72-6.38-15.72-16.47c0-10.03,6.44-16.36,15.72-16.36c9.22,0,15.25,6.5,15.25,15.2
			c0,1.16-0.06,2.09-0.17,3.19h-25.4c0.41,6.44,4.93,9.98,10.32,9.98c4.76,0,7.77-2.44,8.93-5.86h5.68
			C2724.66,202.49,2719.56,207.02,2711.67,207.02z M2701.41,188.28h20.07c0.06-6.21-4.58-9.63-10.03-9.63
			C2706.28,178.65,2701.99,182.08,2701.41,188.28z"/>
		<path class="st0" d="M2748.44,174.19c5.92,0,9.98,3.02,11.83,6.32v-5.8h5.34v31.78h-5.34v-5.92c-1.91,3.42-6.03,6.44-11.89,6.44
			c-8.47,0-15.02-6.67-15.02-16.53C2733.36,180.57,2739.92,174.19,2748.44,174.19z M2749.49,178.77c-5.8,0-10.73,4.23-10.73,11.72
			c0,7.48,4.93,11.89,10.73,11.89s10.79-4.35,10.79-11.83C2760.28,183.18,2755.29,178.77,2749.49,178.77z"/>
		<path class="st0" d="M2775.99,163.58h5.28v42.92h-5.28V163.58z"/>
		<path class="st0" d="M2792.87,179.06h-4.12v-4.35h4.12v-8h5.28v8h8.29v4.35h-8.29v18.73c0,3.13,1.16,4.23,4.41,4.23h3.89v4.47
			h-4.76c-5.63,0-8.82-2.32-8.82-8.7V179.06z"/>
		<path class="st0" d="M2814.27,163.58h5.28v15.72c2.09-3.36,6.03-5.16,10.5-5.16c7.08,0,12.7,4.52,12.7,13.63v18.73h-5.22v-17.98
			c0-6.5-3.54-9.8-8.87-9.8c-5.39,0-9.11,3.36-9.11,10.21v17.57h-5.28V163.58z"/>
		<path class="st0" d="M2866.36,174.19c7.89,0,13.05,4.06,14.67,10.73h-5.68c-1.1-3.83-4.29-6.26-8.99-6.26
			c-5.8,0-10.09,4.12-10.09,11.89c0,7.89,4.29,12,10.09,12c4.7,0,7.83-2.26,8.99-6.26h5.68c-1.62,6.32-6.79,10.73-14.67,10.73
			c-9.05,0-15.49-6.38-15.49-16.47C2850.87,180.57,2857.31,174.19,2866.36,174.19z"/>
		<path class="st0" d="M2902.61,174.19c5.92,0,9.98,3.02,11.83,6.32v-5.8h5.34v31.78h-5.34v-5.92c-1.91,3.42-6.03,6.44-11.89,6.44
			c-8.47,0-15.02-6.67-15.02-16.53C2887.53,180.57,2894.08,174.19,2902.61,174.19z M2903.65,178.77c-5.8,0-10.73,4.23-10.73,11.72
			c0,7.48,4.93,11.89,10.73,11.89s10.79-4.35,10.79-11.83C2914.44,183.18,2909.45,178.77,2903.65,178.77z"/>
		<path class="st0" d="M2935.44,206.49h-5.28v-31.78h5.28v5.16c1.8-3.54,5.22-5.74,10.27-5.74v5.45h-1.39
			c-5.05,0-8.87,2.26-8.87,9.63V206.49z"/>
		<path class="st0" d="M2966.99,207.02c-9.05,0-15.72-6.38-15.72-16.47c0-10.03,6.44-16.36,15.72-16.36c9.22,0,15.25,6.5,15.25,15.2
			c0,1.16-0.06,2.09-0.17,3.19h-25.4c0.41,6.44,4.93,9.98,10.32,9.98c4.76,0,7.77-2.44,8.93-5.86h5.68
			C2979.98,202.49,2974.87,207.02,2966.99,207.02z M2956.72,188.28h20.07c0.06-6.21-4.58-9.63-10.03-9.63
			C2961.59,178.65,2957.3,182.08,2956.72,188.28z"/>
	</g>
</g>
<g>
	<g>
		<g>
			<path class="st2" d="M58.75,78.34v9.45H41.25V41.25h7.7v-9.8H31.46v27.29H12.21V41.25h9.45v-9.8H11.51c-5.01,0-9.1,4.08-9.1,9.1
				v18.89c0,5.02,4.08,9.1,9.1,9.1h19.95v19.94c0,5.02,4.08,9.1,9.1,9.1h18.89c5.02,0,9.1-4.08,9.1-9.1V78.34H58.75z"/>
		</g>
		<g>
			<path class="st2" d="M88.49,31.46H68.54V11.51c0-5.01-4.08-9.1-9.1-9.1H40.55c-5.02,0-9.1,4.08-9.1,9.1v10.15h9.79v-9.45h17.49
				v46.53h-7.7v9.8h17.49V41.25h19.24v17.49h-9.45v9.8h10.15c5.01,0,9.1-4.08,9.1-9.1V40.55C97.58,35.54,93.5,31.46,88.49,31.46z"/>
		</g>
	</g>
</g>
<g>
	<g>
		<path class="st0" d="M2091.47-65.55V130.4h-56.85V-65.55H2091.47z"/>
		<path class="st0" d="M2259.86,130.4h-52.4V24.17c0-10.81-3.01-16.22-9.04-16.22c-6.13,0-11.44,4.28-15.93,12.85
			c-4.5,8.57-6.75,18.69-6.75,30.36v79.24h-52.4V-14.59c17.99,0,35.46-1.2,52.4-3.59V8.95c13.01-17.99,28.9-26.99,47.66-26.99
			c24.31,0,36.46,12.35,36.46,37.04V130.4z"/>
		<path class="st0" d="M2364.94-14.3V1.92h-20.67V130.4h-52.4V1.92h-18.38V-14.3h18.38v-12.92c0-11.87,4.19-21.72,12.56-29.57
			c8.37-7.85,18.88-11.77,31.51-11.77c25.27,0,37.9,9.47,37.9,28.42c0,1.44-0.05,3.25-0.14,5.46l-24.83,8.76
			c1.34-4.97,2.01-8.9,2.01-11.77c0-10.14-3.54-15.22-10.62-15.22c-6.13,0-9.19,4.45-9.19,13.35c0,5.46,4.4,13.88,13.21,25.27
			H2364.94z"/>
		<path class="st0" d="M2382.74,130.4V-14.16c16.37,0,33.83-1.29,52.4-3.88V130.4H2382.74z M2409.3-70.43
			c16.27,0,24.4,6.32,24.4,18.95s-8.14,18.95-24.4,18.95c-16.27,0-24.4-6.32-24.4-18.95S2393.03-70.43,2409.3-70.43z"/>
		<path class="st0" d="M2568.79,38.24h-35.89c1.24-5.65,2.34-9.81,3.3-12.49c1.34-3.92,2.01-7.46,2.01-10.62
			c0-6.12-2.2-9.19-6.6-9.19c-3.35,0-6.56,4.04-9.62,12.13c-3.06,8.09-4.59,16.63-4.59,25.63v86.71H2465V-14.3l10.19,0.14
			c12.06,0,26.13-1.29,42.21-3.88V5.79c8.52-15.88,18.95-23.83,31.29-23.83c16.84,0,25.27,9.28,25.27,27.85
			c0,4.88-0.81,10.48-2.44,16.8C2570.94,29.19,2570.03,33.07,2568.79,38.24z"/>
		<path class="st0" d="M2802.5,130.4h-52.4V21.73c0-9.47-2.78-14.21-8.33-14.21c-12.83,0-19.24,13.64-19.24,40.91v81.97h-52.4V24.03
			c0-10.81-2.49-16.22-7.46-16.22c-13.02,0-19.52,13.59-19.52,40.77v81.83h-52.4V-14.73c17.7,0,35.17-1.2,52.4-3.59V6.66
			c12.35-16.56,27.56-24.83,45.65-24.83c15.12,0,26.36,7.8,33.74,23.4c11.67-15.79,26.27-23.69,43.78-23.69
			c24.12,0,36.18,12.2,36.18,36.61V130.4z"/>
		<path class="st0" d="M2977.92,125.23c-12.83,4.98-25.32,7.46-37.47,7.46c-17.99,0-29.09-5.6-33.3-16.8
			c-8.71,11.68-21.25,17.51-37.61,17.51c-30.53,0-45.79-14.16-45.79-42.49c0-21.53,13.97-36.65,41.92-45.36
			c25.65-8.04,38.47-17.7,38.47-29c0-14.83-7.37-22.25-22.11-22.25c-17.04,0-25.55,7.18-25.55,21.53c0,4.5,1.34,10.43,4.02,17.8
			l-25.98-5.02c-0.67-4.5-1-8.71-1-12.63c0-22.97,20.96-34.45,62.88-34.45c39.81,0,59.72,10.72,59.72,32.16v87.86
			c0,9,2.92,13.49,8.76,13.49c1.82,0,4.5-1,8.04-3.01L2977.92,125.23z M2903.7,43.41c-3.25,3.73-7.03,6.84-11.34,9.33
			c-10.82,6.32-16.22,16.94-16.22,31.87c0,19.14,3.73,28.71,11.2,28.71c10.91,0,16.37-9.47,16.37-28.42V43.41z"/>
	</g>
</g>
</svg>
