<svg width="18" height="18" viewBox="0 0 18 18" fill="none" xmlns="http://www.w3.org/2000/svg">
  <path d="M17.6999 14.074C17.6999 13.8238 17.4975 13.6214 17.2473 13.6214H1.84137L4.54946 10.9133C4.72608 10.7367 4.72608 10.4534 4.54946 10.2767C4.37285 10.1001 4.08953 10.1001 3.91291 10.2767L0.435806 13.7539C0.259191 13.9305 0.259191 14.2138 0.435806 14.3904L3.91291 17.8675C4.00122 17.9558 4.11528 18 4.23303 18C4.35077 18 4.46483 17.9558 4.55314 17.8675C4.72976 17.6909 4.72976 17.4076 4.55314 17.231L1.84505 14.5229H17.2547C17.4975 14.5229 17.6999 14.3242 17.6999 14.074Z" fill="#003761" />
  <path d="M17.5675 3.60589L14.0904 0.132461C13.9137 -0.0441537 13.6304 -0.0441537 13.4538 0.132461C13.2772 0.309076 13.2772 0.592396 13.4538 0.769011L16.1619 3.47711H0.752258C0.502054 3.47711 0.299683 3.67948 0.299683 3.92968C0.299683 4.17989 0.502054 4.38226 0.752258 4.38226H16.1619L13.4538 7.08299C13.2772 7.25961 13.2772 7.54293 13.4538 7.71954C13.5421 7.80785 13.6562 7.852 13.7739 7.852C13.8917 7.852 14.0057 7.80785 14.094 7.71954L17.5711 4.24244C17.7441 4.0695 17.7441 3.7825 17.5675 3.60589Z" fill="#003761" />
</svg>