<svg width="52" height="52" viewBox="0 0 52 52" fill="none" xmlns="http://www.w3.org/2000/svg">
<g clip-path="url(#clip0_6159_2371)">
<path d="M51.0759 9.83433C50.4021 9.03788 49.4586 8.55139 48.4189 8.46456L11.8 5.40693C10.7602 5.32009 9.74925 5.64336 8.9527 6.31703C8.1594 6.98805 7.67363 7.92679 7.58405 8.9614L6.84732 15.8733H3.90557C1.75205 15.8733 0 17.6254 0 19.7789V42.7017C0 44.8552 1.75205 46.6072 3.90557 46.6072H40.6521C42.8057 46.6072 44.5577 44.8552 44.5577 42.7017V38.9832L45.8617 39.092C45.9717 39.1012 46.0811 39.1057 46.1895 39.1057C48.1972 39.1057 49.9087 37.5611 50.0788 35.525L51.9862 12.6817C52.0729 11.642 51.7497 10.6309 51.0759 9.83433V9.83433ZM3.90557 17.9046H40.6521C41.6856 17.9046 42.5265 18.7454 42.5265 19.7789V21.8676H2.03124V19.7789C2.03124 18.7454 2.87208 17.9046 3.90557 17.9046V17.9046ZM2.03124 23.8989H42.5265V28.1126H2.03124V23.8989ZM40.6521 44.576H3.90557C2.87208 44.576 2.03124 43.7352 2.03124 42.7017V30.1438H42.5265V42.7017C42.5265 43.7352 41.6856 44.576 40.6521 44.576ZM49.962 12.5126L48.0545 35.3559C47.9685 36.3858 47.0604 37.1541 46.0307 37.0678L44.5577 36.9448V19.7789C44.5577 17.6254 42.8057 15.8733 40.6521 15.8733H8.89014L9.60503 9.16615C9.60585 9.15843 9.60656 9.15081 9.60717 9.14299C9.69319 8.11305 10.6007 7.34483 11.631 7.43116L48.25 10.4888C48.749 10.5304 49.2019 10.7639 49.5251 11.1462C49.8484 11.5285 50.0036 12.0136 49.962 12.5126V12.5126Z" fill="white"/>
<path d="M38.276 33.1636H28.5015C27.9405 33.1636 27.4858 33.6183 27.4858 34.1792V40.5562C27.4858 41.1171 27.9405 41.5718 28.5015 41.5718H38.276C38.837 41.5718 39.2917 41.1171 39.2917 40.5562V34.1792C39.2917 33.6183 38.837 33.1636 38.276 33.1636ZM37.2604 39.5406H29.5171V35.1948H37.2604V39.5406Z" fill="white"/>
</g>
<defs>
<clipPath id="clip0_6159_2371">
<rect width="52" height="52" fill="white"/>
</clipPath>
</defs>
</svg>
