<svg width="18" height="18" viewBox="0 0 18 18" fill="none" xmlns="http://www.w3.org/2000/svg">
<g clip-path="url(#clip0_350_8890)">
<path d="M13.0762 7.79205V4.3856C13.0762 4.2881 13.0312 4.19801 12.9674 4.12674L9.14832 0.116318C9.07704 0.041336 8.97569 0 8.87448 0H2.81937C1.70151 0 0.808594 0.91159 0.808594 2.02959V13.4794C0.808594 14.5974 1.70151 15.494 2.81937 15.494H7.59897C8.50301 16.9946 10.1463 18 12.0182 18C14.8619 18 17.1841 15.689 17.1841 12.8416C17.188 10.3543 15.4021 8.276 13.0762 7.79205ZM9.24966 1.31685L11.812 4.01413H10.15C9.65479 4.01413 9.24966 3.6053 9.24966 3.11009V1.31685ZM2.81937 14.7437C2.11789 14.7437 1.55896 14.1809 1.55896 13.4794V2.02959C1.55896 1.32426 2.11789 0.750366 2.81937 0.750366H8.4993V3.11009C8.4993 4.02168 9.2384 4.7645 10.15 4.7645H12.3258V7.69441C12.2134 7.6907 12.1233 7.67944 12.0258 7.67944C10.7165 7.67944 9.51224 8.1822 8.60435 8.97006H3.83986C3.63345 8.97006 3.46468 9.13884 3.46468 9.34511C3.46468 9.55151 3.63345 9.72029 3.83986 9.72029H7.90659C7.64017 10.0955 7.41879 10.4707 7.24631 10.8833H3.83986C3.63345 10.8833 3.46468 11.0521 3.46468 11.2585C3.46468 11.4648 3.63345 11.6337 3.83986 11.6337H7.00241C6.90861 12.0089 6.85986 12.4253 6.85986 12.8416C6.85986 13.5169 6.99115 14.1847 7.22749 14.7475H2.81937V14.7437ZM12.0221 17.2535C9.59106 17.2535 7.61394 15.2764 7.61394 12.8454C7.61394 10.4144 9.58722 8.43722 12.0221 8.43722C14.4568 8.43722 16.4301 10.4144 16.4301 12.8454C16.4301 15.2764 14.4531 17.2535 12.0221 17.2535Z" fill="#B0A8A8"/>
<path d="M13.648 11.462L11.5154 13.4977L10.4131 12.3919C10.2734 12.2521 10.0467 12.2521 9.90694 12.3919C9.76702 12.5317 9.76702 12.7583 9.90694 12.8981L11.2604 14.2517C11.3277 14.3195 11.4197 14.357 11.5154 14.3558C11.6081 14.3566 11.6972 14.3205 11.763 14.2552L14.147 11.9753C14.2157 11.9096 14.2554 11.8196 14.2575 11.7245C14.2594 11.6295 14.2237 11.5376 14.1578 11.4692C14.018 11.3289 13.7917 11.3257 13.648 11.462Z" fill="#B0A8A8"/>
<path d="M6.70622 4.825H6.04363V4.16242C6.04363 4.0247 5.93197 3.91309 5.7943 3.91309C5.65663 3.91309 5.54497 4.02472 5.54497 4.16242V4.825H4.88239C4.74469 4.825 4.63306 4.93664 4.63306 5.07433C4.63306 5.21203 4.74469 5.32366 4.88239 5.32366H5.54497V5.98625C5.54497 6.12397 5.65663 6.23558 5.7943 6.23558C5.93197 6.23558 6.04363 6.12394 6.04363 5.98625V5.32366H6.70622C6.84391 5.32366 6.95555 5.21203 6.95555 5.07433C6.95555 4.93664 6.84391 4.825 6.70622 4.825Z" fill="#B0A8A8"/>
<path d="M5.7943 2.88C4.58443 2.88 3.6001 3.86433 3.6001 5.07421C3.6001 6.28408 4.58443 7.26841 5.7943 7.26841C7.00417 7.26841 7.9885 6.28408 7.9885 5.07421C7.9885 3.86433 7.00417 2.88 5.7943 2.88ZM5.7943 6.7697C4.85939 6.7697 4.09878 6.00909 4.09878 5.07418C4.09878 4.13927 4.85939 3.37867 5.7943 3.37867C6.7292 3.37867 7.48981 4.13927 7.48981 5.07418C7.48981 6.00909 6.7292 6.7697 5.7943 6.7697Z" fill="#B0A8A8"/>
</g>
<defs>
<clipPath id="clip0_350_8890">
<rect width="18" height="18" fill="white"/>
</clipPath>
</defs>
</svg>
