<svg width="23" height="23" viewBox="0 0 23 23" fill="none" xmlns="http://www.w3.org/2000/svg">
<path d="M16.9122 11.0014H12.113V6.2022C12.113 5.92513 11.8886 5.70068 11.6115 5.70068C11.3346 5.70068 11.11 5.92513 11.11 6.2022V11.0014H6.06499C5.78793 11.0014 5.56348 11.226 5.56348 11.5029C5.56348 11.78 5.78793 12.0044 6.06499 12.0044H11.115V17.0544C11.115 17.3313 11.3396 17.5559 11.6164 17.5559C11.8934 17.5559 12.1179 17.3313 12.1179 17.0544V12.0044H16.9174C17.1941 12.003 17.4176 11.7773 17.4162 11.5004C17.415 11.2236 17.1893 11.0001 16.9122 11.0014V11.0014Z" fill="#C8CCCD"/>
<path d="M11.5062 0.720979C7.14524 0.720193 3.21338 3.34698 1.54454 7.37606C-0.123984 11.4053 0.798942 16.0429 3.88358 19.1256C8.09361 23.3356 14.9191 23.3356 19.129 19.1256C23.3388 14.9159 23.3388 8.09041 19.129 3.88038C17.1118 1.8517 14.367 0.714068 11.5062 0.720979V0.720979ZM11.5062 21.2821C6.11519 21.2821 1.72721 16.894 1.72721 11.503C1.72721 6.11199 6.11519 1.72401 11.5062 1.72401C16.8972 1.72401 21.2854 6.11199 21.2854 11.503C21.2854 16.894 16.8972 21.2821 11.5062 21.2821Z" fill="#C8CCCD"/>
</svg>
