<svg width="25" height="25" viewBox="0 0 25 25" fill="none" xmlns="http://www.w3.org/2000/svg">
<path d="M14.4699 15.8649C12.8927 14.5564 10.9055 13.8446 8.85618 13.8541H8.83893C6.45043 13.86 4.2247 14.7898 2.58008 16.475C0.999481 18.1022 0.087168 20.293 0 22.693L14.313 22.664C13.003 20.5694 13.0645 17.8965 14.4699 15.8649Z" fill="#656464"/>
<path d="M19.5953 13.976C16.6105 13.976 14.1909 16.3956 14.1909 19.3804C14.1909 22.3653 16.6105 24.7849 19.5953 24.7849C22.5802 24.7849 24.9997 22.3653 24.9997 19.3804C25.0118 17.9433 24.4463 16.5618 23.43 15.5457C22.414 14.5294 21.0325 13.964 19.5953 13.976V13.976ZM21.9489 19.7872H20.0021V21.734C20.0021 21.9587 19.8201 22.1408 19.5953 22.1408C19.3708 22.1408 19.1885 21.9587 19.1885 21.734V19.7872H17.2418C17.0173 19.7872 16.835 19.6052 16.835 19.3804C16.835 19.1557 17.0173 18.9737 17.2418 18.9737H19.1885V17.0269C19.1885 16.8022 19.3708 16.6201 19.5953 16.6201C19.8201 16.6201 20.0021 16.8022 20.0021 17.0269V18.9737H21.9489C22.1736 18.9737 22.3557 19.1557 22.3557 19.3804C22.3557 19.6052 22.1736 19.7872 21.9489 19.7872Z" fill="#656464"/>
<path d="M13.9992 5.34053C13.9992 8.18734 11.6915 10.495 8.84469 10.495C5.99787 10.495 3.69019 8.18734 3.69019 5.34053C3.69019 2.49372 5.99787 0.186035 8.84469 0.186035C11.6915 0.186035 13.9992 2.49372 13.9992 5.34053Z" fill="#656464"/>
</svg>
