<svg width="16" height="18" viewBox="0 0 16 18" fill="none" xmlns="http://www.w3.org/2000/svg">
	<path d="M4.5056 2.19741H1.89753C1.75184 2.19741 1.63379 2.07935 1.63379 1.93366C1.63379 1.78798 1.75184 1.66992 1.89753 1.66992H4.5056C4.65129 1.66992 4.76935 1.78798 4.76935 1.93366C4.76935 2.07935 4.65126 2.19741 4.5056 2.19741Z" fill="#003761" />
	<path d="M4.5056 3.78347H1.89753C1.75184 3.78347 1.63379 3.66541 1.63379 3.51972C1.63379 3.37404 1.75184 3.25598 1.89753 3.25598H4.5056C4.65129 3.25598 4.76935 3.37404 4.76935 3.51972C4.76935 3.66541 4.65126 3.78347 4.5056 3.78347Z" fill="#003761" />
	<path d="M3.53986 16.3854C3.47587 16.3854 3.41146 16.3663 3.3504 16.3172C3.13014 16.14 3.25055 15.8717 3.46926 15.3845C3.56865 15.1631 3.79418 14.6607 3.78437 14.4874C3.66621 14.4537 3.35089 14.5614 2.78041 15.1583C2.32514 15.6348 1.94373 16.1786 1.93993 16.184C1.85654 16.3034 1.69215 16.3327 1.57272 16.2493C1.45333 16.1658 1.42408 16.0015 1.50747 15.8821C1.52379 15.8587 1.91293 15.3034 2.39538 14.7978C2.6684 14.5116 3.49921 13.6407 4.11315 14.0669C4.4985 14.3345 4.24861 14.9347 3.98254 15.529C5.05105 14.819 5.44571 15.0024 5.96778 15.3486C6.26004 15.5425 6.5622 15.7429 7.20426 15.7429C7.34995 15.7429 7.468 15.861 7.468 16.0067C7.468 16.1524 7.34995 16.2704 7.20426 16.2704C6.40319 16.2704 5.98304 15.9917 5.6762 15.7882C5.44156 15.6326 5.32048 15.5585 5.12783 15.576C4.86669 15.5998 4.47969 15.8042 3.94468 16.2009C3.84944 16.2716 3.69591 16.3854 3.53986 16.3854Z" fill="#003761" />
	<path d="M15.6709 4.54706L15.2708 4.26212C15.0412 4.09854 14.7225 4.15201 14.5589 4.38183L14.1629 4.93797C13.9828 4.95052 13.8094 5.04038 13.6967 5.19865L8.42533 12.6015C7.71809 13.5947 7.53405 14.4075 7.33528 14.8882C7.24647 15.1308 7.32814 15.3945 7.53858 15.5443C7.74945 15.6944 8.02536 15.6847 8.22504 15.5218C8.61383 15.1772 9.32202 14.7372 10.0294 13.7437L14.8885 6.91983L15.2139 7.15151C15.254 7.18009 15.2626 7.23532 15.2346 7.27463L14.0976 8.87128C14.0132 8.98994 14.0408 9.15464 14.1595 9.23912C14.2781 9.3236 14.4428 9.29597 14.5273 9.17728L15.6643 7.58063C15.8612 7.30405 15.7964 6.91881 15.5199 6.72187L15.1945 6.49019L15.3008 6.34091C15.4099 6.18774 15.444 5.99726 15.3949 5.81469L15.7905 5.25898C15.9542 5.02927 15.9008 4.71072 15.6709 4.54706ZM14.9787 4.70172L15.351 4.96687L15.0474 5.39324L14.675 5.12809L14.9787 4.70172ZM14.1264 5.50462C14.1575 5.46074 14.2187 5.45058 14.2623 5.48169L14.8482 5.89889C14.8919 5.92997 14.9026 5.99079 14.8711 6.03488L10.7383 11.8388L9.99357 11.3085L14.1264 5.50462ZM9.59979 13.4378C9.28215 13.8839 8.90591 14.2856 8.48154 14.6317L7.89162 15.1131C7.88308 15.1201 7.86873 15.1318 7.84455 15.1146C7.82043 15.0975 7.82683 15.08 7.83063 15.0696L8.09243 14.3547C8.28087 13.8403 8.53741 13.3534 8.85501 12.9074L9.68761 11.7382L10.4324 12.2685L9.59979 13.4378Z" fill="#003761" />
	<path d="M13.0182 5.44395C13.1639 5.44395 13.282 5.32589 13.282 5.1802V3.88427C13.282 3.57627 13.162 3.28669 12.9442 3.06882L10.2131 0.337781C9.99531 0.119953 9.70569 0 9.39765 0H1.43789C0.645047 0 0 0.645012 0 1.43789V16.5621C0 17.355 0.645012 18 1.43789 18H11.8441C12.637 18 13.282 17.355 13.282 16.5621V10.5231C13.282 10.3774 13.1639 10.2593 13.0183 10.2593C12.8726 10.2593 12.7545 10.3774 12.7545 10.5231V16.5621C12.7545 17.0641 12.3461 17.4725 11.8441 17.4725H1.43789C0.935895 17.4725 0.527484 17.0641 0.527484 16.5621V1.43789C0.527484 0.935895 0.935895 0.527484 1.43789 0.527484H9.39769C9.4332 0.527484 9.46807 0.531035 9.50239 0.536801V2.34176C9.50239 3.1346 10.1474 3.77965 10.9402 3.77965H12.7452C12.751 3.81396 12.7545 3.84884 12.7545 3.88431V5.18024C12.7545 5.32589 12.8726 5.44395 13.0182 5.44395ZM10.0298 2.34176V0.900492L12.3815 3.25216H10.9402C10.4382 3.25216 10.0298 2.84375 10.0298 2.34176Z" fill="#003761" />
</svg>
