<svg width="18" height="18" viewBox="0 0 18 18" fill="none" xmlns="http://www.w3.org/2000/svg">
<path d="M13.6941 2.53586C12.4251 1.26455 10.7026 0.550293 8.90632 0.550293C7.10994 0.550293 5.38753 1.26455 4.11837 2.53586C2.89473 3.7662 2.15784 5.39806 2.0439 7.12957C1.98509 8.07803 2.1242 9.02813 2.45224 9.91981C2.77585 10.8055 3.30155 11.6426 4.0172 12.4029L8.61116 17.2959C8.68754 17.3777 8.79428 17.4245 8.90632 17.4253C9.01862 17.4264 9.12624 17.3794 9.20161 17.2959L13.7953 12.4029C14.511 11.6426 15.0367 10.8055 15.3603 9.91981C15.6924 9.02927 15.8316 8.07816 15.7687 7.12957C15.6539 5.39831 14.9172 3.76671 13.6941 2.53586V2.53586ZM14.5959 9.64084C14.3089 10.4253 13.8398 11.1695 13.2008 11.8487L8.90632 16.4265L4.60765 11.8487C3.96876 11.1695 3.49972 10.4253 3.21252 9.64084C2.92078 8.85577 2.79824 8.01796 2.85274 7.18218C2.95277 5.64567 3.60633 4.19744 4.69263 3.10595C5.80966 1.98765 7.32555 1.35901 8.90632 1.35901C10.4871 1.35901 12.0029 1.98765 13.12 3.10595C14.2062 4.19744 14.86 5.64567 14.9599 7.18218C15.0112 8.01809 14.8873 8.85564 14.5959 9.64084Z" fill="#003761"/>
<path d="M8.90615 3.85034C7.16731 3.85034 5.75195 5.29782 5.75195 7.07713C5.75195 8.85644 7.16731 10.3042 8.90615 10.3042C10.645 10.3042 12.0603 8.85644 12.0603 7.07713C12.0603 5.29782 10.645 3.85034 8.90615 3.85034V3.85034ZM8.90615 9.49545C7.61207 9.49545 6.56067 8.41168 6.56067 7.07713C6.56067 5.74271 7.61207 4.65906 8.90615 4.65906C10.2002 4.65906 11.2516 5.74271 11.2516 7.07713C11.2516 8.41168 10.2002 9.49545 8.90615 9.49545Z" fill="#003761"/>
</svg>
