<svg width="18" height="18" viewBox="0 0 18 18" fill="none" xmlns="http://www.w3.org/2000/svg">
	<path d="M13.3073 1.75501H11.6573V0.945007C11.6567 0.738171 11.4892 0.570593 11.2823 0.570007H6.42979C6.22295 0.570593 6.05537 0.738171 6.05479 0.945007V1.75501H4.40479C3.36943 1.75536 2.53025 2.59454 2.52979 3.63001V15.57C2.53025 16.6054 3.36943 17.4445 4.40479 17.445H13.3073C14.3428 17.4445 15.1819 16.6054 15.1823 15.57V3.63001C15.1819 2.59454 14.3428 1.75536 13.3073 1.75501ZM6.80479 1.32001H10.9073V2.87251H6.80479V1.32001ZM14.4323 15.57C14.4305 16.1905 13.9279 16.6933 13.3073 16.695H4.40479C3.78428 16.6933 3.28154 16.1905 3.27979 15.57V3.63001C3.28154 3.00938 3.78428 2.50688 4.40479 2.50501H6.05479V3.25126C6.05537 3.45809 6.22295 3.62567 6.42979 3.62626H11.2823C11.4892 3.62567 11.6567 3.45809 11.6573 3.25126V2.50501H13.3073C13.9279 2.50688 14.4305 3.00938 14.4323 3.63001V15.57Z" fill="#003761" />
	<path d="M12.0399 11.2912H5.67236C5.46518 11.2912 5.29736 11.4592 5.29736 11.6662C5.29736 11.8733 5.46518 12.0412 5.67236 12.0412H12.036C12.2432 12.0422 12.4119 11.8752 12.413 11.6681C12.4139 11.4609 12.2468 11.2922 12.0399 11.2912V11.2912Z" fill="#003761" />
	<path d="M12.0399 13.5188H5.67236C5.46518 13.5188 5.29736 13.6867 5.29736 13.8938C5.29736 14.1009 5.46518 14.2687 5.67236 14.2687H12.036C12.2432 14.2698 12.4119 14.1027 12.413 13.8956C12.4139 13.6886 12.2468 13.5198 12.0399 13.5188V13.5188Z" fill="#003761" />
	<path d="M8.85623 7.48124C9.61631 7.48124 10.2325 6.86507 10.2325 6.10499C10.2325 5.34492 9.61631 4.72874 8.85623 4.72874C8.09615 4.72874 7.47998 5.34492 7.47998 6.10499C7.48045 6.86484 8.09639 7.48066 8.85623 7.48124ZM8.85623 5.48249C9.20205 5.48249 9.48248 5.76281 9.48248 6.10874C9.48248 6.45456 9.20205 6.73499 8.85623 6.73499C8.51041 6.73499 8.22998 6.45456 8.22998 6.10874C8.23057 5.76316 8.51064 5.48308 8.85623 5.48249Z" fill="#003761" />
	<path d="M7.35644 10.2825C7.56328 10.2819 7.73086 10.1143 7.73144 9.9075V9.6075C7.73144 8.98617 8.23523 8.4825 8.85644 8.4825C9.47788 8.4825 9.98144 8.98617 9.98144 9.6075V9.9075C9.98144 10.1147 10.1494 10.2825 10.3564 10.2825C10.5636 10.2825 10.7314 10.1147 10.7314 9.9075V9.6075C10.7314 8.57203 9.89191 7.7325 8.85644 7.7325C7.82097 7.7325 6.98145 8.57203 6.98145 9.6075V9.9075C6.98203 10.1143 7.14961 10.2819 7.35644 10.2825V10.2825Z" fill="#003761" />
</svg>
