<svg width="25" height="25" viewBox="0 0 25 25" fill="none" xmlns="http://www.w3.org/2000/svg">
<path d="M25 11.081V13.9189C25 14.6376 24.4152 15.2223 23.6966 15.2223H21.7791C21.5847 15.8855 21.3186 16.5269 20.9855 17.1354L22.3422 18.4921C22.8503 19.0003 22.8503 19.8272 22.3422 20.3354L20.3355 22.3422C20.3237 22.3539 20.3118 22.3654 20.2997 22.3766C20.2245 22.4463 20.1293 22.4808 20.0342 22.4808C19.9293 22.4808 19.8246 22.4387 19.7477 22.3557C19.601 22.1975 19.6104 21.9503 19.7686 21.8036C19.7735 21.7991 19.7783 21.7944 19.7831 21.7897L21.7897 19.783C21.9934 19.5794 21.9934 19.2481 21.7897 19.0445L20.2226 17.4774C20.0967 17.3515 20.0719 17.1563 20.1623 17.0029C20.5811 16.2918 20.8978 15.5284 21.1035 14.7337C21.1481 14.5614 21.3036 14.441 21.4816 14.441H23.6965C23.9844 14.441 24.2187 14.2067 24.2187 13.9188V11.081C24.2187 10.7931 23.9844 10.5588 23.6965 10.5588H21.4816C21.3036 10.5588 21.1481 10.4385 21.1035 10.2662C20.8975 9.4708 20.5808 8.70732 20.1623 7.99692C20.0719 7.84351 20.0967 7.64834 20.2226 7.52241L21.7898 5.95532C21.9934 5.75171 21.9934 5.42041 21.7897 5.21685L19.7831 3.21016C19.6851 3.11221 19.5541 3.0583 19.4138 3.0583C19.2736 3.0583 19.1424 3.11221 19.0445 3.21016L17.4774 4.77729C17.3515 4.90312 17.1565 4.92808 17.0029 4.8376C16.2918 4.4188 15.5284 4.1021 14.7338 3.89644C14.5615 3.85181 14.4411 3.69629 14.4411 3.51826V1.30342C14.4411 1.01553 14.2068 0.78125 13.9189 0.78125H11.081C10.7931 0.78125 10.5589 1.01553 10.5589 1.30342V3.51831C10.5589 3.69634 10.4385 3.85181 10.2663 3.89644C9.47085 4.10249 8.70737 4.41919 7.99702 4.83765C7.84351 4.92803 7.64839 4.90317 7.52251 4.77734L5.95537 3.21021C5.85747 3.11226 5.72632 3.05835 5.58608 3.05835C5.44585 3.05835 5.3148 3.11226 5.21689 3.21016L3.21016 5.21689C3.00654 5.42046 3.00654 5.75176 3.21016 5.95542L4.77729 7.52246C4.90317 7.64839 4.92803 7.84351 4.83765 7.99692C4.4188 8.70806 4.1021 9.47153 3.89644 10.2662C3.85181 10.4385 3.69629 10.5589 3.51826 10.5589H1.30342C1.01553 10.5589 0.78125 10.7931 0.78125 11.081V13.9189C0.78125 14.2068 1.01553 14.4411 1.30342 14.4411H3.51831C3.69634 14.4411 3.85181 14.5614 3.89644 14.7337C4.10249 15.5291 4.41919 16.2926 4.83765 17.0029C4.92808 17.1563 4.90322 17.3515 4.77734 17.4774L3.21021 19.0446C3.00659 19.2481 3.00659 19.5794 3.21021 19.783L5.21694 21.7897C5.22217 21.795 5.22671 21.7994 5.23135 21.8037C5.38955 21.9503 5.39893 22.1975 5.2523 22.3557C5.10562 22.5139 4.85854 22.5233 4.70024 22.3767C4.68789 22.3652 4.67563 22.3534 4.66372 22.3414L2.65776 20.3355C2.14961 19.8273 2.14961 19.0003 2.65776 18.4921L4.0145 17.1354C3.68154 16.5273 3.41553 15.886 3.22095 15.2224H1.30342C0.584766 15.2224 0 14.6376 0 13.9189V11.0811C0 10.3624 0.584766 9.77769 1.30342 9.77769H3.22095C3.41528 9.1145 3.6814 8.47314 4.01455 7.8646L2.65781 6.50791C2.14966 5.99966 2.14966 5.17271 2.65781 4.6645L4.66455 2.65781C4.91001 2.4124 5.2373 2.27715 5.58618 2.27715C5.93506 2.27715 6.2624 2.41235 6.50786 2.65781L7.8646 4.01455C8.4727 3.68159 9.11401 3.41558 9.77769 3.221V1.30342C9.77764 0.584717 10.3624 0 11.081 0H13.9189C14.6376 0 15.2223 0.584717 15.2223 1.30342V3.22095C15.8855 3.41528 16.5269 3.6814 17.1354 4.01455L18.4921 2.65781C18.7376 2.41235 19.0649 2.27715 19.4138 2.27715C19.7627 2.27715 20.09 2.4124 20.3354 2.65786L22.3422 4.6645C22.8503 5.17271 22.8503 5.99966 22.3422 6.50786L20.9855 7.86455C21.3184 8.4727 21.5844 9.11396 21.779 9.77769H23.6965C24.4152 9.77764 25 10.3624 25 11.081ZM17.2564 16.5735C17.3269 16.6267 17.4095 16.6523 17.4915 16.6523C17.6098 16.6523 17.7267 16.5987 17.8036 16.497C18.6783 15.338 19.1407 13.9558 19.1407 12.5C19.1407 8.83833 16.1617 5.85933 12.5 5.85933C8.83833 5.85933 5.85933 8.83833 5.85933 12.5C5.85933 13.9558 6.32173 15.338 7.19644 16.497C7.32642 16.6691 7.57144 16.7034 7.74355 16.5734C7.91572 16.4435 7.95 16.1985 7.82002 16.0263C7.04839 15.004 6.64058 13.7846 6.64058 12.5C6.64058 9.26904 9.26909 6.64053 12.5 6.64053C15.7309 6.64053 18.3594 9.26909 18.3594 12.5C18.3594 13.7846 17.9516 15.004 17.18 16.0264C17.05 16.1985 17.0843 16.4435 17.2564 16.5735ZM18.043 17.8299C18.754 18.6035 19.1456 19.6049 19.1456 20.6496V24.6094C19.1456 24.8251 18.9707 25 18.7549 25H6.24507C6.02935 25 5.85444 24.8251 5.85444 24.6094V20.6496C5.85444 19.6048 6.24604 18.6035 6.95703 17.8299C7.66348 17.0614 8.61992 16.5865 9.65015 16.4929C9.82485 16.4766 9.98955 16.5802 10.0513 16.7449L10.762 18.6424L11.2909 20.0309L11.5677 18.5642L10.7481 17.0526C10.6825 16.9315 10.6854 16.7849 10.7559 16.6666C10.8263 16.5482 10.9538 16.4758 11.0915 16.4758H13.9084C14.0461 16.4758 14.1737 16.5482 14.2441 16.6666C14.3145 16.7849 14.3175 16.9315 14.2519 17.0526L13.4322 18.5642L13.7091 20.0309L14.2387 18.6403L14.9486 16.7449C15.0104 16.5801 15.1744 16.4771 15.3498 16.4929C16.3801 16.5865 17.3365 17.0614 18.043 17.8299ZM12.0499 24.2188L10.0312 18.9185L9.42891 17.3105C7.84087 17.5981 6.63569 19.0112 6.63569 20.6496V24.2188H12.0499ZM12.5 23.2055L13.1775 21.4267L12.6388 18.5727C12.6222 18.4844 12.6364 18.393 12.6792 18.314L13.2523 17.2571H11.7477L12.3208 18.314C12.3636 18.393 12.3778 18.4844 12.3612 18.5727L11.8225 21.4267L12.5 23.2055ZM18.3643 20.6496C18.3643 19.0112 17.1591 17.5981 15.5711 17.3105L14.9697 18.9165L12.9501 24.2188H18.3643V20.6496ZM12.5 8.95117C14.485 8.95117 16.0999 10.5661 16.0999 12.5511C16.0999 14.5362 14.485 16.151 12.5 16.151C10.515 16.151 8.90005 14.5361 8.90005 12.5511C8.90005 10.566 10.515 8.95117 12.5 8.95117ZM12.5 9.73242C10.9458 9.73242 9.6813 10.9969 9.6813 12.5511C9.6813 14.1054 10.9458 15.3698 12.5 15.3698C14.0542 15.3698 15.3187 14.1053 15.3187 12.5511C15.3187 10.9968 14.0542 9.73242 12.5 9.73242Z" fill="#7C007C"/>
</svg>
