<svg width="20" height="20" viewBox="0 0 20 20" fill="none" xmlns="http://www.w3.org/2000/svg">
  <path d="M18.9844 6.665H16.2234V5.93438C16.2231 5.61333 16.0954 5.30554 15.8684 5.07853C15.6413 4.85151 15.3335 4.72381 15.0125 4.72344H7.43438C7.11333 4.72381 6.80554 4.85151 6.57852 5.07853C6.35151 5.30554 6.22381 5.61333 6.22344 5.93438V6.665H4.79359L2.75 3.62703C2.70943 3.56692 2.64668 3.52534 2.5755 3.51143C2.50432 3.49752 2.43053 3.5124 2.37031 3.55282L1.33266 4.25125C1.27254 4.29179 1.23097 4.35453 1.21709 4.42569C1.2032 4.49686 1.21813 4.57062 1.25859 4.63078L2.62641 6.665H1.01563C0.943105 6.665 0.873555 6.69381 0.822276 6.74509C0.770996 6.79637 0.742188 6.86592 0.742188 6.93844V8.34469C0.742167 8.3806 0.749226 8.41617 0.76296 8.44935C0.776694 8.48254 0.796835 8.51269 0.82223 8.53809C0.847625 8.56348 0.877777 8.58362 0.910961 8.59736C0.944145 8.61109 0.979711 8.61815 1.01563 8.61813H6.40797L9.59687 11.5625L6.65219 14.2813C6.40523 14.1126 6.10482 14.0407 5.80825 14.0793C5.51168 14.1179 5.2397 14.2643 5.04418 14.4906C4.84866 14.717 4.74327 15.0073 4.74812 15.3063C4.75297 15.6054 4.86772 15.8922 5.07048 16.112C5.27324 16.3319 5.54982 16.4694 5.84749 16.4984C6.14516 16.5273 6.44308 16.4457 6.68443 16.2691C6.92579 16.0925 7.0937 15.8333 7.15613 15.5408C7.21857 15.2483 7.17117 14.9431 7.02297 14.6833L7.93875 13.8378H12.0613L12.977 14.6833C12.8302 14.9415 12.7835 15.2447 12.8459 15.5351C12.9082 15.8256 13.0752 16.0829 13.315 16.2582C13.5549 16.4334 13.8508 16.5143 14.1464 16.4854C14.4421 16.4565 14.7167 16.3198 14.9181 16.1015C15.1195 15.8831 15.2335 15.5983 15.2384 15.3013C15.2434 15.0043 15.1389 14.7159 14.9448 14.491C14.7508 14.2661 14.4808 14.1204 14.1863 14.0817C13.8918 14.043 13.5933 14.1141 13.3478 14.2813L10.4031 11.5625L13.592 8.61813H18.9844C19.0203 8.61815 19.0559 8.61109 19.089 8.59736C19.1222 8.58362 19.1524 8.56348 19.1778 8.53809C19.2032 8.51269 19.2233 8.48254 19.237 8.44935C19.2508 8.41617 19.2578 8.3806 19.2578 8.34469V6.93844C19.2578 6.86592 19.229 6.79637 19.1777 6.74509C19.1264 6.69381 19.0569 6.665 18.9844 6.665V6.665ZM6.77031 5.93438C6.77052 5.75832 6.84055 5.58953 6.96504 5.46504C7.08953 5.34055 7.25832 5.27052 7.43438 5.27032H15.0125C15.1886 5.27052 15.3573 5.34055 15.4818 5.46504C15.6063 5.58953 15.6764 5.75832 15.6766 5.93438V6.665H6.77031V5.93438ZM1.86516 4.55235L2.44937 4.15922L4.13453 6.665H3.28578L1.86516 4.55235ZM5.97203 15.9466C5.84069 15.9466 5.7123 15.9076 5.6031 15.8347C5.49389 15.7617 5.40878 15.658 5.35852 15.5366C5.30826 15.4153 5.29511 15.2818 5.32073 15.153C5.34635 15.0241 5.4096 14.9058 5.50247 14.8129C5.59534 14.7201 5.71366 14.6568 5.84248 14.6312C5.97129 14.6056 6.10482 14.6187 6.22616 14.669C6.3475 14.7193 6.45121 14.8044 6.52418 14.9136C6.59715 15.0228 6.63609 15.1512 6.63609 15.2825C6.63589 15.4586 6.56586 15.6273 6.44137 15.7518C6.31687 15.8763 6.14809 15.9464 5.97203 15.9466V15.9466ZM14.692 15.2825C14.692 15.4138 14.6531 15.5422 14.5801 15.6514C14.5071 15.7606 14.4034 15.8458 14.2821 15.896C14.1608 15.9463 14.0272 15.9594 13.8984 15.9338C13.7696 15.9082 13.6513 15.8449 13.5584 15.7521C13.4655 15.6592 13.4023 15.5409 13.3767 15.4121C13.351 15.2832 13.3642 15.1497 13.4145 15.0284C13.4647 14.907 13.5498 14.8033 13.659 14.7304C13.7682 14.6574 13.8966 14.6184 14.028 14.6184C14.204 14.6186 14.3728 14.6887 14.4973 14.8132C14.6218 14.9377 14.6918 15.1064 14.692 15.2825V15.2825ZM11.4688 13.2911H8.53125L10 11.9347L11.4688 13.2911ZM10 11.1903L7.21422 8.61813H12.7858L10 11.1903ZM18.7109 8.07125H1.28906V7.21188H18.7109V8.07125Z" fill="#003761" />
</svg>