<svg width="26" height="25" viewBox="0 0 26 25" fill="none" xmlns="http://www.w3.org/2000/svg">
<g clip-path="url(#clip0)">
<path d="M25.1564 5.25004H14.6993C14.3762 4.93251 13.9514 4.75834 13.4966 4.75834C13.0412 4.75834 12.6159 4.9329 12.2928 5.25111C12.2833 5.25038 12.2738 5.25004 12.2642 5.25004H1.83677C1.37349 5.25004 0.996582 5.62694 0.996582 6.09022V6.09759C0.996582 7.07489 1.79165 7.86991 2.76889 7.86991H2.89946C2.89482 7.9055 2.89243 7.94183 2.89243 7.97874V7.98612C2.89243 8.96341 3.68749 9.75843 4.66474 9.75843H4.79506C4.79057 9.79344 4.78827 9.82908 4.78827 9.86527V9.87264C4.78827 10.8499 5.58334 11.645 6.56059 11.645H10.8659C11.0681 11.645 11.2321 11.481 11.2321 11.2787C11.2321 11.0765 11.0681 10.9125 10.8659 10.9125H6.56059C5.98715 10.9125 5.52069 10.446 5.52069 9.87264V9.86527C5.52069 9.81063 5.56151 9.76541 5.6143 9.75843H6.10243C6.11127 9.75843 6.12001 9.75814 6.1287 9.7575H7.14515C7.3474 9.7575 7.51136 9.59354 7.51136 9.39129C7.51136 9.18905 7.3474 9.02508 7.14515 9.02508H5.62856C5.61523 9.02508 5.60199 9.02537 5.58886 9.02601H4.66479C4.0914 9.02601 3.6249 8.55951 3.6249 7.98612V7.97874C3.6249 7.91932 3.67324 7.87098 3.73266 7.87098H10.3683C10.5705 7.87098 10.7345 7.70702 10.7345 7.50477C10.7345 7.30253 10.5705 7.13856 10.3683 7.13856H4.23456C4.22534 7.13788 4.21601 7.13754 4.20663 7.13754H2.76889C2.19546 7.13754 1.729 6.67103 1.729 6.09764V6.09027C1.729 6.03085 1.77734 5.98251 1.83677 5.98251H11.849C11.7928 6.16923 11.7683 6.36654 11.7782 6.56815L11.8975 9.02513H8.42508C8.22284 9.02513 8.05887 9.1891 8.05887 9.39134C8.05887 9.59359 8.22284 9.75755 8.42508 9.75755H11.9331L12.222 15.7026H11.3163C10.3303 15.7026 9.52816 16.5072 9.52816 17.4963C9.52816 18.0006 9.74163 18.4844 10.1138 18.8238C10.2633 18.9601 10.4949 18.9494 10.6312 18.8C10.7675 18.6505 10.7568 18.4189 10.6074 18.2826C10.387 18.0817 10.2606 17.795 10.2606 17.4963C10.2606 16.9111 10.7342 16.435 11.3163 16.435H12.2575L12.3607 18.5576H12.2642C11.2782 18.5576 10.4761 19.3622 10.4761 20.3513C10.4761 21.1101 10.955 21.7898 11.6678 22.0427C11.8583 22.1103 12.0677 22.0107 12.1353 21.82C12.203 21.6294 12.1033 21.42 11.9126 21.3524C11.4914 21.2029 11.2084 20.8007 11.2084 20.3513C11.2084 19.7661 11.682 19.29 12.2641 19.29H12.3962L12.6336 24.1763C12.6562 24.6381 13.0352 25 13.4966 25C13.9579 25 14.337 24.6381 14.3594 24.1762L14.5968 19.29H15.6768C16.6628 19.29 17.465 18.4853 17.465 17.4963C17.465 17.3892 17.4555 17.282 17.4367 17.1776C17.4011 16.9785 17.2109 16.8461 17.0116 16.8818C16.8126 16.9175 16.6801 17.1078 16.7158 17.307C16.7269 17.3688 16.7325 17.4324 16.7325 17.4963C16.7325 18.0815 16.259 18.5575 15.6768 18.5575H14.6324L14.7355 16.4349H16.5774C17.5633 16.4349 18.3655 15.6303 18.3655 14.6412C18.3655 13.6522 17.5633 12.8475 16.5774 12.8475C16.3751 12.8475 16.2112 13.0115 16.2112 13.2137C16.2112 13.416 16.3751 13.58 16.5774 13.58C17.1595 13.58 17.6331 14.056 17.6331 14.6412C17.6331 15.2264 17.1595 15.7025 16.5774 15.7025H14.7711L15.06 9.7575H18.8643C19.0666 9.7575 19.2305 9.59354 19.2305 9.39129C19.2305 9.18905 19.0666 9.02508 18.8643 9.02508H15.0955L15.2149 6.5681C15.2247 6.36644 15.2003 6.16918 15.1441 5.98241H25.1563C25.2157 5.98241 25.2641 6.03075 25.2641 6.09017V6.09755C25.2641 6.67098 24.7976 7.13744 24.2241 7.13744H23.1656C23.1562 7.13744 23.1468 7.13778 23.1377 7.13846H16.53C16.3277 7.13846 16.1638 7.30243 16.1638 7.50467C16.1638 7.70692 16.3277 7.87088 16.53 7.87088H23.2605C23.3199 7.87088 23.3682 7.91922 23.3682 7.97865V7.98602C23.3682 8.55946 22.9017 9.02591 22.3283 9.02591H21.4043C21.3911 9.02528 21.3778 9.02498 21.3646 9.02498H20.2626C20.0603 9.02498 19.8964 9.18895 19.8964 9.39119C19.8964 9.59344 20.0603 9.7574 20.2626 9.7574H20.2956C20.3043 9.75804 20.313 9.75833 20.3218 9.75833H21.3788C21.4315 9.76531 21.4724 9.81053 21.4724 9.86517V9.87254C21.4724 10.4459 21.0059 10.9124 20.4324 10.9124H16.0561C15.8538 10.9124 15.6899 11.0764 15.6899 11.2786C15.6899 11.4809 15.8538 11.6449 16.0561 11.6449H20.4324C21.4097 11.6449 22.2048 10.8498 22.2048 9.87254V9.86517C22.2048 9.82899 22.2025 9.79334 22.198 9.75833H22.3283C23.3056 9.75833 24.1007 8.96326 24.1007 7.98602V7.97865C24.1007 7.94178 24.0983 7.90545 24.0937 7.86981H24.2242C25.2015 7.86981 25.9966 7.07474 25.9966 6.0975V6.09012C25.9965 5.62694 25.6196 5.25004 25.1564 5.25004ZM13.6278 24.1408C13.6244 24.2119 13.5667 24.2675 13.4966 24.2675C13.4264 24.2675 13.3687 24.2118 13.3653 24.1407L13.1296 19.29H13.8635L13.6278 24.1408ZM13.8991 18.5575H13.094L12.9908 16.4349H14.0022L13.8991 18.5575ZM14.0379 15.7026H12.9553L12.5097 6.5326C12.4963 6.25736 12.5933 5.99613 12.783 5.79711C12.9711 5.5996 13.2245 5.49086 13.4966 5.49086C13.7686 5.49086 14.022 5.59965 14.2101 5.79711C14.3997 5.99618 14.4968 6.25736 14.4834 6.5326L14.0379 15.7026Z" fill="#969292"/>
<path d="M13.4966 4.14257C14.635 4.14257 15.5612 3.21342 15.5612 2.07129C15.5612 0.929148 14.635 0 13.4966 0C12.3581 0 11.4319 0.929148 11.4319 2.07129C11.4319 3.21342 12.3581 4.14257 13.4966 4.14257ZM13.4966 0.732421C14.2311 0.732421 14.8287 1.33301 14.8287 2.07129C14.8287 2.80956 14.2311 3.41015 13.4966 3.41015C12.762 3.41015 12.1643 2.80956 12.1643 2.07129C12.1643 1.33301 12.762 0.732421 13.4966 0.732421Z" fill="#969292"/>
<path d="M15.9793 19.5782C15.7861 19.6378 15.6778 19.8429 15.7375 20.0361C15.7688 20.1376 15.7847 20.2437 15.7847 20.3513C15.7847 20.8007 15.5017 21.203 15.0805 21.3524C14.8898 21.4201 14.7902 21.6294 14.8578 21.82C14.911 21.9702 15.0522 22.0639 15.2029 22.0639C15.2435 22.0639 15.2849 22.057 15.3254 22.0427C16.0382 21.7898 16.5171 21.1101 16.5171 20.3513C16.5171 20.1703 16.4902 19.9916 16.4372 19.82C16.3776 19.6268 16.1725 19.5184 15.9793 19.5782Z" fill="#969292"/>
<path d="M9.67713 15.3996C9.47259 15.1983 9.35995 14.929 9.35995 14.6412C9.35995 14.056 9.83353 13.58 10.4157 13.58C10.6179 13.58 10.7819 13.416 10.7819 13.2137C10.7819 13.0115 10.6179 12.8475 10.4157 12.8475C9.42967 12.8475 8.62753 13.6522 8.62753 14.6412C8.62753 15.1268 8.81781 15.5815 9.16336 15.9216C9.2347 15.9918 9.32752 16.0268 9.42025 16.0268C9.51493 16.0268 9.6096 15.9903 9.68128 15.9175C9.82318 15.7734 9.82132 15.5415 9.67713 15.3996Z" fill="#969292"/>
</g>
<defs>
<clipPath id="clip0">
<rect width="25" height="25" fill="white" transform="translate(0.996582)"/>
</clipPath>
</defs>
</svg>
