<svg width="27" height="27" viewBox="0 0 27 27" fill="none" xmlns="http://www.w3.org/2000/svg">
<path d="M9.81445 22.4606C9.71657 22.4607 9.62271 22.4996 9.55349 22.5688C9.48428 22.638 9.44537 22.7319 9.44531 22.8298V23.9547C9.44531 24.0526 9.4842 24.1465 9.55343 24.2157C9.62266 24.2849 9.71655 24.3238 9.81445 24.3238C9.91235 24.3238 10.0062 24.2849 10.0755 24.2157C10.1447 24.1465 10.1836 24.0526 10.1836 23.9547V22.8298C10.1835 22.7319 10.1446 22.638 10.0754 22.5688C10.0062 22.4996 9.91234 22.4607 9.81445 22.4606Z" fill="#003761"/>
<path d="M18.1455 14.086C18.2345 13.7896 18.3015 13.4869 18.3459 13.1806C18.3888 12.8812 18.4105 12.5791 18.4106 12.2766V6.34078C18.4144 5.94823 18.2733 5.56807 18.0143 5.27302C17.7554 4.97796 17.3968 4.78871 17.0071 4.74145C16.6678 4.70898 16.3272 4.78791 16.0368 4.96631V4.64695C16.0404 4.25441 15.8993 3.87428 15.6404 3.57924C15.3815 3.28419 15.0229 3.09492 14.6332 3.04762C14.2938 3.01484 13.9531 3.09388 13.6629 3.27269V2.6093C13.6665 2.21677 13.5254 1.83667 13.2665 1.54163C13.0075 1.24659 12.649 1.05731 12.2593 1.00997C12.0434 0.988614 11.8255 1.01264 11.6195 1.08049C11.4135 1.14834 11.224 1.25853 11.0631 1.40397C10.9022 1.54942 10.7735 1.7269 10.6852 1.92503C10.597 2.12317 10.5512 2.33756 10.5507 2.55445V3.9768C10.2602 3.79851 9.91963 3.71965 9.58038 3.75215C9.19129 3.80022 8.83351 3.98982 8.57527 4.28479C8.31702 4.57976 8.17638 4.95946 8.18017 5.35148V9.50969L8.11837 9.41646C7.8483 9.00807 7.42705 8.72369 6.94731 8.62588C6.46756 8.52807 5.96861 8.62484 5.56022 8.89491C5.15183 9.16498 4.86745 9.58623 4.76964 10.066C4.67183 10.5457 4.76861 11.0447 5.03868 11.4531L7.822 15.6594C8.05645 16.0128 8.18121 16.4277 8.18059 16.8518V25.6289C8.18059 25.7268 8.21949 25.8207 8.28871 25.8899C8.35794 25.9591 8.45183 25.998 8.54973 25.998H17.0838C17.1818 25.998 17.2756 25.9591 17.3449 25.8899C17.4141 25.8207 17.453 25.7268 17.453 25.6289V23.1924C17.5344 23.1966 17.616 23.1991 17.6985 23.1991C18.8704 23.198 19.997 22.7465 20.8453 21.938C21.6936 21.1295 22.1987 20.0259 22.2561 18.8554C22.3135 17.685 21.9188 16.5373 21.1537 15.6496C20.3886 14.762 19.3116 14.2024 18.1455 14.0866V14.086ZM16.7147 25.2598H8.91845V16.8518C8.91939 16.2827 8.75206 15.7261 8.43752 15.2518L5.65525 11.0457C5.49332 10.8007 5.43536 10.5014 5.49412 10.2136C5.55289 9.92584 5.72356 9.6732 5.9686 9.51127C6.21363 9.34934 6.51296 9.29139 6.80072 9.35015C7.08849 9.40891 7.34113 9.57959 7.50306 9.82462L8.24134 10.9405C8.28511 11.0067 8.34905 11.0571 8.42369 11.0841C8.49832 11.1111 8.57968 11.1133 8.65569 11.0904C8.7317 11.0676 8.79831 11.0208 8.84564 10.9571C8.89297 10.8934 8.91851 10.8161 8.91845 10.7367V5.35148C8.91333 5.14216 8.98547 4.93828 9.1211 4.77875C9.25673 4.61923 9.44636 4.51524 9.65378 4.48664C9.76717 4.47516 9.88171 4.48754 9.99003 4.52297C10.0984 4.5584 10.1981 4.6161 10.2828 4.69237C10.3674 4.76863 10.4352 4.86178 10.4818 4.96581C10.5283 5.06984 10.5526 5.18246 10.553 5.29643V10.3233C10.553 10.4212 10.5919 10.5151 10.6611 10.5843C10.7304 10.6535 10.8242 10.6924 10.9221 10.6924C11.0201 10.6924 11.1139 10.6535 11.1832 10.5843C11.2524 10.5151 11.2913 10.4212 11.2913 10.3233V2.55656C11.2914 2.44243 11.3155 2.3296 11.3619 2.22535C11.4084 2.12109 11.4761 2.02771 11.5608 1.95124C11.6456 1.87477 11.7454 1.8169 11.8538 1.78135C11.9623 1.74581 12.077 1.73338 12.1905 1.74487C12.398 1.77343 12.5877 1.8774 12.7233 2.03693C12.859 2.19645 12.9312 2.40036 12.9261 2.60972V10.3233C12.9261 10.4212 12.9649 10.5151 13.0342 10.5843C13.1034 10.6535 13.1973 10.6924 13.2952 10.6924C13.3931 10.6924 13.487 10.6535 13.5562 10.5843C13.6254 10.5151 13.6643 10.4212 13.6643 10.3233V4.59633C13.6644 4.48236 13.6883 4.36965 13.7344 4.26542C13.7805 4.16118 13.8478 4.0677 13.932 3.99094C14.0165 3.91347 14.1165 3.85484 14.2254 3.81891C14.3343 3.78298 14.4495 3.77058 14.5636 3.78253C14.771 3.81109 14.9607 3.91506 15.0964 4.07458C15.2321 4.23411 15.3042 4.43802 15.2991 4.64737V10.3233C15.2991 10.4212 15.338 10.5151 15.4072 10.5843C15.4765 10.6535 15.5703 10.6924 15.6682 10.6924C15.7661 10.6924 15.86 10.6535 15.9293 10.5843C15.9985 10.5151 16.0374 10.4212 16.0374 10.3233V6.29015C16.0373 6.17587 16.0612 6.06284 16.1075 5.95836C16.1538 5.85388 16.2216 5.76027 16.3063 5.68358C16.391 5.6069 16.4909 5.54883 16.5995 5.51314C16.7081 5.47744 16.8229 5.46491 16.9366 5.47636C17.1441 5.50492 17.3338 5.60888 17.4694 5.76841C17.6051 5.92794 17.6773 6.13184 17.6722 6.3412V12.2766C17.672 12.5443 17.6529 12.8118 17.6148 13.0769C17.5659 13.4168 17.4854 13.7515 17.3743 14.0765C16.2793 14.1541 15.2489 14.6235 14.4717 15.3989C13.6946 16.1742 13.2228 17.2036 13.1427 18.2984C13.0626 19.3933 13.3795 20.4803 14.0355 21.3605C14.6915 22.2407 15.6426 22.8552 16.7147 23.0913V25.2598ZM17.6977 22.4608C16.9403 22.4608 16.1999 22.2362 15.5702 21.8155C14.9405 21.3947 14.4496 20.7966 14.1598 20.0969C13.87 19.3972 13.7941 18.6272 13.9419 17.8844C14.0897 17.1416 14.4544 16.4592 14.9899 15.9237C15.5255 15.3882 16.2078 15.0234 16.9506 14.8757C17.6934 14.7279 18.4634 14.8038 19.1631 15.0936C19.8628 15.3834 20.4609 15.8743 20.8817 16.504C21.3025 17.1337 21.527 17.8741 21.527 18.6315C21.5259 19.6467 21.122 20.62 20.4041 21.3379C19.6863 22.0558 18.7129 22.4597 17.6977 22.4608Z" fill="#003761"/>
<path d="M11.2578 16.4706C11.0596 16.4706 10.8659 16.5294 10.7012 16.6395C10.5364 16.7496 10.408 16.9061 10.3321 17.0892C10.2563 17.2722 10.2365 17.4737 10.2751 17.6681C10.3138 17.8624 10.4092 18.0409 10.5493 18.1811C10.6894 18.3212 10.868 18.4166 11.0623 18.4553C11.2567 18.494 11.4582 18.4741 11.6412 18.3983C11.8243 18.3224 11.9808 18.194 12.0909 18.0292C12.201 17.8645 12.2598 17.6708 12.2598 17.4726C12.2594 17.207 12.1538 16.9523 11.9659 16.7645C11.7781 16.5766 11.5234 16.471 11.2578 16.4706ZM11.2578 17.7363C11.2057 17.7363 11.1547 17.7208 11.1113 17.6918C11.068 17.6628 11.0342 17.6217 11.0142 17.5735C10.9943 17.5253 10.989 17.4723 10.9992 17.4211C11.0094 17.37 11.0345 17.323 11.0714 17.2861C11.1082 17.2493 11.1552 17.2242 11.2064 17.214C11.2575 17.2038 11.3105 17.209 11.3587 17.229C11.4069 17.2489 11.4481 17.2827 11.477 17.3261C11.506 17.3695 11.5215 17.4204 11.5215 17.4726C11.5214 17.5425 11.4936 17.6095 11.4442 17.659C11.3948 17.7084 11.3277 17.7362 11.2578 17.7363Z" fill="#003761"/>
<path d="M12.6621 14.3448C12.8603 14.3448 13.054 14.2861 13.2187 14.176C13.3835 14.0659 13.5119 13.9094 13.5878 13.7263C13.6636 13.5432 13.6834 13.3418 13.6448 13.1474C13.6061 12.953 13.5107 12.7745 13.3706 12.6344C13.2305 12.4943 13.0519 12.3988 12.8576 12.3602C12.6632 12.3215 12.4618 12.3413 12.2787 12.4172C12.0956 12.493 11.9391 12.6214 11.829 12.7862C11.7189 12.951 11.6602 13.1447 11.6602 13.3429C11.6605 13.6085 11.7662 13.8632 11.954 14.051C12.1418 14.2388 12.3965 14.3445 12.6621 14.3448ZM12.6621 13.0792C12.7142 13.0792 12.7652 13.0947 12.8086 13.1236C12.8519 13.1526 12.8857 13.1938 12.9057 13.242C12.9257 13.2901 12.9309 13.3432 12.9207 13.3943C12.9105 13.4455 12.8854 13.4924 12.8485 13.5293C12.8117 13.5662 12.7647 13.5913 12.7135 13.6015C12.6624 13.6117 12.6094 13.6064 12.5612 13.5865C12.513 13.5665 12.4718 13.5327 12.4429 13.4894C12.4139 13.446 12.3984 13.395 12.3984 13.3429C12.3985 13.273 12.4263 13.2059 12.4757 13.1565C12.5252 13.1071 12.5922 13.0793 12.6621 13.0792Z" fill="#003761"/>
<path d="M13.0762 22.4608C12.878 22.4608 12.6843 22.5196 12.5195 22.6297C12.3547 22.7398 12.2263 22.8963 12.1505 23.0793C12.0747 23.2624 12.0548 23.4639 12.0935 23.6582C12.1321 23.8526 12.2276 24.0311 12.3677 24.1713C12.5078 24.3114 12.6863 24.4068 12.8807 24.4455C13.0751 24.4841 13.2765 24.4643 13.4596 24.3885C13.6427 24.3126 13.7992 24.1842 13.9093 24.0194C14.0194 23.8547 14.0781 23.6609 14.0781 23.4628C14.0778 23.1971 13.9721 22.9425 13.7843 22.7547C13.5965 22.5668 13.3418 22.4612 13.0762 22.4608ZM13.0762 23.7264C13.024 23.7264 12.973 23.711 12.9297 23.682C12.8863 23.653 12.8525 23.6119 12.8326 23.5637C12.8126 23.5155 12.8074 23.4625 12.8176 23.4113C12.8277 23.3602 12.8528 23.3132 12.8897 23.2763C12.9266 23.2395 12.9736 23.2143 13.0247 23.2042C13.0759 23.194 13.1289 23.1992 13.1771 23.2192C13.2252 23.2391 13.2664 23.2729 13.2954 23.3163C13.3244 23.3596 13.3398 23.4106 13.3398 23.4628C13.3397 23.5327 13.3119 23.5997 13.2625 23.6491C13.2131 23.6985 13.1461 23.7263 13.0762 23.7264Z" fill="#003761"/>
<path d="M15.8809 13.712C16.2012 13.712 16.4609 13.4523 16.4609 13.1319C16.4609 12.8116 16.2012 12.5518 15.8809 12.5518C15.5605 12.5518 15.3008 12.8116 15.3008 13.1319C15.3008 13.4523 15.5605 13.712 15.8809 13.712Z" fill="#003761"/>
<path d="M9.625 13.5011C9.94537 13.5011 10.2051 13.2414 10.2051 12.921C10.2051 12.6006 9.94537 12.3409 9.625 12.3409C9.30463 12.3409 9.04492 12.6006 9.04492 12.921C9.04492 13.2414 9.30463 13.5011 9.625 13.5011Z" fill="#003761"/>
<path d="M10.625 21.5422C10.9454 21.5422 11.2051 21.2825 11.2051 20.9621C11.2051 20.6418 10.9454 20.3821 10.625 20.3821C10.3046 20.3821 10.0449 20.6418 10.0449 20.9621C10.0449 21.2825 10.3046 21.5422 10.625 21.5422Z" fill="#003761"/>
<path d="M19.7699 18.7876C19.6751 18.7639 19.5748 18.7787 19.4909 18.8289C19.407 18.8791 19.3465 18.9605 19.3226 19.0553C19.3158 19.0823 19.3046 19.1086 19.2962 19.1352L18.9827 18.9546C19.0362 18.7479 19.037 18.5311 18.9851 18.3239L19.2987 18.1425C19.3053 18.1636 19.3147 18.186 19.3198 18.2081C19.3455 18.3011 19.4066 18.3802 19.4899 18.4287C19.5733 18.4772 19.6723 18.4912 19.7658 18.4676C19.8593 18.4441 19.9399 18.3849 19.9903 18.3027C20.0407 18.2205 20.0569 18.1218 20.0355 18.0278C19.9264 17.6024 19.7029 17.2151 19.3892 16.9079C19.3189 16.8397 19.2245 16.8022 19.1266 16.8037C19.0286 16.8051 18.9353 16.8454 18.8671 16.9157C18.7989 16.986 18.7615 17.0804 18.7629 17.1784C18.7644 17.2763 18.8047 17.3696 18.8749 17.4378C18.896 17.4574 18.9125 17.48 18.9317 17.5011L18.6191 17.6823C18.4643 17.5319 18.2752 17.4217 18.0681 17.361V16.9992C18.093 17.0049 18.1189 17.0079 18.1434 17.0148C18.2376 17.0416 18.3386 17.0299 18.4241 16.9822C18.5096 16.9345 18.5727 16.8548 18.5995 16.7607C18.6262 16.6665 18.6145 16.5655 18.5668 16.48C18.5192 16.3945 18.4395 16.3314 18.3453 16.3046C17.9222 16.1871 17.4751 16.1871 17.052 16.3046C16.9578 16.3314 16.8782 16.3945 16.8305 16.4801C16.7829 16.5656 16.7712 16.6666 16.798 16.7608C16.8247 16.855 16.8879 16.9346 16.9734 16.9823C17.059 17.0299 17.1599 17.0416 17.2541 17.0148C17.2786 17.0079 17.3047 17.0049 17.3298 16.999V17.3602C17.1222 17.4205 16.9325 17.5308 16.7774 17.6814L16.4648 17.5006C16.4835 17.4795 16.5004 17.4584 16.5203 17.4384C16.5897 17.3701 16.6293 17.2771 16.6304 17.1797C16.6315 17.0823 16.5941 16.9884 16.5263 16.9184C16.4585 16.8485 16.3658 16.8082 16.2685 16.8063C16.1711 16.8044 16.0769 16.8411 16.0064 16.9083C15.6931 17.2159 15.4699 17.6034 15.3612 18.0288C15.3373 18.1237 15.352 18.2242 15.4022 18.3083C15.4524 18.3923 15.5339 18.4529 15.6288 18.4769C15.6585 18.4844 15.6889 18.4882 15.7195 18.4883C15.8017 18.4881 15.8814 18.4606 15.9462 18.4101C16.0109 18.3595 16.057 18.2888 16.0771 18.2092C16.0828 18.1866 16.0925 18.1645 16.0992 18.1421L16.4131 18.3233C16.3615 18.5307 16.3628 18.7478 16.4169 18.9546L16.1032 19.1354C16.0948 19.1082 16.0834 19.0816 16.0764 19.0542C16.0654 19.0064 16.0449 18.9612 16.0162 18.9214C15.9874 18.8816 15.9511 18.8479 15.9092 18.8223C15.8673 18.7967 15.8207 18.7798 15.7722 18.7724C15.7236 18.7651 15.6741 18.7675 15.6265 18.7795C15.5789 18.7915 15.5342 18.8129 15.4949 18.8424C15.4557 18.8719 15.4227 18.9089 15.398 18.9513C15.3732 18.9937 15.3572 19.0406 15.3508 19.0893C15.3444 19.138 15.3478 19.1874 15.3607 19.2348C15.4697 19.6604 15.6933 20.0481 16.0073 20.3555C16.0777 20.4227 16.1718 20.4593 16.2692 20.4574C16.3665 20.4555 16.4592 20.4153 16.527 20.3454C16.5948 20.2755 16.6322 20.1817 16.6311 20.0843C16.6301 19.987 16.5906 19.894 16.5213 19.8256C16.5049 19.8098 16.4911 19.7908 16.4753 19.7741L16.7903 19.5925C16.9432 19.7379 17.1287 19.8446 17.3313 19.9037V20.2646C17.3062 20.2589 17.28 20.2559 17.2556 20.249C17.2087 20.2349 17.1596 20.2304 17.1109 20.2355C17.0623 20.2406 17.0152 20.2554 16.9723 20.2789C16.9294 20.3024 16.8916 20.3342 16.8611 20.3724C16.8306 20.4106 16.808 20.4545 16.7947 20.5015C16.7813 20.5486 16.7774 20.5978 16.7832 20.6464C16.789 20.6949 16.8043 20.7418 16.8284 20.7844C16.8525 20.8269 16.8848 20.8643 16.9234 20.8943C16.9621 20.9242 17.0063 20.9462 17.0535 20.959C17.4765 21.0771 17.9238 21.0771 18.3468 20.959C18.4393 20.9308 18.5171 20.8675 18.5634 20.7825C18.6097 20.6976 18.6208 20.5979 18.5943 20.5049C18.5679 20.4119 18.506 20.3329 18.4219 20.2851C18.3379 20.2372 18.2384 20.2242 18.1449 20.249C18.1204 20.2557 18.0945 20.2587 18.0696 20.2644V19.902C18.2713 19.8428 18.4561 19.7365 18.6085 19.5917L18.9237 19.7733C18.9076 19.7904 18.8935 19.8096 18.8768 19.8258C18.8415 19.8595 18.8133 19.8998 18.7936 19.9444C18.774 19.989 18.7634 20.0371 18.7625 20.0859C18.7615 20.1346 18.7703 20.1831 18.7881 20.2284C18.806 20.2738 18.8327 20.3152 18.8667 20.3502C18.9007 20.3851 18.9412 20.4131 18.986 20.4323C19.0309 20.4515 19.079 20.4616 19.1278 20.4621C19.1765 20.4626 19.2249 20.4535 19.2701 20.4352C19.3153 20.4168 19.3564 20.3898 19.3911 20.3555C19.7048 20.0483 19.9284 19.6611 20.0376 19.2358C20.0495 19.1888 20.052 19.1399 20.0449 19.092C20.0379 19.044 20.0215 18.9979 19.9966 18.9563C19.9718 18.9146 19.939 18.8783 19.9001 18.8494C19.8612 18.8204 19.817 18.7994 19.7699 18.7876ZM17.6994 19.2164C17.5835 19.2164 17.4703 19.1821 17.3739 19.1177C17.2776 19.0533 17.2025 18.9618 17.1582 18.8548C17.1139 18.7477 17.1023 18.6299 17.1249 18.5163C17.1475 18.4026 17.2033 18.2983 17.2853 18.2164C17.3672 18.1344 17.4716 18.0787 17.5852 18.0561C17.6989 18.0335 17.8167 18.0451 17.9237 18.0895C18.0307 18.1339 18.1222 18.209 18.1865 18.3053C18.2509 18.4017 18.2852 18.515 18.2852 18.6308C18.2849 18.7861 18.2231 18.935 18.1133 19.0447C18.0035 19.1545 17.8547 19.2162 17.6994 19.2164Z" fill="#003761"/>
</svg>
