<svg width="18" height="18" viewBox="0 0 18 18" fill="none" xmlns="http://www.w3.org/2000/svg">
<path d="M3.79688 6.71484C3.79688 6.61228 3.75613 6.51392 3.68361 6.44139C3.61108 6.36887 3.51272 6.32812 3.41016 6.32812H2.07422C2.02343 6.32812 1.97315 6.33813 1.92623 6.35756C1.87931 6.377 1.83668 6.40548 1.80077 6.44139C1.76486 6.4773 1.73637 6.51993 1.71694 6.56685C1.6975 6.61377 1.6875 6.66406 1.6875 6.71484V8.05078C1.6875 8.10157 1.6975 8.15185 1.71694 8.19877C1.73637 8.24569 1.76486 8.28832 1.80077 8.32423C1.83668 8.36014 1.87931 8.38863 1.92623 8.40806C1.97315 8.4275 2.02343 8.4375 2.07422 8.4375H3.41016C3.51272 8.4375 3.61108 8.39676 3.68361 8.32423C3.75613 8.25171 3.79688 8.15335 3.79688 8.05078V6.71484ZM2.17969 6.82031H3.30469V7.94531H2.17969V6.82031Z" fill="#16C79A"/>
<path d="M6.46875 6.71484C6.46875 6.61228 6.42801 6.51392 6.35548 6.44139C6.28296 6.36887 6.1846 6.32812 6.08203 6.32812H4.74609C4.64353 6.32812 4.54517 6.36887 4.47264 6.44139C4.40012 6.51392 4.35938 6.61228 4.35938 6.71484V8.05078C4.35938 8.15335 4.40012 8.25171 4.47264 8.32423C4.54517 8.39676 4.64353 8.4375 4.74609 8.4375H6.08203C6.1846 8.4375 6.28296 8.39676 6.35548 8.32423C6.42801 8.25171 6.46875 8.15335 6.46875 8.05078V6.71484ZM4.85156 6.82031H5.97656V7.94531H4.85156V6.82031Z" fill="#16C79A"/>
<path d="M9.17578 6.71484C9.17578 6.61228 9.13504 6.51392 9.06251 6.44139C8.98999 6.36887 8.89163 6.32812 8.78906 6.32812H7.45312C7.35056 6.32812 7.2522 6.36887 7.17967 6.44139C7.10715 6.51392 7.06641 6.61228 7.06641 6.71484V8.05078C7.06641 8.15335 7.10715 8.25171 7.17967 8.32423C7.2522 8.39676 7.35056 8.4375 7.45312 8.4375H8.78906C8.89163 8.4375 8.98999 8.39676 9.06251 8.32423C9.13504 8.25171 9.17578 8.15335 9.17578 8.05078V6.71484ZM7.55859 6.82031H8.68359V7.94531H7.55859V6.82031Z" fill="#16C79A"/>
<path d="M11.8477 6.71484C11.8477 6.61228 11.8069 6.51392 11.7344 6.44139C11.6619 6.36887 11.5635 6.32812 11.4609 6.32812H10.125C10.0224 6.32812 9.92407 6.36887 9.85155 6.44139C9.77902 6.51392 9.73828 6.61228 9.73828 6.71484V8.05078C9.73828 8.15335 9.77902 8.25171 9.85155 8.32423C9.92407 8.39676 10.0224 8.4375 10.125 8.4375H11.4609C11.5635 8.4375 11.6619 8.39676 11.7344 8.32423C11.8069 8.25171 11.8477 8.15335 11.8477 8.05078V6.71484ZM10.2305 6.82031H11.3555V7.94531H10.2305V6.82031Z" fill="#16C79A"/>
<path d="M14.5547 6.71484C14.5547 6.61228 14.5139 6.51392 14.4414 6.44139C14.3689 6.36887 14.2705 6.32812 14.168 6.32812H12.832C12.7295 6.32812 12.6311 6.36887 12.5586 6.44139C12.4861 6.51392 12.4453 6.61228 12.4453 6.71484V8.05078C12.4453 8.15335 12.4861 8.25171 12.5586 8.32423C12.6311 8.39676 12.7295 8.4375 12.832 8.4375H14.168C14.2705 8.4375 14.3689 8.39676 14.4414 8.32423C14.5139 8.25171 14.5547 8.15335 14.5547 8.05078V6.71484ZM12.9375 6.82031H14.0625V7.94531H12.9375V6.82031Z" fill="#16C79A"/>
<path d="M3.83203 9.70312C3.83203 9.60056 3.79129 9.5022 3.71876 9.42967C3.64624 9.35715 3.54788 9.31641 3.44531 9.31641H2.10938C2.00681 9.31641 1.90845 9.35715 1.83592 9.42967C1.7634 9.5022 1.72266 9.60056 1.72266 9.70312V11.0391C1.72266 11.1416 1.7634 11.24 1.83592 11.3125C1.90845 11.385 2.00681 11.4258 2.10938 11.4258H3.44531C3.54788 11.4258 3.64624 11.385 3.71876 11.3125C3.79129 11.24 3.83203 11.1416 3.83203 11.0391V9.70312ZM3.33984 10.9336H2.21484V9.80859H3.33984V10.9336Z" fill="#16C79A"/>
<path d="M6.50391 9.70312C6.50391 9.65234 6.4939 9.60205 6.47447 9.55513C6.45503 9.50822 6.42655 9.46558 6.39064 9.42967C6.35473 9.39376 6.3121 9.36528 6.26518 9.34584C6.21826 9.32641 6.16797 9.31641 6.11719 9.31641H4.78125C4.67869 9.31641 4.58032 9.35715 4.5078 9.42967C4.43527 9.5022 4.39453 9.60056 4.39453 9.70312V11.0391C4.39453 11.1416 4.43527 11.24 4.5078 11.3125C4.58032 11.385 4.67869 11.4258 4.78125 11.4258H6.11719C6.16797 11.4258 6.21826 11.4158 6.26518 11.3963C6.3121 11.3769 6.35473 11.3484 6.39064 11.3125C6.42655 11.2766 6.45503 11.234 6.47447 11.1871C6.4939 11.1401 6.50391 11.0898 6.50391 11.0391V9.70312ZM6.01172 10.9336H4.88672V9.80859H6.01172V10.9336Z" fill="#16C79A"/>
<path d="M9.21094 9.70312C9.21094 9.60056 9.17019 9.5022 9.09767 9.42967C9.02515 9.35715 8.92678 9.31641 8.82422 9.31641H7.48828C7.38572 9.31641 7.28735 9.35715 7.21483 9.42967C7.14231 9.5022 7.10156 9.60056 7.10156 9.70312V11.0391C7.10156 11.1416 7.14231 11.24 7.21483 11.3125C7.28735 11.385 7.38572 11.4258 7.48828 11.4258H8.82422C8.92678 11.4258 9.02515 11.385 9.09767 11.3125C9.17019 11.24 9.21094 11.1416 9.21094 11.0391V9.70312ZM8.71875 10.9336H7.59375V9.80859H8.71875V10.9336Z" fill="#16C79A"/>
<path d="M3.83203 12.4805C3.83203 12.3779 3.79129 12.2795 3.71876 12.207C3.64624 12.1345 3.54788 12.0938 3.44531 12.0938H2.10938C2.00681 12.0938 1.90845 12.1345 1.83592 12.207C1.7634 12.2795 1.72266 12.3779 1.72266 12.4805V13.8516C1.72266 13.9541 1.7634 14.0525 1.83592 14.125C1.90845 14.1975 2.00681 14.2383 2.10938 14.2383H3.44531C3.54788 14.2383 3.64624 14.1975 3.71876 14.125C3.79129 14.0525 3.83203 13.9541 3.83203 13.8516V12.4805ZM3.33984 13.7461H2.21484V12.5859H3.33984V13.7461Z" fill="#16C79A"/>
<path d="M6.50391 12.4805C6.50391 12.4297 6.4939 12.3794 6.47447 12.3325C6.45503 12.2856 6.42655 12.2429 6.39064 12.207C6.35473 12.1711 6.3121 12.1426 6.26518 12.1232C6.21826 12.1038 6.16797 12.0938 6.11719 12.0938H4.78125C4.67869 12.0938 4.58032 12.1345 4.5078 12.207C4.43527 12.2795 4.39453 12.3779 4.39453 12.4805V13.8516C4.39453 13.9541 4.43527 14.0525 4.5078 14.125C4.58032 14.1975 4.67869 14.2383 4.78125 14.2383H6.11719C6.16797 14.2383 6.21826 14.2283 6.26518 14.2088C6.3121 14.1894 6.35473 14.1609 6.39064 14.125C6.42655 14.0891 6.45503 14.0465 6.47447 13.9996C6.4939 13.9526 6.50391 13.9023 6.50391 13.8516V12.4805ZM6.01172 13.7461H4.88672V12.5859H6.01172V13.7461Z" fill="#16C79A"/>
<path d="M15.6094 9.94616V4.13719C15.6094 3.29843 14.975 2.63672 14.1581 2.63672H13.6406V1.93475C13.6418 1.70276 13.5509 1.47978 13.3878 1.31478C13.2247 1.14977 13.0028 1.05623 12.7708 1.05469H12.6231C12.39 1.05578 12.1667 1.14882 12.0017 1.3136C11.8368 1.47839 11.7435 1.7016 11.7422 1.93475V2.63672H4.5V1.93475C4.50116 1.70276 4.41021 1.47978 4.24712 1.31477C4.08403 1.14977 3.86213 1.05623 3.63013 1.05469H3.48247C3.24933 1.05579 3.02603 1.14883 2.86109 1.31362C2.69615 1.4784 2.60288 1.70161 2.60156 1.93475V2.63672H2.20222C1.3545 2.63672 0.632812 3.32638 0.632812 4.13719V13.8907C0.632812 14.7105 1.3545 15.3984 2.20222 15.3984H10.5122C10.8625 15.8783 11.3217 16.2682 11.852 16.5359C12.3824 16.8036 12.9687 16.9415 13.5628 16.9383C14.3835 16.9385 15.1822 16.6726 15.8391 16.1805C16.4959 15.6885 16.9756 14.9968 17.2061 14.2091C17.4367 13.4214 17.4057 12.5802 17.1178 11.8117C16.8299 11.0431 16.3007 10.3885 15.6094 9.94616V9.94616ZM13.1484 3.34336C13.1484 3.44499 13.1081 3.54246 13.0362 3.61432C12.9643 3.68619 12.8669 3.72656 12.7652 3.72656H12.6176C12.5159 3.72656 12.4185 3.68619 12.3466 3.61432C12.2747 3.54246 12.2344 3.44499 12.2344 3.34336V1.93008C12.2344 1.82845 12.2747 1.73098 12.3466 1.65911C12.4185 1.58725 12.5159 1.54688 12.6176 1.54688H12.7652C12.8669 1.54688 12.9643 1.58725 13.0362 1.65911C13.1081 1.73098 13.1484 1.82845 13.1484 1.93008V3.34336ZM4.00781 3.34336C4.00781 3.44499 3.96744 3.54246 3.89557 3.61432C3.82371 3.68619 3.72624 3.72656 3.62461 3.72656H3.47695C3.37532 3.72656 3.27785 3.68619 3.20599 3.61432C3.13412 3.54246 3.09375 3.44499 3.09375 3.34336V1.93008C3.09375 1.82845 3.13412 1.73098 3.20599 1.65911C3.27785 1.58725 3.37532 1.54688 3.47695 1.54688H3.62461C3.72624 1.54688 3.82371 1.58725 3.89557 1.65911C3.96744 1.73098 4.00781 1.82845 4.00781 1.93008V3.34336ZM1.125 4.13719C1.125 3.60257 1.63125 3.12891 2.20222 3.12891H2.60156V3.34807C2.60325 3.58023 2.69692 3.80225 2.86204 3.96546C3.02715 4.12866 3.25024 4.21975 3.4824 4.21875H3.63006C3.74445 4.21905 3.85776 4.19672 3.96349 4.15306C4.06922 4.10941 4.16527 4.04527 4.24612 3.96435C4.32697 3.88343 4.39103 3.78733 4.4346 3.68156C4.47817 3.57579 4.50039 3.46246 4.5 3.34807V3.12891H11.7422V3.34807C11.7439 3.58023 11.8375 3.80225 12.0027 3.96546C12.1678 4.12866 12.3909 4.21975 12.623 4.21875H12.7707C12.8851 4.21905 12.9984 4.19673 13.1041 4.15307C13.2099 4.10942 13.3059 4.04528 13.3868 3.96436C13.4676 3.88344 13.5317 3.78733 13.5752 3.68157C13.6188 3.5758 13.641 3.46246 13.6406 3.34807V3.12891H14.1581C14.6988 3.12891 15.1172 3.57441 15.1172 4.13719V5.13281H1.125V4.13719ZM2.20222 14.9062C1.63125 14.9062 1.125 14.4342 1.125 13.8907V5.625H15.1172V9.67809C14.6277 9.45459 14.0954 9.34021 13.5573 9.34288C12.9567 9.34288 12.4102 9.48322 11.8828 9.73252V9.70791C11.8841 9.60546 11.8447 9.50669 11.7732 9.43329C11.7017 9.35989 11.604 9.31785 11.5016 9.31641H10.1656C10.0621 9.31737 9.96299 9.3589 9.88967 9.43207C9.81635 9.50523 9.77462 9.60422 9.77344 9.7078V11.0437C9.77498 11.1463 9.81713 11.2442 9.89063 11.3158C9.96414 11.3874 10.063 11.4269 10.1656 11.4258H10.1719C9.90449 11.9567 9.76484 12.5427 9.76405 13.1371C9.76317 13.7538 9.91352 14.3612 10.2019 14.9062H2.20222ZM10.47 10.9336H10.2656V9.80859H11.3906V10.0232C11.0362 10.2745 10.7253 10.582 10.47 10.9336V10.9336ZM13.5628 16.4484C12.9088 16.4484 12.2695 16.2545 11.7257 15.8912C11.1819 15.5278 10.7581 15.0114 10.5078 14.4072C10.2576 13.8029 10.1921 13.1381 10.3197 12.4966C10.4473 11.8552 10.7622 11.266 11.2247 10.8036C11.6871 10.3411 12.2763 10.0262 12.9177 9.8986C13.5592 9.77101 14.224 9.8365 14.8283 10.0868C15.4325 10.3371 15.9489 10.7609 16.3123 11.3047C16.6756 11.8485 16.8695 12.4878 16.8695 13.1418C16.8685 14.0185 16.5198 14.859 15.8999 15.4789C15.28 16.0988 14.4395 16.4475 13.5628 16.4484V16.4484Z" fill="#16C79A"/>
<path d="M15.1319 12.2956L13.2368 14.107L12.2194 13.0896C12.1418 13.0119 12.0158 13.0119 11.9382 13.0896C11.8605 13.1673 11.8605 13.2932 11.9382 13.3709L13.0931 14.5259C13.1306 14.5636 13.1817 14.5845 13.2348 14.5838C13.2863 14.5843 13.3359 14.5642 13.3724 14.5279L15.4093 12.5829C15.4473 12.5464 15.4695 12.4963 15.4706 12.4435C15.4717 12.3907 15.4518 12.3397 15.4152 12.3016C15.3385 12.2221 15.212 12.2195 15.1319 12.2956V12.2956Z" fill="#16C79A"/>
</svg>
