<svg width="20" height="20" viewBox="0 0 20 20" fill="none" xmlns="http://www.w3.org/2000/svg">
<path d="M17.0063 2.35864H15.7407V1.22192C15.7407 0.962939 15.5309 0.753174 15.2719 0.753174C15.013 0.753174 14.8032 0.962939 14.8032 1.22192V2.35864H5.14692V1.22192C5.14692 0.962939 4.93715 0.753174 4.67817 0.753174C4.41918 0.753174 4.20942 0.962939 4.20942 1.22192V2.35864H2.94379C1.6515 2.35864 0.600037 3.42461 0.600037 4.71704V16.9016C0.60238 18.1918 1.65048 19.236 2.94086 19.2336H17.0063C18.2967 19.2376 19.346 18.1948 19.3501 16.9045V4.71704C19.3501 3.42461 18.2986 2.35864 17.0063 2.35864V2.35864ZM18.4126 16.9016C18.4108 17.6736 17.7834 18.2979 17.0114 18.2961H2.94379C2.17182 18.3007 1.54223 17.6787 1.53754 16.9067V4.71704C1.53754 3.94155 2.1683 3.29614 2.94379 3.29614H4.20942V4.94116C4.20942 5.2 4.41918 5.40991 4.67817 5.40991C4.93715 5.40991 5.14692 5.2 5.14692 4.94116V3.29614H14.8032V4.94116C14.8032 5.2 15.013 5.40991 15.2719 5.40991C15.5309 5.40991 15.7407 5.2 15.7407 4.94116V3.29614H17.0063C17.7818 3.29614 18.4126 3.94155 18.4126 4.71704V16.9016Z" fill="#003761"/>
<path d="M15.0128 11.2649H4.93726C4.67827 11.2649 4.46851 11.4747 4.46851 11.7336C4.46851 11.9925 4.67827 12.2024 4.93726 12.2024H15.0128C15.2718 12.2024 15.4815 11.9925 15.4815 11.7336C15.4815 11.4747 15.2718 11.2649 15.0128 11.2649Z" fill="#003761"/>
<path d="M15.0128 14.6399H4.93726C4.67827 14.6399 4.46851 14.8497 4.46851 15.1086C4.46851 15.3675 4.67827 15.5774 4.93726 15.5774H15.0128C15.2718 15.5774 15.4815 15.3675 15.4815 15.1086C15.4815 14.8497 15.2718 14.6399 15.0128 14.6399Z" fill="#003761"/>
<path d="M4.93726 8.87427H10.3948C10.6538 8.87427 10.8636 8.66436 10.8636 8.40552C10.8636 8.14653 10.6538 7.93677 10.3948 7.93677H4.93726C4.67827 7.93677 4.46851 8.14653 4.46851 8.40552C4.46851 8.66436 4.67827 8.87427 4.93726 8.87427Z" fill="#003761"/>
</svg>
