<svg width="62" height="19" viewBox="0 0 62 19" fill="none" xmlns="http://www.w3.org/2000/svg">
<path d="M13.1685 12.1792H10.1392L9.50537 14H8.09277L11.0469 6.17969H12.2661L15.2256 14H13.8076L13.1685 12.1792ZM10.5205 11.0835H12.7871L11.6538 7.83936L10.5205 11.0835ZM19.2107 10.9868H17.6961V14H16.3372V6.17969H19.0872C19.9895 6.17969 20.686 6.382 21.1765 6.78662C21.6671 7.19124 21.9124 7.77669 21.9124 8.54297C21.9124 9.06576 21.7853 9.50439 21.531 9.85889C21.2804 10.2098 20.9295 10.4801 20.4783 10.6699L22.2346 13.9302V14H20.7791L19.2107 10.9868ZM17.6961 9.89648H19.0926C19.5509 9.89648 19.909 9.7819 20.1668 9.55273C20.4246 9.31999 20.5535 9.00309 20.5535 8.60205C20.5535 8.18311 20.4335 7.85905 20.1936 7.62988C19.9573 7.40072 19.6028 7.28255 19.1302 7.27539H17.6961V9.89648ZM26.295 10.9868H24.7803V14H23.4214V6.17969H26.1714C27.0738 6.17969 27.7702 6.382 28.2608 6.78662C28.7514 7.19124 28.9966 7.77669 28.9966 8.54297C28.9966 9.06576 28.8695 9.50439 28.6153 9.85889C28.3646 10.2098 28.0137 10.4801 27.5626 10.6699L29.3189 13.9302V14H27.8633L26.295 10.9868ZM24.7803 9.89648H26.1768C26.6351 9.89648 26.9932 9.7819 27.251 9.55273C27.5088 9.31999 27.6378 9.00309 27.6378 8.60205C27.6378 8.18311 27.5178 7.85905 27.2779 7.62988C27.0416 7.40072 26.6871 7.28255 26.2144 7.27539H24.7803V9.89648ZM31.9398 14H30.5863V6.17969H31.9398V14ZM36.5856 12.2974L38.5729 6.17969H40.066L37.2516 14H35.9357L33.132 6.17969H34.6197L36.5856 12.2974ZM45.7431 10.5088H42.5312V12.915H46.2855V14H41.1723V6.17969H46.2479V7.27539H42.5312V9.43457H45.7431V10.5088ZM47.612 14V6.17969H49.9216C50.6126 6.17969 51.2249 6.33366 51.7585 6.6416C52.2956 6.94954 52.711 7.38639 53.0046 7.95215C53.2982 8.5179 53.445 9.16602 53.445 9.89648V10.2886C53.445 11.0298 53.2964 11.6815 52.9992 12.2437C52.7056 12.8058 52.2848 13.2391 51.737 13.5435C51.1927 13.8478 50.5679 14 49.8625 14H47.612ZM48.9709 7.27539V12.915H49.8571C50.5697 12.915 51.1157 12.693 51.4953 12.249C51.8784 11.8014 52.0736 11.1605 52.0807 10.3262V9.89111C52.0807 9.04248 51.8963 8.39437 51.5275 7.94678C51.1587 7.49919 50.6234 7.27539 49.9216 7.27539H48.9709Z" fill="#16C79A"/>
<rect x="0.996094" width="61" height="19" rx="5" fill="#16C79A" fill-opacity="0.15"/>
</svg>
