<svg width="26" height="26" viewBox="0 0 26 26" fill="none" xmlns="http://www.w3.org/2000/svg">
<path d="M18.9446 20.8447C18.6386 20.8455 18.3904 21.0935 18.3896 21.3999V22.3934C18.387 23.3118 17.6428 24.056 16.7242 24.0586H4.08995C3.17138 24.056 2.42736 23.3118 2.42458 22.3934V3.57521C2.42736 2.65681 3.17138 1.91262 4.08995 1.91002H12.3833V5.14063C12.3838 6.67326 13.6263 7.91578 15.159 7.91612H18.3896V10.8582C18.3896 11.1648 18.638 11.4133 18.9446 11.4133C19.2512 11.4133 19.4997 11.1648 19.4997 10.8582V7.34996C19.4987 7.20282 19.441 7.06175 19.3389 6.95574L13.3437 0.972011L13.3381 0.966285C13.2333 0.858361 13.0888 0.797979 12.9385 0.799714C12.9198 0.798846 12.9009 0.800582 12.883 0.80544H4.08995C2.55732 0.805787 1.31515 2.04813 1.31445 3.58093V22.399C1.31515 23.9316 2.55732 25.1739 4.08995 25.1745H16.7242C18.2568 25.1739 19.4992 23.9316 19.4997 22.399V21.4053C19.5014 21.2571 19.4437 21.1143 19.3394 21.0091C19.2351 20.9036 19.093 20.8445 18.9446 20.8447ZM13.4936 5.14063V2.69273L17.6124 6.806H15.159C14.2402 6.80339 13.4962 6.05937 13.4936 5.14063Z" fill="#003761"/>
<path d="M22.2246 10.997C22.1281 10.8852 21.9909 10.817 21.8436 10.8077C21.6964 10.7981 21.5515 10.8484 21.4419 10.9472L14.1756 17.3084C14.0834 17.3874 14.0208 17.495 13.9977 17.6138L13.4149 20.3616C13.3819 20.5311 13.4269 20.7063 13.5372 20.8391C13.643 20.9617 13.797 21.0325 13.959 21.0334H13.9923L16.8456 20.8724C16.9691 20.8654 17.0866 20.8165 17.1785 20.7337L24.4395 14.3721C24.551 14.2748 24.6189 14.1368 24.6281 13.9892C24.6404 13.842 24.5899 13.697 24.4893 13.5892L22.2246 10.997ZM16.5846 19.7734L14.6475 19.8842L15.0414 18.019L21.7471 12.1459L23.2847 13.9002L16.5846 19.7734Z" fill="#003761"/>
<path d="M4.92811 10.4089H10.1461C10.4527 10.4089 10.7012 10.1601 10.7012 9.85367C10.7012 9.54708 10.4527 9.29861 10.1461 9.29861H4.92811C4.62152 9.29861 4.37305 9.54708 4.37305 9.85367C4.37305 10.1601 4.62152 10.4089 4.92811 10.4089Z" fill="#003761"/>
<path d="M15.9192 13.506C15.9183 13.1999 15.6704 12.952 15.3641 12.9509H4.92811C4.62152 12.9509 4.37305 13.1997 4.37305 13.506C4.37305 13.8126 4.62152 14.0612 4.92811 14.0612H15.3641C15.6704 14.0604 15.9183 13.8124 15.9192 13.506Z" fill="#003761"/>
<path d="M12.2335 16.6034H4.92811C4.62152 16.6034 4.37305 16.8521 4.37305 17.1587C4.37305 17.4653 4.62152 17.7137 4.92811 17.7137H12.2335C12.5399 17.7137 12.7885 17.4653 12.7885 17.1587C12.7885 16.8521 12.5399 16.6034 12.2335 16.6034Z" fill="#003761"/>
<path d="M12.2335 20.2563H4.92811C4.62152 20.2563 4.37305 20.5048 4.37305 20.8114C4.37305 21.118 4.62152 21.3664 4.92811 21.3664H12.2335C12.5399 21.3664 12.7885 21.118 12.7885 20.8114C12.7885 20.5048 12.5399 20.2563 12.2335 20.2563Z" fill="#003761"/>
</svg>
