<svg width="18" height="18" viewBox="0 0 18 18" fill="none" xmlns="http://www.w3.org/2000/svg">
<path d="M13.4295 9.30549C12.3301 9.30162 11.2784 9.7544 10.5257 10.5559C9.44305 9.69212 8.09801 9.224 6.71309 9.22923H6.70218C5.03767 9.23275 3.49307 9.87976 2.34829 11.0573C1.1852 12.2458 0.549226 13.8703 0.552749 15.633C0.553431 15.7295 0.591276 15.8218 0.658215 15.891C0.726518 15.9594 0.819483 15.9975 0.916198 15.9965L10.4566 15.9783C10.4784 16.0037 10.5001 16.0255 10.522 16.051C11.7746 17.3766 13.7656 17.6866 15.362 16.8048C16.9584 15.9229 17.756 14.0727 17.3008 12.3066C16.8457 10.5405 15.2533 9.30606 13.4295 9.30549ZM1.29056 15.2659C1.36693 13.8376 1.91938 12.5329 2.86789 11.5626C3.87471 10.5268 5.23758 9.95613 6.70218 9.95613H6.71309C7.93549 9.95136 9.1229 10.3641 10.0786 11.1264C9.27337 12.37 9.22029 13.9567 9.94049 15.2515L1.29056 15.2659ZM13.4295 16.5744C11.6229 16.5744 10.1586 15.1099 10.1586 13.3033C10.1586 11.497 11.6229 10.0324 13.4295 10.0324C15.2361 10.0324 16.7004 11.497 16.7004 13.3033C16.7004 15.1099 15.2361 16.5744 13.4295 16.5744Z" fill="#003761"/>
<path d="M6.70582 8.36425C8.82741 8.36425 10.5474 6.64429 10.5474 4.52269C10.5474 2.40098 8.82741 0.681015 6.70582 0.681015C4.58422 0.681015 2.86426 2.40098 2.86426 4.52269C2.8663 6.64338 4.58502 8.3622 6.70582 8.36425ZM6.70582 1.40791C8.42612 1.40791 9.82048 2.8025 9.82048 4.52269C9.82048 6.24276 8.42612 7.63735 6.70582 7.63735C4.98563 7.63735 3.59116 6.24276 3.59116 4.52269C3.5932 2.80329 4.98642 1.41007 6.70582 1.40791Z" fill="#003761"/>
<path d="M14.9014 12.9399H13.7929V11.8315C13.7929 11.6307 13.6301 11.468 13.4294 11.468C13.2287 11.468 13.066 11.6307 13.066 11.8315V12.9399H11.9574C11.7567 12.9399 11.594 13.1026 11.594 13.3033C11.594 13.5041 11.7567 13.6668 11.9574 13.6668H13.066V14.7753C13.066 14.976 13.2287 15.1387 13.4294 15.1387C13.6301 15.1387 13.7929 14.976 13.7929 14.7753V13.6668H14.9014C15.1021 13.6668 15.2647 13.5041 15.2647 13.3033C15.2647 13.1026 15.1021 12.9399 14.9014 12.9399Z" fill="#003761"/>
</svg>
