<svg width="15" height="13" viewBox="0 0 15 13" fill="none" xmlns="http://www.w3.org/2000/svg">
<path d="M7.49994 8.2001C7.24108 8.2001 7.03125 7.99025 7.03125 7.73142V4.45062C7.03125 4.19179 7.24108 3.98193 7.49994 3.98193C7.7588 3.98193 7.96863 4.19179 7.96863 4.45062V7.73142C7.96863 7.99028 7.7588 8.2001 7.49994 8.2001Z" fill="#F40505"/>
<path d="M14.8016 10.5533L8.96674 0.828641C8.30472 -0.275144 6.69666 -0.277283 6.03335 0.828641L0.198478 10.5533C-0.353312 11.4729 0.310552 12.6527 1.38718 12.6527H13.6128C14.6897 12.6527 15.3533 11.4728 14.8016 10.5533V10.5533ZM13.6128 11.7153H1.38721C1.03798 11.7153 0.823851 11.3325 1.0023 11.0354L6.83715 1.3108C7.13649 0.811856 7.86322 0.81127 8.16294 1.3108L13.9978 11.0354C14.176 11.3322 13.9624 11.7153 13.6128 11.7153Z" fill="#F40505"/>
<path d="M7.49991 10.075C7.88818 10.075 8.20294 9.76025 8.20294 9.37198C8.20294 8.9837 7.88818 8.66895 7.49991 8.66895C7.11163 8.66895 6.79688 8.9837 6.79688 9.37198C6.79688 9.76025 7.11163 10.075 7.49991 10.075Z" fill="#F40505"/>
</svg>
