<svg width="32" height="32" viewBox="0 0 32 32" fill="none" xmlns="http://www.w3.org/2000/svg">
  <g clip-path="url(#clip0_254_2125)">
    <path d="M23.2466 13.8525V7.79663C23.2466 7.62329 23.1665 7.46313 23.0532 7.33643L16.2637 0.206787C16.137 0.0734863 15.9568 0 15.7769 0H5.01221C3.0249 0 1.4375 1.62061 1.4375 3.60815V23.9634C1.4375 25.9509 3.0249 27.5449 5.01221 27.5449H13.5093C15.1165 30.2126 18.0378 32 21.3657 32C26.4211 32 30.5496 27.8916 30.5496 22.8296C30.5564 18.4077 27.3816 14.7129 23.2466 13.8525ZM16.4438 2.34106L20.999 7.13623H18.0444C17.1641 7.13623 16.4438 6.40942 16.4438 5.52905V2.34106ZM5.01221 26.2109C3.76514 26.2109 2.77148 25.2104 2.77148 23.9634V3.60815C2.77148 2.35425 3.76514 1.33398 5.01221 1.33398H15.1099V5.52905C15.1099 7.14966 16.4238 8.47021 18.0444 8.47021H21.9126V13.679C21.7126 13.6724 21.5525 13.6523 21.3792 13.6523C19.0515 13.6523 16.9106 14.5461 15.2966 15.9468H6.82642C6.45947 15.9468 6.15942 16.2468 6.15942 16.6135C6.15942 16.9805 6.45947 17.2805 6.82642 17.2805H14.0562C13.5825 17.9475 13.189 18.6145 12.8823 19.3481H6.82642C6.45947 19.3481 6.15942 19.6482 6.15942 20.0151C6.15942 20.3818 6.45947 20.6821 6.82642 20.6821H12.4487C12.282 21.3491 12.1953 22.0894 12.1953 22.8296C12.1953 24.03 12.4287 25.2173 12.8489 26.2178H5.01221V26.2109ZM21.3726 30.6729C17.0508 30.6729 13.5359 27.158 13.5359 22.8362C13.5359 18.5144 17.0439 14.9995 21.3726 14.9995C25.7009 14.9995 29.209 18.5144 29.209 22.8362C29.209 27.158 25.6943 30.6729 21.3726 30.6729Z" fill="#003761" />
    <path d="M24.2631 20.3768L20.4718 23.9959L18.5121 22.03C18.2638 21.7814 17.8609 21.7814 17.6123 22.03C17.3636 22.2785 17.3636 22.6814 17.6123 22.9299L20.0185 25.3363C20.1381 25.4568 20.3017 25.5236 20.4718 25.5214C20.6366 25.5228 20.795 25.4586 20.9121 25.3425L25.1503 21.2893C25.2723 21.1727 25.343 21.0125 25.3467 20.8435C25.3501 20.6746 25.2865 20.5112 25.1694 20.3896C24.9209 20.1402 24.5186 20.1344 24.2631 20.3768Z" fill="#003761" />
    <path d="M11.922 8.57773H10.744V7.3998C10.744 7.15496 10.5455 6.95654 10.3008 6.95654C10.056 6.95654 9.85751 7.15501 9.85751 7.3998V8.57773H8.67958C8.43479 8.57773 8.23633 8.77619 8.23633 9.02098C8.23633 9.26577 8.43479 9.46424 8.67958 9.46424H9.85751V10.6422C9.85751 10.887 10.056 11.0854 10.3008 11.0854C10.5455 11.0854 10.744 10.887 10.744 10.6422V9.46424H11.922C12.1667 9.46424 12.3652 9.26577 12.3652 9.02098C12.3652 8.77619 12.1667 8.57773 11.922 8.57773Z" fill="#003761" />
    <path d="M10.3007 5.12C8.14982 5.12 6.3999 6.86991 6.3999 9.02079C6.3999 11.1717 8.14982 12.9216 10.3007 12.9216C12.4516 12.9216 14.2015 11.1717 14.2015 9.02079C14.2015 6.86991 12.4516 5.12 10.3007 5.12ZM10.3007 12.035C8.63865 12.035 7.28645 10.6828 7.28645 9.02075C7.28645 7.35869 8.63865 6.0065 10.3007 6.0065C11.9628 6.0065 13.3149 7.35869 13.3149 9.02075C13.3149 10.6828 11.9628 12.035 10.3007 12.035Z" fill="#003761" />
  </g>
  <defs>
    <clipPath id="clip0_254_2125">
      <rect width="32" height="32" fill="white" />
    </clipPath>
  </defs>
</svg>