<svg width="27" height="12" viewBox="0 0 33 18" fill="none" xmlns="http://www.w3.org/2000/svg">
    <path d="M6.55371 1.17473L0.422033 8.23058C0.421989 8.23685 0.416724 8.2417 0.410795 8.24166L0.377081 8.27491C0.365843 8.28599 0.354528 8.30824 0.34329 8.31932C0.329264 8.33003 0.321132 8.34602 0.320659 8.36381C0.309422 8.37489 0.298106 8.39713 0.286868 8.40821C0.275631 8.4193 0.275476 8.44162 0.264238 8.4527C0.253 8.46378 0.252845 8.48611 0.24153 8.50835C0.230292 8.51943 0.230137 8.54175 0.218899 8.55284C0.207584 8.57508 0.207507 8.58624 0.196191 8.60848C0.196114 8.61964 0.184799 8.64189 0.184721 8.65305C0.184566 8.67537 0.173329 8.68645 0.173174 8.70877C0.173096 8.71993 0.161781 8.74218 0.161704 8.75334C0.161549 8.77566 0.150233 8.7979 0.150079 8.82022L0.148066 9.11039C0.147911 9.13271 0.158917 9.15511 0.158762 9.17743C0.158684 9.18859 0.16969 9.21099 0.169613 9.22215C0.169458 9.24447 0.180541 9.25571 0.180386 9.27803C0.180308 9.28919 0.191314 9.31159 0.191237 9.32275C0.202242 9.34515 0.202165 9.35631 0.21317 9.37871C0.224253 9.38995 0.224099 9.41227 0.235182 9.42351C0.246187 9.4459 0.24611 9.45706 0.257115 9.47946C0.268198 9.4907 0.268044 9.51302 0.279127 9.52426C0.29021 9.5355 0.301215 9.5579 0.312298 9.56913C0.323381 9.58037 0.323304 9.59153 0.33431 9.61393C0.345393 9.62517 0.356398 9.64757 0.367481 9.6588L0.40073 9.69252C0.400687 9.6988 0.405884 9.70371 0.411813 9.70376L6.44502 16.844C6.8425 17.3155 7.54662 17.3752 8.01779 16.9777C8.48896 16.5805 8.54895 15.8764 8.15147 15.4049L3.67919 10.1059L31.1785 10.2967C31.7951 10.3009 32.298 9.80496 32.3023 9.18835C32.3066 8.57173 31.8106 8.06884 31.194 8.06456L3.69468 7.8738L8.24004 2.63735C8.64402 2.17139 8.5938 1.46651 8.12819 1.06288C7.66258 0.658898 6.95769 0.708767 6.55371 1.17473Z" fill="#2F89C8"/>
</svg>