<svg width="18" height="18" viewBox="0 0 18 18" fill="none" xmlns="http://www.w3.org/2000/svg">
<path d="M9 0C4.038 0 0 4.038 0 9C0 13.962 4.038 18 9 18C13.962 18 18 13.962 18 9C18 4.038 13.962 0 9 0ZM10.194 13.8H8.4V12.6H10.194C11.508 12.6 12.582 11.526 12.582 10.2C12.582 8.874 11.514 7.8 10.194 7.8H6.27L7.446 8.982L6.6 9.828L4.398 7.614L3.954 7.17L4.404 6.72L6.6 4.512L7.452 5.358L6.216 6.6H10.194C12.174 6.6 13.782 8.214 13.782 10.2C13.782 12.186 12.174 13.8 10.194 13.8Z" fill="#003761"/>
</svg>
