<svg width="27" height="28" viewBox="0 0 27 28" fill="none" xmlns="http://www.w3.org/2000/svg">
<path d="M25.9655 26.9062H24.7661V9.49025C24.7661 8.67962 24.1065 8.02014 23.296 8.02014H20.615C19.8043 8.02014 19.1448 8.67967 19.1448 9.49025V26.9062H16.0992V17.3811C16.0992 16.5704 15.4397 15.9109 14.6291 15.9109H11.9481C11.1374 15.9109 10.478 16.5705 10.478 17.3811V26.9062H7.43231V21.9732C7.43231 21.1626 6.77278 20.5031 5.9622 20.5031H3.28114C2.47051 20.5031 1.81103 21.1626 1.81103 21.9732V26.9062H0.546875C0.244836 26.9062 0 27.1511 0 27.4531C0 27.7552 0.244836 28 0.546875 28H25.9655C26.2676 28 26.5124 27.7552 26.5124 27.4531C26.5124 27.1511 26.2676 26.9062 25.9655 26.9062ZM6.33845 26.9062H2.90473V21.9732C2.90473 21.7657 3.07355 21.5969 3.28109 21.5969H5.96209C6.16963 21.5969 6.33845 21.7657 6.33845 21.9732V26.9062ZM15.0054 26.9062H11.5717V17.3811C11.5717 17.1735 11.7405 17.0047 11.948 17.0047H14.629C14.8365 17.0047 15.0054 17.1735 15.0054 17.3811V26.9062ZM23.6723 26.9062H20.2386V9.49025C20.2386 9.28271 20.4074 9.11389 20.615 9.11389H23.296C23.5035 9.11389 23.6723 9.28271 23.6723 9.49025V26.9062Z" fill="#003761"/>
<path d="M24.7647 0.575094C24.7724 0.425852 24.7199 0.274094 24.6059 0.160125C24.492 0.0461562 24.3402 -0.00639844 24.191 0.0013125C24.1822 0.000929687 24.1735 0 24.1645 0H20.8559C20.5539 0 20.309 0.244836 20.309 0.546875C20.309 0.848914 20.5539 1.09375 20.8559 1.09375H22.8989L17.4926 6.50005L15.4539 4.4613C15.3513 4.35876 15.2122 4.30112 15.0672 4.30112C14.9222 4.30112 14.783 4.35876 14.6805 4.4613L4.84937 14.2925C4.63582 14.506 4.63582 14.8523 4.84937 15.0659C4.95618 15.1726 5.09612 15.226 5.23607 15.226C5.37602 15.226 5.51602 15.1726 5.62277 15.0658L15.0672 5.62133L17.1059 7.66008C17.3195 7.87363 17.6658 7.87363 17.8794 7.66008L23.6723 1.8672V3.71618C23.6723 4.01822 23.9171 4.26305 24.2192 4.26305C24.5212 4.26305 24.7661 4.01822 24.7661 3.71618V0.601562C24.7661 0.592648 24.7651 0.583953 24.7647 0.575094Z" fill="#003761"/>
</svg>
