<svg width="18" height="18" viewBox="0 0 18 18" fill="none" xmlns="http://www.w3.org/2000/svg">
<g clip-path="url(#clip0)">
<path d="M10.1699 3.71213C10.1699 5.76232 8.50793 7.42425 6.45773 7.42425C4.40754 7.42425 2.74561 5.76232 2.74561 3.71213C2.74561 1.66193 4.40754 0 6.45773 0C8.50793 0 10.1699 1.66193 10.1699 3.71213Z" fill="#003761"/>
<path d="M6.45328 9.84337C4.73332 9.84762 3.1304 10.5172 1.946 11.7309C0.807689 12.9027 0.150667 14.4805 0.0878906 16.2089L9.93114 16.188V11.71C9.93195 11.4546 9.98165 11.2017 10.0776 10.965C9.01827 10.2274 7.7567 9.83569 6.46587 9.84337H6.45328Z" fill="#003761"/>
<path d="M16.5016 10.3289H16.3259V10.9692C16.3259 11.1309 16.1946 11.2622 16.0329 11.2622C15.8711 11.2622 15.7399 11.1309 15.7399 10.9692V10.3289H12.6556V10.9692C12.6556 11.1309 12.5243 11.2622 12.3626 11.2622C12.2008 11.2622 12.0697 11.1309 12.0697 10.9692V10.3289H11.8938C11.1315 10.3295 10.5135 10.9475 10.5127 11.7099V12.3251H17.8784V11.7099C17.8797 11.3439 17.7352 10.9926 17.4769 10.7333C17.2185 10.4742 16.8676 10.3287 16.5016 10.3289V10.3289Z" fill="#003761"/>
<path d="M10.5171 16.6192C10.5179 17.3815 11.1357 17.9994 11.8982 18.0003H16.5017C17.2642 17.9994 17.882 17.3815 17.8828 16.6192V12.9111H10.5171V16.6192ZM11.9065 14.2337H16.4934C16.6551 14.2337 16.7863 14.3648 16.7863 14.5266C16.7863 14.6883 16.6551 14.8196 16.4934 14.8196H11.9065C11.7448 14.8196 11.6135 14.6883 11.6135 14.5266C11.6135 14.3648 11.7448 14.2337 11.9065 14.2337ZM11.9065 16.1797H14.5599C14.7216 16.1797 14.8529 16.3109 14.8529 16.4727C14.8529 16.6344 14.7216 16.7657 14.5599 16.7657H11.9065C11.7448 16.7657 11.6135 16.6344 11.6135 16.4727C11.6135 16.3109 11.7448 16.1797 11.9065 16.1797Z" fill="#003761"/>
</g>
<defs>
<clipPath id="clip0">
<rect width="18" height="18" fill="white"/>
</clipPath>
</defs>
</svg>
