<svg width="25" height="25" viewBox="0 0 25 25" fill="none" xmlns="http://www.w3.org/2000/svg">
<path d="M18.1797 6.92959C16.4096 6.92884 14.9751 5.49429 14.9746 3.72446V0H5.06419C4.00349 0.00300481 3.14412 0.86238 3.14111 1.92308V23.0769C3.14412 24.1376 4.00349 24.997 5.06419 25H19.9808C21.0418 24.997 21.9009 24.1376 21.9039 23.0769V6.92959H18.1797ZM6.60916 9.80769H13.5385C13.8926 9.80769 14.1795 10.0947 14.1795 10.4487C14.1795 10.8028 13.8926 11.0897 13.5385 11.0897H6.60916C6.2551 11.0897 5.96814 10.8028 5.96814 10.4487C5.96814 10.0947 6.2551 9.80769 6.60916 9.80769ZM19.0834 20.7885H6.60916C6.2551 20.7885 5.96814 20.5016 5.96814 20.1475C5.96814 19.7934 6.2551 19.5065 6.60916 19.5065H19.0834C19.4374 19.5065 19.7244 19.7934 19.7244 20.1475C19.7244 20.5016 19.4374 20.7885 19.0834 20.7885V20.7885ZM19.0834 15.936H6.60916C6.2551 15.936 5.96814 15.6488 5.96814 15.295C5.96814 14.9409 6.2551 14.6539 6.60916 14.6539H19.0834C19.4374 14.6539 19.7244 14.9409 19.7244 15.295C19.7244 15.6488 19.4374 15.936 19.0834 15.936V15.936Z" fill="#656464"/>
<path d="M18.1797 5.64752H21.0129L16.2566 0.903931V3.72444C16.2573 4.78614 17.1177 5.64652 18.1797 5.64752V5.64752Z" fill="#656464"/>
</svg>
