<svg width="25" height="20" viewBox="0 0 25 20" fill="none" xmlns="http://www.w3.org/2000/svg">
<path d="M4.07969 13.8836C2.63134 13.8836 1.45215 15.0628 1.45215 16.5112C1.45215 17.9605 2.63134 19.1387 4.07969 19.1387C5.52907 19.1387 6.70724 17.9605 6.70724 16.5112C6.70724 15.0623 5.52907 13.8836 4.07969 13.8836Z" fill="#003761"/>
<path d="M20.8639 13.8836C19.415 13.8836 18.2363 15.0628 18.2363 16.5112C18.2363 17.9605 19.415 19.1387 20.8639 19.1387C22.3122 19.1387 23.4904 17.9605 23.4904 16.5112C23.4904 15.0623 22.3127 13.8836 20.8639 13.8836Z" fill="#003761"/>
<path d="M23.8517 5.58106H6.53403L4.61656 3.80356C4.61451 3.80099 4.61144 3.79946 4.60938 3.79741L1.27125 0.701774C0.965684 0.417742 0.485292 0.435686 0.201774 0.742276C-0.0822577 1.04887 -0.0643135 1.52772 0.242276 1.81226L3.32202 4.66796V14.3881C3.32202 14.8054 3.66142 15.1453 4.07926 15.1453C4.4971 15.1453 4.83651 14.8059 4.83651 14.3881V13.2904H20.1065V14.3881C20.1065 14.8054 20.4454 15.1453 20.8638 15.1453C21.2821 15.1453 21.6215 14.8059 21.6215 14.3881V7.09555H23.8528C24.2706 7.09555 24.61 6.75615 24.61 6.33831C24.609 5.92046 24.2701 5.58106 23.8517 5.58106ZM4.83651 11.7764V9.24168H20.1065V11.7764H4.83651Z" fill="#003761"/>
</svg>
