<svg width="18" height="18" viewBox="0 0 18 18" fill="none" xmlns="http://www.w3.org/2000/svg">
<path d="M16.837 8.05897H16.0299L15.7331 7.34179C15.6114 7.04579 15.4042 6.79274 15.1382 6.61485C14.8721 6.43697 14.5591 6.34231 14.239 6.34293H12.6359V6.04997C12.6356 5.84491 12.5541 5.64832 12.4091 5.50332C12.2641 5.35833 12.0675 5.27676 11.8624 5.27653H6.44837C6.24331 5.27676 6.04672 5.35833 5.90172 5.50332C5.75672 5.64832 5.67516 5.84491 5.67493 6.04997V6.34293H4.43704C4.35133 6.34264 4.26772 6.31638 4.19724 6.26761C4.12675 6.21883 4.07271 6.14984 4.04224 6.06973L3.45049 4.49824C3.34385 4.21782 3.1547 3.97632 2.908 3.80561C2.6613 3.63489 2.36864 3.54297 2.06864 3.54199H1.02256C0.989472 3.54199 0.956846 3.54977 0.927322 3.56471C0.897797 3.57965 0.8722 3.60133 0.852601 3.62799C0.833001 3.65465 0.819948 3.68554 0.814497 3.71818C0.809046 3.75082 0.811349 3.78428 0.821221 3.81586L2.14717 8.05887H1.47376C1.38055 8.05897 1.29119 8.09604 1.22528 8.16195C1.15937 8.22786 1.1223 8.31722 1.12219 8.41043V9.25418C1.12244 9.47788 1.21142 9.69234 1.3696 9.85052C1.52778 10.0087 1.74224 10.0977 1.96594 10.0979H4.63782V11.012H4.04016C3.81646 11.0122 3.602 11.1012 3.44382 11.2594C3.28564 11.4176 3.19666 11.632 3.19641 11.8557V12.6524C2.97709 12.6984 2.77901 12.8153 2.63273 12.9851C2.48645 13.1549 2.40011 13.368 2.38702 13.5918C2.37394 13.8155 2.43484 14.0373 2.56034 14.2229C2.68583 14.4086 2.86893 14.5478 3.08139 14.6191C3.29386 14.6904 3.52387 14.6897 3.73594 14.6173C3.94801 14.5449 4.13034 14.4046 4.25481 14.2183C4.37928 14.0319 4.43897 13.8098 4.42465 13.5862C4.41034 13.3625 4.32283 13.1498 4.17562 12.9808H14.1351C13.9885 13.1496 13.9014 13.3619 13.8873 13.585C13.8732 13.8081 13.9329 14.0297 14.0572 14.2155C14.1815 14.4013 14.3634 14.5411 14.575 14.6134C14.7866 14.6856 15.0161 14.6862 15.228 14.6151C15.44 14.544 15.6227 14.4051 15.7479 14.2199C15.8732 14.0347 15.934 13.8135 15.9211 13.5903C15.9082 13.3671 15.8222 13.1544 15.6764 12.9849C15.5306 12.8154 15.3331 12.6985 15.1144 12.6524V11.8558C15.1141 11.6321 15.0252 11.4177 14.867 11.2595C14.7088 11.1013 14.4943 11.0123 14.2706 11.0121H13.3214V10.098H16.3449C16.5686 10.0978 16.783 10.0088 16.9412 9.85063C17.0994 9.69245 17.1884 9.47798 17.1886 9.25429V8.41054C17.1885 8.31733 17.1514 8.22796 17.0855 8.16206C17.0196 8.09615 16.9303 8.05907 16.837 8.05897ZM12.6359 6.76477H14.239C14.4756 6.7643 14.707 6.83425 14.9037 6.96573C15.1004 7.09721 15.2535 7.28425 15.3435 7.50305L15.5736 8.05897H12.6359V6.76477ZM10.7726 5.69837H11.8624C11.9556 5.69847 12.045 5.73555 12.1109 5.80145C12.1768 5.86736 12.2139 5.95673 12.214 6.04993V6.34289H10.7726V5.69837ZM10.7726 6.76477H12.214V8.05897H10.7726V6.76477ZM9.36634 5.69837H10.3507V6.34289H9.36634V5.69837ZM9.36634 6.76477H10.3507V8.05897H9.36634V6.76477ZM7.96009 5.69837H8.94446V6.34289H7.96009V5.69837ZM7.96009 6.76477H8.94446V8.05897H7.96009V6.76477ZM6.09681 6.04993C6.09691 5.95673 6.13398 5.86736 6.19989 5.80145C6.2658 5.73555 6.35516 5.69847 6.44837 5.69837H7.53821V6.34289H6.09681V6.04993ZM6.09681 6.76477H7.53821V8.05897H6.09681V6.76477ZM1.30951 3.96397H2.06864C2.28292 3.96469 2.49196 4.03035 2.66817 4.15228C2.84438 4.27422 2.97949 4.4467 3.05568 4.64699L3.6474 6.21847C3.70835 6.3787 3.81645 6.51668 3.95742 6.61423C4.09839 6.71177 4.26561 6.7643 4.43704 6.76487H5.67493V8.05908H2.58919L1.30951 3.96397ZM3.40735 14.2472C3.28915 14.2472 3.17359 14.2121 3.07531 14.1465C2.97703 14.0808 2.90042 13.9874 2.85519 13.8782C2.80995 13.769 2.79812 13.6489 2.82118 13.5329C2.84424 13.417 2.90116 13.3105 2.98474 13.2269C3.06833 13.1433 3.17482 13.0864 3.29075 13.0633C3.40669 13.0403 3.52686 13.0521 3.63606 13.0974C3.74527 13.1426 3.83861 13.2192 3.90428 13.3175C3.96995 13.4158 4.00501 13.5313 4.00501 13.6495C4.00487 13.808 3.94186 13.9599 3.8298 14.072C3.71775 14.184 3.56582 14.247 3.40735 14.2472ZM14.9034 13.0522C15.0217 13.0522 15.1372 13.0872 15.2355 13.1529C15.3338 13.2186 15.4104 13.3119 15.4556 13.4211C15.5008 13.5303 15.5127 13.6505 15.4896 13.7664C15.4666 13.8824 15.4096 13.9889 15.3261 14.0724C15.2425 14.156 15.136 14.2129 15.02 14.236C14.9041 14.2591 14.7839 14.2472 14.6747 14.202C14.5655 14.1568 14.4722 14.0802 14.4065 13.9819C14.3408 13.8836 14.3058 13.768 14.3058 13.6498C14.3059 13.4914 14.3689 13.3394 14.481 13.2274C14.593 13.1153 14.745 13.0523 14.9034 13.0522ZM14.6925 11.8558V12.559H3.61829V11.8558C3.61841 11.744 3.6629 11.6368 3.74199 11.5577C3.82108 11.4786 3.92831 11.4341 4.04016 11.434H14.2706C14.3825 11.4341 14.4897 11.4786 14.5688 11.5577C14.6479 11.6368 14.6924 11.744 14.6925 11.8558ZM5.05969 11.0121V10.098H12.8995V11.0121H5.05969ZM16.7667 9.25429C16.7666 9.36613 16.7221 9.47336 16.643 9.55245C16.5639 9.63154 16.4567 9.67603 16.3449 9.67616H1.96594C1.85409 9.67604 1.74686 9.63155 1.66777 9.55246C1.58868 9.47337 1.54419 9.36614 1.54407 9.25429V8.48085H16.7667V9.25429Z" fill="#003761"/>
</svg>
