<svg width="18" height="18" viewBox="0 0 18 18" fill="none" xmlns="http://www.w3.org/2000/svg">
<path d="M17.7188 15.2949V9C17.7188 8.53481 17.3402 8.15625 16.875 8.15625C16.4098 8.15625 16.0312 8.53481 16.0312 9V9.28125H7.3125C6.84731 9.28125 6.46875 9.65981 6.46875 10.125V10.4062H5.34375V10.125C5.34375 9.65981 4.96519 9.28125 4.5 9.28125H1.96875V7.875C1.96875 7.40981 1.59019 7.03125 1.125 7.03125C0.659813 7.03125 0.28125 7.40981 0.28125 7.875V15.2949C0.108281 15.4929 0 15.7486 0 16.0312C0 16.6517 0.504562 17.1562 1.125 17.1562C1.64784 17.1562 2.08434 16.7963 2.21006 16.3125H15.7899C15.9157 16.7963 16.3522 17.1562 16.875 17.1562C17.4954 17.1562 18 16.6517 18 16.0312C18 15.7486 17.8917 15.4929 17.7188 15.2949ZM16.5938 9C16.5938 8.84503 16.7197 8.71875 16.875 8.71875C17.0303 8.71875 17.1562 8.84503 17.1562 9V14.9462C17.0657 14.9226 16.9726 14.9062 16.875 14.9062C16.7774 14.9062 16.684 14.9226 16.5938 14.9462V9ZM6.75 12.6562H16.0312V13.2188H1.96875V12.6562H6.75ZM1.96875 15.2949V13.7812H16.0312V15.2949C15.9182 15.4246 15.8344 15.5787 15.7899 15.75H2.21006C2.16562 15.5787 2.08181 15.4246 1.96875 15.2949ZM7.03125 10.125C7.03125 9.97003 7.15725 9.84375 7.3125 9.84375H16.0312V12.0938H7.03125V10.125ZM6.46875 12.0938H1.96875V10.9688H6.46875V12.0938ZM4.5 9.84375C4.65525 9.84375 4.78125 9.97003 4.78125 10.125V10.4062H1.96875V9.84375H4.5ZM1.125 7.59375C1.28025 7.59375 1.40625 7.72003 1.40625 7.875V14.9462C1.31569 14.9226 1.22259 14.9062 1.125 14.9062C1.02741 14.9062 0.934031 14.9226 0.84375 14.9462V7.875C0.84375 7.72003 0.96975 7.59375 1.125 7.59375ZM1.125 16.5938C0.814781 16.5938 0.5625 16.3415 0.5625 16.0312C0.5625 15.721 0.814781 15.4688 1.125 15.4688C1.43494 15.4688 1.6875 15.721 1.6875 16.0312C1.6875 16.3415 1.43494 16.5938 1.125 16.5938ZM16.875 16.5938C16.5648 16.5938 16.3125 16.3415 16.3125 16.0312C16.3125 15.721 16.5648 15.4688 16.875 15.4688C17.1849 15.4688 17.4375 15.721 17.4375 16.0312C17.4375 16.3415 17.1849 16.5938 16.875 16.5938Z" fill="#003761"/>
<path d="M9 8.15625C11.016 8.15625 12.6562 6.51628 12.6562 4.5C12.6562 2.484 11.016 0.84375 9 0.84375C6.984 0.84375 5.34375 2.484 5.34375 4.5C5.34375 6.51628 6.984 8.15625 9 8.15625ZM9 1.40625C10.7058 1.40625 12.0938 2.79422 12.0938 4.5C12.0938 6.20578 10.7058 7.59375 9 7.59375C7.29422 7.59375 5.90625 6.20578 5.90625 4.5C5.90625 2.79422 7.29422 1.40625 9 1.40625Z" fill="#003761"/>
<path d="M7.3125 5.34375H8.15625V6.1875C8.15625 6.34275 8.28197 6.46875 8.4375 6.46875H9.5625C9.71803 6.46875 9.84375 6.34275 9.84375 6.1875V5.34375H10.6875C10.843 5.34375 10.9688 5.21775 10.9688 5.0625V3.9375C10.9688 3.78225 10.843 3.65625 10.6875 3.65625H9.84375V2.8125C9.84375 2.65725 9.71803 2.53125 9.5625 2.53125H8.4375C8.28197 2.53125 8.15625 2.65725 8.15625 2.8125V3.65625H7.3125C7.15697 3.65625 7.03125 3.78225 7.03125 3.9375V5.0625C7.03125 5.21775 7.15697 5.34375 7.3125 5.34375ZM7.59375 4.21875H8.4375C8.59303 4.21875 8.71875 4.09275 8.71875 3.9375V3.09375H9.28125V3.9375C9.28125 4.09275 9.40697 4.21875 9.5625 4.21875H10.4062V4.78125H9.5625C9.40697 4.78125 9.28125 4.90725 9.28125 5.0625V5.90625H8.71875V5.0625C8.71875 4.90725 8.59303 4.78125 8.4375 4.78125H7.59375V4.21875Z" fill="#003761"/>
</svg>
