<svg width="18" height="18" viewBox="0 0 18 18" fill="none" xmlns="http://www.w3.org/2000/svg">
<path d="M14.625 7.5H3.37501C1.92752 7.5 0.75 8.67749 0.75 10.125V11.1015C0.75 12.753 2.0235 14.1638 3.5895 14.2455C4.4175 14.292 5.21249 13.998 5.81475 13.4258C6.04126 13.2113 6.22949 12.9683 6.37651 12.7035C6.88951 13.6253 7.87276 14.25 9.00001 14.25C10.1273 14.25 11.1105 13.6252 11.6242 12.7035C11.7712 12.9683 11.9595 13.2113 12.186 13.4258C12.7485 13.9605 13.476 14.25 14.2485 14.25C14.3018 14.25 14.3565 14.2485 14.4105 14.2455C15.9765 14.1638 17.25 12.753 17.25 11.1015V10.125C17.25 8.67752 16.0725 7.5 14.625 7.5ZM16.5 11.1015C16.5 12.36 15.5453 13.4348 14.3715 13.497C13.7467 13.5315 13.1535 13.311 12.7013 12.8828C12.249 12.453 12 11.8733 12 11.25C12 11.043 11.832 10.875 11.625 10.875C11.418 10.875 11.25 11.043 11.25 11.25C11.25 12.4905 10.2405 13.5 9.00001 13.5C7.75952 13.5 6.75001 12.4905 6.75001 11.25C6.75001 11.043 6.582 10.875 6.375 10.875C6.168 10.875 5.99999 11.043 5.99999 11.25C5.99999 11.8733 5.75098 12.453 5.29873 12.8828C4.84648 13.311 4.25096 13.5278 3.62849 13.497C2.45473 13.4348 1.49999 12.3608 1.49999 11.1015V10.125C1.49999 9.09075 2.34149 8.25002 3.37498 8.25002H14.625C15.6585 8.25002 16.5 9.09079 16.5 10.125V11.1015H16.5Z" fill="#003761"/>
<path d="M15.375 13.2329C15.168 13.2329 15 13.4009 15 13.6079V16.125C15 16.7452 14.4952 17.25 13.875 17.25H4.12499C3.50473 17.25 2.99999 16.7452 2.99999 16.125V13.6087C2.99999 13.4017 2.83198 13.2337 2.62498 13.2337C2.41798 13.2337 2.25 13.4017 2.25 13.6087V16.1249C2.25 17.1592 3.0915 18 4.12499 18H13.875C14.9085 18 15.75 17.1592 15.75 16.125V13.6079C15.75 13.4009 15.582 13.2329 15.375 13.2329Z" fill="#003761"/>
<path d="M9.375 3.75H8.62501C8.00474 3.75 7.5 4.25474 7.5 4.875V7.87499C7.5 8.08199 7.66801 8.25 7.87501 8.25H10.125C10.332 8.25 10.5 8.08199 10.5 7.87499V4.875C10.5 4.25474 9.99523 3.75 9.375 3.75ZM9.74998 7.49998H8.24996V4.87496C8.24996 4.6687 8.41797 4.49995 8.62497 4.49995H9.37496C9.58196 4.49995 9.74998 4.6687 9.74998 4.87496V7.49998Z" fill="#003761"/>
<path d="M9.33223 0.201762C9.26772 0.0780117 9.14024 0.000773437 9.00074 0C8.88076 0.0164883 8.73451 0.0772383 8.66848 0.199512C8.39472 0.716273 7.5 2.44575 7.5 3.00002C7.49996 3.82725 8.17271 4.5 8.99997 4.5C9.82723 4.5 10.5 3.82725 10.5 2.99999C10.5 2.49374 9.68323 0.874512 9.33223 0.201762ZM8.99997 3.75001C8.58671 3.75001 8.24998 3.41402 8.24998 3.00076C8.25448 2.799 8.59947 2.00626 8.99772 1.2015C9.39298 2.00626 9.73948 2.79826 9.74995 3.0015C9.74922 3.41476 9.41323 3.75001 8.99997 3.75001Z" fill="#003761"/>
</svg>
