<svg width="18" height="18" viewBox="0 0 18 18" fill="none" xmlns="http://www.w3.org/2000/svg">
<path d="M12.1209 5.25174L9.19951 0.733047C9.12173 0.612681 8.98817 0.540039 8.845 0.540039C8.70183 0.540039 8.56828 0.612681 8.49076 0.733047L5.5694 5.25174C5.19089 5.83709 4.78115 6.43246 4.35176 7.02111C3.4645 8.23691 3.01322 9.77069 3.08085 11.3394C3.14914 12.9204 3.74148 14.4101 4.74871 15.5339C5.83584 16.7469 7.29065 17.4151 8.845 17.4151C10.3994 17.4151 11.8543 16.7469 12.9416 15.5339C13.9486 14.4101 14.541 12.9204 14.6091 11.3394C14.6769 9.77069 14.2258 8.23691 13.3385 7.02111C12.909 6.43259 12.4994 5.83722 12.1209 5.25174ZM13.7661 11.303C13.7063 12.6891 13.1903 13.9921 12.3128 14.9708C11.3879 16.0029 10.1562 16.5713 8.84487 16.5713C7.53336 16.5713 6.30175 16.0029 5.37678 14.9708C4.49954 13.9921 3.98354 12.6894 3.92355 11.303C3.86409 9.92441 4.25815 8.58034 5.03309 7.51827C5.47197 6.91696 5.89055 6.30854 6.27762 5.70987L8.845 1.73909L11.4122 5.70987C11.7993 6.30854 12.218 6.91709 12.6568 7.5184C13.4317 8.5806 13.8258 9.92467 13.7663 11.3032L13.7661 11.303Z" fill="#003761"/>
<rect x="8.5" y="8" width="1" height="6" fill="#003761"/>
<rect x="12" y="10.5" width="1" height="6" transform="rotate(90 12 10.5)" fill="#003761"/>
</svg>
