<svg width="25" height="25" viewBox="0 0 31 30" fill="none" xmlns="http://www.w3.org/2000/svg">
<g clip-path="url(#clip0)">
<path d="M25.7021 4.39451C22.8641 1.56179 19.0906 0.00161743 15.0769 0.00161743C11.0632 0.00161743 7.28975 1.56185 4.45176 4.39451C0.517021 8.32199 -0.79399 13.8891 0.569619 18.9206C0.673523 19.3037 1.02157 19.5698 1.41952 19.5698H28.7344C29.1324 19.5698 29.4805 19.3037 29.5843 18.9206C29.9289 17.6493 30.1032 16.3305 30.1032 15C30.1032 10.9938 28.5401 7.22722 25.7021 4.39451ZM28.0424 17.8122H2.11157C0.314614 9.54062 6.66092 1.75925 15.077 1.75925C23.4864 1.75925 29.8407 9.53411 28.0424 17.8122Z" fill="#003761"/>
<path d="M15.0772 7.51759C15.5634 7.51759 15.9576 7.12413 15.9576 6.6388V4.98154C15.9576 4.49621 15.5634 4.10275 15.0772 4.10275C14.591 4.10275 14.1968 4.49621 14.1968 4.98154V6.6388C14.1967 7.12413 14.591 7.51759 15.0772 7.51759Z" fill="#003761"/>
<path d="M10.8208 5.88439C10.5776 5.46404 10.0392 5.3199 9.6181 5.56271C9.19697 5.80535 9.05273 6.34283 9.29582 6.76318L10.1259 8.19844C10.289 8.48039 10.5849 8.63801 10.8893 8.63801C11.5606 8.63801 11.9912 7.90787 11.6509 7.31965L10.8208 5.88439Z" fill="#003761"/>
<path d="M8.26308 10.0583L6.82521 9.22971C6.40408 8.9869 5.86566 9.13098 5.62251 9.55139C5.37936 9.97169 5.52365 10.5092 5.94479 10.7519C7.50805 11.6527 7.5172 11.6984 7.82205 11.6984C8.71903 11.6984 9.04172 10.507 8.26308 10.0583Z" fill="#003761"/>
<path d="M6.69996 14.1212H5.0396C4.55337 14.1212 4.15918 14.5146 4.15918 15C4.15918 15.4853 4.55337 15.8788 5.0396 15.8788H6.69996C7.18619 15.8788 7.58038 15.4853 7.58038 15C7.58038 14.5146 7.18619 14.1212 6.69996 14.1212Z" fill="#003761"/>
<path d="M22.5732 15C22.5732 15.4853 22.9674 15.8788 23.4537 15.8788H25.114C25.6003 15.8788 25.9944 15.4853 25.9944 15C25.9944 14.5146 25.6003 14.1212 25.114 14.1212H23.4537C22.9674 14.1212 22.5732 14.5146 22.5732 15Z" fill="#003761"/>
<path d="M23.3284 9.22974L21.8906 10.0584C21.4694 10.301 21.3252 10.8386 21.5683 11.2588C21.8115 11.6794 22.3502 11.8231 22.771 11.5805L24.2089 10.7519C24.63 10.5093 24.7742 9.97171 24.5311 9.55142C24.2881 9.13107 23.7496 8.98698 23.3284 9.22974Z" fill="#003761"/>
<path d="M20.5352 5.5627C20.114 5.31995 19.5756 5.46409 19.3325 5.88438L18.5024 7.31964C18.2592 7.73999 18.4035 8.27747 18.8247 8.52011C19.246 8.76298 19.7844 8.61855 20.0274 8.19843L20.8575 6.76317C21.1007 6.34282 20.9564 5.80534 20.5352 5.5627Z" fill="#003761"/>
<path d="M17.213 11.625L14.4542 14.3786C13.8977 14.934 14.2997 15.8788 15.0768 15.8788C15.3021 15.8788 15.5274 15.793 15.6993 15.6214L18.4581 12.8678C18.8019 12.5246 18.8019 11.9681 18.4581 11.625C18.1143 11.2818 17.5568 11.2818 17.213 11.625Z" fill="#003761"/>
<path d="M20.4845 21.9745C20.4838 21.9709 20.4832 21.9675 20.4824 21.9639C20.388 21.5017 19.9926 21.1604 19.5208 21.1338C19.0489 21.1084 18.6175 21.402 18.4716 21.8506C18.4639 21.8744 17.1842 26.3561 17.1774 26.3802L15.8448 21.8721C15.8418 21.8616 15.8385 21.8513 15.835 21.841C15.6845 21.3937 15.25 21.104 14.7783 21.1349C14.296 21.1671 13.9053 21.5265 13.8235 21.9855L12.5718 28.908C12.4854 29.3856 12.8033 29.8426 13.2818 29.9289C13.7606 30.0151 14.2183 29.6977 14.3046 29.2201L15.0168 25.2818L16.1923 29.2588C16.1953 29.2692 16.1986 29.2796 16.2021 29.2899C16.5213 30.2387 17.8697 30.2326 18.1797 29.28C18.183 29.2698 18.1861 29.2596 18.189 29.2495L19.3238 25.2758L20.0808 29.229C20.172 29.7058 20.6332 30.0184 21.1108 29.9273C21.5884 29.8361 21.9016 29.3758 21.8103 28.8991L20.4845 21.9745Z" fill="#003761"/>
<path d="M24.6461 21.1321C24.1598 21.1321 23.7656 21.5256 23.7656 22.0109V29.1194C23.7656 29.6048 24.1598 29.9982 24.6461 29.9982C25.1323 29.9982 25.5265 29.6048 25.5265 29.1194V22.011C25.5265 21.5256 25.1323 21.1321 24.6461 21.1321Z" fill="#003761"/>
<path d="M9.68587 25.0196C9.94527 24.6247 10.0956 24.1531 10.0956 23.6469C10.0956 22.2601 8.96564 21.1323 7.57632 21.1323H5.50787C5.02187 21.1323 4.62744 21.5254 4.62744 22.0111V29.1195C4.62744 29.6049 5.02228 29.9983 5.50787 29.9983H5.51198C5.53076 29.9983 7.42076 29.9901 7.93787 29.9901C9.48041 29.9901 10.7354 28.7374 10.7354 27.1978C10.7354 26.3178 10.3251 25.5316 9.68587 25.0196ZM7.57632 22.8899C7.99481 22.8899 8.3347 23.2291 8.3347 23.6469C8.3347 24.064 7.99487 24.4033 7.57632 24.4033C7.42193 24.4033 7.13435 24.4044 6.82087 24.4056H6.38829V22.89H7.57632V22.8899ZM7.93787 28.2325C7.65381 28.2325 6.96235 28.2348 6.38829 28.2372V26.1644C6.51626 26.1638 6.64835 26.1632 6.77685 26.1632H7.93787C8.50958 26.1632 8.97445 26.6272 8.97445 27.1978C8.97451 27.7678 8.50958 28.2325 7.93787 28.2325Z" fill="#003761"/>
</g>
<defs>
<clipPath id="clip0">
<rect width="30.0559" height="30" fill="white" transform="translate(0.046875)"/>
</clipPath>
</defs>
</svg>
