<svg width="25" height="25" viewBox="0 0 25 25" fill="none" xmlns="http://www.w3.org/2000/svg">
<path d="M24.5117 21.6797H23.5352V2.73438C23.5352 2.4647 23.3165 2.24609 23.0469 2.24609H19.4499V0.488281C19.4499 0.218604 19.2312 0 18.9616 0H6.03843C5.7688 0 5.55015 0.218604 5.55015 0.488281V2.24609H1.95312C1.6835 2.24609 1.46484 2.4647 1.46484 2.73438V21.6797H0.488281C0.218604 21.6797 0 21.8983 0 22.168V24.5117C0 24.7814 0.218604 25 0.488281 25H10.3029C10.5726 25 10.7912 24.7814 10.7912 24.5117C10.7912 24.242 10.5726 24.0234 10.3029 24.0234H0.976562V22.6562H24.0234V24.0234H14.6972C14.4275 24.0234 14.2089 24.242 14.2089 24.5117C14.2089 24.7814 14.4275 25 14.6972 25H24.5117C24.7813 25 25 24.7814 25 24.5117V22.168C25 21.8983 24.7813 21.6797 24.5117 21.6797ZM6.52671 0.976562H18.4733V2.24609H6.52671V0.976562ZM12.0117 21.6797H9.47266V18.75C9.47266 17.247 10.5739 15.9968 12.0117 15.7626V21.6797ZM12.9883 21.6797V15.7626C14.4261 15.9968 15.5273 17.247 15.5273 18.75V21.6797H12.9883ZM16.5039 21.6797V18.75C16.5039 16.5422 14.7078 14.7461 12.5 14.7461C10.2922 14.7461 8.49609 16.5422 8.49609 18.75V21.6797H2.44141V3.22266H22.5586V21.6797H16.5039Z" fill="white"/>
<path d="M6.64062 5.37109H4.29688C4.02725 5.37109 3.80859 5.5897 3.80859 5.85938V8.20312C3.80859 8.4728 4.02725 8.69141 4.29688 8.69141H6.64062C6.9103 8.69141 7.12891 8.4728 7.12891 8.20312V5.85938C7.12891 5.5897 6.9103 5.37109 6.64062 5.37109ZM6.15234 7.71484H4.78516V6.34766H6.15234V7.71484Z" fill="white"/>
<path d="M11.3281 5.37109H8.98438C8.7147 5.37109 8.49609 5.5897 8.49609 5.85938V8.20312C8.49609 8.4728 8.7147 8.69141 8.98438 8.69141H11.3281C11.5978 8.69141 11.8164 8.4728 11.8164 8.20312V5.85938C11.8164 5.5897 11.5978 5.37109 11.3281 5.37109ZM10.8398 7.71484H9.47266V6.34766H10.8398V7.71484Z" fill="white"/>
<path d="M16.0156 5.37109H13.6719C13.4022 5.37109 13.1836 5.5897 13.1836 5.85938V8.20312C13.1836 8.4728 13.4022 8.69141 13.6719 8.69141H16.0156C16.2853 8.69141 16.5039 8.4728 16.5039 8.20312V5.85938C16.5039 5.5897 16.2853 5.37109 16.0156 5.37109ZM15.5273 7.71484H14.1602V6.34766H15.5273V7.71484Z" fill="white"/>
<path d="M20.7031 5.37109H18.3594C18.0897 5.37109 17.8711 5.5897 17.8711 5.85938V8.20312C17.8711 8.4728 18.0897 8.69141 18.3594 8.69141H20.7031C20.9728 8.69141 21.1914 8.4728 21.1914 8.20312V5.85938C21.1914 5.5897 20.9728 5.37109 20.7031 5.37109ZM20.2148 7.71484H18.8477V6.34766H20.2148V7.71484Z" fill="white"/>
<path d="M6.64062 10.0586H4.29688C4.02725 10.0586 3.80859 10.2772 3.80859 10.5469V12.8906C3.80859 13.1603 4.02725 13.3789 4.29688 13.3789H6.64062C6.9103 13.3789 7.12891 13.1603 7.12891 12.8906V10.5469C7.12891 10.2772 6.9103 10.0586 6.64062 10.0586ZM6.15234 12.4023H4.78516V11.0352H6.15234V12.4023Z" fill="white"/>
<path d="M11.3281 10.0586H8.98438C8.7147 10.0586 8.49609 10.2772 8.49609 10.5469V12.8906C8.49609 13.1603 8.7147 13.3789 8.98438 13.3789H11.3281C11.5978 13.3789 11.8164 13.1603 11.8164 12.8906V10.5469C11.8164 10.2772 11.5978 10.0586 11.3281 10.0586ZM10.8398 12.4023H9.47266V11.0352H10.8398V12.4023Z" fill="white"/>
<path d="M16.0156 10.0586H13.6719C13.4022 10.0586 13.1836 10.2772 13.1836 10.5469V12.8906C13.1836 13.1603 13.4022 13.3789 13.6719 13.3789H16.0156C16.2853 13.3789 16.5039 13.1603 16.5039 12.8906V10.5469C16.5039 10.2772 16.2853 10.0586 16.0156 10.0586ZM15.5273 12.4023H14.1602V11.0352H15.5273V12.4023Z" fill="white"/>
<path d="M20.7031 10.0586H18.3594C18.0897 10.0586 17.8711 10.2772 17.8711 10.5469V12.8906C17.8711 13.1603 18.0897 13.3789 18.3594 13.3789H20.7031C20.9728 13.3789 21.1914 13.1603 21.1914 12.8906V10.5469C21.1914 10.2772 20.9728 10.0586 20.7031 10.0586ZM20.2148 12.4023H18.8477V11.0352H20.2148V12.4023Z" fill="white"/>
<path d="M6.64062 14.7461H4.29688C4.02725 14.7461 3.80859 14.9647 3.80859 15.2344V17.5781C3.80859 17.8478 4.02725 18.0664 4.29688 18.0664H6.64062C6.9103 18.0664 7.12891 17.8478 7.12891 17.5781V15.2344C7.12891 14.9647 6.9103 14.7461 6.64062 14.7461ZM6.15234 17.0898H4.78516V15.7227H6.15234V17.0898Z" fill="white"/>
<path d="M20.7031 14.7461H18.3594C18.0897 14.7461 17.8711 14.9647 17.8711 15.2344V17.5781C17.8711 17.8478 18.0897 18.0664 18.3594 18.0664H20.7031C20.9728 18.0664 21.1914 17.8478 21.1914 17.5781V15.2344C21.1914 14.9647 20.9728 14.7461 20.7031 14.7461ZM20.2148 17.0898H18.8477V15.7227H20.2148V17.0898Z" fill="white"/>
<path d="M12.5 24.0234C12.3716 24.0234 12.2456 24.0757 12.1548 24.1665C12.064 24.2573 12.0117 24.3833 12.0117 24.5117C12.0117 24.6401 12.0639 24.7661 12.1548 24.8569C12.2456 24.9478 12.3716 25 12.5 25C12.6284 25 12.7544 24.9478 12.8452 24.8569C12.936 24.7661 12.9883 24.6401 12.9883 24.5117C12.9883 24.3833 12.936 24.2573 12.8452 24.1665C12.7544 24.0757 12.6284 24.0234 12.5 24.0234Z" fill="white"/>
</svg>
