<svg width="11" height="10" viewBox="0 0 11 10" fill="none" xmlns="http://www.w3.org/2000/svg">
<path d="M9.40528 1.10132H9.05285V0.594713C9.05267 0.437041 8.98995 0.285872 8.87849 0.174382C8.76697 0.0628909 8.61579 0.000175428 8.45815 0H8.34801C8.19031 0.000175428 8.03913 0.0628909 7.92767 0.174382C7.81615 0.285872 7.75343 0.437041 7.75331 0.594713V1.10132H2.6652V0.594713C2.66502 0.437041 2.60231 0.285872 2.49081 0.174382C2.37932 0.0628909 2.22816 0.000175428 2.07048 0H1.96035C1.80267 0.000175428 1.65151 0.0628909 1.54001 0.174382C1.42852 0.285872 1.36581 0.437041 1.36564 0.594713V1.10132H1.03524C0.760775 1.10163 0.497633 1.2108 0.303554 1.40488C0.109478 1.59896 0.000308879 1.86209 0 2.13656V8.96473C0.000308879 9.23921 0.109478 9.50235 0.303554 9.69645C0.497633 9.89048 0.760775 9.99969 1.03524 10H9.40528C9.67976 9.99969 9.9429 9.89048 10.1369 9.69645C10.331 9.50235 10.4402 9.23921 10.4405 8.96473V2.13656C10.4402 1.86209 10.331 1.59896 10.1369 1.40488C9.9429 1.2108 9.67976 1.10163 9.40528 1.10132ZM8.06169 0.594713C8.06175 0.518797 8.09195 0.446013 8.14564 0.392332C8.19933 0.338651 8.27207 0.308459 8.34801 0.308371H8.45815C8.53403 0.308459 8.60683 0.338651 8.66052 0.392332C8.71422 0.446013 8.74441 0.518797 8.74448 0.594713V1.5859C8.74441 1.66182 8.71422 1.7346 8.66052 1.78828C8.60683 1.84196 8.53403 1.87215 8.45815 1.87224H8.34801C8.27207 1.87215 8.19933 1.84196 8.14564 1.78828C8.09195 1.7346 8.06175 1.66182 8.06169 1.5859V0.594713ZM1.674 0.594713C1.67409 0.518797 1.70429 0.446013 1.75797 0.392332C1.81165 0.338651 1.88444 0.308459 1.96035 0.308371H2.07048C2.1464 0.308459 2.21918 0.338651 2.27286 0.392332C2.32654 0.446013 2.35674 0.518797 2.35683 0.594713V1.5859C2.35674 1.66182 2.32654 1.7346 2.27286 1.78828C2.21918 1.84196 2.1464 1.87215 2.07048 1.87224H1.96035C1.88444 1.87215 1.81165 1.84196 1.75797 1.78828C1.70429 1.7346 1.67409 1.66182 1.674 1.5859V0.594713ZM0.308372 2.13656C0.308591 1.94385 0.38524 1.7591 0.52151 1.62283C0.657774 1.48656 0.842531 1.40991 1.03524 1.40969H1.36564V1.5859C1.36581 1.74357 1.42852 1.89474 1.54001 2.00623C1.65151 2.11772 1.80267 2.18044 1.96035 2.18061H2.07048C2.22816 2.18044 2.37932 2.11772 2.49081 2.00623C2.60231 1.89474 2.66502 1.74357 2.6652 1.5859V1.40969H7.75331V1.5859C7.75343 1.74357 7.81615 1.89474 7.92767 2.00623C8.03913 2.11772 8.19031 2.18044 8.34801 2.18061H8.45815C8.61579 2.18044 8.76697 2.11772 8.87849 2.00623C8.98995 1.89474 9.05267 1.74357 9.05285 1.5859V1.40969H9.40528C9.598 1.40991 9.78276 1.48656 9.91903 1.62283C10.0552 1.7591 10.1319 1.94385 10.1321 2.13656V2.86343H0.308372V2.13656ZM9.40528 9.69162H1.03524C0.842531 9.69137 0.657774 9.61475 0.52151 9.47848C0.38524 9.34221 0.308591 9.15744 0.308372 8.96473V3.1718H10.1321V8.96473C10.1319 9.15744 10.0552 9.34221 9.91903 9.47848C9.78276 9.61475 9.598 9.69137 9.40528 9.69162Z" fill="#B0A8A8"/>
<path d="M0.880995 5.13217H2.00434C2.04524 5.13217 2.08445 5.11592 2.11336 5.08701C2.14228 5.05809 2.15852 5.01887 2.15852 4.97798V3.83261C2.15852 3.79172 2.14228 3.7525 2.11336 3.72358C2.08445 3.69467 2.04524 3.67842 2.00434 3.67842H0.880995C0.840102 3.67843 0.800887 3.69467 0.771967 3.72358C0.743053 3.7525 0.726807 3.79172 0.726807 3.83261V4.97798C0.726807 5.01887 0.743053 5.05809 0.771967 5.08701C0.800887 5.11592 0.840102 5.13217 0.880995 5.13217ZM1.03518 3.98679H1.85015V4.8238H1.03518V3.98679Z" fill="#B0A8A8"/>
<path d="M2.7533 5.13217H3.87665C3.91754 5.13217 3.95676 5.11592 3.98567 5.08701C4.01459 5.05809 4.03083 5.01887 4.03083 4.97798V3.83261C4.03083 3.79172 4.01459 3.7525 3.98567 3.72358C3.95676 3.69467 3.91754 3.67842 3.87665 3.67842H2.7533C2.71241 3.67843 2.6732 3.69467 2.64428 3.72358C2.61536 3.7525 2.59912 3.79172 2.59912 3.83261V4.97798C2.59912 5.01887 2.61536 5.05809 2.64428 5.08701C2.6732 5.11592 2.71241 5.13217 2.7533 5.13217ZM2.90749 3.98679H3.72247V4.8238H2.90749V3.98679Z" fill="#B0A8A8"/>
<path d="M4.6476 5.13217H5.77094C5.81183 5.13217 5.85107 5.11592 5.87995 5.08701C5.9089 5.05809 5.92513 5.01887 5.92513 4.97798V3.83261C5.92513 3.79172 5.9089 3.7525 5.87995 3.72358C5.85107 3.69467 5.81183 3.67842 5.77094 3.67842H4.6476C4.6067 3.67843 4.56748 3.69467 4.53857 3.72358C4.50965 3.7525 4.49341 3.79172 4.49341 3.83261V4.97798C4.49341 5.01887 4.50965 5.05809 4.53857 5.08701C4.56748 5.11592 4.6067 5.13217 4.6476 5.13217ZM4.80178 3.98679H5.61675V4.8238H4.80178V3.98679Z" fill="#B0A8A8"/>
<path d="M6.51967 5.13217H7.64303C7.68394 5.13217 7.72316 5.11592 7.75205 5.08701C7.78099 5.05809 7.79722 5.01887 7.79722 4.97798V3.83261C7.79722 3.79172 7.78099 3.7525 7.75205 3.72358C7.72316 3.69467 7.68394 3.67842 7.64303 3.67842H6.51967C6.47882 3.67843 6.4396 3.69467 6.41065 3.72358C6.38177 3.7525 6.36548 3.79172 6.36548 3.83261V4.97798C6.36548 5.01887 6.38177 5.05809 6.41065 5.08701C6.4396 5.11592 6.47882 5.13217 6.51967 5.13217ZM6.67386 3.98679H7.48884V4.8238H6.67386V3.98679Z" fill="#B0A8A8"/>
<path d="M8.4142 5.13217H9.5375C9.57841 5.13217 9.61763 5.11592 9.64652 5.08701C9.67546 5.05809 9.69169 5.01887 9.69169 4.97798V3.83261C9.69169 3.79172 9.67546 3.7525 9.64652 3.72358C9.61763 3.69467 9.57841 3.67842 9.5375 3.67842H8.4142C8.37329 3.67843 8.33407 3.69467 8.30512 3.72358C8.27624 3.7525 8.26001 3.79172 8.26001 3.83261V4.97798C8.26001 5.01887 8.27624 5.05809 8.30512 5.08701C8.33407 5.11592 8.37329 5.13217 8.4142 5.13217ZM8.56839 3.98679H9.38331V4.8238H8.56839V3.98679Z" fill="#B0A8A8"/>
<path d="M2.02631 5.77092H0.902968C0.862074 5.77092 0.822854 5.78715 0.793939 5.81603C0.765025 5.84498 0.748779 5.8842 0.748779 5.92511V7.07046C0.748779 7.11138 0.765025 7.1506 0.793939 7.17948C0.822854 7.20843 0.862074 7.22465 0.902968 7.22465H2.02631C2.04656 7.22465 2.06661 7.22064 2.08531 7.21287C2.10402 7.20517 2.12102 7.19383 2.13534 7.17948C2.14965 7.16513 2.16101 7.14815 2.16876 7.12948C2.17651 7.11075 2.1805 7.0907 2.1805 7.07046V5.92511C2.1805 5.90481 2.17651 5.88476 2.16876 5.86609C2.16101 5.84736 2.14965 5.83038 2.13534 5.81603C2.12102 5.80174 2.10402 5.7904 2.08531 5.78264C2.06661 5.77487 2.04656 5.77092 2.02631 5.77092ZM1.87213 6.91628H1.05715V6.0793H1.87213V6.91628Z" fill="#B0A8A8"/>
<path d="M3.89862 5.77092H2.77528C2.73439 5.77092 2.69517 5.78715 2.66625 5.81603C2.63734 5.84498 2.62109 5.8842 2.62109 5.92511V7.07046C2.62109 7.11138 2.63734 7.1506 2.66625 7.17948C2.69517 7.20843 2.73439 7.22465 2.77528 7.22465H3.89862C3.93952 7.22465 3.97874 7.20843 4.00765 7.17948C4.03657 7.1506 4.05281 7.11138 4.05281 7.07046V5.92511C4.05281 5.8842 4.03657 5.84498 4.00765 5.81603C3.97874 5.78715 3.93952 5.77092 3.89862 5.77092ZM3.74444 6.91628H2.92946V6.0793H3.74444V6.91628Z" fill="#B0A8A8"/>
<path d="M5.79291 5.77092H4.66956C4.62868 5.77092 4.58946 5.78715 4.56054 5.81603C4.53163 5.84498 4.51538 5.8842 4.51538 5.92511V7.07046C4.51538 7.11138 4.53163 7.1506 4.56054 7.17948C4.58946 7.20843 4.62868 7.22465 4.66956 7.22465H5.79291C5.8338 7.22465 5.87301 7.20843 5.90195 7.17948C5.93083 7.1506 5.94712 7.11138 5.94712 7.07046V5.92511C5.94712 5.8842 5.93083 5.84498 5.90195 5.81603C5.87301 5.78715 5.8338 5.77092 5.79291 5.77092ZM5.63873 6.91628H4.82375V6.0793H5.63873V6.91628Z" fill="#B0A8A8"/>
<path d="M2.02631 7.73125H0.902968C0.862074 7.73125 0.822854 7.74747 0.793939 7.77642C0.765025 7.8053 0.748779 7.84452 0.748779 7.88544V9.03079C0.748779 9.07171 0.765025 9.11093 0.793939 9.13981C0.822854 9.16876 0.862074 9.18498 0.902968 9.18498H2.02631C2.04656 9.18498 2.06661 9.18097 2.08531 9.17327C2.10402 9.1655 2.12102 9.15416 2.13534 9.13981C2.14965 9.12553 2.16101 9.10848 2.16876 9.08981C2.17651 9.07108 2.1805 9.05103 2.1805 9.03079V7.88544C2.1805 7.8652 2.17651 7.84515 2.16876 7.82642C2.16101 7.80768 2.14965 7.7907 2.13534 7.77642C2.12102 7.76207 2.10402 7.75073 2.08531 7.74296C2.06661 7.73519 2.04656 7.73125 2.02631 7.73125ZM1.87213 8.8766H1.05715V8.03962H1.87213V8.8766Z" fill="#B0A8A8"/>
<path d="M3.89862 7.73125H2.77528C2.73439 7.73125 2.69517 7.74747 2.66625 7.77642C2.63734 7.8053 2.62109 7.84452 2.62109 7.88544V9.03079C2.62109 9.07171 2.63734 9.11093 2.66625 9.13981C2.69517 9.16876 2.73439 9.18498 2.77528 9.18498H3.89862C3.93952 9.18498 3.97874 9.16876 4.00765 9.13981C4.03657 9.11093 4.05281 9.07171 4.05281 9.03079V7.88544C4.05281 7.84452 4.03657 7.8053 4.00765 7.77642C3.97874 7.74747 3.93952 7.73125 3.89862 7.73125ZM3.74444 8.8766H2.92946V8.03962H3.74444V8.8766Z" fill="#B0A8A8"/>
<path d="M5.79291 7.73125H4.66956C4.62868 7.73125 4.58946 7.74747 4.56054 7.77642C4.53163 7.8053 4.51538 7.84452 4.51538 7.88544V9.03079C4.51538 9.07171 4.53163 9.11093 4.56054 9.13981C4.58946 9.16876 4.62868 9.18498 4.66956 9.18498H5.79291C5.8338 9.18498 5.87301 9.16876 5.90195 9.13981C5.93083 9.11093 5.94712 9.07171 5.94712 9.03079V7.88544C5.94712 7.84452 5.93083 7.8053 5.90195 7.77642C5.87301 7.74747 5.8338 7.73125 5.79291 7.73125ZM5.63873 8.8766H4.82375V8.03962H5.63873V8.8766Z" fill="#B0A8A8"/>
<path d="M7.66519 5.77092H6.54188C6.50097 5.77092 6.46175 5.78715 6.43287 5.81603C6.40392 5.84498 6.3877 5.8842 6.3877 5.92511V7.07046C6.3877 7.11138 6.40392 7.1506 6.43287 7.17948C6.46175 7.20843 6.50097 7.22465 6.54188 7.22465H7.66519C7.7061 7.22465 7.74532 7.20843 7.77427 7.17948C7.80315 7.1506 7.81938 7.11138 7.81938 7.07046V5.92511C7.81938 5.8842 7.80315 5.84498 7.77427 5.81603C7.74532 5.78715 7.7061 5.77092 7.66519 5.77092ZM7.511 6.91628H6.69607V6.0793H7.511V6.91628Z" fill="#B0A8A8"/>
<path d="M7.66519 7.70654H6.54188C6.50097 7.70654 6.46175 7.72277 6.43287 7.75172C6.40392 7.7806 6.3877 7.81982 6.3877 7.86073V9.00609C6.3877 9.047 6.40392 9.08622 6.43287 9.1151C6.46175 9.14405 6.50097 9.16028 6.54188 9.16028H7.66519C7.7061 9.16028 7.74532 9.14405 7.77427 9.1151C7.80315 9.08622 7.81938 9.047 7.81938 9.00609V7.86073C7.81938 7.81982 7.80315 7.7806 7.77427 7.75172C7.74532 7.72277 7.7061 7.70654 7.66519 7.70654ZM7.511 8.8519H6.69607V8.01492H7.511V8.8519Z" fill="#B0A8A8"/>
<path d="M9.55954 5.77092H8.43617C8.39526 5.77092 8.35604 5.78715 8.32716 5.81603C8.29821 5.84498 8.28198 5.8842 8.28198 5.92511V7.07046C8.28198 7.11138 8.29821 7.1506 8.32716 7.17948C8.35604 7.20843 8.39526 7.22465 8.43617 7.22465H9.55954C9.60039 7.22465 9.63961 7.20843 9.66855 7.17948C9.69743 7.1506 9.71372 7.11138 9.71372 7.07046V5.92511C9.71372 5.8842 9.69743 5.84498 9.66855 5.81603C9.63961 5.78715 9.60039 5.77092 9.55954 5.77092ZM9.40535 6.91628H8.59036V6.0793H9.40535V6.91628Z" fill="#B0A8A8"/>
<path d="M9.55954 7.69402H8.43617C8.39526 7.69402 8.35604 7.71024 8.32716 7.73919C8.29821 7.76807 8.28198 7.80729 8.28198 7.8482V8.99356C8.28198 9.03448 8.29821 9.0737 8.32716 9.10258C8.35604 9.13152 8.39526 9.14775 8.43617 9.14775H9.55954C9.60039 9.14775 9.63961 9.13152 9.66855 9.10258C9.69743 9.0737 9.71372 9.03448 9.71372 8.99356V7.8482C9.71372 7.80729 9.69743 7.76807 9.66855 7.73919C9.63961 7.71024 9.60039 7.69402 9.55954 7.69402ZM9.40535 8.83937H8.59036V8.00239H9.40535V8.83937Z" fill="#B0A8A8"/>
</svg>
