<svg width="30" height="30" viewBox="0 0 30 30" fill="none" xmlns="http://www.w3.org/2000/svg">
<path d="M26.1328 4.62891H25.1953V3.28125C25.1948 2.86181 25.028 2.45969 24.7314 2.1631C24.4348 1.86651 24.0327 1.69968 23.6133 1.69922H23.3203C22.9009 1.69968 22.4988 1.86651 22.2022 2.1631C21.9056 2.45969 21.7387 2.86181 21.7383 3.28125V4.62891H8.20312V3.28125C8.20266 2.86181 8.03583 2.45969 7.73924 2.1631C7.44266 1.86651 7.04053 1.69968 6.62109 1.69922H6.32812C5.90869 1.69968 5.50656 1.86651 5.20997 2.1631C4.91339 2.45969 4.74656 2.86181 4.74609 3.28125V4.62891H3.86719C3.13706 4.62973 2.43707 4.92013 1.92079 5.43641C1.40451 5.95269 1.1141 6.65268 1.11328 7.38281V25.5469C1.1141 26.277 1.40451 26.977 1.92079 27.4933C2.43707 28.0096 3.13706 28.3 3.86719 28.3008H26.1328C26.8629 28.3 27.5629 28.0096 28.0792 27.4933C28.5955 26.977 28.8859 26.277 28.8867 25.5469V7.38281C28.8859 6.65268 28.5955 5.95269 28.0792 5.43641C27.5629 4.92013 26.8629 4.62973 26.1328 4.62891ZM22.5586 3.28125C22.5588 3.0793 22.6392 2.88569 22.782 2.74289C22.9248 2.60009 23.1184 2.51976 23.3203 2.51953H23.6133C23.8152 2.51976 24.0088 2.60009 24.1516 2.74289C24.2944 2.88569 24.3748 3.0793 24.375 3.28125V5.91797C24.3748 6.11992 24.2944 6.31353 24.1516 6.45633C24.0088 6.59913 23.8152 6.67945 23.6133 6.67969H23.3203C23.1184 6.67945 22.9248 6.59913 22.782 6.45633C22.6392 6.31353 22.5588 6.11992 22.5586 5.91797V3.28125ZM5.56641 3.28125C5.56664 3.0793 5.64697 2.88569 5.78977 2.74289C5.93257 2.60009 6.12618 2.51976 6.32812 2.51953H6.62109C6.82304 2.51976 7.01665 2.60009 7.15945 2.74289C7.30225 2.88569 7.38258 3.0793 7.38281 3.28125V5.91797C7.38258 6.11992 7.30225 6.31353 7.15945 6.45633C7.01665 6.59913 6.82304 6.67945 6.62109 6.67969H6.32812C6.12618 6.67945 5.93257 6.59913 5.78977 6.45633C5.64697 6.31353 5.56664 6.11992 5.56641 5.91797V3.28125ZM1.93359 7.38281C1.93418 6.87017 2.13809 6.3787 2.50058 6.01621C2.86307 5.65371 3.35455 5.44981 3.86719 5.44922H4.74609V5.91797C4.74656 6.33741 4.91339 6.73953 5.20997 7.03612C5.50656 7.33271 5.90869 7.49953 6.32812 7.5H6.62109C7.04053 7.49953 7.44266 7.33271 7.73924 7.03612C8.03583 6.73953 8.20266 6.33741 8.20312 5.91797V5.44922H21.7383V5.91797C21.7387 6.33741 21.9056 6.73953 22.2022 7.03612C22.4988 7.33271 22.9009 7.49953 23.3203 7.5H23.6133C24.0327 7.49953 24.4348 7.33271 24.7314 7.03612C25.028 6.73953 25.1948 6.33741 25.1953 5.91797V5.44922H26.1328C26.6455 5.44981 27.1369 5.65371 27.4994 6.01621C27.8619 6.3787 28.0658 6.87017 28.0664 7.38281V9.31641H1.93359V7.38281ZM26.1328 27.4805H3.86719C3.35455 27.4799 2.86307 27.276 2.50058 26.9135C2.13809 26.551 1.93418 26.0595 1.93359 25.5469V10.1367H28.0664V25.5469C28.0658 26.0595 27.8619 26.551 27.4994 26.9135C27.1369 27.276 26.6455 27.4799 26.1328 27.4805Z" fill="#0A4366"/>
<path d="M3.45703 15.3516H6.44531C6.55409 15.3516 6.65842 15.3083 6.73534 15.2314C6.81226 15.1545 6.85547 15.0502 6.85547 14.9414V11.8945C6.85547 11.7858 6.81226 11.6814 6.73534 11.6045C6.65842 11.5276 6.55409 11.4844 6.44531 11.4844H3.45703C3.34825 11.4844 3.24393 11.5276 3.16701 11.6045C3.09009 11.6814 3.04687 11.7858 3.04688 11.8945V14.9414C3.04688 15.0502 3.09009 15.1545 3.16701 15.2314C3.24393 15.3083 3.34825 15.3516 3.45703 15.3516ZM3.86719 12.3047H6.03516V14.5312H3.86719V12.3047Z" fill="#0A4366"/>
<path d="M8.4375 15.3516H11.4258C11.5346 15.3516 11.6389 15.3083 11.7158 15.2314C11.7927 15.1545 11.8359 15.0502 11.8359 14.9414V11.8945C11.8359 11.7858 11.7927 11.6814 11.7158 11.6045C11.6389 11.5276 11.5346 11.4844 11.4258 11.4844H8.4375C8.32872 11.4844 8.22439 11.5276 8.14748 11.6045C8.07056 11.6814 8.02734 11.7858 8.02734 11.8945V14.9414C8.02734 15.0502 8.07056 15.1545 8.14748 15.2314C8.22439 15.3083 8.32872 15.3516 8.4375 15.3516ZM8.84766 12.3047H11.0156V14.5312H8.84766V12.3047Z" fill="#0A4366"/>
<path d="M13.4766 15.3516H16.4648C16.5736 15.3516 16.6779 15.3083 16.7549 15.2314C16.8318 15.1545 16.875 15.0502 16.875 14.9414V11.8945C16.875 11.7858 16.8318 11.6814 16.7549 11.6045C16.6779 11.5276 16.5736 11.4844 16.4648 11.4844H13.4766C13.3678 11.4844 13.2635 11.5276 13.1865 11.6045C13.1096 11.6814 13.0664 11.7858 13.0664 11.8945V14.9414C13.0664 15.0502 13.1096 15.1545 13.1865 15.2314C13.2635 15.3083 13.3678 15.3516 13.4766 15.3516ZM13.8867 12.3047H16.0547V14.5312H13.8867V12.3047Z" fill="#0A4366"/>
<path d="M18.457 15.3516H21.4453C21.5541 15.3516 21.6584 15.3083 21.7353 15.2314C21.8123 15.1545 21.8555 15.0502 21.8555 14.9414V11.8945C21.8555 11.7858 21.8123 11.6814 21.7353 11.6045C21.6584 11.5276 21.5541 11.4844 21.4453 11.4844H18.457C18.3483 11.4844 18.2439 11.5276 18.167 11.6045C18.0901 11.6814 18.0469 11.7858 18.0469 11.8945V14.9414C18.0469 15.0502 18.0901 15.1545 18.167 15.2314C18.2439 15.3083 18.3483 15.3516 18.457 15.3516ZM18.8672 12.3047H21.0352V14.5312H18.8672V12.3047Z" fill="#0A4366"/>
<path d="M23.4961 15.3516H26.4844C26.5932 15.3516 26.6975 15.3083 26.7744 15.2314C26.8513 15.1545 26.8945 15.0502 26.8945 14.9414V11.8945C26.8945 11.7858 26.8513 11.6814 26.7744 11.6045C26.6975 11.5276 26.5932 11.4844 26.4844 11.4844H23.4961C23.3873 11.4844 23.283 11.5276 23.2061 11.6045C23.1292 11.6814 23.0859 11.7858 23.0859 11.8945V14.9414C23.0859 15.0502 23.1292 15.1545 23.2061 15.2314C23.283 15.3083 23.3873 15.3516 23.4961 15.3516ZM23.9062 12.3047H26.0742V14.5312H23.9062V12.3047Z" fill="#0A4366"/>
<path d="M6.50391 17.0508H3.51562C3.40684 17.0508 3.30252 17.094 3.2256 17.1709C3.14868 17.2478 3.10547 17.3522 3.10547 17.4609V20.5078C3.10547 20.6166 3.14868 20.7209 3.2256 20.7978C3.30252 20.8748 3.40684 20.918 3.51562 20.918H6.50391C6.55777 20.918 6.6111 20.9074 6.66087 20.8867C6.71063 20.8661 6.75584 20.8359 6.79393 20.7978C6.83202 20.7597 6.86223 20.7145 6.88284 20.6648C6.90345 20.615 6.91406 20.5617 6.91406 20.5078V17.4609C6.91406 17.4071 6.90345 17.3537 6.88284 17.304C6.86223 17.2542 6.83202 17.209 6.79393 17.1709C6.75584 17.1328 6.71063 17.1026 6.66087 17.082C6.6111 17.0614 6.55777 17.0508 6.50391 17.0508ZM6.09375 20.0977H3.92578V17.8711H6.09375V20.0977Z" fill="#0A4366"/>
<path d="M11.4844 17.0508H8.49609C8.38731 17.0508 8.28299 17.094 8.20607 17.1709C8.12915 17.2478 8.08594 17.3522 8.08594 17.4609V20.5078C8.08594 20.6166 8.12915 20.7209 8.20607 20.7978C8.28299 20.8748 8.38731 20.918 8.49609 20.918H11.4844C11.5932 20.918 11.6975 20.8748 11.7744 20.7978C11.8513 20.7209 11.8945 20.6166 11.8945 20.5078V17.4609C11.8945 17.3522 11.8513 17.2478 11.7744 17.1709C11.6975 17.094 11.5932 17.0508 11.4844 17.0508ZM11.0742 20.0977H8.90625V17.8711H11.0742V20.0977Z" fill="#0A4366"/>
<path d="M16.5234 17.0508H13.5352C13.4264 17.0508 13.3221 17.094 13.2451 17.1709C13.1682 17.2478 13.125 17.3522 13.125 17.4609V20.5078C13.125 20.6166 13.1682 20.7209 13.2451 20.7978C13.3221 20.8748 13.4264 20.918 13.5352 20.918H16.5234C16.6322 20.918 16.7365 20.8748 16.8135 20.7978C16.8904 20.7209 16.9336 20.6166 16.9336 20.5078V17.4609C16.9336 17.3522 16.8904 17.2478 16.8135 17.1709C16.7365 17.094 16.6322 17.0508 16.5234 17.0508ZM16.1133 20.0977H13.9453V17.8711H16.1133V20.0977Z" fill="#0A4366"/>
<path d="M6.50391 22.2656H3.51562C3.40684 22.2656 3.30252 22.3088 3.2256 22.3858C3.14868 22.4627 3.10547 22.567 3.10547 22.6758V25.7227C3.10547 25.8314 3.14868 25.9358 3.2256 26.0127C3.30252 26.0896 3.40684 26.1328 3.51562 26.1328H6.50391C6.55777 26.1328 6.6111 26.1222 6.66087 26.1016C6.71063 26.081 6.75584 26.0508 6.79393 26.0127C6.83202 25.9746 6.86223 25.9294 6.88284 25.8796C6.90345 25.8299 6.91406 25.7765 6.91406 25.7227V22.6758C6.91406 22.6219 6.90345 22.5686 6.88284 22.5188C6.86223 22.4691 6.83202 22.4238 6.79393 22.3858C6.75584 22.3477 6.71063 22.3175 6.66087 22.2968C6.6111 22.2762 6.55777 22.2656 6.50391 22.2656ZM6.09375 25.3125H3.92578V23.0859H6.09375V25.3125Z" fill="#0A4366"/>
<path d="M11.4844 22.2656H8.49609C8.38731 22.2656 8.28299 22.3088 8.20607 22.3858C8.12915 22.4627 8.08594 22.567 8.08594 22.6758V25.7227C8.08594 25.8314 8.12915 25.9358 8.20607 26.0127C8.28299 26.0896 8.38731 26.1328 8.49609 26.1328H11.4844C11.5932 26.1328 11.6975 26.0896 11.7744 26.0127C11.8513 25.9358 11.8945 25.8314 11.8945 25.7227V22.6758C11.8945 22.567 11.8513 22.4627 11.7744 22.3858C11.6975 22.3088 11.5932 22.2656 11.4844 22.2656ZM11.0742 25.3125H8.90625V23.0859H11.0742V25.3125Z" fill="#0A4366"/>
<path d="M16.5234 22.2656H13.5352C13.4264 22.2656 13.3221 22.3088 13.2451 22.3858C13.1682 22.4627 13.125 22.567 13.125 22.6758V25.7227C13.125 25.8314 13.1682 25.9358 13.2451 26.0127C13.3221 26.0896 13.4264 26.1328 13.5352 26.1328H16.5234C16.6322 26.1328 16.7365 26.0896 16.8135 26.0127C16.8904 25.9358 16.9336 25.8314 16.9336 25.7227V22.6758C16.9336 22.567 16.8904 22.4627 16.8135 22.3858C16.7365 22.3088 16.6322 22.2656 16.5234 22.2656ZM16.1133 25.3125H13.9453V23.0859H16.1133V25.3125Z" fill="#0A4366"/>
<path d="M21.3984 22.2656H18.4102C18.3014 22.2656 18.1971 22.3088 18.1201 22.3858C18.0432 22.4627 18 22.567 18 22.6758V25.7227C18 25.8314 18.0432 25.9358 18.1201 26.0127C18.1971 26.0896 18.3014 26.1328 18.4102 26.1328H21.3984C21.5072 26.1328 21.6115 26.0896 21.6885 26.0127C21.7654 25.9358 21.8086 25.8314 21.8086 25.7227V22.6758C21.8086 22.567 21.7654 22.4627 21.6885 22.3858C21.6115 22.3088 21.5072 22.2656 21.3984 22.2656ZM20.9883 25.3125H18.8203V23.0859H20.9883V25.3125Z" fill="#0A4366"/>
<path d="M26.3984 22.2656H23.4102C23.3014 22.2656 23.1971 22.3088 23.1201 22.3858C23.0432 22.4627 23 22.567 23 22.6758V25.7227C23 25.8314 23.0432 25.9358 23.1201 26.0127C23.1971 26.0896 23.3014 26.1328 23.4102 26.1328H26.3984C26.5072 26.1328 26.6115 26.0896 26.6885 26.0127C26.7654 25.9358 26.8086 25.8314 26.8086 25.7227V22.6758C26.8086 22.567 26.7654 22.4627 26.6885 22.3858C26.6115 22.3088 26.5072 22.2656 26.3984 22.2656ZM25.9883 25.3125H23.8203V23.0859H25.9883V25.3125Z" fill="#0A4366"/>
<path d="M21.5039 17.0508H18.5156C18.4068 17.0508 18.3025 17.094 18.2256 17.1709C18.1487 17.2478 18.1055 17.3522 18.1055 17.4609V20.5078C18.1055 20.6166 18.1487 20.7209 18.2256 20.7978C18.3025 20.8748 18.4068 20.918 18.5156 20.918H21.5039C21.6127 20.918 21.717 20.8748 21.7939 20.7978C21.8708 20.7209 21.9141 20.6166 21.9141 20.5078V17.4609C21.9141 17.3522 21.8708 17.2478 21.7939 17.1709C21.717 17.094 21.6127 17.0508 21.5039 17.0508ZM21.0938 20.0977H18.9258V17.8711H21.0938V20.0977Z" fill="#0A4366"/>
<path d="M26.543 17.0508H23.5547C23.4459 17.0508 23.3416 17.094 23.2647 17.1709C23.1877 17.2478 23.1445 17.3522 23.1445 17.4609V20.5078C23.1445 20.6166 23.1877 20.7209 23.2647 20.7978C23.3416 20.8748 23.4459 20.918 23.5547 20.918H26.543C26.6517 20.918 26.7561 20.8748 26.833 20.7978C26.9099 20.7209 26.9531 20.6166 26.9531 20.5078V17.4609C26.9531 17.3522 26.9099 17.2478 26.833 17.1709C26.7561 17.094 26.6517 17.0508 26.543 17.0508ZM26.1328 20.0977H23.9648V17.8711H26.1328V20.0977Z" fill="#0A4366"/>
</svg>
