<svg width="25" height="25" viewBox="0 0 25 25" fill="none" xmlns="http://www.w3.org/2000/svg">
    <circle cx="12.5" cy="12.5" r="12.5" fill="white"/>
    <path d="M12.2236 8.00937C11.3115 8.00937 10.4198 8.27985 9.66143 8.78659C8.90303 9.29334 8.31192 10.0136 7.96287 10.8563C7.61381 11.699 7.52249 12.6263 7.70043 13.5209C7.87838 14.4155 8.31761 15.2372 8.96258 15.8822C9.60755 16.5271 10.4293 16.9664 11.3239 17.1443C12.2185 17.3223 13.1458 17.2309 13.9884 16.8819C14.8311 16.5328 15.5514 15.9417 16.0582 15.1833C16.5649 14.4249 16.8354 13.5333 16.8354 12.6211C16.8354 11.398 16.3495 10.225 15.4846 9.36013C14.6197 8.49525 13.4467 8.00937 12.2236 8.00937ZM12.2236 16.3106C11.4939 16.3106 10.7806 16.0942 10.1739 15.6888C9.56714 15.2834 9.09426 14.7072 8.81501 14.033C8.53577 13.3589 8.46271 12.6171 8.60506 11.9014C8.74742 11.1857 9.09881 10.5283 9.61478 10.0123C10.1308 9.49636 10.7881 9.14497 11.5038 9.00262C12.2195 8.86026 12.9613 8.93332 13.6355 9.21256C14.3096 9.49181 14.8858 9.96469 15.2912 10.5714C15.6966 11.1781 15.913 11.8914 15.913 12.6211C15.913 13.5996 15.5243 14.5381 14.8324 15.23C14.1405 15.9219 13.2021 16.3106 12.2236 16.3106Z" fill="#003761"/>
    <path d="M18.2189 6.16466H16.1989L15.8161 5.3991C15.6407 5.08536 15.3881 4.82158 15.0822 4.63273C14.7764 4.44389 14.4274 4.33623 14.0683 4.31995H10.3788C10.0197 4.33623 9.67075 4.44389 9.36489 4.63273C9.05903 4.82158 8.80642 5.08536 8.63098 5.3991L8.2482 6.16466H6.22824C5.37206 6.16466 4.55094 6.50478 3.94553 7.11019C3.34012 7.7156 3 8.53672 3 9.3929V16.7717C3 17.6279 3.34012 18.449 3.94553 19.0545C4.55094 19.6599 5.37206 20 6.22824 20H18.2189C19.0751 20 19.8962 19.6599 20.5016 19.0545C21.107 18.449 21.4471 17.6279 21.4471 16.7717V9.3929C21.4471 8.53672 21.107 7.7156 20.5016 7.11019C19.8962 6.50478 19.0751 6.16466 18.2189 6.16466ZM20.5248 16.7717C20.5248 17.3833 20.2818 17.9698 19.8494 18.4023C19.4169 18.8347 18.8304 19.0776 18.2189 19.0776H6.22824C5.61668 19.0776 5.03017 18.8347 4.59773 18.4023C4.1653 17.9698 3.92236 17.3833 3.92236 16.7717V9.3929C3.92236 8.78134 4.1653 8.19483 4.59773 7.76239C5.03017 7.32995 5.61668 7.08701 6.22824 7.08701H8.53413C8.6193 7.08675 8.70273 7.06292 8.77517 7.01815C8.84762 6.97338 8.90626 6.90942 8.94458 6.83336L9.45649 5.81416C9.55329 5.65203 9.68757 5.51548 9.84806 5.41597C10.0086 5.31647 10.1906 5.25691 10.3788 5.2423H14.0683C14.2565 5.25691 14.4386 5.31647 14.599 5.41597C14.7595 5.51548 14.8938 5.65203 14.9906 5.81416L15.5025 6.83336C15.5409 6.90942 15.5995 6.97338 15.6719 7.01815C15.7444 7.06292 15.8278 7.08675 15.913 7.08701H18.2189C18.8304 7.08701 19.4169 7.32995 19.8494 7.76239C20.2818 8.19483 20.5248 8.78134 20.5248 9.3929V16.7717Z" fill="#003761"/>
</svg>
