<svg width="18" height="18" viewBox="0 0 18 18" fill="none" xmlns="http://www.w3.org/2000/svg">
  <path d="M12.2032 5.78416C12.13 5.71065 12.0304 5.66935 11.9265 5.66935C11.8227 5.66935 11.7232 5.71065 11.6499 5.78416L8.99274 8.44111L6.19835 5.64673C6.04556 5.49394 5.79775 5.49394 5.64508 5.64673C5.49229 5.79964 5.49229 6.04733 5.64508 6.20025L8.43947 8.99463L5.64508 11.7889C5.57158 11.8621 5.53027 11.9618 5.53027 12.0657C5.53027 12.1694 5.57158 12.2689 5.64508 12.3424C5.71871 12.4164 5.81926 12.4575 5.92362 12.4561C6.02774 12.4556 6.12767 12.4149 6.20241 12.3424L8.9968 9.54802L11.6538 12.205C11.7274 12.2791 11.8279 12.3202 11.9324 12.3188C12.0365 12.3183 12.1365 12.2775 12.2111 12.205C12.2846 12.1316 12.3259 12.032 12.3259 11.9283C12.3259 11.8245 12.2846 11.7248 12.2111 11.6516L9.554 8.99463L12.2111 6.33755C12.3581 6.18107 12.3545 5.93633 12.2032 5.78416Z" fill="#F40505" />
  <path d="M9.00475 0.564264C5.59182 0.563649 2.51471 2.6194 1.20866 5.77259C-0.0971368 8.92591 0.625153 12.5553 3.03922 14.9679C6.33402 18.2627 11.6757 18.2627 14.9704 14.9679C18.2651 11.6733 18.2651 6.33164 14.9704 3.03684C13.3917 1.44918 11.2436 0.558855 9.00475 0.564264ZM14.417 14.4146C11.4343 17.3974 6.57925 17.3974 3.59261 14.4146C0.604379 11.4258 0.604625 6.58031 3.59347 3.59159C6.58208 0.60323 11.4275 0.60323 14.4163 3.59159C17.4049 6.58031 17.4054 11.4258 14.417 14.4146Z" fill="#F40505" />
</svg>