<svg width="18" height="18" viewBox="0 0 18 18" fill="none" xmlns="http://www.w3.org/2000/svg">
    <path
        d="M5.79581 5.78425C5.86907 5.71074 5.96864 5.66944 6.0725 5.66944C6.17637 5.66944 6.27582 5.71074 6.34908 5.78425L9.00628 8.4412L11.8007 5.64682C11.9535 5.49403 12.2013 5.49403 12.3539 5.64682C12.5067 5.79974 12.5067 6.04742 12.3539 6.20034L9.55956 8.99472L12.3539 11.789C12.4274 11.8622 12.4688 11.9619 12.4688 12.0658C12.4688 12.1695 12.4274 12.269 12.3539 12.3425C12.2803 12.4165 12.1798 12.4576 12.0754 12.4562C11.9713 12.4557 11.8713 12.415 11.7966 12.3425L9.00223 9.54812L6.34527 12.2051C6.27164 12.2792 6.17109 12.3203 6.0666 12.3189C5.96249 12.3184 5.86255 12.2776 5.78794 12.2051C5.71443 12.1317 5.67313 12.0321 5.67313 11.9284C5.67313 11.8246 5.71443 11.7249 5.78794 11.6517L8.44502 8.99472L5.78794 6.33764C5.64093 6.18116 5.64449 5.93642 5.79581 5.78425Z"
        fill="#B0A8A8" />
    <path
        d="M8.99525 0.564233C12.4082 0.563619 15.4853 2.61937 16.7913 5.77256C18.0971 8.92588 17.3748 12.5553 14.9608 14.9679C11.666 18.2627 6.32427 18.2627 3.02959 14.9679C-0.265091 11.6733 -0.265091 6.33161 3.02959 3.03681C4.60828 1.44915 6.75634 0.558825 8.99525 0.564233ZM3.58299 14.4146C6.56569 17.3974 11.4207 17.3974 14.4074 14.4146C17.3956 11.4257 17.3954 6.58028 14.4065 3.59156C11.4179 0.6032 6.57245 0.6032 3.58372 3.59156C0.595118 6.58028 0.594627 11.4257 3.58299 14.4146Z"
        fill="#B0A8A8" />
</svg>