<svg width="25" height="25" viewBox="0 0 25 25" fill="none" xmlns="http://www.w3.org/2000/svg">
<path d="M24.2472 1.74522H19.3432V0.752831C19.3432 0.337029 19.0062 0 18.5905 0C18.1747 0 17.8377 0.337029 17.8377 0.752831V1.74522H7.16228V0.752831C7.16228 0.337029 6.82526 0 6.40945 0C5.99384 0 5.65681 0.337029 5.65681 0.752831V1.74522H0.752831C0.337029 1.74522 0 2.08225 0 2.49805V23.9393C0 24.3549 0.337029 24.692 0.752831 24.692H24.2472C24.663 24.692 25 24.3549 25 23.9393C25 23.2574 25 2.8368 25 2.49805C25 2.08225 24.663 1.74522 24.2472 1.74522ZM23.4943 23.1865H1.50566V8.74729H23.4943V23.1865ZM23.4943 7.24163H1.50566V3.25089H5.65681V4.24328C5.65681 4.65908 5.99384 4.99611 6.40945 4.99611C6.82526 4.99611 7.16228 4.65908 7.16228 4.24328V3.25089H17.8375V4.24328C17.8375 4.65908 18.1746 4.99611 18.5904 4.99611C19.0062 4.99611 19.3432 4.65908 19.3432 4.24328V3.25089H23.4943V7.24163Z" fill="#003761"/>
<path d="M7.9491 20.5723C8.24302 20.8662 8.71967 20.8664 9.01359 20.5723L12.5 17.0858L15.9865 20.5723C16.2804 20.8662 16.757 20.8664 17.051 20.5723C17.3451 20.2784 17.3451 19.8017 17.051 19.5076L13.5647 16.0213L17.051 12.5349C17.3451 12.241 17.3451 11.7643 17.051 11.4702C16.757 11.1763 16.2804 11.1763 15.9865 11.4702L12.5 14.9567L9.01359 11.4702C8.71967 11.1763 8.24302 11.1763 7.9491 11.4702C7.65499 11.7643 7.65499 12.241 7.9491 12.5349L11.4354 16.0213L7.9491 19.5076C7.65499 19.8017 7.65499 20.2784 7.9491 20.5723Z" fill="#003761"/>
</svg>
