<svg width="25" height="25" viewBox="0 0 25 25" fill="none" xmlns="http://www.w3.org/2000/svg">
<path d="M18.8334 5.00022C18.5348 5.00022 18.2363 5.11411 18.0085 5.34215L6.34188 17.0087C5.88604 17.4645 5.88604 18.2028 6.34188 18.6583C6.79747 19.1139 7.53593 19.1142 7.99151 18.6583L19.6581 6.99179C20.1139 6.53595 20.1139 5.79774 19.6581 5.34215C19.4303 5.11411 19.132 5.00022 18.8334 5.00022Z" fill="#003761"/>
<path d="M7.16657 5.00012C6.86799 5.00012 6.56967 5.11402 6.34188 5.34206C5.88604 5.79765 5.88604 6.53611 6.34188 6.99169L18.0084 18.6582C18.4642 19.1141 19.2024 19.1141 19.658 18.6582C20.1136 18.2027 20.1139 17.4642 19.658 17.0086L7.9915 5.34206C7.76371 5.11402 7.46514 5.00012 7.16657 5.00012Z" fill="#003761"/>
<rect x="0.75" y="0.75" width="23.5" height="23.5" rx="4.25" stroke="#003761" stroke-width="1.5"/>
</svg>
