<svg xmlns="http://www.w3.org/2000/svg" width="57" height="57" viewBox="0 0 57 57">
  <g id="Cardiovascular" transform="translate(-13766 -5917)">
    <circle id="Ellipse_51" data-name="Ellipse 51" cx="28.5" cy="28.5" r="28.5" transform="translate(13766 5917)" fill="#eee"/>
    <g id="heart" transform="translate(13781.998 5928)">
      <path id="Path_1628" data-name="Path 1628" d="M335.008,300.538l0,0a.7.7,0,1,0,.353-.93A.7.7,0,0,0,335.011,300.542Zm0,0" transform="translate(-311.572 -278.649)" fill="#818a91"/>
      <path id="Path_1629" data-name="Path 1629" d="M25.361,23.923a.7.7,0,1,0-1.378.218,13.215,13.215,0,0,1,.128,3,7.885,7.885,0,0,1-3.219,5.812l-.472.345a5.361,5.361,0,0,1-4.394.889l-1.849-.437A17.357,17.357,0,0,1,5,28.168a10.05,10.05,0,0,1-1.874-3.036.694.694,0,0,0,.026-.3c0-.03-.347-3.044,3.9-4.979a9.845,9.845,0,0,0,4.753-4.574c3.2.441,4.3,1.341,4.377,1.411a.654.654,0,0,0,.642.182L17,16.837a4.943,4.943,0,0,1,5.485,2.831.7.7,0,0,0,1.274-.569,6.393,6.393,0,0,0-2.55-2.868l0-.007a4.66,4.66,0,0,0,.212-1.393c0-.1,0-.189-.009-.283H21.9a.7.7,0,1,0,0-1.4h-.789a4.665,4.665,0,0,0-.739-1.269l.316-.316a.7.7,0,1,0-.987-.987l-.365.365a4.635,4.635,0,0,0-1.92-.73,5.331,5.331,0,0,1,3.619-1.039.7.7,0,0,0,.722-.7V5.821a.7.7,0,0,0-.64-.7,16.835,16.835,0,0,0-3.119.1,7.05,7.05,0,0,0-3.059-3.168l.494-.737a.7.7,0,0,0-1.16-.777l-.707,1.056a4.986,4.986,0,0,0-1.455-.056V.7a.7.7,0,0,0-1.4,0V1.891a5.985,5.985,0,0,0-1.841,1.2,7.549,7.549,0,0,0-1.14,1.372,1.587,1.587,0,0,0-1.415-.871H4.422A1.588,1.588,0,0,0,2.836,5.18v7.133a7.345,7.345,0,0,0-1.013.962A8.428,8.428,0,0,0,0,18.917a10.445,10.445,0,0,0,1.152,4.87c.105.282.2.554.292.817a12,12,0,0,0,2.488,4.468,18.761,18.761,0,0,0,9.922,6.039l1.849.437a6.757,6.757,0,0,0,5.538-1.12l.472-.345A9.277,9.277,0,0,0,25.5,27.244a14.6,14.6,0,0,0-.141-3.321Zm-8.515-8.478a6.823,6.823,0,0,0-1.51-.754,7.774,7.774,0,0,1,.908-3.085,3.33,3.33,0,0,1,.516-.041,3.267,3.267,0,0,1,3.163,4.082,6.266,6.266,0,0,0-3.077-.2Zm3.511-8.951V7.784A6.246,6.246,0,0,0,16.11,9.5a8.057,8.057,0,0,0-2.135,4.769,19.436,19.436,0,0,0-2.4-.429q-.318-.295-.634-.557c0-.017,0-.034,0-.051a5.829,5.829,0,0,1,1.8-4.485c2.271-2.095,6.1-2.274,7.611-2.259ZM12.642,2.9a3.666,3.666,0,0,1,1.03.149h0a5.119,5.119,0,0,1,2.86,2.409A10.076,10.076,0,0,0,11.8,7.723,6.937,6.937,0,0,0,9.6,12.308,8.25,8.25,0,0,0,7.9,11.493V7.458a.763.763,0,0,0,.032-.087C8.7,4.7,10.6,2.9,12.642,2.9ZM4.231,5.18a.19.19,0,0,1,.19-.19H6.316a.19.19,0,0,1,.19.19v6.013a5.271,5.271,0,0,0-.7-.016,4.928,4.928,0,0,0-1.578.333ZM2.872,14.2a4.24,4.24,0,0,1,3-1.624c1.388-.062,2.986.692,4.633,2.185a8.551,8.551,0,0,1-4.031,3.83,7.882,7.882,0,0,0-4.3,4.034l-.024.059C1.271,20.724.8,16.562,2.872,14.2Zm0,0" transform="translate(0)" fill="#818a91"/>
      <path id="Path_1630" data-name="Path 1630" d="M111.579,400.025a.7.7,0,1,0-.891,1.074,16.079,16.079,0,0,0,6.538,3.256.7.7,0,0,0,.321-1.358,14.679,14.679,0,0,1-5.967-2.972Zm0,0" transform="translate(-102.728 -371.961)" fill="#818a91"/>
      <path id="Path_1631" data-name="Path 1631" d="M84.643,374.375a.7.7,0,1,0,1,.089l-.014-.017A.7.7,0,0,0,84.643,374.375Zm0,0" transform="translate(-78.51 -348.092)" fill="#818a91"/>
    </g>
  </g>
</svg>
