<svg width="32" height="32" viewBox="0 0 32 32" fill="none" xmlns="http://www.w3.org/2000/svg">
  <path d="M12.8293 24.1233C11.1537 24.1233 9.79541 25.4815 9.79541 27.1568C9.79519 28.8322 11.1534 30.1905 12.8289 30.1905C14.5046 30.1909 15.8628 28.8327 15.8628 27.157C15.8608 25.4824 14.5039 24.1253 12.8293 24.1233ZM12.8293 28.7619C11.9427 28.7619 11.224 28.0436 11.224 27.157C11.2238 26.2706 11.9425 25.5519 12.8289 25.5519C13.7155 25.5519 14.4343 26.2704 14.4343 27.1568C14.4331 28.0427 13.7151 28.7606 12.8293 28.7617V28.7619Z" fill="#003761" />
  <path d="M23.2693 24.1233C21.5936 24.1233 20.2354 25.4815 20.2354 27.157C20.2354 28.8327 21.5936 30.1905 23.2693 30.1905C24.9447 30.1905 26.3028 28.8327 26.3028 27.157C26.301 25.4824 24.9438 24.1253 23.2693 24.1233ZM23.2693 28.7619C22.3827 28.7619 21.6639 28.0436 21.6639 27.157C21.6639 26.2704 22.3827 25.5519 23.2693 25.5519C24.1557 25.5519 24.8742 26.2704 24.8742 27.157C24.8742 28.0432 24.1557 28.7619 23.2693 28.7619Z" fill="#003761" />
  <path d="M30.8386 6.42645C30.7038 6.24007 30.4871 6.13069 30.2569 6.13315H8.19799L7.94665 4.53337C7.70379 2.94743 6.33972 1.776 4.73548 1.776H1.68548C1.29083 1.776 0.971191 2.09587 0.971191 2.49029C0.971191 2.88493 1.29083 3.20457 1.68548 3.20457H4.73548C5.63459 3.20457 6.3991 3.86083 6.53526 4.74989L8.95044 20.0169C9.19308 21.6033 10.5571 22.7751 12.1621 22.776H27.0855C27.4799 22.776 27.7998 22.4564 27.7998 22.0617C27.7998 21.6673 27.4799 21.3475 27.0855 21.3475H12.1621C11.2596 21.341 10.496 20.6791 10.3616 19.787L9.99018 17.4189H25.0237C26.4074 17.4224 27.6409 16.5483 28.0962 15.2421L30.9319 7.06619C31.0074 6.85056 30.9728 6.61172 30.8386 6.42645ZM29.2536 7.56172L28.5134 9.70458H8.7625L8.4241 7.56172H29.2536ZM8.98839 11.1332H28.0181L27.59 12.3474H9.18415L8.98839 11.1332ZM25.0237 15.9903H9.76406L9.41026 13.776H27.0951L26.7462 14.7733C26.4906 15.505 25.7987 15.9939 25.0237 15.9903Z" fill="#003761" />
</svg>