<svg width="26" height="25" viewBox="0 0 26 25" fill="none" xmlns="http://www.w3.org/2000/svg">
<path d="M22.694 13.3513L18.5485 12.5635C18.5493 12.5405 18.5554 12.5187 18.5554 12.4953V11.5461C19.7591 10.8475 20.5723 9.54741 20.5723 8.05814C21.2394 8.05814 21.7824 7.51519 21.7824 6.84801C21.7824 6.24939 21.3447 5.75445 20.7731 5.65804L21.0031 5.12478C21.4173 4.16433 21.3435 3.05505 20.8054 2.15793C20.4642 1.58917 19.9652 1.14344 19.3617 0.868738L18.2359 0.356045C16.9056 -0.249021 15.2763 -0.0719384 14.1093 0.803795L13.4861 1.27131L13.4688 1.28341C12.8415 1.44839 12.2881 1.85298 11.9476 2.42013C11.5031 3.16033 11.4684 4.06389 11.8549 4.83676L12.2675 5.66167C11.7133 5.7726 11.2946 6.2619 11.2946 6.84801C11.2946 7.51519 11.8375 8.05814 12.5047 8.05814C12.5047 9.54741 13.3179 10.8475 14.5216 11.5461V12.4953C14.5216 12.5187 14.5276 12.5405 14.5285 12.5635L12.9081 12.8712V12.0919C12.9081 11.4247 12.3651 10.8818 11.698 10.8818H1.21013C0.542946 10.8818 0 11.4247 0 12.0919V17.7392C0 18.4064 0.542946 18.9493 1.21013 18.9493H5.24391V21.773H0.403378C0.18031 21.773 0 21.9537 0 22.1764V24.5966C0 24.8193 0.18031 25 0.403378 25H22.1858H24.606C24.8291 25 25.0094 24.8193 25.0094 24.5966V16.1285C25.0094 14.7635 24.0345 13.5949 22.694 13.3513ZM7.66418 18.9493H8.06755V21.773H7.66418V18.9493ZM8.87431 18.9493H10.4878V21.773H8.87431V18.9493ZM11.2946 18.9493H12.5047H21.7824V21.773H11.2946V18.9493ZM21.7824 18.1426H20.9756V13.8458L21.7824 13.9991V18.1426ZM20.9756 6.84801C20.9756 7.07027 20.7949 7.25138 20.5723 7.25138V6.44463C20.7949 6.44463 20.9756 6.62574 20.9756 6.84801ZM12.6394 2.83561C12.946 2.32493 13.5067 2.00747 14.1025 2.00747C14.735 2.00747 15.3219 2.3217 15.6728 2.84811L15.7995 3.0381L16.4707 2.59035L16.3441 2.40036C15.9806 1.855 15.4381 1.47179 14.8229 1.30156C15.7358 0.73522 16.9181 0.643654 17.9019 1.0906L19.0277 1.60329C19.4815 1.80982 19.8575 2.14503 20.1136 2.57301C20.5186 3.24826 20.5743 4.08285 20.2625 4.8057L20.235 4.86903L19.7227 3.84405C19.6691 3.73716 19.5711 3.65931 19.4545 3.63188C19.3371 3.60445 19.2153 3.63026 19.1197 3.70166L18.4747 4.18571C17.9196 4.602 17.2319 4.83112 16.5385 4.83112C15.8451 4.83112 15.1573 4.602 14.6023 4.18571L13.9569 3.70166C13.8617 3.62986 13.7399 3.60404 13.6221 3.63188C13.5055 3.65931 13.4075 3.73716 13.3538 3.84405L12.8068 4.93761L12.5761 4.47614C12.3143 3.95175 12.3377 3.33822 12.6394 2.83561ZM12.1013 6.84801C12.1013 6.62574 12.282 6.44463 12.5047 6.44463V7.25138C12.282 7.25138 12.1013 7.07027 12.1013 6.84801ZM13.3115 8.05814V5.73307L13.8593 4.63709L14.1182 4.83112C14.8124 5.35147 15.672 5.63787 16.5385 5.63787C17.4049 5.63787 18.2645 5.35147 18.9592 4.83112L19.2177 4.63709L19.7655 5.73307V8.05814C19.7655 9.83744 18.3178 11.2852 16.5385 11.2852C14.7592 11.2852 13.3115 9.83744 13.3115 8.05814ZM16.5385 12.0919C16.96 12.0919 17.3662 12.0262 17.7486 11.906V12.4953C17.7486 13.1625 17.2057 13.7054 16.5385 13.7054C15.8713 13.7054 15.3284 13.1625 15.3284 12.4953V11.906C15.7108 12.0262 16.117 12.0919 16.5385 12.0919ZM14.718 13.3484C15.0403 14.0338 15.7325 14.5122 16.5385 14.5122C17.3444 14.5122 18.0366 14.0338 18.3589 13.3484L20.1689 13.6925V18.1426H12.9081V13.6925L14.718 13.3484ZM1.21013 18.1426C0.987468 18.1426 0.806755 17.9615 0.806755 17.7392V12.0919C0.806755 11.8697 0.987468 11.6885 1.21013 11.6885H11.698C11.9206 11.6885 12.1013 11.8697 12.1013 12.0919V18.1426H10.8912H7.66418V14.9156C7.66418 14.6929 7.48387 14.5122 7.2608 14.5122H5.64729C5.42422 14.5122 5.24391 14.6929 5.24391 14.9156V18.1426H1.21013ZM6.05066 15.3189H6.85742V21.773H6.05066V15.3189ZM21.7824 24.1932H0.806755V22.5797H21.7824V24.1932ZM24.2027 24.1932H22.5891V22.1764V18.546V14.156C23.5258 14.3476 24.2027 15.1685 24.2027 16.1285V24.1932Z" fill="#0D7223"/>
</svg>
