<svg width="34" height="36" viewBox="0 0 34 36" fill="none" xmlns="http://www.w3.org/2000/svg">
    <path d="M31.9652 7.62354H9.83729C9.53998 7.62354 9.29959 7.93147 9.29959 8.31233C9.29959 8.69319 9.53998 9.00112 9.83729 9.00112H13.1014C10.7039 10.954 9.26796 14.3494 9.29959 17.9878C9.26796 21.6263 10.7039 25.0216 13.1014 26.9746H1.74017V9.00922H7.13614C7.43346 9.00922 7.67384 8.70129 7.67384 8.32043C7.67384 7.93957 7.43346 7.63164 7.13614 7.63164H1.74017C1.13921 7.62354 0.658447 8.2394 0.658447 9.00922V26.9908C0.658447 27.7525 1.13921 28.3764 1.74017 28.3764H31.9715C32.5662 28.3764 33.0533 27.7606 33.0533 26.9908V9.00922C33.0469 8.2394 32.5662 7.62354 31.9652 7.62354ZM10.375 17.9959C10.375 13.0366 13.2786 9.00922 16.8527 9.00922C20.4268 9.00922 23.3304 13.0366 23.3304 17.9959C23.3304 22.9552 20.4268 26.9827 16.8527 26.9827C13.2786 26.9827 10.375 22.9552 10.375 17.9959ZM31.9652 26.9827H20.6039C23.0014 25.0297 24.4374 21.6344 24.4058 17.9959C24.4374 14.3575 23.0014 10.9622 20.6039 9.00922H31.9652V26.9827Z" fill="#269C40" />
    <path d="M29.1417 0.145029C28.8894 -0.0154429 28.593 -0.0475373 28.3217 0.0728164L16.7289 5.01534C16.445 5.1357 16.2937 5.52083 16.3883 5.88189C16.4829 6.24295 16.7856 6.43552 17.0695 6.31516L28.6623 1.37264L29.8544 5.88189C29.9175 6.11457 30.0689 6.29109 30.2581 6.33923C30.4473 6.38738 30.6428 6.30714 30.769 6.1226C30.8951 5.93806 30.9393 5.6813 30.8762 5.44862L29.6841 0.939363C29.5958 0.594349 29.4003 0.3055 29.1417 0.145029Z" fill="#269C40" />
    <path d="M16.6544 29.6828L5.05116 34.6273L3.85801 30.1163C3.76332 29.755 3.4603 29.5624 3.17621 29.6828C2.89213 29.8032 2.74062 30.1885 2.83531 30.5497L4.02215 35.0608C4.11053 35.4059 4.30623 35.6949 4.55875 35.8554C4.71026 35.9517 4.8744 35.9999 5.03854 35.9999C5.15217 35.9999 5.27212 35.9758 5.37944 35.9277L16.9827 30.9831C17.2668 30.8627 17.4183 30.4775 17.3236 30.1163C17.2352 29.755 16.9322 29.5624 16.6544 29.6828Z" fill="#269C40" />
    <path d="M28.149 25.6235H30.3549C30.6589 25.6235 30.9047 25.3085 30.9047 24.919V22.0927C30.9047 21.7031 30.6589 21.3882 30.3549 21.3882C30.0508 21.3882 29.805 21.7031 29.805 22.0927V24.2145H28.149C27.8449 24.2145 27.5991 24.5294 27.5991 24.919C27.5991 25.3002 27.8449 25.6235 28.149 25.6235Z" fill="#269C40" />
    <path d="M3.35698 21.3882C3.05295 21.3882 2.80713 21.7031 2.80713 22.0927V24.919C2.80713 25.3085 3.05295 25.6235 3.35698 25.6235H5.56287C5.86691 25.6235 6.11272 25.3085 6.11272 24.919C6.11272 24.5294 5.86691 24.2145 5.56287 24.2145H3.90684V22.0927C3.90684 21.7031 3.66102 21.3882 3.35698 21.3882Z" fill="#269C40" />
    <path d="M5.56287 10.3765H3.35698C3.05295 10.3765 2.80713 10.6914 2.80713 11.081V13.9073C2.80713 14.2968 3.05295 14.6118 3.35698 14.6118C3.66102 14.6118 3.90684 14.2968 3.90684 13.9073V11.7855H5.56287C5.86691 11.7855 6.11272 11.4705 6.11272 11.081C6.11272 10.6914 5.86691 10.3765 5.56287 10.3765Z" fill="#269C40" />
    <path d="M28.149 11.7855H29.805V13.9073C29.805 14.2968 30.0508 14.6118 30.3549 14.6118C30.6589 14.6118 30.9047 14.2968 30.9047 13.9073V11.081C30.9047 10.6914 30.6589 10.3765 30.3549 10.3765H28.149C27.8449 10.3765 27.5991 10.6914 27.5991 11.081C27.5991 11.4705 27.8449 11.7855 28.149 11.7855Z" fill="#269C40" />
    <path d="M13.5752 21.1764C13.2729 21.1359 12.9642 21.1359 12.6683 21.0547C12.0122 20.8681 11.6327 20.1216 11.7549 19.294C11.8385 18.718 11.9994 18.1662 12.2566 17.6713C12.3531 17.4847 12.5397 17.4522 12.6426 17.6145C12.7069 17.7118 12.7069 17.8417 12.649 17.9796C12.5654 18.1824 12.4753 18.3934 12.4046 18.6044C12.3467 18.7748 12.3017 18.9614 12.2759 19.148C12.2373 19.4076 12.3403 19.6024 12.4818 19.7728C12.6297 19.9513 12.8162 20.0405 13.0156 20.0811C13.5045 20.1866 13.9933 20.1622 14.4693 19.9918C14.9388 19.8214 15.164 19.4563 15.164 18.8397C15.164 18.4177 15.1382 17.9958 15.0996 17.5739C15.0418 16.9167 14.9839 16.2676 14.9067 15.6185C14.8552 15.1966 14.7716 14.7828 14.7009 14.3609C14.6365 13.9795 14.6365 13.6063 14.7909 13.2493C14.8552 13.1032 14.9067 13.0951 15.0032 13.2006C15.1511 13.3629 15.3055 13.517 15.4534 13.6712C15.5949 13.8172 15.7107 13.9795 15.685 14.2229C15.6657 14.3527 15.6271 14.515 15.5563 14.5962C15.3376 14.8396 15.3698 15.1317 15.3955 15.44C15.492 16.5272 15.5885 17.6226 15.685 18.7098C15.7171 19.1155 15.6978 19.5293 15.5821 19.9188C15.4148 20.503 15.0804 20.8519 14.6172 21.0223C14.2828 21.144 13.9354 21.144 13.5881 21.1602C13.5752 21.1521 13.5752 21.1602 13.5752 21.1764Z" fill="#269C40" />
    <path d="M18.9561 18.8269C18.889 18.4513 18.8524 18.0678 18.6696 17.7481C18.4684 17.3885 18.4928 16.957 18.7061 16.6134C18.7549 16.5335 18.8098 16.5335 18.8707 16.6054C19.0475 16.8132 19.1633 17.0689 19.2243 17.3646C19.3523 17.9639 19.3401 18.5712 19.3279 19.1785C19.3218 19.3623 19.3097 19.5541 19.3036 19.7379C19.2975 19.8738 19.2731 19.9057 19.1694 19.9057C18.4989 19.9057 17.8283 19.9057 17.1516 19.9057C16.8164 19.9057 16.5847 19.682 16.5055 19.2425C16.4506 18.9228 16.4201 18.6032 16.3957 18.2755C16.3348 17.4844 16.2372 16.7013 16.1336 15.9182C16.0848 15.5666 16.0483 15.2149 16.03 14.8553C16.0239 14.6955 16.0848 14.5357 16.1214 14.3759C16.1458 14.272 16.1824 14.1681 16.2189 14.0722C16.2372 14.0243 16.286 13.9763 16.3165 13.9763C16.347 13.9763 16.3957 14.0323 16.4079 14.0802C16.5664 14.6955 16.6944 15.3268 16.7249 15.9821C16.7676 16.7972 16.8225 17.6123 16.8773 18.4274C16.8956 18.6911 16.9992 18.8349 17.2004 18.8349C17.7734 18.8429 18.3465 18.8349 18.9195 18.8349C18.9378 18.8349 18.9439 18.8349 18.9561 18.8269Z" fill="#269C40" />
    <path d="M21.8144 19.5759C21.8079 20.0509 21.7242 20.526 21.4667 20.9286C21.2671 21.2346 21.0868 21.5567 20.8679 21.8465C20.6104 22.2008 20.3013 22.4746 19.9215 22.5954C19.5802 22.7081 19.2519 22.6598 18.9235 22.531C18.5951 22.4021 18.2732 22.2572 17.9448 22.1203C17.8869 22.0961 17.8418 22.0639 17.8483 21.9754C17.8547 21.9029 17.9255 21.8465 17.9964 21.8546C18.1444 21.8868 18.2861 21.927 18.4342 21.9593C19.0523 22.1203 19.6124 21.9593 20.121 21.4842C20.488 21.146 20.7778 20.7192 21.0224 20.2442C21.2478 19.8174 21.2156 19.3262 20.9323 18.8753C20.6876 18.4888 20.443 18.1184 20.1919 17.74C20.1146 17.6192 20.0631 17.4904 20.0824 17.3374C20.1082 17.1522 20.1854 17.0234 20.3335 16.967C20.4945 16.9026 20.6361 16.9589 20.752 17.12C20.8937 17.3293 21.0353 17.5387 21.177 17.7561C21.28 17.9171 21.3894 18.0782 21.4924 18.2473C21.7113 18.6418 21.8015 19.0847 21.8144 19.5759Z" fill="#269C40" />
    <path d="M17.8131 20.7782C17.9676 20.5826 18.1158 20.3955 18.2641 20.2084C18.3136 20.1488 18.3692 20.1488 18.4124 20.2169C18.5483 20.421 18.6781 20.6336 18.8078 20.8377C18.8573 20.9143 18.8449 20.9823 18.7955 21.0504C18.6657 21.2205 18.536 21.3821 18.4062 21.5436C18.3444 21.6202 18.295 21.6202 18.2394 21.5351C18.1282 21.365 18.0232 21.1949 17.9181 21.0333C17.9058 21.0163 17.8934 20.9993 17.8811 20.9738C17.739 21.1524 17.603 21.3225 17.4671 21.4926C17.3806 21.5947 17.3435 21.5947 17.2632 21.4756C17.1396 21.28 17.0161 21.0844 16.8987 20.8888C16.8369 20.7867 16.8431 20.7357 16.911 20.6421C17.0346 20.489 17.1582 20.3359 17.2817 20.1828C17.3559 20.0893 17.3991 20.0978 17.4671 20.1998C17.5783 20.3955 17.6957 20.5911 17.8131 20.7782Z" fill="#269C40" />
</svg>