<svg width="16" height="16" viewBox="0 0 16 16" fill="none" xmlns="http://www.w3.org/2000/svg">
<path d="M6.875 0H0.625C0.279785 0 0 0.279785 0 0.625V6.875C0 7.22021 0.279785 7.5 0.625 7.5H6.875C7.22021 7.5 7.5 7.22021 7.5 6.875V0.625C7.5 0.279785 7.22021 0 6.875 0ZM6.25 6.25H1.25V1.25H6.25V6.25ZM15.6143 8.54761C15.3807 8.45081 15.1118 8.50427 14.9331 8.68298L8.68311 14.933C8.50427 15.1118 8.45081 15.3806 8.54761 15.6141C8.64441 15.8478 8.87219 16 9.125 16H15.375C15.7202 16 16 15.7202 16 15.375V9.125C16 8.87219 15.8478 8.64429 15.6143 8.54761ZM14.75 14.75H10.6339L14.75 10.6339V14.75ZM12.25 7.5C14.3177 7.5 16 5.81775 16 3.75C16 1.68225 14.3177 0 12.25 0C10.1823 0 8.5 1.68225 8.5 3.75C8.5 5.81775 10.1823 7.5 12.25 7.5ZM12.25 1.25C13.6285 1.25 14.75 2.37146 14.75 3.75C14.75 5.12854 13.6285 6.25 12.25 6.25C10.8715 6.25 9.75 5.12854 9.75 3.75C9.75 2.37146 10.8715 1.25 12.25 1.25ZM7.31689 9.56702L4.63391 12.25L7.31689 14.933C7.56104 15.1771 7.56104 15.5729 7.31689 15.8169C7.07288 16.0609 6.67712 16.061 6.43311 15.8169L3.75 13.1339L1.06689 15.817C0.822876 16.061 0.427124 16.061 0.183105 15.817C-0.0610352 15.5729 -0.0610352 15.1771 0.183105 14.9331L2.86609 12.25L0.183105 9.56702C-0.0610352 9.32288 -0.0610352 8.92712 0.183105 8.68311C0.427124 8.43896 0.822876 8.43896 1.06689 8.68311L3.75 11.3661L6.43311 8.68298C6.67712 8.43896 7.07288 8.43896 7.31689 8.68298C7.56104 8.92712 7.56104 9.32288 7.31689 9.56702Z" fill="#003761"/>
</svg>
