<svg width="21" height="23" viewBox="0 0 21 23" fill="none" xmlns="http://www.w3.org/2000/svg">
<path d="M11.0141 4.81194H10.359V4.15686H11.0141V4.81194ZM9.92229 4.81194H9.26721V4.15686H9.92229V4.81194Z" fill="#C3CBCD"/>
<path d="M19.6267 21.705H0.655078V7.43628H0V22.3601H20.2818V7.43628H19.6267V21.705Z" fill="#C3CBCD"/>
<path d="M5.7899 4.81196L6.3227 4.27902V0.532797L5.7899 0H4.33481L3.80188 0.532797V4.27902L4.33481 4.81196H5.7899ZM4.45696 0.804108L4.60599 0.655078H5.51859L5.66762 0.804108V4.00771L5.51859 4.15688H4.60599L4.45696 4.00771V0.804108Z" fill="#C3CBCD"/>
<path d="M15.9471 4.81196L16.48 4.27902V0.532797L15.9471 0H14.492L13.9592 0.532797V4.27902L14.492 4.81196H15.9471ZM14.6143 0.804108L14.7633 0.655078H15.6759L15.825 0.804108V4.00771L15.6759 4.15688H14.7633L14.6143 4.00771V0.804108Z" fill="#C3CBCD"/>
<path d="M17.0257 2.07861V2.73369H19.6267V6.23549H0.655078V2.73369H3.25601V2.07861H0V6.89057H20.2818V2.07861H17.0257Z" fill="#C3CBCD"/>
<path d="M6.86871 2.07861H13.4132V2.73369H6.86871V2.07861Z" fill="#C3CBCD"/>
<path d="M13.9963 8.651L8.55606 14.0911L6.28526 11.8203L3.65253 14.4531L8.55592 19.3565L16.6289 11.2837L13.9963 8.651ZM4.57905 14.4531L6.28526 12.7469L8.55606 15.0177L13.9963 9.57739L15.7026 11.2837L8.55606 18.4302L4.57905 14.4531Z" fill="#C3CBCD"/>
</svg>
