<svg width="19" height="18" viewBox="0 0 19 18" fill="none" xmlns="http://www.w3.org/2000/svg">
<rect x="1.49658" y="0.5" width="17" height="17" rx="2.5" fill="white" stroke="#FF7B54"/>
<path d="M13.603 10.7598C13.5028 11.8216 13.1108 12.651 12.4272 13.248C11.7437 13.8405 10.8345 14.1367 9.69971 14.1367C8.90674 14.1367 8.20719 13.9499 7.60107 13.5762C6.99951 13.1979 6.53467 12.6624 6.20654 11.9697C5.87842 11.277 5.70752 10.4727 5.69385 9.55664V8.62695C5.69385 7.68815 5.86019 6.861 6.19287 6.14551C6.52555 5.43001 7.00179 4.87858 7.62158 4.49121C8.24593 4.10384 8.96598 3.91016 9.78174 3.91016C10.88 3.91016 11.7642 4.20866 12.4341 4.80566C13.104 5.40267 13.4937 6.24577 13.603 7.33496H11.8804C11.7983 6.61947 11.5887 6.10449 11.2515 5.79004C10.9188 5.47103 10.4289 5.31152 9.78174 5.31152C9.02979 5.31152 8.45101 5.58724 8.04541 6.13867C7.64437 6.68555 7.43929 7.48991 7.43018 8.55176V9.43359C7.43018 10.5091 7.62158 11.3294 8.00439 11.8945C8.39176 12.4596 8.95687 12.7422 9.69971 12.7422C10.3787 12.7422 10.8892 12.5895 11.231 12.2842C11.5728 11.9788 11.7892 11.4707 11.8804 10.7598H13.603Z" fill="#FF7B54"/>
</svg>
