<svg width="18" height="18" viewBox="0 0 18 18" fill="none" xmlns="http://www.w3.org/2000/svg">
  <path d="M8.17383 5.09766H9.21094V6.1875C9.21094 6.36198 9.37044 6.50391 9.54492 6.50391H10.4238C10.5983 6.50391 10.7227 6.36198 10.7227 6.1875V5.09766H11.7246C11.8991 5.09766 12.0234 4.95573 12.0234 4.78125V3.9375C12.0234 3.76302 11.8991 3.62109 11.7246 3.62109H10.7227V2.63672C10.7227 2.46224 10.5983 2.32031 10.4238 2.32031H9.54492C9.37044 2.32031 9.21094 2.46224 9.21094 2.63672V3.62109H8.17383C7.99935 3.62109 7.83984 3.76302 7.83984 3.9375V4.78125C7.83984 4.95573 7.99935 5.09766 8.17383 5.09766ZM8.33203 4.11328H9.4043C9.57878 4.11328 9.70312 3.97136 9.70312 3.79688V2.8125H10.2305V3.79688C10.2305 3.97136 10.39 4.11328 10.5645 4.11328H11.5312V4.60547H10.5645C10.39 4.60547 10.2305 4.74739 10.2305 4.92188V6.01172H9.70312V4.92188C9.70312 4.74739 9.57878 4.60547 9.4043 4.60547H8.33203V4.11328Z" fill="#003761" />
  <path d="M13.6582 2.28516H13.6578C13.6481 1.85327 13.4699 1.44231 13.1612 1.14011C12.8525 0.837912 12.4379 0.668457 12.0059 0.667969H5.38151C5.3202 0.667967 5.2611 0.690846 5.21578 0.732129L2.76103 2.95988C2.73454 2.98251 2.71296 3.01033 2.69762 3.04162C2.68229 3.0729 2.67353 3.107 2.67188 3.14181V14.0625C2.67188 14.9736 3.43069 15.7148 4.3418 15.7148H4.37734C4.38702 16.1467 4.56525 16.5577 4.87395 16.8599C5.18264 17.1621 5.59731 17.3315 6.0293 17.332H13.6582C13.8742 17.3314 14.088 17.2882 14.2872 17.2047C14.4864 17.1213 14.6672 16.9992 14.8191 16.8457C14.971 16.6921 15.0911 16.5101 15.1724 16.31C15.2537 16.1099 15.2947 15.8957 15.293 15.6797V3.9375C15.2947 3.72151 15.2537 3.50731 15.1724 3.3072C15.0911 3.1071 14.971 2.92504 14.8191 2.7715C14.6672 2.61795 14.4864 2.49594 14.2872 2.41247C14.088 2.32901 13.8742 2.28574 13.6582 2.28516ZM5.13281 1.45744V2.53125C5.13281 2.78325 4.94536 2.98828 4.69336 2.98828H3.46957L5.13281 1.45744ZM4.3418 15.2227C3.70195 15.2227 3.16406 14.7023 3.16406 14.0625V3.48047H4.69336C5.21677 3.48047 5.625 3.05466 5.625 2.53125V1.16016H12.0059C12.6457 1.16016 13.1484 1.68047 13.1484 2.32031V14.0625C13.1484 14.7023 12.6457 15.2227 12.0059 15.2227H4.3418ZM14.8008 15.6797C14.8008 16.3195 14.298 16.8398 13.6582 16.8398H6.0293C5.7278 16.8395 5.43825 16.7219 5.22185 16.512C5.00545 16.302 4.87916 16.0162 4.86967 15.7148H12.0059C12.2219 15.7143 12.4356 15.671 12.6348 15.5875C12.8341 15.5041 13.0148 15.3821 13.1667 15.2285C13.3186 15.075 13.4387 14.8929 13.52 14.6928C13.6014 14.4927 13.6423 14.2785 13.6406 14.0625V2.77734C14.3086 2.77734 14.8008 3.29766 14.8008 3.9375V15.6797Z" fill="#003761" />
  <path d="M4.55273 7.03125H7.01367C7.07894 7.03125 7.14154 7.00532 7.18769 6.95917C7.23384 6.91302 7.25977 6.85042 7.25977 6.78516C7.25977 6.71989 7.23384 6.65729 7.18769 6.61114C7.14154 6.56499 7.07894 6.53906 7.01367 6.53906H4.55273C4.48747 6.53906 4.42487 6.56499 4.37872 6.61114C4.33257 6.65729 4.30664 6.71989 4.30664 6.78516C4.30664 6.85042 4.33257 6.91302 4.37872 6.95917C4.42487 7.00532 4.48747 7.03125 4.55273 7.03125Z" fill="#003761" />
  <path d="M4.55273 8.75391H8.2793C8.34456 8.75391 8.40716 8.72798 8.45331 8.68183C8.49946 8.63568 8.52539 8.57308 8.52539 8.50781C8.52539 8.44254 8.49946 8.37995 8.45331 8.3338C8.40716 8.28765 8.34456 8.26172 8.2793 8.26172H4.55273C4.48747 8.26172 4.42487 8.28765 4.37872 8.3338C4.33257 8.37995 4.30664 8.44254 4.30664 8.50781C4.30664 8.57308 4.33257 8.63568 4.37872 8.68183C4.42487 8.72798 4.48747 8.75391 4.55273 8.75391Z" fill="#003761" />
  <path d="M4.55273 10.4766H8.2793C8.34456 10.4766 8.40716 10.4506 8.45331 10.4045C8.49946 10.3583 8.52539 10.2957 8.52539 10.2305C8.52539 10.1652 8.49946 10.1026 8.45331 10.0565C8.40716 10.0103 8.34456 9.98438 8.2793 9.98438H4.55273C4.48747 9.98438 4.42487 10.0103 4.37872 10.0565C4.33257 10.1026 4.30664 10.1652 4.30664 10.2305C4.30664 10.2957 4.33257 10.3583 4.37872 10.4045C4.42487 10.4506 4.48747 10.4766 4.55273 10.4766Z" fill="#003761" />
  <path d="M4.55273 12.1992H10.4238C10.4891 12.1992 10.5517 12.1733 10.5978 12.1271C10.644 12.081 10.6699 12.0184 10.6699 11.9531C10.6699 11.8879 10.644 11.8253 10.5978 11.7791C10.5517 11.733 10.4891 11.707 10.4238 11.707H4.55273C4.48747 11.707 4.42487 11.733 4.37872 11.7791C4.33257 11.8253 4.30664 11.8879 4.30664 11.9531C4.30664 12.0184 4.33257 12.081 4.37872 12.1271C4.42487 12.1733 4.48747 12.1992 4.55273 12.1992Z" fill="#003761" />
  <path d="M12.1816 13.6758C12.1816 13.6105 12.1557 13.5479 12.1096 13.5018C12.0634 13.4556 12.0008 13.4297 11.9355 13.4297H4.55273C4.48747 13.4297 4.42487 13.4556 4.37872 13.5018C4.33257 13.5479 4.30664 13.6105 4.30664 13.6758C4.30664 13.741 4.33257 13.8036 4.37872 13.8498C4.42487 13.8959 4.48747 13.9219 4.55273 13.9219H11.9355C12.0008 13.9219 12.0634 13.8959 12.1096 13.8498C12.1557 13.8036 12.1816 13.741 12.1816 13.6758Z" fill="#003761" />
</svg>