<svg width="18" height="18" viewBox="0 0 18 18" fill="none" xmlns="http://www.w3.org/2000/svg">
<path d="M14.2711 2.35833H12.6427V1.62983C12.6427 1.39413 12.3856 1.28701 12.1499 1.28701H10.8857C10.5857 0.429927 9.83579 0.00138736 8.97871 0.00138736C8.13106 -0.0304793 7.36007 0.489272 7.07171 1.28701H5.82895C5.59325 1.28701 5.35755 1.39413 5.35755 1.62983V2.35833H3.72907C2.76405 2.36863 1.97456 3.1299 1.9292 4.0939V16.3715C1.9292 17.3143 2.78628 18 3.72907 18H14.2711C15.2139 18 16.071 17.3143 16.071 16.3715V4.09394C16.0256 3.1299 15.2361 2.36863 14.2711 2.35833ZM6.21459 2.14408H7.39308C7.5988 2.11898 7.76404 1.96248 7.80021 1.7584C7.92711 1.2058 8.41192 0.809128 8.97871 0.794199C9.54025 0.811219 10.0178 1.20912 10.1358 1.7584C10.1742 1.96953 10.3503 2.12805 10.5643 2.14408H11.7856V3.85824H6.21459V2.14408ZM15.2139 16.3716C15.2139 16.8429 14.7425 17.1429 14.2711 17.1429H3.72907C3.25767 17.1429 2.78628 16.8429 2.78628 16.3716V4.09394C2.83 3.60327 3.23651 3.22443 3.72907 3.21545H5.35751V4.30823C5.38015 4.54832 5.58808 4.72791 5.82891 4.71536H12.1498C12.3951 4.72877 12.6095 4.55164 12.6426 4.30823V3.21541H14.2711C14.7636 3.22443 15.1702 3.60322 15.2139 4.0939V16.3716H15.2139Z" fill="#003761"/>
<path d="M7.35021 9.57928C7.18948 9.40986 6.92265 9.4003 6.75024 9.55787L5.3789 10.8649L4.80038 10.2649C4.63965 10.0955 4.37283 10.086 4.20041 10.2435C4.03443 10.4174 4.03443 10.691 4.20041 10.8649L5.0789 11.7648C5.15493 11.85 5.26477 11.8971 5.37886 11.8934C5.49189 11.8918 5.59972 11.8456 5.67883 11.7648L7.35013 10.1793C7.51582 10.0273 7.52689 9.7697 7.37486 9.60405C7.36706 9.5954 7.35882 9.58715 7.35021 9.57928Z" fill="#003761"/>
<path d="M13.4998 10.5006H8.57161C8.33492 10.5006 8.14307 10.6925 8.14307 10.9291C8.14307 11.1658 8.33492 11.3577 8.57161 11.3577H13.4998C13.7365 11.3577 13.9283 11.1658 13.9283 10.9291C13.9283 10.6925 13.7365 10.5006 13.4998 10.5006Z" fill="#003761"/>
<path d="M7.35021 6.15094C7.18948 5.98151 6.92265 5.97196 6.75024 6.12953L5.3789 7.43655L4.80038 6.83658C4.63965 6.66716 4.37283 6.6576 4.20041 6.81517C4.03443 6.98907 4.03443 7.26266 4.20041 7.43655L5.0789 8.33649C5.15493 8.42163 5.26477 8.46871 5.37886 8.46506C5.49189 8.46346 5.59972 8.41724 5.67883 8.33649L7.35013 6.75091C7.51582 6.59891 7.52689 6.34136 7.37486 6.17571C7.36706 6.16705 7.35882 6.15881 7.35021 6.15094Z" fill="#003761"/>
<path d="M13.4998 7.07227H8.57161C8.33492 7.07227 8.14307 7.26412 8.14307 7.50081C8.14307 7.73749 8.33492 7.92934 8.57161 7.92934H13.4998C13.7365 7.92934 13.9283 7.73749 13.9283 7.50081C13.9283 7.26412 13.7365 7.07227 13.4998 7.07227Z" fill="#003761"/>
<path d="M7.35021 13.0075C7.18948 12.8381 6.92265 12.8285 6.75024 12.9861L5.3789 14.2931L4.80038 13.6931C4.63965 13.5237 4.37283 13.5142 4.20041 13.6717C4.03443 13.8456 4.03443 14.1192 4.20041 14.2931L5.0789 15.193C5.15493 15.2782 5.26477 15.3253 5.37886 15.3216C5.49189 15.32 5.59972 15.2738 5.67883 15.193L7.35013 13.6075C7.51582 13.4555 7.52689 13.1979 7.37486 13.0323C7.36706 13.0236 7.35882 13.0154 7.35021 13.0075Z" fill="#003761"/>
<path d="M13.4998 13.9288H8.57161C8.33492 13.9288 8.14307 14.1207 8.14307 14.3574C8.14307 14.5941 8.33492 14.7859 8.57161 14.7859H13.4998C13.7365 14.7859 13.9283 14.5941 13.9283 14.3574C13.9283 14.1207 13.7365 13.9288 13.4998 13.9288Z" fill="#003761"/>
</svg>
