<svg width="14" height="14" viewBox="0 0 14 14" fill="none" xmlns="http://www.w3.org/2000/svg">
    <path d="M12.6138 6.70975C12.6138 3.61296 10.0951 1.09128 6.99533 1.09128C3.89561 1.09128 1.37695 3.60994 1.37695 6.70975C1.379 8.81044 2.55157 10.735 4.41739 11.7001L3.09874 13.0188C3.04014 13.0772 3.00733 13.1564 3.00733 13.2391C3.00733 13.3217 3.04014 13.401 3.09874 13.4594C3.15733 13.5185 3.23741 13.5511 3.32051 13.5499C3.40342 13.5497 3.48301 13.5171 3.54249 13.4594L5.0298 11.9719C5.65851 12.207 6.32414 12.3277 6.99533 12.3282C7.66672 12.3292 8.33254 12.2086 8.96086 11.9719L10.4483 13.4594C10.5069 13.5185 10.5869 13.5511 10.67 13.5499C10.7531 13.5497 10.8325 13.5171 10.892 13.4594C10.9505 13.401 10.9834 13.3217 10.9834 13.2391C10.9834 13.1564 10.9505 13.0772 10.892 13.0188L9.57336 11.7001C11.3763 10.7626 12.6138 8.87831 12.6138 6.70975ZM6.99533 11.7001C4.24239 11.7001 2.00186 9.45956 2.00186 6.70663C2.00186 3.95369 4.24239 1.71628 6.99533 1.71628C9.74827 1.71628 11.9889 3.95672 11.9889 6.70975C11.9889 9.46279 9.74827 11.7001 6.99533 11.7001Z" fill="#003761" />
    <path d="M9.38859 7.86276L7.30752 6.72857V3.65054C7.30752 3.47798 7.16768 3.33813 6.99502 3.33813C6.82246 3.33813 6.68262 3.47798 6.68262 3.65054V6.91598C6.68262 7.03043 6.74482 7.1357 6.84502 7.19088L9.08868 8.41588C9.13497 8.4403 9.18634 8.45319 9.23868 8.45338C9.38234 8.45329 9.50773 8.35563 9.54318 8.21637C9.57853 8.07711 9.51495 7.93151 9.38859 7.86276Z" fill="#003761" />
</svg>