<svg width="20" height="20" viewBox="0 0 20 20" fill="none" xmlns="http://www.w3.org/2000/svg">
    <path d="M18.0194 9.58498C18.0194 5.161 14.4214 1.55859 9.99305 1.55859C5.56488 1.55859 1.9668 5.15668 1.9668 9.58498C1.96973 12.586 3.64482 15.3353 6.31028 16.714L4.42649 18.5978C4.34278 18.6813 4.29591 18.7945 4.29591 18.9126C4.29591 19.0306 4.34278 19.1439 4.42649 19.2273C4.51019 19.3117 4.62459 19.3583 4.74331 19.3566C4.86176 19.3564 4.97546 19.3098 5.06042 19.2273L7.18514 17.1023C8.08331 17.4382 9.0342 17.6107 9.99305 17.6114C10.9522 17.6128 11.9034 17.4405 12.801 17.1023L14.9258 19.2273C15.0095 19.3117 15.1239 19.3583 15.2426 19.3566C15.3612 19.3564 15.4748 19.3098 15.5598 19.2273C15.6433 19.1439 15.6903 19.0306 15.6903 18.9126C15.6903 18.7945 15.6433 18.6813 15.5598 18.5978L13.676 16.714C16.2516 15.3748 18.0194 12.6829 18.0194 9.58498ZM9.99305 16.714C6.06028 16.714 2.85952 13.5133 2.85952 9.58052C2.85952 5.64775 6.06028 2.45145 9.99305 2.45145C13.9258 2.45145 17.1267 5.65208 17.1267 9.58498C17.1267 13.5179 13.9258 16.714 9.99305 16.714Z" fill="#003761"/>
    <path d="M13.4125 11.2323L10.4396 9.61204V5.21484C10.4396 4.96833 10.2398 4.76855 9.99317 4.76855C9.74665 4.76855 9.54688 4.96833 9.54688 5.21484V9.87976C9.54688 10.0433 9.63574 10.1937 9.77888 10.2725L12.9841 12.0225C13.0502 12.0574 13.1236 12.0758 13.1984 12.0761C13.4036 12.0759 13.5827 11.9364 13.6334 11.7375C13.6839 11.5385 13.5931 11.3305 13.4125 11.2323Z" fill="#003761"/>
</svg>
