<svg width="10" height="10" viewBox="0 0 10 10" fill="none" xmlns="http://www.w3.org/2000/svg">
<path d="M6.77874 5.88307L5.38447 4.83737V2.70725C5.38447 2.49307 5.21134 2.31995 4.99717 2.31995C4.78299 2.31995 4.60986 2.49307 4.60986 2.70725V5.03104C4.60986 5.15303 4.66719 5.26807 4.76478 5.34089L6.31396 6.50278C6.38366 6.55507 6.46501 6.58024 6.54595 6.58024C6.66407 6.58024 6.78026 6.52718 6.85618 6.42493C6.9848 6.25411 6.94993 6.01128 6.77874 5.88307Z" fill="#B0A8A8"/>
<path d="M5 0C2.24283 0 0 2.24283 0 5C0 7.75717 2.24283 10 5 10C7.75717 10 10 7.75717 10 5C10 2.24283 7.75717 0 5 0ZM5 9.22541C2.67041 9.22541 0.77459 7.32959 0.77459 5C0.77459 2.67041 2.67041 0.77459 5 0.77459C7.32998 0.77459 9.22541 2.67041 9.22541 5C9.22541 7.32959 7.32959 9.22541 5 9.22541Z" fill="#B0A8A8"/>
</svg>
