<svg width="14" height="14" viewBox="0 0 14 14" fill="none" xmlns="http://www.w3.org/2000/svg">
<path d="M12.7143 0.142488C12.4218 0.142488 12.1293 0.25406 11.9062 0.477448L0.477722 11.9059C0.0311889 12.3524 0.0311889 13.0756 0.477722 13.5219C0.924011 13.9682 1.6474 13.9684 2.09369 13.5219L13.5222 2.09342C13.9687 1.64688 13.9687 0.923738 13.5222 0.477448C13.299 0.25406 13.0068 0.142488 12.7143 0.142488Z" fill="#ACACAC"/>
<path d="M1.28558 0.142637C0.993103 0.142637 0.700867 0.25421 0.477722 0.477598C0.0311889 0.923887 0.0311889 1.64728 0.477722 2.09357L11.9062 13.522C12.3527 13.9686 13.0759 13.9686 13.5222 13.522C13.9684 13.0757 13.9687 12.3524 13.5222 11.9061L2.09369 0.477598C1.87054 0.25421 1.57806 0.142637 1.28558 0.142637Z" fill="#ACACAC"/>
</svg>
