<svg width="26" height="26" viewBox="0 0 26 26" fill="none" xmlns="http://www.w3.org/2000/svg">
<path d="M7.48987 3.39219H2.31379C1.98336 3.39312 1.71564 3.66084 1.71471 3.99127V21.9638C1.71564 22.2942 1.98336 22.5619 2.31379 22.5629H7.48987C7.82049 22.5619 8.08783 22.2942 8.08895 21.9638V3.99127C8.08783 3.66084 7.82049 3.39312 7.48987 3.39219ZM6.89079 21.3647H2.91287V4.59035H6.89079V21.3647Z" fill="#003761"/>
<path d="M15.5902 3.39219H10.4081C10.0777 3.39313 9.80994 3.66084 9.80901 3.99127V21.9638C9.80994 22.2942 10.0777 22.5619 10.4081 22.5629H15.5844C15.9148 22.5619 16.1825 22.2942 16.1834 21.9638V3.99127C16.1853 3.83289 16.1235 3.68031 16.0121 3.5678C15.9007 3.45509 15.7487 3.392 15.5902 3.39219ZM14.9911 21.3647H11.0072V4.59036H14.9853V21.3647H14.9911Z" fill="#003761"/>
<path d="M23.9812 3.39219H18.7991C18.4686 3.39313 18.2009 3.66084 18.2 3.99127V21.9638C18.2009 22.2942 18.4686 22.5619 18.7991 22.5629H23.9753C24.3058 22.5619 24.5735 22.2942 24.5744 21.9638V3.99127C24.5763 3.83289 24.5145 3.68031 24.4031 3.5678C24.2917 3.45509 24.1397 3.392 23.9812 3.39219ZM23.3821 21.3647H19.3982V4.59036H23.3763V21.3647H23.3821Z" fill="#003761"/>
</svg>
