<svg width="26" height="26" viewBox="0 0 26 26" fill="none" xmlns="http://www.w3.org/2000/svg">
<g clip-path="url(#clip0)">
<path d="M6.73128 6.42764L6.0927 6.8573C3.7917 8.4055 2.90148 11.3322 3.976 13.8165L4.55238 15.1489C5.34654 16.9889 6.47478 18.6658 7.88009 20.0946L8.89712 21.1305C10.7934 23.0619 13.84 23.3397 16.141 21.7915L16.7796 21.3619C17.0944 21.1553 17.1822 20.7328 16.9757 20.4178C16.9728 20.4134 16.9695 20.4086 16.9665 20.404L15.3013 17.9292C15.0887 17.6132 14.6845 17.5414 14.3572 17.7616L12.7995 18.8097C12.1914 19.2161 11.3823 19.1431 10.8567 18.6344C10.8555 18.6334 10.851 18.6271 10.85 18.626C9.20774 17.0151 7.91035 15.0868 7.03695 12.9588C7.03619 12.9573 7.02784 12.9445 7.02737 12.9431C6.75389 12.2645 6.99052 11.4871 7.59592 11.076L9.15365 10.0278C9.48092 9.80765 9.56668 9.40617 9.35406 9.09018L7.68892 6.61538C7.48258 6.30046 7.06003 6.21224 6.745 6.41841C6.74048 6.42145 6.73579 6.4246 6.73128 6.42764L6.73128 6.42764Z" fill="#003761"/>
<path d="M13.1308 3.63174C13.0934 3.83551 13.2283 4.03076 13.432 4.0682C16.1465 4.56575 18.4793 6.08538 20.0009 8.3468C21.5224 10.6082 22.0511 13.3417 21.4896 16.0437C21.4455 16.2457 21.573 16.4454 21.7749 16.4899C21.9768 16.5346 22.1768 16.4074 22.2218 16.2056L22.2238 16.1962C22.8269 13.2949 22.2585 10.3586 20.6231 7.92812C18.9878 5.4976 16.482 3.86482 13.5672 3.33051C13.3635 3.29308 13.1682 3.42798 13.1308 3.63174V3.63174Z" fill="#003761"/>
<path d="M12.8579 6.74321C12.6541 6.70577 12.4587 6.84079 12.4214 7.04444C12.384 7.2482 12.5189 7.44345 12.7227 7.48089C16.3381 8.12418 18.7475 11.5762 18.1045 15.1917C18.0912 15.2664 18.0767 15.3408 18.0609 15.4147C18.0187 15.6174 18.1488 15.8161 18.3517 15.8582C18.5544 15.9004 18.7531 15.7702 18.7951 15.5674C19.6459 11.5705 17.0953 7.64067 13.0984 6.78995C13.0185 6.77311 12.9385 6.75761 12.8579 6.74321V6.74321Z" fill="#003761"/>
<path d="M11.6448 10.7802C11.6073 10.984 11.7424 11.1794 11.9461 11.2168C13.5452 11.5006 14.6114 13.027 14.3276 14.6261C14.3216 14.66 14.315 14.6934 14.3079 14.7269C14.2657 14.9296 14.3958 15.1283 14.5987 15.1704C14.8015 15.2125 15.0001 15.0824 15.0421 14.8796C15.466 12.8858 14.1932 10.9259 12.1995 10.5021C12.1601 10.4938 12.1209 10.4861 12.0812 10.479C11.8776 10.4417 11.6821 10.5766 11.6448 10.7802Z" fill="#003761"/>
</g>
<defs>
<clipPath id="clip0">
<rect width="18" height="18" fill="white" transform="translate(0.82959 10.3984) rotate(-33.9342)"/>
</clipPath>
</defs>
</svg>
