<svg width="35" height="35" viewBox="0 0 35 35" fill="none" xmlns="http://www.w3.org/2000/svg">
<g clip-path="url(#clip0)">
<path d="M9.63974 7.53593L8.69505 8.03622C5.29104 9.83894 3.63451 13.7515 4.75622 17.3396L5.35796 19.2639C6.18643 21.9213 7.50015 24.4019 9.23273 26.5805L10.4864 28.1596C12.8237 31.1038 16.9912 31.932 20.3953 30.1293L21.34 29.629C21.8049 29.3897 21.9877 28.819 21.7485 28.3536C21.7451 28.3472 21.7413 28.34 21.7378 28.3333L19.7989 24.6722C19.5513 24.2048 19.0035 24.0466 18.5194 24.303L16.2149 25.5234C15.3157 25.996 14.2089 25.7771 13.5571 24.9978C13.5556 24.9963 13.5503 24.9869 13.5491 24.9852C11.5157 22.5206 10.0051 19.6681 9.10916 16.6014C9.10833 16.5992 9.09865 16.5804 9.09822 16.5783C8.81949 15.6011 9.25972 14.5619 10.1559 14.0823L12.4603 12.8619C12.9445 12.6055 13.1215 12.0635 12.8739 11.5961L10.9351 7.93494C10.696 7.46987 10.1252 7.28638 9.66003 7.52518C9.65335 7.52872 9.64642 7.53239 9.63974 7.53593L9.63974 7.53593Z" fill="#656464"/>
<path d="M18.8869 4.60805C18.8055 4.88403 18.9633 5.17339 19.2393 5.25482C22.916 6.33805 25.9163 8.77729 27.688 12.1227C29.4597 15.4682 29.7911 19.3208 28.6215 22.971C28.531 23.2435 28.6781 23.5379 28.9505 23.6288C29.2228 23.7201 29.5175 23.5735 29.6092 23.3014L29.6133 23.2887C30.8696 19.3693 30.5127 15.2309 28.6085 11.6352C26.7044 8.03961 23.4816 5.41887 19.5337 4.25566C19.2577 4.17423 18.9683 4.33207 18.8869 4.60805Z" fill="#656464"/>
<path d="M18.0559 8.86563C17.7799 8.7842 17.4903 8.94218 17.4091 9.21802C17.3277 9.494 17.4855 9.78336 17.7615 9.8648C22.6612 11.2807 25.4855 16.4002 24.07 21.3C24.0408 21.4013 24.0098 21.5019 23.9772 21.6018C23.8894 21.8755 24.0401 22.169 24.3142 22.2567C24.588 22.3445 24.8814 22.1938 24.9691 21.9197C26.7272 16.5234 23.7776 10.7234 18.3813 8.96528C18.2733 8.93036 18.165 8.89727 18.0559 8.86563Z" fill="#656464"/>
<path d="M15.7916 14.2646C15.7102 14.5405 15.8682 14.8302 16.1441 14.9116C18.3114 15.5368 19.5613 17.8007 18.936 19.968C18.9228 20.0138 18.9089 20.059 18.8941 20.1043C18.8063 20.3781 18.957 20.6715 19.2311 20.7592C19.5051 20.8469 19.7983 20.6963 19.886 20.4222C20.7623 17.7303 19.2902 14.8376 16.5983 13.9613C16.5451 13.9441 16.4921 13.9278 16.4384 13.9122C16.1625 13.831 15.8728 13.9887 15.7916 14.2646Z" fill="#656464"/>
</g>
<defs>
<clipPath id="clip0">
<rect width="25" height="25" fill="white" transform="translate(0.908936 12.1597) rotate(-27.9051)"/>
</clipPath>
</defs>
</svg>
