<svg width="30" height="30" viewBox="0 0 30 30" fill="none" xmlns="http://www.w3.org/2000/svg">
<path d="M29.7425 16.2613L25.0355 11.5543C24.8707 11.3895 24.6472 11.2969 24.4141 11.2969H20.0711L17.6178 8.84361C19.1897 8.09842 20.2797 6.49664 20.2797 4.64455C20.2796 2.08354 18.1962 0 15.6352 0C13.8248 0 12.2541 1.04186 11.4882 2.5568C10.942 2.13475 10.2581 1.88279 9.51603 1.88279C8.23512 1.88279 7.12582 2.63174 6.60305 3.71473C6.24527 3.5451 5.84561 3.44977 5.42408 3.44977C3.93381 3.44977 2.71623 4.63652 2.66484 6.11449C1.18682 6.16588 0 7.38346 0 8.87379C0 10.0893 0.789785 11.1233 1.88285 11.4913V23.9433C1.88285 27.283 4.59984 30 7.93945 30C11.2791 30 13.9961 27.283 13.9961 23.9433V19.0297C15.6612 16.4666 16.6176 13.5422 16.7912 10.5029L18.8281 12.5398V16.8829C18.8281 17.116 18.9207 17.3395 19.0856 17.5043L23.7926 22.2113C24.1359 22.5546 24.6927 22.5543 25.0356 22.2113L29.7426 17.5043C30.0858 17.1611 30.0858 16.6046 29.7425 16.2613V16.2613ZM15.6352 1.75781C17.2269 1.75781 18.5219 3.05279 18.5219 4.64455C18.5219 6.23631 17.2269 7.53129 15.6352 7.53129C14.0434 7.53129 12.7484 6.23631 12.7484 4.64455C12.7484 3.05279 14.0434 1.75781 15.6352 1.75781V1.75781ZM9.51603 3.64061C10.3291 3.64061 10.9906 4.30213 10.9906 5.11523C10.9906 5.92834 10.3291 6.58986 9.51603 6.58986C8.70293 6.58986 8.04141 5.92834 8.04141 5.11523C8.04141 4.30213 8.70293 3.64061 9.51603 3.64061V3.64061ZM5.42402 5.20764C5.97756 5.20764 6.42797 5.65799 6.42797 6.21152C6.42797 6.76506 5.97756 7.21541 5.42402 7.21541C4.87049 7.21541 4.42014 6.76506 4.42014 6.21152C4.42014 5.65799 4.87049 5.20764 5.42402 5.20764ZM2.76176 7.8699C3.31529 7.8699 3.76564 8.32025 3.76564 8.87385C3.76564 9.42738 3.31529 9.87773 2.76176 9.87773C2.20822 9.87773 1.75781 9.42738 1.75781 8.87379C1.75781 8.32025 2.20822 7.8699 2.76176 7.8699V7.8699ZM12.3875 18.2756C12.2902 18.4205 12.2382 18.5911 12.2382 18.7656V23.9434C12.2382 26.3138 10.3098 28.2422 7.93945 28.2422C5.5691 28.2422 3.64066 26.3138 3.64066 23.9434V11.4913C4.70449 11.1331 5.48021 10.144 5.521 8.97076C6.42029 8.93953 7.21137 8.47664 7.6933 7.78295C8.21262 8.13891 8.84033 8.34768 9.51609 8.34768C10.4365 8.34768 11.2678 7.96031 11.857 7.34074C12.5951 8.37205 13.7437 9.08947 15.0625 9.25248V9.49418C15.0625 12.6333 14.1375 15.6699 12.3875 18.2756V18.2756ZM24.4141 20.3469L20.5859 16.5188V13.0547H24.05L27.8781 16.8828L24.4141 20.3469Z" fill="#ED7172"/>
</svg>
