<svg width="19" height="19" viewBox="0 0 19 19" fill="none" xmlns="http://www.w3.org/2000/svg">
<circle cx="9.5" cy="9.5" r="9" fill="white" stroke="#F40505"/>
<path d="M10.4912 9.50068L13.8562 6.13556C13.9488 6.04293 13.9999 5.91934 14 5.78756C14 5.65571 13.9489 5.53198 13.8562 5.43949L13.5613 5.14468C13.4686 5.05183 13.345 5.00098 13.2131 5.00098C13.0814 5.00098 12.9578 5.05183 12.8651 5.14468L9.50015 8.50959L6.13502 5.14468C6.04246 5.05183 5.9188 5.00098 5.78695 5.00098C5.65524 5.00098 5.53159 5.05183 5.43902 5.14468L5.144 5.43949C4.952 5.63149 4.952 5.94378 5.144 6.13556L8.50905 9.50068L5.144 12.8657C5.05137 12.9584 5.00037 13.082 5.00037 13.2138C5.00037 13.3456 5.05137 13.4692 5.144 13.5619L5.43895 13.8567C5.53151 13.9495 5.65524 14.0004 5.78688 14.0004C5.91873 14.0004 6.04239 13.9495 6.13495 13.8567L9.50007 10.4917L12.865 13.8567C12.9578 13.9495 13.0813 14.0004 13.213 14.0004H13.2132C13.345 14.0004 13.4686 13.9495 13.5613 13.8567L13.8561 13.5619C13.9487 13.4692 13.9998 13.3456 13.9998 13.2138C13.9998 13.082 13.9487 12.9584 13.8561 12.8657L10.4912 9.50068Z" fill="#F40505"/>
</svg>
