<svg width="18" height="14" viewBox="0 0 18 14" fill="none" xmlns="http://www.w3.org/2000/svg">
<path d="M17.1 3.39999H16.5V2.79999C16.5 2.30293 16.0971 1.89999 15.6 1.89999H15V1.29999C15 0.802931 14.5971 0.399994 14.1 0.399994H2.7C2.6943 0.399994 2.6889 0.402694 2.6832 0.402994C2.65999 0.404494 2.63704 0.408731 2.6148 0.415594C2.60535 0.417806 2.59605 0.420507 2.5869 0.423694C2.55608 0.435657 2.5275 0.452719 2.5023 0.474094L0.1023 2.57409C0.074175 2.59948 0.05115 2.63004 0.0345 2.66409C0.030225 2.67309 0.0264 2.68228 0.0231 2.69169C0.012 2.72049 0.0054375 2.75087 0.0036 2.78169C0.0036 2.78739 0 2.79249 0 2.79819V9.69999C0 10.1971 0.402938 10.6 0.9 10.6H1.5V11.2C1.5 11.6971 1.90294 12.1 2.4 12.1H3V12.7C3 13.1971 3.40294 13.6 3.9 13.6H17.1C17.5971 13.6 18 13.1971 18 12.7V4.29999C18 3.80293 17.5971 3.39999 17.1 3.39999ZM2.4 1.35999V2.19999C2.4 2.36567 2.26568 2.49999 2.1 2.49999H1.0986L2.4 1.35999ZM0.9 9.99999C0.734325 9.99999 0.6 9.86567 0.6 9.69999V3.09999H2.1C2.59706 3.09999 3 2.69706 3 2.19999V0.999994H14.1C14.2657 0.999994 14.4 1.13432 14.4 1.29999V9.69999C14.4 9.86567 14.2657 9.99999 14.1 9.99999H0.9ZM2.4 11.5C2.23433 11.5 2.1 11.3657 2.1 11.2V10.6H14.1C14.5971 10.6 15 10.1971 15 9.69999V2.49999H15.6C15.7657 2.49999 15.9 2.63432 15.9 2.79999V11.2C15.9 11.3657 15.7657 11.5 15.6 11.5H2.4ZM17.4 12.7C17.4 12.8657 17.2657 13 17.1 13H10.5H3.9C3.73433 13 3.6 12.8657 3.6 12.7V12.1H15.6C16.0971 12.1 16.5 11.6971 16.5 11.2V3.99999H17.1C17.2657 3.99999 17.4 4.13432 17.4 4.29999V12.7Z" fill="#B0A8A8"/>
<path d="M1.8002 9.10001H1.2002V9.70001H1.8002V9.10001Z" fill="#B0A8A8"/>
<path d="M3.00039 9.10001H2.40039V9.70001H3.00039V9.10001Z" fill="#B0A8A8"/>
<path d="M4.19961 9.10001H3.59961V9.70001H4.19961V9.10001Z" fill="#B0A8A8"/>
<path d="M5.3998 9.10001H4.7998V9.70001H5.3998V9.10001Z" fill="#B0A8A8"/>
<path d="M6.6 9.10001H6V9.70001H6.6V9.10001Z" fill="#B0A8A8"/>
<path d="M7.8002 9.10001H7.2002V9.70001H7.8002V9.10001Z" fill="#B0A8A8"/>
<path d="M9.00039 9.10001H8.40039V9.70001H9.00039V9.10001Z" fill="#B0A8A8"/>
<path d="M10.1996 9.10001H9.59961V9.70001H10.1996V9.10001Z" fill="#B0A8A8"/>
<path d="M11.3998 9.10001H10.7998V9.70001H11.3998V9.10001Z" fill="#B0A8A8"/>
<path d="M12.6 9.10001H12V9.70001H12.6V9.10001Z" fill="#B0A8A8"/>
<path d="M13.8002 9.10001H13.2002V9.70001H13.8002V9.10001Z" fill="#B0A8A8"/>
<path d="M8.39961 3.10001H3.59961V3.70001H8.39961V3.10001Z" fill="#B0A8A8"/>
<path d="M11.4 3.10001H9V3.70001H11.4V3.10001Z" fill="#B0A8A8"/>
<path d="M8.99961 4.29999H3.59961V4.89999H8.99961V4.29999Z" fill="#B0A8A8"/>
<path d="M11.3996 4.29999H9.59961V4.89999H11.3996V4.29999Z" fill="#B0A8A8"/>
<path d="M11.3996 5.5H3.59961V6.1H11.3996V5.5Z" fill="#B0A8A8"/>
<path d="M11.3996 6.69998H3.59961V7.29998H11.3996V6.69998Z" fill="#B0A8A8"/>
</svg>
