<svg width="18" height="14" viewBox="0 0 18 14" fill="none" xmlns="http://www.w3.org/2000/svg">
<path d="M13.3422 4.10335H2.68359L4.86429 1.92265C5.17126 1.61567 5.17126 1.11805 4.86429 0.811075C4.55723 0.504012 4.05969 0.5041 3.75263 0.811075L0.230231 4.33364C-0.0767438 4.64062 -0.0767438 5.13824 0.230231 5.44522L3.75263 8.96761C3.90616 9.12114 4.10729 9.19782 4.30841 9.19782C4.50954 9.19782 4.71067 9.12106 4.8642 8.96761C5.17118 8.66064 5.17118 8.16302 4.8642 7.85604L2.6835 5.67534H13.3421C15.0436 5.67534 16.4279 7.05965 16.4279 8.76116C16.4279 10.4627 15.0436 11.847 13.3421 11.847H6.85836C6.42423 11.847 6.07236 12.1988 6.07236 12.633C6.07236 13.0671 6.42423 13.419 6.85836 13.419H13.3421C15.9104 13.419 17.9999 11.3294 17.9999 8.76116C17.9999 6.19287 15.9105 4.10335 13.3422 4.10335Z" fill="#B0A8A8"/>
</svg>
