<svg width="18" height="18" viewBox="0 0 18 18" fill="none" xmlns="http://www.w3.org/2000/svg">
<path d="M8.87228 9.86624C8.67126 9.86681 8.50838 10.0297 8.50781 10.2307V14.6773C8.50781 14.8786 8.67114 15.0417 8.87228 15.0417C9.07354 15.0417 9.23676 14.8786 9.23676 14.6773V10.2307C9.23619 10.0297 9.07343 9.86681 8.87228 9.86624Z" fill="#B0A8A8"/>
<path d="M11.2053 9.86624C11.0043 9.86681 10.8414 10.0297 10.8408 10.2307V14.6773C10.8408 14.8786 11.0041 15.0417 11.2053 15.0417C11.4065 15.0417 11.5698 14.8786 11.5698 14.6773V10.2307C11.5692 10.0297 11.4064 9.86681 11.2053 9.86624Z" fill="#B0A8A8"/>
<path d="M6.53927 9.86624C6.33825 9.86681 6.17537 10.0297 6.1748 10.2307V14.6773C6.1748 14.8786 6.33813 15.0417 6.53927 15.0417C6.74053 15.0417 6.90374 14.8786 6.90374 14.6773V10.2307C6.90317 10.0297 6.74041 9.86681 6.53927 9.86624Z" fill="#B0A8A8"/>
<path d="M13.7417 2.42008H11.657V1.35947C11.6568 0.914584 11.2962 0.554099 10.8514 0.553986H6.89338C6.44849 0.554099 6.08801 0.914584 6.08778 1.35947V2.42372H4.00312C3.20083 2.42395 2.51596 3.00289 2.38248 3.7939C2.24888 4.58492 2.70595 5.3568 3.46359 5.62013C3.45641 5.64621 3.45277 5.67321 3.45266 5.70031V15.6066C3.45311 16.6129 4.26873 17.4285 5.27501 17.429H12.4733C13.4796 17.4285 14.2954 16.6129 14.2957 15.6066V5.70031C14.296 5.67321 14.2923 5.64621 14.2847 5.62013C15.0434 5.35589 15.5002 4.58253 15.3658 3.79049C15.2315 2.99845 14.545 2.41939 13.7417 2.42008ZM6.82048 1.35947C6.8206 1.31721 6.85476 1.28315 6.89691 1.28293H10.8552C10.8973 1.28315 10.9315 1.31721 10.9316 1.35947V2.42372H6.82048V1.35947ZM12.4698 16.7H5.27501C4.67193 16.6983 4.18342 16.2097 4.1816 15.6066V5.71125H13.5667V15.6066C13.5633 16.2104 13.0736 16.6987 12.4698 16.7ZM13.7417 4.98231H4.00312C3.49776 4.98231 3.08818 4.57273 3.08818 4.06748C3.08818 3.56224 3.49776 3.15266 4.00312 3.15266H13.7417C14.247 3.15266 14.6566 3.56224 14.6566 4.06748C14.6566 4.57273 14.247 4.98231 13.7417 4.98231Z" fill="#B0A8A8"/>
</svg>
