<svg width="19" height="18" viewBox="0 0 19 18" fill="none" xmlns="http://www.w3.org/2000/svg">
<path d="M16.5087 4.83947L11.7734 0.104203C11.7067 0.0374766 11.6162 0 11.5218 0H4.84941C4.0391 0 3.37988 0.659215 3.37988 1.46953V16.5305C3.37988 17.3408 4.0391 18 4.84941 18H15.1433C15.9536 18 16.6128 17.3408 16.6128 16.5305V5.09101C16.6128 4.99669 16.5754 4.90616 16.5087 4.83947ZM11.8776 1.21461L15.3983 4.7352H12.6356C12.2176 4.7352 11.8776 4.39516 11.8776 3.97716V1.21461H11.8776ZM15.9013 16.5305C15.9013 16.9484 15.5613 17.2885 15.1433 17.2885H4.84941C4.43144 17.2885 4.09138 16.9484 4.09138 16.5305V1.46953C4.09138 1.05156 4.43144 0.711492 4.84941 0.711492H11.1661V3.97723C11.1661 4.78754 11.8253 5.44676 12.6356 5.44676H15.9013V16.5305Z" fill="#B0A8A8"/>
<path d="M12.8424 9.03558H7.15067C6.95421 9.03558 6.79492 9.19488 6.79492 9.39133C6.79492 9.58778 6.95421 9.74708 7.15067 9.74708H12.8424C13.0389 9.74708 13.1981 9.58778 13.1981 9.39133C13.1981 9.19488 13.0389 9.03558 12.8424 9.03558Z" fill="#B0A8A8"/>
<path d="M12.8424 10.6245H7.15067C6.95421 10.6245 6.79492 10.7838 6.79492 10.9803C6.79492 11.1767 6.95421 11.336 7.15067 11.336H12.8424C13.0389 11.336 13.1981 11.1767 13.1981 10.9803C13.1981 10.7838 13.0389 10.6245 12.8424 10.6245Z" fill="#B0A8A8"/>
<path d="M12.8424 12.2134H7.15067C6.95421 12.2134 6.79492 12.3727 6.79492 12.5692C6.79492 12.7656 6.95421 12.9249 7.15067 12.9249H12.8424C13.0389 12.9249 13.1981 12.7656 13.1981 12.5692C13.1981 12.3727 13.0389 12.2134 12.8424 12.2134Z" fill="#B0A8A8"/>
<path d="M10.9926 13.8024H7.15067C6.95421 13.8024 6.79492 13.9617 6.79492 14.1581C6.79492 14.3546 6.95421 14.5139 7.15067 14.5139H10.9926C11.1891 14.5139 11.3483 14.3546 11.3483 14.1581C11.3483 13.9617 11.1891 13.8024 10.9926 13.8024Z" fill="#B0A8A8"/>
</svg>
