<svg width="21" height="18" viewBox="0 0 21 18" fill="none" xmlns="http://www.w3.org/2000/svg">
<rect x="0.5" y="0.5" width="20" height="17" rx="2.5" fill="#93329E" stroke="#93329E"/>
<path d="M7.90332 14H5.77734L5.79102 12.6396H7.90332C8.51855 12.6396 9.03353 12.5052 9.44824 12.2363C9.86751 11.9674 10.182 11.5824 10.3916 11.0811C10.6058 10.5798 10.7129 9.98275 10.7129 9.29004V8.75C10.7129 8.21224 10.6514 7.736 10.5283 7.32129C10.4098 6.90658 10.2321 6.55794 9.99512 6.27539C9.7627 5.99284 9.47559 5.77865 9.13379 5.63281C8.79655 5.48698 8.4069 5.41406 7.96484 5.41406H5.73633V4.04688H7.96484C8.62565 4.04688 9.22949 4.15853 9.77637 4.38184C10.3232 4.60059 10.7949 4.91732 11.1914 5.33203C11.5924 5.74674 11.9001 6.24349 12.1143 6.82227C12.3285 7.40104 12.4355 8.04818 12.4355 8.76367V9.29004C12.4355 10.0055 12.3285 10.6527 12.1143 11.2314C11.9001 11.8102 11.5924 12.307 11.1914 12.7217C10.7904 13.1318 10.3118 13.4486 9.75586 13.6719C9.20443 13.8906 8.58691 14 7.90332 14ZM6.72754 4.04688V14H5.01172V4.04688H6.72754ZM16.2702 4.04688V14H14.5544V4.04688H16.2702Z" fill="white"/>
</svg>
