<svg width="26" height="25" viewBox="0 0 26 25" fill="none" xmlns="http://www.w3.org/2000/svg">
<path d="M24.8264 5.24999H14.3693C14.0462 4.93246 13.6214 4.75829 13.1666 4.75829C12.7112 4.75829 12.2859 4.93285 11.9628 5.25106C11.9533 5.25033 11.9438 5.24999 11.9342 5.24999H1.50681C1.04353 5.24999 0.666626 5.62689 0.666626 6.09017V6.09754C0.666626 7.07484 1.46169 7.86985 2.43893 7.86985H2.5695C2.56486 7.90545 2.56247 7.94178 2.56247 7.97869V7.98607C2.56247 8.96336 3.35753 9.75837 4.33478 9.75837H4.4651C4.46061 9.79338 4.45831 9.82902 4.45831 9.86521V9.87258C4.45831 10.8498 5.25338 11.6449 6.23063 11.6449H10.5359C10.7381 11.6449 10.9021 11.4809 10.9021 11.2786C10.9021 11.0764 10.7381 10.9124 10.5359 10.9124H6.23063C5.65719 10.9124 5.19073 10.4459 5.19073 9.87258V9.86521C5.19073 9.81057 5.23155 9.76535 5.28434 9.75837H5.77247C5.78131 9.75837 5.79005 9.75808 5.79874 9.75744H6.81519C7.01744 9.75744 7.1814 9.59348 7.1814 9.39123C7.1814 9.18899 7.01744 9.02502 6.81519 9.02502H5.2986C5.28527 9.02502 5.27203 9.02531 5.2589 9.02595H4.33483C3.76144 9.02595 3.29494 8.55946 3.29494 7.98607V7.97869C3.29494 7.91927 3.34328 7.87092 3.4027 7.87092H10.0383C10.2405 7.87092 10.4045 7.70697 10.4045 7.50472C10.4045 7.30248 10.2405 7.13851 10.0383 7.13851H3.9046C3.89538 7.13783 3.88605 7.13749 3.87667 7.13749H2.43893C1.8655 7.13749 1.39904 6.67098 1.39904 6.09759V6.09022C1.39904 6.0308 1.44738 5.98246 1.50681 5.98246H11.519C11.4628 6.16918 11.4383 6.36649 11.4482 6.5681L11.5675 9.02508H8.09512C7.89288 9.02508 7.72891 9.18905 7.72891 9.39129C7.72891 9.59354 7.89288 9.7575 8.09512 9.7575H11.6031L11.892 15.7025H10.9863C10.0003 15.7025 9.1982 16.5071 9.1982 17.4962C9.1982 18.0005 9.41167 18.4843 9.78384 18.8237C9.93334 18.96 10.1649 18.9493 10.3012 18.7999C10.4375 18.6504 10.4268 18.4188 10.2774 18.2825C10.057 18.0816 9.93064 17.7949 9.93064 17.4962C9.93064 16.911 10.4042 16.4349 10.9863 16.4349H11.9275L12.0307 18.5575H11.9342C10.9482 18.5575 10.1461 19.3621 10.1461 20.3512C10.1461 21.11 10.625 21.7897 11.3378 22.0426C11.5283 22.1102 11.7377 22.0106 11.8053 21.8199C11.873 21.6293 11.7733 21.4199 11.5826 21.3523C11.1614 21.2028 10.8784 20.8006 10.8784 20.3512C10.8784 19.766 11.352 19.2899 11.9341 19.2899H12.0662L12.3036 24.1762C12.3262 24.638 12.7052 24.9999 13.1666 24.9999C13.6279 24.9999 14.007 24.638 14.0294 24.1761L14.2668 19.2899H15.3468C16.3328 19.2899 17.135 18.4852 17.135 17.4962C17.135 17.3891 17.1255 17.2819 17.1067 17.1775C17.0711 16.9784 16.8809 16.846 16.6816 16.8817C16.4826 16.9174 16.3501 17.1077 16.3858 17.3069C16.3969 17.3687 16.4025 17.4323 16.4025 17.4962C16.4025 18.0814 15.929 18.5574 15.3468 18.5574H14.3024L14.4055 16.4348H16.2474C17.2333 16.4348 18.0355 15.6302 18.0355 14.6411C18.0355 13.6521 17.2333 12.8474 16.2474 12.8474C16.0451 12.8474 15.8812 13.0114 15.8812 13.2136C15.8812 13.4159 16.0451 13.5799 16.2474 13.5799C16.8295 13.5799 17.3031 14.0559 17.3031 14.6411C17.3031 15.2263 16.8295 15.7024 16.2474 15.7024H14.4411L14.73 9.75744H18.5343C18.7366 9.75744 18.9005 9.59348 18.9005 9.39123C18.9005 9.18899 18.7366 9.02502 18.5343 9.02502H14.7655L14.8849 6.56805C14.8947 6.36639 14.8703 6.16913 14.8141 5.98236H24.8263C24.8857 5.98236 24.9341 6.0307 24.9341 6.09012V6.0975C24.9341 6.67093 24.4676 7.13739 23.8941 7.13739H22.8356C22.8262 7.13739 22.8168 7.13773 22.8077 7.13841H16.2C15.9977 7.13841 15.8338 7.30238 15.8338 7.50462C15.8338 7.70687 15.9977 7.87083 16.2 7.87083H22.9305C22.9899 7.87083 23.0382 7.91917 23.0382 7.9786V7.98597C23.0382 8.55941 22.5717 9.02586 21.9983 9.02586H21.0743C21.0611 9.02523 21.0478 9.02492 21.0346 9.02492H19.9326C19.7303 9.02492 19.5664 9.18889 19.5664 9.39113C19.5664 9.59338 19.7303 9.75734 19.9326 9.75734H19.9656C19.9743 9.75798 19.983 9.75828 19.9918 9.75828H21.0488C21.1015 9.76526 21.1424 9.81047 21.1424 9.86511V9.87249C21.1424 10.4458 20.6759 10.9123 20.1024 10.9123H15.7261C15.5238 10.9123 15.3599 11.0763 15.3599 11.2785C15.3599 11.4808 15.5238 11.6448 15.7261 11.6448H20.1024C21.0797 11.6448 21.8748 10.8497 21.8748 9.87249V9.86511C21.8748 9.82893 21.8725 9.79329 21.868 9.75828H21.9983C22.9756 9.75828 23.7707 8.96321 23.7707 7.98597V7.9786C23.7707 7.94173 23.7683 7.9054 23.7637 7.86976H23.8942C24.8715 7.86976 25.6666 7.07469 25.6666 6.09745V6.09007C25.6665 5.62689 25.2896 5.24999 24.8264 5.24999ZM13.2978 24.1407C13.2944 24.2118 13.2367 24.2674 13.1666 24.2674C13.0964 24.2674 13.0387 24.2117 13.0353 24.1406L12.7996 19.2899H13.5335L13.2978 24.1407ZM13.5691 18.5574H12.764L12.6608 16.4348H13.6722L13.5691 18.5574ZM13.7079 15.7025H12.6253L12.1797 6.53255C12.1663 6.25731 12.2633 5.99608 12.453 5.79706C12.6411 5.59955 12.8945 5.49081 13.1666 5.49081C13.4386 5.49081 13.692 5.5996 13.8801 5.79706C14.0697 5.99613 14.1668 6.25731 14.1534 6.53255L13.7079 15.7025Z" fill="#F40505"/>
<path d="M13.1665 4.14257C14.3049 4.14257 15.2311 3.21342 15.2311 2.07129C15.2311 0.929148 14.3049 0 13.1665 0C12.028 0 11.1018 0.929148 11.1018 2.07129C11.1018 3.21342 12.028 4.14257 13.1665 4.14257ZM13.1665 0.732421C13.901 0.732421 14.4986 1.33301 14.4986 2.07129C14.4986 2.80956 13.901 3.41015 13.1665 3.41015C12.4319 3.41015 11.8342 2.80956 11.8342 2.07129C11.8342 1.33301 12.4319 0.732421 13.1665 0.732421Z" fill="#F40505"/>
<path d="M15.6494 19.5782C15.4562 19.6378 15.3479 19.8429 15.4076 20.0361C15.4389 20.1376 15.4548 20.2437 15.4548 20.3513C15.4548 20.8007 15.1718 21.203 14.7506 21.3524C14.5599 21.4201 14.4603 21.6294 14.5279 21.82C14.5811 21.9702 14.7223 22.0639 14.873 22.0639C14.9136 22.0639 14.955 22.057 14.9955 22.0427C15.7083 21.7898 16.1872 21.1101 16.1872 20.3513C16.1872 20.1703 16.1603 19.9916 16.1073 19.82C16.0477 19.6268 15.8426 19.5184 15.6494 19.5782Z" fill="#F40505"/>
<path d="M9.34733 15.3996C9.14279 15.1983 9.03015 14.929 9.03015 14.6412C9.03015 14.056 9.50373 13.58 10.0859 13.58C10.2881 13.58 10.4521 13.416 10.4521 13.2137C10.4521 13.0115 10.2881 12.8475 10.0859 12.8475C9.09987 12.8475 8.29773 13.6522 8.29773 14.6412C8.29773 15.1268 8.48801 15.5815 8.83356 15.9216C8.9049 15.9918 8.99772 16.0268 9.09045 16.0268C9.18513 16.0268 9.2798 15.9903 9.35148 15.9175C9.49338 15.7734 9.49152 15.5415 9.34733 15.3996Z" fill="#F40505"/>
</svg>
