<svg width="19" height="19" viewBox="0 0 19 19" fill="none" xmlns="http://www.w3.org/2000/svg">
<path d="M13.1628 6.47327L14.9044 8.21488H5.69139C5.46761 8.21488 5.253 8.30377 5.09477 8.462C4.93654 8.62024 4.84764 8.83485 4.84764 9.05863C4.84764 9.2824 4.93654 9.49701 5.09477 9.65525C5.253 9.81348 5.46761 9.90238 5.69139 9.90238H14.9044L13.1628 11.644C13.0841 11.7223 13.0216 11.8153 12.9789 11.9177C12.9362 12.0202 12.9142 12.1301 12.914 12.2411C12.9139 12.3521 12.9356 12.462 12.9781 12.5646C13.0205 12.6672 13.0827 12.7604 13.1612 12.8388C13.2397 12.9173 13.3329 12.9796 13.4354 13.022C13.538 13.0644 13.6479 13.0861 13.7589 13.086C13.8699 13.0858 13.9798 13.0638 14.0823 13.0211C14.1847 12.9784 14.2778 12.9159 14.356 12.8372L17.538 9.65526C17.6164 9.57691 17.6785 9.4839 17.7209 9.38153C17.7633 9.27915 17.7852 9.16943 17.7852 9.05863C17.7852 8.94782 17.7633 8.8381 17.7209 8.73573C17.6785 8.63336 17.6164 8.54034 17.538 8.46199L14.356 5.28003C14.2778 5.20134 14.1847 5.13885 14.0823 5.09617C13.9798 5.05348 13.8699 5.03143 13.7589 5.03128C13.6479 5.03113 13.538 5.05288 13.4354 5.09529C13.3329 5.13769 13.2397 5.19992 13.1612 5.27841C13.0827 5.3569 13.0205 5.4501 12.9781 5.55267C12.9356 5.65525 12.9139 5.76518 12.914 5.87618C12.9142 5.98717 12.9362 6.09705 12.9789 6.19951C13.0216 6.30197 13.0841 6.395 13.1628 6.47327Z" fill="#B0A8A8"/>
<path d="M10.4726 16.3716C10.4726 16.1478 10.3837 15.9332 10.2255 15.775C10.0673 15.6167 9.85267 15.5278 9.62889 15.5278H3.16014L3.16014 2.59033H9.62889C9.85267 2.59033 10.0673 2.50144 10.2255 2.3432C10.3837 2.18497 10.4726 1.97036 10.4726 1.74658C10.4726 1.52281 10.3837 1.30819 10.2255 1.14996C10.0673 0.991727 9.85267 0.902832 9.62889 0.902832L2.87889 0.902832C2.50593 0.902832 2.14824 1.05099 1.88452 1.31471C1.6208 1.57844 1.47264 1.93612 1.47264 2.30908V15.8091C1.47264 16.182 1.6208 16.5397 1.88452 16.8035C2.14824 17.0672 2.50593 17.2153 2.87889 17.2153H9.62889C9.85267 17.2153 10.0673 17.1264 10.2255 16.9682C10.3837 16.81 10.4726 16.5954 10.4726 16.3716Z" fill="#B0A8A8"/>
</svg>
