<svg width="68" height="19" viewBox="0 0 68 19" fill="none" xmlns="http://www.w3.org/2000/svg">
<rect x="0.996582" width="67" height="19" rx="5" fill="#CCE5FF"/>
<path d="M7.7915 13V5.17969H10.1011C10.7922 5.17969 11.4045 5.33366 11.938 5.6416C12.4751 5.94954 12.8905 6.38639 13.1841 6.95215C13.4777 7.5179 13.6245 8.16602 13.6245 8.89648V9.28857C13.6245 10.0298 13.4759 10.6815 13.1787 11.2437C12.8851 11.8058 12.4644 12.2391 11.9165 12.5435C11.3722 12.8478 10.7474 13 10.042 13H7.7915ZM9.15039 6.27539V11.915H10.0366C10.7492 11.915 11.2952 11.693 11.6748 11.249C12.0579 10.8014 12.2531 10.1605 12.2603 9.32617V8.89111C12.2603 8.04248 12.0758 7.39437 11.707 6.94678C11.3382 6.49919 10.8029 6.27539 10.1011 6.27539H9.15039ZM16.4602 13H15.1551V7.18848H16.4602V13ZM15.0745 5.6792C15.0745 5.47868 15.1372 5.31217 15.2625 5.17969C15.3914 5.0472 15.574 4.98096 15.8103 4.98096C16.0467 4.98096 16.2293 5.0472 16.3582 5.17969C16.4871 5.31217 16.5515 5.47868 16.5515 5.6792C16.5515 5.87614 16.4871 6.04085 16.3582 6.17334C16.2293 6.30225 16.0467 6.3667 15.8103 6.3667C15.574 6.3667 15.3914 6.30225 15.2625 6.17334C15.1372 6.04085 15.0745 5.87614 15.0745 5.6792ZM21.3638 11.4209C21.3638 11.1882 21.2671 11.0109 21.0738 10.8892C20.884 10.7674 20.5671 10.66 20.1231 10.5669C19.6791 10.4738 19.3085 10.3556 19.0113 10.2124C18.3596 9.8973 18.0337 9.44076 18.0337 8.84277C18.0337 8.34147 18.245 7.92253 18.6675 7.58594C19.0901 7.24935 19.6272 7.08105 20.2789 7.08105C20.9735 7.08105 21.5339 7.25293 21.96 7.59668C22.3897 7.94043 22.6046 8.38623 22.6046 8.93408H21.2994C21.2994 8.68343 21.2063 8.47575 21.0201 8.31104C20.8339 8.14274 20.5868 8.05859 20.2789 8.05859C19.9924 8.05859 19.7579 8.12484 19.5753 8.25732C19.3962 8.38981 19.3067 8.56706 19.3067 8.78906C19.3067 8.98958 19.3908 9.14535 19.5591 9.25635C19.7274 9.36735 20.0676 9.48014 20.5796 9.59473C21.0917 9.70573 21.4927 9.84001 21.7828 9.99756C22.0764 10.1515 22.293 10.3377 22.4327 10.5562C22.5759 10.7746 22.6475 11.0396 22.6475 11.3511C22.6475 11.8739 22.4309 12.2982 21.9976 12.624C21.5643 12.9463 20.9968 13.1074 20.295 13.1074C19.8187 13.1074 19.3944 13.0215 19.022 12.8496C18.6496 12.6777 18.3596 12.4414 18.1519 12.1406C17.9442 11.8398 17.8404 11.5158 17.8404 11.1685H19.108C19.1259 11.4764 19.2422 11.7145 19.4571 11.8828C19.6719 12.0475 19.9566 12.1299 20.3111 12.1299C20.6548 12.1299 20.9162 12.0654 21.0953 11.9365C21.2743 11.804 21.3638 11.6322 21.3638 11.4209ZM29.098 10.1533C29.098 11.0521 28.8939 11.77 28.4857 12.3071C28.0775 12.8407 27.5296 13.1074 26.8421 13.1074C26.2048 13.1074 25.6945 12.8979 25.3114 12.479V15.2344H24.0062V7.18848H25.2093L25.263 7.7793C25.6462 7.3138 26.1672 7.08105 26.826 7.08105C27.535 7.08105 28.09 7.34603 28.4911 7.87598C28.8957 8.40234 29.098 9.1346 29.098 10.0728V10.1533ZM27.7982 10.0405C27.7982 9.46045 27.6818 9.00033 27.4491 8.66016C27.2199 8.31999 26.8905 8.1499 26.4608 8.1499C25.9273 8.1499 25.5441 8.37012 25.3114 8.81055V11.3887C25.5477 11.8398 25.9344 12.0654 26.4715 12.0654C26.8869 12.0654 27.2109 11.8989 27.4437 11.5659C27.68 11.2293 27.7982 10.7209 27.7982 10.0405ZM32.9864 13.1074C32.1593 13.1074 31.4879 12.8478 30.9723 12.3286C30.4602 11.8058 30.2042 11.1112 30.2042 10.2446V10.0835C30.2042 9.50342 30.3152 8.986 30.5372 8.53125C30.7628 8.07292 31.0779 7.71663 31.4825 7.4624C31.8872 7.20817 32.3383 7.08105 32.8361 7.08105C33.6274 7.08105 34.2379 7.3335 34.6676 7.83838C35.1009 8.34326 35.3175 9.05762 35.3175 9.98145V10.5078H31.5201C31.5595 10.9876 31.7189 11.3672 31.9982 11.6465C32.281 11.9258 32.6355 12.0654 33.0616 12.0654C33.6596 12.0654 34.1466 11.8237 34.5226 11.3403L35.2262 12.0117C34.9934 12.359 34.6819 12.6294 34.2916 12.8228C33.9049 13.0125 33.4698 13.1074 32.9864 13.1074ZM32.8307 8.12842C32.4726 8.12842 32.1826 8.25374 31.9606 8.50439C31.7421 8.75505 31.6025 9.10417 31.5416 9.55176H34.0284V9.45508C33.9998 9.01823 33.8834 8.6888 33.6793 8.4668C33.4752 8.24121 33.1923 8.12842 32.8307 8.12842ZM37.7665 7.18848L37.8041 7.85986C38.2338 7.34066 38.7978 7.08105 39.496 7.08105C40.7063 7.08105 41.3222 7.77393 41.3437 9.15967V13H40.0385V9.23486C40.0385 8.86605 39.9579 8.59391 39.7968 8.41846C39.6392 8.23942 39.3796 8.1499 39.018 8.1499C38.4916 8.1499 38.0995 8.38802 37.8417 8.86426V13H36.5365V7.18848H37.7665ZM46.1559 11.4209C46.1559 11.1882 46.0593 11.0109 45.8659 10.8892C45.6761 10.7674 45.3592 10.66 44.9152 10.5669C44.4712 10.4738 44.1006 10.3556 43.8034 10.2124C43.1517 9.8973 42.8259 9.44076 42.8259 8.84277C42.8259 8.34147 43.0371 7.92253 43.4596 7.58594C43.8822 7.24935 44.4193 7.08105 45.071 7.08105C45.7656 7.08105 46.326 7.25293 46.7521 7.59668C47.1818 7.94043 47.3967 8.38623 47.3967 8.93408H46.0915C46.0915 8.68343 45.9984 8.47575 45.8122 8.31104C45.626 8.14274 45.3789 8.05859 45.071 8.05859C44.7845 8.05859 44.55 8.12484 44.3674 8.25732C44.1883 8.38981 44.0988 8.56706 44.0988 8.78906C44.0988 8.98958 44.183 9.14535 44.3512 9.25635C44.5195 9.36735 44.8597 9.48014 45.3718 9.59473C45.8838 9.70573 46.2848 9.84001 46.5749 9.99756C46.8685 10.1515 47.0851 10.3377 47.2248 10.5562C47.368 10.7746 47.4396 11.0396 47.4396 11.3511C47.4396 11.8739 47.223 12.2982 46.7897 12.624C46.3565 12.9463 45.7889 13.1074 45.0871 13.1074C44.6109 13.1074 44.1865 13.0215 43.8141 12.8496C43.4417 12.6777 43.1517 12.4414 42.944 12.1406C42.7363 11.8398 42.6325 11.5158 42.6325 11.1685H43.9001C43.918 11.4764 44.0344 11.7145 44.2492 11.8828C44.464 12.0475 44.7487 12.1299 45.1032 12.1299C45.447 12.1299 45.7083 12.0654 45.8874 11.9365C46.0664 11.804 46.1559 11.6322 46.1559 11.4209ZM51.3603 13.1074C50.5332 13.1074 49.8618 12.8478 49.3462 12.3286C48.8341 11.8058 48.5781 11.1112 48.5781 10.2446V10.0835C48.5781 9.50342 48.6891 8.986 48.9111 8.53125C49.1367 8.07292 49.4518 7.71663 49.8564 7.4624C50.261 7.20817 50.7122 7.08105 51.2099 7.08105C52.0013 7.08105 52.6118 7.3335 53.0415 7.83838C53.4747 8.34326 53.6914 9.05762 53.6914 9.98145V10.5078H49.894C49.9334 10.9876 50.0927 11.3672 50.372 11.6465C50.6549 11.9258 51.0094 12.0654 51.4355 12.0654C52.0335 12.0654 52.5205 11.8237 52.8964 11.3403L53.6001 12.0117C53.3673 12.359 53.0558 12.6294 52.6655 12.8228C52.2788 13.0125 51.8437 13.1074 51.3603 13.1074ZM51.2046 8.12842C50.8465 8.12842 50.5564 8.25374 50.3344 8.50439C50.116 8.75505 49.9764 9.10417 49.9155 9.55176H52.4023V9.45508C52.3737 9.01823 52.2573 8.6888 52.0532 8.4668C51.8491 8.24121 51.5662 8.12842 51.2046 8.12842ZM54.6848 10.0513C54.6848 9.15609 54.8925 8.43815 55.3078 7.89746C55.7232 7.35319 56.28 7.08105 56.9783 7.08105C57.5941 7.08105 58.0919 7.2959 58.4714 7.72559V4.75H59.7766V13H58.595L58.5305 12.3984C58.1402 12.8711 57.6192 13.1074 56.9675 13.1074C56.2872 13.1074 55.7357 12.8335 55.3132 12.2856C54.8943 11.7378 54.6848 10.993 54.6848 10.0513ZM55.99 10.1641C55.99 10.7549 56.1028 11.2168 56.3284 11.5498C56.5575 11.8792 56.8816 12.0439 57.3005 12.0439C57.8341 12.0439 58.2244 11.8058 58.4714 11.3296V8.84814C58.2315 8.38265 57.8448 8.1499 57.3113 8.1499C56.8887 8.1499 56.5629 8.3182 56.3337 8.65479C56.1046 8.98779 55.99 9.49089 55.99 10.1641Z" fill="#004085"/>
</svg>
