<svg width="18" height="20" viewBox="0 0 18 20" fill="none" xmlns="http://www.w3.org/2000/svg">
<path d="M9 10.9375C7.67461 10.9375 6.43383 11.6503 5.7618 12.7977C5.68004 12.9373 5.72691 13.1168 5.86652 13.1986C6.00613 13.2804 6.18559 13.2335 6.26738 13.0938C6.83473 12.1252 7.8818 11.5234 9 11.5234C10.7447 11.5234 12.1641 12.9429 12.1641 14.6875C12.1641 16.4321 10.7447 17.8516 9 17.8516C7.25531 17.8516 5.83594 16.4321 5.83594 14.6875C5.83594 14.5505 5.8448 14.4126 5.8623 14.2778C5.88313 14.1173 5.76996 13.9704 5.60949 13.9495C5.44902 13.9283 5.30207 14.0419 5.28125 14.2023C5.26051 14.3621 5.25 14.5254 5.25 14.6875C5.25 16.7553 6.93223 18.4375 9 18.4375C11.0678 18.4375 12.75 16.7553 12.75 14.6875C12.75 12.6198 11.0678 10.9375 9 10.9375ZM9.35156 12.1094H8.64844C8.35766 12.1094 8.12109 12.3459 8.12109 12.6367V13.8086H6.94922C6.65844 13.8086 6.42188 14.0452 6.42188 14.3359V15.0391C6.42188 15.3298 6.65844 15.5664 6.94922 15.5664H8.12109V16.7383C8.12109 17.0291 8.35766 17.2656 8.64844 17.2656H9.35156C9.64234 17.2656 9.87891 17.0291 9.87891 16.7383V15.5664H11.0508C11.3416 15.5664 11.5781 15.3298 11.5781 15.0391V14.3359C11.5781 14.0452 11.3416 13.8086 11.0508 13.8086H9.87891V12.6367C9.87891 12.3459 9.64234 12.1094 9.35156 12.1094ZM10.9922 14.3945V14.9805H9.70312C9.47695 14.9805 9.29297 15.1645 9.29297 15.3906V16.6797H8.70703V15.3906C8.70703 15.1645 8.52305 14.9805 8.29688 14.9805H7.00781V14.3945H8.29688C8.52305 14.3945 8.70703 14.2105 8.70703 13.9844V12.6953H9.29297V13.9844C9.29297 14.2105 9.47695 14.3945 9.70312 14.3945H10.9922ZM13.3359 2.44141C13.3359 2.06449 13.0293 1.75781 12.6523 1.75781H5.34766C4.97074 1.75781 4.66406 2.06449 4.66406 2.44141V3.14453C4.66406 3.52145 4.97074 3.82812 5.34766 3.82812H12.6523C13.0293 3.82812 13.3359 3.52145 13.3359 3.14453V2.44141ZM12.75 3.14453C12.75 3.1984 12.7062 3.24219 12.6523 3.24219H5.34766C5.29383 3.24219 5.25 3.1984 5.25 3.14453V2.44141C5.25 2.38754 5.29383 2.34375 5.34766 2.34375H12.6523C12.7062 2.34375 12.75 2.38754 12.75 2.44141V3.14453ZM15.9336 9.375H9.04125C8.74672 9.375 8.47332 9.22871 8.30996 8.98359L7.83387 8.26949C7.56156 7.86105 7.10594 7.61719 6.615 7.61719H2.95586V1.46484C2.95586 0.980234 3.35012 0.585938 3.83477 0.585938H14.1652C14.6499 0.585938 15.0441 0.980234 15.0441 1.46484V8.30078C15.0441 8.46262 15.1753 8.59375 15.3371 8.59375C15.4989 8.59375 15.6301 8.46262 15.6301 8.30078V1.46484C15.6301 0.657109 14.973 0 14.1652 0H3.83477C3.02703 0 2.36992 0.657109 2.36992 1.46484V7.61719H2.06641C1.25867 7.61719 0.601562 8.2743 0.601562 9.08203V18.5352C0.601562 19.3429 1.25867 20 2.06641 20H15.9336C16.7413 20 17.3984 19.3429 17.3984 18.5352V10.8398C17.3984 10.0321 16.7413 9.375 15.9336 9.375ZM16.8125 18.5352C16.8125 19.0198 16.4182 19.4141 15.9336 19.4141H2.06641C1.58176 19.4141 1.1875 19.0198 1.1875 18.5352V9.08203C1.1875 8.59742 1.58176 8.20312 2.06641 8.20312H6.615C6.90953 8.20312 7.18293 8.34941 7.34629 8.59453L7.82238 9.30863C8.09469 9.71707 8.55031 9.96094 9.04125 9.96094H15.9336C16.4182 9.96094 16.8125 10.3552 16.8125 10.8398V18.5352ZM13.043 6.17188H4.95703C4.79523 6.17188 4.66406 6.30301 4.66406 6.46484C4.66406 6.62668 4.79523 6.75781 4.95703 6.75781H13.043C13.2048 6.75781 13.3359 6.62668 13.3359 6.46484C13.3359 6.30301 13.2048 6.17188 13.043 6.17188ZM13.043 5H4.95703C4.79523 5 4.66406 5.13113 4.66406 5.29297C4.66406 5.4548 4.79523 5.58594 4.95703 5.58594H13.043C13.2048 5.58594 13.3359 5.4548 13.3359 5.29297C13.3359 5.13113 13.2048 5 13.043 5Z" fill="#16C79A"/>
</svg>
