<svg width="30" height="30" viewBox="0 0 30 30" fill="none" xmlns="http://www.w3.org/2000/svg">
<path d="M5.61527 28.8867H13.9171C13.938 28.8867 13.9593 28.8926 13.9806 28.8926C14.002 28.8926 14.0245 28.8867 14.0464 28.8867H24.4215C25.2531 28.8867 26.1328 27.9982 26.1328 27.1568V22.632C26.1328 20.979 24.6468 19.4035 22.0987 18.296C22.047 18.2581 21.9872 18.2328 21.924 18.222C21.6691 18.1154 21.4042 18.0135 21.1293 17.9165C20.9653 17.5729 20.6691 17.2778 20.2758 17.0723C20.1576 17.0097 19.2964 16.7021 18.5343 16.4342L18.0656 15.5128C19.3063 14.5519 19.6618 13.0698 19.7623 12.3673C20.6231 12.1437 21.4164 11.1328 21.7336 9.79052C21.8972 9.09701 21.6616 8.44433 21.1472 8.1663C21.0175 8.09541 20.8744 8.05253 20.7271 8.04044C20.9766 7.17408 21.2193 6.02195 21.2193 5.76197C21.219 5.28794 21.1137 4.81987 20.9107 4.39148C20.7078 3.9631 20.4123 3.58508 20.0457 3.28467C19.679 2.98425 19.2502 2.76893 18.7903 2.65423C18.3303 2.53953 17.8507 2.52829 17.3859 2.62134C16.7923 1.94256 16.0057 1.46101 15.1312 1.24098C14.2568 1.02095 13.336 1.07292 12.4918 1.38993C11.6476 1.70695 10.9202 2.27393 10.4068 3.01519C9.89327 3.75644 9.61813 4.6367 9.61805 5.53843C9.61805 5.72734 9.66316 6.47306 9.734 7.21169C9.76518 7.53718 9.79523 7.80015 9.82395 8.01361C9.65097 8.00923 9.47973 8.04904 9.32643 8.12927C8.79053 8.40537 8.54396 9.07263 8.71277 9.79017V9.79052C9.02918 11.1303 9.8202 12.1401 10.6792 12.3659C10.7714 13.079 11.1152 14.5769 12.3893 15.5386L11.9041 16.5309C10.9321 16.8377 10.3897 17.0191 10.2928 17.0696C9.96976 17.2298 9.69712 17.4759 9.50473 17.7808C5.92189 18.9511 3.86719 20.7187 3.86719 22.632V27.1568C3.86719 27.9982 4.76572 28.8867 5.61527 28.8867ZM15.2232 16.3945C16.0284 16.3945 16.7467 16.2435 17.3655 15.9455L17.8185 16.8361L17.3438 20.0663C16.6617 20.3747 15.4055 20.6443 15.1679 20.6443C14.9522 20.6443 13.7424 20.3806 13.0794 20.0902L12.6261 16.9225L13.0955 15.9627C13.7105 16.2496 14.4241 16.3945 15.2232 16.3945ZM15.1676 21.4644C15.447 21.4644 16.4137 21.2711 17.2008 20.9999L16.1133 28.0664H14.3303L13.2212 21.0212C13.9839 21.2801 14.9047 21.4646 15.1676 21.4646V21.4644ZM25.3125 22.632V27.1568C25.3125 27.5485 24.8046 28.0664 24.4215 28.0664H17.2051L20.9045 22.2091C21.1835 21.807 21.3065 21.3369 21.2336 20.9489C21.214 20.8256 21.1694 20.7076 21.1026 20.6021C21.0358 20.4967 20.9481 20.4059 20.845 20.3355C20.7036 20.2466 20.5535 20.1724 20.3971 20.114C20.6661 19.8512 20.8985 19.5532 21.0879 19.2282C21.1577 19.1039 21.2091 18.97 21.2405 18.831C21.348 18.8723 21.453 18.9148 21.5569 18.9578C22.0866 20.1238 22.428 21.6623 22.4944 23.1727C22.0982 23.2667 21.75 23.5021 21.5151 23.8348C21.2803 24.1674 21.175 24.5744 21.2191 24.9792C21.2633 25.384 21.4537 25.7588 21.7547 26.0331C22.0557 26.3073 22.4465 26.4622 22.8536 26.4686C23.2608 26.4751 23.6563 26.3325 23.9657 26.0679C24.2752 25.8032 24.4774 25.4347 24.5342 25.0314C24.591 24.6282 24.4987 24.2181 24.2744 23.8782C24.0502 23.5383 23.7095 23.292 23.3164 23.1856C23.2665 21.9209 23.0385 20.6694 22.6389 19.4684C24.325 20.3772 25.3125 21.5148 25.3125 22.632ZM22.8797 23.9477C22.9366 23.9477 22.9933 23.9534 23.049 23.9647C23.2606 24.0079 23.4475 24.1307 23.5712 24.3078C23.6948 24.4849 23.7457 24.7027 23.7133 24.9163C23.6809 25.1298 23.5676 25.3227 23.397 25.4552C23.2264 25.5876 23.0114 25.6494 22.7965 25.6278C22.5816 25.6063 22.3832 25.5029 22.2423 25.3392C22.1014 25.1755 22.0288 24.9639 22.0395 24.7482C22.0502 24.5325 22.1434 24.3291 22.2997 24.1801C22.4561 24.0311 22.6638 23.9479 22.8797 23.9477ZM20.4273 18.3672C20.4504 18.4441 20.4572 18.525 20.4475 18.6047C20.4377 18.6843 20.4115 18.7611 20.3705 18.8301C20.0358 19.4332 19.346 19.9518 19.3392 19.9567C19.2768 20.0031 19.2288 20.0662 19.2009 20.1388C19.173 20.2114 19.1663 20.2904 19.1816 20.3666C19.1969 20.4428 19.2335 20.5132 19.2872 20.5694C19.3409 20.6256 19.4095 20.6654 19.485 20.6841C19.7336 20.7459 20.199 20.8912 20.3898 21.0184C20.4112 21.041 20.4243 21.0701 20.4271 21.101C20.4518 21.2322 20.4141 21.4803 20.2266 21.7476C20.2229 21.753 20.2192 21.7585 20.2157 21.7641L17.1711 26.5852L18.1327 20.3362L18.5764 17.3191C19.2131 17.5446 19.801 17.7572 19.8983 17.8008C20.1697 17.9436 20.3623 18.1499 20.4273 18.3672ZM11.4674 11.9919C11.4657 11.925 11.4472 11.8595 11.4137 11.8016C11.3802 11.7436 11.3326 11.695 11.2754 11.6601C11.2097 11.6204 11.134 11.6 11.0572 11.6015H11.0495C10.5381 11.6015 9.79559 10.8092 9.51123 9.60625C9.4224 9.22837 9.54 8.94414 9.70219 8.86058C9.85641 8.78101 10.0165 8.92404 10.098 9.01703C10.1659 9.09558 10.2611 9.14547 10.3643 9.15663C10.4675 9.16779 10.5711 9.13939 10.6542 9.07716C10.7373 9.01493 10.7937 8.9235 10.8121 8.82131C10.8304 8.71913 10.8093 8.61379 10.7531 8.52654C10.6103 8.16794 10.4384 5.93529 10.4384 5.53861C10.4383 4.78485 10.674 4.04995 11.1125 3.43691C11.5511 2.82386 12.1705 2.3634 12.8839 2.12005C13.5972 1.8767 14.3689 1.86267 15.0907 2.07992C15.8124 2.29717 16.4481 2.7348 16.9087 3.3315C16.9591 3.39669 17.028 3.44517 17.1064 3.47063C17.1848 3.49609 17.269 3.49735 17.3481 3.47423C17.7033 3.37068 18.0778 3.35123 18.4418 3.41741C18.8058 3.48359 19.1494 3.6336 19.4454 3.85554C19.7415 4.07749 19.9818 4.3653 20.1473 4.69617C20.3129 5.02705 20.3991 5.39192 20.3993 5.76191C20.3993 6.06853 19.882 8.19683 19.706 8.50708C19.6458 8.59165 19.62 8.69588 19.6336 8.79877C19.6472 8.90166 19.6994 8.99555 19.7795 9.06152C19.8596 9.1275 19.9618 9.16064 20.0654 9.15427C20.1689 9.14791 20.2663 9.10251 20.3377 9.02722C20.4067 8.95445 20.5859 8.79525 20.7573 8.88783C20.9053 8.96787 21.0242 9.22544 20.9354 9.60191C20.6511 10.805 19.9076 11.6025 19.3971 11.5932C19.2897 11.5909 19.1857 11.631 19.1075 11.7047C19.0293 11.7784 18.9833 11.8799 18.9793 11.9873C18.9552 12.3365 18.7625 14.1247 17.3229 15.0334C16.7551 15.3926 16.0488 15.5742 15.2232 15.5742C14.3953 15.5742 13.6871 15.3961 13.1184 15.045C11.6518 14.1386 11.4857 12.3427 11.4674 11.9919ZM10.6635 17.8016C10.7636 17.7599 11.2918 17.5868 11.8661 17.4037L12.3188 20.5674C12.32 20.5763 12.3216 20.585 12.3234 20.5939L13.2584 26.5339L10.3448 21.8165C10.3407 21.8097 10.3363 21.8031 10.3317 21.7966C10.1545 21.5438 10.1036 21.2792 10.1319 21.1289C10.1347 21.097 10.1476 21.0667 10.1688 21.0426C10.3614 20.9141 10.8298 20.7609 11.0796 20.6946C11.154 20.6749 11.2215 20.6347 11.2741 20.5784C11.3268 20.5222 11.3625 20.4522 11.3772 20.3766C11.392 20.301 11.3851 20.2227 11.3574 20.1508C11.3298 20.0789 11.2824 20.0162 11.2208 19.97C11.0285 19.8258 10.4681 19.3409 10.1879 18.836C10.1468 18.7666 10.1206 18.6893 10.1109 18.6092C10.1013 18.5291 10.1084 18.4478 10.1319 18.3706C10.1978 18.1518 10.3908 17.9451 10.6635 17.8016ZM4.6875 22.632C4.6875 21.4056 5.93361 20.1738 8.09766 19.1984C7.83609 19.8507 7.61893 20.5199 7.44768 21.2015L7.01666 21.171C6.74442 21.1518 6.47526 21.2383 6.26517 21.4125C6.05508 21.5867 5.92023 21.8352 5.88867 22.1063L5.03455 25.0728C5.02662 25.1003 5.02162 25.1287 5.01961 25.1573C5.00013 25.4377 5.09267 25.7145 5.27696 25.9268C5.46124 26.1392 5.72221 26.2697 6.00264 26.2899C6.11103 26.2974 6.21796 26.2616 6.29996 26.1903C6.38196 26.119 6.43232 26.0181 6.44 25.9097C6.44767 25.8013 6.41203 25.6944 6.3409 25.6122C6.26976 25.5301 6.16895 25.4795 6.06059 25.4717C6.00274 25.4675 5.94835 25.4425 5.90744 25.4014C5.86653 25.3603 5.84184 25.3058 5.83793 25.2479L6.68754 22.2966C6.69547 22.269 6.70047 22.2406 6.70248 22.212C6.70698 22.1484 6.73654 22.0893 6.78464 22.0475C6.83275 22.0058 6.89546 21.9849 6.959 21.9893L8.41852 22.0925C8.48205 22.097 8.5412 22.1266 8.58296 22.1747C8.62471 22.2228 8.64565 22.2855 8.64117 22.349C8.63916 22.3777 8.64014 22.4064 8.6441 22.4349L9.06979 25.4764C9.05782 25.5332 9.02571 25.5837 8.9794 25.6186C8.93309 25.6536 8.8757 25.6706 8.81783 25.6665C8.70956 25.6592 8.60281 25.6952 8.52099 25.7665C8.43916 25.8377 8.38891 25.9385 8.38125 26.0468C8.37359 26.155 8.40915 26.2619 8.48012 26.344C8.5511 26.4261 8.65172 26.4767 8.75994 26.4848C8.78557 26.4866 8.81105 26.4875 8.83641 26.4875C9.10444 26.487 9.36236 26.3851 9.55831 26.2023C9.75427 26.0194 9.87371 25.7691 9.89262 25.5017C9.89463 25.4731 9.89365 25.4444 9.88969 25.416L9.46195 22.3588C9.46845 22.086 9.36974 21.8213 9.18628 21.6193C9.00282 21.4174 8.74869 21.2938 8.47658 21.2743L8.27912 21.2603C8.52111 20.33 8.86559 19.3949 9.20684 18.7507C9.23689 18.7398 9.26771 18.7292 9.29801 18.7185C9.32263 18.8997 9.38141 19.0747 9.47121 19.2341C9.66308 19.5634 9.89835 19.8655 10.1707 20.1322C10.0112 20.1929 9.85813 20.2693 9.71367 20.3601C9.61039 20.4312 9.5227 20.5226 9.45595 20.6288C9.38921 20.7349 9.34481 20.8535 9.32549 20.9774C9.25066 21.3759 9.37295 21.8525 9.65279 22.2565L13.2417 28.0664H5.61527C5.2251 28.0664 4.6875 27.54 4.6875 27.1568V22.632Z" fill="white"/>
</svg>
