<svg width="25" height="25" viewBox="0 0 25 25" fill="none" xmlns="http://www.w3.org/2000/svg">
<g clip-path="url(#clip0_1_20)">
<path d="M3.50232 25.0185C3.00232 24.8437 2.8206 24.4849 2.8206 23.9641C2.82755 16.6539 2.82523 9.34375 2.82523 2.03472C2.82523 1.27314 3.12963 0.968747 3.89005 0.968747C6.06597 0.968747 8.24074 0.971061 10.4167 0.962959C10.5567 0.962959 10.7176 0.901617 10.8322 0.819441C11.2014 0.553237 11.5532 0.262728 11.912 -0.0173645C12.3032 -0.0173645 12.6944 -0.0173645 13.0856 -0.0173645C13.4444 0.262728 13.7975 0.553237 14.1667 0.819441C14.2813 0.902774 14.4421 0.96296 14.5822 0.964117C16.7743 0.973376 18.9653 0.969904 21.1574 0.971061C21.8495 0.971061 22.1736 1.29514 22.1736 1.98842C22.1736 9.31481 22.1713 16.64 22.1782 23.9664C22.1782 24.4861 21.9977 24.8461 21.4965 25.0208H3.50232V25.0185ZM7.53588 1.50463C7.43634 1.49884 7.36458 1.49074 7.29282 1.49074C6.12732 1.49074 4.96296 1.48958 3.79745 1.49074C3.4456 1.49074 3.34954 1.5868 3.34954 1.93981C3.34954 9.30555 3.34954 16.6713 3.34954 24.037C3.34954 24.4097 3.43634 24.5 3.81134 24.5C9.60417 24.5 15.3981 24.5 21.191 24.5C21.5648 24.5 21.6505 24.4097 21.6505 24.0336C21.6505 16.6759 21.6505 9.31828 21.6505 1.96064C21.6505 1.57754 21.5613 1.48958 21.1748 1.48958C20.0255 1.48958 18.8773 1.48958 17.728 1.48958C17.6481 1.48958 17.5694 1.49652 17.4641 1.50115C17.4641 1.77662 17.4664 2.03472 17.4641 2.29398C17.4606 2.58333 17.3843 2.66435 17.1053 2.66551C14.0336 2.66666 10.9618 2.66666 7.89005 2.66551C7.62153 2.66551 7.54051 2.58449 7.53588 2.31597C7.53125 2.04977 7.53588 1.78356 7.53588 1.50463ZM16.941 1.49074C16.8322 1.49074 16.7442 1.49074 16.6563 1.49074C15.9155 1.49074 15.1748 1.49884 14.434 1.48379C14.2847 1.48032 14.1157 1.42014 13.9919 1.33449C13.6782 1.11574 13.3854 0.868052 13.0845 0.631941C12.8345 0.436339 12.169 0.436339 11.919 0.631941C11.6181 0.868052 11.3241 1.11458 11.0104 1.33333C10.8866 1.41898 10.7176 1.48032 10.5683 1.48379C9.81944 1.49884 9.0706 1.49074 8.32176 1.49074C8.23611 1.49074 8.15046 1.49074 8.06713 1.49074V2.12731H16.941V1.49074Z" fill="#163DC7"/>
<path d="M9.9919 14.8877C9.9919 15.0116 9.9919 15.1088 9.9919 15.2049C9.9919 17.3634 9.98842 19.522 9.99537 21.6817C9.99653 22.1111 9.95139 22.5069 9.52199 22.7234C9.05555 22.9595 8.58217 22.9537 8.11921 22.6991C8.0625 22.6678 8.01273 22.6262 7.94444 22.5787C7.60879 22.8657 7.20949 22.9236 6.78356 22.8704C6.20139 22.7963 5.87847 22.4398 5.87963 21.8553C5.88194 19.6308 5.88773 17.4074 5.89236 15.1829C5.89236 15.0868 5.89236 14.9896 5.89236 14.8866C5.74305 14.9039 5.61342 14.9363 5.48611 14.9294C5.03125 14.9051 4.68055 14.5417 4.6794 14.0775C4.67477 12.2685 4.67014 10.4606 4.68171 8.65162C4.6875 7.80208 5.34375 7.12152 6.19444 7.05555C6.43634 7.03703 6.68055 7.05324 6.94213 7.02893C6.49768 6.64699 6.21412 6.18865 6.20949 5.60532C6.20486 5.0243 6.44097 4.54513 6.90972 4.19444C7.65162 3.63773 8.68402 3.7743 9.2743 4.50115C9.80787 5.15856 9.86111 6.25231 8.88657 7.0243C8.99768 7.0324 9.0706 7.03935 9.14236 7.04398C9.40162 7.05787 9.66898 7.03935 9.92014 7.09143C10.625 7.23495 11.1725 7.88773 11.1782 8.61226C11.191 10.4375 11.1887 12.2616 11.1817 14.0868C11.1794 14.6285 10.706 15.0058 10.1748 14.9143C10.1273 14.9062 10.0787 14.9005 9.99305 14.8877H9.9919ZM9.4699 15.6215C9.4699 13.5683 9.4699 11.515 9.4699 9.4618C9.4699 9.11342 9.55092 8.95949 9.74074 8.98611C10.0324 9.02662 9.98958 9.26157 9.99074 9.4618C9.9919 10.9687 9.99074 12.4768 9.99305 13.9838C9.99305 14.265 10.1053 14.4039 10.3206 14.4097C10.5347 14.4155 10.6725 14.2685 10.6725 14.0035C10.6759 12.2431 10.6817 10.4838 10.669 8.72338C10.6643 8.0081 10.1829 7.56134 9.46759 7.56018C8.47338 7.55787 7.47916 7.56018 6.48495 7.56018C5.62847 7.56018 5.19328 7.99305 5.19328 8.853C5.19213 10.5312 5.19328 12.2106 5.19328 13.8889C5.19328 13.978 5.17014 14.0926 5.21528 14.1516C5.29514 14.2558 5.41898 14.39 5.52546 14.3924C5.6331 14.3947 5.7662 14.2674 5.84606 14.1643C5.89583 14.1007 5.87384 13.9757 5.87384 13.8785C5.875 12.4039 5.87384 10.9282 5.875 9.4537C5.875 9.37268 5.85185 9.27314 5.88889 9.21412C5.9456 9.12268 6.04629 8.99884 6.12847 8.99884C6.21296 8.99884 6.31134 9.11921 6.37847 9.20601C6.41088 9.24768 6.38773 9.33217 6.38773 9.39699C6.38889 12.64 6.3912 15.8831 6.3912 19.125C6.3912 20.0289 6.38657 20.934 6.3912 21.838C6.3912 21.9468 6.41088 22.0718 6.46759 22.1609C6.59953 22.3681 7.04745 22.4329 7.37731 22.3241C7.64004 22.2373 7.67014 22.0405 7.67014 21.8021C7.66551 19.3981 7.66782 16.9942 7.66782 14.5914C7.66782 14.5185 7.66551 14.4444 7.66898 14.3715C7.67824 14.2014 7.76041 14.0845 7.93865 14.0891C8.10185 14.0926 8.18171 14.2049 8.18981 14.3646C8.19328 14.4375 8.19097 14.5116 8.19097 14.5845C8.19097 16.9884 8.19097 19.3924 8.19328 21.7951C8.19328 21.9051 8.19907 22.0301 8.24884 22.1238C8.36805 22.3472 8.77546 22.4352 9.1169 22.3345C9.39352 22.2523 9.46875 22.1424 9.46875 21.8067C9.46875 19.7454 9.46875 17.684 9.46875 15.6227L9.4699 15.6215ZM7.94213 6.78125C8.61111 6.77777 9.14004 6.23611 9.1331 5.56018C9.12616 4.89814 8.59722 4.37615 7.93171 4.37615C7.25926 4.37615 6.72569 4.91088 6.72685 5.58333C6.72916 6.25347 7.26852 6.78472 7.94213 6.78125Z" fill="#163DC7"/>
<path d="M18.7569 5.42129C19.1586 5.42129 19.5324 5.42129 19.9051 5.42129C20.2558 5.42129 20.3241 5.48842 20.3241 5.8287C20.3241 6.14698 20.3252 6.46411 20.3241 6.7824C20.3229 7.06712 20.2465 7.14698 19.9653 7.15161C19.7697 7.15509 19.5741 7.15161 19.3785 7.15161C19.1829 7.15161 18.9884 7.15161 18.7569 7.15161C18.7569 7.54397 18.7569 7.9236 18.7569 8.30439C18.7569 8.64814 18.684 8.72222 18.3449 8.72453C18.0359 8.72569 17.7257 8.72684 17.4167 8.72453C17.1157 8.72222 17.0393 8.64583 17.0382 8.35069C17.0359 7.9618 17.0382 7.57291 17.0382 7.15277C16.6389 7.15277 16.2662 7.15277 15.8935 7.15277C15.5243 7.15277 15.4641 7.09259 15.4618 6.73032C15.4606 6.42129 15.4595 6.1111 15.4618 5.80208C15.4653 5.49999 15.5382 5.42476 15.8368 5.42245C16.2118 5.41897 16.5856 5.41897 16.9606 5.4155C16.9757 5.4155 16.9907 5.40393 17.037 5.38425C17.037 5.16434 17.037 4.93055 17.037 4.69675C17.0393 3.77893 16.9387 3.84837 17.8958 3.84953C17.9201 3.84953 17.9444 3.84953 17.9687 3.84953C18.8194 3.84143 18.7604 3.81134 18.7569 4.6493C18.7558 4.89235 18.7569 5.13657 18.7569 5.42013V5.42129ZM18.2349 4.38772H17.5567C17.5521 4.48147 17.5463 4.56018 17.5463 4.64004C17.5451 4.96643 17.5428 5.29166 17.5463 5.61805C17.5486 5.8449 17.4387 5.94559 17.2176 5.94328C17.0544 5.94097 16.8912 5.94328 16.7292 5.94328C16.4803 5.94328 16.2326 5.94328 15.9884 5.94328V6.6331C16.39 6.6331 16.7801 6.6331 17.169 6.6331C17.4745 6.6331 17.544 6.70254 17.5451 7.00462C17.5474 7.39351 17.5451 7.7824 17.5451 8.18402H18.2349C18.2349 7.78819 18.2338 7.40624 18.2349 7.02546C18.2361 6.70948 18.3113 6.63425 18.6204 6.6331C19.0093 6.63194 19.3981 6.6331 19.787 6.6331V5.94212C19.3854 5.94212 19.0035 5.94328 18.6227 5.94212C18.3137 5.94097 18.2373 5.86342 18.2349 5.5486C18.2326 5.16666 18.2349 4.78587 18.2349 4.38657V4.38772Z" fill="#163DC7"/>
<path d="M12.2014 21.5232C12.2014 21.1979 12.1979 20.8727 12.2014 20.5475C12.2049 20.2616 12.3345 20.1296 12.6192 20.1285C13.2616 20.125 13.9039 20.125 14.5463 20.1285C14.8194 20.1296 14.9549 20.2581 14.9572 20.5301C14.963 21.1806 14.963 21.831 14.9572 22.4815C14.9549 22.7569 14.8299 22.8877 14.5509 22.8912C13.9005 22.8993 13.25 22.8993 12.5995 22.8912C12.3252 22.8877 12.2037 22.75 12.2002 22.4757C12.1956 22.1586 12.2002 21.8414 12.2002 21.5243L12.2014 21.5232ZM12.7234 22.3623H14.4387V20.6563H12.7234V22.3623Z" fill="#163DC7"/>
<path d="M12.2014 18.0243C12.2014 17.7072 12.1979 17.39 12.2014 17.0729C12.2049 16.787 12.3345 16.6574 12.6215 16.6551C13.2639 16.6516 13.9063 16.6516 14.5486 16.6551C14.8218 16.6562 14.956 16.7847 14.9583 17.0579C14.9641 17.7083 14.9641 18.3588 14.9583 19.0093C14.956 19.2836 14.8299 19.4143 14.5509 19.4178C13.9005 19.4259 13.25 19.4259 12.5995 19.4178C12.3252 19.4143 12.206 19.2766 12.2014 19.0012C12.1968 18.6759 12.2014 18.3507 12.2014 18.0255V18.0243ZM14.4387 18.897V17.1829H12.7303V18.897H14.4387Z" fill="#163DC7"/>
<path d="M12.2014 11.0775C12.2014 10.7674 12.1991 10.4583 12.2014 10.1481C12.2049 9.84143 12.3275 9.71296 12.6273 9.7118C13.2627 9.70833 13.8982 9.70833 14.5347 9.7118C14.8252 9.71296 14.956 9.83796 14.9595 10.1262C14.9653 10.7697 14.9653 11.4132 14.9595 12.0579C14.9572 12.3472 14.831 12.4687 14.5336 12.4711C13.8982 12.4757 13.2627 12.4768 12.6273 12.4711C12.3241 12.4687 12.206 12.3403 12.2025 12.0324C12.1991 11.7141 12.2025 11.397 12.2025 11.0787L12.2014 11.0775ZM14.4433 10.2431H12.7257V11.9421H14.4433V10.2431Z" fill="#163DC7"/>
<path d="M14.9618 14.5637C14.9618 14.8819 14.9664 15.1991 14.9606 15.5174C14.9549 15.8148 14.838 15.9398 14.5463 15.9421C13.9028 15.9479 13.2593 15.9479 12.6146 15.9421C12.3264 15.9398 12.2037 15.809 12.2025 15.5162C12.1991 14.8808 12.1991 14.2454 12.2025 13.6088C12.2037 13.309 12.3333 13.184 12.64 13.1829C13.2674 13.1806 13.8947 13.1806 14.522 13.1829C14.8275 13.1829 14.9549 13.3067 14.9595 13.6088C14.9653 13.9271 14.9606 14.2442 14.9606 14.5625L14.9618 14.5637ZM14.4398 13.7141H12.7257V15.4155H14.4398V13.7141Z" fill="#163DC7"/>
<path d="M17.9468 13.6759C18.6146 13.6759 19.2824 13.6782 19.9502 13.6748C20.14 13.6748 20.3125 13.7072 20.316 13.9317C20.3194 14.1597 20.1424 14.1956 19.956 14.1956C18.6204 14.1956 17.2847 14.1956 15.9479 14.1956C15.7639 14.1956 15.5845 14.169 15.5833 13.9375C15.5833 13.7095 15.7535 13.6748 15.9421 13.6748C16.61 13.6771 17.2778 13.6748 17.9456 13.6748L17.9468 13.6759Z" fill="#163DC7"/>
<path d="M17.9525 10.7234C17.3009 10.7234 16.6493 10.7234 15.9977 10.7234C15.9167 10.7234 15.8183 10.7361 15.7604 10.6967C15.684 10.6447 15.5926 10.5451 15.5926 10.4664C15.5926 10.3854 15.6817 10.2905 15.7546 10.2268C15.794 10.1921 15.8796 10.206 15.9444 10.206C17.2801 10.206 18.6157 10.206 19.9525 10.206C20.0012 10.206 20.0671 10.1886 20.0961 10.2141C20.1806 10.287 20.3067 10.3773 20.3079 10.4618C20.309 10.5451 20.1921 10.6759 20.1007 10.706C19.9676 10.75 19.8113 10.7245 19.6643 10.7257C19.0937 10.7257 18.5243 10.7257 17.9537 10.7257L17.9525 10.7234Z" fill="#163DC7"/>
<path d="M17.9479 17.147C18.6157 17.147 19.2836 17.1493 19.9514 17.1458C20.1412 17.1458 20.3137 17.1794 20.3171 17.4039C20.3206 17.632 20.1435 17.6667 19.956 17.6667C18.6204 17.6667 17.2847 17.6667 15.9491 17.6667C15.7639 17.6667 15.5856 17.6389 15.5845 17.4074C15.5845 17.1794 15.7558 17.1447 15.9444 17.1458C16.6123 17.1482 17.2801 17.1458 17.9479 17.1458V17.147Z" fill="#163DC7"/>
<path d="M17.9525 21.1389C17.3009 21.1389 16.6493 21.1389 15.9977 21.1389C15.9167 21.1389 15.8183 21.1528 15.7604 21.1134C15.684 21.0613 15.5926 20.9618 15.5926 20.8831C15.5926 20.8021 15.6817 20.7072 15.7546 20.6435C15.794 20.6088 15.8796 20.6215 15.9433 20.6215C17.2789 20.6215 18.6146 20.6215 19.9502 20.6215C19.9745 20.6215 19.9988 20.6215 20.0231 20.6215C20.1933 20.625 20.3137 20.7002 20.3171 20.8785C20.3206 21.059 20.1956 21.1377 20.0278 21.1389C19.6366 21.1435 19.2454 21.1412 18.8553 21.1412C18.5544 21.1412 18.2523 21.1412 17.9514 21.1412L17.9525 21.1389Z" fill="#163DC7"/>
<path d="M17.0729 14.8565C17.4549 14.8565 17.8368 14.8565 18.2187 14.8565C18.3993 14.8565 18.5567 14.9005 18.5613 15.1111C18.566 15.3218 18.4132 15.3785 18.2303 15.3785C17.4583 15.3785 16.6863 15.3785 15.9144 15.3785C15.7315 15.3785 15.5787 15.3218 15.5833 15.1111C15.588 14.8993 15.7465 14.8553 15.9259 14.8565C16.3079 14.8576 16.6898 14.8565 17.0718 14.8565H17.0729Z" fill="#163DC7"/>
<path d="M17.0949 21.8009C17.4688 21.8009 17.8426 21.8009 18.2164 21.8009C18.3958 21.8009 18.5567 21.8426 18.5613 22.0544C18.566 22.2813 18.3982 22.3252 18.2083 22.3241C17.4526 22.3229 16.6968 22.3229 15.941 22.3241C15.7523 22.3241 15.581 22.2847 15.5845 22.0579C15.588 21.8299 15.7627 21.7986 15.9491 21.7998C16.331 21.8021 16.713 21.7998 17.0949 21.7998V21.8009Z" fill="#163DC7"/>
<path d="M17.081 18.8507C16.6991 18.8507 16.3171 18.8507 15.9352 18.8507C15.7454 18.8507 15.5787 18.8067 15.5833 18.5799C15.588 18.3681 15.75 18.3275 15.9294 18.3275C16.6933 18.3275 17.4572 18.3275 18.2211 18.3275C18.4028 18.3275 18.559 18.375 18.5613 18.5856C18.5637 18.7963 18.4097 18.8507 18.2268 18.8507C17.8449 18.8507 17.463 18.8507 17.081 18.8507Z" fill="#163DC7"/>
<path d="M17.0475 11.9074C16.6736 11.9074 16.2998 11.9074 15.9259 11.9074C15.7454 11.9074 15.588 11.8611 15.5833 11.6505C15.5787 11.4398 15.7315 11.382 15.9144 11.382C16.6863 11.382 17.4583 11.382 18.2303 11.382C18.4132 11.382 18.566 11.4398 18.5602 11.6505C18.5556 11.8611 18.397 11.9074 18.2176 11.9074C17.8275 11.9074 17.4375 11.9074 17.0475 11.9074Z" fill="#163DC7"/>
<path d="M13.3692 21.5116C13.5463 21.3275 13.7072 21.1551 13.8727 20.9873C13.9919 20.8669 14.1308 20.8356 14.2593 20.9618C14.3889 21.088 14.3576 21.2268 14.2384 21.3484C14.0093 21.5799 13.7801 21.8102 13.5475 22.0382C13.4132 22.1701 13.2743 22.1643 13.1412 22.0336C13.0718 21.9653 13.0035 21.8947 12.934 21.8264C12.8137 21.7072 12.7766 21.5718 12.8947 21.4375C13.0046 21.3125 13.1377 21.3264 13.2627 21.4294C13.287 21.4502 13.3137 21.4687 13.3681 21.5104L13.3692 21.5116Z" fill="#163DC7"/>
<path d="M13.3762 18.0405C13.5405 17.8657 13.7002 17.6921 13.8646 17.5231C13.9896 17.3935 14.1354 17.3576 14.2685 17.4988C14.3935 17.6308 14.3484 17.7674 14.2303 17.8854C14.0058 18.1099 13.7812 18.3345 13.5567 18.5579C13.4132 18.7002 13.272 18.6933 13.1319 18.5521C13.0637 18.4826 12.9942 18.4132 12.9259 18.3437C12.8137 18.2303 12.7847 18.0995 12.8889 17.9734C12.9942 17.8461 13.1262 17.8495 13.2558 17.9502C13.287 17.9745 13.3194 17.9965 13.3762 18.0393V18.0405Z" fill="#163DC7"/>
<path d="M13.3681 11.0938C13.5451 10.9086 13.7072 10.7373 13.8727 10.5695C13.9919 10.4491 14.1319 10.419 14.2593 10.5452C14.3877 10.6725 14.3565 10.8114 14.2373 10.9317C14.0081 11.1632 13.7778 11.3935 13.5463 11.6215C13.4109 11.7546 13.2731 11.7465 13.14 11.6158C13.0706 11.5475 13.0035 11.4769 12.934 11.4074C12.8125 11.2882 12.7778 11.1516 12.8958 11.0197C13.0069 10.8958 13.1389 10.9109 13.2639 11.0127C13.2882 11.0336 13.3148 11.0521 13.3669 11.0926L13.3681 11.0938Z" fill="#163DC7"/>
<path d="M13.3727 14.5637C13.5451 14.3831 13.706 14.2107 13.8715 14.044C13.9907 13.9236 14.1296 13.8912 14.2581 14.0174C14.3877 14.1435 14.3588 14.2824 14.2396 14.4039C14.0116 14.6354 13.7801 14.8657 13.5486 15.0938C13.4143 15.2269 13.2766 15.2211 13.1424 15.0903C13.0729 15.022 13.0046 14.9526 12.9352 14.8831C12.8148 14.7639 12.7766 14.6273 12.8958 14.4954C13.0162 14.36 13.1551 14.3877 13.2824 14.5023C13.2998 14.5185 13.3218 14.5301 13.3738 14.5648L13.3727 14.5637Z" fill="#163DC7"/>
</g>
<defs>
<clipPath id="clip0_1_20">
<rect width="25" height="25" fill="white"/>
</clipPath>
</defs>
</svg>
