<svg width="25" height="25" viewBox="0 0 25 25" fill="none" xmlns="http://www.w3.org/2000/svg">
<g clip-path="url(#clip0_6727_2394)">
<path d="M23.9967 23.964L22.8907 17.4893C22.7715 16.7917 22.2767 16.2313 21.5991 16.0269L18.6161 15.1268C18.5543 14.3976 18.2553 13.7097 17.7578 13.1651C17.3598 12.7296 16.8592 12.4125 16.3074 12.2375C16.4018 12.1327 16.4894 12.0282 16.5697 11.9261C17.279 11.0239 17.6588 10.0299 17.7555 9.35166H17.9856C18.5842 9.35166 19.0711 8.86475 19.0711 8.26616V7.70972C19.0711 7.31026 18.8464 6.94829 18.5085 6.76045V5.42237C18.5085 5.22017 18.3446 5.05625 18.1424 5.05625C17.9402 5.05625 17.7763 5.22012 17.7763 5.42237V6.92451C17.6337 6.94927 17.4636 6.99204 17.2896 7.06533C17.2718 7.07183 17.2544 7.07935 17.238 7.08838C17.1987 7.1063 17.1594 7.1252 17.1202 7.14649V4.19619C17.1202 3.3811 16.4571 2.71802 15.642 2.71802H14.6315C14.283 2.71802 13.9425 2.83945 13.6727 3.06006L13.5735 3.14111C13.3914 3.29004 13.1615 3.37207 12.9262 3.37207C12.6909 3.37207 12.4609 3.29004 12.2788 3.14111L12.1797 3.06006C11.9099 2.8395 11.5694 2.71802 11.2208 2.71802H10.2103C9.39517 2.71802 8.73208 3.3811 8.73208 4.19619V7.14649C8.69287 7.1252 8.65352 7.1063 8.61421 7.08838C8.5978 7.07935 8.58052 7.07183 8.5627 7.06533C8.38867 6.99204 8.21851 6.94927 8.07598 6.92451V3.12622C8.07598 1.94077 9.04043 0.976319 10.2259 0.976319H15.6263C16.8118 0.976319 17.7762 1.94077 17.7762 3.12622L17.7763 5.54199C17.7763 5.74419 17.9319 5.63965 18.134 5.63965C18.3362 5.63965 18.5085 5.69541 18.5085 5.49317L18.5084 3.12622C18.5084 1.53706 17.2155 0.244141 15.6263 0.244141H10.2259C8.63667 0.244141 7.3438 1.53706 7.3438 3.12622V6.7605C7.00586 6.94834 6.78115 7.31026 6.78115 7.70977V8.26621C6.78115 8.8648 7.26812 9.35171 7.86665 9.35171H8.09678C8.19341 10.03 8.57324 11.0239 9.28262 11.9261C9.36284 12.0282 9.45034 12.1325 9.54468 12.2372C8.27612 12.6401 7.35103 13.7807 7.23623 15.1268L4.25313 16.0269C3.57554 16.2313 3.08062 16.7917 2.96148 17.4893L2.51236 20.1186C2.47832 20.3179 2.61231 20.507 2.81158 20.5411C3.01079 20.5752 3.2 20.4412 3.23409 20.2419L3.68321 17.6125C3.75528 17.1904 4.05469 16.8515 4.4646 16.7278L7.22363 15.8954V16.6195C6.59121 16.7359 6.05308 17.1704 5.83145 17.7723C5.77261 17.932 5.73604 18.0993 5.72276 18.2694L5.45611 21.692C5.43599 21.9499 5.5252 22.2066 5.70073 22.3963C5.87627 22.586 6.12525 22.6949 6.38379 22.6949H6.84024C7.04243 22.6949 7.20635 22.5311 7.20635 22.3288C7.20635 22.1266 7.04243 21.9628 6.84024 21.9628H6.38379C6.32866 21.9628 6.27564 21.9396 6.23819 21.8991C6.20078 21.8586 6.18179 21.804 6.18609 21.749L6.45274 18.3264C6.46079 18.2233 6.48291 18.122 6.51856 18.0253C6.67276 17.6065 7.08916 17.323 7.55484 17.3197L7.61514 17.3193C7.61797 17.3192 7.62075 17.3192 7.62354 17.3192C8.07612 17.3192 8.47676 17.5759 8.64575 17.9749C8.69317 18.0867 8.72197 18.205 8.73145 18.3264L8.99819 21.7491C9.00244 21.804 8.98345 21.8586 8.94605 21.8991C8.90864 21.9396 8.85557 21.9628 8.80044 21.9628H8.344C8.1418 21.9628 7.97788 22.1266 7.97788 22.3288C7.97788 22.531 8.1418 22.6949 8.344 22.6949H8.80044C9.05899 22.6949 9.30801 22.5861 9.4835 22.3963C9.65908 22.2065 9.74829 21.9498 9.72817 21.6921L9.46143 18.2694C9.4458 18.0691 9.39819 17.8739 9.31992 17.6892C9.07876 17.12 8.56309 16.7242 7.95576 16.6171V15.6745L9.21426 15.2947C9.32876 15.5359 9.55566 16.057 10.0051 17.1804C10.4581 18.3139 11.0211 19.7668 11.5611 21.1792C11.565 21.1911 11.5694 21.2026 11.5744 21.214C11.9348 22.1569 12.2843 23.0804 12.5833 23.8771C12.6369 24.02 12.7735 24.1146 12.9261 24.1146C13.0787 24.1146 13.2152 24.02 13.2688 23.8771C13.5678 23.0804 13.9173 22.1569 14.2777 21.214C14.2828 21.2026 14.2872 21.191 14.291 21.1792C14.8306 19.7676 15.3934 18.3157 15.8461 17.1825C16.2962 16.0577 16.5233 15.5361 16.6378 15.2947L17.8963 15.6745V17.8368C17.0244 18.0062 16.3639 18.7752 16.3639 19.6961C16.3639 20.7405 17.2136 21.5903 18.2581 21.5903C19.3027 21.5903 20.1524 20.7406 20.1524 19.6961C20.1524 18.7783 19.4963 18.0111 18.6285 17.8384V15.8954L21.3876 16.7279C21.7975 16.8515 22.0969 17.1905 22.169 17.6126L23.2749 24.0873C23.2933 24.1947 23.2647 24.2997 23.1945 24.3829C23.1243 24.4661 23.0256 24.512 22.9166 24.512H2.9355C2.82657 24.512 2.72793 24.4662 2.65767 24.3829C2.58745 24.2997 2.55884 24.1947 2.5772 24.0873L3.27623 19.9951C3.31026 19.7958 3.16075 19.5653 2.96148 19.5313C2.76226 19.4971 2.59255 19.6494 2.55847 19.8486L1.85547 23.9641C1.80103 24.283 1.88946 24.6078 2.09805 24.8551C2.30674 25.1024 2.61197 25.2441 2.9355 25.2441H22.9166C23.2402 25.2441 23.5455 25.1024 23.7541 24.855C23.9627 24.6077 24.0511 24.283 23.9967 23.964ZM17.7806 7.67036C17.9757 7.62173 18.1323 7.62261 18.134 7.62266C18.1971 7.62349 18.2584 7.60874 18.3129 7.58018C18.3292 7.62075 18.3389 7.66436 18.3389 7.70977V8.26621C18.3389 8.46104 18.1804 8.61953 17.9855 8.61953H17.7806V7.67036ZM8.07153 8.61953H7.8666C7.67178 8.61953 7.51328 8.46104 7.51328 8.26621V7.70977C7.51328 7.66436 7.52295 7.62075 7.53921 7.58023C7.59365 7.60879 7.65498 7.62354 7.71812 7.62266C7.7209 7.62315 7.87705 7.62227 8.07153 7.67056V8.61953ZM8.80371 9.03003V8.06822C8.91465 8.10147 9.03599 8.09693 9.148 8.0502C9.34014 7.97002 9.46426 7.78384 9.46426 7.57578V4.19619C9.46426 3.78486 9.79893 3.4502 10.2103 3.4502H11.2208C11.4008 3.4502 11.5768 3.51294 11.7162 3.62691L11.8153 3.70796C12.1278 3.96353 12.5223 4.1042 12.9261 4.1042C13.3298 4.1042 13.7243 3.96348 14.0369 3.70796L14.136 3.62691C14.2753 3.51294 14.4513 3.4502 14.6314 3.4502H15.6419C16.0532 3.4502 16.3879 3.78486 16.3879 4.19619V7.57583C16.3879 7.78384 16.512 7.97007 16.7041 8.05025C16.7683 8.077 16.8355 8.08999 16.9021 8.08999C16.9518 8.08999 17.001 8.08272 17.0484 8.06856V9.03003C17.0484 9.56455 16.6789 10.6025 15.994 11.4735C15.7672 11.7621 15.4756 12.072 15.1165 12.3429C15.1052 12.3505 15.0943 12.3588 15.0839 12.3676C14.5277 12.7788 13.8125 13.0939 12.9261 13.0939C12.0396 13.0939 11.3245 12.7788 10.7682 12.3675C10.7578 12.3588 10.747 12.3505 10.7356 12.343C10.3766 12.072 10.085 11.7621 9.85811 11.4735C9.17329 10.6026 8.80371 9.56455 8.80371 9.03003ZM15.3245 14.9448L12.9261 16.7375L10.5276 14.9448C10.7655 14.6425 10.8987 14.2545 10.8987 13.9082V13.3181C11.4627 13.6214 12.1357 13.8261 12.9261 13.8261C13.7164 13.8261 14.3895 13.6214 14.9534 13.3181V13.9082C14.9534 14.2545 15.0867 14.6425 15.3245 14.9448ZM9.91665 14.5362C9.72114 14.4617 9.5044 14.4495 9.29937 14.5051C9.29038 14.5072 9.28159 14.5096 9.27305 14.5122L8.00825 14.8938C8.22217 13.8419 9.07627 13.0047 10.1666 12.8426V13.9082C10.1666 14.1379 10.064 14.3753 9.91665 14.5362ZM10.9103 17.4751C10.9096 17.4733 10.9089 17.4716 10.9083 17.47C10.8897 17.4231 10.8714 17.3768 10.8532 17.331C10.85 17.3227 10.8467 17.3145 10.8434 17.3063C10.8256 17.2615 10.808 17.217 10.7906 17.1733C10.7894 17.1703 10.7882 17.1672 10.787 17.1641C10.7327 17.0277 10.6804 16.8969 10.6301 16.7716C10.6265 16.7625 10.6228 16.7533 10.6191 16.7442C10.6047 16.7083 10.5905 16.6729 10.5764 16.6379C10.5712 16.6251 10.5661 16.6124 10.5609 16.5997C10.5473 16.5658 10.5337 16.5321 10.5203 16.4992C10.5163 16.4893 10.5124 16.4797 10.5084 16.4699C10.4842 16.4101 10.4604 16.3517 10.4373 16.2948C10.4311 16.2794 10.4247 16.2638 10.4185 16.2486C10.4094 16.2264 10.4005 16.2048 10.3917 16.1831C10.3821 16.1597 10.3725 16.1364 10.3631 16.1136C10.3596 16.105 10.356 16.096 10.3524 16.0875C10.3496 16.0807 10.347 16.0744 10.3442 16.0676C10.302 15.9648 10.2618 15.868 10.2236 15.777C10.2233 15.7762 10.223 15.7755 10.2227 15.7748C10.2024 15.7263 10.1825 15.6789 10.1634 15.6338C10.1535 15.6104 10.1438 15.5874 10.1342 15.5648L12.1969 17.1065L11.335 17.4727C11.3335 17.4733 11.3319 17.474 11.3304 17.4747L10.9706 17.6275C10.9501 17.5759 10.9302 17.5253 10.9103 17.4751ZM11.7838 19.7167C11.7115 19.529 11.6386 19.3403 11.5656 19.1518C11.4515 18.8569 11.3424 18.5765 11.2381 18.3094L11.3747 18.2514L11.9329 18.9002L11.7838 19.7167ZM12.9332 22.6921C12.9227 22.6704 12.9102 22.6498 12.8957 22.6307C12.7303 22.1934 12.5203 21.6401 12.2879 21.0314L12.6297 19.1601H13.2224L13.5642 21.0314C13.3207 21.6691 13.102 22.2458 12.9332 22.6921ZM13.3597 18.4279H12.4924L12.082 17.9509L12.9261 17.5923L13.7701 17.9509L13.3597 18.4279ZM14.2865 19.1518C14.2135 19.3403 14.1407 19.529 14.0684 19.7167L13.9192 18.9002L14.4774 18.2513L14.6141 18.3094C14.5097 18.5765 14.4007 18.8569 14.2865 19.1518ZM15.6888 15.6338C15.6707 15.6766 15.6518 15.7214 15.6326 15.7672C15.6301 15.7732 15.6276 15.7792 15.6251 15.7852C15.6061 15.8306 15.5868 15.877 15.5667 15.9253C15.5654 15.9285 15.5641 15.9318 15.5627 15.9351C15.5455 15.9767 15.5277 16.0197 15.5097 16.0635C15.5063 16.0717 15.5032 16.0793 15.4998 16.0875C15.4958 16.0973 15.4915 16.1077 15.4874 16.1176C15.4794 16.1372 15.4713 16.1571 15.4631 16.177C15.453 16.2016 15.443 16.226 15.4327 16.2512C15.4294 16.2592 15.4261 16.2675 15.4228 16.2756C15.3973 16.338 15.3711 16.4024 15.3443 16.4685C15.3401 16.4789 15.336 16.489 15.3318 16.4995C15.3186 16.5322 15.3051 16.5655 15.2916 16.5991C15.2863 16.6122 15.281 16.6253 15.2756 16.6386C15.2617 16.6732 15.2476 16.7083 15.2333 16.7438C15.2293 16.7537 15.2252 16.7639 15.2212 16.7738C15.1716 16.8975 15.1201 17.0264 15.0666 17.1608C15.0648 17.1652 15.0631 17.1696 15.0613 17.1741C15.044 17.2175 15.0266 17.2616 15.0089 17.3061C15.0056 17.3144 15.0023 17.3227 14.999 17.3311C14.9807 17.3771 14.9623 17.4235 14.9437 17.4708C14.9433 17.4716 14.943 17.4725 14.9426 17.4733C14.9225 17.5242 14.9023 17.5754 14.8817 17.6276L14.5215 17.4746C14.5202 17.4741 14.5189 17.4735 14.5177 17.473L13.6553 17.1066L15.7181 15.5649C15.7084 15.5874 15.6986 15.6104 15.6888 15.6338ZM16.5791 14.5122L16.5789 14.5122C16.5786 14.5121 16.5783 14.512 16.578 14.5119C16.3656 14.4481 16.139 14.4587 15.9355 14.5362C15.7881 14.3753 15.6856 14.1379 15.6856 13.9082V12.842C16.7828 13.0038 17.6343 13.8331 17.8454 14.8942L16.5791 14.5122ZM19.4203 19.6961C19.4203 20.3369 18.8989 20.8582 18.2581 20.8582C17.6174 20.8582 17.096 20.3369 17.096 19.6961C17.096 19.0552 17.6174 18.5339 18.2581 18.5339C18.8989 18.5339 19.4203 19.0552 19.4203 19.6961Z" fill="#FD8C04"/>
</g>
<defs>
<clipPath id="clip0_6727_2394">
<rect width="25" height="25" fill="white"/>
</clipPath>
</defs>
</svg>
