<svg width="19" height="20" viewBox="0 0 19 20" fill="none" xmlns="http://www.w3.org/2000/svg">
<path d="M9.03322 0.00399054C9.14495 0.0917824 9.26467 0.167603 9.36044 0.267366C10.7013 1.66805 12.0341 3.07272 13.3749 4.4734C13.5186 4.62504 13.5864 4.78466 13.5864 4.99616C13.5824 6.12947 13.5864 7.26677 13.5864 8.40009V8.59163C13.9855 8.73529 14.3845 8.84304 14.7477 9.01463C16.6192 9.90452 17.7645 11.369 18.0638 13.4282C18.4669 16.1976 16.7709 18.8393 14.0972 19.6654C11.663 20.4196 9.01725 19.4579 7.63254 17.315C7.55272 17.1912 7.46892 17.1474 7.32127 17.1474C5.66121 17.1513 4.00114 17.1513 2.34108 17.1474C1.28358 17.1474 0.445571 16.5887 0.134309 15.6549C0.0544983 15.4155 0.00661174 15.1481 0.00661174 14.8927C-0.00136934 10.6867 -0.00136934 6.47665 0.00262121 2.27062C0.00262121 1.12533 0.752843 0.239432 1.87818 0.0319243C1.90212 0.0279338 1.92207 0.0119716 1.94601 0C4.30841 0 6.66682 0 9.02922 0L9.03322 0.00399054ZM7.85202 10.7585C7.74028 10.7585 7.66446 10.7585 7.58864 10.7585C6.23186 10.7585 4.87906 10.7585 3.52228 10.7585C3.14318 10.7585 2.95961 10.6228 2.95163 10.3515C2.94764 10.0721 3.14318 9.92447 3.52228 9.92447C5.16239 9.92447 6.8025 9.92447 8.44261 9.92048C8.55435 9.92048 8.68604 9.8726 8.76984 9.80476C9.57992 9.16228 10.4818 8.73529 11.5034 8.58365C11.9024 8.52379 12.3134 8.51581 12.7324 8.4799V5.27549C12.6526 5.27549 12.5848 5.27549 12.517 5.27549C11.8426 5.27549 11.1682 5.27949 10.4938 5.27549C10.2942 5.27549 10.0867 5.26352 9.89517 5.21165C9.02523 4.9762 8.51844 4.29781 8.51045 3.376C8.50646 2.60582 8.51045 1.83166 8.51045 1.06148C8.51045 0.993645 8.51045 0.921815 8.51045 0.842004C8.43064 0.838013 8.37478 0.830032 8.31891 0.830032C6.31965 0.830032 4.32438 0.830032 2.32512 0.830032C2.16948 0.830032 2.01385 0.845995 1.8662 0.8859C1.19579 1.07346 0.824673 1.6042 0.820682 2.3624C0.820682 6.50458 0.820682 10.6468 0.820682 14.7929C0.820682 14.9486 0.832654 15.1042 0.872559 15.2558C1.04814 15.9302 1.5709 16.3133 2.33709 16.3173C3.86147 16.3213 5.38586 16.3173 6.91025 16.3173C6.96612 16.3173 7.01799 16.3093 7.09381 16.3014C6.87832 15.7387 6.75462 15.18 6.71072 14.6014C6.66683 14.0228 6.72668 13.4561 6.8464 12.8775H6.61096C5.57342 12.8775 4.53588 12.8775 3.49833 12.8775C3.41054 12.8775 3.31477 12.8695 3.23097 12.8455C3.04341 12.7937 2.93567 12.6301 2.94764 12.4345C2.95961 12.243 3.0913 12.0913 3.28285 12.0634C3.36665 12.0514 3.45045 12.0474 3.53425 12.0474C4.66756 12.0474 5.80487 12.0474 6.93818 12.0474C7.07386 12.0474 7.13771 12.0035 7.20156 11.8798C7.36118 11.5686 7.54075 11.2693 7.71634 10.966C7.75225 10.9061 7.78817 10.8463 7.84403 10.7545L7.85202 10.7585ZM12.4132 19.0947C15.0909 19.0987 17.2817 16.9119 17.2896 14.2223C17.2976 11.5406 15.1188 9.34984 12.4292 9.33786C9.74353 9.32589 7.53676 11.5287 7.54075 14.2183C7.54075 16.9039 9.73156 19.0907 12.4132 19.0947ZM12.1818 4.44147C11.224 3.43186 10.3022 2.46615 9.34847 1.46054C9.34847 2.17085 9.33251 2.8253 9.35246 3.47975C9.36842 4.03444 9.79541 4.4295 10.3501 4.43748C10.8489 4.44546 11.3477 4.43748 11.8465 4.43748C11.9423 4.43748 12.0341 4.43748 12.1778 4.43748L12.1818 4.44147Z" fill="#003761"/>
<path d="M5.47353 8.67924C4.78716 8.67924 4.10078 8.67924 3.41441 8.67924C3.22286 8.67924 3.06723 8.60741 2.99141 8.42784C2.92357 8.2762 2.93155 8.10061 3.06324 7.99686C3.17099 7.91306 3.33061 7.85719 3.46629 7.85719C4.16463 7.84522 4.86697 7.84921 5.56531 7.84921C6.20779 7.84921 6.84628 7.84921 7.48875 7.84921C7.68429 7.84921 7.8479 7.90508 7.93968 8.08864C8.07935 8.37197 7.86785 8.67126 7.51669 8.67525C7.01787 8.67924 6.51905 8.67525 6.02023 8.67525C5.84066 8.67525 5.6571 8.67525 5.47752 8.67525L5.47353 8.67924Z" fill="#003761"/>
<path d="M12.0061 15.8942V15.6627C12.0061 14.302 12.0061 12.9412 12.0061 11.5764C12.0061 11.2492 12.1059 11.0896 12.3373 11.0377C12.5408 10.9898 12.7523 11.1095 12.8082 11.3091C12.8321 11.4008 12.8401 11.5006 12.8401 11.5964C12.8401 12.9651 12.8401 14.3339 12.8401 15.6986C12.8401 15.7665 12.8401 15.8343 12.8401 15.9022C12.8601 15.9141 12.876 15.9261 12.896 15.9341C12.9319 15.8822 12.9638 15.8263 13.0037 15.7824C13.4826 15.2637 13.9655 14.7449 14.4443 14.2261C14.5002 14.1663 14.564 14.1064 14.6319 14.0585C14.7875 13.9588 14.983 13.9787 15.1187 14.0984C15.2584 14.2261 15.2943 14.4257 15.1985 14.5933C15.1586 14.6611 15.1107 14.721 15.0549 14.7768C14.3007 15.5909 13.5464 16.401 12.7882 17.2111C12.5249 17.4944 12.2934 17.4944 12.03 17.2111C11.2678 16.397 10.5057 15.5829 9.75144 14.7609C9.66764 14.6691 9.60379 14.5454 9.57985 14.4257C9.54393 14.266 9.63172 14.1383 9.7674 14.0506C9.90707 13.9628 10.0547 13.9668 10.1904 14.0506C10.2622 14.0944 10.3221 14.1543 10.378 14.2182C10.8608 14.7329 11.3437 15.2477 11.8265 15.7665C11.8704 15.8144 11.8984 15.8702 11.9343 15.9221C11.9542 15.9101 11.9782 15.8942 11.9981 15.8822L12.0061 15.8942Z" fill="#003761"/>
</svg>
