<svg width="18" height="18" viewBox="0 0 18 18" fill="none" xmlns="http://www.w3.org/2000/svg">
<path d="M16.6966 9.54621H16.1721V4.20517C16.1721 4.12286 16.1394 4.04393 16.0812 3.98573C16.023 3.92752 15.944 3.89483 15.8617 3.89483H15.2069V3.10345C15.2069 3.02114 15.1742 2.9422 15.116 2.884C15.0578 2.8258 14.9789 2.7931 14.8966 2.7931H14.4434V0.310345C14.4434 0.228036 14.4108 0.149099 14.3526 0.0908979C14.2944 0.0326969 14.2154 0 14.1331 0C14.0508 0 13.9719 0.0326969 13.9137 0.0908979C13.8555 0.149099 13.8228 0.228036 13.8228 0.310345V2.7931H13.3728C13.2905 2.7931 13.2115 2.8258 13.1533 2.884C13.0951 2.9422 13.0624 3.02114 13.0624 3.10345V3.89483H12.4138C12.3315 3.89483 12.2525 3.92752 12.1943 3.98573C12.1361 4.04393 12.1034 4.12286 12.1034 4.20517V9.54621H10.6634V6.69414C10.6617 6.37455 10.5636 6.06292 10.382 5.79994C10.2004 5.53696 9.94376 5.33485 9.64552 5.22L9.06828 5.00276C8.85431 4.9212 8.67008 4.77671 8.53988 4.58835C8.40969 4.39998 8.33963 4.17657 8.33897 3.94759V3.06621H8.62138C8.70369 3.06621 8.78263 3.03351 8.84083 2.97531C8.89903 2.91711 8.93172 2.83817 8.93172 2.75586V0.310345C8.93172 0.228036 8.89903 0.149099 8.84083 0.0908979C8.78263 0.0326969 8.70369 0 8.62138 0H2.04207C1.95976 0 1.88082 0.0326969 1.82262 0.0908979C1.76442 0.149099 1.73172 0.228036 1.73172 0.310345V2.75586C1.73172 2.83817 1.76442 2.91711 1.82262 2.97531C1.88082 3.03351 1.95976 3.06621 2.04207 3.06621H2.32448V3.94759C2.32381 4.17657 2.25376 4.39998 2.12357 4.58835C1.99337 4.77671 1.80914 4.9212 1.59517 5.00276L1.01793 5.22C0.719691 5.33485 0.463014 5.53696 0.281418 5.79994C0.0998214 6.06292 0.00174643 6.37455 0 6.69414V16.2279C0 16.6979 0.1867 17.1486 0.519027 17.481C0.683579 17.6455 0.87893 17.7761 1.09393 17.8651C1.30892 17.9542 1.53936 18 1.77207 18H16.6966C17.0422 18 17.3738 17.8627 17.6182 17.6182C17.8627 17.3738 18 17.0422 18 16.6966V10.8621C18.0012 10.69 17.9684 10.5193 17.9035 10.3599C17.8386 10.2005 17.7428 10.0555 17.6217 9.93327C17.5006 9.811 17.3565 9.71386 17.1978 9.64744C17.039 9.58101 16.8687 9.54661 16.6966 9.54621ZM2.35241 0.62069H8.31104V2.44552H2.35241V0.62069ZM13.6831 3.41379H14.5862V3.89483H13.6831V3.41379ZM12.7241 4.51552H15.5576V5.63276H14.8034C14.7211 5.63276 14.6422 5.66546 14.584 5.72366C14.5258 5.78186 14.4931 5.86079 14.4931 5.9431C14.4931 6.02541 14.5258 6.10435 14.584 6.16255C14.6422 6.22075 14.7211 6.25345 14.8034 6.25345H15.5514V7.06345H14.161C14.0787 7.06345 13.9998 7.09614 13.9416 7.15435C13.8834 7.21255 13.8507 7.29148 13.8507 7.37379C13.8507 7.4561 13.8834 7.53504 13.9416 7.59324C13.9998 7.65144 14.0787 7.68414 14.161 7.68414H15.5514V8.49414H14.8034C14.7211 8.49414 14.6422 8.52683 14.584 8.58504C14.5258 8.64324 14.4931 8.72217 14.4931 8.80448C14.4931 8.88679 14.5258 8.96573 14.584 9.02393C14.6422 9.08213 14.7211 9.11483 14.8034 9.11483H15.5514V9.54621H12.7241V4.51552ZM4.09655 9.54621C3.92445 9.54661 3.75412 9.58101 3.59535 9.64744C3.43658 9.71386 3.2925 9.811 3.17138 9.93327C3.05026 10.0555 2.9545 10.2005 2.88958 10.3599C2.82466 10.5193 2.79188 10.69 2.7931 10.8621V13.4752H0.62069V7.66241H10.0428V9.54621H4.09655ZM1.24138 5.80345L1.81552 5.58621C2.14721 5.45995 2.43278 5.23601 2.63448 4.94398C2.83618 4.65196 2.94452 4.3056 2.94517 3.95069V3.06621H7.71828V3.94759C7.7183 4.30303 7.82634 4.65006 8.02809 4.9427C8.22983 5.23534 8.51575 5.45976 8.84793 5.58621L9.42517 5.80655C9.60676 5.87454 9.76338 5.99615 9.87424 6.15523C9.9851 6.31431 10.045 6.50334 10.0459 6.69724V7.04483H0.62069V6.69414C0.6216 6.50024 0.681456 6.31121 0.792315 6.15212C0.903174 5.99304 1.05979 5.87144 1.24138 5.80345ZM0.62069 16.2279V14.0834H2.7931V16.6966C2.79359 16.9383 2.86245 17.175 2.99172 17.3793H1.77207C1.4667 17.3793 1.17385 17.258 0.957921 17.0421C0.741995 16.8262 0.62069 16.5333 0.62069 16.2279ZM17.3793 16.6966C17.3785 16.8774 17.3063 17.0506 17.1784 17.1784C17.0506 17.3063 16.8774 17.3785 16.6966 17.3793H4.09655C3.91572 17.3785 3.74254 17.3063 3.61467 17.1784C3.4868 17.0506 3.41461 16.8774 3.41379 16.6966V10.8621C3.41461 10.6812 3.4868 10.5081 3.61467 10.3802C3.74254 10.2523 3.91572 10.1801 4.09655 10.1793H16.6966C16.8774 10.1801 17.0506 10.2523 17.1784 10.3802C17.3063 10.5081 17.3785 10.6812 17.3793 10.8621V16.6966Z" fill="#FD8C04"/>
<path d="M5.29757 10.9552C5.04285 10.9552 4.79384 11.0307 4.58204 11.1722C4.37024 11.3138 4.20516 11.5149 4.10768 11.7502C4.0102 11.9856 3.9847 12.2445 4.03439 12.4944C4.08409 12.7442 4.20675 12.9737 4.38687 13.1538C4.56699 13.3339 4.79648 13.4566 5.04631 13.5063C5.29615 13.556 5.55511 13.5305 5.79044 13.433C6.02578 13.3355 6.22693 13.1705 6.36845 12.9587C6.50997 12.7469 6.58551 12.4978 6.58551 12.2431C6.58551 11.9015 6.44981 11.5739 6.20828 11.3324C5.96675 11.0909 5.63916 10.9552 5.29757 10.9552ZM5.29757 12.9104C5.16561 12.9104 5.0366 12.8712 4.92688 12.7979C4.81715 12.7246 4.73163 12.6204 4.68112 12.4985C4.63062 12.3765 4.61741 12.2424 4.64315 12.1129C4.6689 11.9835 4.73245 11.8646 4.82576 11.7713C4.91908 11.678 5.03797 11.6144 5.1674 11.5887C5.29684 11.563 5.43099 11.5762 5.55292 11.6267C5.67484 11.6772 5.77905 11.7627 5.85237 11.8724C5.92568 11.9821 5.96482 12.1111 5.96482 12.2431C5.964 12.4198 5.89344 12.5891 5.76848 12.714C5.64353 12.839 5.47429 12.9095 5.29757 12.9104Z" fill="#FD8C04"/>
<path d="M5.29759 14.0183C5.04273 14.0183 4.79359 14.0939 4.58173 14.2355C4.36986 14.3772 4.20479 14.5785 4.1074 14.814C4.01001 15.0496 3.98469 15.3087 4.03463 15.5586C4.08458 15.8085 4.20755 16.038 4.38798 16.218C4.56842 16.398 4.79819 16.5204 5.04823 16.5698C5.29827 16.6191 5.55733 16.5932 5.79261 16.4952C6.02789 16.3972 6.22883 16.2317 6.36997 16.0195C6.51112 15.8073 6.58613 15.558 6.58552 15.3031C6.5847 14.9621 6.44864 14.6353 6.2072 14.3944C5.96575 14.1535 5.63863 14.0183 5.29759 14.0183ZM5.29759 15.9703C5.16562 15.9703 5.03661 15.9312 4.92689 15.8579C4.81716 15.7846 4.73164 15.6804 4.68114 15.5584C4.63063 15.4365 4.61742 15.3024 4.64317 15.1729C4.66891 15.0435 4.73246 14.9246 4.82578 14.8313C4.91909 14.738 5.03798 14.6744 5.16741 14.6487C5.29685 14.6229 5.43101 14.6361 5.55293 14.6866C5.67485 14.7371 5.77906 14.8227 5.85238 14.9324C5.9257 15.0421 5.96483 15.1711 5.96483 15.3031C5.96483 15.4801 5.89453 15.6498 5.7694 15.7749C5.64427 15.9 5.47455 15.9703 5.29759 15.9703Z" fill="#FD8C04"/>
<path d="M8.68965 10.9552C8.43492 10.9552 8.18591 11.0307 7.97411 11.1722C7.76231 11.3138 7.59724 11.5149 7.49976 11.7502C7.40228 11.9856 7.37677 12.2445 7.42647 12.4944C7.47616 12.7442 7.59882 12.9737 7.77894 13.1538C7.95907 13.3339 8.18855 13.4566 8.43839 13.5063C8.68822 13.556 8.94718 13.5305 9.18252 13.433C9.41786 13.3355 9.61901 13.1705 9.76053 12.9587C9.90205 12.7469 9.97758 12.4978 9.97758 12.2431C9.97758 11.9015 9.84189 11.5739 9.60035 11.3324C9.35882 11.0909 9.03123 10.9552 8.68965 10.9552ZM8.68965 12.9104C8.55768 12.9104 8.42868 12.8712 8.31895 12.7979C8.20922 12.7246 8.1237 12.6204 8.0732 12.4985C8.0227 12.3765 8.00948 12.2424 8.03523 12.1129C8.06098 11.9835 8.12452 11.8646 8.21784 11.7713C8.31115 11.678 8.43005 11.6144 8.55948 11.5887C8.68891 11.563 8.82307 11.5762 8.94499 11.6267C9.06691 11.6772 9.17112 11.7627 9.24444 11.8724C9.31776 11.9821 9.35689 12.1111 9.35689 12.2431C9.35689 12.3307 9.33963 12.4175 9.3061 12.4985C9.27257 12.5794 9.22342 12.653 9.16146 12.7149C9.0995 12.7769 9.02595 12.826 8.94499 12.8596C8.86404 12.8931 8.77727 12.9104 8.68965 12.9104Z" fill="#FD8C04"/>
<path d="M8.68965 14.0183C8.43479 14.0183 8.18565 14.0939 7.97379 14.2355C7.76192 14.3772 7.59685 14.5785 7.49946 14.814C7.40207 15.0496 7.37675 15.3087 7.42669 15.5586C7.47664 15.8085 7.59961 16.038 7.78004 16.218C7.96048 16.398 8.19025 16.5204 8.44029 16.5698C8.69033 16.6191 8.94939 16.5932 9.18467 16.4952C9.41995 16.3972 9.62089 16.2317 9.76203 16.0195C9.90318 15.8073 9.97819 15.558 9.97758 15.3031C9.97676 14.9621 9.8407 14.6353 9.59925 14.3944C9.35781 14.1535 9.03069 14.0183 8.68965 14.0183ZM8.68965 15.9703C8.55768 15.9703 8.42867 15.9312 8.31895 15.8579C8.20922 15.7846 8.1237 15.6804 8.0732 15.5584C8.02269 15.4365 8.00948 15.3024 8.03523 15.1729C8.06097 15.0435 8.12452 14.9246 8.21784 14.8313C8.31115 14.738 8.43004 14.6744 8.55947 14.6487C8.68891 14.6229 8.82307 14.6361 8.94499 14.6866C9.06691 14.7371 9.17112 14.8227 9.24444 14.9324C9.31775 15.0421 9.35689 15.1711 9.35689 15.3031C9.3573 15.3908 9.34032 15.4778 9.30693 15.5589C9.27355 15.6401 9.22441 15.7138 9.16237 15.7758C9.10033 15.8379 9.02661 15.887 8.94547 15.9204C8.86433 15.9538 8.77738 15.9707 8.68965 15.9703Z" fill="#FD8C04"/>
<path d="M12.1034 10.9552C11.8486 10.9546 11.5993 11.0296 11.3871 11.1707C11.1749 11.3119 11.0093 11.5128 10.9113 11.7481C10.8134 11.9834 10.7874 12.2424 10.8368 12.4925C10.8861 12.7425 11.0085 12.9723 11.1885 13.1527C11.3685 13.3331 11.598 13.4561 11.8479 13.5061C12.0979 13.556 12.357 13.5307 12.5925 13.4333C12.828 13.3359 13.0293 13.1708 13.171 12.959C13.3127 12.7471 13.3883 12.498 13.3883 12.2431C13.3883 11.9021 13.253 11.5749 13.0121 11.3335C12.7713 11.0921 12.4445 10.956 12.1034 10.9552ZM12.1034 12.9103C11.9713 12.911 11.842 12.8724 11.7319 12.7994C11.6218 12.7265 11.5358 12.6225 11.4848 12.5006C11.4338 12.3787 11.4201 12.2445 11.4455 12.1148C11.4709 11.9852 11.5342 11.866 11.6274 11.7724C11.7206 11.6788 11.8395 11.6149 11.969 11.5889C12.0985 11.5629 12.2329 11.576 12.355 11.6264C12.4771 11.6768 12.5815 11.7623 12.6549 11.8721C12.7284 11.9819 12.7676 12.111 12.7676 12.2431C12.7676 12.4195 12.6977 12.5888 12.5732 12.7138C12.4488 12.8389 12.2799 12.9095 12.1034 12.9103Z" fill="#FD8C04"/>
<path d="M12.1034 14.0183C11.8484 14.0177 11.599 14.0927 11.3867 14.234C11.1745 14.3753 11.0089 14.5764 10.911 14.8119C10.8132 15.0474 10.7874 15.3066 10.837 15.5567C10.8866 15.8068 11.0093 16.0366 11.1896 16.2169C11.3699 16.3972 11.5997 16.5199 11.8498 16.5695C12.1 16.6191 12.3592 16.5934 12.5946 16.4955C12.8301 16.3976 13.0312 16.2321 13.1725 16.0198C13.3138 15.8075 13.3889 15.5581 13.3883 15.3031C13.3874 14.9626 13.2518 14.6363 13.011 14.3955C12.7703 14.1547 12.4439 14.0191 12.1034 14.0183ZM12.1034 15.9703C11.9713 15.971 11.842 15.9323 11.7319 15.8594C11.6218 15.7865 11.5358 15.6825 11.4848 15.5606C11.4338 15.4387 11.4201 15.3045 11.4455 15.1748C11.4709 15.0452 11.5342 14.926 11.6274 14.8324C11.7206 14.7388 11.8395 14.6749 11.969 14.6489C12.0985 14.6229 12.2329 14.6359 12.355 14.6864C12.4771 14.7368 12.5815 14.8223 12.6549 14.9321C12.7284 15.0419 12.7676 15.171 12.7676 15.3031C12.7676 15.4795 12.6977 15.6488 12.5732 15.7738C12.4488 15.8989 12.2799 15.9695 12.1034 15.9703Z" fill="#FD8C04"/>
<path d="M15.4955 10.9552C15.2408 10.9552 14.9918 11.0307 14.78 11.1722C14.5682 11.3138 14.4031 11.5149 14.3056 11.7502C14.2081 11.9856 14.1826 12.2445 14.2323 12.4944C14.282 12.7442 14.4047 12.9737 14.5848 13.1538C14.7649 13.3339 14.9944 13.4566 15.2442 13.5063C15.4941 13.556 15.753 13.5305 15.9884 13.433C16.2237 13.3355 16.4249 13.1705 16.5664 12.9587C16.7079 12.7469 16.7834 12.4978 16.7834 12.2431C16.7834 11.9015 16.6478 11.5739 16.4062 11.3324C16.1647 11.0909 15.8371 10.9552 15.4955 10.9552ZM15.4955 12.9104C15.3635 12.9104 15.2345 12.8712 15.1248 12.7979C15.0151 12.7246 14.9296 12.6204 14.8791 12.4985C14.8286 12.3765 14.8153 12.2424 14.8411 12.1129C14.8668 11.9835 14.9304 11.8646 15.0237 11.7713C15.117 11.678 15.2359 11.6144 15.3653 11.5887C15.4948 11.563 15.6289 11.5762 15.7509 11.6267C15.8728 11.6772 15.977 11.7627 16.0503 11.8724C16.1236 11.9821 16.1628 12.1111 16.1628 12.2431C16.1628 12.3307 16.1455 12.4175 16.112 12.4985C16.0784 12.5794 16.0293 12.653 15.9673 12.7149C15.9054 12.7769 15.8318 12.826 15.7509 12.8596C15.6699 12.8931 15.5831 12.9104 15.4955 12.9104Z" fill="#FD8C04"/>
<path d="M15.4955 14.0183C15.2406 14.0183 14.9915 14.0939 14.7797 14.2355C14.5678 14.3772 14.4027 14.5785 14.3053 14.814C14.2079 15.0496 14.1826 15.3087 14.2326 15.5586C14.2825 15.8085 14.4055 16.038 14.5859 16.218C14.7663 16.398 14.9961 16.5204 15.2462 16.5698C15.4962 16.6191 15.7552 16.5932 15.9905 16.4952C16.2258 16.3972 16.4267 16.2317 16.5679 16.0195C16.709 15.8073 16.7841 15.558 16.7834 15.3031C16.7826 14.9621 16.6466 14.6353 16.4051 14.3944C16.1637 14.1535 15.8366 14.0183 15.4955 14.0183ZM15.4955 15.9703C15.3635 15.9703 15.2345 15.9312 15.1248 15.8579C15.0151 15.7846 14.9296 15.6804 14.8791 15.5584C14.8286 15.4365 14.8153 15.3024 14.8411 15.1729C14.8668 15.0435 14.9304 14.9246 15.0237 14.8313C15.117 14.738 15.2359 14.6744 15.3653 14.6487C15.4948 14.6229 15.6289 14.6361 15.7509 14.6866C15.8728 14.7371 15.977 14.8227 16.0503 14.9324C16.1236 15.0421 16.1628 15.1711 16.1628 15.3031C16.1628 15.4801 16.0925 15.6498 15.9673 15.7749C15.8422 15.9 15.6725 15.9703 15.4955 15.9703Z" fill="#FD8C04"/>
</svg>
