<svg
  width="18"
  height="18"
  viewBox="0 0 50 50"
  fill="none"
  xmlns="http://www.w3.org/2000/svg"
>
  <path
    d="M24.6454 27.4062C24.087 27.4078 23.6346 27.8603 23.633 28.4187V40.7702C23.633 41.3295 24.0867 41.7826 24.6454 41.7826C25.2045 41.7826 25.6578 41.3295 25.6578 40.7702V28.4187C25.6563 27.8603 25.2041 27.4078 24.6454 27.4062Z"
    fill="#F40505"
  />
  <path
    d="M31.1248 27.4062C30.5664 27.4078 30.1139 27.8603 30.1124 28.4187V40.7702C30.1124 41.3295 30.5661 41.7826 31.1248 41.7826C31.6838 41.7826 32.1372 41.3295 32.1372 40.7702V28.4187C32.1356 27.8603 31.6835 27.4078 31.1248 27.4062Z"
    fill="#F40505"
  />
  <path
    d="M18.1659 27.4062C17.6074 27.4078 17.155 27.8603 17.1534 28.4187V40.7702C17.1534 41.3295 17.6071 41.7826 18.1659 41.7826C18.7249 41.7826 19.1783 41.3295 19.1783 40.7702V28.4187C19.1767 27.8603 18.7246 27.4078 18.1659 27.4062Z"
    fill="#F40505"
  />
  <path
    d="M38.1713 6.7224H32.3806V3.77626C32.38 2.54048 31.3783 1.53913 30.1428 1.53882H19.1483C17.9125 1.53913 16.9112 2.54048 16.9105 3.77626V6.73253H11.1198C8.8912 6.73316 6.9888 8.34132 6.61801 10.5386C6.24689 12.7359 7.51653 14.88 9.6211 15.6114C9.60116 15.6839 9.59104 15.7589 9.59072 15.8342V43.3517C9.59199 46.1469 11.8576 48.4125 14.6528 48.4138H34.6481C37.4433 48.4125 39.7096 46.1469 39.7102 43.3517V15.8342C39.7112 15.7589 39.7007 15.6839 39.6798 15.6114C41.7873 14.8774 43.0563 12.7292 42.6829 10.5291C42.3096 8.32898 40.4028 6.7205 38.1713 6.7224ZM18.9458 3.77626C18.9461 3.65889 19.041 3.56429 19.1581 3.56366H30.1533C30.2703 3.56429 30.3653 3.65889 30.3656 3.77626V6.73253H18.9458V3.77626ZM34.6383 46.389H14.6528C12.9776 46.3842 11.6206 45.027 11.6156 43.3517V15.8645H37.6854V43.3517C37.6759 45.0289 36.3154 46.3852 34.6383 46.389ZM38.1713 13.8397H11.1198C9.71601 13.8397 8.5783 12.702 8.5783 11.2985C8.5783 9.89507 9.71601 8.75736 11.1198 8.75736H38.1713C39.5751 8.75736 40.7128 9.89507 40.7128 11.2985C40.7128 12.702 39.5751 13.8397 38.1713 13.8397Z"
    fill="#F40505"
  />
</svg>
