<svg width="18" height="18" viewBox="0 0 18 18" fill="none" xmlns="http://www.w3.org/2000/svg">
<path d="M15.335 0.682195C15.2618 0.609 15.1623 0.568323 15.0588 0.569419C14.9556 0.57015 14.8568 0.610462 14.7827 0.682195L9.21227 6.25232L9.1968 6.26803L9.18901 6.27582C9.18134 6.28751 9.16964 6.2992 9.16185 6.31077C9.16185 6.31467 9.15795 6.31467 9.15795 6.31857C9.15016 6.33014 9.14614 6.33805 9.13847 6.34962C9.13445 6.35352 9.13445 6.35754 9.13067 6.36132C9.12677 6.37301 9.123 6.3808 9.11898 6.39249C9.11898 6.39639 9.11508 6.39639 9.11508 6.40017L8.12312 9.39154C8.07562 9.53074 8.11179 9.68505 8.21665 9.78833C8.29009 9.86079 8.38934 9.90134 8.49262 9.9011C8.53488 9.90025 8.5769 9.89379 8.61721 9.88162L11.6008 8.88587C11.6046 8.88587 11.6046 8.88587 11.6085 8.88197C11.6208 8.87844 11.6327 8.87321 11.6434 8.86651C11.6465 8.86602 11.6493 8.86468 11.6514 8.86249C11.6629 8.85482 11.6785 8.84702 11.6902 8.83911C11.7018 8.83131 11.7135 8.81962 11.7252 8.81195C11.7292 8.80817 11.7329 8.80817 11.7329 8.80415C11.7368 8.80025 11.7446 8.79636 11.7487 8.78868L17.3226 3.21454C17.3955 3.14171 17.4364 3.04306 17.4364 2.94027C17.4364 2.83736 17.3955 2.73859 17.3226 2.66601L15.335 0.682195ZM9.65582 7.24818L10.7567 8.34903L9.10729 8.89744L9.65582 7.24818ZM11.4763 7.96783L10.037 6.52865L15.0588 1.50682L16.4979 2.946L11.4763 7.96783Z" fill="#C8CCCD"/>
<path d="M14.4165 7.83948C14.2019 7.84009 14.0281 8.01388 14.0275 8.22847V15.4986C14.0257 16.1423 13.5044 16.6635 12.8605 16.6656H2.506C1.86235 16.6635 1.34085 16.1423 1.33902 15.4986V5.14381C1.34085 4.50016 1.86235 3.97878 2.506 3.97683H9.77593C9.99089 3.97683 10.1649 3.80267 10.1649 3.58784C10.1649 3.373 9.99089 3.19884 9.77593 3.19884H2.506C1.43195 3.19933 0.561522 4.06988 0.561035 5.14381V15.4986C0.561522 16.5726 1.43195 17.4431 2.506 17.4435H12.8605C13.9346 17.4431 14.8051 16.5726 14.8055 15.4986V8.22847C14.8049 8.01388 14.6311 7.84009 14.4165 7.83948Z" fill="#C8CCCD"/>
</svg>
