<svg width="19" height="18" viewBox="0 0 19 18" fill="none" xmlns="http://www.w3.org/2000/svg">
<path d="M15.7594 0.120324C15.6814 0.0422455 15.5752 -0.0011462 15.4648 2.3032e-05C15.3548 0.000802533 15.2494 0.0438044 15.1703 0.120324L9.22822 6.06212L9.21172 6.07888L9.2034 6.0872C9.19522 6.09967 9.18275 6.11214 9.17443 6.12448C9.17443 6.12864 9.17027 6.12864 9.17027 6.1328C9.16196 6.14514 9.15767 6.15358 9.14949 6.16593C9.1452 6.17008 9.1452 6.17437 9.14117 6.1784C9.13702 6.19087 9.13299 6.19918 9.1287 6.21166C9.1287 6.21581 9.12454 6.21581 9.12454 6.21984L8.06639 9.41082C8.01572 9.55931 8.0543 9.72391 8.16616 9.83408C8.2445 9.91138 8.35038 9.95464 8.46055 9.95438C8.50563 9.95347 8.55045 9.94659 8.59345 9.9336L11.7761 8.87141C11.7801 8.87141 11.7801 8.87141 11.7843 8.86725C11.7974 8.86349 11.8102 8.8579 11.8216 8.85075C11.8248 8.85023 11.8278 8.8488 11.83 8.84647C11.8424 8.83828 11.859 8.82997 11.8715 8.82152C11.8838 8.81321 11.8963 8.80074 11.9088 8.79255C11.913 8.78852 11.9171 8.78852 11.9171 8.78424C11.9212 8.78008 11.9295 8.77592 11.9338 8.76774L17.8797 2.82165C17.9575 2.74396 18.0011 2.63873 18.0011 2.52908C18.0011 2.4193 17.9575 2.31394 17.8797 2.23651L15.7594 0.120324ZM9.70137 7.12444L10.8757 8.29874L9.11623 8.88375L9.70137 7.12444ZM11.6433 7.89211L10.108 6.3569L15.4648 0.99998L17 2.53519L11.6433 7.89211Z" fill="white"/>
<path d="M14.7801 7.75516C14.5512 7.75581 14.3658 7.9412 14.3651 8.17011V15.9254C14.3632 16.612 13.8071 17.168 13.1203 17.1702H2.07475C1.38814 17.168 0.831847 16.612 0.829898 15.9254V4.87962C0.831847 4.19301 1.38814 3.63685 2.07475 3.63477H9.82977C10.0591 3.63477 10.2447 3.44899 10.2447 3.21982C10.2447 2.99065 10.0591 2.80487 9.82977 2.80487H2.07475C0.929024 2.80539 0.000519661 3.73402 0 4.87962V15.9254C0.000519661 17.071 0.929024 17.9996 2.07475 18H13.1203C14.266 17.9996 15.1946 17.071 15.195 15.9254V8.17011C15.1944 7.9412 15.009 7.75581 14.7801 7.75516Z" fill="white"/>
</svg>
