<svg width="18" height="18" viewBox="0 0 18 18" fill="none" xmlns="http://www.w3.org/2000/svg">
<path d="M15.3348 0.682192C15.2616 0.608997 15.1621 0.56832 15.0586 0.569416C14.9554 0.570147 14.8566 0.610459 14.7825 0.682192L9.21209 6.25232L9.19662 6.26803L9.18883 6.27582C9.18116 6.28751 9.16946 6.2992 9.16167 6.31077C9.16167 6.31467 9.15777 6.31467 9.15777 6.31857C9.14998 6.33014 9.14596 6.33805 9.13829 6.34962C9.13427 6.35352 9.13427 6.35754 9.13049 6.36132C9.12659 6.37301 9.12282 6.3808 9.1188 6.39249C9.1188 6.39639 9.1149 6.39639 9.1149 6.40017L8.12294 9.39154C8.07544 9.53074 8.11161 9.68505 8.21647 9.78833C8.28991 9.86079 8.38916 9.90134 8.49244 9.9011C8.5347 9.90025 8.57672 9.89379 8.61703 9.88162L11.6006 8.88587C11.6044 8.88587 11.6044 8.88587 11.6083 8.88197C11.6206 8.87844 11.6325 8.87321 11.6432 8.86651C11.6463 8.86602 11.6491 8.86468 11.6512 8.86249C11.6627 8.85482 11.6783 8.84702 11.69 8.83911C11.7016 8.83131 11.7133 8.81962 11.725 8.81195C11.729 8.80817 11.7327 8.80817 11.7327 8.80415C11.7366 8.80025 11.7444 8.79636 11.7485 8.78868L17.3224 3.21454C17.3953 3.14171 17.4362 3.04306 17.4362 2.94027C17.4362 2.83736 17.3953 2.73859 17.3224 2.66601L15.3348 0.682192ZM9.65564 7.24818L10.7565 8.34903L9.10711 8.89744L9.65564 7.24818ZM11.4761 7.96783L10.0368 6.52865L15.0586 1.50682L16.4977 2.946L11.4761 7.96783Z" fill="#25B5BD"/>
<path d="M14.4167 7.83948C14.2021 7.84009 14.0283 8.01388 14.0277 8.22847V15.4986C14.0259 16.1423 13.5046 16.6635 12.8607 16.6656H2.50615C1.8625 16.6635 1.341 16.1423 1.33917 15.4986V5.14381C1.341 4.50016 1.8625 3.97878 2.50615 3.97683H9.77608C9.99104 3.97683 10.1651 3.80267 10.1651 3.58784C10.1651 3.373 9.99104 3.19884 9.77608 3.19884H2.50615C1.4321 3.19933 0.561675 4.06988 0.561188 5.14381V15.4986C0.561675 16.5726 1.4321 17.4431 2.50615 17.4435H12.8607C13.9348 17.4431 14.8053 16.5726 14.8057 15.4986V8.22847C14.8051 8.01388 14.6313 7.84009 14.4167 7.83948Z" fill="#25B5BD"/>
</svg>
