<svg width="25" height="25" viewBox="0 0 25 25" fill="none" xmlns="http://www.w3.org/2000/svg">
<path d="M9.16534 1.25353C8.91815 1.25353 8.67651 1.32683 8.47098 1.46416C8.26545 1.6015 8.10526 1.79669 8.01066 2.02506C7.91607 2.25344 7.89132 2.50473 7.93954 2.74717C7.98777 2.98961 8.1068 3.21231 8.28159 3.3871C8.45638 3.56189 8.67908 3.68092 8.92152 3.72915C9.16396 3.77737 9.41525 3.75262 9.64363 3.65802C9.872 3.56343 10.0672 3.40324 10.2045 3.19771C10.3419 2.99218 10.4152 2.75054 10.4152 2.50335C10.4152 2.17188 10.2835 1.85398 10.0491 1.61959C9.81471 1.38521 9.49681 1.25353 9.16534 1.25353ZM9.16534 2.91995C9.08295 2.91995 9.0024 2.89552 8.93389 2.84974C8.86538 2.80396 8.81198 2.7389 8.78045 2.66277C8.74892 2.58665 8.74067 2.50288 8.75674 2.42207C8.77282 2.34126 8.81249 2.26703 8.87076 2.20876C8.92902 2.1505 9.00325 2.11082 9.08407 2.09475C9.16488 2.07867 9.24865 2.08692 9.32477 2.11845C9.40089 2.14999 9.46596 2.20338 9.51174 2.27189C9.55751 2.3404 9.58195 2.42095 9.58195 2.50335C9.58195 2.61384 9.53806 2.7198 9.45993 2.79793C9.3818 2.87606 9.27583 2.91995 9.16534 2.91995Z" fill="#003761"/>
<path d="M3.74951 12.9185H5.41593V13.7517H3.74951V12.9185Z" fill="#003761"/>
<path d="M6.24902 12.9185H12.4981V13.7517H6.24902V12.9185Z" fill="#003761"/>
<path d="M3.74951 15.4181H5.41593V16.2513H3.74951V15.4181Z" fill="#003761"/>
<path d="M3.74951 17.9177H5.41593V18.7509H3.74951V17.9177Z" fill="#003761"/>
<path d="M3.74951 20.4174H5.41593V21.2506H3.74951V20.4174Z" fill="#003761"/>
<path d="M24.5797 13.7517H24.1631C22.8115 13.7483 21.4969 13.3101 20.4136 12.5019L19.4138 11.752C19.3419 11.6972 19.2541 11.6676 19.1638 11.6676C19.0735 11.6676 18.9857 11.6972 18.9139 11.752L18.3306 12.1894V3.75316C18.3296 3.42199 18.1976 3.10467 17.9635 2.8705C17.7293 2.63633 17.412 2.50433 17.0808 2.50334H13.673C13.5865 2.26057 13.4273 2.05033 13.2171 1.90125C13.0069 1.75216 12.7559 1.67146 12.4981 1.67013H11.5233C11.3515 1.18188 11.0324 0.758987 10.6101 0.459828C10.1877 0.160669 9.68289 0 9.1653 0C8.64772 0 8.1429 0.160669 7.72053 0.459828C7.29817 0.758987 6.97908 1.18188 6.80732 1.67013H5.83247C5.57476 1.67146 5.32371 1.75216 5.1135 1.90125C4.90329 2.05033 4.74411 2.26057 4.65764 2.50334H1.24981C0.918647 2.50433 0.601326 2.63633 0.367155 2.8705C0.132983 3.10467 0.000989057 3.42199 0 3.75316V23.7502C0.000989057 24.0814 0.132983 24.3987 0.367155 24.6328C0.601326 24.867 0.918647 24.999 1.24981 25H17.0808C17.2695 24.9988 17.4555 24.9551 17.625 24.8721C17.7944 24.7892 17.9431 24.6691 18.0598 24.5209L18.9847 24.9583C19.0404 24.9857 19.1017 25 19.1638 25C19.2259 25 19.2872 24.9857 19.343 24.9583L23.0007 23.2211C23.604 22.9038 24.109 22.4274 24.4607 21.8436C24.8125 21.2597 24.9977 20.5907 24.9963 19.9091V14.1683C24.9963 14.0578 24.9524 13.9518 24.8743 13.8737C24.7961 13.7956 24.6902 13.7517 24.5797 13.7517ZM13.748 3.33655H17.0808C17.1913 3.33655 17.2972 3.38045 17.3754 3.45857C17.4535 3.5367 17.4974 3.64267 17.4974 3.75316V12.7893C17.2309 12.9555 16.9524 13.1018 16.6642 13.2268V4.58637C16.6642 4.47588 16.6203 4.36991 16.5422 4.29178C16.464 4.21366 16.3581 4.16976 16.2476 4.16976H13.748V3.33655ZM5.41586 2.91995C5.41586 2.80946 5.45975 2.70349 5.53788 2.62537C5.61601 2.54724 5.72198 2.50334 5.83247 2.50334H7.12394C7.22023 2.50432 7.31382 2.47151 7.38841 2.41061C7.46301 2.34972 7.5139 2.2646 7.53221 2.17006C7.60871 1.79335 7.81308 1.45468 8.11071 1.21141C8.40833 0.968146 8.78091 0.835255 9.1653 0.835255C9.5497 0.835255 9.92227 0.968146 10.2199 1.21141C10.5175 1.45468 10.7219 1.79335 10.7984 2.17006C10.8167 2.2646 10.8676 2.34972 10.9422 2.41061C11.0168 2.47151 11.1104 2.50432 11.2067 2.50334H12.4981C12.6086 2.50334 12.7146 2.54724 12.7927 2.62537C12.8709 2.70349 12.9147 2.80946 12.9147 2.91995V4.58637H5.41586V2.91995ZM4.99926 5.41958H13.3314C13.4418 5.41958 13.5478 5.37569 13.6259 5.29756C13.7041 5.21943 13.748 5.11346 13.748 5.00297H15.831V13.5184C15.2885 13.6708 14.728 13.7492 14.1646 13.7517H13.748C13.6375 13.7517 13.5315 13.7956 13.4534 13.8737C13.3752 13.9518 13.3314 14.0578 13.3314 14.1683V15.4181H6.24907V16.2513H13.3314V17.9177H6.24907V18.7509H13.3314V19.9091C13.3319 20.079 13.3431 20.2488 13.3647 20.4173H6.24907V21.2506H13.5855C13.7652 21.7158 14.0357 22.1407 14.3812 22.5004H2.49963V5.00297H4.58265C4.58265 5.11346 4.62654 5.21943 4.70467 5.29756C4.7828 5.37569 4.88877 5.41958 4.99926 5.41958ZM17.0808 24.1668H1.24981C1.13932 24.1668 1.03336 24.1229 0.95523 24.0448C0.877102 23.9666 0.833209 23.8607 0.833209 23.7502V3.75316C0.833209 3.64267 0.877102 3.5367 0.95523 3.45857C1.03336 3.38045 1.13932 3.33655 1.24981 3.33655H4.58265V4.16976H2.08302C1.97253 4.16976 1.86657 4.21366 1.78844 4.29178C1.71031 4.36991 1.66642 4.47588 1.66642 4.58637V22.917C1.66642 23.0275 1.71031 23.1334 1.78844 23.2116C1.86657 23.2897 1.97253 23.3336 2.08302 23.3336H15.5644L17.2391 24.1293C17.1893 24.152 17.1355 24.1647 17.0808 24.1668ZM24.1631 19.9091C24.1646 20.4362 24.0223 20.9538 23.7514 21.406C23.4805 21.8583 23.0913 22.228 22.6258 22.4754L19.1638 24.121L15.7102 22.4795C15.2431 22.2321 14.8524 21.8621 14.5801 21.4091C14.3077 20.9562 14.1641 20.4376 14.1646 19.9091V14.5849C15.6965 14.5819 17.1866 14.0852 18.4139 13.1684L19.1638 12.606L19.9137 13.1684C21.141 14.0852 22.6312 14.5819 24.1631 14.5849V19.9091Z" fill="#003761"/>
<path d="M11.6649 7.91921H10.4151V6.6694C10.4151 6.55891 10.3712 6.45294 10.2931 6.37481C10.2149 6.29668 10.109 6.25279 9.99847 6.25279H8.33205C8.22156 6.25279 8.11559 6.29668 8.03746 6.37481C7.95933 6.45294 7.91544 6.55891 7.91544 6.6694V7.91921H6.66563C6.55514 7.91921 6.44917 7.9631 6.37104 8.04123C6.29292 8.11936 6.24902 8.22533 6.24902 8.33582V10.0022C6.24902 10.1127 6.29292 10.2187 6.37104 10.2968C6.44917 10.3749 6.55514 10.4188 6.66563 10.4188H7.91544V11.6687C7.91544 11.7791 7.95933 11.8851 8.03746 11.9632C8.11559 12.0414 8.22156 12.0853 8.33205 12.0853H9.99847C10.109 12.0853 10.2149 12.0414 10.2931 11.9632C10.3712 11.8851 10.4151 11.7791 10.4151 11.6687V10.4188H11.6649C11.7754 10.4188 11.8813 10.3749 11.9595 10.2968C12.0376 10.2187 12.0815 10.1127 12.0815 10.0022V8.33582C12.0815 8.22533 12.0376 8.11936 11.9595 8.04123C11.8813 7.9631 11.7754 7.91921 11.6649 7.91921ZM11.2483 9.58563H9.99847C9.88798 9.58563 9.78201 9.62952 9.70388 9.70765C9.62575 9.78578 9.58186 9.89174 9.58186 10.0022V11.252H8.74865V10.0022C8.74865 9.89174 8.70476 9.78578 8.62663 9.70765C8.5485 9.62952 8.44254 9.58563 8.33205 9.58563H7.08223V8.75242H8.33205C8.44254 8.75242 8.5485 8.70853 8.62663 8.6304C8.70476 8.55227 8.74865 8.44631 8.74865 8.33582V7.086H9.58186V8.33582C9.58186 8.44631 9.62575 8.55227 9.70388 8.6304C9.78201 8.70853 9.88798 8.75242 9.99847 8.75242H11.2483V9.58563Z" fill="#003761"/>
<path d="M22.9755 15.3264C21.6835 15.1303 20.4599 14.6179 19.4136 13.835C19.3417 13.7803 19.2539 13.7506 19.1636 13.7506C19.0733 13.7506 18.9855 13.7803 18.9136 13.835C17.8673 14.6179 16.6437 15.1303 15.3517 15.3264C15.2533 15.342 15.1637 15.3921 15.0989 15.4676C15.034 15.5432 14.9981 15.6393 14.9976 15.7389V19.9091C14.9977 20.2809 15.0975 20.6459 15.2865 20.9661C15.4755 21.2862 15.7469 21.5499 16.0724 21.7296L16.0974 21.7421L18.9845 23.1128C19.0402 23.1402 19.1015 23.1544 19.1636 23.1544C19.2257 23.1544 19.287 23.1402 19.3427 23.1128L22.2548 21.7296C22.58 21.5495 22.851 21.2857 23.04 20.9657C23.229 20.6456 23.329 20.2808 23.3297 19.9091V15.7389C23.3291 15.6393 23.2932 15.5432 23.2283 15.4676C23.1635 15.3921 23.0739 15.342 22.9755 15.3264ZM22.4964 19.9091C22.4976 20.1283 22.4403 20.3438 22.3305 20.5334C22.2206 20.7231 22.0622 20.88 21.8715 20.9881L19.1636 22.2754L16.464 20.9964C16.2717 20.8874 16.1118 20.7293 16.0006 20.5383C15.8893 20.3472 15.8307 20.1301 15.8308 19.9091V16.0888C17.0273 15.8555 18.1623 15.376 19.1636 14.6807C20.1649 15.376 21.2999 15.8555 22.4964 16.0888V19.9091Z" fill="#003761"/>
<path d="M17.3752 18.873L16.7861 19.4621L18.0359 20.7119C18.1141 20.79 18.22 20.8339 18.3305 20.8339C18.441 20.8339 18.5469 20.79 18.625 20.7119L21.9579 17.3791L21.3688 16.79L18.3305 19.8283L17.3752 18.873Z" fill="#003761"/>
</svg>
