<svg width="20" height="20" viewBox="0 0 20 20" fill="none" xmlns="http://www.w3.org/2000/svg">
<path d="M10 1.0141C9.49777 1.0141 9.08917 1.42269 9.08917 1.92492C9.08917 2.42715 9.49777 2.83574 10 2.83574C10.5022 2.83574 10.9108 2.42715 10.9108 1.92492C10.9108 1.42269 10.5022 1.0141 10 1.0141ZM10 2.24976C9.82086 2.24976 9.67511 2.10402 9.67511 1.92488C9.67511 1.74574 9.82086 1.6 10 1.6C10.1791 1.6 10.3249 1.74574 10.3249 1.92488C10.3249 2.10402 10.1791 2.24976 10 2.24976Z" fill="#003761"/>
<path d="M7.29907 3.20024C7.13728 3.20024 7.0061 3.33141 7.0061 3.49321V3.98204C7.0061 4.14383 7.13728 4.27501 7.29907 4.27501C7.46087 4.27501 7.59204 4.14383 7.59204 3.98204V3.49321C7.59204 3.33141 7.46087 3.20024 7.29907 3.20024Z" fill="#003761"/>
<path d="M12.7009 3.20024C12.5391 3.20024 12.408 3.33141 12.408 3.49321V3.98204C12.408 4.14383 12.5391 4.27501 12.7009 4.27501C12.8627 4.27501 12.9939 4.14383 12.9939 3.98204V3.49321C12.9939 3.33141 12.8627 3.20024 12.7009 3.20024Z" fill="#003761"/>
<path d="M10.8594 3.72746C10.7376 3.62094 10.5525 3.6334 10.446 3.75519C10.3378 3.87894 10.1753 3.94996 9.99999 3.94996C9.82472 3.94996 9.66214 3.87898 9.55398 3.75519C9.44749 3.6334 9.26241 3.62094 9.14058 3.72746C9.01874 3.83398 9.00632 4.01902 9.1128 4.14086C9.3323 4.39195 9.65566 4.53594 9.99999 4.53594C10.3443 4.53594 10.6677 4.39191 10.8872 4.14086C10.9937 4.01902 10.9813 3.8339 10.8594 3.72746Z" fill="#003761"/>
<path d="M13.2294 11.7764H6.77069C6.60889 11.7764 6.47772 11.9076 6.47772 12.0694C6.47772 12.2312 6.60889 12.3624 6.77069 12.3624H13.2294C13.3912 12.3624 13.5223 12.2312 13.5223 12.0694C13.5223 11.9076 13.3912 11.7764 13.2294 11.7764Z" fill="#003761"/>
<path d="M13.2294 13.5448H6.77069C6.60889 13.5448 6.47772 13.676 6.47772 13.8378C6.47772 13.9997 6.60889 14.1308 6.77069 14.1308H13.2294C13.3912 14.1308 13.5223 13.9997 13.5223 13.8378C13.5223 13.676 13.3912 13.5448 13.2294 13.5448Z" fill="#003761"/>
<path d="M13.2294 15.3133H6.77069C6.60889 15.3133 6.47772 15.4445 6.47772 15.6063C6.47772 15.7681 6.60889 15.8993 6.77069 15.8993H13.2294C13.3912 15.8993 13.5223 15.7681 13.5223 15.6063C13.5223 15.4445 13.3912 15.3133 13.2294 15.3133Z" fill="#003761"/>
<path d="M11.6571 7.88187H10.9109V7.13562C10.9109 6.97378 10.7797 6.84265 10.6179 6.84265H9.38218C9.22038 6.84265 9.08921 6.97378 9.08921 7.13562V7.88187H8.34296C8.18116 7.88187 8.04999 8.01304 8.04999 8.17484V9.41058C8.04999 9.57238 8.18116 9.70355 8.34296 9.70355H9.08921V10.4498C9.08921 10.6116 9.22038 10.7428 9.38218 10.7428H10.6179C10.7797 10.7428 10.9109 10.6116 10.9109 10.4498V9.70355H11.6571C11.8189 9.70355 11.9501 9.57238 11.9501 9.41058V8.17484C11.9501 8.01304 11.8189 7.88187 11.6571 7.88187ZM11.3641 9.11761H10.6179C10.4561 9.11761 10.3249 9.24874 10.3249 9.41058V10.1568H9.67515V9.41058C9.67515 9.24874 9.54398 9.11761 9.38218 9.11761H8.63593V8.46781H9.38218C9.54398 8.46781 9.67515 8.33664 9.67515 8.17484V7.42859H10.3249V8.17484C10.3249 8.33664 10.4561 8.46781 10.6179 8.46781H11.3641V9.11761Z" fill="#003761"/>
<path d="M15.9657 3.07512H14.7141V2.61469C14.7141 2.12875 14.3187 1.7334 13.8328 1.7334H12.0052C11.8628 0.754414 11.0178 0 9.99999 0C8.98214 0 8.13718 0.754414 7.99476 1.7334H6.16718C5.68124 1.7334 5.28589 2.12875 5.28589 2.61469V3.07512H4.03425C3.09554 3.07512 2.33179 3.83883 2.33179 4.77754V18.2976C2.33179 19.2363 3.0955 20 4.03425 20H5.44089C5.60269 20 5.73386 19.8688 5.73386 19.707C5.73386 19.5452 5.60269 19.4141 5.44089 19.4141H4.03425C3.41862 19.4141 2.91772 18.9132 2.91772 18.2976V4.77754C2.91772 4.16191 3.41858 3.66105 4.03425 3.66105H5.28589V4.42066H4.03425C3.83745 4.42066 3.67737 4.58074 3.67737 4.77754V18.2976C3.67737 18.4944 3.83745 18.6545 4.03425 18.6545H15.9657C16.1625 18.6545 16.3226 18.4944 16.3226 18.2976V4.77754C16.3226 4.58074 16.1625 4.42066 15.9657 4.42066H14.7141V3.66105H15.9657C16.5814 3.66105 17.0823 4.16191 17.0823 4.77754V18.2976C17.0823 18.9132 16.5814 19.4141 15.9657 19.4141H6.61276C6.45097 19.4141 6.3198 19.5452 6.3198 19.707C6.3198 19.8688 6.45097 20 6.61276 20H15.9657C16.9044 20 17.6682 19.2363 17.6682 18.2976V4.77754C17.6682 3.83883 16.9045 3.07512 15.9657 3.07512ZM15.7367 5.00664V18.0685H4.26331V5.0066H5.28589V5.06926C5.28589 5.5552 5.68124 5.95055 6.16718 5.95055H11.8471C12.0089 5.95055 12.1401 5.81938 12.1401 5.65758C12.1401 5.49578 12.0089 5.36461 11.8471 5.36461H6.16718C6.00433 5.36461 5.87183 5.23211 5.87183 5.06926V2.61469C5.87183 2.45184 6.00433 2.31934 6.16718 2.31934H8.26663C8.42843 2.31934 8.5596 2.18816 8.5596 2.02637C8.55956 1.23211 9.20573 0.585938 9.99999 0.585938C10.7942 0.585938 11.4404 1.23211 11.4404 2.02637C11.4404 2.18816 11.5716 2.31934 11.7334 2.31934H13.8328C13.9957 2.31934 14.1282 2.45184 14.1282 2.61469V5.0693C14.1282 5.23215 13.9957 5.36465 13.8328 5.36465H13.019C12.8572 5.36465 12.726 5.49582 12.726 5.65762C12.726 5.81941 12.8572 5.95059 13.019 5.95059H13.8328C14.3187 5.95059 14.7141 5.55523 14.7141 5.0693V5.00664H15.7367Z" fill="#003761"/>
</svg>
