<svg width="18" height="18" viewBox="0 0 18 18" fill="none" xmlns="http://www.w3.org/2000/svg">
<path d="M15.4125 3.06689H2.55532C1.44601 3.06727 0.546889 3.96652 0.546387 5.07582V12.577C0.546889 13.6863 1.44601 14.5857 2.55532 14.586H15.4125C16.5218 14.5857 17.4209 13.6863 17.4214 12.577V5.07582C17.4209 3.96652 16.5218 3.06727 15.4125 3.06689V3.06689ZM2.55532 3.87047H15.4125C15.9912 3.87197 16.4877 4.28267 16.5977 4.8507L8.98389 9.09368L1.37005 4.8507C1.48004 4.28267 1.97662 3.87197 2.55532 3.87047V3.87047ZM15.4125 13.7785H2.55532C1.89049 13.7765 1.35184 13.238 1.34996 12.5731V5.75886L8.78701 9.90516C8.84728 9.93831 8.91496 9.95639 8.98389 9.95752C9.05307 9.95827 9.121 9.94019 9.18076 9.90516L16.6178 5.75886V12.5731C16.6173 13.2386 16.0779 13.7779 15.4125 13.7785Z" fill="#003761"/>
</svg>
