<svg width="15" height="15" viewBox="0 0 15 15" fill="none" xmlns="http://www.w3.org/2000/svg">
<g clip-path="url(#clip0_6_621)">
<path d="M12.7734 12.334H11.8945V7.91016C11.8945 5.48701 9.92314 3.51562 7.5 3.51562C5.07686 3.51562 3.10547 5.48701 3.10547 7.91016V12.334H2.22656C1.98387 12.334 1.78711 12.5307 1.78711 12.7734V14.5605C1.78711 14.8032 1.98387 15 2.22656 15H12.7734C13.0161 15 13.2129 14.8032 13.2129 14.5605V12.7734C13.2129 12.5307 13.0161 12.334 12.7734 12.334ZM3.98438 7.91016C3.98438 5.97164 5.56148 4.39453 7.5 4.39453C9.43852 4.39453 11.0156 5.97164 11.0156 7.91016V12.334H3.98438V7.91016ZM12.334 14.1211H2.66602V13.2129H12.334V14.1211Z" fill="#F40505"/>
<path d="M7.4707 2.63672C7.7134 2.63672 7.91016 2.43996 7.91016 2.19727V0.439453C7.91016 0.196758 7.7134 0 7.4707 0C7.22801 0 7.03125 0.196758 7.03125 0.439453V2.19727C7.03125 2.43996 7.22801 2.63672 7.4707 2.63672Z" fill="#F40505"/>
<path d="M4.01057 3.25787C4.13229 3.46872 4.40127 3.5397 4.61086 3.41871C4.82106 3.29736 4.89308 3.02859 4.7717 2.81841L3.89279 1.29612C3.77142 1.08591 3.50268 1.01393 3.2925 1.13528C3.08229 1.25663 3.01028 1.5254 3.13166 1.73557L4.01057 3.25787Z" fill="#F40505"/>
<path d="M2.52516 5.52587C2.64654 5.31569 2.57453 5.04692 2.36432 4.92557L0.841999 4.04667C0.631794 3.92529 0.363025 3.9973 0.241706 4.20751C0.120329 4.41768 0.192341 4.68645 0.402546 4.8078L1.92487 5.68671C2.13414 5.80756 2.40329 5.73698 2.52516 5.52587Z" fill="#F40505"/>
<path d="M10.3891 3.4187C10.5984 3.53955 10.8675 3.46895 10.9894 3.25786L11.8683 1.73557C11.9897 1.52539 11.9177 1.25662 11.7075 1.13527C11.4973 1.01387 11.2285 1.08591 11.1072 1.29611L10.2283 2.81841C10.1069 3.02858 10.1789 3.29735 10.3891 3.4187Z" fill="#F40505"/>
<path d="M14.7583 4.20751C14.6369 3.99731 14.3682 3.92535 14.158 4.04667L12.6357 4.92558C12.4255 5.04693 12.3535 5.3157 12.4749 5.52587C12.5966 5.73672 12.8656 5.80771 13.0752 5.68671L14.5975 4.80781C14.8077 4.68646 14.8797 4.41772 14.7583 4.20751Z" fill="#F40505"/>
</g>
<defs>
<clipPath id="clip0_6_621">
<rect width="15" height="15" fill="white"/>
</clipPath>
</defs>
</svg>
