<svg width="30" height="18" viewBox="0 0 30 18" fill="none" xmlns="http://www.w3.org/2000/svg">
  <rect x="0.5" y="0.5" width="29" height="17" rx="2.5" fill="#33A02C" stroke="#33A02C" />
  <path d="M12.5264 12.6396V14H7.24219V12.6396H12.5264ZM7.72754 4.04688V14H6.01172V4.04688H7.72754ZM11.8359 8.20312V9.54297H7.24219V8.20312H11.8359ZM12.4922 4.04688V5.41406H7.24219V4.04688H12.4922ZM19.4441 11.4365C19.4441 11.2314 19.4122 11.0492 19.3484 10.8896C19.2891 10.7301 19.182 10.5843 19.0271 10.4521C18.8721 10.32 18.6534 10.1924 18.3708 10.0693C18.0928 9.94173 17.7374 9.81185 17.3044 9.67969C16.8305 9.53385 16.393 9.37207 15.9919 9.19434C15.5954 9.01204 15.2491 8.80241 14.9529 8.56543C14.6566 8.32389 14.4265 8.04818 14.2624 7.73828C14.0984 7.42383 14.0163 7.06152 14.0163 6.65137C14.0163 6.24577 14.1006 5.87663 14.2693 5.54395C14.4424 5.21126 14.6862 4.92415 15.0007 4.68262C15.3197 4.43652 15.6957 4.2474 16.1286 4.11523C16.5616 3.97852 17.0401 3.91016 17.5642 3.91016C18.3025 3.91016 18.9382 4.04688 19.4714 4.32031C20.0092 4.59375 20.4216 4.96061 20.7087 5.4209C21.0004 5.88118 21.1462 6.38932 21.1462 6.94531H19.4441C19.4441 6.61719 19.3734 6.3278 19.2321 6.07715C19.0954 5.82194 18.8858 5.62142 18.6032 5.47559C18.3252 5.32975 17.9721 5.25684 17.5437 5.25684C17.1381 5.25684 16.8008 5.31836 16.532 5.44141C16.2631 5.56445 16.0626 5.73079 15.9304 5.94043C15.7982 6.15007 15.7321 6.38704 15.7321 6.65137C15.7321 6.83822 15.7754 7.00911 15.862 7.16406C15.9486 7.31445 16.0808 7.45573 16.2585 7.58789C16.4362 7.71549 16.6596 7.83626 16.9284 7.9502C17.1973 8.06413 17.514 8.1735 17.8786 8.27832C18.4301 8.44238 18.9109 8.62467 19.321 8.8252C19.7312 9.02116 20.073 9.24447 20.3464 9.49512C20.6198 9.74577 20.8249 10.0306 20.9616 10.3496C21.0984 10.6641 21.1667 11.0218 21.1667 11.4229C21.1667 11.8421 21.0824 12.2204 20.9138 12.5576C20.7452 12.8903 20.5036 13.1751 20.1892 13.4121C19.8793 13.6445 19.5056 13.8245 19.0681 13.9521C18.6351 14.0752 18.1521 14.1367 17.6189 14.1367C17.1404 14.1367 16.6687 14.0729 16.2038 13.9453C15.7435 13.8177 15.3243 13.624 14.946 13.3643C14.5678 13.0999 14.267 12.7718 14.0437 12.3799C13.8204 11.9834 13.7087 11.5208 13.7087 10.9922H15.4245C15.4245 11.3158 15.4792 11.5915 15.5886 11.8193C15.7025 12.0472 15.8598 12.234 16.0603 12.3799C16.2608 12.5212 16.4932 12.626 16.7575 12.6943C17.0264 12.7627 17.3135 12.7969 17.6189 12.7969C18.0199 12.7969 18.3549 12.7399 18.6237 12.626C18.8972 12.512 19.1023 12.3525 19.239 12.1475C19.3757 11.9424 19.4441 11.7054 19.4441 11.4365ZM24.7963 4.04688V14H23.0805V4.04688H24.7963Z" fill="white" />
</svg>