<svg width="19" height="18" viewBox="0 0 19 18" fill="none" xmlns="http://www.w3.org/2000/svg">
  <path d="M12.6641 2.98828C12.7293 2.98828 12.7919 2.96235 12.8381 2.9162C12.8842 2.87005 12.9102 2.80746 12.9102 2.74219V1.86328C12.9102 1.79801 12.8842 1.73542 12.8381 1.68927C12.7919 1.64312 12.7293 1.61719 12.6641 1.61719C12.5988 1.61719 12.5362 1.64312 12.49 1.68927C12.4439 1.73542 12.418 1.79801 12.418 1.86328V2.74219C12.418 2.80746 12.4439 2.87005 12.49 2.9162C12.5362 2.96235 12.5988 2.98828 12.6641 2.98828Z" fill="#F40505" />
  <path d="M14.1768 4.42969C14.1768 4.49496 14.2027 4.55755 14.2488 4.6037C14.295 4.64985 14.3576 4.67578 14.4229 4.67578H15.2666C15.3319 4.67578 15.3945 4.64985 15.4406 4.6037C15.4868 4.55755 15.5127 4.49496 15.5127 4.42969C15.5127 4.36442 15.4868 4.30182 15.4406 4.25567C15.3945 4.20952 15.3319 4.18359 15.2666 4.18359H14.4229C14.3576 4.18359 14.295 4.20952 14.2488 4.25567C14.2027 4.30182 14.1768 4.36442 14.1768 4.42969Z" fill="#F40505" />
  <path d="M11.3618 4.42969C11.3618 4.36442 11.3359 4.30182 11.2897 4.25567C11.2436 4.20952 11.181 4.18359 11.1157 4.18359H10.2368C10.1715 4.18359 10.109 4.20952 10.0628 4.25567C10.0167 4.30182 9.99072 4.36442 9.99072 4.42969C9.99072 4.49496 10.0167 4.55755 10.0628 4.6037C10.109 4.64985 10.1715 4.67578 10.2368 4.67578H11.1157C11.181 4.67578 11.2436 4.64985 11.2897 4.6037C11.3359 4.55755 11.3618 4.49496 11.3618 4.42969Z" fill="#F40505" />
  <path d="M11.2207 3.37501C11.2668 3.42117 11.3294 3.4471 11.3947 3.4471C11.46 3.4471 11.5226 3.42117 11.5687 3.37501C11.6149 3.32886 11.6408 3.26626 11.6408 3.20099C11.6408 3.13572 11.6149 3.07312 11.5687 3.02697L10.9582 2.41644C10.9354 2.39359 10.9082 2.37546 10.8784 2.36309C10.8485 2.35073 10.8165 2.34436 10.7842 2.34436C10.7519 2.34436 10.7199 2.35073 10.69 2.36309C10.6602 2.37546 10.633 2.39359 10.6102 2.41644C10.5873 2.4393 10.5692 2.46643 10.5568 2.49629C10.5445 2.52615 10.5381 2.55815 10.5381 2.59047C10.5381 2.62279 10.5445 2.65479 10.5568 2.68465C10.5692 2.71451 10.5873 2.74164 10.6102 2.76449L11.2207 3.37501Z" fill="#F40505" />
  <path d="M14.1203 3.44725C14.1526 3.44726 14.1846 3.44088 14.2144 3.42848C14.2443 3.41608 14.2714 3.39791 14.2942 3.37501L14.9047 2.76431C14.9276 2.74145 14.9457 2.71432 14.9581 2.68446C14.9705 2.65461 14.9768 2.6226 14.9768 2.59028C14.9768 2.55796 14.9705 2.52596 14.9581 2.4961C14.9457 2.46624 14.9276 2.43911 14.9047 2.41626C14.8819 2.39341 14.8548 2.37528 14.8249 2.36291C14.795 2.35054 14.763 2.34418 14.7307 2.34418C14.6984 2.34418 14.6664 2.35054 14.6365 2.36291C14.6067 2.37528 14.5796 2.39341 14.5567 2.41626L13.9461 3.02714C13.9117 3.06155 13.8882 3.10541 13.8788 3.15315C13.8693 3.20089 13.8741 3.25038 13.8928 3.29535C13.9114 3.34032 13.9429 3.37876 13.9834 3.4058C14.0239 3.43284 14.0715 3.44726 14.1202 3.44725H14.1203Z" fill="#F40505" />
  <path d="M14.7399 6.73407V6.34405C14.7398 6.2349 14.6989 6.12972 14.6253 6.04909C14.5517 5.96846 14.4506 5.91819 14.3419 5.90811L14.0499 3.8365C14.0029 3.52346 13.7215 3.30469 13.3658 3.30469H12.1383C11.7826 3.30469 11.5013 3.52343 11.4538 3.83906L11.1625 5.90625H11.0269C10.9108 5.90638 10.7994 5.95255 10.7173 6.03462C10.6352 6.1167 10.589 6.22798 10.5889 6.34405V6.73407C10.589 6.85015 10.6352 6.96143 10.7173 7.0435C10.7994 7.12558 10.9108 7.17174 11.0269 7.17188H14.3018C14.418 7.17174 14.5293 7.12558 14.6114 7.0435C14.6936 6.96143 14.7398 6.85015 14.7399 6.73407ZM11.9411 3.90994C11.9546 3.8205 12.076 3.79688 12.1383 3.79688H13.3658C13.4281 3.79688 13.5495 3.8205 13.5626 3.90758L13.8443 5.90625H11.6597L11.9411 3.90994ZM14.2474 6.67969H11.0814V6.39844H14.1102C14.1159 6.39886 14.1216 6.39925 14.1274 6.39925C14.1311 6.39925 14.1349 6.39861 14.1387 6.39844H14.2474V6.67969Z" fill="#F40505" />
  <path d="M11.5587 10.9531C11.604 10.9807 11.6569 10.9929 11.7097 10.988C11.7624 10.9832 11.8122 10.9614 11.8516 10.926C11.9567 10.8315 14.4337 8.60212 15.2041 7.71168C16.1215 6.6513 16.5674 5.63156 16.5674 4.59423C16.5672 3.84389 16.3518 3.10933 15.9468 2.47753C15.5418 1.84574 14.964 1.34318 14.282 1.02937C13.6 0.715563 12.8423 0.603655 12.0987 0.706898C11.355 0.810141 10.6565 1.12421 10.0859 1.61191C9.51535 2.09961 9.09657 2.74052 8.87919 3.45872C8.66181 4.17693 8.65493 4.94235 8.85937 5.66434C9.06382 6.38633 9.47102 7.03464 10.0328 7.5325C10.5945 8.03036 11.2872 8.35691 12.0289 8.47348L11.4488 10.6805C11.4353 10.7317 11.4387 10.7859 11.4585 10.835C11.4783 10.8841 11.5135 10.9256 11.5587 10.9531ZM10.1181 6.92823C9.7378 6.51804 9.46348 6.02125 9.31899 5.48102C9.1745 4.94079 9.1642 4.37347 9.289 3.82836C9.41379 3.28325 9.6699 2.77684 10.0351 2.35314C10.4002 1.92944 10.8634 1.60128 11.3844 1.39716C11.9053 1.19305 12.4682 1.11915 13.0242 1.18191C13.5802 1.24466 14.1125 1.44216 14.5748 1.75725C15.037 2.07234 15.4153 2.49547 15.6767 2.98989C15.9381 3.4843 16.0748 4.03504 16.0748 4.59423C16.0748 5.52095 15.6797 6.40925 14.8314 7.38979C14.3128 7.98935 12.9418 9.26425 12.1365 10.0017L12.5772 8.32502C12.5863 8.29022 12.5877 8.25384 12.5813 8.21844C12.5748 8.18304 12.5607 8.14949 12.5399 8.12014C12.519 8.09079 12.492 8.06636 12.4607 8.04858C12.4294 8.03079 12.3946 8.02008 12.3587 8.01719C11.5015 7.94838 10.7016 7.55961 10.1181 6.92823Z" fill="#F40505" />
  <path d="M3.29862 12.1383C4.16752 13.6423 5.59872 15.657 7.48276 16.7138C8.17225 17.1005 8.72617 17.2453 9.06929 17.2985C9.20386 17.32 9.33987 17.3311 9.47613 17.3318C9.71661 17.3318 9.91748 17.2917 10.0526 17.2137L11.5304 16.3611C11.766 16.2247 11.9378 16.0006 12.0083 15.7377C12.0787 15.4749 12.042 15.1949 11.9061 14.9592L10.9559 13.3145C10.6751 12.8284 10.0305 12.6527 9.54856 12.9306L8.70893 13.4151C8.70703 13.4162 8.7051 13.4173 8.70316 13.4186C8.70017 13.4205 8.38772 13.5998 7.86673 13.4678C7.28854 13.3214 6.38027 12.7678 5.33713 10.9621C4.7989 10.0303 4.2071 8.70473 4.44512 7.6813C4.57943 7.1041 4.91731 6.89562 4.9354 6.88483L4.93606 6.88448L5.77584 6.39999C6.25778 6.1218 6.4279 5.47644 6.14725 4.99075L5.19705 3.34615C5.05981 3.1115 4.83554 2.94038 4.57289 2.8699C4.31023 2.79942 4.03036 2.83525 3.79397 2.96962L2.3162 3.8222C2.11009 3.94109 1.90236 4.23085 1.74631 4.61718C1.56131 5.07495 1.45715 5.64336 1.44508 6.26098C1.40332 8.39461 2.43 10.6348 3.29862 12.1383ZM1.93747 6.27076C1.96255 4.9885 2.40436 4.3398 2.56245 4.24857L4.04025 3.39579C4.11977 3.34992 4.20999 3.32586 4.3018 3.32604C4.35019 3.3261 4.39837 3.33253 4.44508 3.34516C4.51297 3.3628 4.57668 3.39371 4.63255 3.4361C4.68841 3.47849 4.73531 3.53152 4.77055 3.59213L5.72078 5.23678C5.79129 5.36029 5.81075 5.50643 5.77503 5.64407C5.73931 5.78171 5.65123 5.89998 5.52956 5.97369L4.69115 6.4574C4.5052 6.56206 4.1498 6.89394 3.98833 7.47974C3.72449 8.43747 4.03469 9.69192 4.91063 11.2081C5.8171 12.7772 6.771 13.698 7.74575 13.9449C8.3239 14.0913 8.77774 13.9488 8.95767 13.84L9.79492 13.3569C9.91979 13.2885 10.0665 13.2715 10.2037 13.3095C10.3409 13.3476 10.4578 13.4377 10.5296 13.5606L11.4797 15.2052C11.5487 15.3283 11.5668 15.4734 11.5303 15.6097C11.4938 15.746 11.4055 15.8626 11.2843 15.9348L9.80642 16.7875C9.65026 16.8775 8.86677 16.9258 7.72387 16.2847C5.9372 15.2824 4.56321 13.3429 3.72516 11.8922C2.88781 10.4428 1.89793 8.29097 1.93747 6.27062V6.27076Z" fill="#F40505" />
</svg>