<svg width="25" height="25" viewBox="0 0 25 25" fill="none" xmlns="http://www.w3.org/2000/svg">
<g clip-path="url(#clip0)">
<path d="M17.4067 1.94485C17.406 1.48912 17.0368 1.11987 16.581 1.11938H8.41872C7.963 1.11987 7.59375 1.48912 7.59326 1.94485V4.05126H17.4067V1.94485Z" fill="#656464"/>
<path d="M0 10.4478H25V13.9925H0V10.4478Z" fill="#656464"/>
<path d="M22.9614 4.91309H2.03866C0.906627 4.91989 -0.00580244 5.84252 2.77854e-05 6.97431V9.57726H25V6.97431C25.0059 5.84252 24.0934 4.91989 22.9614 4.91309Z" fill="#656464"/>
<path d="M2.13331e-05 21.8282C-0.00508011 22.9566 0.905407 23.8753 2.03355 23.8804H22.9614C24.0898 23.878 25.0024 22.9615 25 21.8331V14.863H2.13331e-05V21.8282Z" fill="#656464"/>
</g>
<defs>
<clipPath id="clip0">
<rect width="25" height="25" fill="white"/>
</clipPath>
</defs>
</svg>
