<svg width="14" height="18" viewBox="0 0 14 18" fill="none" xmlns="http://www.w3.org/2000/svg">
<path d="M11.7417 2.42008H9.65701V1.35947C9.65678 0.914584 9.29618 0.554099 8.85141 0.553986H4.89337C4.44849 0.554099 4.08801 0.914584 4.08778 1.35947V2.42372H2.00312C1.20083 2.42395 0.515965 3.00289 0.382477 3.7939C0.248876 4.58492 0.705945 5.3568 1.46359 5.62013C1.45641 5.64621 1.45277 5.67321 1.45265 5.70031V15.6066C1.45311 16.6129 2.26873 17.4285 3.27501 17.429H10.4733C11.4796 17.4285 12.2954 16.6129 12.2957 15.6066V5.70031C12.296 5.67321 12.2922 5.64621 12.2847 5.62013C13.0434 5.35589 13.5002 4.58253 13.3658 3.79049C13.2314 2.99845 12.545 2.41939 11.7417 2.42008ZM4.82048 1.35947C4.82059 1.31721 4.85476 1.28316 4.8969 1.28293H8.85517C8.89731 1.28316 8.93148 1.31721 8.9316 1.35947V2.42372H4.82048V1.35947ZM10.4698 16.7H3.27501C2.67192 16.6983 2.18342 16.2097 2.1816 15.6066V5.71125H11.5667V15.6066C11.5633 16.2104 11.0735 16.6987 10.4698 16.7ZM11.7417 4.98231H2.00312C1.49776 4.98231 1.08818 4.57273 1.08818 4.06748C1.08818 3.56224 1.49776 3.15266 2.00312 3.15266H11.7417C12.247 3.15266 12.6566 3.56224 12.6566 4.06748C12.6566 4.57273 12.247 4.98231 11.7417 4.98231Z" fill="#F40505"/>
</svg>
