<svg xmlns="http://www.w3.org/2000/svg" width="18.034" height="18.034" viewBox="0 0 18.034 18.034"><defs><style>.a{fill:#2659B6;}</style></defs><path class="a" d="M9.017,0a9.017,9.017,0,1,0,9.017,9.017A9.012,9.012,0,0,0,9.017,0Zm0,16.625a7.608,7.608,0,1,1,7.608-7.608A7.6,7.6,0,0,1,9.017,16.625Z"/><g transform="translate(5.726 5.726)"><path class="a" d="M168.932,167.936l-2.089-2.089,2.089-2.089a.7.7,0,1,0-1-1l-2.089,2.089-2.089-2.089a.7.7,0,1,0-1,1l2.089,2.089-2.089,2.089a.7.7,0,1,0,1,1l2.089-2.089,2.089,2.089a.7.7,0,1,0,1-1Z" transform="translate(-162.555 -162.556)"/></g></svg>