<svg width="27" height="27" viewBox="0 0 27 27" fill="none" xmlns="http://www.w3.org/2000/svg">
<path d="M19.9612 2.6325H17.4862V1.4175C17.4853 1.10725 17.2341 0.855882 16.9237 0.855003H9.64492C9.33467 0.855882 9.0833 1.10725 9.08242 1.4175V2.6325H6.60742C5.05439 2.63303 3.79563 3.8918 3.79492 5.445V23.355C3.79563 24.908 5.05439 26.1668 6.60742 26.1675H19.9612C21.5144 26.1668 22.7731 24.908 22.7737 23.355V5.445C22.7731 3.8918 21.5144 2.63303 19.9612 2.6325ZM10.2074 1.98H16.3612V4.30875H10.2074V1.98ZM21.6487 23.355C21.646 24.2858 20.8921 25.0399 19.9612 25.0425H6.60742C5.67666 25.0399 4.92256 24.2858 4.91992 23.355V5.445C4.92256 4.51407 5.67666 3.76032 6.60742 3.7575H9.08242V4.87688C9.0833 5.18713 9.33467 5.4385 9.64492 5.43938H16.9237C17.2341 5.4385 17.4853 5.18713 17.4862 4.87688V3.7575H19.9612C20.8921 3.76032 21.646 4.51407 21.6487 5.445V23.355Z" fill="#205074"/>
<path d="M13.0745 19.98C12.7821 19.98 12.5449 20.217 12.5449 20.5095C12.5449 20.8021 12.7821 21.0391 13.0745 21.0391H19.2437C19.5363 21.0391 19.7733 20.8021 19.7733 20.5095C19.7733 20.217 19.5363 19.98 19.2437 19.98H13.0745Z" fill="#205074"/>
<path d="M13.0745 14.58C12.7821 14.58 12.5449 14.817 12.5449 15.1095C12.5449 15.4021 12.7821 15.6391 13.0745 15.6391H19.2437C19.5363 15.6391 19.7733 15.4021 19.7733 15.1095C19.7733 14.817 19.5363 14.58 19.2437 14.58H13.0745Z" fill="#205074"/>
<path d="M13.0217 9.18C12.7293 9.18 12.4922 9.41697 12.4922 9.70955C12.4922 10.0021 12.7293 10.2391 13.0217 10.2391H19.191C19.4836 10.2391 19.7205 10.0021 19.7205 9.70955C19.7205 9.41697 19.4836 9.18 19.191 9.18H13.0217Z" fill="#205074"/>
<path d="M10.2671 8.42228C10.2976 8.4522 10.3219 8.48792 10.3385 8.52735C10.355 8.56677 10.3636 8.6091 10.3636 8.65186C10.3636 8.69462 10.355 8.73696 10.3385 8.77638C10.3219 8.8158 10.2976 8.85152 10.2671 8.88145L8.07978 11.0688C8.0495 11.0994 8.01343 11.1238 7.97366 11.1404C7.93389 11.157 7.89121 11.1656 7.84811 11.1656C7.80501 11.1656 7.76234 11.157 7.72257 11.1404C7.6828 11.1238 7.64672 11.0994 7.61644 11.0688L6.57705 10.0294C6.5156 9.96848 6.48086 9.88568 6.48047 9.79918C6.48008 9.71267 6.51407 9.62956 6.57496 9.56812C6.63585 9.50667 6.71865 9.47193 6.80515 9.47154C6.89166 9.47115 6.97477 9.50514 7.03622 9.56603L7.87107 10.38L9.8288 8.42228C9.8883 8.36682 9.96662 8.33598 10.048 8.33598C10.1293 8.33598 10.2076 8.36682 10.2671 8.42228Z" fill="#205074"/>
<path d="M10.2671 13.5863C10.2976 13.6162 10.3219 13.6519 10.3385 13.6914C10.355 13.7308 10.3636 13.7731 10.3636 13.8159C10.3636 13.8586 10.355 13.901 10.3385 13.9404C10.3219 13.9798 10.2976 14.0155 10.2671 14.0455L8.07978 16.2328C8.0495 16.2635 8.01343 16.2878 7.97366 16.3044C7.93389 16.321 7.89121 16.3296 7.84811 16.3296C7.80501 16.3296 7.76234 16.321 7.72257 16.3044C7.6828 16.2878 7.64672 16.2635 7.61644 16.2328L6.57705 15.1934C6.5156 15.1325 6.48086 15.0497 6.48047 14.9632C6.48008 14.8767 6.51407 14.7936 6.57496 14.7321C6.63585 14.6707 6.71865 14.636 6.80515 14.6356C6.89166 14.6352 6.97477 14.6692 7.03622 14.73L7.87107 15.544L9.8288 13.5863C9.8883 13.5308 9.96662 13.5 10.048 13.5C10.1293 13.5 10.2076 13.5308 10.2671 13.5863Z" fill="#205074"/>
<path d="M10.2671 18.9863C10.2976 19.0162 10.3219 19.0519 10.3385 19.0914C10.355 19.1308 10.3636 19.1731 10.3636 19.2159C10.3636 19.2586 10.355 19.301 10.3385 19.3404C10.3219 19.3798 10.2976 19.4155 10.2671 19.4455L8.07978 21.6328C8.0495 21.6635 8.01343 21.6878 7.97366 21.7044C7.93389 21.721 7.89121 21.7296 7.84811 21.7296C7.80501 21.7296 7.76234 21.721 7.72257 21.7044C7.6828 21.6878 7.64672 21.6635 7.61644 21.6328L6.57705 20.5934C6.5156 20.5325 6.48086 20.4497 6.48047 20.3632C6.48008 20.2767 6.51407 20.1936 6.57496 20.1321C6.63585 20.0707 6.71865 20.036 6.80515 20.0356C6.89166 20.0352 6.97477 20.0692 7.03622 20.13L7.87107 20.944L9.8288 18.9863C9.8883 18.9308 9.96662 18.9 10.048 18.9C10.1293 18.9 10.2076 18.9308 10.2671 18.9863Z" fill="#205074"/>
</svg>
