<svg width="18" height="18" viewBox="0 0 18 18" fill="none" xmlns="http://www.w3.org/2000/svg">
    <path d="M15.3641 2.63423C11.8496 -0.878076 6.15017 -0.878076 2.63676 2.63423C-0.878921 6.14653 -0.878921 11.8482 2.63676 15.3627C4.39084 17.1168 6.6894 17.9947 8.9887 17.9975H9.0137C11.313 17.9941 13.6112 17.1156 15.364 15.3627C18.8786 11.8506 18.8786 6.14653 15.3641 2.63423ZM8.36566 3.11125H10.2299C10.7901 3.11125 10.8724 3.43769 10.8724 3.63279L10.8677 3.80194L10.8536 3.99682L10.4708 10.8297C10.4156 11.343 10.1889 11.443 9.81187 11.443H8.81823C8.44235 11.443 8.21325 11.3421 8.15797 10.8169L7.77625 3.99928L7.76461 3.80194L7.75767 3.63279C7.75709 3.43769 7.83586 3.11125 8.36566 3.11125ZM9.32399 16.2391C8.34445 16.2391 7.54792 15.4497 7.54792 14.4796C7.54792 13.4835 8.32789 12.7035 9.32399 12.7035C10.2944 12.7035 11.0835 13.4998 11.0835 14.4796C11.0837 15.4332 10.2755 16.2391 9.32399 16.2391Z" fill="#F40505" />
</svg>
    