<svg width="18" height="18" viewBox="0 0 18 18" fill="none" xmlns="http://www.w3.org/2000/svg">
<path d="M14.6598 11.9092C14.5926 11.842 14.5016 11.8042 14.4065 11.8042C14.3116 11.8042 14.2205 11.842 14.1534 11.9092L13.098 12.9646L11.9813 11.8481C11.8415 11.7083 11.6148 11.7083 11.475 11.8481C11.3353 11.9879 11.3353 12.2146 11.475 12.3543L12.5916 13.471L11.475 14.5876C11.4078 14.6547 11.3701 14.7457 11.3701 14.8406C11.3701 14.9358 11.4078 15.0268 11.475 15.0938C11.5425 15.1617 11.6345 15.1993 11.7299 15.198C11.8252 15.1976 11.9166 15.1603 11.985 15.0938L13.1014 13.9772L14.1571 15.0328C14.2244 15.1007 14.3164 15.1383 14.4119 15.1368C14.5072 15.1366 14.5986 15.0992 14.6668 15.0328C14.734 14.9657 14.772 14.8746 14.772 14.7797C14.772 14.6847 14.734 14.5937 14.6668 14.5265L13.6041 13.471L14.6598 12.4154C14.7269 12.3483 14.7647 12.2572 14.7647 12.1623C14.7647 12.0674 14.7269 11.9762 14.6598 11.9092V11.9092Z" fill="#003761"/>
<path d="M4.22964 8.77117H9.79468C9.99294 8.77117 10.1537 8.61039 10.1537 8.41214C10.1537 8.21388 9.99294 8.0531 9.79468 8.0531H4.22964C4.03127 8.0531 3.87061 8.21388 3.87061 8.41214C3.87061 8.61039 4.03127 8.77117 4.22964 8.77117V8.77117Z" fill="#003761"/>
<path d="M7.56139 10.3869H4.22964C4.03127 10.3869 3.87061 10.5477 3.87061 10.7459C3.87061 10.9442 4.03127 11.105 4.22964 11.105H7.56139C7.75964 11.105 7.92042 10.9442 7.92042 10.7459C7.92042 10.5477 7.75964 10.3869 7.56139 10.3869Z" fill="#003761"/>
<path d="M13.7944 9.58969V3.38568C13.7941 2.3943 12.9905 1.59084 11.9992 1.59051H10.5272V0.90475C10.5272 0.706383 10.3665 0.545715 10.1681 0.545715C9.96986 0.545715 9.80908 0.706383 9.80908 0.90475V1.59051H4.92621V0.90475C4.92621 0.706383 4.76554 0.545715 4.56717 0.545715C4.36892 0.545715 4.20814 0.706383 4.20814 0.90475V1.59051H2.73609C1.74482 1.59084 0.941367 2.3943 0.940918 3.38568V13.1119C0.941367 14.1032 1.74482 14.9067 2.73609 14.9071H9.38194C10.0727 16.6765 11.9254 17.7035 13.792 17.3521C15.6587 17.0008 17.0111 15.3705 17.0114 13.471C17.0149 11.543 15.6254 9.93448 13.7944 9.58969V9.58969ZM2.7398 2.30858H4.21184V2.99433C4.21184 3.19259 4.37251 3.35337 4.57087 3.35337C4.76913 3.35337 4.92991 3.19259 4.92991 2.99433V2.30858H9.81278V2.99433C9.81278 3.19259 9.97345 3.35337 10.1718 3.35337C10.3701 3.35337 10.5309 3.19259 10.5309 2.99433V2.30858H12.0029C12.597 2.31026 13.0782 2.79148 13.08 3.38568V4.25455H1.66269V3.38568C1.66314 2.79092 2.14514 2.30903 2.7398 2.30858ZM2.7398 14.189C2.14559 14.1874 1.66437 13.706 1.66269 13.1119V4.96903H13.0763V9.52159H13.0655C11.8929 9.52338 10.7816 10.0452 10.0315 10.9466C9.28119 11.8479 8.96972 13.0356 9.18077 14.189H2.7398ZM13.0655 16.7023C11.281 16.7023 9.83421 15.2556 9.83421 13.471C9.83421 11.6863 11.281 10.2397 13.0655 10.2397C14.8502 10.2397 16.2968 11.6863 16.2968 13.471C16.2941 15.2545 14.849 16.6996 13.0655 16.7023Z" fill="#003761"/>
</svg>
