<svg width="12" height="25" viewBox="0 0 12 25" fill="none" xmlns="http://www.w3.org/2000/svg">
<path d="M2.72572 19.2308V23.7179C2.72572 24.4261 3.29966 25 4.00778 25H4.19878C4.9069 25 5.48084 24.4261 5.48084 23.7179V19.2308H6.57186V23.7179C6.57186 24.4261 7.14581 25 7.85392 25H8.04492C8.75304 25 9.32699 24.4261 9.32699 23.7179V19.2308H9.89662C10.6047 19.2308 11.1787 18.6568 11.1787 17.9487L10.9334 16.8449C11.7855 16.612 11.5347 16.2038 11.5347 16.2038C11.5347 16.2038 9.61157 8.11966 9.4693 7.44314C9.32699 6.76662 8.66035 6.61578 8.66035 6.61578L8.65951 6.61153C7.93557 7.28032 6.97105 7.69229 5.90822 7.69229C4.84539 7.69229 3.88045 7.28032 3.15693 6.61153L3.14152 6.67945L3.15304 6.61962C3.15304 6.61962 2.48293 6.75337 2.32353 7.42647C2.1637 8.0991 0.0385112 16.1324 0.0385112 16.1324C0.0385112 16.1324 -0.273882 16.6102 0.880796 16.8538L0.637222 17.9487C0.637222 18.6568 1.21117 19.2308 1.91929 19.2308H2.72572Z" fill="#F25287"/>
<path d="M3.24494 6.09488C3.90905 6.81241 4.85517 7.26496 5.90775 7.26496C6.96033 7.26496 7.90645 6.81241 8.57056 6.09488C9.17011 5.44659 9.54023 4.58291 9.54023 3.63248C9.54023 1.62947 7.91076 0 5.90775 0C3.90474 0 2.27527 1.62947 2.27527 3.63248C2.27527 4.58291 2.64539 5.44659 3.24494 6.09488Z" fill="#F25287"/>
</svg>
