<svg width="19" height="18" viewBox="0 0 19 18" fill="none" xmlns="http://www.w3.org/2000/svg">
<path d="M16.5085 4.83947L11.7733 0.104203C11.7066 0.0374766 11.6161 0 11.5217 0H4.84929C4.03898 0 3.37976 0.659215 3.37976 1.46953V16.5305C3.37976 17.3408 4.03898 18 4.84929 18H15.1432C15.9535 18 16.6127 17.3408 16.6127 16.5305V5.09101C16.6127 4.99669 16.5752 4.90616 16.5085 4.83947ZM11.8775 1.21461L15.3981 4.7352H12.6355C12.2175 4.7352 11.8775 4.39516 11.8775 3.97716V1.21461H11.8775ZM15.9012 16.5305C15.9012 16.9484 15.5612 17.2885 15.1432 17.2885H4.84929C4.43132 17.2885 4.09125 16.9484 4.09125 16.5305V1.46953C4.09125 1.05156 4.43132 0.711492 4.84929 0.711492H11.166V3.97723C11.166 4.78754 11.8251 5.44676 12.6355 5.44676H15.9012V16.5305Z" fill="#19456B"/>
<path d="M12.8423 9.03564H7.15055C6.95409 9.03564 6.7948 9.19494 6.7948 9.39139C6.7948 9.58784 6.95409 9.74714 7.15055 9.74714H12.8423C13.0388 9.74714 13.198 9.58784 13.198 9.39139C13.198 9.19494 13.0388 9.03564 12.8423 9.03564Z" fill="#19456B"/>
<path d="M12.8423 10.6245H7.15055C6.95409 10.6245 6.7948 10.7838 6.7948 10.9803C6.7948 11.1767 6.95409 11.336 7.15055 11.336H12.8423C13.0388 11.336 13.198 11.1767 13.198 10.9803C13.198 10.7838 13.0388 10.6245 12.8423 10.6245Z" fill="#19456B"/>
<path d="M12.8423 12.2134H7.15055C6.95409 12.2134 6.7948 12.3727 6.7948 12.5691C6.7948 12.7656 6.95409 12.9249 7.15055 12.9249H12.8423C13.0388 12.9249 13.198 12.7656 13.198 12.5691C13.198 12.3727 13.0388 12.2134 12.8423 12.2134Z" fill="#19456B"/>
<path d="M10.9925 13.8024H7.15055C6.95409 13.8024 6.7948 13.9617 6.7948 14.1581C6.7948 14.3546 6.95409 14.5139 7.15055 14.5139H10.9925C11.189 14.5139 11.3482 14.3546 11.3482 14.1581C11.3482 13.9617 11.189 13.8024 10.9925 13.8024Z" fill="#19456B"/>
</svg>
