<svg width="18" height="18" viewBox="0 0 18 18" fill="none" xmlns="http://www.w3.org/2000/svg">
<g clip-path="url(#clip0_355_11844)">
<path d="M13.0762 7.79205V4.3856C13.0762 4.2881 13.0312 4.19801 12.9674 4.12674L9.14832 0.116318C9.07704 0.0413361 8.97569 0 8.87448 0H2.81937C1.70151 0 0.808594 0.911591 0.808594 2.02959V13.4794C0.808594 14.5974 1.70151 15.494 2.81937 15.494H7.59897C8.50301 16.9946 10.1463 18 12.0182 18C14.8619 18 17.1841 15.689 17.1841 12.8416C17.188 10.3543 15.4021 8.276 13.0762 7.79205ZM9.24966 1.31685L11.812 4.01413H10.15C9.65479 4.01413 9.24966 3.6053 9.24966 3.11009V1.31685ZM2.81937 14.7437C2.11789 14.7437 1.55896 14.1809 1.55896 13.4794V2.02959C1.55896 1.32426 2.11789 0.750366 2.81937 0.750366H8.4993V3.11009C8.4993 4.02168 9.2384 4.7645 10.15 4.7645H12.3258V7.69441C12.2134 7.6907 12.1233 7.67944 12.0258 7.67944C10.7165 7.67944 9.51224 8.18221 8.60435 8.97006H3.83986C3.63345 8.97006 3.46468 9.13884 3.46468 9.34511C3.46468 9.55151 3.63345 9.72029 3.83986 9.72029H7.90659C7.64017 10.0955 7.41879 10.4707 7.24631 10.8833H3.83986C3.63345 10.8833 3.46468 11.0521 3.46468 11.2585C3.46468 11.4648 3.63345 11.6337 3.83986 11.6337H7.00241C6.90862 12.0089 6.85986 12.4253 6.85986 12.8416C6.85986 13.5169 6.99115 14.1847 7.22749 14.7475H2.81937V14.7437ZM12.0221 17.2535C9.59106 17.2535 7.61394 15.2764 7.61394 12.8454C7.61394 10.4144 9.58722 8.43723 12.0221 8.43723C14.4568 8.43723 16.4301 10.4144 16.4301 12.8454C16.4301 15.2764 14.4531 17.2535 12.0221 17.2535Z" fill="#ED7172"/>
<path d="M3.83978 7.84082H7.64009C7.8465 7.84082 8.01527 7.67191 8.01527 7.46564C8.01527 7.25923 7.8465 7.09045 7.64009 7.09045H3.83978C3.63338 7.09045 3.4646 7.25923 3.4646 7.46564C3.4646 7.67191 3.63338 7.84082 3.83978 7.84082Z" fill="#ED7172"/>
<path d="M13.9428 12.7666L12.401 14.4285V10.3318C12.401 10.1254 12.2321 9.95667 12.0258 9.95667C11.8194 9.95667 11.6506 10.1254 11.6506 10.3318V14.4285L10.0974 12.7666C9.95488 12.6166 9.71483 12.6053 9.56473 12.7479C9.41463 12.8904 9.40337 13.1268 9.54606 13.2769L11.7407 15.6366C11.812 15.7116 11.9095 15.7566 12.0145 15.7566C12.1196 15.7566 12.2171 15.7116 12.2884 15.6366L14.4869 13.2769C14.6294 13.1268 14.6219 12.8867 14.4718 12.7479C14.318 12.6053 14.0855 12.6166 13.9428 12.7666Z" fill="#ED7172"/>
</g>
<defs>
<clipPath id="clip0_355_11844">
<rect width="18" height="18" fill="white"/>
</clipPath>
</defs>
</svg>
