  <svg width="18" height="18" viewBox="0 0 18 18" fill="none" xmlns="http://www.w3.org/2000/svg">
    <path d="M15.6797 2.77734H15.1172V1.96875C15.1169 1.71709 15.0168 1.47581 14.8389 1.29786C14.6609 1.11991 14.4196 1.01981 14.168 1.01953H13.9922C13.7405 1.01981 13.4992 1.11991 13.3213 1.29786C13.1433 1.47581 13.0432 1.71709 13.043 1.96875V2.77734H4.92188V1.96875C4.9216 1.71709 4.8215 1.47581 4.64355 1.29786C4.46559 1.11991 4.22432 1.01981 3.97266 1.01953H3.79688C3.54521 1.01981 3.30394 1.11991 3.12598 1.29786C2.94803 1.47581 2.84794 1.71709 2.84766 1.96875V2.77734H2.32031C1.88224 2.77784 1.46224 2.95208 1.15247 3.26185C0.842706 3.57162 0.668462 3.99161 0.667969 4.42969V15.3281C0.668462 15.7662 0.842706 16.1862 1.15247 16.496C1.46224 16.8057 1.88224 16.98 2.32031 16.9805H15.6797C16.1178 16.98 16.5378 16.8057 16.8475 16.496C17.1573 16.1862 17.3315 15.7662 17.332 15.3281V4.42969C17.3315 3.99161 17.1573 3.57162 16.8475 3.26185C16.5378 2.95208 16.1178 2.77784 15.6797 2.77734ZM13.5352 1.96875C13.5353 1.84758 13.5835 1.73141 13.6692 1.64573C13.7549 1.56005 13.871 1.51186 13.9922 1.51172H14.168C14.2891 1.51186 14.4053 1.56005 14.491 1.64573C14.5767 1.73141 14.6249 1.84758 14.625 1.96875V3.55078C14.6249 3.67195 14.5767 3.78812 14.491 3.8738C14.4053 3.95948 14.2891 4.00767 14.168 4.00781H13.9922C13.871 4.00767 13.7549 3.95948 13.6692 3.8738C13.5835 3.78812 13.5353 3.67195 13.5352 3.55078V1.96875ZM3.33984 1.96875C3.33998 1.84758 3.38818 1.73141 3.47386 1.64573C3.55954 1.56005 3.67571 1.51186 3.79688 1.51172H3.97266C4.09383 1.51186 4.20999 1.56005 4.29567 1.64573C4.38135 1.73141 4.42955 1.84758 4.42969 1.96875V3.55078C4.42955 3.67195 4.38135 3.78812 4.29567 3.8738C4.20999 3.95948 4.09383 4.00767 3.97266 4.00781H3.79688C3.67571 4.00767 3.55954 3.95948 3.47386 3.8738C3.38818 3.78812 3.33998 3.67195 3.33984 3.55078V1.96875ZM1.16016 4.42969C1.16051 4.1221 1.28285 3.82722 1.50035 3.60972C1.71784 3.39223 2.01273 3.26988 2.32031 3.26953H2.84766V3.55078C2.84794 3.80244 2.94803 4.04372 3.12598 4.22167C3.30394 4.39962 3.54521 4.49972 3.79688 4.5H3.97266C4.22432 4.49972 4.46559 4.39962 4.64355 4.22167C4.8215 4.04372 4.9216 3.80244 4.92188 3.55078V3.26953H13.043V3.55078C13.0432 3.80244 13.1433 4.04372 13.3213 4.22167C13.4992 4.39962 13.7405 4.49972 13.9922 4.5H14.168C14.4196 4.49972 14.6609 4.39962 14.8389 4.22167C15.0168 4.04372 15.1169 3.80244 15.1172 3.55078V3.26953H15.6797C15.9873 3.26988 16.2822 3.39223 16.4997 3.60972C16.7171 3.82722 16.8395 4.1221 16.8398 4.42969V5.58984H1.16016V4.42969ZM15.6797 16.4883H2.32031C2.01273 16.4879 1.71784 16.3656 1.50035 16.1481C1.28285 15.9306 1.16051 15.6357 1.16016 15.3281V6.08203H16.8398V15.3281C16.8395 15.6357 16.7171 15.9306 16.4997 16.1481C16.2822 16.3656 15.9873 16.4879 15.6797 16.4883Z" fill="#003761"/>
    <path d="M2.07422 9.21094H3.86719C3.93246 9.21094 3.99505 9.18501 4.0412 9.13886C4.08735 9.09271 4.11328 9.03011 4.11328 8.96484V7.13672C4.11328 7.07145 4.08735 7.00886 4.0412 6.9627C3.99505 6.91655 3.93246 6.89062 3.86719 6.89062H2.07422C2.00895 6.89063 1.94636 6.91655 1.9002 6.9627C1.85405 7.00886 1.82812 7.07145 1.82812 7.13672V8.96484C1.82812 9.03011 1.85405 9.09271 1.9002 9.13886C1.94636 9.18501 2.00895 9.21094 2.07422 9.21094ZM2.32031 7.38281H3.62109V8.71875H2.32031V7.38281Z" fill="#003761"/>
    <path d="M5.0625 9.21094H6.85547C6.92074 9.21094 6.98333 9.18501 7.02948 9.13886C7.07563 9.09271 7.10156 9.03011 7.10156 8.96484V7.13672C7.10156 7.07145 7.07563 7.00886 7.02948 6.9627C6.98333 6.91655 6.92074 6.89062 6.85547 6.89062H5.0625C4.99723 6.89063 4.93464 6.91655 4.88849 6.9627C4.84233 7.00886 4.81641 7.07145 4.81641 7.13672V8.96484C4.81641 9.03011 4.84233 9.09271 4.88849 9.13886C4.93464 9.18501 4.99723 9.21094 5.0625 9.21094ZM5.30859 7.38281H6.60938V8.71875H5.30859V7.38281Z" fill="#003761"/>
    <path d="M8.08594 9.21094H9.87891C9.94417 9.21094 10.0068 9.18501 10.0529 9.13886C10.0991 9.09271 10.125 9.03011 10.125 8.96484V7.13672C10.125 7.07145 10.0991 7.00886 10.0529 6.9627C10.0068 6.91655 9.94417 6.89062 9.87891 6.89062H8.08594C8.02067 6.89063 7.95807 6.91655 7.91192 6.9627C7.86577 7.00886 7.83984 7.07145 7.83984 7.13672V8.96484C7.83984 9.03011 7.86577 9.09271 7.91192 9.13886C7.95807 9.18501 8.02067 9.21094 8.08594 9.21094ZM8.33203 7.38281H9.63281V8.71875H8.33203V7.38281Z" fill="#003761"/>
    <path d="M11.0742 9.21094H12.8672C12.9325 9.21094 12.9951 9.18501 13.0412 9.13886C13.0874 9.09271 13.1133 9.03011 13.1133 8.96484V7.13672C13.1133 7.07145 13.0874 7.00886 13.0412 6.9627C12.9951 6.91655 12.9325 6.89062 12.8672 6.89062H11.0742C11.009 6.89063 10.9464 6.91655 10.9002 6.9627C10.8541 7.00886 10.8281 7.07145 10.8281 7.13672V8.96484C10.8281 9.03011 10.8541 9.09271 10.9002 9.13886C10.9464 9.18501 11.009 9.21094 11.0742 9.21094ZM11.3203 7.38281H12.6211V8.71875H11.3203V7.38281Z" fill="#003761"/>
    <path d="M14.0977 9.21094H15.8906C15.9559 9.21094 16.0185 9.18501 16.0646 9.13886C16.1108 9.09271 16.1367 9.03011 16.1367 8.96484V7.13672C16.1367 7.07145 16.1108 7.00886 16.0646 6.9627C16.0185 6.91655 15.9559 6.89062 15.8906 6.89062H14.0977C14.0324 6.89063 13.9698 6.91655 13.9236 6.9627C13.8775 7.00886 13.8516 7.07145 13.8516 7.13672V8.96484C13.8516 9.03011 13.8775 9.09271 13.9236 9.13886C13.9698 9.18501 14.0324 9.21094 14.0977 9.21094ZM14.3438 7.38281H15.6445V8.71875H14.3438V7.38281Z" fill="#003761"/>
    <path d="M3.90234 10.2305H2.10938C2.04411 10.2305 1.98151 10.2564 1.93536 10.3025C1.88921 10.3487 1.86328 10.4113 1.86328 10.4766V12.3047C1.86328 12.37 1.88921 12.4326 1.93536 12.4787C1.98151 12.5249 2.04411 12.5508 2.10938 12.5508H3.90234C3.93466 12.5508 3.96666 12.5444 3.99652 12.532C4.02638 12.5197 4.05351 12.5016 4.07636 12.4787C4.09921 12.4558 4.11734 12.4287 4.1297 12.3989C4.14207 12.369 4.14844 12.337 4.14844 12.3047V10.4766C4.14844 10.4442 4.14207 10.4122 4.1297 10.3824C4.11734 10.3525 4.09921 10.3254 4.07636 10.3025C4.05351 10.2797 4.02638 10.2616 3.99652 10.2492C3.96666 10.2368 3.93466 10.2305 3.90234 10.2305ZM3.65625 12.0586H2.35547V10.7227H3.65625V12.0586Z" fill="#003761"/>
    <path d="M6.89062 10.2305H5.09766C5.03239 10.2305 4.96979 10.2564 4.92364 10.3025C4.87749 10.3487 4.85156 10.4113 4.85156 10.4766V12.3047C4.85156 12.37 4.87749 12.4326 4.92364 12.4787C4.96979 12.5249 5.03239 12.5508 5.09766 12.5508H6.89062C6.95589 12.5508 7.01849 12.5249 7.06464 12.4787C7.11079 12.4326 7.13672 12.37 7.13672 12.3047V10.4766C7.13672 10.4113 7.11079 10.3487 7.06464 10.3025C7.01849 10.2564 6.95589 10.2305 6.89062 10.2305ZM6.64453 12.0586H5.34375V10.7227H6.64453V12.0586Z" fill="#003761"/>
    <path d="M9.91406 10.2305H8.12109C8.05583 10.2305 7.99323 10.2564 7.94708 10.3025C7.90093 10.3487 7.875 10.4113 7.875 10.4766V12.3047C7.875 12.37 7.90093 12.4326 7.94708 12.4787C7.99323 12.5249 8.05583 12.5508 8.12109 12.5508H9.91406C9.97933 12.5508 10.0419 12.5249 10.0881 12.4787C10.1342 12.4326 10.1602 12.37 10.1602 12.3047V10.4766C10.1602 10.4113 10.1342 10.3487 10.0881 10.3025C10.0419 10.2564 9.97933 10.2305 9.91406 10.2305ZM9.66797 12.0586H8.36719V10.7227H9.66797V12.0586Z" fill="#003761"/>
    <path d="M3.90234 13.3594H2.10938C2.04411 13.3594 1.98151 13.3853 1.93536 13.4315C1.88921 13.4776 1.86328 13.5402 1.86328 13.6055V15.4336C1.86328 15.4989 1.88921 15.5615 1.93536 15.6076C1.98151 15.6538 2.04411 15.6797 2.10938 15.6797H3.90234C3.93466 15.6797 3.96666 15.6733 3.99652 15.661C4.02638 15.6486 4.05351 15.6305 4.07636 15.6076C4.09921 15.5848 4.11734 15.5576 4.1297 15.5278C4.14207 15.4979 4.14844 15.4659 4.14844 15.4336V13.6055C4.14844 13.5732 4.14207 13.5412 4.1297 13.5113C4.11734 13.4814 4.09921 13.4543 4.07636 13.4315C4.05351 13.4086 4.02638 13.3905 3.99652 13.3781C3.96666 13.3657 3.93466 13.3594 3.90234 13.3594ZM3.65625 15.1875H2.35547V13.8516H3.65625V15.1875Z" fill="#003761"/>
    <path d="M6.89062 13.3594H5.09766C5.03239 13.3594 4.96979 13.3853 4.92364 13.4315C4.87749 13.4776 4.85156 13.5402 4.85156 13.6055V15.4336C4.85156 15.4989 4.87749 15.5615 4.92364 15.6076C4.96979 15.6538 5.03239 15.6797 5.09766 15.6797H6.89062C6.95589 15.6797 7.01849 15.6538 7.06464 15.6076C7.11079 15.5615 7.13672 15.4989 7.13672 15.4336V13.6055C7.13672 13.5402 7.11079 13.4776 7.06464 13.4315C7.01849 13.3853 6.95589 13.3594 6.89062 13.3594ZM6.64453 15.1875H5.34375V13.8516H6.64453V15.1875Z" fill="#003761"/>
    <path d="M9.91406 13.3594H8.12109C8.05583 13.3594 7.99323 13.3853 7.94708 13.4315C7.90093 13.4776 7.875 13.5402 7.875 13.6055V15.4336C7.875 15.4989 7.90093 15.5615 7.94708 15.6076C7.99323 15.6538 8.05583 15.6797 8.12109 15.6797H9.91406C9.97933 15.6797 10.0419 15.6538 10.0881 15.6076C10.1342 15.5615 10.1602 15.4989 10.1602 15.4336V13.6055C10.1602 13.5402 10.1342 13.4776 10.0881 13.4315C10.0419 13.3853 9.97933 13.3594 9.91406 13.3594ZM9.66797 15.1875H8.36719V13.8516H9.66797V15.1875Z" fill="#003761"/>
    <path d="M12.9023 10.2305H11.1094C11.0441 10.2305 10.9815 10.2564 10.9354 10.3025C10.8892 10.3487 10.8633 10.4113 10.8633 10.4766V12.3047C10.8633 12.37 10.8892 12.4326 10.9354 12.4787C10.9815 12.5249 11.0441 12.5508 11.1094 12.5508H12.9023C12.9676 12.5508 13.0302 12.5249 13.0764 12.4787C13.1225 12.4326 13.1484 12.37 13.1484 12.3047V10.4766C13.1484 10.4113 13.1225 10.3487 13.0764 10.3025C13.0302 10.2564 12.9676 10.2305 12.9023 10.2305ZM12.6562 12.0586H11.3555V10.7227H12.6562V12.0586Z" fill="#003761"/>
    <path d="M12.9023 13.32H11.1094C11.0441 13.32 10.9815 13.3459 10.9354 13.3921C10.8892 13.4382 10.8633 13.5008 10.8633 13.5661V15.3942C10.8633 15.4595 10.8892 15.5221 10.9354 15.5682C10.9815 15.6144 11.0441 15.6403 11.1094 15.6403H12.9023C12.9676 15.6403 13.0302 15.6144 13.0764 15.5682C13.1225 15.5221 13.1484 15.4595 13.1484 15.3942V13.5661C13.1484 13.5008 13.1225 13.4382 13.0764 13.3921C13.0302 13.3459 12.9676 13.32 12.9023 13.32ZM12.6562 15.1481H11.3555V13.8122H12.6562V15.1481Z" fill="#003761"/>
    <path d="M15.9258 10.2305H14.1328C14.0675 10.2305 14.0049 10.2564 13.9588 10.3025C13.9126 10.3487 13.8867 10.4113 13.8867 10.4766V12.3047C13.8867 12.37 13.9126 12.4326 13.9588 12.4787C14.0049 12.5249 14.0675 12.5508 14.1328 12.5508H15.9258C15.991 12.5508 16.0536 12.5249 16.0998 12.4787C16.1459 12.4326 16.1719 12.37 16.1719 12.3047V10.4766C16.1719 10.4113 16.1459 10.3487 16.0998 10.3025C16.0536 10.2564 15.991 10.2305 15.9258 10.2305ZM15.6797 12.0586H14.3789V10.7227H15.6797V12.0586Z" fill="#003761"/>
    <path d="M15.9258 13.3H14.1328C14.0675 13.3 14.0049 13.3259 13.9588 13.3721C13.9126 13.4182 13.8867 13.4808 13.8867 13.5461V15.3742C13.8867 15.4395 13.9126 15.5021 13.9588 15.5482C14.0049 15.5944 14.0675 15.6203 14.1328 15.6203H15.9258C15.991 15.6203 16.0536 15.5944 16.0998 15.5482C16.1459 15.5021 16.1719 15.4395 16.1719 15.3742V13.5461C16.1719 13.4808 16.1459 13.4182 16.0998 13.3721C16.0536 13.3259 15.991 13.3 15.9258 13.3ZM15.6797 15.1281H14.3789V13.7922H15.6797V15.1281Z" fill="#003761"/>
  </svg>