<svg width="25" height="25" viewBox="0 0 25 25" fill="none" xmlns="http://www.w3.org/2000/svg">
<g clip-path="url(#clip0)">
<path d="M16.99 24.2231C18.505 24.2231 19.7967 23.1032 20.0782 21.6136C18.4445 21.5146 16.9488 20.666 16.0256 19.3147C15.1025 17.9634 14.8561 16.2611 15.3581 14.7035C15.2979 14.7497 15.2238 14.7748 15.148 14.7748H13.4349C13.2428 14.7748 13.0871 14.619 13.0871 14.427C13.0871 14.2348 13.2428 14.0793 13.4349 14.0793H15.148C15.3085 14.0793 15.4482 14.1895 15.4858 14.3458C16.2568 12.4297 18.073 11.138 20.1359 11.0379V2.59902C20.1357 1.90729 20.4201 1.24612 20.9225 0.77063H5.77102C4.59972 0.774253 3.64783 1.71664 3.6322 2.88794L3.50586 18.3431H13.4985C13.6907 18.3431 13.8463 18.4986 13.8463 18.6909V21.0018C13.8463 22.7781 15.2567 24.2231 16.99 24.2231V24.2231ZM16.5878 5.88943H17.4224C17.6147 5.88943 17.7702 6.04522 17.7702 6.23722C17.7702 6.42923 17.6147 6.58501 17.4224 6.58501H16.5878C16.3958 6.58501 16.24 6.42923 16.24 6.23722C16.24 6.04522 16.3958 5.88943 16.5878 5.88943ZM10.213 5.88943H15.1222C15.3144 5.88943 15.47 6.04522 15.47 6.23722C15.47 6.42923 15.3144 6.58501 15.1222 6.58501H10.2133C10.0213 6.58501 9.86548 6.42923 9.86548 6.23722C9.86548 6.04522 10.0213 5.88943 10.2133 5.88943H10.213ZM11.973 10.3321C11.973 10.5244 11.8175 10.6799 11.6253 10.6799H10.2706C10.0785 10.6799 9.92276 10.5244 9.92276 10.3321C9.92276 10.1401 10.0785 9.98434 10.2706 9.98434H11.6255C11.8175 9.98434 11.9733 10.1399 11.9733 10.3319L11.973 10.3321ZM5.86137 5.88921H8.76754C8.95955 5.88921 9.11533 6.04499 9.11533 6.237C9.11533 6.42901 8.95955 6.58479 8.76754 6.58479H5.86137C5.66936 6.58479 5.51358 6.42901 5.51358 6.237C5.51358 6.04499 5.66936 5.88921 5.86137 5.88921ZM5.86137 9.98412H8.77569C8.9677 9.98412 9.12348 10.1399 9.12348 10.3319C9.12348 10.5241 8.9677 10.6797 8.77569 10.6797H5.86137C5.66936 10.6797 5.51358 10.5241 5.51358 10.3319C5.51358 10.1399 5.66936 9.98412 5.86137 9.98412ZM11.9629 14.7748H5.86137C5.66936 14.7748 5.51358 14.6193 5.51358 14.427C5.51358 14.235 5.66936 14.0793 5.86137 14.0793H11.9629C12.1549 14.0793 12.3106 14.235 12.3106 14.427C12.3106 14.6193 12.1549 14.7748 11.9629 14.7748ZM12.7486 10.3321C12.7486 10.1401 12.9043 9.98434 13.0963 9.98434H17.4231C17.6151 9.98434 17.7709 10.1401 17.7709 10.3321C17.7709 10.5241 17.6151 10.6799 17.4231 10.6799H13.0963C12.9041 10.6799 12.7486 10.5241 12.7486 10.3319V10.3321Z" fill="#656464"/>
<path d="M3.14369 24.2232H14.8096C13.766 23.483 13.1472 22.2818 13.1503 21.002V19.0389H0V21.002C0 22.7781 1.41018 24.2232 3.14369 24.2232Z" fill="#656464"/>
<path d="M23.6518 13.0719C22.1794 11.5993 19.9013 11.2988 18.0976 12.3397C16.2937 13.3803 15.4136 15.5026 15.9515 17.5146C16.4895 19.5264 18.3116 20.9262 20.3942 20.9278C20.4173 20.9278 20.4402 20.9264 20.4631 20.9262H20.4635C22.3127 20.9002 23.9665 19.7698 24.6621 18.0562C25.3577 16.3427 24.9599 14.3793 23.652 13.0719H23.6518ZM20.3979 15.9516C21.162 15.9523 21.8049 16.5247 21.8936 17.2837C21.9824 18.0427 21.489 18.748 20.7456 18.9248V19.3079C20.7456 19.4999 20.5901 19.6557 20.3979 19.6557C20.2059 19.6557 20.0501 19.4999 20.0501 19.3079V18.9248C19.3712 18.7629 18.8919 18.1568 18.8908 17.4587C18.8908 17.2667 19.0466 17.1109 19.2386 17.1109C19.4308 17.1109 19.5864 17.2667 19.5864 17.4587C19.587 17.9036 19.9455 18.2652 20.3902 18.27C20.3927 18.27 20.3954 18.2695 20.3979 18.2695C20.4006 18.2695 20.4031 18.2698 20.4058 18.27C20.8475 18.2589 21.1992 17.8966 21.1969 17.4546C21.1949 17.0129 20.8396 16.654 20.3979 16.6472C19.6337 16.6468 18.9909 16.0743 18.9021 15.3151C18.8133 14.5562 19.3067 13.8508 20.0501 13.674V13.3439C20.0501 13.1519 20.2059 12.9961 20.3979 12.9961C20.5901 12.9961 20.7456 13.1519 20.7456 13.3439V13.6736C21.4247 13.8354 21.904 14.4418 21.9049 15.1399C21.9049 15.3319 21.7494 15.4877 21.5572 15.4877C21.3651 15.4877 21.2094 15.3319 21.2094 15.1399C21.2094 14.6916 20.8462 14.3284 20.3979 14.3284C19.9498 14.3284 19.5864 14.6916 19.5864 15.1399C19.5864 15.588 19.9498 15.9514 20.3979 15.9514V15.9516Z" fill="#656464"/>
<path d="M20.8311 2.5991V6.86473H24.4874V2.5991C24.4817 1.59332 23.665 0.781128 22.6592 0.781128C21.6537 0.781128 20.8367 1.59332 20.8311 2.5991Z" fill="#656464"/>
<path d="M20.3976 14.3194C20.5898 14.3194 20.7454 14.1636 20.7454 13.9716V13.6736C20.5169 13.619 20.2785 13.619 20.0498 13.6736V13.9714C20.0498 14.1636 20.2056 14.3194 20.3976 14.3194Z" fill="#656464"/>
</g>
<defs>
<clipPath id="clip0">
<rect width="25" height="25" fill="white"/>
</clipPath>
</defs>
</svg>
