<svg width="18" height="18" viewBox="0 0 18 18" fill="none" xmlns="http://www.w3.org/2000/svg">
<path d="M5.84813 8.46562C5.84938 8.46562 5.85059 8.46562 5.85184 8.46562H7.35925V6.9545C7.35721 6.64974 7.60262 6.40099 7.90739 6.39895C7.90864 6.39895 7.90989 6.39895 7.9111 6.39895H10.0889C10.3936 6.39895 10.6407 6.64603 10.6407 6.9508V8.46191H12.1481C12.4529 8.45987 12.7017 8.70524 12.7037 9.01001C12.7037 9.01251 12.7037 9.01497 12.7037 9.01747V11.1915C12.7037 11.4963 12.4566 11.7434 12.1518 11.7434H10.6407V13.2508C10.6428 13.5556 10.3973 13.8043 10.0926 13.8064C10.0913 13.8064 10.0901 13.8064 10.0889 13.8064H7.9148C7.61003 13.8064 7.36295 13.5593 7.36295 13.2545V11.7434H5.85184C5.54707 11.7454 5.29832 11.5 5.29628 11.1952C5.29628 11.194 5.29628 11.1927 5.29628 11.1915V9.01747C5.29628 8.7127 5.54332 8.46562 5.84813 8.46562ZM6.03702 11.0027H7.72962C7.93415 11.0027 8.09999 11.1685 8.09999 11.373V13.0656H9.89999V11.373C9.89999 11.1685 10.0658 11.0027 10.2704 11.0027H11.9629V9.20636H10.2704C10.0658 9.20636 9.89999 9.04052 9.89999 8.83599V7.13969H8.10369V8.83228C8.10369 9.03682 7.93786 9.20265 7.73332 9.20265H6.03702V11.0027Z" fill="#19456B"/>
<path d="M2.55555 3.62864H5.60741V2.32494C5.58819 1.73003 6.05491 1.23216 6.64981 1.21295C6.68014 1.21198 6.71046 1.21225 6.74074 1.21383H11.2593C11.8537 1.18286 12.3607 1.63961 12.3917 2.23401C12.3933 2.26429 12.3936 2.29461 12.3926 2.32494V3.62124H15.4444C16.6222 3.62124 18 4.29161 18 6.17679V14.2323C18 16.1175 16.6222 16.7879 15.4444 16.7879H2.55555C1.37778 16.7879 -2.93167e-07 16.1175 -2.93167e-07 14.2323V6.1842C-2.93167e-07 4.29901 1.37407 3.62864 2.55555 3.62864ZM11.6519 2.32494C11.6519 2.21753 11.6519 1.92864 11.2556 1.92864H6.74074C6.34444 1.92864 6.34444 2.21383 6.34444 2.32494V3.62124H11.6519V2.32494ZM0.74074 14.2323C0.74074 15.8694 2.00741 16.0472 2.55555 16.0472H15.4444C15.9889 16.0472 17.2593 15.8694 17.2593 14.2323V6.1842C17.2593 4.54716 15.9926 4.36938 15.4444 4.36938H2.55555C2.01111 4.36938 0.74074 4.54716 0.74074 6.1842V14.2323V14.2323Z" fill="#19456B"/>
</svg>
