<?xml version="1.0" encoding="utf-8"?>
<!-- Generator: Adobe Illustrator 25.0.1, SVG Export Plug-In . SVG Version: 6.00 Build 0)  -->
<svg version="1.1" id="Layer_1" xmlns="http://www.w3.org/2000/svg" xmlns:xlink="http://www.w3.org/1999/xlink" x="0px" y="0px"
	 viewBox="0 0 113 105" style="enable-background:new 0 0 113 105;" xml:space="preserve">
<style type="text/css">
	.st0{fill:#E1E1E1;}
	.st1{fill:#E8E8E8;}
	.st2{fill:#D6D6D4;}
	.st3{fill:#F6F6F6;}
	.st4{fill:#19456B;}
	.st5{fill:#EBEBE9;}
</style>
<g>
	<g id="Flat_1_" transform="translate(-24.753 -24)">
		<path id="Rectangle_483_1_" class="st0" d="M76.4,57.8h22.7c7.2,0,12.9,5.8,12.9,12.9v17.4c0,7.2-5.8,12.9-12.9,12.9H76.4
			c-7.2,0-12.9-5.8-12.9-12.9V70.8C63.4,63.6,69.2,57.8,76.4,57.8z"/>
		<path id="Rectangle_484_1_" class="st1" d="M76.4,53.6h22.7c7.2,0,12.9,5.8,12.9,12.9V84c0,7.2-5.8,12.9-12.9,12.9H76.4
			c-7.2,0-12.9-5.8-12.9-12.9V66.5C63.4,59.4,69.2,53.6,76.4,53.6z"/>
		<path id="Rectangle_485_1_" class="st2" d="M76.4,49.4h22.7c7.2,0,12.9,5.8,12.9,12.9v17.4c0,7.2-5.8,12.9-12.9,12.9H76.4
			c-7.2,0-12.9-5.8-12.9-12.9V62.3C63.4,55.2,69.2,49.4,76.4,49.4z"/>
		<path id="Path_1467_1_" class="st3" d="M101.5,92.7H66.6c-1.8,0-3.2-1.4-3.2-3.2v-37c0-1.8,1.4-3.2,3.2-3.2h42.3
			c1.8,0,3.2,1.4,3.2,3.2v29.6L101.5,92.7z"/>
		<path id="Path_1468_1_" class="st4" d="M66.6,49.4h42.3c1.8,0,3.2,1.4,3.2,3.2V61H63.4v-8.5C63.4,50.8,64.9,49.4,66.6,49.4z"/>
		<path id="Path_1469_1_" class="st5" d="M101.5,92.7v-7.4c0-1.8,1.4-3.2,3.2-3.2h7.4L101.5,92.7z"/>
		<path id="Rectangle_486_1_" class="st2" d="M71.9,45.1L71.9,45.1c1.2,0,2.1,0.9,2.1,2.1v4.2c0,1.2-0.9,2.1-2.1,2.1l0,0
			c-1.2,0-2.1-0.9-2.1-2.1v-4.2C69.8,46.1,70.7,45.1,71.9,45.1z"/>
		<path id="Rectangle_487_1_" class="st2" d="M82.5,45.1L82.5,45.1c1.2,0,2.1,0.9,2.1,2.1v4.2c0,1.2-0.9,2.1-2.1,2.1l0,0
			c-1.2,0-2.1-0.9-2.1-2.1v-4.2C80.4,46.1,81.3,45.1,82.5,45.1z"/>
		<path id="Rectangle_488_1_" class="st2" d="M93,45.1L93,45.1c1.2,0,2.1,0.9,2.1,2.1v4.2c0,1.2-0.9,2.1-2.1,2.1l0,0
			c-1.2,0-2.1-0.9-2.1-2.1v-4.2C90.9,46.1,91.9,45.1,93,45.1z"/>
		<path id="Rectangle_489_1_" class="st2" d="M103.6,45.1L103.6,45.1c1.2,0,2.1,0.9,2.1,2.1v4.2c0,1.2-0.9,2.1-2.1,2.1l0,0
			c-1.2,0-2.1-0.9-2.1-2.1v-4.2C101.5,46.1,102.4,45.1,103.6,45.1z"/>
		<path id="Path_1470_1_" class="st4" d="M84.6,78.9l-6,1.2c-5.7-6.6-15.7-7.2-22.3-1.5c-6.6,5.7-7.2,15.7-1.5,22.3
			c5.7,6.6,15.7,7.2,22.3,1.5c5.1-4.5,6.8-11.7,4.2-17.9L84.6,78.9z"/>
		<path id="Path_1471_1_" class="st5" d="M76.1,87.4h-6.3v-6.3h-6.3v6.3h-6.3v6.3h6.3v6.3h6.3v-6.3h6.3L76.1,87.4z"/>
		<g id="Group_319_1_" transform="translate(59.828 63.177)">
			<path id="Path_1472_1_" class="st4" d="M18.4,3.1h2.1v2.1h-2.1V3.1z"/>
			<path id="Path_1473_1_" class="st4" d="M10,3.1h2.1v2.1H10V3.1z"/>
			<path id="Path_1474_1_" class="st4" d="M35.3,3.1h2.1v2.1h-2.1V3.1z"/>
			<path id="Path_1475_1_" class="st4" d="M43.8,3.1h2.1v2.1h-2.1V3.1z"/>
			<path id="Path_1476_1_" class="st4" d="M26.9,3.1H29v2.1h-2.1V3.1z"/>
			<path id="Path_1477_1_" class="st4" d="M18.4,11.5h2.1v2.1h-2.1V11.5z"/>
			<path id="Path_1478_1_" class="st4" d="M35.3,11.5h2.1v2.1h-2.1V11.5z"/>
			<path id="Path_1479_1_" class="st4" d="M43.8,11.5h2.1v2.1h-2.1V11.5z"/>
			<path id="Path_1480_1_" class="st4" d="M26.9,11.5H29v2.1h-2.1V11.5z"/>
			<path id="Path_1481_1_" class="st4" d="M35.3,20h2.1v2.1h-2.1V20z"/>
			<path id="Path_1482_1_" class="st4" d="M26.9,20H29v2.1h-2.1V20z"/>
		</g>
	</g>
</g>
</svg>
