<svg width="18" height="18" viewBox="0 0 18 18" fill="none" xmlns="http://www.w3.org/2000/svg">
<path d="M10.8868 0.70323L10.8827 0.699212C10.8069 0.621115 10.7025 0.577421 10.5935 0.578677C10.5801 0.578049 10.5665 0.579305 10.5533 0.58282H4.38342C3.27437 0.583071 2.3755 1.48206 2.375 2.59124V15.4451C2.3755 16.5541 3.27437 17.4531 4.38342 17.4535H13.329C14.4381 17.4531 15.3371 16.5541 15.3374 15.4451V5.31446C15.3367 5.20811 15.295 5.10603 15.2209 5.02944L10.8868 0.70323ZM10.9952 1.94851L13.9756 4.92096H12.2003C11.5356 4.91895 10.997 4.38056 10.9952 3.71598V1.94851ZM13.333 16.6462H4.38342C3.71872 16.6443 3.18045 16.1058 3.17832 15.4411V2.5871C3.18045 1.92252 3.71872 1.384 4.38342 1.38212H10.1918V3.71598C10.1922 4.82491 11.0912 5.7239 12.2003 5.7244H14.5341V15.4411C14.5354 16.1055 13.9975 16.6453 13.333 16.6462Z" fill="#003761"/>
<path d="M4.95049 8.33126H9.29279C9.51452 8.33126 9.69457 8.15146 9.69457 7.92959C9.69457 7.70773 9.51452 7.52792 9.29279 7.52792H4.95049C4.72863 7.52792 4.54883 7.70773 4.54883 7.92959C4.54883 8.15146 4.72863 8.33126 4.95049 8.33126Z" fill="#003761"/>
<path d="M12.7674 10.5647H4.95049C4.72863 10.5647 4.54883 10.7445 4.54883 10.9663C4.54883 11.1881 4.72863 11.368 4.95049 11.368H12.7674C12.9891 11.368 13.1691 11.1881 13.1691 10.9663C13.1691 10.7445 12.9891 10.5647 12.7674 10.5647Z" fill="#003761"/>
<path d="M12.7674 13.6055H4.95049C4.72863 13.6055 4.54883 13.7853 4.54883 14.0071C4.54883 14.229 4.72863 14.4088 4.95049 14.4088H12.7674C12.9891 14.4088 13.1691 14.229 13.1691 14.0071C13.1691 13.7853 12.9891 13.6055 12.7674 13.6055Z" fill="#003761"/>
</svg>
