<svg width="25" height="25" viewBox="0 0 25 25" fill="none" xmlns="http://www.w3.org/2000/svg">
<path d="M24.1455 12.8418H17.4366V11.833H19.7529C20.3587 11.833 20.8516 11.3402 20.8516 10.7344V6.20898C20.8516 5.60317 20.3587 5.11035 19.7529 5.11035H12.9233C12.3176 5.11035 11.8247 5.60317 11.8247 6.20898V7.78779L10.2594 7.31079C9.85479 7.20459 9.76328 6.76177 9.80176 6.39849C10.3456 5.91821 10.6896 5.21655 10.6896 4.43569V1.68691C10.6896 0.756787 9.93281 0 9.00259 0H7.13828C6.20811 0 5.45132 0.756787 5.45132 1.68691V4.43564C5.45132 5.23682 5.81328 5.95469 6.38184 6.4355C6.42104 6.7915 6.31582 7.21411 5.92437 7.31816L3.85469 7.94951C2.84141 8.25825 2.16064 9.17744 2.16064 10.2368V12.8906C2.16064 13.0929 2.32456 13.2568 2.52686 13.2568C2.72915 13.2568 2.89307 13.0929 2.89307 12.8906V10.2368C2.89307 9.5019 3.36528 8.86426 4.06826 8.6501L4.86123 8.4082L6.37749 9.70557C6.50991 9.81885 6.67368 9.87441 6.83691 9.87441C7.03335 9.87441 7.229 9.79395 7.36792 9.63696L7.7042 9.25713V12.8418H5.3373V12.2075C5.3373 12.0052 5.17339 11.8413 4.97109 11.8413C4.7688 11.8413 4.60488 12.0052 4.60488 12.2075V12.8418H0.854492C0.38335 12.8418 0 13.2251 0 13.6963V14.917C0 15.3881 0.38335 15.7715 0.854492 15.7715H1.83115V24.6338C1.83115 24.8361 1.99507 25 2.19736 25C2.39966 25 2.56357 24.8361 2.56357 24.6338V15.7715H24.1455C24.6166 15.7715 25 15.3881 25 14.917V13.6963C25 13.2251 24.6166 12.8418 24.1455 12.8418ZM12.5571 8.28184C12.5571 8.28076 12.5571 8.27964 12.5571 8.27856V6.20898C12.5571 6.00703 12.7214 5.84277 12.9233 5.84277H19.7529C19.9549 5.84277 20.1191 6.00703 20.1191 6.20898V10.7344C20.1191 10.9363 19.9549 11.1006 19.7529 11.1006H17.4366V10.2783C17.4366 9.67251 16.9438 9.17969 16.338 9.17969C15.7322 9.17969 15.2394 9.67251 15.2394 10.2783V11.1006H12.9233C12.7214 11.1006 12.5571 10.9363 12.5571 10.7344V8.28184ZM16.7042 11.4687V12.8418H15.9718V10.2783C15.9718 10.0764 16.136 9.91211 16.338 9.91211C16.5399 9.91211 16.7042 10.0764 16.7042 10.2783V11.4649C16.7042 11.4655 16.7041 11.4661 16.7041 11.4668C16.7041 11.4675 16.7042 11.468 16.7042 11.4687ZM15.2394 11.833V12.8418H14.0503V11.833H15.2394ZM11.8247 8.55347V10.7344C11.8247 11.3402 12.3176 11.833 12.9233 11.833H13.3179V12.8418H11.5359V12.2075C11.5359 12.0052 11.372 11.8413 11.1697 11.8413C10.9674 11.8413 10.8035 12.0052 10.8035 12.2075V12.8418H8.43662V9.24009L8.80483 9.64624C8.94512 9.80098 9.13647 9.87998 9.329 9.87998C9.49131 9.87998 9.65454 9.82383 9.78862 9.70957L11.3241 8.40093L11.8247 8.55347ZM10.046 8.01143L10.4924 8.14746L9.33154 9.13677L8.64419 8.37856L9.62803 7.80054C9.75371 7.89355 9.89458 7.96533 10.046 8.01143ZM6.18379 1.68691C6.18379 1.1606 6.61201 0.732422 7.13833 0.732422H9.00264C9.52895 0.732422 9.95718 1.16064 9.95718 1.68691V2.68213C9.25518 2.23667 8.40522 2.12935 7.61216 2.39062L6.18384 2.86118L6.18379 1.68691ZM6.18379 4.43564V3.63232L7.84126 3.08628C8.44229 2.88828 9.08794 2.97739 9.61284 3.33066L9.95713 3.56235V4.43569C9.95713 5.47603 9.11074 6.32236 8.07041 6.32236C7.03008 6.32236 6.18379 5.47598 6.18379 4.43564ZM6.83545 9.13345L5.69175 8.15488L6.13784 8.0188C6.2897 7.97256 6.43047 7.90088 6.55566 7.80835L7.50425 8.37808L6.83545 9.13345ZM7.00859 7.22603C7.05571 7.11187 7.08745 6.9918 7.10269 6.86865C7.40229 6.98823 7.72866 7.05474 8.07041 7.05474C8.42798 7.05474 8.7689 6.98252 9.07969 6.85225C9.09438 6.97827 9.12642 7.10103 9.17441 7.21758L8.07246 7.86499L7.00859 7.22603ZM24.2676 14.917C24.2676 14.9843 24.2128 15.0391 24.1455 15.0391H0.854492C0.787158 15.0391 0.732422 14.9843 0.732422 14.917V13.6963C0.732422 13.629 0.787158 13.5742 0.854492 13.5742H24.1455C24.2128 13.5742 24.2676 13.629 24.2676 13.6963V14.917ZM22.8028 15.3564C22.6005 15.3564 22.4366 15.5204 22.4366 15.7227V24.6338C22.4366 24.8361 22.6005 25 22.8028 25C23.0051 25 23.169 24.8361 23.169 24.6338V15.7227C23.169 15.5204 23.0051 15.3564 22.8028 15.3564Z" fill="#40D9E1"/>
<line x1="2.05078" y1="24.3594" x2="22.998" y2="24.3594" stroke="#40D9E1" stroke-width="0.5"/>
</svg>
