<svg xmlns="http://www.w3.org/2000/svg" width="57" height="57" viewBox="0 0 57 57">
  <g id="Gastrointestinal" transform="translate(-13200 -6704)">
    <circle id="Ellipse_54" data-name="Ellipse 54" cx="28.5" cy="28.5" r="28.5" transform="translate(13200 6704)" fill="#eee"/>
    <g id="intestine" transform="translate(13194.875 6715)">
      <path id="Path_1634" data-name="Path 1634" d="M21.06,11.523a.552.552,0,0,0,.945.572,5.741,5.741,0,0,1,.44-.623.552.552,0,0,0,.04-.636,5.044,5.044,0,0,1-.657-3.5,2.967,2.967,0,0,1,1.734-1.8.552.552,0,0,0,.311-.4,4.575,4.575,0,0,1,1.871-2.883,3.576,3.576,0,0,1,3.129.07.552.552,0,0,0,.588-.112,3.056,3.056,0,0,1,4.434.137.552.552,0,0,0,.689.132,4.9,4.9,0,0,1,3.428-.682,2.507,2.507,0,0,1,1.114.556.552.552,0,0,0,.816-.016A3.152,3.152,0,0,1,42.293,1.1a4.547,4.547,0,0,1,2.829,1.341.552.552,0,0,0,.682.1c.031-.018,3.135-1.812,4.705-.033a5.29,5.29,0,0,1,.474,5.213.552.552,0,0,0,.075.623,5.3,5.3,0,0,1,1.057,1.776.552.552,0,0,0,1.044-.361,6.292,6.292,0,0,0-1.043-1.872A6.414,6.414,0,0,0,51.4,1.862a.572.572,0,0,0-.038-.049C49.932.147,47.577.437,45.614,1.4,43.7-.266,41.359-.592,39.471,1.227c-.76-.494-2.458-1.178-5.038.082a4.167,4.167,0,0,0-5.468-.138,4.454,4.454,0,0,0-3.754.108,5.456,5.456,0,0,0-2.361,3.372c-2.541,1.323-2.771,3.912-1.492,6.425-.108.149-.207.3-.3.447Z" transform="translate(-3.232 0)" fill="#818a91"/>
      <path id="Path_1635" data-name="Path 1635" d="M57.311,89.843a.552.552,0,0,0-.66.418c-.264,1.174-.587,1.249-.461,1.643a5.261,5.261,0,0,1-2.06,5.992.552.552,0,0,0-.248.54,4.592,4.592,0,0,1-.8,3.715,4.935,4.935,0,0,1-3.251,1.5.552.552,0,0,0-.5.356,3.537,3.537,0,0,1-2.057,2.329,4.547,4.547,0,0,1-3.358-.621.553.553,0,0,0-.849.542,7.543,7.543,0,0,1-1.356,5.276h-.657C39.429,107.79,38,101.443,42,100.855a5.065,5.065,0,0,1,3.4.982c.311.2.492.393.813.29.868-.28-.083-2.339,3.225-3.089a.552.552,0,0,0,.414-.672c-.522-2.091-.188-3.579,1.818-4.457a.552.552,0,0,0,.3-.67,5.809,5.809,0,0,1-.1-3.281c.321-1.189.738-1.292.626-1.722-.1-.4-.422-.322-.962-.782a3.169,3.169,0,0,1-1.025-2,5.641,5.641,0,0,1,.016-1.764.553.553,0,0,0-.517-.663c-.4-.017-.386.27-1.153.677-1.583.842-3.731.5-5.373-.13-.358-.139-.6-.3-.9-.072a4.527,4.527,0,0,1-2.993,1,4.955,4.955,0,0,1-2.19-.619c-.5-.314-.819.375-2.355.3a4.478,4.478,0,0,1-2.541-.989.552.552,0,0,0-.9.519,2.548,2.548,0,0,1-.258,1.821,2.266,2.266,0,0,1-.947.854.552.552,0,0,0-.259.8,5.373,5.373,0,0,1,.94,3.306,3.878,3.878,0,0,1-.615,1.792.552.552,0,0,0,.3.883c2.943.7,3.3,4.852,2.287,6.023-.494.569-.329,1.615-.229,2.422.1.774.226,1.834-.1,2.135a.775.775,0,0,1-.962-.025c-.509-.347-.282-1.612-.132-2.449.142-.792.236-1.315-.11-1.643a.7.7,0,0,0-.651-.162c-3.232.768-4.052-3.425-3-4.278a.553.553,0,0,0-.055-.9,5.155,5.155,0,0,1-1.459-1.506.552.552,0,0,0-.942.576,6.189,6.189,0,0,0,1.314,1.493c-1.166,1.965.287,6.225,3.9,5.777-.174,1.123-.724,3.152.521,4a1.824,1.824,0,0,0,2.336-.079c.943-.876.424-2.7.352-3.99a8.211,8.211,0,0,0,4.872,1.777c-1.385,3.846,1.366,9.71,1.492,9.976a.552.552,0,0,0,.5.315h1.269a.552.552,0,0,0,.411-.184A8.032,8.032,0,0,0,44.22,107.1c2.558,1.07,4.839.349,6.012-2.383a5.836,5.836,0,0,0,3.687-1.852,5.477,5.477,0,0,0,1.1-4.255,6.273,6.273,0,0,0,2.291-6.834,6.743,6.743,0,0,0,.422-1.278A.552.552,0,0,0,57.311,89.843Zm-11.573,10.9a8.8,8.8,0,0,0-.954-.5,2.436,2.436,0,0,0,.066-1.739A7.868,7.868,0,0,0,47.142,96.8a3.744,3.744,0,0,0,.9-3.471,5.475,5.475,0,0,0-3.432-3.2.142.142,0,0,1-.012-.263c1.034-.518,4.036-2.021,3.574-4.725a5.152,5.152,0,0,0,1.174-.443,4.841,4.841,0,0,0,1.118,3.245,3.979,3.979,0,0,1-1.891,1.229,1.372,1.372,0,0,0-.53,2.237,4.241,4.241,0,0,1,1.231,2.958,4.652,4.652,0,0,0-.609,3.729,3.909,3.909,0,0,0-2.928,2.645Zm-7.021-9.171a3.739,3.739,0,0,0-2.4.67,2.619,2.619,0,0,0-.835,1.218,1.633,1.633,0,0,0-2.4-.229,4.305,4.305,0,0,0-1.366-.912,4.893,4.893,0,0,0,.323-.892c2.653,1.145,4.654.126,4.756-3.3.053-1.764,2.352-2.431,2.759-2.535A5.581,5.581,0,0,0,43,84.572a10.931,10.931,0,0,0,1.958.579c-.885,1.424-2.92,2.106-4.574,2.332C38.294,87.768,37.87,89.658,38.717,91.574Zm12.323-2.6a6.741,6.741,0,0,0-.246,4.134,5.494,5.494,0,0,0-.5.3,5.5,5.5,0,0,0-1.449-2.753.267.267,0,0,1,.1-.438A5.5,5.5,0,0,0,51.04,88.973ZM37.634,85.2A3.473,3.473,0,0,0,35.7,88.1c-.04,1.33-.368,2.171-.975,2.5a3.089,3.089,0,0,1-2.52-.312,6.368,6.368,0,0,0-.835-3.192A3.388,3.388,0,0,0,32.6,85.408a4.45,4.45,0,0,1,.4,2.952.552.552,0,1,0,1.067.283,5.476,5.476,0,0,0-.425-3.609,5.159,5.159,0,0,0,3.425-.077A5.877,5.877,0,0,0,37.634,85.2ZM34.208,99.446a5.831,5.831,0,0,0-.341-5.2c.017-.087.038-.174.063-.261.344-.24.817.291.932.469a4.509,4.509,0,0,1,.546,1.047,4.327,4.327,0,0,0,4.8,3.2.552.552,0,0,0-.061-1.1,3.487,3.487,0,0,1-2.787-.863c-1.244-1.237-1.123-3.049-.377-3.6a2.759,2.759,0,0,1,1.945-.434c1,.106,1.378.369,4.6,2a.552.552,0,1,0,.5-.985,30.988,30.988,0,0,0-3.91-1.883,3.087,3.087,0,0,1-.6-2.6,1.153,1.153,0,0,1,1.018-.649A8.673,8.673,0,0,0,45,86.768,4.2,4.2,0,0,0,46.119,85.3a7.562,7.562,0,0,0,.962,0c.233,1.32-.705,2.438-2.975,3.574a1.247,1.247,0,0,0,.15,2.3,4.409,4.409,0,0,1,2.731,2.481,2.676,2.676,0,0,1-.68,2.423,6.852,6.852,0,0,1-1.965,1.448,9.067,9.067,0,0,0-3.661-2.6.552.552,0,1,0-.455,1.006c1.3.588,3.413,1.759,3.629,3.169a1.23,1.23,0,0,1-.121.782,4.179,4.179,0,0,0-4.461,1.356A7.219,7.219,0,0,1,34.208,99.446Z" transform="translate(-7.643 -77.298)" fill="#818a91"/>
      <path id="Path_1636" data-name="Path 1636" d="M18.186,191.992a.552.552,0,1,0-.721.721A.552.552,0,0,0,18.186,191.992Z" transform="translate(0 -178.424)" fill="#818a91"/>
    </g>
  </g>
</svg>
