<svg width="18" height="18" viewBox="0 0 18 18" fill="none" xmlns="http://www.w3.org/2000/svg">
<path d="M10.4062 7.86712C10.4063 6.88635 10.1225 5.92653 9.58903 5.10353C9.05556 4.28053 8.29527 3.62955 7.39993 3.22919C6.5046 2.82882 5.51251 2.69619 4.54345 2.8473C3.57439 2.99842 2.66979 3.42682 1.93887 4.08078C1.20795 4.73474 0.681953 5.5863 0.424393 6.53264C0.166834 7.47899 0.188721 8.47967 0.487413 9.41385C0.786104 10.348 1.34883 11.1758 2.10765 11.7972C2.86647 12.4185 3.78893 12.807 4.76367 12.9156V14.4422H3.69169V15.5672H4.76395V16.6203H5.88895V15.5672H6.96094V14.4422H5.88895V12.9154C7.13045 12.7755 8.27705 12.1836 9.11016 11.2526C9.94326 10.3215 10.4046 9.11648 10.4062 7.86712V7.86712ZM1.37109 7.86712C1.37109 7.0849 1.60305 6.32023 2.03763 5.66983C2.4722 5.01943 3.08988 4.51249 3.81256 4.21314C4.53524 3.91378 5.33046 3.83544 6.09767 3.98802C6.86487 4.14061 7.5696 4.51726 8.12274 5.07036C8.67587 5.62346 9.05258 6.32816 9.20522 7.09535C9.35786 7.86255 9.27958 8.65777 8.98027 9.38047C8.68096 10.1032 8.17407 10.7209 7.5237 11.1555C6.87333 11.5901 6.10868 11.8221 5.32645 11.8222C4.27786 11.821 3.27254 11.404 2.53106 10.6625C1.78959 9.92104 1.37253 8.91572 1.37138 7.86712H1.37109Z" fill="#003761"/>
<path d="M15.2212 1.37925L16.0898 2.24789L14.4359 3.90178C13.5706 3.20726 12.5011 2.81616 11.3919 2.78862C10.2827 2.76108 9.19511 3.09862 8.29639 3.74935C8.60955 3.97587 8.89605 4.23713 9.1504 4.52813C9.74842 4.14854 10.4374 3.93652 11.1454 3.91422C11.8533 3.89192 12.5543 4.06017 13.175 4.40137C13.7957 4.74258 14.3134 5.24422 14.674 5.85389C15.0346 6.46356 15.2248 7.15888 15.2248 7.8672C15.2248 8.57552 15.0346 9.27083 14.674 9.8805C14.3134 10.4902 13.7957 10.9918 13.175 11.333C12.5543 11.6742 11.8533 11.8425 11.1454 11.8202C10.4374 11.7979 9.74842 11.5859 9.1504 11.2063C8.896 11.4972 8.60951 11.7584 8.29639 11.9849C9.29185 12.7037 10.5141 13.0373 11.7367 12.924C12.9593 12.8107 14.0994 12.2581 14.9458 11.3687C15.7922 10.4792 16.2876 9.31309 16.3401 8.08638C16.3927 6.85967 15.9988 5.65548 15.2316 4.69688L16.8853 3.04299L17.754 3.91163V1.37925H15.2212Z" fill="#003761"/>
<path d="M7.44236 4.52813C6.63252 5.45197 6.18604 6.63865 6.18604 7.8672C6.18604 9.09575 6.63252 10.2824 7.44236 11.2063C7.76018 11.0041 8.04771 10.7579 8.29638 10.475C7.66139 9.75465 7.31103 8.82735 7.31103 7.86706C7.31103 6.90677 7.66139 5.97947 8.29638 5.2591C8.04773 4.97626 7.76019 4.73015 7.44236 4.52813V4.52813Z" fill="#003761"/>
</svg>
