<svg xmlns="http://www.w3.org/2000/svg" width="57" height="57" viewBox="0 0 57 57">
  <g id="genitourinary_System_Male" data-name="genitourinary System Male" transform="translate(-13284 -6694)">
    <circle id="Ellipse_53" data-name="Ellipse 53" cx="28.5" cy="28.5" r="28.5" transform="translate(13284 6694)" fill="#eee"/>
    <path id="urinary-tract" d="M32.416,2.377A5.922,5.922,0,0,0,27.773,0h-.749a3.565,3.565,0,0,0-3.245,3.809A4.1,4.1,0,0,0,24.908,6.7a5.633,5.633,0,0,0-.1,1.055c0,.108,0,.216.01.323H21.946a2.7,2.7,0,0,0-2.627,3.307l2.422,10.44,0,.016a2.981,2.981,0,0,1-.814,2.822l.1-.708a1,1,0,0,0,.01-.14,1.807,1.807,0,0,0-1.805-1.805H15a1.807,1.807,0,0,0-1.805,1.805,1,1,0,0,0,.01.14l.1.708a2.98,2.98,0,0,1-.814-2.822c0-.017.008-.034.011-.052l2.036-10.5a2.7,2.7,0,0,0-2.648-3.21H9.414c.006-.107.01-.215.01-.323a5.633,5.633,0,0,0-.1-1.055,4.1,4.1,0,0,0,1.129-2.895A3.565,3.565,0,0,0,7.21,0H6.461A5.922,5.922,0,0,0,1.818,2.377,8.738,8.738,0,0,0,0,7.833a8.737,8.737,0,0,0,1.818,5.455,5.921,5.921,0,0,0,4.643,2.377,1.026,1.026,0,0,0,.106-.005c.135-.014.381-.036.482-.036,1.878,0,3.406-1.8,3.406-4.01a4.675,4.675,0,0,0-.253-1.527h1.687a.691.691,0,0,1,.679.823L10.536,21.385a5.146,5.146,0,0,0,3.138,5.921l.19,1.35a1.807,1.807,0,0,0,1.8,1.721h.447V33.23a1,1,0,0,0,2.006,0V30.378h.447a1.808,1.808,0,0,0,1.8-1.721l.19-1.35a5.144,5.144,0,0,0,3.134-5.939l-2.42-10.432a.691.691,0,0,1,.673-.847h2.086a4.668,4.668,0,0,0-.253,1.527c0,2.211,1.528,4.01,3.406,4.01.1,0,.348.021.482.036a1.039,1.039,0,0,0,.106.005,5.923,5.923,0,0,0,4.643-2.377,8.739,8.739,0,0,0,1.818-5.456,8.738,8.738,0,0,0-1.818-5.456ZM7.243,6.644a3.543,3.543,0,0,1,.176,1.114,3.584,3.584,0,0,1-.134.978,1,1,0,0,0-.037.32c0,.009,0,.019,0,.028a1,1,0,0,0,.633.931,2.352,2.352,0,0,1,.57,1.6c0,1.087-.641,2-1.4,2-.2,0-.5.027-.636.041-2.434-.034-4.407-2.635-4.407-5.826,0-3.213,2-5.827,4.455-5.827H7.21c.672,0,1.239.826,1.239,1.8a1.949,1.949,0,0,1-.778,1.666,1,1,0,0,0-.428,1.17ZM18.68,26.267a1,1,0,0,0-.05.356l-.246,1.749H15.85L15.6,26.623a1,1,0,0,0-.05-.356l-.316-2.248H19Zm9.141-12.608c-.135-.014-.432-.041-.636-.041-.759,0-1.4-.918-1.4-2a2.352,2.352,0,0,1,.57-1.6,1,1,0,0,0,.633-.931c0-.01,0-.019,0-.028a1,1,0,0,0-.037-.32,3.584,3.584,0,0,1-.134-.978,3.543,3.543,0,0,1,.176-1.114,1,1,0,0,0-.428-1.17,1.948,1.948,0,0,1-.778-1.666c0-.977.567-1.8,1.239-1.8h.749c2.456,0,4.455,2.614,4.455,5.827,0,3.192-1.972,5.792-4.407,5.826Zm0,0" transform="translate(13295 6708)" fill="#818a91"/>
  </g>
</svg>
