<svg width="24" height="24" viewBox="0 0 24 24" fill="none" xmlns="http://www.w3.org/2000/svg">
<path d="M6.4119 3.17025C7.34369 2.27244 8.58725 1.77081 9.88119 1.77081H14.5795C15.8734 1.77081 17.117 2.27244 18.0488 3.17025L21.2457 6.25056C22.2238 7.19301 22.7764 8.49284 22.7764 9.85112V14.0135C22.7764 15.3718 22.2238 16.6717 21.2457 17.6141L18.0488 20.6944C17.117 21.5922 15.8734 22.0939 14.5795 22.0939H9.88119C8.58725 22.0939 7.34369 21.5922 6.4119 20.6944L3.21504 17.6141C2.23692 16.6717 1.68433 15.3718 1.68433 14.0135V9.85112C1.68433 8.49284 2.23692 7.19301 3.21504 6.25056L6.4119 3.17025Z" fill="#068161" stroke="#068161" stroke-width="2" stroke-linecap="round" stroke-linejoin="round"/>
<path d="M12.2302 7.86774V11.9324" stroke="white" stroke-width="2" stroke-linecap="round" stroke-linejoin="round"/>
<path d="M12.2302 15.9969H12.2407" stroke="white" stroke-width="2" stroke-linecap="round" stroke-linejoin="round"/>
</svg>
