<svg width="15" height="15" viewBox="0 0 15 15" fill="none" xmlns="http://www.w3.org/2000/svg">
<path d="M7.5 0C3.36445 0 0 3.36445 0 7.5C0 11.6356 3.36445 15 7.5 15C11.6356 15 15 11.6356 15 7.5C15 3.36445 11.6356 0 7.5 0ZM7.5 13.9286C3.95531 13.9286 1.0714 11.0447 1.0714 7.5C1.0714 3.95531 3.95531 1.0714 7.5 1.0714C11.0447 1.0714 13.9286 3.95531 13.9286 7.5C13.9286 11.0447 11.0447 13.9286 7.5 13.9286Z" fill="#BFBFBF"/>
<path d="M10.1785 4.28546C10.0414 4.28546 9.90432 4.33776 9.79972 4.44247L4.44263 9.79956C4.23332 10.0089 4.23332 10.3478 4.44263 10.557C4.65183 10.7662 4.99092 10.7664 5.20011 10.557L10.5572 5.19995C10.7665 4.99064 10.7665 4.65167 10.5572 4.44247C10.4526 4.33776 10.3156 4.28546 10.1785 4.28546Z" fill="#BFBFBF"/>
<path d="M4.82131 4.28541C4.68421 4.28541 4.54723 4.33771 4.44263 4.44243C4.23332 4.65162 4.23332 4.99071 4.44263 5.19991L9.79972 10.557C10.009 10.7663 10.348 10.7663 10.5572 10.557C10.7664 10.3478 10.7665 10.0087 10.5572 9.79952L5.20011 4.44243C5.09551 4.33771 4.95841 4.28541 4.82131 4.28541Z" fill="#BFBFBF"/>
</svg>
