<svg width="18" height="18" viewBox="0 0 18 18" fill="none" xmlns="http://www.w3.org/2000/svg">
<g clip-path="url(#clip0)">
<path d="M8.10879 0.945007C8.10879 0.73782 7.94098 0.570007 7.73379 0.570007H0.946289C0.739102 0.570007 0.571289 0.73782 0.571289 0.945007V7.73251C0.571289 7.93969 0.739102 8.10751 0.946289 8.10751H7.73379C7.94098 8.10751 8.10879 7.93969 8.10879 7.73251V0.945007ZM7.35879 7.35751H1.32129V1.32001H7.35879V7.35751Z" fill="#19456B"/>
<path d="M17.4457 0.945007C17.4457 0.73782 17.2779 0.570007 17.0707 0.570007H10.2832C10.076 0.570007 9.9082 0.73782 9.9082 0.945007V7.73251C9.9082 7.93969 10.076 8.10751 10.2832 8.10751H17.0707C17.2779 8.10751 17.4457 7.93969 17.4457 7.73251V0.945007ZM16.6957 7.35751H10.6582V1.32001H16.6957V7.35751Z" fill="#19456B"/>
<path d="M8.10879 10.2825C8.10879 10.0753 7.94098 9.90747 7.73379 9.90747H0.946289C0.739102 9.90747 0.571289 10.0753 0.571289 10.2825V17.07C0.571289 17.2772 0.739102 17.445 0.946289 17.445H7.73379C7.94098 17.445 8.10879 17.2772 8.10879 17.07V10.2825ZM7.35879 16.6575H1.32129V10.6575H7.35879V16.6575Z" fill="#19456B"/>
<path d="M17.4457 10.2825C17.4457 10.0753 17.2779 9.90747 17.0707 9.90747H10.2832C10.076 9.90747 9.9082 10.0753 9.9082 10.2825V17.07C9.9082 17.2772 10.076 17.445 10.2832 17.445H17.0707C17.2779 17.445 17.4457 17.2772 17.4457 17.07V10.2825ZM16.6957 16.6575H10.6582V10.6575H16.6957V16.6575Z" fill="#19456B"/>
</g>
<defs>
<clipPath id="clip0">
<rect width="18" height="18" fill="white" transform="translate(0.000976562)"/>
</clipPath>
</defs>
</svg>
