<svg xmlns="http://www.w3.org/2000/svg" width="30" height="30" viewBox="0 0 30 30">
  <g id="Group_73" data-name="Group 73" transform="translate(0 -0.016)">
    <rect id="Rectangle_339" data-name="Rectangle 339" width="30" height="30" transform="translate(0 0.016)" fill="#f2f2f2" opacity="0.001"/>
    <g id="prescription" transform="translate(6.017 4.616)">
      <ellipse id="Ellipse_4" data-name="Ellipse 4" cy="0.86" ry="0.86" transform="translate(17.192 15.166)" fill="#35364a"/>
      <path id="Path_1413" data-name="Path 1413" d="M70.948,1.863a.437.437,0,0,0-.307-.127H63.7V1.41a1.41,1.41,0,0,0-2.821,0v.325H53.934a.434.434,0,0,0-.434.434V21.784a.434.434,0,0,0,.434.434H70.641a.434.434,0,0,0,.434-.434V17.575a.434.434,0,0,0-.868,0h0V21.35H54.368V2.6h3.363v.868H55.67a.434.434,0,0,0-.434.434V20.048a.434.434,0,0,0,.434.434H68.905a.434.434,0,0,0,.434-.434V3.906a.434.434,0,0,0-.434-.434H66.844V2.6h3.363V13.669a.434.434,0,1,0,.868,0V2.17A.437.437,0,0,0,70.948,1.863Zm-9.2-.453a.542.542,0,0,1,1.085,0v.325H61.745Zm6.726,2.929V19.614H56.1V4.339h1.627v1.3a.434.434,0,0,0,.434.434H66.41a.434.434,0,0,0,.434-.434v-1.3Zm-2.5.868H58.6V2.6h7.377Z" transform="translate(-53.5)" fill="#35364a"/>
      <path id="Path_1414" data-name="Path 1414" d="M217.635,224.454a.434.434,0,0,0,.613-.017l.537-.567.57.6a.434.434,0,1,0,.628-.6l-.6-.63.481-.508a.434.434,0,1,0-.63-.6l-.45.476-.454-.477a.434.434,0,1,0-.628.6l.485.509-.567.6A.434.434,0,0,0,217.635,224.454Z" transform="translate(-210.383 -212.366)" fill="#35364a"/>
      <path id="Path_1415" data-name="Path 1415" d="M143.5,163.906a.434.434,0,0,0,.868,0v-.688l1,.995a.434.434,0,1,0,.614-.614l-1.01-1.01A1.3,1.3,0,0,0,144.8,160h-.868a.434.434,0,0,0-.434.434Zm.868-3.038h.435a.432.432,0,1,1,0,.864h-.435Z" transform="translate(-139.594 -153.057)" fill="#35364a"/>
      <path id="Path_1416" data-name="Path 1416" d="M143.934,317a.434.434,0,0,0,0,.868h8.9a.434.434,0,1,0,0-.868Z" transform="translate(-139.594 -303.244)" fill="#35364a"/>
      <path id="Path_1417" data-name="Path 1417" d="M152.83,357h-8.9a.434.434,0,1,0,0,.868h8.9a.434.434,0,1,0,0-.868Z" transform="translate(-139.594 -341.508)" fill="#35364a"/>
      <path id="Path_1418" data-name="Path 1418" d="M148.382,397h-4.448a.434.434,0,0,0,0,.868h4.448a.434.434,0,1,0,0-.868Z" transform="translate(-139.594 -379.772)" fill="#35364a"/>
      <path id="Path_1419" data-name="Path 1419" d="M221,80.434a.434.434,0,0,0,.434.434h2.17a.434.434,0,0,0,0-.868h-2.17A.434.434,0,0,0,221,80.434Z" transform="translate(-213.731 -76.528)" fill="#35364a"/>
    </g>
  </g>
</svg>
