<svg xmlns="http://www.w3.org/2000/svg" width="28" height="28" viewBox="0 0 28 28">
  <g id="Group_1865" data-name="Group 1865" transform="translate(-20479 11818)">
    <rect id="Rectangle_1155" data-name="Rectangle 1155" width="28" height="28" transform="translate(20479 -11818)" fill="#f0f0f0"/>
    <g id="human-lungs-outline" transform="translate(20484 -11818.676)">
      <path id="Path_1651" data-name="Path 1651" d="M11.326,10.558a.57.57,0,0,0-.417.075.56.56,0,0,0-.241.35c-.078.37-.384,1.841-.615,3.64H9.792V7.228a.552.552,0,1,0-1.1,0v7.393H8.427c-.231-1.8-.535-3.269-.614-3.64a.551.551,0,0,0-.658-.424A9.085,9.085,0,0,0,.547,22.54a.556.556,0,0,0,.4.355,23.85,23.85,0,0,0,4.224.5h0a3.517,3.517,0,0,0,2.485-.649c1.171-1.169,1.166-4.278.89-7.019H9.927c-.276,2.741-.281,5.85.89,7.019a3.516,3.516,0,0,0,2.486.649,23.834,23.834,0,0,0,4.224-.5.558.558,0,0,0,.406-.355,9.092,9.092,0,0,0-6.608-11.983ZM6.883,21.965c-.076.076-.424.325-1.705.325h0a21.737,21.737,0,0,1-3.688-.415A7.962,7.962,0,0,1,1.1,19.451a8.053,8.053,0,0,1,5.745-7.677C7.546,15.294,8.11,20.736,6.883,21.965ZM17,21.876a21.955,21.955,0,0,1-3.69.414c-1.282,0-1.632-.249-1.708-.325-1.226-1.227-.663-6.669.033-10.19a8.05,8.05,0,0,1,5.744,7.677A7.922,7.922,0,0,1,17,21.876Z" fill="#3d3d3d"/>
    </g>
  </g>
</svg>
