<svg xmlns="http://www.w3.org/2000/svg" width="28" height="28" viewBox="0 0 28 28">
  <g id="Group_1866" data-name="Group 1866" transform="translate(-20445 11818)">
    <rect id="Rectangle_1154" data-name="Rectangle 1154" width="28" height="28" transform="translate(20445 -11818)" fill="#f0f0f0"/>
    <path id="Path_1666" data-name="Path 1666" d="M9.35,16.718H13.28a1.475,1.475,0,0,0,1.474-1.474V2.474A1.475,1.475,0,0,0,13.28,1H2.474A1.475,1.475,0,0,0,1,2.474V15.244a1.475,1.475,0,0,0,1.474,1.474H9.35Zm-1.965,0h0ZM2.474,1.982H13.28a.492.492,0,0,1,.491.491v9.332h-.982V2.965H2.965V13.28H1.982V2.474A.492.492,0,0,1,2.474,1.982Zm9.332,4.912H7.522l-.228.685L5.821,4.632,5.066,6.894H3.947V3.947h7.859Zm-7.859.982H5.775L6,7.192l1.474,2.947.754-2.262h3.575v3.929H7.182L5.708,13.28H3.947ZM1.982,15.244v-.982H6.115l1.474-1.474h6.182v2.456a.492.492,0,0,1-.491.491H2.474A.492.492,0,0,1,1.982,15.244Z" transform="translate(20451 -11813)" fill="#3d3d3d"/>
  </g>
</svg>
