<svg xmlns="http://www.w3.org/2000/svg" width="28" height="28" viewBox="0 0 28 28">
  <g id="Group_1863" data-name="Group 1863" transform="translate(-20517 11818)">
    <rect id="Rectangle_1156" data-name="Rectangle 1156" width="28" height="28" transform="translate(20517 -11818)" fill="#f0f0f0"/>
    <g id="lifeline-in-a-heart-outline" transform="translate(20521 -11820.803)">
      <path id="Path_1664" data-name="Path 1664" d="M19.35,15a5.069,5.069,0,0,1-.265,1.615c-.822,3.719-7.929,8.218-8.232,8.409a.583.583,0,0,1-.309.089.558.558,0,0,1-.31-.089,39.443,39.443,0,0,1-4.114-3.053A.577.577,0,0,1,6.87,21.1a39.784,39.784,0,0,0,3.678,2.759c2.135-1.392,6.847-4.932,7.424-7.544a4.115,4.115,0,0,0,.219-1.307,4.071,4.071,0,0,0-2.107-3.565,4.151,4.151,0,0,0-5.1.967.6.6,0,0,1-.889,0A4.157,4.157,0,0,0,5,11.439,4.069,4.069,0,0,0,2.893,15,4.018,4.018,0,0,0,3.1,16.255a4.508,4.508,0,0,0,.458,1.14H6.923l1.156-2.657a.575.575,0,0,1,1.088.1l.851,3.6,1.1-1.805a.575.575,0,0,1,.492-.276H13.7a.577.577,0,0,1,0,1.154H11.936l-1.659,2.724a.575.575,0,0,1-.491.277A.6.6,0,0,1,9.7,20.5a.578.578,0,0,1-.471-.436l-.778-3.278L7.833,18.2a.575.575,0,0,1-.529.347H.577a.577.577,0,0,1,0-1.154H2.268a5.011,5.011,0,0,1-.277-.833A4.862,4.862,0,0,1,1.743,15a5.222,5.222,0,0,1,2.706-4.575,5.337,5.337,0,0,1,6.1.769,5.331,5.331,0,0,1,6.1-.769A5.226,5.226,0,0,1,19.35,15Z" transform="translate(0 0)" fill="#3d3d3d"/>
    </g>
  </g>
</svg>
