<svg xmlns="http://www.w3.org/2000/svg" width="30" height="31" viewBox="0 0 30 31">
  <g id="Group_74" data-name="Group 74" transform="translate(0 0.281)">
    <rect id="Rectangle_338" data-name="Rectangle 338" width="30" height="31" transform="translate(0 -0.28)" fill="#f2f2f2" opacity="0.001"/>
    <g id="lab" transform="translate(6.876 4.733)">
      <path id="Path_1411" data-name="Path 1411" d="M62.837,17.321,57.059,5.766V1.236H57.1A.618.618,0,0,0,57.1,0H51.809a.618.618,0,0,0,0,1.236h.044v4.53L46.076,17.321A2.6,2.6,0,0,0,48.4,21.088h12.1a2.6,2.6,0,0,0,2.328-3.767ZM61.672,19.2a1.359,1.359,0,0,1-1.163.649H48.4a1.367,1.367,0,0,1-1.223-1.979L53.024,6.188a.618.618,0,0,0,.065-.276V1.236h2.735V5.912a.618.618,0,0,0,.065.276l5.843,11.685A1.359,1.359,0,0,1,61.672,19.2Z" transform="translate(-45.799 0)" fill="#35364a"/>
      <path id="Path_1412" data-name="Path 1412" d="M226.874,224.933h-1.324a.618.618,0,1,0,0,1.236h.706v1.411h-.706a.618.618,0,1,0,0,1.236h.706v1.411h-.706a.618.618,0,1,0,0,1.236h.706v1.411h-.706a.618.618,0,1,0,0,1.236h1.324a.618.618,0,0,0,.618-.618v-7.941A.618.618,0,0,0,226.874,224.933Z" transform="translate(-217.555 -215.668)" fill="#35364a"/>
    </g>
  </g>
</svg>
