<svg xmlns="http://www.w3.org/2000/svg" width="30" height="30" viewBox="0 0 30 30">
  <g id="Group_75" data-name="Group 75" transform="translate(0 -0.471)">
    <rect id="Rectangle_337" data-name="Rectangle 337" width="30" height="30" transform="translate(0 0.472)" fill="#f2f2f2" opacity="0.001"/>
    <g id="radiology" transform="translate(6.017 3.395)">
      <g id="Group_63" data-name="Group 63">
        <path id="Path_1410" data-name="Path 1410" d="M70.408,8.109h2.016a.672.672,0,0,0,0-1.344H70.408V6.093a.672.672,0,0,0-1.344,0v.672H67.048a.672.672,0,1,0,0,1.344h2.016V9.453H65.7a.672.672,0,1,0,0,1.344h3.36v1.344H67.048a.672.672,0,1,0,0,1.344h2.016v1.344H67.048a2.016,2.016,0,1,0,0,4.032h.032a1.287,1.287,0,0,1,1.032.522,2.016,2.016,0,0,0,3.525-.522h.787a2.016,2.016,0,1,0,0-4.032H70.408V13.485h2.016a.672.672,0,1,0,0-1.344H70.408V10.8h3.36a.672.672,0,1,0,0-1.344h-3.36Zm2.016,8.064a.672.672,0,0,1,0,1.344H71.08a.672.672,0,0,0-.672.672.672.672,0,0,1-1.214.4,2.636,2.636,0,0,0-2.114-1.07h-.032a.672.672,0,1,1,0-1.344ZM77.8,1.344H73.1V.672A.672.672,0,0,0,72.424,0H67.048a.672.672,0,0,0-.672.672v.672h-4.7A.672.672,0,0,0,61,2.016v20.25a.672.672,0,0,0,.672.672H77.8a.672.672,0,0,0,.672-.672V2.016A.672.672,0,0,0,77.8,1.344Zm-10.08,0h4.032V2.688H67.72Zm9.408,20.25H62.344V2.688h4.032V3.36a.672.672,0,0,0,.672.672h5.376A.672.672,0,0,0,73.1,3.36V2.688h4.032Z" transform="translate(-61)" fill="#35364a"/>
      </g>
    </g>
  </g>
</svg>
