<svg xmlns="http://www.w3.org/2000/svg" width="30" height="30" viewBox="0 0 30 30">
  <g id="Group_68" data-name="Group 68" transform="translate(-0.05 -0.4)">
    <rect id="Rectangle_348" data-name="Rectangle 348" width="30" height="30" transform="translate(0.05 0.401)" fill="#f2f2f2" opacity="0.001"/>
    <g id="nurse" transform="translate(6.786 3.754)">
      <g id="Group_67" data-name="Group 67" transform="translate(0 0)">
        <path id="Path_1420" data-name="Path 1420" d="M156.388,435.32h-2.452a.524.524,0,0,0-.524.524v.892a.524.524,0,0,0,.524.524h2.452a.524.524,0,0,0,.524-.524v-.892A.524.524,0,0,0,156.388,435.32Zm-.146,1.27h-2.159v-.6h2.159Z" transform="translate(-150.108 -415.879)" fill="#35364a" stroke="#35364a" stroke-width="0.5"/>
        <g id="Group_66" data-name="Group 66" transform="translate(0 0)">
          <path id="Path_1421" data-name="Path 1421" d="M204.485,219.445a.335.335,0,0,0-.335.335v.6a.335.335,0,1,0,.67,0v-.6A.335.335,0,0,0,204.485,219.445Z" transform="translate(-198.579 -209.645)" fill="#35364a" stroke="#35364a" stroke-width="0.5"/>
          <path id="Path_1422" data-name="Path 1422" d="M293.971,219.445a.335.335,0,0,0-.335.335v.6a.335.335,0,1,0,.67,0v-.6A.335.335,0,0,0,293.971,219.445Z" transform="translate(-284.068 -209.645)" fill="#35364a" stroke="#35364a" stroke-width="0.5"/>
          <path id="Path_1423" data-name="Path 1423" d="M94.985,21.2c-.005-.018-.01-.036-.015-.054a6.4,6.4,0,0,0-1.993-3.058c-.223-.19-.448-.364-.672-.522q-.375-.265-.772-.495a9.417,9.417,0,0,0-2.118-.925.985.985,0,0,1-.422-.157,5.175,5.175,0,0,0,1.5-.805c.04-.01.571-.209.593-.217a6.167,6.167,0,0,0,3.773-3.23,5.691,5.691,0,0,0-.224-4.065,13.619,13.619,0,0,0-2.006-3.515,8.981,8.981,0,0,0-1.117-1.187A7.956,7.956,0,0,0,91.859,1.5a1.314,1.314,0,0,0-1.3-1.5H84.048a1.314,1.314,0,0,0-1.3,1.5A7.957,7.957,0,0,0,83.1,2.967a8.591,8.591,0,0,0-1.117,1.187,13.617,13.617,0,0,0-2.006,3.515,5.691,5.691,0,0,0-.224,4.065,6.166,6.166,0,0,0,3.773,3.23c.022.009.554.208.595.217a5.209,5.209,0,0,0,1.5.8.8.8,0,0,1-.391.149,10.052,10.052,0,0,0-3.6,1.95A6.439,6.439,0,0,0,79.9,20.427a6.118,6.118,0,0,0-.471,1.792l0,.014v.009q-.015.154-.023.309a.335.335,0,0,0,.335.351H94.872a.335.335,0,0,0,.335-.351,6.019,6.019,0,0,0-.222-1.352Zm-14.61-9.706A5.058,5.058,0,0,1,80.6,7.9a12.98,12.98,0,0,1,1.9-3.335,8.144,8.144,0,0,1,.86-.945c.011.022.021.046.032.068a2.116,2.116,0,0,0,1.907,1.177h.186a.335.335,0,1,0,0-.67h-.186A1.45,1.45,0,0,1,84,3.392a6.694,6.694,0,0,1-.59-1.986A.644.644,0,0,1,84.047.67h6.511a.644.644,0,0,1,.637.736,6.693,6.693,0,0,1-.59,1.986A1.449,1.449,0,0,1,89.3,4.2H87.07a.335.335,0,1,0,0,.67H89.3A2.115,2.115,0,0,0,91.206,3.69c.011-.021.02-.044.031-.066a8.449,8.449,0,0,1,.862.943A12.981,12.981,0,0,1,94,7.9a5.058,5.058,0,0,1,.228,3.589A4.975,4.975,0,0,1,91.606,14a5.241,5.241,0,0,0,.78-1.757,1.509,1.509,0,0,0,.14-3V8.715a.331.331,0,0,0-.3-.336.3.3,0,0,0-.065,0,8.234,8.234,0,0,1-5.257-1.071,4.632,4.632,0,0,1-1.45-1.387.335.335,0,0,0-.6.035,3.386,3.386,0,0,1-2.493,2.364.353.353,0,0,0-.279.383v0s0,.226,0,.539a1.509,1.509,0,0,0,.136,3A5.2,5.2,0,0,0,83,14a4.972,4.972,0,0,1-2.621-2.507ZM91.857,10.05a5.288,5.288,0,0,1-3.381,1.739,7.482,7.482,0,0,1-2.346,0,5.341,5.341,0,0,1-3.381-1.74V8.921a3.94,3.94,0,0,0,2.48-2.185,5.906,5.906,0,0,0,1.276,1.109,8.4,8.4,0,0,0,4.669,1.244c.22,0,.448-.007.682-.02Zm.645,1.5c.017-.169.025-.341.025-.512V9.926a.839.839,0,0,1-.025,1.627Zm-10.4,0a.839.839,0,0,1-.023-1.627c0,.566,0,1.116,0,1.116C82.079,11.212,82.088,11.384,82.1,11.553Zm2.135,2.857A4.54,4.54,0,0,1,82.772,11.5c-.015-.152-.023-.307-.023-.46v-.032a6.43,6.43,0,0,0,3.276,1.442,8.153,8.153,0,0,0,2.556,0,6.43,6.43,0,0,0,3.276-1.442v.032a4.6,4.6,0,0,1-.023.46,4.554,4.554,0,0,1-7.595,2.909ZM80.1,22.231a5.454,5.454,0,0,1,.4-1.511,5.768,5.768,0,0,1,1.566-2.125c.19-.162.382-.311.574-.449a9.554,9.554,0,0,1,2.266-1.2,5.2,5.2,0,0,1,.68-.208l.018,0,1.078,2.127a.7.7,0,0,0,1.247,0l.148-.293a.335.335,0,0,0-.6-.3l-.148.293a.029.029,0,0,1-.052,0L86.17,16.373a1.223,1.223,0,0,0,.125-.206,5.228,5.228,0,0,0,2.015,0,1.222,1.222,0,0,0,.125.206l-.251.5a.335.335,0,1,0,.6.3L89,16.733a1.046,1.046,0,0,1,.123.028c.131.031.258.074.386.117a9.643,9.643,0,0,1,2.4,1.231c.208.148.418.309.626.486a5.774,5.774,0,0,1,1.513,2,5.466,5.466,0,0,1,.454,1.631H80.1Z" transform="translate(-79.398 0)" fill="#35364a" stroke="#35364a" stroke-width="0.5"/>
        </g>
      </g>
    </g>
  </g>
</svg>
