<svg width="25" height="25" viewBox="0 0 25 25" fill="none" xmlns="http://www.w3.org/2000/svg">
<path d="M7.70142 2.39526C10.1673 2.39526 12.1662 4.39418 12.1662 6.86002C12.1662 9.32586 10.1673 11.325 7.70142 11.325C5.23559 11.325 3.23645 9.32586 3.23645 6.86002C3.23886 4.39528 5.23646 2.39767 7.70142 2.39526V2.39526Z" fill="#656464"/>
<path d="M0 22.5993C0.0898341 20.5294 0.880593 18.6336 2.24936 17.2314C3.67969 15.7673 5.61485 14.9596 7.69572 14.9596C9.7768 14.9596 11.712 15.7673 13.1423 17.2314C14.5108 18.6336 15.3073 20.5294 15.3914 22.5993H0ZM15.829 20.3499C15.4944 19.1718 14.9131 18.078 14.1239 17.1415C15.1147 15.6643 16.7168 14.7101 18.4876 14.5427C20.2585 14.3753 22.0111 15.0122 23.2611 16.2778C24.3045 17.3435 24.9158 18.7794 25 20.3499H15.829Z" fill="#656464"/>
<path d="M19.0373 10.9324C17.3366 10.9306 15.8944 9.68169 15.6494 7.99873C15.878 8.03225 16.1085 8.04912 16.3394 8.04912C16.7055 8.0489 17.0706 8.00749 17.4275 7.92577C18.19 7.74697 18.8896 7.36529 19.4525 6.82081C19.6453 7.08615 19.8631 7.3322 20.103 7.55569C20.7649 8.16131 21.5222 8.47551 22.3074 8.47551H22.3243C21.8936 9.93192 20.5561 10.9317 19.0373 10.9324V10.9324ZM23.5864 6.11966C24.144 6.11966 24.596 6.57168 24.596 7.12931C24.596 7.68694 24.144 8.13896 23.5864 8.13896C23.4578 8.13742 23.3305 8.11288 23.2106 8.066V8.04912C23.2332 7.8688 23.2443 7.68694 23.2441 7.50508C23.2433 7.08505 23.181 6.66743 23.0592 6.26559C23.2198 6.17312 23.4012 6.12295 23.5864 6.11966ZM22.2121 6.2095C22.2231 6.25639 22.24 6.30152 22.2625 6.34403C22.3957 6.71673 22.4641 7.10937 22.4645 7.50508C22.4645 7.56117 22.4645 7.61726 22.4588 7.67335C21.8138 7.71827 21.2082 7.48273 20.6527 6.97791C20.4019 6.75113 20.1812 6.4928 19.9965 6.2095C20.3666 5.72483 20.6703 5.19284 20.8997 4.62754C21.4862 5.01076 21.9437 5.56203 22.2121 6.2095ZM19.0373 4.0835C19.4312 4.08437 19.8221 4.15273 20.1928 4.28551C18.8859 7.4996 16.4628 7.35937 15.6271 7.20227C15.7886 5.43846 17.266 4.08722 19.0373 4.0835Z" fill="#656464"/>
</svg>
