<svg width="18" height="18" viewBox="0 0 18 18" fill="none" xmlns="http://www.w3.org/2000/svg">
<g clip-path="url(#clip0_347_7285)">
<path d="M6.71527 14.2742C6.90932 14.2742 7.06683 14.1168 7.06683 13.9226C7.06683 13.7284 6.90932 13.571 6.71527 13.571H2.49652C2.30234 13.571 2.14496 13.7284 2.14496 13.9226C2.14496 14.1168 2.30234 14.2742 2.49652 14.2742H6.71527Z" fill="#16C79A"/>
<path d="M17.7532 9.26093L13.8241 8.0343C13.7881 8.02208 13.7501 8.01549 13.7112 8.01549C13.7111 8.01549 13.7108 8.01549 13.7107 8.01549C13.6719 8.01549 13.6338 8.02208 13.5979 8.03416L13.0752 8.19745V3.44531C13.0752 3.34822 13.0358 3.26033 12.9722 3.19675L9.87849 0.102997C9.81491 0.0392761 9.72702 0 9.62993 0H1.05469C0.473099 0 0 0.473099 0 1.05469L-0.123047 9.87891C-0.123047 10.0731 0.157379 9.85515 0.351562 9.85515C0.545746 9.85515 0.703125 10.4212 0.703125 10.227V1.05469C0.703125 0.860779 0.860779 0.703125 1.05469 0.703125H9.27837V2.79053C9.27837 3.34547 9.72977 3.79688 10.2846 3.79688H12.3721V8.4169L9.66866 9.26093C9.52185 9.30679 9.42188 9.44275 9.42188 9.59656V9.63213H2.49651C2.30232 9.63213 2.14494 9.78951 2.14494 9.98369C2.14494 10.1779 2.30232 10.3353 2.49651 10.3353H9.42188V11.6016H2.49651C2.30232 11.6016 2.14494 11.7589 2.14494 11.9531C2.14494 12.1473 2.30232 12.3047 2.49651 12.3047H9.42188V12.8848C9.42188 13.9941 9.77426 15.0352 10.3808 15.8906H1.05469C0.860779 15.8906 0.703125 15.733 0.703125 15.5391V9.87891C0.703125 9.68472 0.545746 9.52734 0.351562 9.52734C0.157379 9.52734 0 9.68472 0 9.87891V15.5391C0 16.1207 0.473099 16.5938 1.05469 16.5938H10.979C11.6911 17.2943 12.6076 17.795 13.6447 17.9937C13.6666 17.9979 13.6888 18 13.7109 18C13.733 18 13.7553 17.9979 13.7771 17.9937C16.2241 17.5248 18 15.3762 18 12.8848V9.59656C18 9.44275 17.9 9.30679 17.7532 9.26093ZM10.2846 3.09375C10.1174 3.09375 9.98149 2.95779 9.98149 2.79053V1.20026L11.8748 3.09375H10.2846ZM17.2969 12.8848C17.2969 15.0169 15.793 16.8588 13.7109 17.29C11.6289 16.8588 10.125 15.0169 10.125 12.8848V9.85515L13.7109 8.7355L17.2969 9.85515V12.8848Z" fill="#16C79A"/>
<path d="M13.6062 9.50486L11.0749 10.2952C10.9281 10.3411 10.8281 10.4769 10.8281 10.6307V12.8847C10.8281 14.5886 11.9754 16.0938 13.6178 16.5448C13.6483 16.5531 13.6796 16.5573 13.7109 16.5573C13.7422 16.5573 13.7736 16.5531 13.804 16.5448C15.4465 16.0938 16.5938 14.5886 16.5938 12.8848V10.6308C16.5938 10.477 16.4938 10.3411 16.347 10.2952L13.8157 9.50486C13.7475 9.48357 13.6744 9.48357 13.6062 9.50486ZM15.8906 10.8893V12.8847C15.8906 14.2405 14.9991 15.4419 13.7109 15.8396C12.4228 15.4419 11.5312 14.2405 11.5312 12.8847V10.8893L13.7109 10.2088L15.8906 10.8893Z" fill="#16C79A"/>
<path d="M12.8345 12.5982C12.6972 12.4609 12.4747 12.4609 12.3374 12.5982C12.2 12.7355 12.2 12.9581 12.3374 13.0953L13.1473 13.9054C13.216 13.9741 13.306 14.0084 13.3959 14.0084C13.4859 14.0084 13.5758 13.9741 13.6445 13.9054L15.0845 12.4654C15.2218 12.3281 15.2218 12.1055 15.0845 11.9681C14.9472 11.8309 14.7247 11.8309 14.5872 11.9681L13.3959 13.1596L12.8345 12.5982Z" fill="#16C79A"/>
<path d="M7.55902 3.44495H5.87152C5.67734 3.44495 5.51996 3.60246 5.51996 3.79651V4.8512H4.46527C4.27109 4.8512 4.11371 5.00871 4.11371 5.20276V6.89026C4.11371 7.08444 4.27109 7.24182 4.46527 7.24182H5.51996V8.29651C5.51996 8.49069 5.67734 8.64807 5.87152 8.64807H7.55902C7.75307 8.64807 7.91058 8.49069 7.91058 8.29651V7.24182H8.96527C9.15932 7.24182 9.31683 7.08444 9.31683 6.89026V5.20276C9.31683 5.00871 9.15932 4.8512 8.96527 4.8512H7.91058V3.79651C7.91058 3.60246 7.75307 3.44495 7.55902 3.44495ZM8.61371 5.55432V6.5387H7.55902C7.36484 6.5387 7.20746 6.69621 7.20746 6.89026V7.94495H6.22308V6.89026C6.22308 6.69621 6.06557 6.5387 5.87152 6.5387H4.81683V5.55432H5.87152C6.06557 5.55432 6.22308 5.39694 6.22308 5.20276V4.14807H7.20746V5.20276C7.20746 5.39694 7.36484 5.55432 7.55902 5.55432H8.61371Z" fill="#16C79A"/>
</g>
<defs>
<clipPath id="clip0_347_7285">
<rect width="18" height="18" fill="white"/>
</clipPath>
</defs>
</svg>
