<svg width="25" height="25" viewBox="0 0 25 25" fill="none" xmlns="http://www.w3.org/2000/svg">
<path d="M17.041 14.4043H16.2109V15.4297H17.041V14.4043Z" fill="#656464"/>
<path d="M17.041 10.5469H16.2109V11.5723H17.041V10.5469Z" fill="#656464"/>
<path d="M2.83203 23.4375H5.81055V8.49609H2.83203V23.4375ZM3.32031 12.7441C3.32045 12.6147 3.37194 12.4906 3.46348 12.399C3.55502 12.3075 3.67914 12.256 3.80859 12.2559H4.83398C4.96344 12.256 5.08755 12.3075 5.17909 12.399C5.27063 12.4906 5.32212 12.6147 5.32227 12.7441V13.9648C5.32212 14.0943 5.27063 14.2184 5.17909 14.31C5.08755 14.4015 4.96344 14.453 4.83398 14.4531H3.80859C3.67914 14.453 3.55502 14.4015 3.46348 14.31C3.37194 14.2184 3.32045 14.0943 3.32031 13.9648V12.7441Z" fill="#656464"/>
<path d="M19.9707 1.5625H5.0293V2.73438H19.9707V1.5625Z" fill="#656464"/>
<path d="M12.8906 10.5469H12.0605V11.5723H12.8906V10.5469Z" fill="#656464"/>
<path d="M14.0625 17.9688H10.9863V23.4375H14.0625V17.9688Z" fill="#656464"/>
<path d="M12.2559 7.17773V8.25195H12.8906V7.17773C12.8908 7.04828 12.9423 6.92416 13.0338 6.83262C13.1253 6.74108 13.2494 6.6896 13.3789 6.68945H14.4043V6.10352H13.3789C13.2494 6.10337 13.1253 6.05188 13.0338 5.96034C12.9423 5.8688 12.8908 5.74469 12.8906 5.61523V4.58984H12.2559V5.61523C12.2557 5.74469 12.2042 5.8688 12.1127 5.96034C12.0211 6.05188 11.897 6.10337 11.7676 6.10352H10.6445V6.68945H11.7676C11.897 6.6896 12.0211 6.74108 12.1127 6.83262C12.2042 6.92416 12.2557 7.04828 12.2559 7.17773Z" fill="#656464"/>
<path d="M5.81055 6.68945H1.61133V7.91016H5.81055V6.68945Z" fill="#656464"/>
<path d="M6.39648 23.4375H10.4004V17.8711C10.4005 17.7416 10.452 17.6175 10.5436 17.526C10.6351 17.4344 10.7592 17.383 10.8887 17.3828H14.1602C14.2896 17.383 14.4137 17.4344 14.5053 17.526C14.5968 17.6175 14.6483 17.7416 14.6484 17.8711V23.4375H18.6035V3.32031H6.39648V23.4375ZM13.4766 15.5273C13.4764 15.6568 13.4249 15.7809 13.3334 15.8725C13.2419 15.964 13.1177 16.0155 12.9883 16.0156H11.9629C11.8334 16.0155 11.7093 15.964 11.6178 15.8725C11.5262 15.7809 11.4748 15.6568 11.4746 15.5273V14.3066C11.4748 14.1772 11.5262 14.0531 11.6178 13.9615C11.7093 13.87 11.8334 13.8185 11.9629 13.8184H12.9883C13.1177 13.8185 13.2419 13.87 13.3334 13.9615C13.4249 14.0531 13.4764 14.1772 13.4766 14.3066V15.5273ZM13.4766 11.6699C13.4764 11.7994 13.4249 11.9235 13.3334 12.015C13.2419 12.1066 13.1177 12.1581 12.9883 12.1582H11.9629C11.8334 12.1581 11.7093 12.1066 11.6178 12.015C11.5262 11.9235 11.4748 11.7994 11.4746 11.6699V10.4492C11.4748 10.3198 11.5262 10.1956 11.6178 10.1041C11.7093 10.0126 11.8334 9.96108 11.9629 9.96094H12.9883C13.1177 9.96108 13.2419 10.0126 13.3334 10.1041C13.4249 10.1956 13.4764 10.3198 13.4766 10.4492V11.6699ZM15.625 10.4492C15.6251 10.3198 15.6766 10.1956 15.7682 10.1041C15.8597 10.0126 15.9838 9.96108 16.1133 9.96094H17.1387C17.2681 9.96108 17.3922 10.0126 17.4838 10.1041C17.5753 10.1956 17.6268 10.3198 17.627 10.4492V11.6699C17.6268 11.7994 17.5753 11.9235 17.4838 12.015C17.3922 12.1066 17.2681 12.1581 17.1387 12.1582H16.1133C15.9838 12.1581 15.8597 12.1066 15.7682 12.015C15.6766 11.9235 15.6251 11.7994 15.625 11.6699V10.4492ZM15.625 14.3066C15.6251 14.1772 15.6766 14.0531 15.7682 13.9615C15.8597 13.87 15.9838 13.8185 16.1133 13.8184H17.1387C17.2681 13.8185 17.3922 13.87 17.4838 13.9615C17.5753 14.0531 17.6268 14.1772 17.627 14.3066V15.5273C17.6268 15.6568 17.5753 15.7809 17.4838 15.8725C17.3922 15.964 17.2681 16.0155 17.1387 16.0156H16.1133C15.9838 16.0155 15.8597 15.964 15.7682 15.8725C15.6766 15.7809 15.6251 15.6568 15.625 15.5273V14.3066ZM10.0586 6.00586C10.0587 5.8764 10.1102 5.75229 10.2018 5.66075C10.2933 5.56921 10.4174 5.51772 10.5469 5.51758H11.6699V4.49219C11.6701 4.36273 11.7216 4.23862 11.8131 4.14708C11.9046 4.05554 12.0287 4.00405 12.1582 4.00391H12.9883C13.1177 4.00405 13.2419 4.05554 13.3334 4.14708C13.4249 4.23862 13.4764 4.36273 13.4766 4.49219V5.51758H14.502C14.6314 5.51772 14.7555 5.56921 14.8471 5.66075C14.9386 5.75229 14.9901 5.8764 14.9902 6.00586V6.78711C14.9901 6.91657 14.9386 7.04068 14.8471 7.13222C14.7555 7.22376 14.6314 7.27525 14.502 7.27539H13.4766V8.34961C13.4764 8.47907 13.4249 8.60318 13.3334 8.69472C13.2419 8.78626 13.1177 8.83775 12.9883 8.83789H12.1582C12.0287 8.83775 11.9046 8.78626 11.8131 8.69472C11.7216 8.60318 11.6701 8.47907 11.6699 8.34961V7.27539H10.5469C10.4174 7.27525 10.2933 7.22376 10.2018 7.13222C10.1102 7.04068 10.0587 6.91657 10.0586 6.78711V6.00586ZM7.37305 10.4492C7.37319 10.3198 7.42468 10.1956 7.51622 10.1041C7.60776 10.0126 7.73187 9.96108 7.86133 9.96094H8.88672C9.01618 9.96108 9.14029 10.0126 9.23183 10.1041C9.32337 10.1956 9.37486 10.3198 9.375 10.4492V11.6699C9.37486 11.7994 9.32337 11.9235 9.23183 12.015C9.14029 12.1066 9.01618 12.1581 8.88672 12.1582H7.86133C7.73187 12.1581 7.60776 12.1066 7.51622 12.015C7.42468 11.9235 7.37319 11.7994 7.37305 11.6699V10.4492ZM7.37305 14.3066C7.37319 14.1772 7.42468 14.0531 7.51622 13.9615C7.60776 13.87 7.73187 13.8185 7.86133 13.8184H8.88672C9.01618 13.8185 9.14029 13.87 9.23183 13.9615C9.32337 14.0531 9.37486 14.1772 9.375 14.3066V15.5273C9.37486 15.6568 9.32337 15.7809 9.23183 15.8725C9.14029 15.964 9.01618 16.0155 8.88672 16.0156H7.86133C7.73187 16.0155 7.60776 15.964 7.51622 15.8725C7.42468 15.7809 7.37319 15.6568 7.37305 15.5273V14.3066Z" fill="#656464"/>
<path d="M20.9961 12.8418H20.166V13.8672H20.9961V12.8418Z" fill="#656464"/>
<path d="M12.8906 14.4043H12.0605V15.4297H12.8906V14.4043Z" fill="#656464"/>
<path d="M4.73633 12.8418H3.90625V13.8672H4.73633V12.8418Z" fill="#656464"/>
<path d="M23.3887 9.17969H19.1895V10.4004H23.3887V9.17969Z" fill="#656464"/>
<path d="M19.1895 23.4375H22.168V10.9863H19.1895V23.4375ZM19.5801 12.7441C19.5802 12.6147 19.6317 12.4906 19.7232 12.399C19.8148 12.3075 19.9389 12.256 20.0684 12.2559H21.0938C21.2232 12.256 21.3473 12.3075 21.4389 12.399C21.5304 12.4906 21.5819 12.6147 21.582 12.7441V13.9648C21.5819 14.0943 21.5304 14.2184 21.4389 14.31C21.3473 14.4015 21.2232 14.453 21.0938 14.4531H20.0684C19.9389 14.453 19.8148 14.4015 19.7232 14.31C19.6317 14.2184 19.5802 14.0943 19.5801 13.9648V12.7441Z" fill="#656464"/>
<path d="M8.78906 14.4043H7.95898V15.4297H8.78906V14.4043Z" fill="#656464"/>
<path d="M8.78906 10.5469H7.95898V11.5723H8.78906V10.5469Z" fill="#656464"/>
</svg>
