<?xml version="1.0" encoding="utf-8"?>
<!-- Generator: Adobe Illustrator 25.0.1, SVG Export Plug-In . SVG Version: 6.00 Build 0)  -->
<svg version="1.1" id="Layer_1" xmlns="http://www.w3.org/2000/svg" xmlns:xlink="http://www.w3.org/1999/xlink" x="0px" y="0px"
	 viewBox="0 0 113 105" style="enable-background:new 0 0 113 105;" xml:space="preserve">
<style type="text/css">
	.st0{fill:#F6F6F6;}
	.st1{fill:#19456B;}
	.st2{fill:#FFFFFF;}
	.st3{fill:#E8E8E8;}
	.st4{fill:#FFD04A;}
	.st5{fill:#73C97C;}
	.st6{fill:#E65D52;}
</style>
<g>
	<path id="Path_1483_1_" class="st0" d="M26.7,32.5h59.9c1.2,0,2.2,1,2.2,2.2l0,0V78c0,1.2-1,2.2-2.2,2.2l0,0H26.7
		c-1.2,0-2.2-1-2.2-2.2c0,0,0,0,0,0V34.7C24.5,33.5,25.5,32.5,26.7,32.5C26.7,32.5,26.7,32.5,26.7,32.5z"/>
	<path id="Path_1484_1_" class="st1" d="M32.2,38H81c1.2,0,2.2,1,2.2,2.2l0,0v24.4c0,1.2-1,2.2-2.2,2.2l0,0H32.2
		c-1.2,0-2.2-1-2.2-2.2l0,0V40.3C30,39,31,38,32.2,38L32.2,38z"/>
	<path id="Path_1485_1_" class="st2" d="M54.4,58.2c-0.7,0-1.4-0.4-1.8-0.9l-6-8.5l-3.2,4c-0.4,0.5-1.1,0.8-1.7,0.8h-3.9v-2.2h3.9
		l3.2-4c0.8-1,2.2-1.1,3.1-0.3c0.2,0.1,0.3,0.3,0.4,0.5l6,8.5l3.7-6c0.4-0.6,1.1-1,1.8-1c0.8,0,1.5,0.4,1.9,1l0.9,1.4h12.7v2.2H62.8
		c-0.7,0-1.4-0.4-1.8-1L60,51.2l-3.7,6C55.9,57.8,55.2,58.2,54.4,58.2L54.4,58.2z"/>
	<path id="Path_1486_1_" class="st3" d="M79.9,73.5c0,1.8-1.5,3.3-3.3,3.3s-3.3-1.5-3.3-3.3c0-1.8,1.5-3.3,3.3-3.3
		S79.9,71.7,79.9,73.5L79.9,73.5z"/>
	<path id="Path_1487_1_" class="st4" d="M48.9,71.3h2.2c0.6,0,1.1,0.5,1.1,1.1l0,0v2.2c0,0.6-0.5,1.1-1.1,1.1l0,0h-2.2
		c-0.6,0-1.1-0.5-1.1-1.1l0,0v-2.2C47.8,71.8,48.3,71.3,48.9,71.3L48.9,71.3z"/>
	<path id="Path_1488_1_" class="st5" d="M57.8,71.3H60c0.6,0,1.1,0.5,1.1,1.1l0,0v2.2c0,0.6-0.5,1.1-1.1,1.1l0,0h-2.2
		c-0.6,0-1.1-0.5-1.1-1.1l0,0v-2.2C56.6,71.8,57.1,71.3,57.8,71.3L57.8,71.3z"/>
	<path id="Path_1489_1_" class="st6" d="M66.6,71.3h2.2c0.6,0,1.1,0.5,1.1,1.1l0,0v2.2c0,0.6-0.5,1.1-1.1,1.1l0,0h-2.2
		c-0.6,0-1.1-0.5-1.1-1.1l0,0v-2.2C65.5,71.8,66,71.3,66.6,71.3L66.6,71.3z"/>
	<path id="Path_1490_1_" class="st3" d="M67.3,23.3c-0.4-0.5-1-0.7-1.7-0.7h-18c-0.6,0-1.2,0.3-1.7,0.7l-8.2,9.2h7.8l4-4.7
		c0.4-0.5,1-0.8,1.7-0.8h10.8c0.7,0,1.3,0.3,1.7,0.8l4,4.7h7.8L67.3,23.3z"/>
</g>
</svg>
