<svg width="18" height="18" viewBox="0 0 18 18" fill="none" xmlns="http://www.w3.org/2000/svg">
<path d="M10.4869 7.38848C10.4869 8.20979 9.82113 8.87575 8.99981 8.87575C8.17849 8.87575 7.5127 8.20979 7.5127 7.38848C7.5127 6.56716 8.17849 5.90137 8.99981 5.90137C9.82113 5.90137 10.4869 6.56716 10.4869 7.38848Z" fill="#003761"/>
<path d="M8.99987 11.1473C8.28888 11.1424 7.60652 11.427 7.10981 11.9358C6.66851 12.3858 6.40266 12.9858 6.33838 13.6415H11.6614C11.5971 12.9814 11.3312 12.3858 10.8899 11.9358C10.3932 11.427 9.71087 11.1424 8.99987 11.1473Z" fill="#003761"/>
<path d="M14.1429 0H3.85716C3.07635 0.000837051 2.44371 0.633482 2.44287 1.41429V16.5857C2.44371 17.3665 3.07635 17.9992 3.85716 18H14.1429C14.9237 17.9992 15.5563 17.3665 15.5572 16.5857V1.41429C15.5563 0.633482 14.9237 0.000837051 14.1429 0ZM7.21291 1.41864H10.6415C10.807 1.41864 10.9415 1.5529 10.9415 1.71864C10.9415 1.88421 10.807 2.01864 10.6415 2.01864H7.21291C7.04717 2.01864 6.91291 1.88421 6.91291 1.71864C6.91291 1.5529 7.04717 1.41864 7.21291 1.41864ZM9.00002 5.3014C10.1515 5.30257 11.0841 6.23705 11.0829 7.3885C11.0818 8.54012 10.1473 9.4726 8.99566 9.47143C7.84421 9.47026 6.91173 8.53577 6.91291 7.38432C6.91659 6.23387 7.84957 5.30273 9.00002 5.3014ZM11.9742 14.2415H6.0258C5.94594 14.242 5.86943 14.2105 5.81302 14.1541C5.7566 14.0977 5.72529 14.0211 5.7258 13.9415C5.7258 13.0071 6.0643 12.1456 6.68138 11.5157C7.29376 10.8959 8.12881 10.5472 9.00002 10.5472C9.87122 10.5472 10.7063 10.8959 11.3187 11.5157C11.9357 12.1456 12.2742 13.0071 12.2742 13.9415C12.2747 14.0211 12.2434 14.0977 12.187 14.1541C12.1306 14.2105 12.0541 14.242 11.9742 14.2415Z" fill="#003761"/>
</svg>
