<svg width="18" height="18" viewBox="0 0 18 18" fill="none" xmlns="http://www.w3.org/2000/svg">
<path d="M5.60371 8.71874C6.60753 8.71874 7.42129 7.90488 7.42129 6.90117C7.42129 5.89734 6.60753 5.08359 5.60371 5.08359C4.59989 5.08359 3.78613 5.89734 3.78613 6.90117C3.78745 7.90444 4.60044 8.71743 5.60371 8.71874ZM5.60371 5.79023C6.21917 5.79023 6.71816 6.28912 6.71816 6.90468C6.71816 7.52014 6.21917 8.01913 5.60371 8.01913C4.98815 8.01913 4.48926 7.52014 4.48926 6.90468C4.48948 6.28923 4.98826 5.79045 5.60371 5.79023Z" fill="#003761"/>
<path d="M5.60391 9.39024C4.86024 9.38475 4.14646 9.68325 3.62812 10.2164C3.10078 10.7543 2.8125 11.4855 2.8125 12.2801C2.81305 12.474 2.97015 12.6311 3.16406 12.6316H8.04375C8.23766 12.6311 8.39476 12.474 8.39531 12.2801C8.39531 11.4855 8.10703 10.7543 7.57969 10.2164C7.06135 9.68325 6.34768 9.38475 5.60391 9.39024ZM3.54023 11.9285C3.60044 11.4689 3.80764 11.041 4.13086 10.7086C4.51989 10.315 5.05041 10.0934 5.60391 10.0934C6.1574 10.0934 6.68793 10.315 7.07695 10.7086C7.39951 11.0414 7.60671 11.4691 7.66758 11.9285H3.54023Z" fill="#003761"/>
<path d="M15.6797 2.63672H2.32031C1.34967 2.63716 0.562939 3.42389 0.5625 4.39453V13.3242C0.562939 14.2949 1.34967 15.0816 2.32031 15.082H15.6797C16.6503 15.0816 17.4371 14.2949 17.4375 13.3242V4.39453C17.4371 3.42389 16.6503 2.63716 15.6797 2.63672ZM16.7344 13.3242C16.7327 13.9059 16.2614 14.3773 15.6797 14.3789H2.32031C1.73859 14.3773 1.26727 13.9059 1.26562 13.3242V4.39453C1.26727 3.81281 1.73859 3.34149 2.32031 3.33984H15.6797C16.2614 3.34149 16.7327 3.81281 16.7344 4.39453V13.3242Z" fill="#003761"/>
<path d="M14.8149 8.50781H10.7192C10.5251 8.50781 10.3677 8.66514 10.3677 8.85937C10.3677 9.05361 10.5251 9.21094 10.7192 9.21094H14.8149C15.0091 9.21094 15.1665 9.05361 15.1665 8.85937C15.1665 8.66514 15.0091 8.50781 14.8149 8.50781Z" fill="#003761"/>
<path d="M14.8149 10.7578H10.7192C10.5251 10.7578 10.3677 10.9151 10.3677 11.1094C10.3677 11.3036 10.5251 11.4609 10.7192 11.4609H14.8149C15.0091 11.4609 15.1665 11.3036 15.1665 11.1094C15.1665 10.9151 15.0091 10.7578 14.8149 10.7578Z" fill="#003761"/>
<path d="M14.8149 6.25781H10.7192C10.5251 6.25781 10.3677 6.41514 10.3677 6.60937C10.3677 6.80361 10.5251 6.96094 10.7192 6.96094H14.8149C15.0091 6.96094 15.1665 6.80361 15.1665 6.60937C15.1665 6.41514 15.0091 6.25781 14.8149 6.25781Z" fill="#003761"/>
</svg>
