<svg width="18" height="18" viewBox="0 0 18 18" fill="none" xmlns="http://www.w3.org/2000/svg">
<path d="M8.84916 9.52278C9.90871 9.52278 10.7675 8.6623 10.7675 7.60111C10.7675 6.5398 9.90871 5.67944 8.84916 5.67944C7.78949 5.67944 6.93066 6.5398 6.93066 7.60111C6.93194 8.66184 7.79007 9.52139 8.84916 9.52278ZM8.84916 6.42655C9.49878 6.42655 10.0254 6.95401 10.0254 7.60483C10.0254 8.25553 9.49878 8.78311 8.84916 8.78311C8.19942 8.78311 7.67283 8.25553 7.67283 7.60483C7.67294 6.95413 8.19953 6.42678 8.84916 6.42655Z" fill="#003761"/>
<path d="M8.84874 10.2327C8.06378 10.2269 7.31049 10.5425 6.76326 11.1062C6.20663 11.6749 5.90234 12.4481 5.90234 13.2881C5.90292 13.4931 6.06864 13.6592 6.27343 13.6598H11.4239C11.6287 13.6592 11.7944 13.4931 11.795 13.2881C11.795 12.4481 11.4907 11.6749 10.9341 11.1062C10.387 10.5425 9.63358 10.2269 8.84874 10.2327ZM6.67048 12.9164C6.73392 12.4304 6.95274 11.9781 7.2939 11.6266C7.70453 11.2104 8.26452 10.9761 8.84874 10.9761C9.43285 10.9761 9.99283 11.2104 10.4035 11.6266C10.7439 11.9784 10.9625 12.4306 11.0269 12.9164H6.67048Z" fill="#003761"/>
<path d="M13.3019 0.564941H4.39593C3.3714 0.565406 2.54088 1.39719 2.54053 2.42342V15.5815C2.54088 16.6077 3.3714 17.4395 4.39593 17.4399H13.3019C14.3264 17.4395 15.1568 16.6077 15.1573 15.5815V2.42342C15.1568 1.39719 14.3264 0.565406 13.3019 0.564941ZM14.4151 15.5815C14.4134 16.1965 13.9159 16.6948 13.3019 16.6966H4.39593C3.78191 16.6948 3.28443 16.1965 3.28269 15.5815V2.42342C3.28443 1.80838 3.78191 1.31008 4.39593 1.30833H13.3019C13.9159 1.31008 14.4134 1.80838 14.4151 2.42342V15.5815Z" fill="#003761"/>
<path d="M7.30174 3.05907H10.2704C10.4753 3.05907 10.6415 2.89262 10.6415 2.68737C10.6415 2.48212 10.4753 2.31567 10.2704 2.31567H7.30174C7.09672 2.31567 6.93066 2.48212 6.93066 2.68737C6.93066 2.89262 7.09672 3.05907 7.30174 3.05907V3.05907Z" fill="#003761"/>
</svg>
