<svg width="15" height="15" viewBox="0 0 15 15" fill="none" xmlns="http://www.w3.org/2000/svg">
<path d="M7.5 0C3.3544 0 0 3.3547 0 7.5C0 11.6456 3.3547 15 7.5 15C11.6456 15 15 11.6453 15 7.5C15 3.3544 11.6453 0 7.5 0ZM7.5 13.8281C4.00216 13.8281 1.17188 10.9976 1.17188 7.5C1.17188 4.00216 4.00239 1.17188 7.5 1.17188C10.9978 1.17188 13.8281 4.00239 13.8281 7.5C13.8281 10.9978 10.9976 13.8281 7.5 13.8281Z" fill="#7A7E81"/>
<path d="M7.5 6.27914C7.17639 6.27914 6.91406 6.54147 6.91406 6.86508V10.6383C6.91406 10.9619 7.17639 11.2242 7.5 11.2242C7.82361 11.2242 8.08594 10.9619 8.08594 10.6383V6.86508C8.08594 6.54147 7.82361 6.27914 7.5 6.27914Z" fill="#7A7E81"/>
<path d="M7.5 5.56183C7.93687 5.56183 8.29102 5.20768 8.29102 4.77081C8.29102 4.33395 7.93687 3.9798 7.5 3.9798C7.06313 3.9798 6.70898 4.33395 6.70898 4.77081C6.70898 5.20768 7.06313 5.56183 7.5 5.56183Z" fill="#7A7E81"/>
</svg>
