<svg width="70" height="19" viewBox="0 0 70 19" fill="none" xmlns="http://www.w3.org/2000/svg">
<path d="M9.22559 13H7.87207V5.17969H9.22559V13ZM12.201 7.18848L12.2386 7.85986C12.6682 7.34066 13.2322 7.08105 13.9304 7.08105C15.1407 7.08105 15.7566 7.77393 15.7781 9.15967V13H14.4729V9.23486C14.4729 8.86605 14.3924 8.59391 14.2312 8.41846C14.0737 8.23942 13.8141 8.1499 13.4524 8.1499C12.9261 8.1499 12.534 8.38802 12.2762 8.86426V13H10.971V7.18848H12.201ZM25.3812 10.1533C25.3812 11.0521 25.1771 11.77 24.7689 12.3071C24.3607 12.8407 23.8128 13.1074 23.1253 13.1074C22.488 13.1074 21.9777 12.8979 21.5946 12.479V15.2344H20.2894V7.18848H21.4925L21.5462 7.7793C21.9294 7.3138 22.4504 7.08105 23.1092 7.08105C23.8182 7.08105 24.3732 7.34603 24.7743 7.87598C25.1789 8.40234 25.3812 9.1346 25.3812 10.0728V10.1533ZM24.0814 10.0405C24.0814 9.46045 23.965 9.00033 23.7323 8.66016C23.5031 8.31999 23.1737 8.1499 22.744 8.1499C22.2105 8.1499 21.8273 8.37012 21.5946 8.81055V11.3887C21.8309 11.8398 22.2176 12.0654 22.7547 12.0654C23.1701 12.0654 23.4941 11.8989 23.7269 11.5659C23.9632 11.2293 24.0814 10.7209 24.0814 10.0405ZM29.753 8.38086C29.5812 8.35221 29.4039 8.33789 29.2213 8.33789C28.6233 8.33789 28.2205 8.56706 28.0128 9.02539V13H26.7076V7.18848H27.9537L27.986 7.83838C28.3011 7.3335 28.7379 7.08105 29.2965 7.08105C29.4827 7.08105 29.6367 7.10612 29.7584 7.15625L29.753 8.38086ZM30.3598 10.0405C30.3598 9.47119 30.4726 8.95915 30.6981 8.50439C30.9237 8.04606 31.2406 7.69515 31.6488 7.45166C32.057 7.20459 32.5261 7.08105 33.0561 7.08105C33.8402 7.08105 34.4758 7.3335 34.9628 7.83838C35.4534 8.34326 35.7183 9.01286 35.7577 9.84717L35.7631 10.1533C35.7631 10.7262 35.6521 11.2383 35.4301 11.6895C35.2117 12.1406 34.8965 12.4897 34.4848 12.7368C34.0766 12.9839 33.6039 13.1074 33.0668 13.1074C32.2468 13.1074 31.5897 12.8353 31.0956 12.291C30.605 11.7432 30.3598 11.0145 30.3598 10.105V10.0405ZM31.6649 10.1533C31.6649 10.7513 31.7885 11.2204 32.0355 11.5605C32.2826 11.8971 32.6264 12.0654 33.0668 12.0654C33.5072 12.0654 33.8492 11.8936 34.0927 11.5498C34.3397 11.2061 34.4633 10.703 34.4633 10.0405C34.4633 9.45329 34.3362 8.98779 34.0819 8.64404C33.8313 8.30029 33.4893 8.12842 33.0561 8.12842C32.6299 8.12842 32.2916 8.2985 32.0409 8.63867C31.7903 8.97526 31.6649 9.48014 31.6649 10.1533ZM36.8586 10.0513C36.8586 9.14893 37.0698 8.4292 37.4924 7.89209C37.9185 7.3514 38.4824 7.08105 39.1843 7.08105C39.8467 7.08105 40.3677 7.31201 40.7472 7.77393L40.8063 7.18848H41.9826V12.8228C41.9826 13.5854 41.7445 14.187 41.2682 14.6274C40.7956 15.0679 40.1564 15.2881 39.3508 15.2881C38.9247 15.2881 38.5075 15.1986 38.0993 15.0195C37.6947 14.8441 37.3867 14.6131 37.1755 14.3267L37.7931 13.5425C38.1942 14.0187 38.6883 14.2568 39.2756 14.2568C39.7088 14.2568 40.0508 14.1387 40.3014 13.9023C40.5521 13.6696 40.6774 13.3258 40.6774 12.8711V12.479C40.3014 12.8979 39.8001 13.1074 39.1735 13.1074C38.4932 13.1074 37.9364 12.8371 37.5031 12.2964C37.0734 11.7557 36.8586 11.0073 36.8586 10.0513ZM38.1584 10.1641C38.1584 10.7477 38.2765 11.2078 38.5129 11.5444C38.7528 11.8774 39.084 12.0439 39.5065 12.0439C40.0329 12.0439 40.4232 11.8184 40.6774 11.3672V8.81055C40.4304 8.37012 40.0436 8.1499 39.5173 8.1499C39.0876 8.1499 38.7528 8.31999 38.5129 8.66016C38.2765 9.00033 38.1584 9.50163 38.1584 10.1641ZM46.5908 8.38086C46.4189 8.35221 46.2417 8.33789 46.059 8.33789C45.4611 8.33789 45.0582 8.56706 44.8505 9.02539V13H43.5454V7.18848H44.7915L44.8237 7.83838C45.1388 7.3335 45.5756 7.08105 46.1342 7.08105C46.3204 7.08105 46.4744 7.10612 46.5962 7.15625L46.5908 8.38086ZM50.0871 13.1074C49.26 13.1074 48.5886 12.8478 48.073 12.3286C47.5609 11.8058 47.3049 11.1112 47.3049 10.2446V10.0835C47.3049 9.50342 47.4159 8.986 47.6379 8.53125C47.8635 8.07292 48.1786 7.71663 48.5832 7.4624C48.9879 7.20817 49.439 7.08105 49.9368 7.08105C50.7281 7.08105 51.3386 7.3335 51.7683 7.83838C52.2016 8.34326 52.4182 9.05762 52.4182 9.98145V10.5078H48.6208C48.6602 10.9876 48.8196 11.3672 49.0989 11.6465C49.3817 11.9258 49.7362 12.0654 50.1623 12.0654C50.7603 12.0654 51.2473 11.8237 51.6233 11.3403L52.3269 12.0117C52.0941 12.359 51.7826 12.6294 51.3923 12.8228C51.0056 13.0125 50.5705 13.1074 50.0871 13.1074ZM49.9314 8.12842C49.5733 8.12842 49.2833 8.25374 49.0613 8.50439C48.8428 8.75505 48.7032 9.10417 48.6423 9.55176H51.1291V9.45508C51.1005 9.01823 50.9841 8.6888 50.78 8.4668C50.5759 8.24121 50.293 8.12842 49.9314 8.12842ZM56.9136 11.4209C56.9136 11.1882 56.8169 11.0109 56.6236 10.8892C56.4338 10.7674 56.1169 10.66 55.6729 10.5669C55.2289 10.4738 54.8583 10.3556 54.5611 10.2124C53.9094 9.8973 53.5835 9.44076 53.5835 8.84277C53.5835 8.34147 53.7948 7.92253 54.2173 7.58594C54.6398 7.24935 55.1769 7.08105 55.8286 7.08105C56.5233 7.08105 57.0837 7.25293 57.5098 7.59668C57.9395 7.94043 58.1543 8.38623 58.1543 8.93408H56.8491C56.8491 8.68343 56.756 8.47575 56.5698 8.31104C56.3836 8.14274 56.1366 8.05859 55.8286 8.05859C55.5422 8.05859 55.3076 8.12484 55.125 8.25732C54.946 8.38981 54.8565 8.56706 54.8565 8.78906C54.8565 8.98958 54.9406 9.14535 55.1089 9.25635C55.2772 9.36735 55.6174 9.48014 56.1294 9.59473C56.6415 9.70573 57.0425 9.84001 57.3325 9.99756C57.6262 10.1515 57.8428 10.3377 57.9824 10.5562C58.1257 10.7746 58.1973 11.0396 58.1973 11.3511C58.1973 11.8739 57.9807 12.2982 57.5474 12.624C57.1141 12.9463 56.5466 13.1074 55.8447 13.1074C55.3685 13.1074 54.9442 13.0215 54.5718 12.8496C54.1994 12.6777 53.9094 12.4414 53.7017 12.1406C53.494 11.8398 53.3902 11.5158 53.3902 11.1685H54.6577C54.6756 11.4764 54.792 11.7145 55.0069 11.8828C55.2217 12.0475 55.5064 12.1299 55.8609 12.1299C56.2046 12.1299 56.466 12.0654 56.645 11.9365C56.8241 11.804 56.9136 11.6322 56.9136 11.4209ZM62.8162 11.4209C62.8162 11.1882 62.7195 11.0109 62.5262 10.8892C62.3364 10.7674 62.0195 10.66 61.5755 10.5669C61.1315 10.4738 60.7609 10.3556 60.4637 10.2124C59.812 9.8973 59.4861 9.44076 59.4861 8.84277C59.4861 8.34147 59.6974 7.92253 60.1199 7.58594C60.5424 7.24935 61.0796 7.08105 61.7313 7.08105C62.4259 7.08105 62.9863 7.25293 63.4124 7.59668C63.8421 7.94043 64.0569 8.38623 64.0569 8.93408H62.7518C62.7518 8.68343 62.6587 8.47575 62.4725 8.31104C62.2863 8.14274 62.0392 8.05859 61.7313 8.05859C61.4448 8.05859 61.2103 8.12484 61.0276 8.25732C60.8486 8.38981 60.7591 8.56706 60.7591 8.78906C60.7591 8.98958 60.8432 9.14535 61.0115 9.25635C61.1798 9.36735 61.52 9.48014 62.032 9.59473C62.5441 9.70573 62.9451 9.84001 63.2352 9.99756C63.5288 10.1515 63.7454 10.3377 63.8851 10.5562C64.0283 10.7746 64.0999 11.0396 64.0999 11.3511C64.0999 11.8739 63.8833 12.2982 63.45 12.624C63.0167 12.9463 62.4492 13.1074 61.7474 13.1074C61.2711 13.1074 60.8468 13.0215 60.4744 12.8496C60.102 12.6777 59.812 12.4414 59.6043 12.1406C59.3966 11.8398 59.2928 11.5158 59.2928 11.1685H60.5604C60.5783 11.4764 60.6946 11.7145 60.9095 11.8828C61.1243 12.0475 61.409 12.1299 61.7635 12.1299C62.1072 12.1299 62.3686 12.0654 62.5477 11.9365C62.7267 11.804 62.8162 11.6322 62.8162 11.4209Z" fill="#16C79A"/>
<rect x="0.996582" width="69" height="19" rx="5" fill="#16C79A" fill-opacity="0.15"/>
</svg>
