<svg width="18" height="18" viewBox="0 0 18 18" fill="none" xmlns="http://www.w3.org/2000/svg">
<path d="M3.58783 17.4632C3.59406 17.5143 3.6188 17.5614 3.65738 17.5956C3.69595 17.6297 3.7457 17.6486 3.79722 17.6486H6.10699C6.13995 17.6486 6.17246 17.6409 6.20191 17.626C6.23135 17.6112 6.25691 17.5897 6.27653 17.5632C6.29615 17.5367 6.30929 17.506 6.31489 17.4735C6.32049 17.441 6.3184 17.4077 6.30878 17.3761L6.02022 16.4297L6.91998 15.8609C7.03111 15.8001 7.16117 15.7835 7.28402 15.8146C7.28841 15.8157 7.29281 15.8166 7.29724 15.8174L9.21979 16.1714C9.75651 16.2675 10.3099 16.1894 10.799 15.9485C10.808 15.944 10.8166 15.939 10.8248 15.9333L14.1498 13.6503C14.1941 13.6199 14.2252 13.5737 14.2366 13.5212C14.248 13.4686 14.2389 13.4137 14.2111 13.3677C14.0812 13.1513 13.8728 12.9933 13.6294 12.9268C13.3859 12.8602 13.1262 12.8901 12.9042 13.0102L12.8949 13.0153C12.6421 12.7458 12.2353 12.6485 11.9213 12.8077L11.9166 12.8101L11.8216 12.8612C11.652 12.7296 11.447 12.6513 11.2327 12.6364C11.0185 12.6215 10.8046 12.6706 10.6183 12.7775L9.91367 13.1607H8.97215C8.77474 13.1604 8.57992 13.1158 8.40209 13.0301L8.27022 12.9663C7.88358 12.7782 7.4524 12.7007 7.02444 12.7425C6.59648 12.7843 6.18844 12.9437 5.84549 13.2031C5.84089 13.2066 5.83639 13.2101 5.83207 13.2141L5.51365 13.4976C5.41762 13.5828 5.30659 13.6495 5.18621 13.6942L5.02558 13.1672C5.0124 13.124 4.98567 13.0861 4.94933 13.0592C4.913 13.0323 4.86899 13.0178 4.82378 13.0178H3.28394C3.25408 13.0178 3.22457 13.0242 3.19734 13.0364C3.17012 13.0487 3.14581 13.0666 3.12602 13.0889C3.10622 13.1113 3.0914 13.1376 3.08253 13.1661C3.07366 13.1946 3.07094 13.2246 3.07455 13.2543L3.58783 17.4632ZM12.4976 13.2296L11.3259 13.8617L11.3189 13.8653C11.2894 13.7966 11.2533 13.731 11.2112 13.6693L12.114 13.1828C12.2273 13.1268 12.3771 13.151 12.4976 13.2296ZM10.8273 13.144C10.9112 13.0955 11.0048 13.0661 11.1013 13.0577C11.1979 13.0494 11.2951 13.0624 11.3861 13.0959L10.8988 13.3584C10.8242 13.3081 10.7439 13.2667 10.6597 13.235L10.8221 13.1467L10.8273 13.144ZM5.79417 13.8126L6.10593 13.5351C6.3868 13.3246 6.72026 13.1956 7.06967 13.1622C7.41908 13.1289 7.77092 13.1925 8.08653 13.3461L8.2184 13.4098C8.45353 13.5232 8.71113 13.5822 8.97215 13.5825H10.251C10.4083 13.5827 10.5616 13.633 10.6884 13.7261C10.8153 13.8191 10.9093 13.9501 10.9568 14.1002L10.1205 14.0623C9.77942 14.0469 9.43766 14.0627 9.09945 14.1095C9.07178 14.113 9.04509 14.122 9.02091 14.1359C8.99673 14.1498 8.97555 14.1684 8.9586 14.1906C8.94165 14.2127 8.92925 14.238 8.92214 14.265C8.91503 14.2919 8.91333 14.3201 8.91716 14.3477C8.92098 14.3753 8.93024 14.4019 8.94442 14.4259C8.95859 14.45 8.97738 14.4709 8.99972 14.4877C9.02205 14.5044 9.04747 14.5165 9.07452 14.5233C9.10157 14.5301 9.1297 14.5315 9.15729 14.5274C9.47003 14.4842 9.78605 14.4696 10.1014 14.4838L11.1923 14.533C11.1954 14.533 11.1986 14.5333 11.2018 14.5333C11.2577 14.5333 11.3114 14.511 11.351 14.4715C11.3905 14.4319 11.4127 14.3783 11.4127 14.3223C11.4127 14.3125 11.4122 14.3029 11.412 14.2931L11.5245 14.2339L13.1046 13.3814C13.2009 13.3293 13.3103 13.3067 13.4194 13.3162C13.5284 13.3258 13.6322 13.3671 13.718 13.4351L10.5987 15.5768C10.1941 15.7726 9.73799 15.8354 9.29556 15.7564L7.37986 15.4037C7.15289 15.3481 6.9133 15.3808 6.7095 15.4951C6.70619 15.497 6.70292 15.4989 6.69972 15.5009L5.89264 16.0111L5.30933 14.098C5.48793 14.0352 5.6526 13.9383 5.79417 13.8126ZM4.66758 13.4397L5.82215 17.2267H3.98401L3.52219 13.4397H4.66758Z" fill="#003761"/>
<path d="M4.62962 5.1082C4.79242 5.10814 4.95265 5.06749 5.09579 4.98994L5.10539 4.98473C5.18786 5.07308 5.28735 5.14382 5.39787 5.19273C5.50839 5.24163 5.62766 5.26767 5.7485 5.26929C5.8631 5.27004 5.97626 5.24373 6.07876 5.19247L6.08347 5.19001L6.17772 5.13925C6.34748 5.27103 6.5526 5.34933 6.76699 5.36419C6.98138 5.37904 7.19534 5.32978 7.38165 5.22267L8.08629 4.83947H9.02788C9.22528 4.83972 9.42011 4.88435 9.59793 4.97007L9.72981 5.03385C10.1165 5.22196 10.5476 5.29941 10.9756 5.25762C11.4035 5.21583 11.8116 5.05643 12.1545 4.79707C12.1591 4.79355 12.1636 4.79004 12.168 4.78607L12.4864 4.5026C12.5824 4.41736 12.6934 4.3507 12.8138 4.30601L12.9744 4.83293C12.9876 4.87617 13.0144 4.91403 13.0507 4.94093C13.087 4.96783 13.131 4.98235 13.1762 4.98234H14.7161C14.7459 4.98234 14.7754 4.97601 14.8026 4.96376C14.8298 4.95152 14.8541 4.93365 14.8739 4.91132C14.8937 4.88899 14.9085 4.86272 14.9174 4.83424C14.9263 4.80576 14.9291 4.77571 14.9255 4.74609L14.4122 0.537152C14.406 0.485975 14.3813 0.438837 14.3427 0.404643C14.3041 0.370449 14.2544 0.351567 14.2028 0.351563H11.893C11.8601 0.351558 11.8276 0.35928 11.7981 0.374109C11.7687 0.388939 11.7431 0.410463 11.7235 0.436955C11.7039 0.463446 11.6907 0.494168 11.6851 0.526655C11.6795 0.559142 11.6816 0.59249 11.6912 0.624023L11.9798 1.57043L11.0801 2.13922C10.9689 2.20014 10.8389 2.2167 10.716 2.18559C10.7116 2.1845 10.7072 2.18355 10.7028 2.18271L8.78024 1.82872C8.24352 1.73269 7.69017 1.81082 7.20102 2.05168C7.19206 2.05611 7.18344 2.06117 7.17521 2.06684L3.8502 4.34981C3.80588 4.38024 3.77486 4.42645 3.76346 4.47899C3.75206 4.53153 3.76116 4.58644 3.78889 4.6325C3.876 4.77766 3.99923 4.89778 4.14657 4.98115C4.29391 5.06451 4.46033 5.10829 4.62962 5.1082ZM5.50244 4.77053L6.67413 4.13842L6.68116 4.1349C6.71065 4.20355 6.7467 4.26918 6.78881 4.3309L5.88603 4.81732C5.77269 4.87343 5.62292 4.84921 5.50244 4.7707V4.77053ZM7.17272 4.85613C7.0888 4.90464 6.99525 4.93408 6.89868 4.94239C6.80212 4.9507 6.70491 4.93765 6.61394 4.90419L7.10124 4.64164C7.17588 4.6919 7.2561 4.7333 7.34031 4.76501L7.17788 4.85332L7.17272 4.85613ZM14.016 0.773438L14.4778 4.5605H13.3324L12.1779 0.773438H14.016ZM7.40134 2.42332C7.80589 2.22751 8.262 2.16465 8.70444 2.24374L10.6201 2.59646C10.8471 2.65202 11.0867 2.61935 11.2905 2.50506C11.2938 2.5032 11.2971 2.50126 11.3003 2.49926L12.1074 1.98904L12.6907 3.9022C12.5121 3.96499 12.3474 4.06195 12.2059 4.18767L11.8941 4.46541C11.6132 4.6759 11.2798 4.80491 10.9304 4.83825C10.5809 4.8716 10.2291 4.80798 9.9135 4.65441L9.78163 4.59063C9.5465 4.4773 9.28889 4.41828 9.02788 4.41795H7.74903C7.59168 4.41774 7.43848 4.36748 7.31159 4.27441C7.18471 4.18135 7.09074 4.05033 7.04327 3.9003L7.87953 3.93813C8.22061 3.9535 8.56237 3.9377 8.90058 3.89095C8.92825 3.88743 8.95494 3.87845 8.97912 3.86454C9.0033 3.85063 9.02448 3.83207 9.04143 3.80992C9.05838 3.78777 9.07078 3.76247 9.07789 3.7355C9.085 3.70853 9.0867 3.68042 9.08287 3.65279C9.07905 3.62516 9.06978 3.59856 9.05561 3.57454C9.04144 3.55051 9.02265 3.52953 9.00031 3.51282C8.97798 3.49611 8.95255 3.48399 8.92551 3.47717C8.89846 3.47035 8.87033 3.46896 8.84274 3.47309C8.53001 3.51631 8.21398 3.5309 7.89859 3.51668L6.80776 3.46746C6.77929 3.46617 6.75085 3.47067 6.72417 3.48068C6.69748 3.49068 6.6731 3.506 6.6525 3.52569C6.63189 3.54538 6.61549 3.56904 6.60428 3.59524C6.59308 3.62145 6.5873 3.64965 6.58729 3.67815C6.58729 3.68793 6.58779 3.69759 6.58803 3.70733L6.47553 3.76661L4.8954 4.61907C4.7991 4.6711 4.68965 4.69372 4.58062 4.68411C4.47159 4.67451 4.36778 4.6331 4.28206 4.56504L7.40134 2.42332Z" fill="#003761"/>
<path d="M11.8658 7.1834C10.8932 6.76492 9.97373 6.23252 9.12661 5.59736C9.0901 5.56998 9.04569 5.55518 9.00005 5.55518C8.95441 5.55518 8.91 5.56998 8.87348 5.59736C8.02636 6.23252 7.10687 6.76492 6.13429 7.1834L6.1159 7.19131C6.07801 7.2076 6.04573 7.23464 6.02305 7.26908C6.00037 7.30352 5.98828 7.34385 5.98828 7.38509V9.0099C5.98828 10.0691 6.494 10.9991 7.45078 11.6994C7.88937 12.0195 8.37585 12.2683 8.89219 12.4364C8.93021 12.4476 8.9706 12.4477 9.00873 12.437C9.54007 12.27 10.0424 12.0219 10.4978 11.7014C11.4882 11.0012 12.0117 10.0705 12.0117 9.00987V7.38509C12.0117 7.34385 11.9996 7.30352 11.9769 7.26908C11.9543 7.23464 11.922 7.2076 11.8841 7.19131L11.8658 7.1834ZM11.5899 9.0099C11.5899 9.93722 11.1438 10.7246 10.2641 11.3501C9.86091 11.6326 9.4193 11.8557 8.95273 12.0127C8.50186 11.8552 8.07649 11.6325 7.69016 11.3518C6.84089 10.7264 6.41026 9.93848 6.41026 9.00994V7.5235C7.32509 7.12043 8.19344 6.61921 9.00005 6.02866C9.80669 6.61922 10.6751 7.12043 11.5899 7.5235V9.0099Z" fill="#003761"/>
<path d="M8.14122 8.93558C8.12163 8.91599 8.09838 8.90045 8.07278 8.88985C8.04719 8.87925 8.01976 8.8738 7.99206 8.8738C7.96436 8.8738 7.93693 8.87926 7.91134 8.88986C7.88574 8.90047 7.86249 8.916 7.8429 8.93559C7.82332 8.95518 7.80778 8.97844 7.79718 9.00403C7.78658 9.02962 7.78113 9.05705 7.78113 9.08476C7.78113 9.11246 7.78659 9.13989 7.79719 9.16548C7.80779 9.19107 7.82333 9.21433 7.84292 9.23391L8.4584 9.84939C8.49796 9.88895 8.55161 9.91117 8.60755 9.91117C8.66349 9.91117 8.71714 9.88895 8.7567 9.84939L10.1571 8.44898C10.1967 8.40942 10.2189 8.35577 10.2189 8.29982C10.2189 8.24388 10.1967 8.19022 10.1571 8.15066C10.1176 8.1111 10.0639 8.08887 10.008 8.08887C9.95203 8.08886 9.89838 8.11109 9.85882 8.15064L8.60753 9.40192L8.14122 8.93558Z" fill="#003761"/>
</svg>
