<svg width="17" height="25" viewBox="0 0 17 25" fill="none" xmlns="http://www.w3.org/2000/svg">
<path d="M2.15757 8.93848C0.768983 10.4246 -0.00236417 12.3832 5.44353e-06 14.417C5.44353e-06 18.9362 3.423 22.4696 7.79276 22.4696H8.06097L7.34812 24.5156C7.32877 24.5709 7.32298 24.6301 7.33125 24.688C7.33964 24.746 7.36188 24.8011 7.39603 24.8486C7.43028 24.8962 7.4755 24.9347 7.52776 24.9611C7.58011 24.9874 7.63796 25.0007 7.69653 24.9999H16.3404C16.3988 25.0012 16.4568 24.9882 16.5091 24.9623C16.5615 24.9364 16.6069 24.8981 16.6414 24.8509C16.6755 24.8022 16.6977 24.7461 16.7059 24.6872C16.7141 24.6283 16.7083 24.5683 16.6888 24.5121L15.974 22.4696H16.264C16.3116 22.471 16.3591 22.4629 16.4035 22.4456C16.448 22.4283 16.4884 22.4023 16.5227 22.3691C16.5568 22.336 16.584 22.2963 16.6027 22.2524C16.6213 22.2085 16.6309 22.1613 16.6309 22.1136V21.0594C16.6318 20.9603 16.594 20.8649 16.5254 20.7935C16.4568 20.7221 16.3628 20.6804 16.2639 20.6773H14.0479V19.254H15.0514C15.099 19.2554 15.1465 19.2472 15.1909 19.2301C15.2354 19.2128 15.276 19.1868 15.3101 19.1536C15.3444 19.1204 15.3716 19.0807 15.3902 19.0368C15.4089 18.9929 15.4185 18.9457 15.4185 18.8981V17.5802C15.4194 17.4812 15.3815 17.3857 15.3129 17.3143C15.2442 17.2429 15.1504 17.2012 15.0514 17.1981H8.77838C8.67893 17.201 8.58456 17.2425 8.51534 17.3139C8.44611 17.3852 8.40731 17.4808 8.40741 17.5802V18.8981C8.40793 18.9459 8.41797 18.9932 8.4369 19.0372C8.45594 19.0811 8.48347 19.1209 8.51803 19.154C8.55259 19.1871 8.59346 19.2131 8.63816 19.2303C8.68287 19.2474 8.73047 19.2555 8.77838 19.254H9.77796V20.6773H7.79586C6.14458 20.6773 4.62152 20.0347 3.5075 18.856C2.40423 17.6887 1.79663 16.1171 1.79663 14.4247C1.79538 12.8413 2.39431 11.3163 3.47276 10.1569C4.5512 8.99755 6.029 8.29005 7.60836 8.17696L9.0558 11.9279C9.07318 11.9731 9.09936 12.0145 9.13278 12.0496C9.16621 12.0848 9.20615 12.113 9.25054 12.1327C9.29483 12.1523 9.34253 12.163 9.39106 12.1642C9.43949 12.1655 9.48771 12.1571 9.53293 12.1396L9.60008 12.1137L9.72136 12.4276C9.77889 12.5688 9.86768 12.6954 9.98088 12.7975C10.0942 12.8998 10.2291 12.9751 10.3755 13.0179C10.3779 13.0188 10.3805 13.0193 10.383 13.02C10.3114 13.0732 10.2615 13.1505 10.2426 13.2376C10.2236 13.3246 10.2368 13.4157 10.2797 13.4938C10.3226 13.5719 10.3923 13.6319 10.476 13.6626C10.5596 13.6933 10.6516 13.6927 10.7349 13.6608L12.2162 13.0891C12.2992 13.0567 12.3678 12.9954 12.4091 12.9164C12.4505 12.8375 12.4618 12.7462 12.441 12.6595C12.4203 12.5728 12.3689 12.4965 12.2964 12.4448C12.2237 12.393 12.1349 12.3693 12.0462 12.378C12.0474 12.3759 12.0491 12.3738 12.0504 12.3715C12.13 12.2414 12.1793 12.0949 12.1945 11.9431C12.2097 11.7913 12.1903 11.638 12.1381 11.4946L12.0168 11.1806L12.0839 11.1546C12.1752 11.1194 12.2488 11.0494 12.2884 10.9599C12.328 10.8704 12.3305 10.7689 12.2952 10.6775L9.56987 3.61612L10.0484 3.43162C10.0937 3.41416 10.135 3.38798 10.17 3.35456C10.2051 3.32115 10.2333 3.28114 10.2529 3.23684C10.2726 3.19253 10.2832 3.14479 10.2845 3.09635C10.2856 3.04791 10.2772 2.9997 10.2597 2.9545L9.79907 1.7613C9.76379 1.67 9.69373 1.59645 9.60422 1.55682C9.51482 1.51719 9.41321 1.51471 9.32194 1.54996L8.85681 1.72951L8.99671 0.407842C9.00344 0.34497 8.99381 0.281445 8.96888 0.223364C8.94394 0.165282 8.90441 0.114578 8.85422 0.0761224C8.80404 0.0376673 8.74485 0.012748 8.68225 0.00375381C8.61975 -0.0052404 8.5559 0.00199259 8.49692 0.0247585L4.71198 1.48585C4.65301 1.50862 4.60086 1.54616 4.56057 1.59487C4.52026 1.64356 4.49315 1.70181 4.48183 1.764C4.4705 1.8262 4.47535 1.89025 4.4959 1.95004C4.51645 2.00982 4.552 2.06333 4.59917 2.10542L5.59036 2.99023L5.12521 3.16978C5.08 3.18723 5.03867 3.21341 5.00358 3.24683C4.9685 3.28025 4.94033 3.32026 4.9207 3.36457C4.90107 3.40887 4.89036 3.45661 4.88918 3.50505C4.888 3.5535 4.89637 3.60169 4.91383 3.6469L5.37439 4.8401C5.39184 4.88531 5.41802 4.92664 5.45149 4.96173C5.48481 4.99682 5.52486 5.02499 5.56915 5.04462C5.61344 5.06425 5.66124 5.07496 5.70967 5.07614C5.7581 5.07731 5.80632 5.06894 5.85154 5.05149L6.33032 4.86668L6.94001 6.44632C5.10605 6.70024 3.41635 7.58074 2.15757 8.93848ZM15.8201 24.2619H8.21639L8.84274 22.4696H15.1921L15.8201 24.2619ZM9.14541 17.9361H14.6805V18.516H9.14541V17.9361ZM10.516 19.254H13.3098V20.6773H10.516V19.254ZM3.0377 9.54514C1.765 10.8514 1.05456 12.6042 1.05863 14.4279C1.05863 16.3096 1.73786 18.058 2.97112 19.3628C4.226 20.6906 5.93949 21.4153 7.79586 21.4153H15.8929V21.7316H7.79276C5.85857 21.7316 4.06996 20.9785 2.75658 19.5991C1.45488 18.2318 0.738012 16.3948 0.738012 14.4203C0.738933 12.6263 1.39879 10.8951 2.59225 9.55559C3.78571 8.21609 5.42966 7.36164 7.21163 7.15455L7.32991 7.4603C5.69777 7.62611 4.17706 8.36473 3.0377 9.54514ZM11.4494 11.7606C11.461 11.8007 11.4637 11.8431 11.4573 11.8843C11.451 11.9257 11.4357 11.9652 11.4125 12C11.3374 12.1196 11.2246 12.2108 11.0919 12.2593L11.0096 12.2909C10.8789 12.3441 10.7341 12.3524 10.5981 12.3143C10.5575 12.3039 10.5197 12.2849 10.4871 12.2585C10.4546 12.2321 10.4282 12.199 10.4098 12.1614L10.2886 11.8475L11.328 11.4462L11.4494 11.7606ZM5.54069 1.95687L8.19901 0.930721L8.08301 2.02813L6.36457 2.69161L5.54069 1.95687ZM5.73523 3.7254L8.56397 2.63351L8.5678 2.63203L9.24319 2.37131L9.43804 2.87595L8.96298 3.05929C8.96184 3.05977 8.9606 3.06002 8.95946 3.06045C8.95832 3.06087 8.95729 3.0615 8.95615 3.06193L5.92976 4.23024L5.73523 3.7254ZM8.88102 3.88201L11.4738 10.5992L9.68183 11.2911L9.67862 11.2921C9.67769 11.2926 9.67676 11.2931 9.67562 11.2935L9.61157 11.3182L7.01875 4.60089L8.88102 3.88201Z" fill="#FD8C04"/>
</svg>
