<svg width="25" height="25" viewBox="0 0 25 25" fill="none" xmlns="http://www.w3.org/2000/svg">
<path d="M13.2189 14.6786C13.3958 14.6786 13.5406 14.5338 13.5406 14.3568V14.2072C13.5406 14.0303 13.3958 13.8855 13.2189 13.8855H7.8459C7.66895 13.8855 7.52417 14.0303 7.52417 14.2072V14.3568C7.52417 14.5338 7.66895 14.6786 7.8459 14.6786H13.2189Z" fill="#0D7223"/>
<path d="M16.5923 8.04598C16.0871 7.54086 15.5 7.14513 14.8436 6.86683L14.8404 6.86522C14.6265 6.77513 14.3787 6.85235 14.2532 7.047L13.8801 7.62773C13.7867 7.59555 13.687 7.57625 13.5841 7.56821C13.5535 7.5666 13.5213 7.56499 13.4891 7.56499C13.4023 7.56499 13.317 7.57464 13.235 7.59234L13.8929 6.56601L14.0972 6.24749C14.2404 6.02389 14.176 5.72467 13.9508 5.5815L12.1925 4.45061C12.1121 4.39913 12.022 4.375 11.9319 4.375C11.7727 4.375 11.6166 4.45382 11.5249 4.597L8.46687 9.36509C8.32369 9.5887 8.38804 9.88791 8.61325 10.0311L8.94625 10.245L8.79503 10.4815L8.64382 10.718L8.54891 10.866C8.40574 11.0896 8.47008 11.3888 8.6953 11.532L8.98164 11.7153C9.20524 11.8585 9.50446 11.7942 9.64763 11.569L9.74254 11.421L9.89374 11.1845L10.045 10.948L10.3731 11.1588C10.4536 11.2102 10.5436 11.2343 10.6337 11.2343C10.793 11.2343 10.949 11.1555 11.0407 11.0124L12.2955 9.0546C12.3212 9.17042 12.363 9.27981 12.421 9.38116C12.4708 9.46964 12.5303 9.55168 12.5995 9.62407C12.8312 9.86859 13.1609 10.0198 13.5261 10.0085C14.1712 9.98924 14.6956 9.46481 14.7133 8.81974C14.7182 8.66209 14.6924 8.51087 14.6425 8.37092C14.9788 8.55431 15.2908 8.78756 15.5692 9.06586C16.3349 9.83159 16.7564 10.8483 16.7564 11.9309C16.7564 13.0136 16.3349 14.0302 15.5692 14.796C15.093 15.2721 14.5203 15.6148 13.8945 15.8062C13.8479 15.8207 13.7996 15.8271 13.7514 15.8271H12.1684C11.9014 15.8271 11.6858 15.6116 11.6858 15.3445V15.2367H9.38061V15.8271V16.5896V17.4084C9.43047 17.4052 9.48195 17.4036 9.5318 17.4036H12.7025H13.28H16.0357H16.4153H16.4523C17.0025 17.3054 17.4223 16.8245 17.4223 16.2453C17.4223 15.8882 17.2631 15.5681 17.0121 15.3525C17.321 14.9632 17.5768 14.5353 17.7714 14.0753C18.0577 13.3964 18.2041 12.6757 18.2041 11.9341C18.2041 11.1925 18.0594 10.4718 17.7714 9.79296C17.4931 9.13827 17.0974 8.5495 16.5923 8.04598ZM13.4891 9.22835C13.2848 9.22835 13.1143 9.09001 13.0645 8.90018C13.0548 8.86479 13.05 8.82619 13.05 8.78758C13.05 8.57041 13.2076 8.39024 13.4151 8.35485C13.4393 8.35002 13.465 8.34841 13.4908 8.34841C13.7337 8.34841 13.9299 8.54467 13.9299 8.78758C13.9299 9.03049 13.732 9.22835 13.4891 9.22835ZM16.4153 16.6202C16.3638 16.6443 16.3059 16.6572 16.2448 16.6572C16.0823 16.6572 15.9423 16.5639 15.8764 16.4271C15.849 16.3725 15.8346 16.3097 15.8346 16.2453C15.8346 16.0185 16.0179 15.8335 16.2464 15.8335C16.3075 15.8335 16.3654 15.8464 16.4169 15.8705C16.4443 15.8834 16.4716 15.8995 16.4957 15.9172C16.5939 15.9928 16.6582 16.1102 16.6582 16.2437C16.6566 16.4127 16.5569 16.5558 16.4153 16.6202Z" fill="#0D7223"/>
<path d="M9.38053 17.9731C8.32846 18.0503 7.5 18.9286 7.5 20H15.9326C16.1997 20 16.4152 19.7844 16.4152 19.5174V18.7436V17.9683H9.53175C9.48027 17.9683 9.4304 17.9699 9.38053 17.9731Z" fill="#0D7223"/>
<path d="M25 12.5C25 19.4036 19.4036 25 12.5 25C5.59644 25 0 19.4036 0 12.5C0 5.59644 5.59644 0 12.5 0C19.4036 0 25 5.59644 25 12.5ZM2.16158 12.5C2.16158 18.2097 6.79025 22.8384 12.5 22.8384C18.2097 22.8384 22.8384 18.2097 22.8384 12.5C22.8384 6.79025 18.2097 2.16158 12.5 2.16158C6.79025 2.16158 2.16158 6.79025 2.16158 12.5Z" fill="#0D7223"/>
</svg>
