<svg width="18" height="18" viewBox="0 0 18 18" fill="none" xmlns="http://www.w3.org/2000/svg">
<g clip-path="url(#clip0)">
<path d="M6.49023 0H11.4834V2.05089H6.49023V0Z" fill="#003761"/>
<path d="M8.98714 6.50337C9.45786 6.50337 9.83951 6.12172 9.83951 5.651C9.83951 5.18011 9.45786 4.79846 8.98714 4.79846C8.51641 4.79846 8.13477 5.18011 8.13477 5.651C8.13561 6.12138 8.51675 6.50236 8.98714 6.50337Z" fill="#003761"/>
<path d="M14.1228 1.36743H12.0891V2.35823C12.0896 2.43868 12.058 2.51609 12.0011 2.57289C11.9441 2.62985 11.8669 2.66162 11.7862 2.66111H6.18728C6.10682 2.66162 6.02941 2.62985 5.97262 2.57289C5.91566 2.51609 5.88388 2.43868 5.88439 2.35823V1.36743H3.85074C3.06243 1.36811 2.4237 2.007 2.42285 2.79532V16.5722C2.4237 17.3605 3.06243 17.9992 3.85074 18.0001H14.1228C14.9111 17.9992 15.55 17.3605 15.5507 16.5722V2.79532C15.55 2.007 14.9111 1.36811 14.1228 1.36743ZM8.98676 4.19717C9.79214 4.19717 10.4449 4.8501 10.4449 5.65531C10.4449 6.46069 9.79214 7.11345 8.98676 7.11345C8.18155 7.11345 7.52862 6.46069 7.52862 5.65531C7.52896 4.8501 8.18155 4.19751 8.98676 4.19717ZM6.95311 9.69236C6.95311 8.56922 7.86362 7.65871 8.98676 7.65871C10.1099 7.65871 11.0204 8.56922 11.0204 9.69236V10.0385C11.0204 10.2058 10.8849 10.3414 10.7175 10.3414C10.5504 10.3414 10.4146 10.2058 10.4146 10.0385V9.69236C10.4146 8.90371 9.77541 8.26448 8.98676 8.26448C8.19811 8.26448 7.55888 8.90371 7.55888 9.69236V10.0385C7.55888 10.2058 7.42332 10.3414 7.25599 10.3414C7.08883 10.3414 6.95311 10.2058 6.95311 10.0385V9.69236ZM12.6604 14.941H5.31327C5.14594 14.941 5.01039 14.8052 5.01039 14.6381C5.01039 14.4707 5.14594 14.3352 5.31327 14.3352H12.656C12.8234 14.334 12.9599 14.4685 12.9611 14.6359C12.9623 14.8032 12.8276 14.9398 12.6604 14.941ZM12.6604 12.3707H5.31327C5.14594 12.3707 5.01039 12.2351 5.01039 12.0678C5.01039 11.9006 5.14594 11.7649 5.31327 11.7649H12.656C12.8234 11.7637 12.9599 11.8984 12.9611 12.0657C12.9623 12.2329 12.8276 12.3695 12.6604 12.3707Z" fill="#003761"/>
</g>
<defs>
<clipPath id="clip0">
<rect width="18" height="18" fill="white"/>
</clipPath>
</defs>
</svg>
