<svg width="18" height="18" viewBox="0 0 18 18" fill="none" xmlns="http://www.w3.org/2000/svg">
<path d="M8.8518 8.37747C9.85893 8.37659 10.6744 7.55932 10.6734 6.55229C10.6726 5.54527 9.85529 4.72966 8.84815 4.73065C7.84124 4.73164 7.02562 5.5488 7.02661 6.55582C7.02981 7.56197 7.84565 8.37615 8.8518 8.37747ZM8.8518 5.43671C9.46982 5.43671 9.97091 5.93769 9.97091 6.55582C9.97091 7.17385 9.46982 7.67494 8.8518 7.67494C8.23366 7.67494 7.73268 7.17385 7.73268 6.55582C7.73279 5.9378 8.23388 5.43682 8.8518 5.43671Z" fill="#003761"/>
<path d="M6.40162 12.3067H11.3016C11.4966 12.3063 11.6541 12.1485 11.6547 11.9537C11.6547 11.1559 11.3653 10.4216 10.8357 9.88143C10.3119 9.35056 9.59735 9.05181 8.85168 9.05181C8.106 9.05181 7.39144 9.35056 6.86762 9.88143C6.33807 10.4216 6.04858 11.1559 6.04858 11.9537C6.04914 12.1485 6.20679 12.3063 6.40162 12.3067ZM7.37246 10.3757C7.76323 9.98039 8.29587 9.75787 8.85168 9.75787C9.40738 9.75787 9.94013 9.98039 10.3308 10.3757C10.6548 10.7099 10.8628 11.1393 10.924 11.6007H6.77937C6.83982 11.1391 7.04789 10.7093 7.37246 10.3757Z" fill="#003761"/>
<path d="M13.4412 1.76517H10.2639V0.917887C10.2634 0.723167 10.1056 0.565405 9.9109 0.564854H7.79269C7.59797 0.565405 7.44021 0.723167 7.43966 0.917887V1.76517H4.26236C3.28766 1.76561 2.49763 2.55563 2.49719 3.53033V15.6747C2.49763 16.6494 3.28766 17.4394 4.26236 17.4398H13.4412C14.4159 17.4394 15.206 16.6494 15.2064 15.6747V3.53033C15.206 2.55563 14.4159 1.76561 13.4412 1.76517ZM8.14573 1.27092H9.55786V2.68305H8.14573V1.27092ZM14.5003 15.6747C14.4987 16.2588 14.0254 16.7321 13.4412 16.7338H4.26236C3.6782 16.7321 3.20491 16.2588 3.20326 15.6747V3.53033C3.20491 2.94617 3.6782 2.47289 4.26236 2.47123H7.43966V3.03608C7.44021 3.2308 7.59797 3.38857 7.79269 3.38912H9.9109C10.1056 3.38857 10.2634 3.2308 10.2639 3.03608V2.47123H13.4412C14.0254 2.47289 14.4987 2.94617 14.5003 3.53033V15.6747Z" fill="#003761"/>
<path d="M12.6715 14.8274H5.03187C4.83693 14.8274 4.67883 14.9854 4.67883 15.1804C4.67883 15.3755 4.83693 15.5334 5.03187 15.5334H12.675C12.8701 15.5324 13.0273 15.3736 13.0263 15.1787C13.0253 14.9836 12.8664 14.8264 12.6715 14.8274Z" fill="#003761"/>
<path d="M6.797 13.2741C6.60206 13.2741 6.44397 13.432 6.44397 13.6271C6.44397 13.8222 6.60206 13.9801 6.797 13.9801H10.9098C11.1049 13.9801 11.2629 13.8222 11.2629 13.6271C11.2629 13.432 11.1049 13.2741 10.9098 13.2741H6.797Z" fill="#003761"/>
</svg>
