<svg width="19" height="18" viewBox="0 0 19 18" fill="none" xmlns="http://www.w3.org/2000/svg">
<g clip-path="url(#clip0)">
<path d="M17.3468 12.9336H1.45976C1.18696 12.9336 0.96582 13.1549 0.96582 13.4275C0.96582 13.7005 1.18696 13.9215 1.45976 13.9215H17.3468C17.6196 13.9215 17.8408 13.7005 17.8408 13.4275C17.8408 13.1549 17.6196 12.9336 17.3468 12.9336Z" fill="#19456B"/>
<path d="M14.0707 8.29028H1.36097C1.14274 8.29028 0.96582 8.51174 0.96582 8.78438C0.96582 9.05718 1.14274 9.27832 1.36097 9.27832H14.0707C14.2889 9.27832 14.4658 9.05718 14.4658 8.78438C14.4658 8.51174 14.2889 8.29028 14.0707 8.29028Z" fill="#19456B"/>
<path d="M17.3468 3.64722H1.45976C1.18696 3.64722 0.96582 3.86851 0.96582 4.14115C0.96582 4.41394 1.18696 4.63509 1.45976 4.63509H17.3468C17.6196 4.63509 17.8408 4.41394 17.8408 4.14115C17.8408 3.86851 17.6196 3.64722 17.3468 3.64722Z" fill="#19456B"/>
</g>
<defs>
<clipPath id="clip0">
<rect width="18" height="18" fill="white" transform="translate(0.411133)"/>
</clipPath>
</defs>
</svg>
