<svg width="11" height="25" viewBox="0 0 11 25" fill="none" xmlns="http://www.w3.org/2000/svg">
<path d="M8.03543 6.55127C8.03159 6.5551 8.02733 6.55852 8.02344 6.56194C7.80295 6.7735 7.55806 6.9585 7.29398 7.11622C6.68586 7.47946 5.97733 7.69227 5.21706 7.69227C4.37903 7.69227 3.60041 7.43803 2.95381 7.00298C2.75981 6.87223 2.57943 6.7235 2.41109 6.56194C2.40641 6.55726 2.40126 6.55337 2.39658 6.54869C2.38075 6.54785 2.3705 6.54185 2.35383 6.54185C1.52606 6.54185 0 7.7991 0 9.05593V16.5858C0 17.2662 0.670946 17.8179 1.49914 17.8179C1.54146 17.8179 1.58121 17.8106 1.62264 17.8076C1.62348 17.8794 1.63163 17.9495 1.64398 18.0179C1.632 18.0829 1.6209 18.1482 1.6209 18.2162V23.3974C1.6209 24.1055 2.2837 24.6794 3.1017 24.6794H3.32219C4.14013 24.6794 4.80293 24.1055 4.80293 23.3974V19.0705H5.63197V23.5042C5.63197 24.2123 6.28625 24.7863 7.09352 24.7863H7.31102C8.11829 24.7863 8.77257 24.2123 8.77257 23.5042V18.3226C8.77257 18.2662 8.7619 18.2123 8.75375 18.1576C8.78708 18.0482 8.80932 17.9341 8.81142 17.8145C9.6251 17.8008 10.2802 17.2568 10.2802 16.585V9.05557C10.2807 7.85126 8.88071 6.64958 8.03543 6.55127Z" fill="#02B0F0"/>
<path d="M2.94736 6.46369C3.56999 6.96366 4.35891 7.26496 5.21744 7.26496C6.07639 7.26496 6.86532 6.96366 7.48753 6.46369C8.31704 5.79747 8.84992 4.77649 8.84992 3.63248C8.84992 1.62947 7.2204 0 5.21744 0C3.21449 0 1.58496 1.62947 1.58496 3.63248C1.58496 4.77649 2.11785 5.79742 2.94736 6.46369Z" fill="#02B0F0"/>
</svg>
