<svg width="19" height="18" viewBox="0 0 19 18" fill="none" xmlns="http://www.w3.org/2000/svg">
<g clip-path="url(#clip0)">
<path d="M18.9869 0.65332C18.9786 0.588684 18.9644 0.526428 18.9407 0.468018C18.94 0.466553 18.94 0.464539 18.9396 0.462708C18.9396 0.462341 18.9393 0.461975 18.9389 0.461609C18.9129 0.400085 18.8774 0.344238 18.8373 0.292419C18.8274 0.280151 18.8177 0.268066 18.8073 0.256531C18.7644 0.208191 18.7179 0.163513 18.6639 0.127075C18.6624 0.125977 18.6606 0.12561 18.6591 0.124512C18.6069 0.0900879 18.5493 0.0640869 18.4888 0.0435791C18.4738 0.038269 18.4592 0.0336914 18.4438 0.0296631C18.3804 0.0124512 18.3152 0 18.2466 0H12.9966C12.5826 0 12.2466 0.335999 12.2466 0.75C12.2466 1.164 12.5826 1.5 12.9966 1.5H16.4357L11.9593 5.97638C10.7656 5.02167 9.29602 4.5 7.74658 4.5C4.02478 4.5 0.996582 7.5282 0.996582 11.25C0.996582 14.9718 4.02478 18 7.74658 18C11.4684 18 14.4966 14.9718 14.4966 11.25C14.4966 9.70129 13.9753 8.23206 13.0198 7.03729L17.4966 2.56055V6C17.4966 6.414 17.8326 6.75 18.2466 6.75C18.6606 6.75 18.9966 6.414 18.9966 6V0.75C18.9966 0.734253 18.9929 0.719238 18.992 0.703857C18.9909 0.686646 18.9891 0.670166 18.9869 0.65332ZM7.74658 16.5C4.8515 16.5 2.49658 14.1451 2.49658 11.25C2.49658 8.35492 4.8515 6 7.74658 6C9.14825 6 10.4679 6.54565 11.4601 7.53442C12.4509 8.52869 12.9966 9.84833 12.9966 11.25C12.9966 14.1451 10.6417 16.5 7.74658 16.5Z" fill="#35CAE6"/>
</g>
<defs>
<clipPath id="clip0">
<rect width="18" height="18" fill="white" transform="translate(0.996582)"/>
</clipPath>
</defs>
</svg>
