<svg width="33" height="33" viewBox="0 0 33 33" fill="none" xmlns="http://www.w3.org/2000/svg">
<g id="patient 1" clip-path="url(#clip0_629_8143)" filter="url(#filter0_d_629_8143)">
<g id="18-medical-record-folder" filter="url(#filter1_d_629_8143)">
<path id="Vector" d="M16.5 5.46875H20.4062V6.25H16.5V5.46875Z" fill="white"/>
<path id="Vector_2" d="M16.5 7.03125H20.4062V7.8125H16.5V7.03125Z" fill="white"/>
<path id="Vector_3" d="M16.5 8.59375H20.4062V9.375H16.5V8.59375Z" fill="white"/>
<path id="Vector_4" d="M16.5 10.1562H20.4062V10.9375H16.5V10.1562Z" fill="white"/>
<path id="Vector_5" d="M12.1531 6.17891C12.4392 6.27369 12.7483 6.27369 13.0344 6.17891C13.1037 6.42341 13.2506 6.63876 13.4529 6.7925C13.6553 6.94624 13.9021 7.03004 14.1562 7.03125H14.5469C14.6505 7.03125 14.7498 7.0724 14.8231 7.14566C14.8963 7.21892 14.9375 7.31827 14.9375 7.42188V8.59375H15.7188V7.42188C15.7188 7.11107 15.5953 6.813 15.3755 6.59323C15.1557 6.37347 14.8577 6.25 14.5469 6.25H14.1562C14.0526 6.25 13.9533 6.20884 13.88 6.13559C13.8068 6.06233 13.7656 5.96298 13.7656 5.85938V5.71016C14.0159 5.42817 14.1548 5.06456 14.1562 4.6875V3.90625C14.1562 3.49185 13.9916 3.09442 13.6986 2.8014C13.4056 2.50837 13.0082 2.34375 12.5938 2.34375C12.1793 2.34375 11.7819 2.50837 11.4889 2.8014C11.1959 3.09442 11.0312 3.49185 11.0312 3.90625V4.6875C11.0327 5.06456 11.1716 5.42817 11.4219 5.71016V5.85938C11.4219 5.96298 11.3807 6.06233 11.3075 6.13559C11.2342 6.20884 11.1349 6.25 11.0312 6.25H10.6406C10.3298 6.25 10.0318 6.37347 9.81198 6.59323C9.59221 6.813 9.46875 7.11107 9.46875 7.42188V8.59375H10.25V7.42188C10.25 7.31827 10.2912 7.21892 10.3644 7.14566C10.4377 7.0724 10.537 7.03125 10.6406 7.03125H11.0312C11.2854 7.03004 11.5322 6.94624 11.7346 6.7925C11.9369 6.63876 12.0838 6.42341 12.1531 6.17891ZM11.8125 3.90625C11.8125 3.69905 11.8948 3.50034 12.0413 3.35382C12.1878 3.20731 12.3865 3.125 12.5938 3.125C12.801 3.125 12.9997 3.20731 13.1462 3.35382C13.2927 3.50034 13.375 3.69905 13.375 3.90625V4.6875C13.375 4.8947 13.2927 5.09341 13.1462 5.23993C12.9997 5.38644 12.801 5.46875 12.5938 5.46875C12.3865 5.46875 12.1878 5.38644 12.0413 5.23993C11.8948 5.09341 11.8125 4.8947 11.8125 4.6875V3.90625Z" fill="white"/>
<path id="Vector_6" d="M16.8906 4.6875H20.0156C20.1192 4.6875 20.2186 4.64634 20.2918 4.57309C20.3651 4.49983 20.4062 4.40048 20.4062 4.29688V2.73438C20.4062 2.63077 20.3651 2.53142 20.2918 2.45816C20.2186 2.38491 20.1192 2.34375 20.0156 2.34375H16.8906C16.787 2.34375 16.6877 2.38491 16.6144 2.45816C16.5412 2.53142 16.5 2.63077 16.5 2.73438V4.29688C16.5 4.40048 16.5412 4.49983 16.6144 4.57309C16.6877 4.64634 16.787 4.6875 16.8906 4.6875ZM17.2812 3.125H19.625V3.90625H17.2812V3.125Z" fill="white"/>
<path id="Vector_7" d="M28.2188 10.9375C28.2181 10.3161 27.971 9.72031 27.5316 9.2809C27.0922 8.8415 26.4964 8.59437 25.875 8.59375H23.5312V2.73438C23.5312 2.63077 23.4901 2.53142 23.4168 2.45816C23.3436 2.38491 23.2442 2.34375 23.1406 2.34375H21.9688V1.17188C21.9688 1.06827 21.9276 0.968918 21.8543 0.895661C21.7811 0.822405 21.6817 0.78125 21.5781 0.78125H8.29688C8.19327 0.78125 8.09392 0.822405 8.02066 0.895661C7.94741 0.968918 7.90625 1.06827 7.90625 1.17188V9.76562H6.73438C6.21656 9.76624 5.72014 9.97222 5.35399 10.3384C4.98784 10.7045 4.78187 11.2009 4.78125 11.7188V22.2656C4.78187 22.7834 4.98784 23.2799 5.35399 23.646C5.72014 24.0122 6.21656 24.2181 6.73438 24.2188H23.1406C23.643 24.217 24.1255 24.0217 24.4876 23.6734C24.8497 23.3252 25.0638 22.8508 25.0852 22.3488L28.2047 11.0414C28.214 11.0076 28.2188 10.9726 28.2188 10.9375ZM22.75 3.125V11.7188H21.9688V3.125H22.75ZM8.6875 1.5625H21.1875V11.7188H13.5367L11.698 9.88008C11.6248 9.80682 11.5255 9.76565 11.4219 9.76562H8.6875V1.5625ZM24.3125 22.2656C24.3125 22.5764 24.189 22.8745 23.9693 23.0943C23.7495 23.314 23.4514 23.4375 23.1406 23.4375H6.73438C6.42357 23.4375 6.1255 23.314 5.90573 23.0943C5.68597 22.8745 5.5625 22.5764 5.5625 22.2656V11.7188C5.5625 11.4079 5.68597 11.1099 5.90573 10.8901C6.1255 10.6703 6.42357 10.5469 6.73438 10.5469H11.2602L13.0988 12.3855C13.1721 12.4588 13.2714 12.5 13.375 12.5H23.1406C23.4514 12.5 23.7495 12.6235 23.9693 12.8432C24.189 13.063 24.3125 13.3611 24.3125 13.6719V22.2656ZM25.0938 19.3809V13.6719C25.0932 13.2218 24.9375 12.7857 24.6528 12.437C24.3682 12.0884 23.9721 11.8485 23.5312 11.7578V9.375H25.875C26.2809 9.37479 26.6709 9.53253 26.9625 9.81483C27.2542 10.0971 27.4245 10.4818 27.4375 10.8875L25.0938 19.3809Z" fill="white"/>
<path id="Vector_8" d="M18.8438 16.0156H16.8906V14.0625C16.8906 13.9589 16.8495 13.8595 16.7762 13.7863C16.703 13.713 16.6036 13.6719 16.5 13.6719H13.375C13.2714 13.6719 13.172 13.713 13.0988 13.7863C13.0255 13.8595 12.9844 13.9589 12.9844 14.0625V16.0156H11.0312C10.9276 16.0156 10.8283 16.0568 10.755 16.13C10.6818 16.2033 10.6406 16.3026 10.6406 16.4062V19.5312C10.6406 19.6349 10.6818 19.7342 10.755 19.8075C10.8283 19.8807 10.9276 19.9219 11.0312 19.9219H12.9844V21.875C12.9844 21.9786 13.0255 22.078 13.0988 22.1512C13.172 22.2245 13.2714 22.2656 13.375 22.2656H16.5C16.6036 22.2656 16.703 22.2245 16.7762 22.1512C16.8495 22.078 16.8906 21.9786 16.8906 21.875V19.9219H18.8438C18.9474 19.9219 19.0467 19.8807 19.12 19.8075C19.1932 19.7342 19.2344 19.6349 19.2344 19.5312V16.4062C19.2344 16.3026 19.1932 16.2033 19.12 16.13C19.0467 16.0568 18.9474 16.0156 18.8438 16.0156ZM18.4531 19.1406H16.5C16.3964 19.1406 16.297 19.1818 16.2238 19.255C16.1505 19.3283 16.1094 19.4276 16.1094 19.5312V21.4844H13.7656V19.5312C13.7656 19.4276 13.7245 19.3283 13.6512 19.255C13.578 19.1818 13.4786 19.1406 13.375 19.1406H11.4219V16.7969H13.375C13.4786 16.7969 13.578 16.7557 13.6512 16.6825C13.7245 16.6092 13.7656 16.5099 13.7656 16.4062V14.4531H16.1094V16.4062C16.1094 16.5099 16.1505 16.6092 16.2238 16.6825C16.297 16.7557 16.3964 16.7969 16.5 16.7969H18.4531V19.1406Z" fill="white"/>
</g>
</g>
<defs>
<filter id="filter0_d_629_8143" x="0" y="0" width="33" height="33" filterUnits="userSpaceOnUse" color-interpolation-filters="sRGB">
<feFlood flood-opacity="0" result="BackgroundImageFix"/>
<feColorMatrix in="SourceAlpha" type="matrix" values="0 0 0 0 0 0 0 0 0 0 0 0 0 0 0 0 0 0 127 0" result="hardAlpha"/>
<feOffset dy="4"/>
<feGaussianBlur stdDeviation="2"/>
<feComposite in2="hardAlpha" operator="out"/>
<feColorMatrix type="matrix" values="0 0 0 0 0 0 0 0 0 0 0 0 0 0 0 0 0 0 0.25 0"/>
<feBlend mode="normal" in2="BackgroundImageFix" result="effect1_dropShadow_629_8143"/>
<feBlend mode="normal" in="SourceGraphic" in2="effect1_dropShadow_629_8143" result="shape"/>
</filter>
<filter id="filter1_d_629_8143" x="3.78125" y="0.78125" width="25.4375" height="25.4375" filterUnits="userSpaceOnUse" color-interpolation-filters="sRGB">
<feFlood flood-opacity="0" result="BackgroundImageFix"/>
<feColorMatrix in="SourceAlpha" type="matrix" values="0 0 0 0 0 0 0 0 0 0 0 0 0 0 0 0 0 0 127 0" result="hardAlpha"/>
<feOffset dy="1"/>
<feGaussianBlur stdDeviation="0.5"/>
<feComposite in2="hardAlpha" operator="out"/>
<feColorMatrix type="matrix" values="0 0 0 0 0 0 0 0 0 0 0 0 0 0 0 0 0 0 0.25 0"/>
<feBlend mode="normal" in2="BackgroundImageFix" result="effect1_dropShadow_629_8143"/>
<feBlend mode="normal" in="SourceGraphic" in2="effect1_dropShadow_629_8143" result="shape"/>
</filter>
<clipPath id="clip0_629_8143">
<rect width="25" height="25" fill="white" transform="translate(4)"/>
</clipPath>
</defs>
</svg>
