<svg width="25" height="25" viewBox="0 0 25 25" fill="none" xmlns="http://www.w3.org/2000/svg">
<g filter="url(#filter0_d_620_4241)">
<path d="M12.5 5.46875H16.4062V6.25H12.5V5.46875Z" fill="white"/>
<path d="M12.5 7.03125H16.4062V7.8125H12.5V7.03125Z" fill="white"/>
<path d="M12.5 8.59375H16.4062V9.375H12.5V8.59375Z" fill="white"/>
<path d="M12.5 10.1562H16.4062V10.9375H12.5V10.1562Z" fill="white"/>
<path d="M8.15312 6.17891C8.43923 6.27369 8.74827 6.27369 9.03438 6.17891C9.10367 6.42341 9.25056 6.63876 9.45292 6.7925C9.65527 6.94624 9.90212 7.03004 10.1562 7.03125H10.5469C10.6505 7.03125 10.7498 7.0724 10.8231 7.14566C10.8963 7.21892 10.9375 7.31827 10.9375 7.42188V8.59375H11.7188V7.42188C11.7188 7.11107 11.5953 6.813 11.3755 6.59323C11.1557 6.37347 10.8577 6.25 10.5469 6.25H10.1562C10.0526 6.25 9.95329 6.20884 9.88004 6.13559C9.80678 6.06233 9.76562 5.96298 9.76562 5.85938V5.71016C10.0159 5.42817 10.1548 5.06456 10.1562 4.6875V3.90625C10.1562 3.49185 9.99163 3.09442 9.6986 2.8014C9.40558 2.50837 9.00815 2.34375 8.59375 2.34375C8.17935 2.34375 7.78192 2.50837 7.4889 2.8014C7.19587 3.09442 7.03125 3.49185 7.03125 3.90625V4.6875C7.03267 5.06456 7.17155 5.42817 7.42188 5.71016V5.85938C7.42188 5.96298 7.38072 6.06233 7.30746 6.13559C7.23421 6.20884 7.13485 6.25 7.03125 6.25H6.64062C6.32982 6.25 6.03175 6.37347 5.81198 6.59323C5.59221 6.813 5.46875 7.11107 5.46875 7.42188V8.59375H6.25V7.42188C6.25 7.31827 6.29115 7.21892 6.36441 7.14566C6.43767 7.0724 6.53702 7.03125 6.64062 7.03125H7.03125C7.28538 7.03004 7.53223 6.94624 7.73458 6.7925C7.93694 6.63876 8.08383 6.42341 8.15312 6.17891ZM7.8125 3.90625C7.8125 3.69905 7.89481 3.50034 8.04132 3.35382C8.18784 3.20731 8.38655 3.125 8.59375 3.125C8.80095 3.125 8.99966 3.20731 9.14618 3.35382C9.29269 3.50034 9.375 3.69905 9.375 3.90625V4.6875C9.375 4.8947 9.29269 5.09341 9.14618 5.23993C8.99966 5.38644 8.80095 5.46875 8.59375 5.46875C8.38655 5.46875 8.18784 5.38644 8.04132 5.23993C7.89481 5.09341 7.8125 4.8947 7.8125 4.6875V3.90625Z" fill="white"/>
<path d="M12.8906 4.6875H16.0156C16.1192 4.6875 16.2186 4.64634 16.2918 4.57309C16.3651 4.49983 16.4062 4.40048 16.4062 4.29688V2.73438C16.4062 2.63077 16.3651 2.53142 16.2918 2.45816C16.2186 2.38491 16.1192 2.34375 16.0156 2.34375H12.8906C12.787 2.34375 12.6877 2.38491 12.6144 2.45816C12.5412 2.53142 12.5 2.63077 12.5 2.73438V4.29688C12.5 4.40048 12.5412 4.49983 12.6144 4.57309C12.6877 4.64634 12.787 4.6875 12.8906 4.6875ZM13.2812 3.125H15.625V3.90625H13.2812V3.125Z" fill="white"/>
<path d="M24.2188 10.9375C24.2181 10.3161 23.971 9.72031 23.5316 9.2809C23.0922 8.8415 22.4964 8.59437 21.875 8.59375H19.5312V2.73438C19.5312 2.63077 19.4901 2.53142 19.4168 2.45816C19.3436 2.38491 19.2442 2.34375 19.1406 2.34375H17.9688V1.17188C17.9688 1.06827 17.9276 0.968918 17.8543 0.895661C17.7811 0.822405 17.6817 0.78125 17.5781 0.78125H4.29688C4.19327 0.78125 4.09392 0.822405 4.02066 0.895661C3.94741 0.968918 3.90625 1.06827 3.90625 1.17188V9.76562H2.73438C2.21656 9.76624 1.72014 9.97222 1.35399 10.3384C0.987845 10.7045 0.78187 11.2009 0.78125 11.7188V22.2656C0.78187 22.7834 0.987845 23.2799 1.35399 23.646C1.72014 24.0122 2.21656 24.2181 2.73438 24.2188H19.1406C19.643 24.217 20.1255 24.0217 20.4876 23.6734C20.8497 23.3252 21.0638 22.8508 21.0852 22.3488L24.2047 11.0414C24.214 11.0076 24.2188 10.9726 24.2188 10.9375ZM18.75 3.125V11.7188H17.9688V3.125H18.75ZM4.6875 1.5625H17.1875V11.7188H9.53672L7.69805 9.88008C7.62481 9.80682 7.52547 9.76565 7.42188 9.76562H4.6875V1.5625ZM20.3125 22.2656C20.3125 22.5764 20.189 22.8745 19.9693 23.0943C19.7495 23.314 19.4514 23.4375 19.1406 23.4375H2.73438C2.42357 23.4375 2.1255 23.314 1.90573 23.0943C1.68597 22.8745 1.5625 22.5764 1.5625 22.2656V11.7188C1.5625 11.4079 1.68597 11.1099 1.90573 10.8901C2.1255 10.6703 2.42357 10.5469 2.73438 10.5469H7.26016L9.09883 12.3855C9.17207 12.4588 9.27141 12.5 9.375 12.5H19.1406C19.4514 12.5 19.7495 12.6235 19.9693 12.8432C20.189 13.063 20.3125 13.3611 20.3125 13.6719V22.2656ZM21.0938 19.3809V13.6719C21.0932 13.2218 20.9375 12.7857 20.6528 12.437C20.3682 12.0884 19.9721 11.8485 19.5312 11.7578V9.375H21.875C22.2809 9.37479 22.6709 9.53253 22.9625 9.81483C23.2542 10.0971 23.4245 10.4818 23.4375 10.8875L21.0938 19.3809Z" fill="white"/>
<path d="M14.8438 16.0156H12.8906V14.0625C12.8906 13.9589 12.8495 13.8595 12.7762 13.7863C12.703 13.713 12.6036 13.6719 12.5 13.6719H9.375C9.2714 13.6719 9.17204 13.713 9.09879 13.7863C9.02553 13.8595 8.98438 13.9589 8.98438 14.0625V16.0156H7.03125C6.92765 16.0156 6.82829 16.0568 6.75504 16.13C6.68178 16.2033 6.64062 16.3026 6.64062 16.4062V19.5312C6.64062 19.6349 6.68178 19.7342 6.75504 19.8075C6.82829 19.8807 6.92765 19.9219 7.03125 19.9219H8.98438V21.875C8.98438 21.9786 9.02553 22.078 9.09879 22.1512C9.17204 22.2245 9.2714 22.2656 9.375 22.2656H12.5C12.6036 22.2656 12.703 22.2245 12.7762 22.1512C12.8495 22.078 12.8906 21.9786 12.8906 21.875V19.9219H14.8438C14.9474 19.9219 15.0467 19.8807 15.12 19.8075C15.1932 19.7342 15.2344 19.6349 15.2344 19.5312V16.4062C15.2344 16.3026 15.1932 16.2033 15.12 16.13C15.0467 16.0568 14.9474 16.0156 14.8438 16.0156ZM14.4531 19.1406H12.5C12.3964 19.1406 12.297 19.1818 12.2238 19.255C12.1505 19.3283 12.1094 19.4276 12.1094 19.5312V21.4844H9.76562V19.5312C9.76562 19.4276 9.72447 19.3283 9.65121 19.255C9.57796 19.1818 9.4786 19.1406 9.375 19.1406H7.42188V16.7969H9.375C9.4786 16.7969 9.57796 16.7557 9.65121 16.6825C9.72447 16.6092 9.76562 16.5099 9.76562 16.4062V14.4531H12.1094V16.4062C12.1094 16.5099 12.1505 16.6092 12.2238 16.6825C12.297 16.7557 12.3964 16.7969 12.5 16.7969H14.4531V19.1406Z" fill="white"/>
</g>
<defs>
<filter id="filter0_d_620_4241" x="-0.21875" y="0.78125" width="25.4375" height="25.4375" filterUnits="userSpaceOnUse" color-interpolation-filters="sRGB">
<feFlood flood-opacity="0" result="BackgroundImageFix"/>
<feColorMatrix in="SourceAlpha" type="matrix" values="0 0 0 0 0 0 0 0 0 0 0 0 0 0 0 0 0 0 127 0" result="hardAlpha"/>
<feOffset dy="1"/>
<feGaussianBlur stdDeviation="0.5"/>
<feComposite in2="hardAlpha" operator="out"/>
<feColorMatrix type="matrix" values="0 0 0 0 0 0 0 0 0 0 0 0 0 0 0 0 0 0 0.25 0"/>
<feBlend mode="normal" in2="BackgroundImageFix" result="effect1_dropShadow_620_4241"/>
<feBlend mode="normal" in="SourceGraphic" in2="effect1_dropShadow_620_4241" result="shape"/>
</filter>
</defs>
</svg>
