<svg width="20" height="20" viewBox="0 0 20 20" fill="none" xmlns="http://www.w3.org/2000/svg">
<path d="M9.99994 1.01411C9.49771 1.01411 9.08911 1.4227 9.08911 1.92493C9.08911 2.42715 9.49771 2.83575 9.99994 2.83575C10.5022 2.83575 10.9108 2.42715 10.9108 1.92493C10.9108 1.4227 10.5022 1.01411 9.99994 1.01411ZM9.99994 2.24977C9.8208 2.24977 9.67505 2.10403 9.67505 1.92489C9.67505 1.74575 9.8208 1.60001 9.99994 1.60001C10.1791 1.60001 10.3248 1.74575 10.3248 1.92489C10.3248 2.10403 10.1791 2.24977 9.99994 2.24977Z" fill="#C8CCCD"/>
<path d="M7.29907 3.20023C7.13728 3.20023 7.0061 3.33141 7.0061 3.4932V3.98203C7.0061 4.14383 7.13728 4.275 7.29907 4.275C7.46087 4.275 7.59204 4.14383 7.59204 3.98203V3.4932C7.59204 3.33141 7.46087 3.20023 7.29907 3.20023Z" fill="#C8CCCD"/>
<path d="M12.7009 3.20023C12.5391 3.20023 12.408 3.33141 12.408 3.4932V3.98203C12.408 4.14383 12.5391 4.275 12.7009 4.275C12.8627 4.275 12.9939 4.14383 12.9939 3.98203V3.4932C12.9939 3.33141 12.8627 3.20023 12.7009 3.20023Z" fill="#C8CCCD"/>
<path d="M10.8593 3.72746C10.7375 3.62094 10.5524 3.6334 10.4459 3.75519C10.3377 3.87894 10.1751 3.94996 9.99987 3.94996C9.8246 3.94996 9.66202 3.87898 9.55385 3.75519C9.44737 3.6334 9.26229 3.62094 9.14045 3.72746C9.01862 3.83398 9.00619 4.01902 9.11268 4.14086C9.33217 4.39195 9.65553 4.53594 9.99987 4.53594C10.3442 4.53594 10.6676 4.39191 10.8871 4.14086C10.9936 4.01902 10.9811 3.8339 10.8593 3.72746Z" fill="#C8CCCD"/>
<path d="M13.2294 11.7764H6.77075C6.60896 11.7764 6.47778 11.9076 6.47778 12.0694C6.47778 12.2312 6.60896 12.3623 6.77075 12.3623H13.2294C13.3912 12.3623 13.5224 12.2312 13.5224 12.0694C13.5224 11.9076 13.3912 11.7764 13.2294 11.7764Z" fill="#C8CCCD"/>
<path d="M13.2294 13.5448H6.77075C6.60896 13.5448 6.47778 13.676 6.47778 13.8378C6.47778 13.9997 6.60896 14.1308 6.77075 14.1308H13.2294C13.3912 14.1308 13.5224 13.9997 13.5224 13.8378C13.5224 13.676 13.3912 13.5448 13.2294 13.5448Z" fill="#C8CCCD"/>
<path d="M13.2294 15.3133H6.77075C6.60896 15.3133 6.47778 15.4445 6.47778 15.6063C6.47778 15.7681 6.60896 15.8993 6.77075 15.8993H13.2294C13.3912 15.8993 13.5224 15.7681 13.5224 15.6063C13.5224 15.4445 13.3912 15.3133 13.2294 15.3133Z" fill="#C8CCCD"/>
<path d="M11.6572 7.88189H10.9109V7.13564C10.9109 6.9738 10.7797 6.84267 10.6179 6.84267H9.38224C9.22044 6.84267 9.08927 6.9738 9.08927 7.13564V7.88189H8.34302C8.18122 7.88189 8.05005 8.01306 8.05005 8.17486V9.4106C8.05005 9.5724 8.18122 9.70357 8.34302 9.70357H9.08927V10.4498C9.08927 10.6116 9.22044 10.7428 9.38224 10.7428H10.6179C10.7797 10.7428 10.9109 10.6116 10.9109 10.4498V9.70357H11.6572C11.819 9.70357 11.9501 9.5724 11.9501 9.4106V8.17486C11.9501 8.01306 11.819 7.88189 11.6572 7.88189ZM11.3642 9.11763H10.6179C10.4562 9.11763 10.325 9.24876 10.325 9.4106V10.1568H9.67521V9.4106C9.67521 9.24876 9.54404 9.11763 9.38224 9.11763H8.63599V8.46783H9.38224C9.54404 8.46783 9.67521 8.33665 9.67521 8.17486V7.42861H10.325V8.17486C10.325 8.33665 10.4562 8.46783 10.6179 8.46783H11.3642V9.11763Z" fill="#C8CCCD"/>
<path d="M15.9657 3.07512H14.7141V2.61469C14.7141 2.12875 14.3187 1.7334 13.8328 1.7334H12.0052C11.8628 0.754414 11.0178 0 9.99999 0C8.98214 0 8.13718 0.754414 7.99476 1.7334H6.16718C5.68124 1.7334 5.28589 2.12875 5.28589 2.61469V3.07512H4.03425C3.09554 3.07512 2.33179 3.83883 2.33179 4.77754V18.2976C2.33179 19.2363 3.0955 20 4.03425 20H5.44089C5.60269 20 5.73386 19.8688 5.73386 19.707C5.73386 19.5452 5.60269 19.4141 5.44089 19.4141H4.03425C3.41862 19.4141 2.91772 18.9132 2.91772 18.2976V4.77754C2.91772 4.16191 3.41858 3.66105 4.03425 3.66105H5.28589V4.42066H4.03425C3.83745 4.42066 3.67737 4.58074 3.67737 4.77754V18.2976C3.67737 18.4944 3.83745 18.6545 4.03425 18.6545H15.9657C16.1625 18.6545 16.3226 18.4944 16.3226 18.2976V4.77754C16.3226 4.58074 16.1625 4.42066 15.9657 4.42066H14.7141V3.66105H15.9657C16.5814 3.66105 17.0823 4.16191 17.0823 4.77754V18.2976C17.0823 18.9132 16.5814 19.4141 15.9657 19.4141H6.61276C6.45097 19.4141 6.3198 19.5452 6.3198 19.707C6.3198 19.8688 6.45097 20 6.61276 20H15.9657C16.9044 20 17.6682 19.2363 17.6682 18.2976V4.77754C17.6682 3.83883 16.9045 3.07512 15.9657 3.07512ZM15.7367 5.00664V18.0685H4.26331V5.0066H5.28589V5.06926C5.28589 5.5552 5.68124 5.95055 6.16718 5.95055H11.8471C12.0089 5.95055 12.1401 5.81938 12.1401 5.65758C12.1401 5.49578 12.0089 5.36461 11.8471 5.36461H6.16718C6.00433 5.36461 5.87183 5.23211 5.87183 5.06926V2.61469C5.87183 2.45184 6.00433 2.31934 6.16718 2.31934H8.26663C8.42843 2.31934 8.5596 2.18816 8.5596 2.02637C8.55956 1.23211 9.20573 0.585938 9.99999 0.585938C10.7942 0.585938 11.4404 1.23211 11.4404 2.02637C11.4404 2.18816 11.5716 2.31934 11.7334 2.31934H13.8328C13.9957 2.31934 14.1282 2.45184 14.1282 2.61469V5.0693C14.1282 5.23215 13.9957 5.36465 13.8328 5.36465H13.019C12.8572 5.36465 12.726 5.49582 12.726 5.65762C12.726 5.81941 12.8572 5.95059 13.019 5.95059H13.8328C14.3187 5.95059 14.7141 5.55523 14.7141 5.0693V5.00664H15.7367Z" fill="#C8CCCD"/>
</svg>
