<svg width="18" height="18" viewBox="0 0 18 18" fill="none" xmlns="http://www.w3.org/2000/svg">
<g clip-path="url(#clip0_348_8202)">
<path d="M6.18579 8.75958L8.82892 10.5617C8.93193 10.6318 9.06726 10.6318 9.17027 10.5617L11.8143 8.75958C12.6291 8.20409 13.2693 6.99689 13.2693 6.01136V2.30314C13.2685 2.18759 13.2024 2.08251 13.0985 2.03189L9.13427 0.0853243C9.05015 0.0441497 8.95171 0.0441497 8.86759 0.0853243L4.9023 2.02628C4.79825 2.07676 4.73184 2.18183 4.73096 2.29753V6.01136C4.73096 6.99689 5.37101 8.20409 6.18579 8.75958ZM5.33544 2.48614L9.00012 0.693202L12.6648 2.49145V6.01136C12.6648 6.79087 12.1185 7.82068 11.4738 8.26017L9.001 9.94597L6.52684 8.26017C5.88222 7.82068 5.33544 6.79087 5.33544 6.01136V2.48614Z" fill="#003761"/>
<path d="M7.0733 6.21914H8.16892V7.27699C8.16892 7.4439 8.30425 7.57923 8.47117 7.57923H9.52901C9.69592 7.57923 9.83125 7.4439 9.83125 7.27699V6.21914H10.8891C11.056 6.21914 11.1913 6.08381 11.1913 5.9169V4.82127C11.1913 4.65436 11.056 4.51903 10.8891 4.51903H9.83125V3.46118C9.83125 3.29427 9.69592 3.15894 9.52901 3.15894H8.47117C8.30425 3.15894 8.16892 3.29427 8.16892 3.46118V4.51903H7.0733C6.90639 4.51903 6.77106 4.65436 6.77106 4.82127V5.9169C6.77106 6.08381 6.90639 6.21914 7.0733 6.21914ZM7.37554 5.12351H8.47117C8.63808 5.12351 8.77341 4.98818 8.77341 4.82127V3.76342H9.22677V4.82127C9.22677 4.98818 9.3621 5.12351 9.52901 5.12351H10.5869V5.61465H9.52901C9.3621 5.61465 9.22677 5.74998 9.22677 5.9169V6.97474H8.77341V5.9169C8.77341 5.74998 8.63808 5.61465 8.47117 5.61465H7.37554V5.12351Z" fill="#003761"/>
<path d="M12.8956 10.7492L12.7265 10.8849C11.8664 11.5711 11.387 12.6279 11.4375 13.7272L11.105 13.5689C10.9543 13.4972 10.774 13.5611 10.7021 13.7119L9.80985 15.5853C9.73813 15.7359 9.80218 15.9163 9.95285 15.9881L14.0641 17.9461C14.1364 17.9806 14.2195 17.985 14.2951 17.9582C14.3706 17.9315 14.4325 17.8757 14.4669 17.8032L15.3591 15.9299C15.4308 15.779 15.3669 15.5987 15.2163 15.527L15.1066 15.4749L14.9959 14.8435C14.9822 14.6192 15.0545 14.398 15.198 14.2249L17.3269 11.6486C17.3312 11.6434 17.3354 11.6381 17.3393 11.6326C17.7781 11.0199 18.0095 10.2829 17.9998 9.52935C17.9995 9.51504 17.9981 9.50072 17.9959 9.48656L17.1262 3.99839C17.1011 3.84048 16.9574 3.72935 16.7983 3.745C16.0746 3.8148 15.5334 4.44068 15.5688 5.16677L15.6231 7.39344C15.0278 7.45277 14.5067 7.81877 14.2492 8.3589L13.4354 10.0673C13.309 10.3322 13.1243 10.5654 12.8956 10.7492ZM14.0511 17.2703L10.4858 15.5723L11.118 14.2446L14.6834 15.9427L14.0511 17.2703ZM13.2737 11.2209C13.5736 10.9798 13.8153 10.6744 13.9812 10.3273L14.7949 8.61879C15.0077 8.17355 15.4896 7.92296 15.9763 8.00442L14.7868 10.5019C14.7397 10.5996 14.7484 10.7149 14.8097 10.8043C14.8709 10.8937 14.9754 10.9435 15.0834 10.9346C15.1915 10.9259 15.2865 10.8599 15.3326 10.7619L16.6701 7.95351C16.7418 7.80283 16.6777 7.62249 16.5271 7.55076C16.4313 7.50516 16.3315 7.46871 16.229 7.4417L16.1729 5.14847C16.1729 5.14582 16.1729 5.14316 16.1726 5.14065C16.1572 4.84313 16.3174 4.56406 16.5821 4.42755L17.3956 9.55946C17.3993 10.1728 17.2099 10.7717 16.8545 11.2715L14.7322 13.8398C14.4859 14.1368 14.3647 14.5178 14.3941 14.9024C14.395 14.9123 14.3962 14.9223 14.3979 14.9321L14.4372 15.1558L12.0753 14.031C11.9093 13.019 12.3029 11.9961 13.1047 11.3564L13.2737 11.2209Z" fill="#003761"/>
<path d="M0.673117 11.6486L2.80209 14.2247C2.94554 14.3978 3.01785 14.6191 3.00413 14.8434L2.89344 15.4747L2.78379 15.5268C2.63312 15.5985 2.56921 15.7789 2.64094 15.9297L3.53335 17.8032C3.56773 17.8755 3.62957 17.9313 3.70513 17.9582C3.78069 17.9849 3.86378 17.9806 3.93624 17.9461L8.04735 15.9881C8.19803 15.9163 8.26193 15.7359 8.19021 15.5853L7.29794 13.7119C7.22622 13.5611 7.04588 13.4972 6.8952 13.5689L6.5627 13.7272C6.61303 12.6281 6.13384 11.5713 5.27375 10.885L5.10462 10.7494C4.87587 10.5654 4.69125 10.3323 4.56478 10.0673L3.75103 8.3589C3.4935 7.81877 2.9724 7.45277 2.37707 7.39344L2.43137 5.16677C2.46679 4.44068 1.92562 3.8148 1.20189 3.745C1.0428 3.72935 0.899061 3.84048 0.873972 3.99839L0.00414124 9.48656C0.00177997 9.50058 0.00059934 9.51489 0.000304182 9.52921C-0.00958361 10.2829 0.22182 11.0199 0.660721 11.6326C0.664705 11.6381 0.668837 11.6434 0.673117 11.6486ZM7.51444 15.5723L3.94908 17.2703L3.31685 15.9427L6.88221 14.2446L7.51444 15.5723ZM1.4181 4.4274C1.68271 4.56406 1.84298 4.84298 1.82748 5.1405C1.82748 5.14316 1.82733 5.14582 1.82719 5.14833L1.77125 7.44155C1.66869 7.46871 1.56877 7.50516 1.473 7.55062C1.32232 7.62249 1.25842 7.80283 1.33014 7.95351L2.6675 10.7618C2.71369 10.8599 2.80873 10.9257 2.91676 10.9346C3.02479 10.9433 3.12913 10.8936 3.19037 10.8041C3.25177 10.7149 3.26047 10.5994 3.21325 10.5019L2.02391 8.00442C2.51062 7.92296 2.99247 8.17355 3.20528 8.61879L4.01903 10.3273C4.18491 10.6744 4.42664 10.9798 4.72652 11.2208L4.89565 11.3564C5.6973 11.9961 6.09089 13.019 5.92487 14.031L3.56301 15.1558L3.60227 14.9321C3.60404 14.9223 3.60537 14.9123 3.6061 14.9024C3.63562 14.5178 3.51431 14.1368 3.26815 13.8398L1.14567 11.2715C0.790147 10.7717 0.600951 10.1726 0.604493 9.55946L1.4181 4.4274Z" fill="#003761"/>
</g>
<defs>
<clipPath id="clip0_348_8202">
<rect width="18" height="18" fill="white"/>
</clipPath>
</defs>
</svg>
