<svg width="27" height="27" viewBox="0 0 27 27" fill="none" xmlns="http://www.w3.org/2000/svg">
<path d="M20.1621 2.64776H15.3962V1.37684C15.3954 1.08476 15.1587 0.848117 14.8666 0.84729H11.6893C11.3973 0.848117 11.1606 1.08476 11.1598 1.37684V2.64776H6.39384C4.93179 2.64842 3.74676 3.83346 3.74609 5.29551V23.512C3.74676 24.9741 4.93179 26.1591 6.39384 26.1598H20.1621C21.6242 26.1591 22.8092 24.9741 22.8099 23.512V5.29551C22.8092 3.83346 21.6242 2.64842 20.1621 2.64776ZM12.2189 1.90639H14.3371V4.02459H12.2189V1.90639ZM21.7508 23.512C21.7483 24.3883 21.0384 25.0982 20.1621 25.1007H6.39384C5.5176 25.0982 4.80768 24.3883 4.80519 23.512V5.29551C4.80768 4.41927 5.5176 3.70934 6.39384 3.70686H11.1598V4.55414C11.1606 4.84622 11.3973 5.08286 11.6893 5.08369H14.8666C15.1587 5.08286 15.3954 4.84622 15.3962 4.55414V3.70686H20.1621C21.0384 3.70934 21.7483 4.41927 21.7508 5.29551V23.512Z" fill="#003761"/>
<path d="M19.0066 21.1613H7.54713C7.25472 21.1613 7.01758 21.3982 7.01758 21.6908C7.01758 21.9834 7.25472 22.2204 7.54713 22.2204H19.0119C19.3045 22.2189 19.5403 21.9806 19.5388 21.6882C19.5373 21.3956 19.299 21.1598 19.0066 21.1613Z" fill="#003761"/>
<path d="M10.1956 18.8309C9.90315 18.8309 9.66602 19.0679 9.66602 19.3605C9.66602 19.6531 9.90315 19.89 10.1956 19.89H16.3648C16.6574 19.89 16.8944 19.6531 16.8944 19.3605C16.8944 19.0679 16.6574 18.8309 16.3648 18.8309H10.1956Z" fill="#003761"/>
<path d="M10.2648 10.6769C10.2661 10.6769 10.2673 10.6769 10.2686 10.6769H11.7873V9.18757C11.7852 8.88719 12.0325 8.64202 12.3396 8.64001C12.3408 8.64001 12.3421 8.64001 12.3433 8.64001H14.5374C14.8445 8.64001 15.0934 8.88354 15.0934 9.18392V10.6733H16.6121C16.9192 10.6713 17.1698 10.9131 17.1719 11.2135C17.1719 11.216 17.1719 11.2184 17.1719 11.2208V13.3636C17.1719 13.664 16.9229 13.9075 16.6159 13.9075H15.0934V15.3933C15.0955 15.6936 14.8482 15.9388 14.5412 15.9408C14.5399 15.9408 14.5386 15.9408 14.5374 15.9408H12.347C12.04 15.9408 11.791 15.6973 11.791 15.3969V13.9075H10.2686C9.96151 13.9096 9.71089 13.6677 9.70883 13.3673C9.70883 13.3661 9.70883 13.3648 9.70883 13.3636V11.2208C9.70883 10.9205 9.95773 10.6769 10.2648 10.6769ZM10.4551 13.1775H12.1604C12.3665 13.1775 12.5336 13.3409 12.5336 13.5425V15.2107H14.3471V13.5425C14.3471 13.3409 14.5142 13.1775 14.7203 13.1775H16.4256V11.407H14.7203C14.5142 11.407 14.3471 11.2436 14.3471 11.042V9.37009H12.5373V11.0383C12.5373 11.2399 12.3702 11.4034 12.1642 11.4034H10.4551V13.1775Z" fill="#003761"/>
</svg>
