<svg width="18" height="18" viewBox="0 0 18 18" fill="none" xmlns="http://www.w3.org/2000/svg">
<path d="M14.4059 1.8H10.8002V1.5C10.7992 0.672 10.1282 0.000975 9.3002 0H8.7002C7.8722 0.000975 7.20117 0.672 7.2002 1.5V1.8H3.5945C3.10081 1.80049 2.70068 2.20061 2.7002 2.6943V17.1057C2.70068 17.5994 3.10081 17.9995 3.5945 18H14.4059C14.8996 17.9995 15.2997 17.5994 15.3002 17.1057V2.6943C15.2997 2.20061 14.8996 1.80049 14.4059 1.8ZM7.8002 1.5C7.8002 1.00294 8.20313 0.6 8.7002 0.6H9.3002C9.79726 0.6 10.2002 1.00294 10.2002 1.5V1.8H7.8002V1.5ZM11.3459 2.4C11.2191 2.75861 10.8806 2.9988 10.5002 3H7.5002C7.12017 2.99843 6.78207 2.75831 6.6554 2.4H11.3459ZM14.7002 17.1057C14.7 17.2682 14.5683 17.3999 14.4059 17.4H3.5945C3.43201 17.3999 3.30035 17.2682 3.3002 17.1057V2.6943C3.30035 2.53181 3.43205 2.40015 3.5945 2.4H6.0302C6.17371 3.09791 6.78766 3.5991 7.5002 3.6H10.5002C11.2127 3.5991 11.8267 3.09791 11.9702 2.4H14.4062C14.5686 2.40015 14.7003 2.53185 14.7005 2.6943L14.7002 17.1057Z" fill="#003761"/>
<path d="M10.1704 5.26591C10.0965 5.11764 9.91633 5.05734 9.76805 5.13125C9.69662 5.16684 9.64235 5.22946 9.61719 5.30517L9.02409 7.08507L8.69019 5.91747C8.64452 5.75821 8.47835 5.66615 8.31909 5.71182C8.24619 5.73275 8.1839 5.78049 8.14479 5.84547L7.70199 6.58347L7.50009 4.76697C7.48198 4.60227 7.33378 4.48344 7.16912 4.50155C7.05257 4.51437 6.95417 4.59391 6.91719 4.70517L5.96679 7.55517L5.37759 6.18057C5.32974 6.07025 5.22065 5.99919 5.10039 5.99997H3.90039V6.59997H4.90269L5.72469 8.51817C5.77198 8.6285 5.88039 8.70001 6.00039 8.70001H6.01299C6.13742 8.6948 6.24572 8.61327 6.28509 8.49511L7.05309 6.19111L7.20309 7.53331C7.22135 7.69797 7.36963 7.8167 7.53433 7.79844C7.62733 7.78812 7.7102 7.73502 7.75839 7.65481L8.30289 6.74761L8.71299 8.18281C8.74914 8.3093 8.86348 8.3975 8.99499 8.40031C9.12605 8.40177 9.24335 8.31905 9.28599 8.19511L9.95679 6.18211L10.2328 6.73441C10.2836 6.83574 10.3871 6.89979 10.5004 6.90001H14.1004V6.30001H10.6858L10.1704 5.26591Z" fill="#003761"/>
<path d="M14.1004 10.5H3.90039V11.1H14.1004V10.5Z" fill="#003761"/>
<path d="M14.1004 11.7H3.90039V12.3H14.1004V11.7Z" fill="#003761"/>
<path d="M14.1004 12.9H3.90039V13.5H14.1004V12.9Z" fill="#003761"/>
<path d="M14.1004 14.1H3.90039V14.7H14.1004V14.1Z" fill="#003761"/>
<path d="M14.1004 15.3H3.90039V15.9H14.1004V15.3Z" fill="#003761"/>
</svg>
