<svg width="25" height="25" viewBox="0 0 25 25" fill="none" xmlns="http://www.w3.org/2000/svg">
<path d="M7.292 3.125H3.64616C3.36989 3.125 3.10494 3.23475 2.90959 3.4301C2.71424 3.62545 2.60449 3.8904 2.60449 4.16667V7.8125C2.60449 8.08876 2.71424 8.35372 2.90959 8.54907C3.10494 8.74442 3.36989 8.85416 3.64616 8.85416H7.292C7.56827 8.85416 7.83322 8.74442 8.02857 8.54907C8.22392 8.35372 8.33367 8.08876 8.33367 7.8125V4.16667C8.33367 3.8904 8.22392 3.62545 8.02857 3.4301C7.83322 3.23475 7.56827 3.125 7.292 3.125ZM7.292 7.8125H3.64616V4.16667H7.292V7.8125Z" fill="#ED7172"/>
<path d="M21.3542 3.125H10.4167C10.1404 3.125 9.87545 3.23475 9.6801 3.4301C9.48475 3.62545 9.375 3.8904 9.375 4.16667V7.8125C9.375 8.08876 9.48475 8.35372 9.6801 8.54907C9.87545 8.74442 10.1404 8.85416 10.4167 8.85416H21.3542C21.6304 8.85416 21.8954 8.74442 22.0907 8.54907C22.2861 8.35372 22.3958 8.08876 22.3958 7.8125V4.16667C22.3958 3.8904 22.2861 3.62545 22.0907 3.4301C21.8954 3.23475 21.6304 3.125 21.3542 3.125ZM21.3542 7.8125H10.4167V4.16667H21.3542V7.8125Z" fill="#ED7172"/>
<path d="M7.292 9.89583H3.64616C3.36989 9.89583 3.10494 10.0056 2.90959 10.2009C2.71424 10.3963 2.60449 10.6612 2.60449 10.9375V14.5833C2.60449 14.8596 2.71424 15.1246 2.90959 15.3199C3.10494 15.5153 3.36989 15.625 3.64616 15.625H7.292C7.56827 15.625 7.83322 15.5153 8.02857 15.3199C8.22392 15.1246 8.33367 14.8596 8.33367 14.5833V10.9375C8.33367 10.6612 8.22392 10.3963 8.02857 10.2009C7.83322 10.0056 7.56827 9.89583 7.292 9.89583ZM7.292 14.5833H3.64616V10.9375H7.292V14.5833Z" fill="#ED7172"/>
<path d="M21.3542 9.89583H10.4167C10.1404 9.89583 9.87545 10.0056 9.6801 10.2009C9.48475 10.3963 9.375 10.6612 9.375 10.9375V14.5833C9.375 14.8596 9.48475 15.1246 9.6801 15.3199C9.87545 15.5153 10.1404 15.625 10.4167 15.625H21.3542C21.6304 15.625 21.8954 15.5153 22.0907 15.3199C22.2861 15.1246 22.3958 14.8596 22.3958 14.5833V10.9375C22.3958 10.6612 22.2861 10.3963 22.0907 10.2009C21.8954 10.0056 21.6304 9.89583 21.3542 9.89583ZM21.3542 14.5833H10.4167V10.9375H21.3542V14.5833Z" fill="#ED7172"/>
<path d="M7.292 16.6667H3.64616C3.36989 16.6667 3.10494 16.7764 2.90959 16.9718C2.71424 17.1671 2.60449 17.4321 2.60449 17.7083V21.3542C2.60449 21.6304 2.71424 21.8954 2.90959 22.0907C3.10494 22.2861 3.36989 22.3958 3.64616 22.3958H7.292C7.56827 22.3958 7.83322 22.2861 8.02857 22.0907C8.22392 21.8954 8.33367 21.6304 8.33367 21.3542V17.7083C8.33367 17.4321 8.22392 17.1671 8.02857 16.9718C7.83322 16.7764 7.56827 16.6667 7.292 16.6667ZM7.292 21.3542H3.64616V17.7083H7.292V21.3542Z" fill="#ED7172"/>
<path d="M21.3542 16.6667H10.4167C10.1404 16.6667 9.87545 16.7764 9.6801 16.9718C9.48475 17.1671 9.375 17.4321 9.375 17.7083V21.3542C9.375 21.6304 9.48475 21.8954 9.6801 22.0907C9.87545 22.2861 10.1404 22.3958 10.4167 22.3958H21.3542C21.6304 22.3958 21.8954 22.2861 22.0907 22.0907C22.2861 21.8954 22.3958 21.6304 22.3958 21.3542V17.7083C22.3958 17.4321 22.2861 17.1671 22.0907 16.9718C21.8954 16.7764 21.6304 16.6667 21.3542 16.6667ZM21.3542 21.3542H10.4167V17.7083H21.3542V21.3542Z" fill="#ED7172"/>
</svg>
