<svg width="18" height="18" viewBox="0 0 18 18" fill="none" xmlns="http://www.w3.org/2000/svg">
<rect width="18" height="18" rx="9" fill="#A9A9A9"/>
<g clip-path="url(#clip0_1395_3395)">
<path d="M13.0898 8.99994C13.0898 9.3954 12.7693 9.71589 12.3737 9.71589H9.71486V12.3748C9.71486 12.7704 9.39427 13.0909 8.99886 13.0908C8.80112 13.0908 8.62214 13.0107 8.49269 12.8812C8.36309 12.7515 8.28297 12.5726 8.28306 12.375L8.28295 9.71578H5.62383C5.42622 9.71578 5.24738 9.63577 5.11766 9.50605C4.98827 9.37666 4.9082 9.19768 4.9082 8.99994C4.9081 8.60455 5.22858 8.284 5.6242 8.284H8.28306V5.62504C8.28306 5.22953 8.60372 4.90894 8.99916 4.90894C9.39446 4.90904 9.71484 5.22931 9.71506 5.62477V8.284H12.3742C12.7695 8.28421 13.0896 8.60455 13.0898 8.99994Z" fill="white"/>
</g>
<defs>
<clipPath id="clip0_1395_3395">
<rect x="4.90527" y="4.90894" width="8.18182" height="8.18182" rx="4.09091" fill="white"/>
</clipPath>
</defs>
</svg>
