<svg width="18" height="18" viewBox="0 0 18 18" fill="none" xmlns="http://www.w3.org/2000/svg">
<path d="M13.627 2.31614C13.627 1.33514 12.8319 0.540039 11.8509 0.540039H5.70005C4.71906 0.540039 3.92383 1.33514 3.92383 2.31614V15.639C3.92383 16.62 4.71906 17.4151 5.70005 17.4151H11.8509C12.8319 17.4151 13.627 16.62 13.627 15.639V2.31614ZM4.76758 3.61973H12.7832V13.4494H4.76758V3.61973ZM5.69148 1.38379H11.8594C12.3735 1.38379 12.7832 1.81226 12.7832 2.32642V2.77598H4.76758V2.32642C4.76758 1.81226 5.17746 1.38379 5.69148 1.38379ZM11.8594 16.5713H5.69148C5.18471 16.575 4.77114 16.1668 4.76758 15.6601V14.2932H12.7832V15.6493C12.7857 16.156 12.377 16.5688 11.8702 16.5713H11.8594Z" fill="#003761"/>
<path d="M9.60046 15.0103H7.94922C7.71613 15.0103 7.52734 15.199 7.52734 15.4321C7.52734 15.6652 7.71613 15.854 7.94922 15.854H9.60046C9.83342 15.854 10.0223 15.6652 10.0223 15.4321C10.0223 15.199 9.83342 15.0103 9.60046 15.0103Z" fill="#003761"/>
</svg>
