<svg width="25" height="25" viewBox="0 0 25 25" fill="none" xmlns="http://www.w3.org/2000/svg">
    <circle cx="12.5" cy="12.5" r="12.5" fill="#003761"/>
    <path d="M9.19096 7.27478H8.41139V5.71565C8.41139 5.57209 8.29505 5.45575 8.1515 5.45575C8.00794 5.45575 7.8916 5.57209 7.8916 5.71565V7.53467C7.8916 7.67822 8.00794 7.79457 8.1515 7.79457H9.19096C9.33439 7.79457 9.45073 7.67822 9.45073 7.53467C9.45073 7.39112 9.33439 7.27478 9.19096 7.27478Z" fill="white"/>
    <path d="M19.8454 6.75507H19.7129C19.6854 6.6767 19.6535 6.59991 19.6173 6.52505L19.7103 6.43253C19.9335 6.21 20.0006 5.87488 19.8805 5.58354C19.7604 5.29208 19.4767 5.10173 19.1615 5.101H19.1602C18.953 5.10076 18.7543 5.1836 18.6088 5.33103L18.5163 5.42403C18.4415 5.38787 18.3647 5.35594 18.2863 5.32836V5.19582C18.2863 4.76528 17.9373 4.41625 17.5067 4.41625C17.0762 4.41625 16.7272 4.76528 16.7272 5.19582V5.32836C16.6487 5.35594 16.572 5.38787 16.4971 5.42403L16.4046 5.33103C16.259 5.1836 16.0604 5.10076 15.8532 5.101H15.8519C15.5368 5.10173 15.2529 5.29208 15.1328 5.58354C15.0128 5.87488 15.0799 6.21 15.3031 6.43253L15.3961 6.52505C15.36 6.59991 15.328 6.6767 15.3005 6.75507H15.1679C14.7374 6.75507 14.3884 7.1041 14.3884 7.53463C14.3884 7.96517 14.7374 8.3142 15.1679 8.3142H15.301C15.3285 8.39257 15.3605 8.46936 15.3966 8.54422L15.3036 8.63674C15.0677 8.8687 15.0065 9.22547 15.1516 9.52285L14.1431 10.5309C13.786 10.2883 13.3681 10.1506 12.9367 10.1332H12.6953C12.2752 10.1514 11.8679 10.2843 11.5179 10.5176L10.5381 9.53785C11.6232 8.25155 11.5008 6.3382 10.2605 5.20065C9.02016 4.06299 7.10342 4.10617 5.91545 5.29825C4.72747 6.49046 4.69119 8.40732 5.83309 9.64367C6.97498 10.88 8.88883 10.9956 10.1714 9.90586L11.1525 10.8868C11.0234 11.084 10.9502 11.3129 10.941 11.5484C10.9382 11.6072 10.9369 11.6586 10.9349 11.7124C10.8198 11.6839 10.6994 11.6846 10.5847 11.7145C10.2223 11.8099 10.1823 12.2821 10.2696 12.708C10.402 13.0626 10.6871 13.3386 11.0458 13.4595C11.0064 13.8576 11.1772 14.2475 11.4964 14.4888C11.5296 14.5166 11.559 14.5444 11.5871 14.5723C11.4625 14.9404 11.2832 15.2877 11.0548 15.6023C10.3756 15.6556 9.73454 15.9373 9.2358 16.4013C8.83247 16.8813 8.63026 17.4985 8.67138 18.124C8.67138 19.956 12.4035 20.0079 12.8292 20.0079C13.2548 20.0079 16.9869 19.956 16.9869 18.124C17.0277 17.4988 16.8255 16.882 16.4225 16.4024C15.9238 15.9384 15.2827 15.6568 14.6035 15.6034C14.3719 15.286 14.1912 14.9346 14.068 14.5615C14.0927 14.5377 14.1176 14.5137 14.1459 14.4898C14.4691 14.245 14.6401 13.8486 14.5962 13.4455C14.9601 13.3291 15.2516 13.054 15.3886 12.6974C15.4801 12.2836 15.4429 11.8081 15.0611 11.7127C14.9449 11.6861 14.8241 11.6861 14.7078 11.7127C14.7059 11.6591 14.7046 11.6088 14.7015 11.5495C14.6924 11.3219 14.6235 11.1007 14.5017 10.9082L15.5188 9.89099C15.6228 9.94166 15.7368 9.96827 15.8524 9.96899H15.8538C16.0609 9.96936 16.2596 9.88651 16.4051 9.73897L16.4976 9.64597C16.5724 9.68177 16.6489 9.71345 16.7272 9.7409V9.87333C16.7272 10.3039 17.0762 10.653 17.5067 10.653C17.9373 10.653 18.2863 10.3039 18.2863 9.87333V9.7409C18.3647 9.71333 18.4415 9.6814 18.5163 9.64524L18.6088 9.73824C18.7523 9.88966 18.953 9.97311 19.1615 9.96827C19.4767 9.96754 19.7604 9.77706 19.8805 9.48573C20.0006 9.19439 19.9335 8.85927 19.7103 8.63674L19.6173 8.54422C19.6534 8.46936 19.6853 8.39257 19.7129 8.3142H19.8454C20.276 8.3142 20.625 7.96517 20.625 7.53463C20.625 7.1041 20.276 6.75507 19.8454 6.75507ZM5.55312 7.53463C5.55312 6.09946 6.71654 4.93604 8.15171 4.93604C9.58688 4.93604 10.7503 6.09946 10.7503 7.53463C10.7503 8.9698 9.58688 10.1332 8.15171 10.1332C6.71714 10.1317 5.55469 8.9692 5.55312 7.53463ZM10.7763 12.589C10.7498 12.4652 10.7444 12.3378 10.7602 12.2121C10.8225 12.2164 10.8828 12.2354 10.9364 12.2675C10.9457 12.4637 10.9709 12.6588 11.0118 12.8508C10.9125 12.7848 10.8315 12.6947 10.7763 12.589ZM13.6868 15.0298C13.7927 15.2614 13.9143 15.4856 14.0506 15.7007C13.6535 15.8209 13.2434 15.8929 12.8292 15.9151C12.4159 15.8925 12.0066 15.8206 11.6104 15.7005C11.744 15.4888 11.8635 15.2686 11.968 15.0412C12.1181 15.2302 12.3484 15.3373 12.5896 15.3305H13.0527C13.2993 15.3372 13.5343 15.2254 13.6846 15.0298H13.6868ZM12.8292 17.7851C12.2933 17.3728 11.8626 16.8396 11.572 16.2291C11.9814 16.3471 12.4035 16.4162 12.8292 16.4349C13.2548 16.4163 13.6766 16.3471 14.0859 16.2291C13.7956 16.8396 13.365 17.3728 12.8292 17.7851ZM16.4673 18.123C16.4673 19.2362 13.773 19.4883 12.8292 19.4883C11.8854 19.4883 9.19117 19.2376 9.19117 18.124C9.15344 17.6314 9.30497 17.1429 9.61494 16.7582C9.99831 16.4121 10.4795 16.1935 10.9922 16.1324C11.1003 16.5433 11.46 17.3618 12.6675 18.3269C12.6743 18.3309 12.6812 18.3345 12.6883 18.3377C12.703 18.3472 12.7186 18.3552 12.7349 18.3615C12.7496 18.3679 12.7651 18.3727 12.7808 18.3761C12.7973 18.3789 12.8139 18.3802 12.8306 18.38C12.8466 18.3802 12.8627 18.3789 12.8786 18.3761C12.8948 18.3727 12.9106 18.3678 12.9259 18.3612C12.9419 18.3549 12.9572 18.3471 12.9716 18.3377C12.9788 18.3345 12.9857 18.331 12.9924 18.3269C14.1987 17.3618 14.5596 16.5433 14.6677 16.1324C15.1805 16.1935 15.6617 16.4122 16.045 16.7582C16.3543 17.1432 16.5053 17.6316 16.4673 18.124V18.123ZM13.811 14.0922C13.6511 14.2305 13.5095 14.3884 13.3894 14.5623C13.2421 14.7632 13.2016 14.8107 13.0516 14.8107H12.5896C12.441 14.8107 12.4004 14.7632 12.2517 14.5623C12.1318 14.3883 11.99 14.2304 11.83 14.0922C11.6098 13.9293 11.507 13.6513 11.5683 13.3844C11.5717 13.3166 11.5753 13.2477 11.5753 13.1765C11.5732 13.0385 11.5557 12.9013 11.5233 12.7673C11.4434 12.3752 11.4214 11.9735 11.4582 11.5752C11.5029 10.7137 12.6645 10.6542 12.7032 10.6522H12.9249C12.9367 10.6522 14.1347 10.7089 14.1797 11.5754C14.2169 11.9738 14.195 12.3755 14.1144 12.7675C14.0823 12.9016 14.0648 13.0389 14.0625 13.1768C14.0625 13.2471 14.0659 13.3163 14.0692 13.3846C14.1316 13.6508 14.0303 13.9287 13.811 14.0922ZM14.8865 12.563C14.8299 12.6773 14.7419 12.7732 14.6326 12.8392C14.6733 12.646 14.698 12.4497 14.7067 12.2524C14.7658 12.2225 14.8318 12.2086 14.898 12.2121C14.9143 12.3289 14.9104 12.4475 14.8865 12.563ZM20.1053 7.53463C20.1053 7.67819 19.989 7.79453 19.8454 7.79453H19.616C19.4451 7.79477 19.2946 7.907 19.2455 8.07075C19.2126 8.17984 19.169 8.28554 19.1156 8.38616C19.0341 8.53709 19.0615 8.72358 19.1831 8.84463L19.3448 9.00512C19.4186 9.07925 19.4408 9.19052 19.4011 9.28727C19.3613 9.38414 19.2675 9.44763 19.1629 9.44848C19.0938 9.4486 19.0275 9.42102 18.979 9.3718L18.8186 9.21023C18.6974 9.08869 18.5108 9.06135 18.3598 9.14287C18.2592 9.19632 18.1535 9.23986 18.0443 9.27287C17.8797 9.32149 17.7666 9.47266 17.7666 9.6444V9.87333C17.7666 10.0169 17.6502 10.1332 17.5067 10.1332C17.3632 10.1332 17.2468 10.0169 17.2468 9.87333V9.64391C17.2466 9.47303 17.1345 9.32258 16.9709 9.27336C16.8615 9.2401 16.7558 9.19608 16.6551 9.14214C16.598 9.11191 16.5345 9.09594 16.4698 9.09582C16.3673 9.09582 16.2689 9.13682 16.1967 9.20975L16.0361 9.37132C15.9876 9.42042 15.9215 9.44811 15.8524 9.44799C15.7089 9.44799 15.5925 9.33165 15.5925 9.1881C15.5931 9.11904 15.6212 9.05301 15.6705 9.00463L15.8321 8.84403C15.9538 8.72297 15.9812 8.53624 15.8995 8.38543C15.846 8.28469 15.8025 8.17911 15.7696 8.06991C15.7199 7.90579 15.5683 7.7938 15.3969 7.79453H15.1679C15.0245 7.79453 14.9081 7.67819 14.9081 7.53463C14.9081 7.39108 15.0245 7.27474 15.1679 7.27474H15.3975C15.5682 7.2745 15.7188 7.16239 15.768 6.99876C15.8009 6.88955 15.8443 6.78385 15.8979 6.68311C15.9794 6.53218 15.9518 6.34557 15.8303 6.22464L15.6687 6.06403C15.5948 5.98989 15.5726 5.87875 15.6124 5.782C15.652 5.68513 15.746 5.62164 15.8506 5.62079C15.9197 5.62067 15.9858 5.64825 16.0343 5.69735L16.1949 5.85904C16.3161 5.98046 16.5026 6.00779 16.6536 5.92628C16.7543 5.87283 16.86 5.82929 16.969 5.79639C17.1338 5.74778 17.2467 5.59648 17.2468 5.42475V5.19582C17.2468 5.05238 17.3632 4.93604 17.5067 4.93604C17.6502 4.93604 17.7666 5.05238 17.7666 5.19582V5.42536C17.7669 5.59624 17.8791 5.74669 18.0429 5.79591C18.1519 5.82881 18.2576 5.87234 18.3583 5.9258C18.5092 6.00743 18.6958 5.97998 18.8166 5.85819L18.9772 5.69662C19.0257 5.64752 19.092 5.61982 19.161 5.61995C19.3045 5.61995 19.4208 5.73629 19.4208 5.87984C19.4203 5.9489 19.3923 6.01493 19.3429 6.0633L19.1812 6.22391C19.0596 6.34497 19.0322 6.5317 19.114 6.68251C19.1675 6.78325 19.211 6.88883 19.2439 6.99803C19.2931 7.16263 19.4448 7.27522 19.6165 7.27474H19.8454C19.989 7.27474 20.1053 7.39108 20.1053 7.53463Z" fill="white"/>
    <path d="M17.5069 6.23532C16.7892 6.23532 16.2075 6.81703 16.2075 7.53468C16.2075 8.2522 16.7892 8.83391 17.5069 8.83391C18.2244 8.83391 18.8061 8.2522 18.8061 7.53468C18.8053 6.8174 18.224 6.23617 17.5069 6.23532ZM17.5069 8.31424C17.0763 8.31424 16.7273 7.96522 16.7273 7.53468C16.7273 7.10414 17.0763 6.75511 17.5069 6.75511C17.9374 6.75511 18.2864 7.10414 18.2864 7.53468C18.2864 7.74148 18.2043 7.9397 18.0581 8.08591C17.9119 8.23213 17.7136 8.31424 17.5069 8.31424Z" fill="white"/>
</svg>
