<svg width="33" height="33" viewBox="0 0 33 33" fill="none" xmlns="http://www.w3.org/2000/svg">
<path d="M31.3068 6.98819H9.17885C8.88153 6.98819 8.64115 7.27046 8.64115 7.61958C8.64115 7.96871 8.88153 8.25098 9.17885 8.25098H12.443C10.0455 10.0412 8.60952 13.1536 8.64115 16.4888C8.60952 19.8241 10.0455 22.9365 12.443 24.7266H1.08172V8.25841H6.4777C6.77501 8.25841 7.0154 7.97614 7.0154 7.62701C7.0154 7.27789 6.77501 6.99562 6.4777 6.99562H1.08172C0.480767 6.98819 0 7.55273 0 8.25841V24.7415C0 25.4397 0.480767 26.0117 1.08172 26.0117H31.3131C31.9077 26.0117 32.3948 25.4472 32.3948 24.7415V8.25841C32.3885 7.55273 31.9077 6.98819 31.3068 6.98819ZM9.71655 16.4962C9.71655 11.9502 12.6201 8.25841 16.1942 8.25841C19.7684 8.25841 22.6719 11.9502 22.6719 16.4962C22.6719 21.0423 19.7684 24.7341 16.1942 24.7341C12.6201 24.7341 9.71655 21.0423 9.71655 16.4962ZM31.3068 24.7341H19.9455C22.343 22.9439 23.779 19.8315 23.7473 16.4962C23.779 13.161 22.343 10.0486 19.9455 8.25841H31.3068V24.7341Z" fill="white"/>
<path d="M28.4831 0.132943C28.2308 -0.014156 27.9344 -0.0435759 27.6632 0.0667484L16.0703 4.5974C15.7865 4.70773 15.6351 5.06076 15.7297 5.39174C15.8243 5.72271 16.1271 5.89923 16.4109 5.7889L28.0038 1.25825L29.1959 5.39174C29.2589 5.60503 29.4103 5.76684 29.5995 5.81097C29.7888 5.8551 29.9843 5.78155 30.1104 5.61238C30.2366 5.44322 30.2807 5.20786 30.2177 4.99457L29.0256 0.861084C28.9373 0.54482 28.7417 0.280042 28.4831 0.132943Z" fill="white"/>
<path d="M15.9959 27.2093L4.39272 31.7418L3.19957 27.6067C3.10487 27.2756 2.80185 27.099 2.51776 27.2093C2.23368 27.3197 2.08217 27.6729 2.17686 28.004L3.3637 32.1391C3.45208 32.4555 3.64779 32.7204 3.9003 32.8676C4.05182 32.9559 4.21595 33 4.38009 33C4.49372 33 4.61367 32.9779 4.72099 32.9338L16.3242 28.4013C16.6083 28.2909 16.7598 27.9378 16.6651 27.6067C16.5767 27.2756 16.2737 27.099 15.9959 27.2093Z" fill="white"/>
<path d="M27.4905 23.4881H29.6964C30.0004 23.4881 30.2463 23.1994 30.2463 22.8423V20.2515C30.2463 19.8945 30.0004 19.6057 29.6964 19.6057C29.3924 19.6057 29.1466 19.8945 29.1466 20.2515V22.1965H27.4905C27.1865 22.1965 26.9407 22.4852 26.9407 22.8423C26.9407 23.1918 27.1865 23.4881 27.4905 23.4881Z" fill="white"/>
<path d="M2.69854 19.6057C2.3945 19.6057 2.14868 19.8945 2.14868 20.2515V22.8423C2.14868 23.1994 2.3945 23.4881 2.69854 23.4881H4.90442C5.20846 23.4881 5.45428 23.1994 5.45428 22.8423C5.45428 22.4852 5.20846 22.1965 4.90442 22.1965H3.24839V20.2515C3.24839 19.8945 3.00257 19.6057 2.69854 19.6057Z" fill="white"/>
<path d="M4.90442 9.51178H2.69854C2.3945 9.51178 2.14868 9.80049 2.14868 10.1576V12.7483C2.14868 13.1054 2.3945 13.3941 2.69854 13.3941C3.00257 13.3941 3.24839 13.1054 3.24839 12.7483V10.8034H4.90442C5.20846 10.8034 5.45428 10.5147 5.45428 10.1576C5.45428 9.80049 5.20846 9.51178 4.90442 9.51178Z" fill="white"/>
<path d="M27.4905 10.8034H29.1466V12.7483C29.1466 13.1054 29.3924 13.3941 29.6964 13.3941C30.0004 13.3941 30.2463 13.1054 30.2463 12.7483V10.1576C30.2463 9.80049 30.0004 9.51178 29.6964 9.51178H27.4905C27.1865 9.51178 26.9407 9.80049 26.9407 10.1576C26.9407 10.5147 27.1865 10.8034 27.4905 10.8034Z" fill="white"/>
<path d="M12.9168 19.4118C12.6145 19.3746 12.3057 19.3746 12.0098 19.3002C11.3538 19.1292 10.9743 18.4449 11.0965 17.6863C11.1801 17.1582 11.3409 16.6524 11.5982 16.1987C11.6947 16.0277 11.8812 15.9979 11.9841 16.1467C12.0484 16.2359 12.0484 16.3549 11.9906 16.4814C11.9069 16.6673 11.8169 16.8607 11.7461 17.0541C11.6882 17.2103 11.6432 17.3813 11.6175 17.5524C11.5789 17.7904 11.6818 17.9689 11.8233 18.1251C11.9713 18.2887 12.1578 18.3705 12.3572 18.4077C12.846 18.5044 13.3349 18.4821 13.8108 18.3259C14.2804 18.1697 14.5055 17.835 14.5055 17.2698C14.5055 16.883 14.4798 16.4962 14.4412 16.1095C14.3833 15.507 14.3254 14.912 14.2482 14.317C14.1968 13.9303 14.1132 13.5509 14.0424 13.1642C13.9781 12.8146 13.9781 12.4725 14.1325 12.1452C14.1968 12.0113 14.2482 12.0039 14.3447 12.1006C14.4927 12.2493 14.647 12.3907 14.795 12.532C14.9365 12.6659 15.0523 12.8146 15.0265 13.0377C15.0072 13.1567 14.9686 13.3055 14.8979 13.3799C14.6792 13.603 14.7114 13.8708 14.7371 14.1534C14.8336 15.15 14.93 16.1541 15.0265 17.1508C15.0587 17.5226 15.0394 17.902 14.9236 18.259C14.7564 18.7945 14.4219 19.1143 13.9588 19.2705C13.6243 19.382 13.277 19.3821 12.9296 19.3969C12.9168 19.3895 12.9168 19.3969 12.9168 19.4118Z" fill="white"/>
<path d="M18.2976 17.258C18.2306 16.9137 18.194 16.5621 18.0111 16.2691C17.8099 15.9395 17.8343 15.5439 18.0477 15.2289C18.0965 15.1557 18.1513 15.1557 18.2123 15.2216C18.3891 15.4121 18.5049 15.6465 18.5659 15.9175C18.6939 16.4669 18.6817 17.0236 18.6695 17.5803C18.6634 17.7488 18.6512 17.9246 18.6451 18.0931C18.639 18.2176 18.6146 18.2469 18.511 18.2469C17.8404 18.2469 17.1699 18.2469 16.4932 18.2469C16.1579 18.2469 15.9263 18.0418 15.847 17.6389C15.7921 17.3459 15.7617 17.0529 15.7373 16.7526C15.6763 16.0274 15.5788 15.3095 15.4752 14.5916C15.4264 14.2693 15.3898 13.947 15.3715 13.6174C15.3654 13.4709 15.4264 13.3244 15.463 13.1779C15.4873 13.0826 15.5239 12.9874 15.5605 12.8995C15.5788 12.8556 15.6276 12.8116 15.658 12.8116C15.6885 12.8116 15.7373 12.8629 15.7495 12.9068C15.908 13.4709 16.036 14.0496 16.0665 14.6502C16.1091 15.3974 16.164 16.1446 16.2189 16.8918C16.2372 17.1335 16.3408 17.2653 16.542 17.2653C17.115 17.2727 17.688 17.2653 18.2611 17.2653C18.2793 17.2653 18.2854 17.2653 18.2976 17.258Z" fill="white"/>
<path d="M21.1558 17.9446C21.1494 18.3801 21.0657 18.8156 20.8081 19.1846C20.6085 19.4651 20.4282 19.7604 20.2093 20.0261C19.9518 20.3508 19.6428 20.6018 19.2629 20.7125C18.9216 20.8158 18.5933 20.7716 18.2649 20.6535C17.9366 20.5354 17.6146 20.4025 17.2863 20.277C17.2283 20.2549 17.1833 20.2254 17.1897 20.1442C17.1961 20.0777 17.267 20.0261 17.3378 20.0335C17.4859 20.063 17.6275 20.0999 17.7756 20.1294C18.3937 20.277 18.9538 20.1294 19.4625 19.6939C19.8295 19.3839 20.1192 18.9927 20.3639 18.5573C20.5892 18.1661 20.557 17.7158 20.2737 17.3025C20.0291 16.9482 19.7844 16.6087 19.5333 16.2618C19.456 16.151 19.4045 16.0329 19.4238 15.8927C19.4496 15.7229 19.5269 15.6048 19.6749 15.5532C19.8359 15.4941 19.9776 15.5458 20.0934 15.6934C20.2351 15.8853 20.3767 16.0772 20.5184 16.2765C20.6214 16.4241 20.7309 16.5718 20.8339 16.7268C21.0528 17.0884 21.1429 17.4944 21.1558 17.9446Z" fill="white"/>
<path d="M17.1545 19.0468C17.309 18.8675 17.4573 18.696 17.6056 18.5244C17.655 18.4699 17.7106 18.4699 17.7538 18.5322C17.8898 18.7193 18.0195 18.9143 18.1493 19.1014C18.1987 19.1715 18.1863 19.2339 18.1369 19.2963C18.0072 19.4522 17.8774 19.6003 17.7477 19.7485C17.6859 19.8186 17.6364 19.8186 17.5808 19.7407C17.4696 19.5847 17.3646 19.4288 17.2596 19.2807C17.2472 19.2651 17.2348 19.2495 17.2225 19.2261C17.0804 19.3898 16.9445 19.5458 16.8085 19.7017C16.722 19.7952 16.685 19.7952 16.6046 19.6861C16.4811 19.5068 16.3575 19.3275 16.2401 19.1481C16.1783 19.0546 16.1845 19.0078 16.2525 18.922C16.376 18.7817 16.4996 18.6414 16.6232 18.501C16.6973 18.4153 16.7406 18.4231 16.8085 18.5166C16.9197 18.696 17.0371 18.8753 17.1545 19.0468Z" fill="white"/>
</svg>
