<svg width="23" height="30" viewBox="0 0 23 30" fill="none" xmlns="http://www.w3.org/2000/svg">
<path d="M21.9999 3.61998C21.7294 3.46266 21.3953 3.46266 21.1249 3.61998C20.0779 4.20287 18.8982 4.50598 17.6999 4.5C15.9485 4.53873 14.255 3.87217 13 2.65002C11.5511 1.23176 9.59203 0.456797 7.56498 0.500039C5.9325 0.485918 4.33641 0.982383 3 1.92006V1.5C3 0.671602 2.32846 0 1.5 0C0.671543 0 0 0.671543 0 1.5V28.5C0 29.3284 0.671543 30 1.5 30C2.3284 30 3 29.3285 3 28.5V15.5C3.1657 15.4845 3.32355 15.4221 3.45498 15.32C4.64455 14.4439 6.08777 13.9805 7.56498 14C9.31963 13.9597 11.0168 14.6263 12.275 15.85C13.7211 17.2662 15.6763 18.041 17.7 17.9999C19.2509 18.018 20.7721 17.5742 22.07 16.7249C22.3477 16.5325 22.5095 16.2127 22.5 15.8749V4.5C22.505 4.13777 22.3137 3.80109 21.9999 3.61998ZM1.99992 28.5C1.99992 28.7762 1.77609 29 1.49994 29C1.22379 29 0.999961 28.7762 0.999961 28.5V1.5C0.999961 1.22385 1.22379 1.00002 1.49994 1.00002C1.77609 1.00002 1.99992 1.22385 1.99992 1.5V28.5ZM21.4999 15.895C20.368 16.6257 19.0472 17.0098 17.6999 17C15.9485 17.0388 14.255 16.3722 13 15.1501C11.5511 13.7318 9.59203 12.9568 7.56498 13.0001C5.93355 12.9827 4.33746 13.4757 3 14.4101V3.21C4.24875 2.08008 5.88123 1.46859 7.56498 1.5C9.31963 1.45969 11.0168 2.12631 12.275 3.34998C13.7211 4.76619 15.6763 5.54104 17.7 5.49996C19.0241 5.50922 20.3298 5.18965 21.5 4.56996V15.895H21.4999Z" fill="#163DC7"/>
</svg>
