<svg width="18" height="18" viewBox="0 0 18 18" fill="none" xmlns="http://www.w3.org/2000/svg">
<path d="M12.6356 0.543839H7.01724C5.94631 0.543839 5.0752 1.42295 5.0752 2.50587V5.10722C5.0752 5.3279 5.25402 5.50685 5.47483 5.50685C5.69551 5.50685 5.87433 5.3279 5.87433 5.10722V2.50987C5.87158 2.20409 5.9903 1.90968 6.20461 1.69162C6.41917 1.47331 6.71133 1.34947 7.01724 1.3471H12.6396C13.271 1.3471 13.7823 1.87044 13.7823 2.50987V15.4567C13.7853 15.7625 13.6664 16.0569 13.4521 16.2751C13.2378 16.4932 12.9453 16.6171 12.6396 16.6196H7.01724C6.38593 16.6196 5.87433 16.096 5.87433 15.4567V12.8754C5.87433 12.6547 5.69551 12.4759 5.47483 12.4759C5.25402 12.4759 5.0752 12.6547 5.0752 12.8754V15.4567C5.0752 16.5397 5.94631 17.4188 7.01724 17.4188H12.6396C13.7105 17.4188 14.5815 16.5397 14.5815 15.4567V2.50987C14.5815 1.42695 13.7105 0.543839 12.6356 0.543839V0.543839Z" fill="#16C79A"/>
<path d="M8.04425 10.4739C7.90329 10.6428 7.92491 10.8939 8.09261 11.0363C8.26031 11.1789 8.51161 11.1597 8.65569 10.9934L10.1342 9.24713L10.1461 9.23513C10.1501 9.23101 10.1542 9.22301 10.1581 9.21913C10.1631 9.21526 10.166 9.20926 10.166 9.20301C10.1701 9.19914 10.1741 9.19102 10.1781 9.18714C10.1821 9.18314 10.1821 9.17515 10.186 9.17102C10.1901 9.16715 10.1901 9.15915 10.1941 9.15515C10.1981 9.15115 10.1981 9.14316 10.2021 9.13928C10.206 9.13116 10.206 9.12716 10.2101 9.11929C10.2101 9.11516 10.2141 9.10729 10.2141 9.10317C10.2141 9.09517 10.218 9.09117 10.218 9.08317C10.218 9.0793 10.2221 9.07118 10.2221 9.0673C10.2221 9.05931 10.226 9.05118 10.226 9.04319V9.03119C10.2301 9.00607 10.2301 8.98045 10.226 8.95534V8.94334C10.226 8.93534 10.2221 8.92747 10.2221 8.91947C10.2221 8.91535 10.218 8.90748 10.218 8.90335C10.218 8.89535 10.2141 8.89136 10.2141 8.88336C10.2141 8.87948 10.2101 8.87136 10.2101 8.86749C10.206 8.85949 10.206 8.85549 10.2021 8.84749C10.1981 8.84349 10.1981 8.8355 10.1941 8.83137C10.1901 8.8235 10.1901 8.8195 10.186 8.8155C10.1821 8.81138 10.1821 8.80351 10.1781 8.79963C10.1741 8.79551 10.1701 8.78751 10.166 8.78351C10.1621 8.77964 10.1621 8.77551 10.1581 8.76752C10.1542 8.76352 10.1501 8.75552 10.1461 8.75152L10.1342 8.73965L8.65569 6.99329C8.51336 6.82459 8.26106 6.80297 8.09224 6.9453C7.92329 7.08776 7.90192 7.33994 8.04425 7.50889L8.96722 8.59982H3.47287C3.25231 8.59982 3.07324 8.77864 3.07324 8.99932C3.07324 9.21988 3.25231 9.39896 3.47287 9.39896H8.96722L8.04425 10.4739Z" fill="#16C79A"/>
</svg>
