<svg width="18" height="18" viewBox="0 0 18 18" fill="none" xmlns="http://www.w3.org/2000/svg">
	<path d="M12.8522 7.41102L14.5938 9.15262H5.38083C5.15705 9.15262 4.94244 9.24151 4.78421 9.39975C4.62597 9.55798 4.53708 9.77259 4.53708 9.99637C4.53708 10.2201 4.62597 10.4348 4.78421 10.593C4.94244 10.7512 5.15705 10.8401 5.38083 10.8401H14.5938L12.8522 12.5817C12.7735 12.66 12.7111 12.753 12.6684 12.8555C12.6257 12.9579 12.6036 13.0678 12.6035 13.1788C12.6033 13.2898 12.6251 13.3997 12.6675 13.5023C12.7099 13.6049 12.7721 13.6981 12.8506 13.7766C12.9291 13.8551 13.0223 13.9173 13.1249 13.9597C13.2274 14.0021 13.3374 14.0239 13.4484 14.0237C13.5594 14.0236 13.6692 14.0015 13.7717 13.9588C13.8742 13.9161 13.9672 13.8537 14.0455 13.775L17.2275 10.593C17.3058 10.5147 17.368 10.4216 17.4104 10.3193C17.4528 10.2169 17.4746 10.1072 17.4746 9.99637C17.4746 9.88556 17.4528 9.77584 17.4104 9.67347C17.368 9.5711 17.3058 9.47808 17.2275 9.39973L14.0455 6.21778C13.9672 6.13908 13.8742 6.0766 13.7717 6.03391C13.6692 5.99123 13.5594 5.96918 13.4484 5.96903C13.3374 5.96887 13.2274 5.99063 13.1249 6.03303C13.0223 6.07544 12.9291 6.13767 12.8506 6.21615C12.7721 6.29464 12.7099 6.38784 12.6675 6.49042C12.6251 6.59299 12.6033 6.70293 12.6035 6.81392C12.6036 6.92492 12.6257 7.03479 12.6684 7.13725C12.7111 7.23971 12.7735 7.33274 12.8522 7.41102Z" fill="#B0A8A8" />
	<path d="M10.1621 17.3093C10.1621 17.0855 10.0732 16.8709 9.91498 16.7127C9.75675 16.5545 9.54214 16.4656 9.31836 16.4656H2.84961L2.84961 3.52808H9.31836C9.54214 3.52808 9.75675 3.43918 9.91498 3.28095C10.0732 3.12271 10.1621 2.9081 10.1621 2.68433C10.1621 2.46055 10.0732 2.24594 9.91498 2.0877C9.75675 1.92947 9.54214 1.84058 9.31836 1.84058L2.56836 1.84058C2.1954 1.84058 1.83771 1.98873 1.57399 2.25246C1.31027 2.51618 1.16211 2.87387 1.16211 3.24683V16.7468C1.16211 17.1198 1.31027 17.4775 1.57399 17.7412C1.83771 18.0049 2.1954 18.1531 2.56836 18.1531H9.31836C9.54214 18.1531 9.75675 18.0642 9.91498 17.9059C10.0732 17.7477 10.1621 17.5331 10.1621 17.3093Z" fill="#B0A8A8" />
</svg>
