<svg width="16" height="16" viewBox="0 0 16 16" fill="none" xmlns="http://www.w3.org/2000/svg">
<path d="M10.8941 5.40428L12.3455 6.85562H4.66794C4.48146 6.85562 4.30262 6.9297 4.17076 7.06156C4.0389 7.19342 3.96482 7.37226 3.96482 7.55874C3.96482 7.74522 4.0389 7.92406 4.17076 8.05593C4.30262 8.18779 4.48146 8.26187 4.66794 8.26187H12.3455L10.8941 9.7132C10.8285 9.77843 10.7765 9.85596 10.7409 9.94134C10.7053 10.0267 10.6869 10.1183 10.6868 10.2108C10.6867 10.3033 10.7048 10.3949 10.7402 10.4804C10.7755 10.5659 10.8274 10.6435 10.8928 10.7089C10.9582 10.7743 11.0358 10.8262 11.1213 10.8615C11.2068 10.8969 11.2984 10.915 11.3909 10.9149C11.4834 10.9147 11.575 10.8964 11.6603 10.8608C11.7457 10.8252 11.8233 10.7732 11.8885 10.7076L14.5401 8.05594C14.6054 7.99065 14.6572 7.91313 14.6926 7.82783C14.7279 7.74252 14.7461 7.65108 14.7461 7.55874C14.7461 7.4664 14.7279 7.37497 14.6926 7.28966C14.6572 7.20435 14.6054 7.12684 14.5401 7.06155L11.8885 4.40992C11.8233 4.34433 11.7457 4.29227 11.6603 4.25669C11.575 4.22112 11.4834 4.20275 11.3909 4.20262C11.2984 4.2025 11.2068 4.22062 11.1213 4.25596C11.0358 4.2913 10.9582 4.34316 10.8928 4.40856C10.8274 4.47397 10.7755 4.55163 10.7402 4.63711C10.7048 4.72259 10.6867 4.81421 10.6868 4.9067C10.6869 4.9992 10.7053 5.09076 10.7409 5.17614C10.7765 5.26153 10.8285 5.33905 10.8941 5.40428Z" fill="#003761"/>
<path d="M8.65234 13.6529C8.65234 13.4664 8.57826 13.2876 8.4464 13.1557C8.31454 13.0238 8.1357 12.9498 7.94922 12.9498H2.55859V2.1685H7.94922C8.1357 2.1685 8.31454 2.09442 8.4464 1.96256C8.57826 1.8307 8.65234 1.65186 8.65234 1.46538C8.65234 1.2789 8.57826 1.10005 8.4464 0.968193C8.31454 0.836332 8.1357 0.762253 7.94922 0.762253L2.32422 0.762253C2.01342 0.762253 1.71535 0.885718 1.49558 1.10549C1.27581 1.32526 1.15234 1.62333 1.15234 1.93413V13.1841C1.15234 13.4949 1.27581 13.793 1.49558 14.0128C1.71535 14.2325 2.01342 14.356 2.32422 14.356H7.94922C8.1357 14.356 8.31454 14.2819 8.4464 14.1501C8.57826 14.0182 8.65234 13.8394 8.65234 13.6529Z" fill="#003761"/>
</svg>
