<svg width="18" height="18" viewBox="0 0 18 18" fill="none" xmlns="http://www.w3.org/2000/svg">
	<path d="M5.70012 11.8674L4.05018 10.2175L12.7783 10.2175C12.9903 10.2175 13.1936 10.1333 13.3435 9.98336C13.4934 9.83345 13.5776 9.63014 13.5776 9.41814C13.5776 9.20614 13.4934 9.00283 13.3435 8.85292C13.1936 8.70301 12.9903 8.61879 12.7783 8.61879L4.05018 8.61879L5.70012 6.96891C5.77467 6.89473 5.83389 6.80653 5.87434 6.70952C5.91479 6.61241 5.93563 6.50839 5.93582 6.40323C5.93592 6.29807 5.91536 6.19386 5.87519 6.09676C5.83493 5.99956 5.776 5.91126 5.70163 5.83689C5.62726 5.76253 5.53897 5.7036 5.44186 5.66343C5.34466 5.62326 5.24055 5.60261 5.13539 5.6028C5.03023 5.60289 4.92612 5.62383 4.82901 5.66419C4.732 5.70464 4.6438 5.76385 4.56972 5.83841L1.55519 8.85291C1.48092 8.92714 1.42209 9.01525 1.38192 9.11224C1.34175 9.20922 1.321 9.31317 1.321 9.41814C1.321 9.52311 1.34175 9.62706 1.38192 9.72404C1.42209 9.82102 1.48092 9.90915 1.55519 9.98338L4.56972 12.9979C4.6438 13.0724 4.732 13.1316 4.82901 13.172C4.92612 13.2125 5.03023 13.2334 5.13539 13.2335C5.24055 13.2337 5.34466 13.2131 5.44186 13.1729C5.53897 13.1327 5.62727 13.0738 5.70163 12.9994C5.776 12.925 5.83493 12.8367 5.87519 12.7396C5.91536 12.6424 5.93592 12.5382 5.93582 12.4331C5.93563 12.3279 5.91479 12.2238 5.87434 12.1268C5.83389 12.0297 5.77468 11.9416 5.70012 11.8674Z" fill="#B0A8A8" />
	<path d="M8.2488 2.49003C8.2488 2.70205 8.33302 2.90536 8.48299 3.05523C8.63286 3.2052 8.83617 3.28942 9.04817 3.28942L15.1765 3.28942L15.1765 15.546L9.04817 15.546C8.83617 15.546 8.63286 15.6302 8.48299 15.7801C8.33302 15.93 8.2488 16.1333 8.2488 16.3453C8.2488 16.5573 8.33302 16.7606 8.48299 16.9105C8.63286 17.0604 8.83617 17.1447 9.04817 17.1447L15.4429 17.1447C15.7962 17.1447 16.1351 17.0043 16.3849 16.7545C16.6348 16.5046 16.7751 16.1657 16.7751 15.8124L16.7751 3.02292C16.7751 2.66965 16.6348 2.33078 16.3849 2.08086C16.1351 1.83104 15.7962 1.69073 15.4429 1.69073L9.04817 1.69074C8.83617 1.69074 8.63286 1.77496 8.48299 1.92483C8.33302 2.0747 8.2488 2.27801 8.2488 2.49003Z" fill="#B0A8A8" />
</svg>