<svg width="18" height="18" viewBox="0 0 18 18" fill="none" xmlns="http://www.w3.org/2000/svg">
	<path d="M12.2999 6.13258L13.9498 7.78252H5.22171C5.0097 7.78252 4.80639 7.86673 4.65649 8.01664C4.50657 8.16655 4.42236 8.36986 4.42236 8.58186C4.42236 8.79386 4.50657 8.99717 4.65649 9.14708C4.80639 9.29699 5.0097 9.38121 5.22171 9.38121H13.9498L12.2999 11.0311C12.2253 11.1053 12.1661 11.1935 12.1257 11.2905C12.0852 11.3876 12.0644 11.4916 12.0642 11.5968C12.0641 11.7019 12.0846 11.8061 12.1248 11.9032C12.1651 12.0004 12.224 12.0887 12.2984 12.1631C12.3727 12.2375 12.461 12.2964 12.5581 12.3366C12.6553 12.3767 12.7595 12.3974 12.8646 12.3972C12.9698 12.3971 13.0739 12.3762 13.171 12.3358C13.268 12.2954 13.3562 12.2361 13.4303 12.1616L16.4448 9.14709C16.5191 9.07287 16.5779 8.98475 16.6181 8.88776C16.6583 8.79078 16.679 8.68683 16.679 8.58186C16.679 8.47689 16.6583 8.37294 16.6181 8.27596C16.5779 8.17898 16.5191 8.09085 16.4448 8.01663L13.4303 5.00214C13.3562 4.92758 13.268 4.86839 13.171 4.82795C13.0739 4.78751 12.9698 4.76662 12.8646 4.76648C12.7595 4.76634 12.6553 4.78694 12.5581 4.82712C12.461 4.86729 12.3727 4.92624 12.2984 5.0006C12.224 5.07495 12.1651 5.16326 12.1248 5.26043C12.0846 5.35761 12.0641 5.46175 12.0642 5.56691C12.0644 5.67206 12.0852 5.77616 12.1257 5.87322C12.1661 5.97029 12.2253 6.05843 12.2999 6.13258Z" fill="#003761" />
	<path d="M9.7512 15.51C9.7512 15.2979 9.66698 15.0946 9.51701 14.9448C9.36714 14.7948 9.16383 14.7106 8.95183 14.7106H2.82354V2.45403H8.95183C9.16383 2.45403 9.36714 2.36982 9.51701 2.21991C9.66698 2.07 9.7512 1.86669 9.7512 1.65469C9.7512 1.44269 9.66698 1.23937 9.51701 1.08947C9.36714 0.939563 9.16383 0.855347 8.95183 0.855347H2.55709C2.20376 0.855347 1.8649 0.995707 1.61506 1.24555C1.36521 1.4954 1.22485 1.83425 1.22485 2.18758V14.9771C1.22485 15.3303 1.36521 15.6692 1.61506 15.9191C1.8649 16.169 2.20376 16.3093 2.55709 16.3093H8.95183C9.16383 16.3093 9.36714 16.225 9.51701 16.0752C9.66698 15.9253 9.7512 15.722 9.7512 15.51Z" fill="#003761" />
</svg>
