<svg xmlns="http://www.w3.org/2000/svg" width="57" height="57" viewBox="0 0 57 57">
  <g id="Muscula_Skelital" data-name="Muscula Skelital" transform="translate(16092 -2873)">
    <circle id="Ellipse_54" data-name="Ellipse 54" cx="28.5" cy="28.5" r="28.5" transform="translate(-16092 2873)" fill="#eee"/>
    <g id="muscle" transform="translate(-16077.499 2885.542)">
      <path id="Path_1682" data-name="Path 1682" d="M27.342,35.575a13.241,13.241,0,0,1-7.263-1.357.471.471,0,0,0-.358-.045c-.051.014-5.124,1.373-9.21.467-2.547-.566-4.95-2.361-6.7-3.671-.236-.176-.459-.343-.668-.5a5.357,5.357,0,0,0-1.143-.537c-.18-.069-.427-.163-.48-.2a.185.185,0,0,1-.071-.149V28.5c.023-.865,3.651-14.182,4.214-15.876a.365.365,0,0,1,.108-.078l7.181-3.279,2.321,3.022a.416.416,0,0,1-.025.52l-2.294,2.572a.409.409,0,0,1-.56.056l-.927-.855a.475.475,0,0,0-.408-.107.5.5,0,0,0-.342.261,2.575,2.575,0,0,1-1.5.345l-.234-.024a.472.472,0,0,0-.421.758c.2.258.354.464.442.583l.459,7.8a3.435,3.435,0,0,1-.61,1.486.472.472,0,0,0,.142.922c.535,0,.99-.7,1.355-2.076a5.773,5.773,0,0,1,7.285.06A3.732,3.732,0,0,1,18.9,26.618a.472.472,0,0,0,.944-.01,3.941,3.941,0,0,0-1.26-2.385,6.019,6.019,0,0,1,3.907-2.409A6.848,6.848,0,0,1,27.1,23.2a.472.472,0,0,0,.6-.731,7.7,7.7,0,0,0-5.307-1.592,6.9,6.9,0,0,0-4.517,2.72,6.707,6.707,0,0,0-7.511-.219L9.935,16.2a.467.467,0,0,0-.068-.219,3.1,3.1,0,0,0,1.29-.4l.608.56A1.352,1.352,0,0,0,13.651,16l2.294-2.572a1.368,1.368,0,0,0,.077-1.714L13.465,8.39a.472.472,0,0,0-.57-.142L5.378,11.681a1.148,1.148,0,0,0-.608.622C4.5,13.105.5,27.382.5,28.495v1.1a1.125,1.125,0,0,0,.433.892,2.983,2.983,0,0,0,.725.335,5.139,5.139,0,0,1,.923.418c.207.152.428.317.661.49,1.823,1.362,4.319,3.226,7.065,3.836a23.079,23.079,0,0,0,9.479-.429A14.145,14.145,0,0,0,26,36.592a13.037,13.037,0,0,0,1.442-.079.472.472,0,1,0-.1-.938Zm0,0" transform="translate(0 -6.748)" fill="#818a91"/>
      <path id="Path_1683" data-name="Path 1683" d="M420.137,385.451a.472.472,0,0,0-.941.052c0,.315.233,1.382,3.225,1.881a.5.5,0,0,0,.078.006.472.472,0,0,0,.077-.937C420.483,386.1,420.165,385.514,420.137,385.451Zm0,0" transform="translate(-395.105 -362.341)" fill="#818a91"/>
      <path id="Path_1687" data-name="Path 1687" d="M110.795,379.974c-6.18,1.323-8.824-2.9-8.934-3.085a.472.472,0,0,0-.809.486,8.093,8.093,0,0,0,2.388,2.334,9.15,9.15,0,0,0,5.075,1.46,11.816,11.816,0,0,0,2.478-.273.472.472,0,0,0-.2-.923Zm0,0" transform="translate(-94.824 -354.442)" fill="#818a91"/>
    </g>
  </g>
</svg>
