<svg width="18" height="18" viewBox="0 0 18 18" fill="none" xmlns="http://www.w3.org/2000/svg">
<path d="M8.882 8.96664C11.2081 8.96664 13.0936 7.08106 13.0936 4.75505C13.0936 2.42915 11.2081 0.543457 8.882 0.543457C6.55611 0.543457 4.67041 2.42915 4.67041 4.75505C4.6722 7.08027 6.55678 8.96485 8.882 8.96664V8.96664ZM8.882 1.25727C10.8138 1.25727 12.3798 2.82321 12.3798 4.75505C12.3798 6.68689 10.8138 8.25283 8.882 8.25283C6.95039 8.25283 5.38422 6.68689 5.38422 4.75505C5.38746 2.82466 6.95162 1.2604 8.882 1.25727Z" fill="#003761"/>
<path d="M8.88199 10.0195C7.05114 10.0195 5.34856 10.7298 4.08516 12.0219C2.80379 13.3318 2.10059 15.1198 2.10059 17.0616C2.10114 17.2585 2.26069 17.4179 2.45755 17.4185H15.3065C15.5035 17.4179 15.6628 17.2585 15.6634 17.0616C15.6634 15.1235 14.9603 13.3318 13.679 12.0255C12.4155 10.7333 10.7131 10.0195 8.88199 10.0195V10.0195ZM2.82166 16.7046C2.9002 15.0914 3.52475 13.6173 4.59195 12.5251C5.71982 11.3722 7.24387 10.737 8.87852 10.737C10.5132 10.737 12.0372 11.3722 13.165 12.5251C14.2358 13.6173 14.8568 15.0914 14.9354 16.7046H2.82166Z" fill="#003761"/>
</svg>
