<svg width="18" height="18" viewBox="0 0 18 18" fill="none" xmlns="http://www.w3.org/2000/svg">
<path d="M16.3839 2.74162C16.3044 2.60467 16.1581 2.5206 15.9997 2.52088H10.3055V1.00677C10.3049 0.76339 10.1079 0.566121 9.86421 0.56543H1.87469C1.63131 0.566121 1.43404 0.76339 1.43335 1.00677V16.9991C1.43335 17.2429 1.63103 17.4404 1.87469 17.4404C2.11848 17.4404 2.31616 17.2429 2.31616 16.9991V8.90353H6.22706V10.2367C6.22775 10.4802 6.42503 10.6774 6.66853 10.6781H15.9997C16.1581 10.6783 16.3044 10.5942 16.3839 10.4574C16.4632 10.3209 16.4632 10.1524 16.3839 10.016L14.3843 6.59935L16.3839 3.18295C16.4611 3.04587 16.4611 2.87856 16.3839 2.74162ZM2.31616 1.44825H9.42271V8.02071H2.31616V1.44825ZM13.4882 6.37435C13.4087 6.51238 13.4087 6.68219 13.4882 6.82011L15.2272 9.79529H7.10989V8.90353H9.86421C10.1079 8.90281 10.3049 8.70568 10.3055 8.46217V3.39927H15.2318L13.4882 6.37435Z" fill="#003761"/>
</svg>
