<svg xmlns="http://www.w3.org/2000/svg" width="57" height="57" viewBox="0 0 57 57">
  <g id="Nervous_System" data-name="Nervous System" transform="translate(16149 -2780)">
    <circle id="Ellipse_54" data-name="Ellipse 54" cx="28.5" cy="28.5" r="28.5" transform="translate(-16149 2780)" fill="#eee"/>
    <g id="Page-1" transform="translate(-16135.869 2792.001)">
      <g id="_050---Human-Brain" data-name="050---Human-Brain" transform="translate(0.869 -0.001)">
        <path id="Shape" d="M30.195,13.5a16.235,16.235,0,0,0-.567-4.6,8.978,8.978,0,0,0-3.239-4.659,13.176,13.176,0,0,0-9.258-3.22,36.354,36.354,0,0,0-5.24.749A9.886,9.886,0,0,0,6.463,4.394a10.283,10.283,0,0,0-2.174,3.54A14.317,14.317,0,0,0,3.8,9.707l-.043.187a6.888,6.888,0,0,1-.46,1.225c-.112.25-.224.5-.321.758a1.828,1.828,0,0,0-.146.911,2.069,2.069,0,0,0,.79,1.206c.266.244.44.414.442.57a.938.938,0,0,1-.095.231,20.935,20.935,0,0,1-2.372,3.858A2.258,2.258,0,0,0,.88,20.246a1.684,1.684,0,0,0,.785,1.011,4.026,4.026,0,0,0,.565.325c.233.119.625.319.65.462a.926.926,0,0,1-.059.542c-.081.169-.163.315-.236.443-.2.352-.532.941-.031,1.363.117.1.317.261.5.4a1.367,1.367,0,0,0-.174.784A.779.779,0,0,0,3.2,26.1a4.1,4.1,0,0,0,.379.234c.319.181.443.267.488.433a1.508,1.508,0,0,1-.059.657c-.031.142-.062.284-.081.426a3.15,3.15,0,0,0,.181,1.456,2,2,0,0,0,2.36,1.432,44.184,44.184,0,0,0,4.57-1.367c1.218.719,1.988,2.9,2.188,3.712a.542.542,0,0,0,.526.413l13.6-.037a.542.542,0,0,0,.516-.7,4.178,4.178,0,0,0-.552-1.036,5.113,5.113,0,0,1-.347-.575,10.645,10.645,0,0,1-.612-1.549,18.031,18.031,0,0,1-.638-3.2,9.149,9.149,0,0,1,.709-4.756A12.162,12.162,0,0,1,27.9,19.32c.325-.44.665-.9.969-1.376A8.33,8.33,0,0,0,30.195,13.5Zm-3.166,5.183a13.167,13.167,0,0,0-1.594,2.534,10.234,10.234,0,0,0-.791,5.319,19,19,0,0,0,.675,3.394,11.806,11.806,0,0,0,.672,1.7,6.008,6.008,0,0,0,.418.7l.039.059-12.284.035a8.648,8.648,0,0,0-1.91-3.461c.138-.048.271-.093.391-.137.411-.144.721-.252.876-.3,2.323-.729,3.484-1.785,3.453-3.137a.563.563,0,0,0-.555-.529.542.542,0,0,0-.529.555c.013.558-.444,1.372-2.695,2.078-.163.051-.483.163-.909.313-.386.135-.86.3-1.379.478a45.075,45.075,0,0,1-4.657,1.405.961.961,0,0,1-1.118-.727A2.1,2.1,0,0,1,5,28c.015-.112.04-.224.065-.337a2.4,2.4,0,0,0,.051-1.158,1.788,1.788,0,0,0-1-1.108L4,25.333A2.011,2.011,0,0,1,4.209,25a.542.542,0,0,0-.1-.769c-.13-.1-.44-.328-.662-.507.028-.05.059-.108.087-.157.083-.147.178-.316.271-.51a2,2,0,0,0,.146-1.211c-.126-.665-.758-.989-1.225-1.225a3.127,3.127,0,0,1-.451-.262,2.823,2.823,0,0,1-.319-.258c0-.081.087-.28.5-.788a21.872,21.872,0,0,0,2.475-4.024,1.563,1.563,0,0,0,.212-.734A1.886,1.886,0,0,0,4.35,13.2c-.217-.2-.426-.39-.449-.557a.941.941,0,0,1,.087-.379c.089-.235.192-.466.3-.7a7.841,7.841,0,0,0,.526-1.422l.044-.189a13.269,13.269,0,0,1,.453-1.641A9.2,9.2,0,0,1,7.249,5.139,8.891,8.891,0,0,1,12.1,2.829,35.225,35.225,0,0,1,17.186,2.1a12.113,12.113,0,0,1,8.533,2.992,7.814,7.814,0,0,1,2.864,4.1,15.131,15.131,0,0,1,.528,4.288,7.274,7.274,0,0,1-1.159,3.889c-.284.445-.61.885-.925,1.309Z" transform="translate(-0.869 -0.999)" fill="#818a91"/>
        <path id="Shape-2" data-name="Shape" d="M19.625,17.084h.542a.542.542,0,1,0,0-1.084h-.542A1.625,1.625,0,0,0,18,17.625v.542a1.625,1.625,0,0,0,1.625,1.625h.542a.542.542,0,1,0,0-1.084h-.542a.542.542,0,0,1-.542-.542v-.542A.542.542,0,0,1,19.625,17.084Z" transform="translate(-8.719 -7.873)" fill="#818a91"/>
        <path id="Shape-3" data-name="Shape" d="M26.167,15a.542.542,0,0,0-.542.542v1.084a.542.542,0,0,1-.542.542h-.542a.542.542,0,0,0,0,1.084h.542a1.625,1.625,0,0,0,1.625-1.625V15.542A.542.542,0,0,0,26.167,15Z" transform="translate(-11.469 -7.415)" fill="#818a91"/>
        <path id="Shape-4" data-name="Shape" d="M28.334,13.167v-.542A1.625,1.625,0,0,0,26.709,11H25.625A1.625,1.625,0,0,0,24,12.625v.542a.542.542,0,1,0,1.084,0v-.542a.542.542,0,0,1,.542-.542h1.084a.542.542,0,0,1,.542.542v.542a.542.542,0,1,0,1.084,0Z" transform="translate(-11.469 -5.582)" fill="#818a91"/>
        <path id="Shape-5" data-name="Shape" d="M33.167,20.625h-.542a.542.542,0,0,1-.542-.542v-.542a.542.542,0,0,0-1.084,0v.542a1.625,1.625,0,0,0,1.625,1.625h.542a.542.542,0,0,0,0-1.084Z" transform="translate(-14.676 -9.248)" fill="#818a91"/>
        <path id="Shape-6" data-name="Shape" d="M37.709,16.709a.542.542,0,0,0-.542-.542h-.542a.542.542,0,0,1,0-1.084h.542a.542.542,0,0,0,0-1.084h-.542a1.625,1.625,0,1,0,0,3.251h.542A.542.542,0,0,0,37.709,16.709Z" transform="translate(-16.509 -6.957)" fill="#818a91"/>
        <path id="Shape-7" data-name="Shape" d="M41.167,19a.542.542,0,0,0-.542.542v1.084a.542.542,0,0,1-.542.542h-.542a.542.542,0,1,0,0,1.084h.542a1.625,1.625,0,0,0,1.625-1.625V19.542A.542.542,0,0,0,41.167,19Z" transform="translate(-18.342 -9.248)" fill="#818a91"/>
        <path id="Shape-8" data-name="Shape" d="M32.125,14.21c0-.009,0-.016,0-.024a13.328,13.328,0,0,0-.459-2.863A6.763,6.763,0,0,0,29.173,7.78,11.211,11.211,0,0,0,21.967,5c-.2,0-.4.005-.607.015-.185.01-.369.031-.554.046-.012,0-.023-.007-.035-.007a.491.491,0,0,0-.084.017,38.076,38.076,0,0,0-4.25.654,12.66,12.66,0,0,0-1.812.5c-.012,0-.025.008-.037.013a6.265,6.265,0,0,0-2.431,1.481,8.046,8.046,0,0,0-1.561,2.444.535.535,0,0,0-.041.1c-.036.089-.078.173-.112.263-.166.451-.428,1.575-.461,1.716-.122.606-.424,2.684.805,3.987a3.868,3.868,0,0,0,3.54.91l.729-.1c3.476-.5,5.22-.751,6.722.717.289.282.585.57.892.851-.341,1.072-.783,3.359,1.029,4.713,1.947,1.463,1.947,1.859,1.947,2.817a.542.542,0,0,0,.784.488c.142-.074,1.383-.765,1.383-3.2,0-1.33.991-2.48,1.97-3.431l.016-.015a5.238,5.238,0,0,0,1.354-1.354,6.262,6.262,0,0,0,.831-2.02.536.536,0,0,0,.049-.223,6.459,6.459,0,0,0,.114-1.078c.005-.364,0-.724-.022-1.08A.065.065,0,0,0,32.125,14.21Zm-5.4,9.21a4.141,4.141,0,0,1-.191,1.329,6.055,6.055,0,0,0-2.193-2.305,2.831,2.831,0,0,1-.768-3.088,5.811,5.811,0,0,0,3.576,1.279,6.229,6.229,0,0,0,.632-.037A4.714,4.714,0,0,0,26.729,23.42Zm3.511-5.377A3.521,3.521,0,0,1,28.7,19.325a4.758,4.758,0,0,1-3.051-.046v-.736A.542.542,0,0,1,26.188,18h1.625a.542.542,0,0,0,0-1.084H26.188a1.625,1.625,0,0,0-1.625,1.625v.168a14.714,14.714,0,0,1-2.029-1.739,4.613,4.613,0,0,0-2.305-1.268v-.412a.542.542,0,1,0-1.084,0v.28a24.115,24.115,0,0,0-4.245.385l-.727.1a5.224,5.224,0,0,1-.988.051v-.277a.542.542,0,1,0-1.084,0v.026a1.816,1.816,0,0,1-.529-.379A2.434,2.434,0,0,1,11,14.21h.559a1.625,1.625,0,0,0,1.625-1.625.542.542,0,0,0-1.084,0,.542.542,0,0,1-.542.542h-.607a5.26,5.26,0,0,1,.086-.66c.071-.308.271-1.138.4-1.507h1.749a.542.542,0,1,0,0-1.084H11.93a6.738,6.738,0,0,1,1.011-1.413,4.507,4.507,0,0,1,1.328-.92v.708a1.625,1.625,0,0,0,1.625,1.625.542.542,0,1,0,0-1.084.542.542,0,0,1-.542-.542V7.118a12.527,12.527,0,0,1,1.3-.33c.462-.093.934-.183,1.409-.268v.105a.542.542,0,1,0,1.084,0V6.34c.361-.054.722-.1,1.084-.144v.429a.542.542,0,1,0,1.084,0V6.106c.034,0,.069-.007.1-.009.335-.014.66-.014.981,0V8.251a.542.542,0,0,0,.542.542h1.084a.542.542,0,0,0,0-1.084h-.542V6.215a9.129,9.129,0,0,1,2.716.917c0,.012-.007.023-.007.035V8.792a.542.542,0,1,0,1.084,0V7.758c.355.23.715.482,1.084.765V9.876a.542.542,0,0,1-.542.542.542.542,0,0,0,0,1.084,1.625,1.625,0,0,0,1.625-1.625V9.5a5.321,5.321,0,0,1,1.18,2.113,11.807,11.807,0,0,1,.371,2.051H29.98a.542.542,0,0,0,0,1.084h1.072c0,.177.012.353.01.532s-.023.37-.044.552H29.98a.542.542,0,0,0,0,1.084h.793A5.3,5.3,0,0,1,30.24,18.042Z" transform="translate(-4.988 -2.832)" fill="#818a91"/>
      </g>
    </g>
  </g>
</svg>
