<svg width="21" height="22" viewBox="0 0 21 22" fill="none" xmlns="http://www.w3.org/2000/svg">
<path d="M14.9937 9.52362V5.36018C14.9937 5.24101 14.9387 5.13091 14.8608 5.04379L10.193 0.142166C10.1059 0.0505218 9.98201 0 9.85831 0H2.45761C1.09134 0 0 1.11417 0 2.48061V16.4748C0 17.8413 1.09134 18.9371 2.45761 18.9371H8.29935C9.40428 20.7712 11.4127 22 13.7007 22C17.1763 22 20.0145 19.1755 20.0145 15.6953C20.0192 12.6553 17.8366 10.1151 14.9937 9.52362ZM10.3169 1.60948L13.4485 4.90616H11.4173C10.812 4.90616 10.3169 4.40648 10.3169 3.80122V1.60948ZM2.45761 18.02C1.60025 18.02 0.917114 17.3322 0.917114 16.4748V2.48061C0.917114 1.61855 1.60025 0.917114 2.45761 0.917114H9.39975V3.80122C9.39975 4.91539 10.3031 5.82327 11.4173 5.82327H14.0766V9.40428C13.9392 9.39975 13.8291 9.38599 13.7099 9.38599C12.1096 9.38599 10.6378 10.0005 9.52815 10.9634H3.70488C3.45261 10.9634 3.24632 11.1697 3.24632 11.4218C3.24632 11.6741 3.45261 11.8804 3.70488 11.8804H8.67532C8.3497 12.3389 8.07913 12.7975 7.86832 13.3019H3.70488C3.45261 13.3019 3.24632 13.5081 3.24632 13.7604C3.24632 14.0125 3.45261 14.219 3.70488 14.219H7.57022C7.45558 14.6775 7.396 15.1864 7.396 15.6953C7.396 16.5206 7.55646 17.3369 7.84532 18.0247H2.45761V18.02ZM13.7054 21.0876C10.7341 21.0876 8.31764 18.6711 8.31764 15.6999C8.31764 12.7287 10.7294 10.3122 13.7054 10.3122C16.6811 10.3122 19.0929 12.7287 19.0929 15.6999C19.0929 18.6711 16.6766 21.0876 13.7054 21.0876Z" fill="#163DC7"/>
<path d="M3.70465 9.58325H8.34947C8.60175 9.58325 8.80803 9.3768 8.80803 9.12469C8.80803 8.87242 8.60175 8.66614 8.34947 8.66614H3.70465C3.45238 8.66614 3.24609 8.87242 3.24609 9.12469C3.24609 9.3768 3.45238 9.58325 3.70465 9.58325Z" fill="#163DC7"/>
<path d="M15.5719 15.2688H14.1689V13.8428C14.1689 13.5907 13.9624 13.3842 13.7103 13.3842C13.4581 13.3842 13.2518 13.5907 13.2518 13.8428V15.2688H11.8257C11.5735 15.2688 11.3672 15.4753 11.3672 15.7274C11.3672 15.9797 11.5735 16.1859 11.8257 16.1859H13.2518V17.589C13.2518 17.8413 13.4581 18.0475 13.7103 18.0475C13.9624 18.0475 14.1689 17.8413 14.1689 17.589V16.1859H15.5719C15.8242 16.1859 16.0305 15.9797 16.0305 15.7274C16.0305 15.4753 15.8242 15.2688 15.5719 15.2688Z" fill="#163DC7"/>
</svg>
