<svg width="20" height="20" viewBox="0 0 20 20" fill="none" xmlns="http://www.w3.org/2000/svg">
<path d="M3.80257 19.1403H16.1977C16.2702 19.1403 16.3397 19.1115 16.391 19.0602C16.4423 19.0089 16.4711 18.9394 16.4711 18.8669V16.8514C16.4726 16.679 16.454 16.5069 16.4159 16.3387C16.4089 16.3087 16.4013 16.2789 16.3932 16.2493C16.1844 15.4892 15.5985 14.8858 14.8257 14.6353L12.059 13.7384V12.4758C12.5449 12.1857 12.9639 11.7961 13.2885 11.3326C13.6132 10.8691 13.8361 10.3422 13.9426 9.78646L14.105 9.22787C14.413 9.12764 14.6717 8.9147 14.8294 8.63172C14.987 8.34874 15.0319 8.01663 14.955 7.70197C14.9148 7.53364 14.8326 7.37825 14.7161 7.25034C14.5995 7.12243 14.4524 7.02618 14.2885 6.97061V5.14748C14.2885 4.01033 13.8368 2.91976 13.0327 2.11568C12.2287 1.31159 11.1381 0.859863 10.0009 0.859863C8.86378 0.859863 7.77321 1.31159 6.96913 2.11568C6.16504 2.91976 5.71331 4.01033 5.71331 5.14748V6.97018C5.54908 7.02559 5.40161 7.12183 5.28477 7.24986C5.16793 7.3779 5.08554 7.53352 5.04534 7.70213C4.96844 8.01679 5.0133 8.3489 5.17093 8.63188C5.32856 8.91487 5.58732 9.12782 5.89534 9.22807L6.05769 9.78666C6.16423 10.3424 6.38714 10.8693 6.71178 11.3328C7.03642 11.7963 7.45544 12.1859 7.94132 12.476V13.7384L5.17452 14.6353C4.40175 14.8858 3.81577 15.4892 3.60702 16.2493C3.5989 16.2789 3.59133 16.3087 3.58433 16.3387C3.54619 16.5069 3.52767 16.679 3.52913 16.8514V18.8669C3.52913 18.9394 3.55794 19.0089 3.60922 19.0602C3.6605 19.1115 3.73005 19.1403 3.80257 19.1403V19.1403ZM10.3472 5.22666C10.696 5.59775 11.7914 6.58307 13.7417 6.78346V6.92408C12.9862 6.90553 10.7525 6.73986 8.9787 5.48303L9.0032 5.47982C9.45577 5.42184 9.90453 5.33731 10.3472 5.22666V5.22666ZM6.26019 5.1474C6.26019 4.1553 6.6543 3.20382 7.35583 2.5023C8.05735 1.80077 9.00882 1.40666 10.0009 1.40666C10.993 1.40666 11.9445 1.80077 12.646 2.5023C13.3476 3.20382 13.7417 4.1553 13.7417 5.1474V6.23275C12.3095 6.07021 11.3919 5.43588 10.9558 5.05123C11.6872 4.81123 12.3102 4.49568 12.8179 4.10635C12.8755 4.06221 12.9131 3.99703 12.9226 3.92512C12.9321 3.85322 12.9126 3.7805 12.8685 3.72295C12.8244 3.6654 12.7592 3.62774 12.6873 3.61825C12.6154 3.60876 12.5427 3.62823 12.4851 3.67236C11.4475 4.46818 9.98581 4.79889 8.94238 4.93619C8.25822 5.02742 7.5678 5.06318 6.87788 5.0431C6.84189 5.04126 6.80589 5.04655 6.77195 5.05867C6.73801 5.07078 6.7068 5.08949 6.68012 5.11371C6.65343 5.13793 6.6318 5.16719 6.61646 5.1998C6.60112 5.23241 6.59238 5.26773 6.59074 5.30373L6.52433 6.76127C6.52266 6.80694 6.50899 6.85137 6.4847 6.89008C6.46041 6.9288 6.42636 6.96044 6.38597 6.98182C6.34728 7.00271 6.30411 7.01393 6.26015 7.01451L6.26019 5.1474ZM6.59257 9.67197C6.59093 9.66326 6.58886 9.65463 6.5864 9.64615L6.38538 8.95475C6.37577 8.89926 6.34925 8.84809 6.30946 8.80824C6.26968 8.76839 6.21855 8.74179 6.16308 8.73209C6.06396 8.71447 5.96951 8.67672 5.88555 8.62116C5.8016 8.56561 5.72992 8.49344 5.67495 8.4091C5.61998 8.32476 5.58288 8.23005 5.56594 8.13082C5.549 8.03158 5.55259 7.92992 5.57648 7.83213C5.59551 7.74896 5.63665 7.67246 5.69554 7.61072C5.75444 7.54898 5.8289 7.50429 5.91109 7.48135C6.03192 7.53903 6.16515 7.56589 6.29888 7.55955C6.43262 7.55321 6.56271 7.51385 6.67754 7.445C6.79237 7.37615 6.88837 7.27993 6.95696 7.16495C7.02556 7.04997 7.06462 6.91979 7.07066 6.78603L7.12484 5.59607C7.36074 5.59822 7.73394 5.59389 8.19085 5.56131C9.41019 6.60701 10.9073 7.07088 11.9601 7.27615C13.123 7.50295 13.9893 7.47279 14.0256 7.47146C14.0317 7.47123 14.0377 7.47049 14.0436 7.46986C14.1354 7.4866 14.2203 7.52981 14.2878 7.59418C14.3554 7.65854 14.4026 7.74126 14.4237 7.83213C14.4476 7.92993 14.4512 8.03159 14.4343 8.13084C14.4174 8.23008 14.3803 8.3248 14.3253 8.40915C14.2703 8.4935 14.1987 8.56568 14.1147 8.62123C14.0307 8.67679 13.9363 8.71455 13.8371 8.73217C13.7817 8.74187 13.7305 8.76847 13.6908 8.80832C13.651 8.84817 13.6245 8.89934 13.6148 8.95482L13.4138 9.64623C13.4114 9.65471 13.4093 9.66334 13.4077 9.67205C13.2582 10.4665 12.8359 11.1838 12.2137 11.6999C11.5915 12.2161 10.8085 12.4985 10.0001 12.4985C9.19171 12.4985 8.40871 12.2161 7.7865 11.6999C7.16429 11.1838 6.74197 10.4665 6.59257 9.67205V9.67197ZM10.0001 13.0456C10.5185 13.0458 11.0321 12.9452 11.5121 12.7494V13.7728C11.0398 13.9977 10.5232 14.1144 10.0001 14.1144C9.47698 14.1144 8.96044 13.9977 8.48812 13.7728V12.7494C8.96816 12.9452 9.48168 13.0458 10.0001 13.0456ZM4.07601 16.8514C4.07462 16.7208 4.08833 16.5905 4.11687 16.4631C4.12226 16.4399 4.12809 16.417 4.13437 16.3942C4.29421 15.8121 4.74613 15.349 5.3432 15.1554L8.18632 14.2336C8.74963 14.5147 9.37056 14.661 10.0001 14.661C10.6297 14.661 11.2506 14.5147 11.8139 14.2336L14.657 15.1554C15.2541 15.349 15.706 15.8121 15.8659 16.3942C15.8721 16.417 15.8779 16.4399 15.8833 16.4631C15.9119 16.5905 15.9256 16.7208 15.9242 16.8514V18.5934H4.07601V16.8514Z" fill="#003761"/>
</svg>
