<svg width="20" height="20" id="Layer_1" data-name="Layer 1"
  xmlns="http://www.w3.org/2000/svg" viewBox="0 0 512 512">
  <defs>
    <style>.cls-1{fill:#ED7172;}</style>
  </defs>
  <title>patientNotSeen (1)</title>
  <g id="Layer_35" data-name="Layer 35">
    <path class="cls-1" d="M380.87,110H319.58a12.15,12.15,0,0,0-12.14,12.13V189a27.09,27.09,0,0,0,22.72,26.76v5a20,20,0,0,0,15.55,19.6V346.44a15.93,15.93,0,0,1-15.87,15.87H317.09V346.44c-.62-42-31.73-50.71-59.11-58.17-4.05-1.25-8.09-2.18-11.82-3.43v-9.95a60.74,60.74,0,0,0,28.62-39.2h5.29A19.85,19.85,0,0,0,300,215.78a20,20,0,0,0-19.91-19.91h-3.74v-3.74a61,61,0,0,0-121.95,0v3.74h-3.74a19.85,19.85,0,0,0-19.91,19.91,20.05,20.05,0,0,0,19.91,19.91h5.29a60.72,60.72,0,0,0,28.63,39.2v9.95c-4.05,1.25-8.09,2.49-11.83,3.43-28,7.46-59.11,16.17-59.73,58.17v38.89a4.79,4.79,0,0,0,4.67,4.67H312.11a4.79,4.79,0,0,0,4.67-4.67V372h12.75a25.1,25.1,0,0,0,25.2-25.2V240.67a20,20,0,0,0,15.56-19.6v-5.29A27.38,27.38,0,0,0,393,189V122.13A12.35,12.35,0,0,0,380.87,110ZM279.76,204.58a10.58,10.58,0,0,1,0,21.15h-4.05c0-1.24.31-2.8.31-4V204.27h3.74Zm-17.43-33.29H233.71L202,141.42a57.42,57.42,0,0,1,12.75-1.55,51.69,51.69,0,0,1,47.6,31.42Zm-70-26.13,28,26.13H167.44C172.11,159.78,181.13,150.76,192.33,145.16Zm-29.24,46.35a41.92,41.92,0,0,1,1.24-10.89H265.44a60.68,60.68,0,0,1,1.25,10.89v3.73H163.09ZM150,226a10.58,10.58,0,1,1,0-21.15h3.74V222a17.76,17.76,0,0,0,.31,4Zm13.07-4V204.58h103.6V222A51.71,51.71,0,0,1,215,273.64c-28.31,0-51.95-23-51.95-51.64Zm51.64,61a64.3,64.3,0,0,0,21.78-4.05v8.71a21.78,21.78,0,1,1-43.55,0v-8.71A58.7,58.7,0,0,0,214.73,283Zm92.71,97.69H122.33V346.44C123,311.6,146.91,304.76,174.6,297c3.42-.94,6.53-1.87,10-2.8a31.11,31.11,0,0,0,61,0c3.43.93,6.54,1.86,10,2.8,27.69,7.78,51.64,14.62,52.27,49.46v34.23ZM350.07,232a11,11,0,0,1-10.89-10.89V216.4H361v4.67A10.83,10.83,0,0,1,350.07,232ZM383.67,189a18.06,18.06,0,0,1-18.05,18H334.51a18.06,18.06,0,0,1-18-18V122.13a2.79,2.79,0,0,1,2.8-2.8h61c2.18,0,3.43,1.25,3.43,2.8Z"/>
    <path class="cls-1" d="M364.69,158.53H355v-9.64a4.67,4.67,0,1,0-9.33,0v9.64h-9.64a4.67,4.67,0,0,0,0,9.34h9.64v9.64a4.67,4.67,0,1,0,9.33,0v-9.64h9.65a4.67,4.67,0,1,0,0-9.34Z"/>
  </g>
  <path class="cls-1" d="M253,25C128.18,25,27,126.18,27,251S128.18,477,253,477,479,375.82,479,251,377.82,25,253,25Zm0,435.31C137.4,460.31,43.69,366.6,43.69,251S137.4,41.69,253,41.69,462.31,135.4,462.31,251,368.6,460.31,253,460.31Z"/>
  <rect class="cls-1" x="239.84" y="31.7" width="21.5" height="439.07" transform="translate(604.89 270.82) rotate(138.09)"/>
</svg>