<svg width="85" height="18" viewBox="0 0 85 18" fill="none" xmlns="http://www.w3.org/2000/svg">
<path d="M14.9578 12.7895H13.5989L10.1131 7.24115V12.7895H8.75418V4.96918H10.1131L13.6096 10.539V4.96918H14.9578V12.7895ZM23.025 9.08344C23.025 9.84971 22.8925 10.5229 22.6275 11.103C22.3625 11.6795 21.983 12.1235 21.4888 12.435C20.9983 12.7429 20.4325 12.8969 19.7916 12.8969C19.1578 12.8969 18.592 12.7429 18.0943 12.435C17.6002 12.1235 17.217 11.6813 16.9449 11.1083C16.6763 10.5354 16.5403 9.87478 16.5367 9.1264V8.68597C16.5367 7.92328 16.671 7.2501 16.9395 6.66644C17.2116 6.08278 17.593 5.63698 18.0836 5.32904C18.5777 5.01752 19.1435 4.86176 19.7808 4.86176C20.4182 4.86176 20.9822 5.01573 21.4727 5.32367C21.9669 5.62803 22.3482 6.06846 22.6168 6.64496C22.8853 7.21788 23.0214 7.88568 23.025 8.64838V9.08344ZM21.6661 8.67523C21.6661 7.8087 21.5014 7.14447 21.1719 6.68256C20.8461 6.22064 20.3824 5.98969 19.7808 5.98969C19.1936 5.98969 18.7335 6.22064 18.4004 6.68256C18.071 7.14089 17.9027 7.79079 17.8956 8.63226V9.08344C17.8956 9.94281 18.0621 10.607 18.3951 11.0761C18.7317 11.5452 19.1972 11.7797 19.7916 11.7797C20.3931 11.7797 20.855 11.5506 21.1773 11.0922C21.5032 10.6339 21.6661 9.96429 21.6661 9.08344V8.67523ZM29.787 6.06488H27.3485V12.7895H26.0003V6.06488H23.5833V4.96918H29.787V6.06488ZM38.0526 10.9687H35.0233L34.3896 12.7895H32.977L35.9311 4.96918H37.1503L40.1098 12.7895H38.6918L38.0526 10.9687ZM35.4047 9.87299H37.6713L36.538 6.62885L35.4047 9.87299ZM44.0949 9.77631H42.5803V12.7895H41.2214V4.96918H43.9714C44.8737 4.96918 45.5702 5.17149 46.0607 5.57611C46.5513 5.98073 46.7966 6.56618 46.7966 7.33246C46.7966 7.85524 46.6694 8.29388 46.4152 8.64838C46.1646 8.99929 45.8137 9.26963 45.3625 9.45941L47.1188 12.7197V12.7895H45.6633L44.0949 9.77631ZM42.5803 8.68597H43.9767C44.4351 8.68597 44.7931 8.57139 45.051 8.34222C45.3088 8.10948 45.4377 7.79258 45.4377 7.39154C45.4377 6.9726 45.3177 6.64854 45.0778 6.41937C44.8415 6.19021 44.487 6.07204 44.0143 6.06488H42.5803V8.68597ZM51.1792 9.77631H49.6645V12.7895H48.3056V4.96918H51.0556C51.958 4.96918 52.6544 5.17149 53.145 5.57611C53.6355 5.98073 53.8808 6.56618 53.8808 7.33246C53.8808 7.85524 53.7537 8.29388 53.4995 8.64838C53.2488 8.99929 52.8979 9.26963 52.4467 9.45941L54.2031 12.7197V12.7895H52.7475L51.1792 9.77631ZM49.6645 8.68597H51.061C51.5193 8.68597 51.8774 8.57139 52.1352 8.34222C52.393 8.10948 52.5219 7.79258 52.5219 7.39154C52.5219 6.9726 52.402 6.64854 52.1621 6.41937C51.9257 6.19021 51.5713 6.07204 51.0986 6.06488H49.6645V8.68597ZM56.824 12.7895H55.4704V4.96918H56.824V12.7895ZM61.4697 11.0869L63.4571 4.96918H64.9502L62.1358 12.7895H60.8198L58.0161 4.96918H59.5039L61.4697 11.0869ZM70.6272 9.29828H67.4153V11.7045H71.1697V12.7895H66.0564V4.96918H71.1321V6.06488H67.4153V8.22406H70.6272V9.29828ZM72.4962 12.7895V4.96918H74.8057C75.4968 4.96918 76.1091 5.12315 76.6427 5.43109C77.1798 5.73903 77.5951 6.17588 77.8887 6.74164C78.1824 7.30739 78.3292 7.95551 78.3292 8.68597V9.07806C78.3292 9.81927 78.1806 10.471 77.8834 11.0331C77.5898 11.5953 77.169 12.0286 76.6212 12.3329C76.0769 12.6373 75.4521 12.7895 74.7467 12.7895H72.4962ZM73.8551 6.06488V11.7045H74.7413C75.4539 11.7045 75.9999 11.4825 76.3795 11.0385C76.7626 10.5909 76.9578 9.94997 76.9649 9.11566V8.6806C76.9649 7.83197 76.7805 7.18386 76.4117 6.73627C76.0429 6.28868 75.5076 6.06488 74.8057 6.06488H73.8551Z" fill="#F40505"/>
<rect width="85" height="18" rx="5" fill="#F40505" fill-opacity="0.15"/>
</svg>
