<svg width="18" height="18" viewBox="0 0 18 18" fill="none" xmlns="http://www.w3.org/2000/svg">
<path d="M15.929 7.063C15.6207 6.71021 15.1841 6.49532 14.7165 6.46618C14.602 6.45893 14.4869 6.46249 14.373 6.4766V4.43051C14.3743 4.31898 14.3308 4.21154 14.2523 4.13217L10.7849 0.672154C10.7835 0.670572 10.7826 0.669253 10.7811 0.667803C10.7021 0.586197 10.5932 0.539923 10.4795 0.540055C10.4659 0.540055 10.4527 0.548756 10.4394 0.550074C10.4258 0.548756 10.4124 0.556007 10.3988 0.556007H3.11357C2.19072 0.550865 1.43874 1.29508 1.43359 2.21792V15.7016C1.43359 16.6377 2.17767 17.4151 3.11357 17.4151H12.682C13.6181 17.4151 14.373 16.6377 14.373 15.7016V10.9507L15.8565 9.64579C16.5824 9.00428 16.6546 7.89726 16.0183 7.16676L15.929 7.063ZM13.749 10.383C13.6996 10.4114 13.6564 10.4493 13.6222 10.4948L12.6632 11.3403L10.2985 13.4105L8.66568 13.5037L8.99791 11.9312L12.9526 8.45439L14.2523 9.93912L13.749 10.383ZM10.9168 1.97719L12.9477 4.01207H10.9168V1.97719ZM13.53 15.7016C13.53 16.1728 13.1532 16.5722 12.682 16.5722H3.11357C2.64252 16.5722 2.27655 16.1728 2.27655 15.7016V2.2373C2.27035 1.78062 2.6354 1.40529 3.09235 1.39896H10.0738V4.43948C10.0671 4.66228 10.2423 4.8483 10.4651 4.85502H13.53V6.82451C13.4971 6.84627 13.4669 6.87158 13.44 6.90045L12.7778 7.48408C12.7265 7.51322 12.682 7.55264 12.6471 7.6001L8.3361 11.3904C8.2678 11.4503 8.22087 11.5309 8.20202 11.6198L7.72715 13.8687C7.70078 13.9931 7.73203 14.1227 7.81205 14.2213C7.89207 14.32 8.01244 14.3774 8.1394 14.3774C8.14744 14.3774 8.15548 14.3771 8.16352 14.3767L10.4911 14.2438C10.5847 14.2384 10.6742 14.2018 10.7447 14.1401L13.1639 12.0192L13.53 11.6937V15.7016ZM15.3021 9.01351L14.8849 9.38146L13.5859 7.89792L14 7.53392C14.3802 7.19958 14.9595 7.23676 15.2938 7.61711L15.295 7.61856L15.386 7.72231C15.7173 8.10252 15.68 8.67917 15.3021 9.01351Z" fill="#003761"/>
<path d="M4.28671 6.45671H7.66183C7.89465 6.45671 8.0833 6.26792 8.0833 6.03523C8.0833 5.80241 7.89465 5.61375 7.66183 5.61375H4.28671C4.05389 5.61375 3.86523 5.80241 3.86523 6.03523C3.86523 6.26792 4.05389 6.45671 4.28671 6.45671Z" fill="#003761"/>
<path d="M10.0382 8.77466C10.0382 8.54197 9.8495 8.35318 9.61668 8.35318H4.28671C4.05389 8.35318 3.86523 8.54197 3.86523 8.77466C3.86523 9.00734 4.05389 9.19613 4.28671 9.19613H9.61668C9.8495 9.19613 10.0382 9.00734 10.0382 8.77466Z" fill="#003761"/>
</svg>
