<svg width="18" height="18" viewBox="0 0 18 18" fill="none" xmlns="http://www.w3.org/2000/svg">
<path d="M9.87891 7.3125H10.6172V8.08594C10.6173 8.16983 10.6506 8.25025 10.71 8.30957C10.7693 8.36889 10.8497 8.40225 10.9336 8.40234H11.5664C11.6503 8.40225 11.7307 8.36889 11.79 8.30957C11.8494 8.25025 11.8827 8.16983 11.8828 8.08594V7.3125H12.6211C12.705 7.31241 12.7854 7.27904 12.8447 7.21972C12.904 7.16041 12.9374 7.07998 12.9375 6.99609V6.36328C12.9374 6.27939 12.904 6.19897 12.8447 6.13965C12.7854 6.08033 12.705 6.04697 12.6211 6.04688H11.8828V5.34375C11.8827 5.25986 11.8494 5.17944 11.79 5.12012C11.7307 5.0608 11.6503 5.02744 11.5664 5.02734H10.9336C10.8497 5.02744 10.7693 5.0608 10.71 5.12012C10.6506 5.17944 10.6173 5.25986 10.6172 5.34375V6.04688H9.87891C9.79502 6.04697 9.71459 6.08033 9.65528 6.13965C9.59596 6.19897 9.56259 6.27939 9.5625 6.36328V6.99609C9.56259 7.07998 9.59596 7.16041 9.65528 7.21972C9.71459 7.27904 9.79502 7.31241 9.87891 7.3125ZM10.0547 6.53906H10.793C10.8769 6.53897 10.9573 6.5056 11.0166 6.44629C11.0759 6.38697 11.1093 6.30654 11.1094 6.22266V5.51953H11.3906V6.22266C11.3907 6.30654 11.4241 6.38697 11.4834 6.44629C11.5427 6.5056 11.6231 6.53897 11.707 6.53906H12.4453V6.82031H11.707C11.6231 6.82041 11.5427 6.85377 11.4834 6.91309C11.4241 6.97241 11.3907 7.05283 11.3906 7.13672V7.91016H11.1094V7.13672C11.1093 7.05283 11.0759 6.97241 11.0166 6.91309C10.9573 6.85377 10.8769 6.82041 10.793 6.82031H10.0547V6.53906Z" fill="#003761"/>
<path d="M12.4938 17.332C12.7313 17.3327 12.9659 17.279 13.1795 17.1752C13.3932 17.0714 13.5803 16.9201 13.7265 16.7329C14.0112 16.3793 14.168 15.912 14.168 15.4173V4.63566C14.168 3.60351 13.4795 2.88281 12.4938 2.88281H11.9649L11.9133 2.74812C11.9127 2.7464 11.912 2.74461 11.9113 2.74302C11.689 2.19838 11.2947 1.89843 10.8011 1.89843H10.1961C10.1663 1.64568 10.0448 1.41265 9.8546 1.24354C9.6644 1.07444 9.41875 0.981026 9.16425 0.981026C8.90975 0.981026 8.6641 1.07444 8.4739 1.24354C8.28371 1.41265 8.16219 1.64568 8.13241 1.89843H7.5273C7.03983 1.89843 6.64625 2.20362 6.41869 2.758L6.36268 2.88281H5.83457C5.33988 2.88543 4.86057 3.05502 4.4743 3.36409C4.06012 3.69998 3.83203 4.15156 3.83203 4.63566V15.4173C3.83203 16.4016 4.80523 17.332 5.83457 17.332H12.4938ZM6.86953 2.95579C6.87066 2.95322 6.87175 2.95066 6.8728 2.94802C7.02369 2.57818 7.24395 2.39062 7.5273 2.39062H8.3816C8.41726 2.39062 8.4525 2.38287 8.48487 2.3679C8.51724 2.35293 8.54598 2.33111 8.56908 2.30394C8.59218 2.27677 8.6091 2.24491 8.61867 2.21055C8.62824 2.1762 8.63023 2.14017 8.6245 2.10497C8.61981 2.07644 8.61745 2.04758 8.61747 2.01866C8.61747 1.87368 8.67506 1.73463 8.77758 1.6321C8.88011 1.52958 9.01916 1.47199 9.16414 1.47199C9.30913 1.47199 9.44818 1.52958 9.55071 1.6321C9.65323 1.73463 9.71082 1.87368 9.71082 2.01866C9.71081 2.04765 9.70846 2.07658 9.70379 2.10518C9.69809 2.14038 9.70011 2.17639 9.7097 2.21073C9.71929 2.24506 9.73623 2.27691 9.75934 2.30405C9.78245 2.3312 9.81118 2.353 9.84355 2.36795C9.87591 2.38289 9.91114 2.39063 9.94679 2.39062H10.8011C11.0929 2.39062 11.3068 2.56594 11.4546 2.92661L11.5584 3.19784L11.5599 3.20153L11.5687 3.22347L11.5694 3.22523L11.8128 3.83202H6.51262L6.76705 3.18388L6.86953 2.95579ZM4.32422 15.4173V4.63566C4.32422 3.89274 5.12019 3.37499 5.83457 3.37499H6.16328L5.99804 3.79613C5.97502 3.85476 5.96666 3.91812 5.9737 3.98071C5.98074 4.04331 6.00296 4.10323 6.03844 4.15528C6.07391 4.20733 6.12156 4.24992 6.17724 4.27937C6.23292 4.30881 6.29495 4.3242 6.35794 4.32421H11.9689C12.0321 4.32422 12.0944 4.30872 12.1503 4.27906C12.2061 4.2494 12.2539 4.20649 12.2893 4.15409C12.3247 4.10169 12.3468 4.04141 12.3535 3.97851C12.3602 3.91562 12.3514 3.85204 12.3278 3.79335L12.1598 3.37499H12.4938C13.2117 3.37499 13.6758 3.86982 13.6758 4.63566V15.4173C13.6758 16.3413 13.0668 16.8398 12.4938 16.8398H5.83457C5.07231 16.8398 4.32422 16.1352 4.32422 15.4173Z" fill="#003761"/>
<path d="M5.13281 11.1094H10.9336C10.9989 11.1094 11.0615 11.0834 11.1076 11.0373C11.1538 10.9911 11.1797 10.9285 11.1797 10.8633C11.1797 10.798 11.1538 10.7354 11.1076 10.6893C11.0615 10.6431 10.9989 10.6172 10.9336 10.6172H5.13281C5.06754 10.6172 5.00495 10.6431 4.9588 10.6893C4.91265 10.7354 4.88672 10.798 4.88672 10.8633C4.88672 10.9285 4.91265 10.9911 4.9588 11.0373C5.00495 11.0834 5.06754 11.1094 5.13281 11.1094Z" fill="#003761"/>
<path d="M13.1484 15.1172C13.1484 15.0519 13.1225 14.9893 13.0764 14.9432C13.0302 14.897 12.9676 14.8711 12.9023 14.8711H5.13281C5.06754 14.8711 5.00495 14.897 4.9588 14.9432C4.91265 14.9893 4.88672 15.0519 4.88672 15.1172C4.88672 15.1825 4.91265 15.2451 4.9588 15.2912C5.00495 15.3374 5.06754 15.3633 5.13281 15.3633H12.9023C12.9676 15.3633 13.0302 15.3374 13.0764 15.2912C13.1225 15.2451 13.1484 15.1825 13.1484 15.1172Z" fill="#003761"/>
<path d="M5.13281 12.5508H8.96484C9.03011 12.5508 9.09271 12.5249 9.13886 12.4787C9.18501 12.4326 9.21094 12.37 9.21094 12.3047C9.21094 12.2394 9.18501 12.1768 9.13886 12.1307C9.09271 12.0845 9.03011 12.0586 8.96484 12.0586H5.13281C5.06754 12.0586 5.00495 12.0845 4.9588 12.1307C4.91265 12.1768 4.88672 12.2394 4.88672 12.3047C4.88672 12.37 4.91265 12.4326 4.9588 12.4787C5.00495 12.5249 5.06754 12.5508 5.13281 12.5508Z" fill="#003761"/>
<path d="M5.13281 9.66797H7.41797C7.48324 9.66797 7.54583 9.64204 7.59198 9.59589C7.63813 9.54974 7.66406 9.48714 7.66406 9.42188C7.66406 9.35661 7.63813 9.29401 7.59198 9.24786C7.54583 9.20171 7.48324 9.17578 7.41797 9.17578H5.13281C5.06754 9.17578 5.00495 9.20171 4.9588 9.24786C4.91265 9.29401 4.88672 9.35661 4.88672 9.42188C4.88672 9.48714 4.91265 9.54974 4.9588 9.59589C5.00495 9.64204 5.06754 9.66797 5.13281 9.66797Z" fill="#003761"/>
<path d="M5.13281 13.9219H10.1602C10.2254 13.9219 10.288 13.8959 10.3342 13.8498C10.3803 13.8036 10.4062 13.741 10.4062 13.6758C10.4062 13.6105 10.3803 13.5479 10.3342 13.5018C10.288 13.4556 10.2254 13.4297 10.1602 13.4297H5.13281C5.06754 13.4297 5.00495 13.4556 4.9588 13.5018C4.91265 13.5479 4.88672 13.6105 4.88672 13.6758C4.88672 13.741 4.91265 13.8036 4.9588 13.8498C5.00495 13.8959 5.06754 13.9219 5.13281 13.9219Z" fill="#003761"/>
</svg>
