<svg width="18" height="18" viewBox="0 0 18 18" fill="none" xmlns="http://www.w3.org/2000/svg">
<g clip-path="url(#clip0_2001_30187)">
<path d="M12.3 12.8999H12C11.9205 12.8999 11.8441 12.9315 11.7879 12.9878L9 15.7757L6.21211 12.9878C6.15586 12.9315 6.07954 12.8999 6 12.8999L5.66997 12.9014C2.01357 13.2671 0 14.9699 0 17.6999C0 17.8656 0.134326 17.9999 0.3 17.9999C0.465674 17.9999 0.6 17.8656 0.6 17.6999C0.6 15.0154 2.7624 13.9832 4.8564 13.6161L4.53149 14.2659C4.45737 14.4141 4.51758 14.5944 4.66597 14.6684L5.7 15.1854V16.1999C5.7 16.3325 5.78701 16.4492 5.91387 16.4873L8.7 17.3231V17.6999C8.7 17.8656 8.83433 17.9999 9 17.9999C9.16567 17.9999 9.3 17.8656 9.3 17.6999V17.3231L12.0861 16.4873C12.213 16.4492 12.3 16.3325 12.3 16.1999V15.1854L13.334 14.6699C13.4824 14.5959 13.5426 14.4156 13.4685 14.2673L13.1448 13.6199C15.252 13.99 17.4 15.0248 17.4 17.6999C17.4 17.8656 17.5343 17.9999 17.7 17.9999C17.8657 17.9999 18 17.8656 18 17.6999C18 14.9699 15.9864 13.2671 12.3 12.8999ZM6.3 15.9767V14.9999C6.30059 14.8856 6.23628 14.7809 6.13403 14.7299L5.20254 14.2643L5.57827 13.5143C5.6187 13.5099 5.65986 13.5039 5.7 13.4999H5.87578L8.7 16.3241V16.6966L6.3 15.9767ZM12.7975 14.2667L11.866 14.7323C11.7645 14.783 11.7003 14.8865 11.7 14.9999V15.9767L9.3 16.6966V16.3241L12.1251 13.4999H12.27C12.3204 13.505 12.3721 13.5122 12.4228 13.5179L12.7975 14.2667Z" fill="#B0A8A8"/>
<path d="M3.41547 10.4367C4.52817 11.2563 5.82997 11.781 7.20004 11.9619V12.9C7.20004 13.0657 7.33437 13.2 7.50004 13.2C7.66571 13.2 7.80004 13.0657 7.80004 12.9V11.9811C8.17358 12.1695 8.58227 12.2782 9.00004 12.3C9.41781 12.2782 9.82651 12.1695 10.2 11.9811V12.9C10.2 13.0657 10.3344 13.2 10.5 13.2C10.6657 13.2 10.8 13.0657 10.8 12.9V11.9619C12.1703 11.781 13.4722 11.2562 14.5849 10.4364C15.2955 9.8811 15.0787 7.75708 13.8813 3.55078C13.8541 3.45425 13.8321 3.37764 13.8156 3.3186L14.3788 1.91133C14.4343 1.77261 14.3795 1.61411 14.25 1.53955C12.0129 0.261914 10.5333 0 9.00004 0C7.46679 0 5.98715 0.261914 3.75004 1.53955C3.62011 1.61382 3.56474 1.77231 3.62011 1.91133L4.18319 3.3186C4.16679 3.37866 4.14482 3.45425 4.11757 3.55078C2.92138 7.75708 2.70458 9.8811 3.41547 10.4367ZM5.70004 8.4V6.79717C7.35575 6.51694 8.9561 5.97363 10.44 5.1876C10.7874 5.57754 11.5704 6.39624 12.3 6.74033V8.4C12.3 10.1725 10.0867 11.7 9.00004 11.7C7.91342 11.7 5.70004 10.1725 5.70004 8.4ZM4.50004 7.5C4.50004 7.16865 4.76869 6.9 5.10004 6.9V8.1C4.76869 8.1 4.50004 7.83135 4.50004 7.5ZM12.9 6.9C13.2314 6.9 13.5 7.16865 13.5 7.5C13.5 7.83135 13.2314 8.1 12.9 8.1V6.9ZM9.00004 0.6C10.3858 0.6 11.7301 0.831006 13.7239 1.93257L12.75 4.36436C11.5527 3.74311 9.67709 3.6 9.00004 3.6C8.32299 3.6 6.4474 3.74311 5.25004 4.36436L4.27621 1.93257C6.27001 0.831006 7.6143 0.6 9.00004 0.6ZM4.82128 4.91133C4.85497 4.9957 4.92514 5.0603 5.012 5.08696C5.09887 5.11362 5.1932 5.09941 5.26835 5.04844C6.18183 4.43042 8.04218 4.2 9.00004 4.2C9.9579 4.2 11.8183 4.43042 12.7317 5.04844C12.8069 5.09941 12.9012 5.11362 12.9881 5.08696C13.0749 5.0603 13.1451 4.9957 13.1788 4.91133L13.4488 4.23384C14.778 9.05303 14.3751 9.83789 14.2146 9.96387C13.3571 10.5908 12.378 11.0316 11.34 11.2581C12.12 10.6173 12.7689 9.72451 12.8781 8.7H12.9C13.5627 8.7 14.1 8.16269 14.1 7.5C14.1 6.8373 13.5627 6.3 12.9 6.3C12.3478 6.3 11.2761 5.26201 10.7305 4.60767C10.6323 4.49004 10.4614 4.46528 10.3338 4.5501C10.3165 4.56182 8.53378 5.72373 5.05053 6.30425C4.38901 6.31787 3.86371 6.86528 3.87734 7.52681C3.8911 8.18848 4.43852 8.71362 5.10004 8.7H5.12157C5.23085 9.72451 5.8789 10.6173 6.65981 11.2581C5.62182 11.0314 4.64257 10.5905 3.7849 9.96357C3.62406 9.83789 3.22109 9.05303 4.55043 4.23354L4.82128 4.91133Z" fill="#B0A8A8"/>
<path d="M9.71161 9.66637C9.28739 9.97619 8.71142 9.97619 8.2872 9.66637C8.20414 9.5946 8.08857 9.5738 7.98588 9.61232C7.88305 9.65085 7.80951 9.7424 7.79399 9.85094C7.77861 9.95964 7.82372 10.068 7.91161 10.1337C8.5538 10.6245 9.44501 10.6245 10.0872 10.1337C10.1751 10.068 10.2202 9.95964 10.2048 9.85094C10.1893 9.7424 10.1158 9.65085 10.0129 9.61232C9.91024 9.5738 9.79467 9.5946 9.71161 9.66637Z" fill="#B0A8A8"/>
<path d="M11.3992 7.4999C11.3992 7.83125 11.1306 8.0999 10.7992 8.0999C10.4679 8.0999 10.1992 7.83125 10.1992 7.4999C10.1992 7.16855 10.4679 6.8999 10.7992 6.8999C11.1306 6.8999 11.3992 7.16855 11.3992 7.4999Z" fill="#B0A8A8"/>
<path d="M7.79961 7.4999C7.79961 7.83125 7.53096 8.0999 7.19961 8.0999C6.86826 8.0999 6.59961 7.83125 6.59961 7.4999C6.59961 7.16855 6.86826 6.8999 7.19961 6.8999C7.53096 6.8999 7.79961 7.16855 7.79961 7.4999Z" fill="#B0A8A8"/>
<path d="M8.39961 2.39995H8.69961V2.69995C8.69961 2.86562 8.83394 2.99995 8.99961 2.99995C9.16528 2.99995 9.29961 2.86562 9.29961 2.69995V2.39995H9.59961C9.76528 2.39995 9.89961 2.26562 9.89961 2.09995C9.89961 1.93428 9.76528 1.79995 9.59961 1.79995H9.29961V1.49995C9.29961 1.33428 9.16528 1.19995 8.99961 1.19995C8.83394 1.19995 8.69961 1.33428 8.69961 1.49995V1.79995H8.39961C8.23394 1.79995 8.09961 1.93428 8.09961 2.09995C8.09961 2.26562 8.23394 2.39995 8.39961 2.39995Z" fill="#B0A8A8"/>
</g>
<defs>
<clipPath id="clip0_2001_30187">
<rect width="18" height="18" fill="white"/>
</clipPath>
</defs>
</svg>
