<svg width="27" height="27" viewBox="0 0 27 27" fill="none" xmlns="http://www.w3.org/2000/svg">
<path d="M20.9046 3.4813H18.3428L18.0504 2.89665C17.8272 2.4502 17.3808 2.17382 16.8811 2.17382H16.4187C16.0414 0.898228 14.8668 0 13.5008 0C12.1349 0 10.9603 0.898228 10.5829 2.17913H10.1205C9.62092 2.17913 9.17446 2.45551 8.95123 2.90197L8.65891 3.48661H6.0971C4.89592 3.48661 3.91797 4.46457 3.91797 5.66575V24.8209C3.91797 26.022 4.89592 27 6.0971 27H20.9046C22.1057 27 23.0837 26.022 23.0837 24.8209V5.66043C23.0837 4.45925 22.1057 3.4813 20.9046 3.4813ZM9.18509 4.38484L9.73253 3.28996C9.80694 3.14114 9.95576 3.05079 10.1205 3.05079H11.2951L11.3536 2.68937C11.529 1.63701 12.4325 0.876969 13.4955 0.876969C14.5585 0.876969 15.4621 1.64232 15.6374 2.68937L15.7012 3.05079H16.8758C17.0406 3.05079 17.1894 3.14114 17.2638 3.28996L17.8113 4.38484C17.875 4.5124 17.8432 4.77815 17.5615 4.79409H9.42958C9.27013 4.78878 9.08411 4.62933 9.18509 4.38484ZM22.212 24.8209C22.212 25.5437 21.6274 26.1283 20.9046 26.1283H6.0971C5.37427 26.1283 4.78962 25.5437 4.78962 24.8209V5.66043C4.78962 4.9376 5.37427 4.35295 6.0971 4.35295H8.29749C8.17525 5.23524 8.99907 5.71358 9.43489 5.66043H17.5668C18.0132 5.70295 18.8317 5.24587 18.7042 4.35295H20.9046C21.6274 4.35295 22.212 4.9376 22.212 5.66043V24.8209Z" fill="#003761"/>
<path d="M14.8075 8.70591V6.9626H12.1925V8.70591H10.4492V11.3209H12.1925V13.0642H14.8075V11.3209H16.5508V8.70591H14.8075ZM15.6791 10.4492H13.9358V12.1925H13.0642V10.4492H11.3209V9.57756H13.0642V7.83425H13.9358V9.57756H15.6791V10.4492Z" fill="#003761"/>
<path d="M17.065 21.7754H7.53125V22.647H17.065V21.7754Z" fill="#003761"/>
<path d="M18.9833 19H7.53125V19.8717H18.9833V19Z" fill="#003761"/>
<path d="M20 16H7.53125V16.8717H20V16Z" fill="#003761"/>
</svg>
