<svg width="25" height="25" viewBox="0 0 25 25" fill="none" xmlns="http://www.w3.org/2000/svg">
<path d="M17.0833 17.9167H16.6667C16.5562 17.9167 16.4502 17.9606 16.3721 18.0388L12.5 21.9108L8.62793 18.0388C8.5498 17.9606 8.44381 17.9167 8.33333 17.9167L7.87496 17.9187C2.79663 18.4267 0 20.7916 0 24.5834C0 24.8135 0.186564 25 0.416667 25C0.646769 25 0.833333 24.8135 0.833333 24.5834C0.833333 20.8549 3.83667 19.4212 6.745 18.9114L6.29374 19.8139C6.1908 20.0198 6.27441 20.2702 6.48051 20.3729L7.91667 21.0909V22.5C7.91667 22.6841 8.03752 22.8463 8.2137 22.8992L12.0833 24.0601V24.5834C12.0833 24.8135 12.2699 25 12.5 25C12.7301 25 12.9167 24.8135 12.9167 24.5834V24.0601L16.7863 22.8992C16.9625 22.8463 17.0833 22.6841 17.0833 22.5V21.0909L18.5195 20.375C18.7256 20.2722 18.8092 20.0218 18.7063 19.8159L18.2566 18.9166C21.1833 19.4308 24.1667 20.8679 24.1667 24.5834C24.1667 24.8135 24.3532 25 24.5833 25C24.8134 25 25 24.8135 25 24.5834C25 20.7916 22.2034 18.4267 17.0833 17.9167ZM8.75 22.19V20.8334C8.75081 20.6747 8.6615 20.5292 8.51949 20.4584L7.22575 19.8116L7.7476 18.77C7.80375 18.7639 7.86092 18.7555 7.91667 18.75H8.16081L12.0833 22.6725V23.1899L8.75 22.19ZM17.7743 19.8151L16.4805 20.4616C16.3395 20.532 16.2504 20.6759 16.25 20.8334V22.19L12.9167 23.1899V22.6725L16.8404 18.75H17.0416C17.1116 18.7571 17.1834 18.7671 17.2538 18.775L17.7743 19.8151Z" fill="#003761"/>
<path d="M4.74365 14.4954C6.28906 15.6337 8.09713 16.3625 10 16.6138V17.9167C10 18.1468 10.1866 18.3333 10.4167 18.3333C10.6468 18.3333 10.8333 18.1468 10.8333 17.9167V16.6404C11.3521 16.9021 11.9198 17.053 12.5 17.0833C13.0802 17.053 13.6479 16.9021 14.1667 16.6404V17.9167C14.1667 18.1468 14.3532 18.3333 14.5833 18.3333C14.8134 18.3333 15 18.1468 15 17.9167V16.6138C16.9031 16.3625 18.7113 15.6335 20.2568 14.495C21.2437 13.7238 20.9426 10.7737 19.2796 4.93164C19.2417 4.79757 19.2112 4.69116 19.1882 4.60917L19.9705 2.65462C20.0476 2.46195 19.9715 2.24182 19.7917 2.13826C16.6846 0.36377 14.6295 0 12.5 0C10.3705 0 8.31543 0.36377 5.20834 2.13826C5.02787 2.24141 4.95097 2.46155 5.02787 2.65462L5.80994 4.60917C5.78715 4.69259 5.75663 4.79757 5.71879 4.93164C4.05742 10.7737 3.75631 13.7238 4.74365 14.4954ZM7.91667 11.6667V9.44051C10.2163 9.05131 12.439 8.29671 14.4999 7.205C14.9825 7.74658 16.0699 8.88367 17.0833 9.36157V11.6667C17.0833 14.1284 14.0092 16.25 12.5 16.25C10.9908 16.25 7.91667 14.1284 7.91667 11.6667ZM6.25 10.4167C6.25 9.95646 6.62313 9.58333 7.08333 9.58333V11.25C6.62313 11.25 6.25 10.8769 6.25 10.4167ZM17.9167 9.58333C18.3769 9.58333 18.75 9.95646 18.75 10.4167C18.75 10.8769 18.3769 11.25 17.9167 11.25V9.58333ZM12.5 0.833333C14.4246 0.833333 16.2917 1.15417 19.0609 2.68412L17.7083 6.0616C16.0453 5.19877 13.4403 5 12.5 5C11.5597 5 8.95467 5.19877 7.29167 6.0616L5.93913 2.68412C8.70829 1.15417 10.5754 0.833333 12.5 0.833333ZM6.69617 6.82129C6.74296 6.93848 6.84042 7.0282 6.96106 7.06523C7.08171 7.10225 7.21273 7.08252 7.3171 7.01172C8.58582 6.15336 11.1696 5.83333 12.5 5.83333C13.8304 5.83333 16.4142 6.15336 17.6829 7.01172C17.7873 7.08252 17.9183 7.10225 18.0389 7.06523C18.1596 7.0282 18.257 6.93848 18.3038 6.82129L18.6788 5.88033C20.5249 12.5736 19.9654 13.6637 19.7424 13.8387C18.5514 14.7095 17.1916 15.3217 15.7499 15.6362C16.8333 14.7463 17.7346 13.5063 17.8862 12.0833H17.9167C18.8371 12.0833 19.5833 11.3371 19.5833 10.4167C19.5833 9.49626 18.8371 8.75 17.9167 8.75C17.1497 8.75 15.6612 7.30835 14.9034 6.39954C14.7671 6.23616 14.5296 6.20178 14.3524 6.31958C14.3284 6.33586 11.8524 7.94963 7.01457 8.7559C6.09579 8.77482 5.36621 9.53511 5.38513 10.4539C5.40426 11.3729 6.16455 12.1023 7.08333 12.0833H7.11324C7.26502 13.5063 8.16508 14.7463 9.24968 15.6362C7.80803 15.3215 6.44796 14.7091 5.25676 13.8383C5.03337 13.6637 4.47368 12.5736 6.31999 5.87992L6.69617 6.82129Z" fill="#003761"/>
<path d="M13.4893 13.4255C12.9001 13.8558 12.1001 13.8558 11.5109 13.4255C11.3956 13.3258 11.235 13.2969 11.0924 13.3504C10.9496 13.404 10.8475 13.5311 10.8259 13.6819C10.8045 13.8328 10.8672 13.9834 10.9893 14.0745C11.8812 14.7563 13.119 14.7563 14.0109 14.0745C14.133 13.9834 14.1956 13.8328 14.1743 13.6819C14.1527 13.5311 14.0506 13.404 13.9078 13.3504C13.7651 13.2969 13.6046 13.3258 13.4893 13.4255Z" fill="#003761"/>
<path d="M15.8334 10.4167C15.8334 10.8769 15.4603 11.25 15.0001 11.25C14.5399 11.25 14.1667 10.8769 14.1667 10.4167C14.1667 9.9565 14.5399 9.58337 15.0001 9.58337C15.4603 9.58337 15.8334 9.9565 15.8334 10.4167Z" fill="#003761"/>
<path d="M10.8334 10.4167C10.8334 10.8769 10.4603 11.25 10.0001 11.25C9.53988 11.25 9.16675 10.8769 9.16675 10.4167C9.16675 9.9565 9.53988 9.58337 10.0001 9.58337C10.4603 9.58337 10.8334 9.9565 10.8334 10.4167Z" fill="#003761"/>
<path d="M11.6667 3.33335H12.0833V3.75002C12.0833 3.98012 12.2699 4.16669 12.5 4.16669C12.7301 4.16669 12.9167 3.98012 12.9167 3.75002V3.33335H13.3333C13.5634 3.33335 13.75 3.14679 13.75 2.91669C13.75 2.68658 13.5634 2.50002 13.3333 2.50002H12.9167V2.08335C12.9167 1.85325 12.7301 1.66669 12.5 1.66669C12.2699 1.66669 12.0833 1.85325 12.0833 2.08335V2.50002H11.6667C11.4366 2.50002 11.25 2.68658 11.25 2.91669C11.25 3.14679 11.4366 3.33335 11.6667 3.33335Z" fill="#003761"/>
</svg>
