<svg width="25" height="24" viewBox="0 0 25 24" fill="none" xmlns="http://www.w3.org/2000/svg">
<path d="M6.62823 3.20736C7.55364 2.34559 8.7712 1.86646 10.0357 1.86646H15.1355C16.4001 1.86646 17.6176 2.34559 18.543 3.20736L21.9049 6.3381C22.9206 7.28393 23.4974 8.60934 23.4974 9.9972V14.0588C23.4974 15.4466 22.9206 16.772 21.9049 17.7178L18.543 20.8486C17.6176 21.7104 16.4001 22.1895 15.1355 22.1895H10.0357C8.7712 22.1895 7.55364 21.7104 6.62823 20.8486L3.26633 17.7178C2.25067 16.772 1.67383 15.4466 1.67383 14.0588V9.9972C1.67383 8.60934 2.25067 7.28393 3.26633 6.3381L6.62823 3.20736Z" fill="#FF5A3B" stroke="#FF5A3B" stroke-width="2" stroke-linecap="round" stroke-linejoin="round"/>
<path d="M12.5861 7.96338V12.028" stroke="white" stroke-width="2" stroke-linecap="round" stroke-linejoin="round"/>
<path d="M12.5861 16.0926H12.5966" stroke="white" stroke-width="2" stroke-linecap="round" stroke-linejoin="round"/>
</svg>
