<svg width="72" height="72" viewBox="0 0 72 72" fill="none" xmlns="http://www.w3.org/2000/svg">
<path d="M56.0779 26.6666C57.759 25.8898 59.7746 26.6194 60.324 28.3879C61.9787 33.7138 61.8508 39.4696 59.9045 44.7614C57.5701 51.1086 52.8109 56.2685 46.6735 59.1066C40.536 61.9447 33.5228 62.2285 27.1762 59.8957C21.8847 57.9507 17.4178 54.3195 14.4331 49.6087C13.442 48.0445 14.192 46.036 15.8726 45.2583V45.2583C17.5532 44.4805 19.5233 45.2359 20.5867 46.7519C22.7719 49.8673 25.8687 52.2693 29.4894 53.6001C34.167 55.3195 39.3359 55.1103 43.8593 53.0186C48.3828 50.9268 51.8904 47.1238 53.6109 42.4458C54.9427 38.8249 55.1193 34.9092 54.1619 31.2261C53.696 29.4337 54.3968 27.4433 56.0779 26.6666V26.6666Z" fill="#D2DCDE"/>
<path d="M19.228 50.7603C17.9013 51.9278 15.86 51.8078 14.8702 50.3436C12.5413 46.8987 11.0876 42.9152 10.6595 38.7379C10.1218 33.4926 11.2278 28.2006 13.8244 23.5931C16.4211 18.9856 20.3803 15.29 25.1551 13.0169C29.9299 10.7438 35.2845 10.0054 40.4791 10.9038C45.6738 11.8021 50.4521 14.2928 54.1538 18.0318C57.8556 21.7708 60.298 26.5734 61.1437 31.7763C61.9895 36.9791 61.1967 42.3252 58.875 47.076C57.022 50.8676 54.2683 54.1306 50.876 56.5897C49.4504 57.6232 47.4973 57.0423 46.6529 55.497V55.497C45.8118 53.9576 46.3961 52.0466 47.7733 50.9602C50.0304 49.1798 51.8714 46.9072 53.1448 44.3015C54.8849 40.7408 55.4791 36.7338 54.8452 32.8343C54.2114 28.9348 52.3807 25.3352 49.6063 22.5328C46.8318 19.7305 43.2505 17.8637 39.3571 17.1904C35.4637 16.5171 31.4504 17.0705 27.8717 18.7742C24.293 20.4779 21.3256 23.2477 19.3794 26.7011C17.4332 30.1544 16.6043 34.1207 17.0072 38.0521C17.3007 40.915 18.2368 43.6565 19.7295 46.0789C20.6562 47.5829 20.554 49.5933 19.228 50.7603V50.7603Z" fill="#FF7B54"/>
<path d="M30.9888 31.9004L27.5356 40H25.2759L28.7354 32.4082H24.3301V30.7578H30.9888V31.9004ZM38.7707 36.2231C38.7707 37.4715 38.4893 38.4342 37.9265 39.1113C37.3679 39.7884 36.5787 40.127 35.5588 40.127C34.5305 40.127 33.7349 39.7863 33.1721 39.105C32.6093 38.4237 32.3279 37.4631 32.3279 36.2231V34.5347C32.3279 33.2863 32.6072 32.3236 33.1658 31.6465C33.7286 30.9694 34.522 30.6309 35.5461 30.6309C36.5702 30.6309 37.3637 30.9715 37.9265 31.6528C38.4893 32.3341 38.7707 33.2969 38.7707 34.541V36.2231ZM36.6316 34.2617C36.6316 33.5973 36.5448 33.1022 36.3713 32.7764C36.1978 32.4463 35.9228 32.2812 35.5461 32.2812C35.178 32.2812 34.9093 32.4336 34.74 32.7383C34.5749 33.043 34.4861 33.5042 34.4734 34.1221V36.4834C34.4734 37.1732 34.5601 37.6789 34.7336 38.0005C34.9071 38.3179 35.1822 38.4766 35.5588 38.4766C35.9228 38.4766 36.1915 38.3221 36.365 38.0132C36.5385 37.7 36.6274 37.2113 36.6316 36.5469V34.2617ZM40.1479 32.5352C40.1479 31.9639 40.3341 31.5026 40.7065 31.1514C41.0789 30.8001 41.5783 30.6245 42.2046 30.6245C42.8393 30.6245 43.3408 30.8001 43.709 31.1514C44.0771 31.4984 44.2612 31.9702 44.2612 32.5669V33.0239C44.2612 33.5952 44.0771 34.0544 43.709 34.4014C43.3408 34.7484 42.8436 34.9219 42.2173 34.9219C41.5952 34.9219 41.0937 34.7505 40.7129 34.4077C40.3362 34.0607 40.1479 33.5868 40.1479 32.9858V32.5352ZM41.5254 33.0239C41.5254 33.244 41.5867 33.4238 41.7095 33.5635C41.8322 33.6989 42.0014 33.7666 42.2173 33.7666C42.6616 33.7666 42.8838 33.4831 42.8838 32.916V32.5352C42.8838 32.3151 42.8245 32.1353 42.706 31.9956C42.5875 31.8517 42.4204 31.7798 42.2046 31.7798C41.9972 31.7798 41.8322 31.8496 41.7095 31.9893C41.5867 32.1247 41.5254 32.3109 41.5254 32.5479V33.0239ZM44.5405 37.7339C44.5405 37.1584 44.7267 36.6971 45.0991 36.3501C45.4757 36.0031 45.9751 35.8296 46.5971 35.8296C47.2277 35.8296 47.7291 36.001 48.1015 36.3438C48.4739 36.6865 48.6601 37.1647 48.6601 37.7783V38.2227C48.6601 38.7982 48.4761 39.2594 48.1079 39.6064C47.7397 39.9535 47.2404 40.127 46.6098 40.127C45.9878 40.127 45.4863 39.9556 45.1054 39.6128C44.7288 39.2658 44.5405 38.7918 44.5405 38.1909V37.7339ZM45.9116 38.2227C45.9116 38.4215 45.9793 38.5972 46.1147 38.7495C46.2501 38.8976 46.4152 38.9717 46.6098 38.9717C47.0203 38.9717 47.2425 38.777 47.2763 38.3877L47.2827 37.7339C47.2827 37.5096 47.2213 37.3298 47.0986 37.1943C46.9759 37.0547 46.8087 36.9849 46.5971 36.9849C46.394 36.9849 46.2311 37.0505 46.1084 37.1816C45.9857 37.3086 45.9201 37.4821 45.9116 37.7021V38.2227ZM42.6235 39.3081L41.6269 38.8066L46.1401 31.583L47.1367 32.0845L42.6235 39.3081Z" fill="#817F7F"/>
</svg>
