<svg width="19" height="20" viewBox="0 0 19 20" fill="none" xmlns="http://www.w3.org/2000/svg">
<path d="M3.11744 3.6498C3.13141 3.60789 3.13902 3.59519 3.13902 3.5825C3.17204 3.02885 3.19998 3.00218 3.75108 3.00218C4.15235 3.00218 4.55362 3.00218 4.95488 3.00218C5.37266 3.00218 5.45774 3.08599 5.46409 3.49869C5.46536 3.53805 5.4679 3.57869 5.47044 3.63837C5.54917 3.64218 5.62028 3.64726 5.69266 3.64853C6.32503 3.6498 6.95741 3.64726 7.58979 3.6498C8.26661 3.65234 8.60565 3.99265 8.60565 4.66566C8.60565 8.14627 8.60565 11.6269 8.60565 15.1075C8.60565 15.7615 8.25518 16.1094 7.59613 16.1094C5.4006 16.1094 3.20506 16.1094 1.00952 16.1094C0.349204 16.1094 0 15.7627 0 15.1075C0 11.6205 0 8.1323 0 4.64534C0 3.999 0.342855 3.65361 0.994278 3.6498C1.70157 3.64726 2.4076 3.6498 3.11744 3.6498ZM7.17455 14.6846C7.17455 11.4745 7.17455 8.28341 7.17455 5.0809C6.60313 5.0809 6.04313 5.0809 5.47933 5.0809C5.47298 5.11772 5.46663 5.14439 5.46536 5.17106C5.44758 5.57867 5.35996 5.66375 4.94599 5.66375C4.56505 5.66375 4.18537 5.66375 3.80442 5.66375C3.21521 5.66375 3.20252 5.65232 3.12506 5.08217C2.56633 5.08217 2.00633 5.08217 1.43745 5.08217C1.43745 8.28849 1.43745 11.4847 1.43745 14.6859C3.35236 14.6846 5.25456 14.6846 7.17455 14.6846ZM5.47425 4.6555C6.07615 4.6555 6.66535 4.6555 7.25582 4.6555C7.5555 4.6555 7.60121 4.69868 7.60121 4.99455C7.60121 8.25167 7.60121 11.5075 7.60121 14.7646C7.60121 15.0669 7.5682 15.0973 7.25582 15.0973C5.29139 15.0973 3.32569 15.0973 1.36126 15.0973C1.31428 15.0973 1.26602 15.0973 1.21904 15.0973C1.08571 15.0961 1.02095 15.0211 1.01079 14.8954C1.00571 14.8281 1.00698 14.7596 1.00698 14.691C1.00698 11.4885 1.00698 8.28595 1.00698 5.08471C1.00698 5.0301 1.00825 4.9755 1.00698 4.92217C1.00317 4.73296 1.09713 4.65423 1.2838 4.6555C1.82729 4.65931 2.37205 4.65677 2.91553 4.65677C2.98791 4.65677 3.05903 4.65677 3.13141 4.65677C3.13141 4.44979 3.13141 4.26947 3.13141 4.07519C2.41903 4.07519 1.71935 4.07519 1.02094 4.07519C0.561266 4.07519 0.413965 4.22503 0.413965 4.68852C0.413965 8.14881 0.413965 11.6091 0.413965 15.0707C0.413965 15.5456 0.558726 15.6891 1.03745 15.6891C3.0222 15.6891 5.00822 15.6891 6.99296 15.6891C7.22407 15.6891 7.45518 15.6929 7.68629 15.6878C8.01391 15.6802 8.1828 15.51 8.19676 15.1824C8.19803 15.1481 8.19676 15.1138 8.19676 15.0808C8.19676 11.6129 8.19676 8.14627 8.19676 4.67836C8.19676 4.64408 8.19803 4.60979 8.19676 4.57677C8.18153 4.25043 8.00756 4.079 7.68121 4.07646C7.10979 4.07392 6.53963 4.07519 5.96821 4.07519C5.80694 4.07519 5.64567 4.07519 5.47678 4.07519C5.47425 4.27201 5.47425 4.44725 5.47425 4.6555ZM5.03742 5.22693C5.03742 4.61233 5.03742 4.0244 5.03742 3.44027C4.53711 3.44027 4.05203 3.44027 3.5695 3.44027C3.5695 4.04598 3.5695 4.63392 3.5695 5.22693C4.06473 5.22693 4.54473 5.22693 5.03742 5.22693Z" fill="#0F4674"/>
<path d="M18.6031 13.3869C18.6031 13.7615 18.598 14.1348 18.6056 14.5094C18.6094 14.6694 18.5459 14.7596 18.4012 14.8192C17.412 15.2319 16.4266 15.651 15.4349 16.0586C15.3523 16.0929 15.2304 16.0929 15.1466 16.0586C14.1561 15.6497 13.1707 15.2294 12.1815 14.8167C12.0419 14.7583 11.9796 14.6745 11.9809 14.5246C11.9835 13.7627 11.9835 13.0008 11.9809 12.2402C11.9809 12.0942 12.033 12.004 12.1752 11.9443C13.1707 11.5304 14.1638 11.1088 15.1606 10.6974C15.238 10.6656 15.351 10.6656 15.4285 10.6974C16.4253 11.1101 17.4171 11.5316 18.4126 11.9469C18.551 12.0053 18.6082 12.0942 18.6056 12.244C18.5993 12.625 18.6031 13.0059 18.6031 13.3869ZM17.8577 12.1653C16.9929 11.8008 16.1828 11.458 15.3701 11.1228C15.313 11.0986 15.2241 11.1177 15.1606 11.1443C14.6158 11.3691 14.0736 11.5989 13.5301 11.8275C13.2774 11.9342 13.0234 12.0408 12.7263 12.1653C13.5898 12.5297 14.405 12.8739 15.2215 13.2129C15.266 13.2319 15.332 13.2269 15.3777 13.2078C16.1904 12.87 16.9993 12.5285 17.8577 12.1653ZM15.0882 15.5862C15.0882 14.9361 15.092 14.3265 15.0818 13.7158C15.0806 13.6599 15.0044 13.5786 14.9447 13.5532C14.5104 13.3627 14.0723 13.1837 13.6355 13.0008C13.2317 12.832 12.8266 12.6618 12.3987 12.4827C12.3987 13.1266 12.3962 13.7424 12.4038 14.3583C12.405 14.4104 12.4736 14.4827 12.5282 14.5081C12.8685 14.6592 13.2127 14.7989 13.5568 14.9437C14.0546 15.1519 14.5523 15.3615 15.0882 15.5862ZM15.5022 15.5481C15.5339 15.5557 15.5415 15.5595 15.5466 15.5583C16.3974 15.204 17.2482 14.8497 18.0964 14.4904C18.1396 14.4726 18.1879 14.404 18.1891 14.3583C18.1955 13.7424 18.1929 13.1253 18.1929 12.5107C18.1637 12.5081 18.1498 12.5018 18.1383 12.5069C17.2888 12.8624 16.438 13.218 15.5898 13.5786C15.5491 13.5964 15.5047 13.6662 15.5047 13.7107C15.4996 14.3215 15.5022 14.9323 15.5022 15.5481Z" fill="#0F4674"/>
<path d="M18.603 6.33676C18.603 6.71136 18.5992 7.08469 18.6056 7.45929C18.6081 7.60913 18.5497 7.69802 18.4125 7.75643C17.4183 8.17166 16.4253 8.59452 15.4284 9.00594C15.3459 9.04023 15.2253 9.03261 15.1415 8.99832C14.1637 8.59452 13.1897 8.17928 12.212 7.77548C12.0393 7.70437 11.9783 7.60151 11.9796 7.41992C11.9859 6.69231 11.9872 5.96469 11.9796 5.23708C11.9783 5.04915 12.038 4.94121 12.2196 4.86629C13.1923 4.46629 14.1573 4.05106 15.13 3.65233C15.224 3.61424 15.3611 3.61424 15.4551 3.6536C16.4341 4.05487 17.4068 4.47137 18.3846 4.87645C18.5459 4.94375 18.6132 5.03899 18.6081 5.21676C18.5967 5.58882 18.603 5.96343 18.603 6.33676ZM17.836 5.11899C17.7878 5.08724 17.7675 5.06946 17.7433 5.06057C16.9624 4.73169 16.1814 4.40153 15.398 4.08026C15.3281 4.05106 15.224 4.05995 15.1529 4.09042C14.4011 4.40026 13.6519 4.71645 12.9027 5.03264C12.8558 5.05169 12.8139 5.08216 12.7491 5.11772C13.5821 5.46692 14.3872 5.80724 15.1948 6.1412C15.2545 6.1666 15.3446 6.16152 15.4056 6.13612C16.2068 5.80597 17.0056 5.46819 17.836 5.11899ZM15.0881 8.52341C15.0881 7.87706 15.0919 7.27262 15.0818 6.66818C15.0805 6.60723 14.9992 6.52088 14.9345 6.49168C14.5764 6.33041 14.2107 6.18311 13.8475 6.03073C13.3738 5.83136 12.9002 5.63327 12.4202 5.43137C12.41 5.46692 12.3999 5.48597 12.3999 5.50375C12.3986 6.09549 12.4024 6.68723 12.3948 7.2777C12.3935 7.40849 12.4748 7.43135 12.5624 7.46818C13.2253 7.74627 13.8881 8.02436 14.551 8.30246C14.7186 8.37484 14.8875 8.44214 15.0881 8.52341ZM18.1929 5.43137C18.1052 5.46311 18.0367 5.4847 17.9694 5.51264C17.3383 5.77803 16.7084 6.04469 16.0773 6.31136C15.8907 6.39009 15.6291 6.42437 15.5389 6.56533C15.4424 6.71771 15.5034 6.97167 15.5021 7.18119C15.4995 7.61929 15.5008 8.05865 15.5008 8.49674C15.5364 8.49674 15.5516 8.50055 15.563 8.49674C16.4075 8.14373 17.2519 7.79071 18.0938 7.43262C18.137 7.41357 18.1878 7.34754 18.1878 7.30183C18.1941 6.68596 18.1929 6.06882 18.1929 5.43137Z" fill="#0F4674"/>
<path d="M5.299 18.1068C5.40059 18.1919 5.459 18.2452 5.52122 18.2935C7.95803 20.1614 11.3612 19.9798 13.5821 17.8643C13.6164 17.8313 13.6494 17.7754 13.6862 17.7716C13.7828 17.7614 13.8805 17.7741 13.9783 17.7779C13.9745 17.8757 14.0088 18.0078 13.9593 18.0649C13.8132 18.2325 13.6393 18.3798 13.464 18.5182C10.9777 20.4903 7.64565 20.4941 5.14789 18.5284C5.11615 18.503 5.08313 18.4801 5.0298 18.4421C5.02345 18.5055 5.01329 18.5538 5.01456 18.602C5.02726 18.9754 5.04123 19.3487 5.05773 19.722C5.06408 19.8668 5.0044 19.9722 4.85964 19.9773C4.71361 19.9824 4.65266 19.882 4.64631 19.736C4.62345 19.1595 4.59298 18.5817 4.57266 18.0052C4.56377 17.7728 4.61964 17.7208 4.85456 17.7106C5.41837 17.684 5.9809 17.6611 6.54471 17.6319C6.69963 17.6243 6.83042 17.6636 6.8355 17.8363C6.83931 17.9989 6.71486 18.0433 6.56883 18.0471C6.31106 18.0535 6.05328 18.0662 5.79551 18.0789C5.64694 18.084 5.49964 18.0941 5.299 18.1068Z" fill="#0F4674"/>
<path d="M13.5479 1.53553C13.5479 1.11776 13.5517 0.711411 13.5466 0.303795C13.5441 0.147606 13.5822 0.0180831 13.7561 0.0180831C13.9174 0.019353 13.9542 0.145066 13.9593 0.291097C13.9796 0.854902 14.0101 1.41744 14.0317 1.98124C14.0406 2.22251 13.9847 2.27457 13.7383 2.286C13.1822 2.3114 12.6247 2.33553 12.0685 2.36346C11.9161 2.37108 11.779 2.33934 11.7688 2.16791C11.7587 1.99267 11.8945 1.95458 12.0469 1.94823C12.4469 1.93299 12.8456 1.9114 13.3079 1.88982C13.219 1.81109 13.1733 1.76918 13.125 1.73109C10.7441 -0.155884 7.23172 0.0091942 5.04507 2.1095C4.92952 2.21997 4.81777 2.37743 4.63365 2.22251C4.51555 2.12346 4.55873 1.99521 4.76317 1.80347C7.15172 -0.453025 10.8546 -0.610484 13.4183 1.43522C13.4628 1.47331 13.511 1.5076 13.5479 1.53553Z" fill="#0F4674"/>
<path d="M5.30405 8.18819C5.02596 8.18819 4.7466 8.192 4.4685 8.18692C4.17644 8.18057 4.03295 8.03835 4.01898 7.74756C4.0139 7.65232 4.0139 7.55708 4.02152 7.46185C4.04184 7.21677 4.18406 7.0682 4.4266 7.06566C5.01707 7.05931 5.60881 7.05804 6.19928 7.06566C6.44817 7.0682 6.59547 7.23328 6.60563 7.48216C6.60563 7.49613 6.60563 7.50883 6.60563 7.5228C6.61325 8.09803 6.5269 8.18692 5.95421 8.18692C5.73833 8.18946 5.52119 8.18946 5.30405 8.18819ZM6.18786 7.49613C5.59611 7.49613 5.02469 7.49613 4.45072 7.49613C4.45072 7.5901 4.45072 7.66756 4.45072 7.74883C5.03612 7.74883 5.60754 7.74883 6.18786 7.74883C6.18786 7.66121 6.18786 7.58756 6.18786 7.49613Z" fill="#0F4674"/>
<path d="M5.30405 10.4421C5.02596 10.4421 4.7466 10.4447 4.4685 10.4409C4.17771 10.4371 4.03295 10.2936 4.01898 10.0028C4.0139 9.90753 4.0139 9.8123 4.02152 9.71706C4.04184 9.47071 4.17771 9.32468 4.4266 9.32087C5.01707 9.31198 5.60881 9.31071 6.19928 9.32087C6.46087 9.32468 6.60055 9.49103 6.6069 9.75642C6.6069 9.76277 6.6069 9.77039 6.6069 9.77674C6.61452 10.352 6.52817 10.4409 5.95675 10.4409C5.7396 10.4421 5.52246 10.4421 5.30405 10.4421ZM4.44692 10.0002C5.04247 10.0002 5.61643 10.0002 6.19928 10.0002C6.1942 9.90118 6.19039 9.83007 6.18532 9.75896C5.59357 9.75896 5.02215 9.75896 4.44565 9.75896C4.44692 9.84658 4.44692 9.92023 4.44692 10.0002Z" fill="#0F4674"/>
<path d="M5.30791 12.6897C5.0222 12.6897 4.73775 12.6923 4.45204 12.6897C4.18411 12.6872 4.03808 12.5488 4.0203 12.2808C4.01395 12.1792 4.01395 12.0764 4.02157 11.9761C4.04189 11.7246 4.17522 11.5862 4.42411 11.5824C5.01458 11.5761 5.60632 11.5748 6.19679 11.5824C6.46473 11.585 6.6006 11.7373 6.60695 12.0091C6.60949 12.1043 6.61076 12.1996 6.60568 12.2948C6.59425 12.5348 6.44441 12.6859 6.20441 12.6897C5.906 12.6935 5.60632 12.6897 5.30791 12.6897ZM6.18028 12.2707C6.18028 12.1716 6.18028 12.0891 6.18028 12.0078C5.59235 12.0078 5.01966 12.0078 4.4495 12.0078C4.4495 12.1018 4.4495 12.1818 4.4495 12.2707C5.02855 12.2707 5.59489 12.2707 6.18028 12.2707Z" fill="#0F4674"/>
<path d="M2.62734 7.8034C2.90162 7.5342 3.14162 7.30182 3.37654 7.0669C3.47812 6.96658 3.58352 6.89674 3.70923 7.01483C3.84384 7.14055 3.77907 7.25483 3.66987 7.36277C3.39559 7.63578 3.12257 7.91134 2.8521 8.18943C2.72384 8.32022 2.5994 8.33419 2.46734 8.19832C2.33908 8.06753 2.20829 7.938 2.07877 7.80848C1.98353 7.71197 1.96321 7.60785 2.06226 7.50372C2.16258 7.39959 2.26924 7.41356 2.36448 7.51134C2.45464 7.60277 2.53718 7.70181 2.62734 7.8034Z" fill="#0F4674"/>
<path d="M2.64127 12.3126C2.9054 12.0485 3.14158 11.8148 3.37396 11.5774C3.47428 11.4745 3.58349 11.4072 3.70793 11.519C3.84507 11.6421 3.77777 11.759 3.66983 11.8669C3.39682 12.1412 3.12635 12.4193 2.85206 12.6923C2.69587 12.8472 2.61714 12.8459 2.45841 12.691C2.32635 12.5628 2.1981 12.432 2.06985 12.3012C1.97969 12.2097 1.96699 12.1069 2.05715 12.0129C2.15366 11.9126 2.26413 11.919 2.36191 12.0142C2.45461 12.1056 2.53841 12.2021 2.64127 12.3126Z" fill="#0F4674"/>
<path d="M2.62216 10.0688C2.89898 9.7945 3.13263 9.5672 3.36247 9.33482C3.46787 9.22816 3.58215 9.14943 3.71294 9.27006C3.84755 9.39451 3.77136 9.51133 3.66469 9.618C3.39549 9.8872 3.13009 10.1602 2.86089 10.4281C2.69708 10.592 2.61581 10.5907 2.452 10.4307C2.32629 10.3075 2.20311 10.1805 2.0774 10.0561C1.97962 9.95831 1.96439 9.85292 2.0647 9.7526C2.16502 9.65101 2.27423 9.66625 2.36692 9.76657C2.45454 9.86053 2.53327 9.96339 2.62216 10.0688Z" fill="#0F4674"/>
</svg>
