<svg width="25" height="25" viewBox="0 0 25 25" fill="none" xmlns="http://www.w3.org/2000/svg">
<g clip-path="url(#clip0_1_9)">
<path d="M4.6875 25C4.64815 24.9618 4.58449 24.9294 4.57292 24.8843C4.53935 24.7512 4.46296 24.5718 4.51968 24.4861C4.59144 24.375 4.77546 24.2778 4.91204 24.2766C6.37616 24.2616 7.84144 24.2674 9.30671 24.2674C9.39583 24.2674 9.48495 24.2674 9.60995 24.2674C9.60995 24.1678 9.60995 24.081 9.60995 23.9954C9.60995 23.4502 9.60185 22.9051 9.61227 22.36C9.63079 21.3507 10.1088 20.632 11.0197 20.206C11.1586 20.1412 11.213 20.0706 11.2106 19.9178C11.2025 19.3414 11.2072 18.7651 11.2072 18.1563H10.9016C9.53472 18.1563 8.16782 18.1563 6.80093 18.1551C6.69676 18.1551 6.58681 18.1516 6.48958 18.1192C6.3125 18.0602 6.20949 17.9074 6.26736 17.7407C6.31019 17.6181 6.4456 17.5116 6.56482 17.4387C6.63657 17.3947 6.75463 17.4248 6.85301 17.4248C11.9144 17.4248 16.9757 17.4248 22.037 17.4248C22.1412 17.4248 22.2454 17.4248 22.3704 17.4248V16.2882H2.62732V17.4132C2.71875 17.4178 2.8044 17.4248 2.89005 17.4248C3.53241 17.4248 4.17593 17.4248 4.81829 17.4259C5.10185 17.4259 5.27199 17.5683 5.26852 17.7905C5.2662 18.0139 5.09607 18.1551 4.81134 18.1563C4.0544 18.1586 3.29745 18.1609 2.54051 18.1563C2.10764 18.1528 1.88542 17.9259 1.87963 17.4861C1.87384 17.0637 1.87384 16.6401 1.87963 16.2164C1.88657 15.7674 2.1088 15.5532 2.56482 15.5428C2.69329 15.5405 2.82176 15.5428 2.9757 15.5428C2.9757 15.0498 2.9757 14.5799 2.9757 14.11C2.9757 13.4838 3.27778 13.1748 3.89815 13.1748C9.63542 13.1748 15.3715 13.1748 21.1088 13.1748C21.7141 13.1748 22.0197 13.4884 22.022 14.0949C22.0231 14.5509 22.0243 15.0058 22.0255 15.4618C22.0255 15.4769 22.0347 15.4919 22.0498 15.5417C22.1806 15.5417 22.3241 15.537 22.4664 15.5417C22.8889 15.5579 23.1088 15.7755 23.1169 16.2002C23.125 16.6308 23.125 17.0625 23.1169 17.4942C23.1088 17.9294 22.8819 18.1528 22.4456 18.1551C21.6319 18.1597 20.8183 18.1563 19.9653 18.1563C19.9653 18.2523 19.9653 18.338 19.9653 18.4225C19.9653 19.4803 19.978 20.5382 19.9606 21.5961C19.9491 22.3113 19.603 22.8484 18.941 23.1273C18.2928 23.4005 17.6782 23.2905 17.1493 22.816C16.7847 22.4884 16.6134 22.0648 16.61 21.5787C16.61 21.397 16.5463 21.3345 16.3669 21.3391C15.9792 21.3484 15.5903 21.3414 15.1829 21.3414C15.5556 22.2998 15.3044 23.2789 15.4109 24.2674H15.6667C17.1319 24.2674 18.5961 24.2674 20.0613 24.2674C20.3854 24.2674 20.5775 24.4363 20.5139 24.6875C20.485 24.8009 20.3796 24.8958 20.309 24.9988H4.6875V25ZM21.2917 15.5301C21.2917 15.0799 21.2917 14.6586 21.2917 14.2361C21.2917 14.0147 21.1833 13.9039 20.9664 13.9039C15.3206 13.9039 9.67477 13.9039 4.03009 13.9039C3.96528 13.9039 3.89468 13.8901 3.83681 13.9109C3.7882 13.9271 3.71875 13.9838 3.71759 14.0232C3.70949 14.5243 3.71181 15.0255 3.71181 15.5313H21.2917V15.5301ZM13.7963 18.1678C13.7963 18.7326 13.8044 19.2697 13.7928 19.8056C13.7882 20.022 13.8137 20.1725 14.0602 20.2419C14.2106 20.2836 14.3345 20.4132 14.478 20.4861C14.588 20.5417 14.7106 20.6019 14.8287 20.6042C15.3403 20.6169 15.853 20.6088 16.3657 20.61C17.0081 20.6111 17.3218 20.9178 17.3426 21.5579C17.36 22.1204 17.7593 22.5313 18.2882 22.5324C18.8299 22.5324 19.2338 22.1146 19.235 21.537C19.2384 20.4641 19.2361 19.3901 19.235 18.3171C19.235 18.2708 19.2257 18.2245 19.2199 18.1678H13.7951H13.7963ZM10.3565 24.2535H14.6458C14.6458 23.5243 14.6863 22.8079 14.6343 22.0972C14.581 21.3646 13.8958 20.7732 13.1597 20.7488C12.713 20.735 12.2639 20.7326 11.8171 20.75C11.0961 20.7789 10.4178 21.375 10.3669 22.0961C10.3171 22.8067 10.3565 23.5232 10.3565 24.2523V24.2535ZM11.9583 18.1632V19.9942H13.044V18.1632H11.9583Z" fill="#FF886A"/>
<path d="M4.83449 0C5.13542 0.251157 5.14931 0.394676 4.89583 0.712963C4.52662 1.17708 4.15741 1.64236 3.78241 2.10301C3.7037 2.19907 3.67361 2.27315 3.73611 2.40278C3.88542 2.70949 3.87616 3.02894 3.75694 3.35069C3.73032 3.4213 3.71991 3.53819 3.75926 3.58681C4.09375 4.00463 4.44213 4.41204 4.79745 4.83449C5.52546 4.22338 6.24074 3.62384 6.95602 3.02431C7.18634 2.83102 7.41435 2.63426 7.64699 2.44444C8.00347 2.15509 8.34838 2.1875 8.65046 2.53819C8.84144 2.76042 9.03009 2.9838 9.21528 3.21065C9.5162 3.58102 9.5 3.93403 9.11806 4.22454C8.87616 4.40856 8.8588 4.5625 9.0081 4.80093C9.11458 4.97222 9.19213 5.16319 9.27083 5.34954C9.43171 5.73032 9.35648 6.08912 9.04167 6.3669C8.70718 6.66319 8.36458 6.95139 8.01389 7.22917C7.68056 7.49421 7.30556 7.49884 6.95139 7.2581C6.69676 7.08449 6.44792 6.90162 6.19907 6.72338C6.16667 6.73495 6.1412 6.73843 6.12384 6.75231C5.9294 6.90201 5.88542 7.08796 5.9919 7.31018C6.08218 7.50116 6.17708 7.68982 6.2581 7.88426C6.41435 8.25579 6.35301 8.59838 6.05787 8.86343C5.70718 9.17824 5.34491 9.48264 4.97454 9.77315C4.65856 10.022 4.29398 10.0231 3.9537 9.79514C3.69097 9.61921 3.43634 9.43056 3.16435 9.23727C3.07292 9.31134 2.98611 9.38194 2.89931 9.45139C2.50926 9.7662 2.18403 9.74074 1.86111 9.3669C1.67014 9.14583 1.48148 8.9213 1.2963 8.69444C1.00694 8.34144 1.03935 7.98843 1.3912 7.69213C2.28009 6.94213 3.17245 6.19676 4.0625 5.44792C4.11227 5.40625 4.15857 5.36227 4.22917 5.30093C3.87616 4.88079 3.53241 4.46296 3.17477 4.05787C3.14005 4.01852 3.01273 4.04167 2.93519 4.06134C2.30556 4.21991 1.65162 3.85764 1.46991 3.24306C1.28357 2.6169 1.60995 1.94792 2.23264 1.75694C2.45486 1.68866 2.71296 1.69907 2.94792 1.72917C3.08565 1.74653 3.15278 1.72222 3.23032 1.62384C3.58681 1.17014 3.94676 0.71875 4.31134 0.270833C4.39583 0.171296 4.49769 0.0902778 4.59028 0C4.6713 0 4.75347 0 4.83449 0ZM1.87731 8.2419C2.06366 8.46412 2.2419 8.67708 2.42593 8.89699C4.51389 7.14583 6.57755 5.41435 8.65162 3.67361C8.45602 3.44213 8.28009 3.2338 8.09954 3.02083C6.02431 4.76157 3.96991 6.48495 1.87731 8.2419ZM5.23958 7.4919C4.74421 7.90857 4.25232 8.32292 3.74769 8.74653C3.96528 8.90162 4.14352 9.04398 4.33796 9.15856C4.40046 9.19444 4.52662 9.18866 4.58681 9.14815C4.75347 9.03472 4.90046 8.89236 5.05671 8.76389C5.47415 8.41898 5.549 8.0081 5.28125 7.53125C5.27778 7.52431 5.26968 7.51968 5.24074 7.49306L5.23958 7.4919ZM6.75926 6.21759C6.97222 6.37037 7.14931 6.51505 7.34491 6.62731C7.41204 6.66551 7.54745 6.65162 7.61574 6.60648C7.78357 6.49421 7.9294 6.35069 8.08565 6.21991C8.48148 5.88966 8.55787 5.49576 8.31481 5.03819C8.3044 5.01736 8.28819 5 8.25926 4.96065C7.7662 5.37384 7.27662 5.78472 6.75926 6.21759ZM2.64583 3.36806C2.90509 3.36111 3.12269 3.13426 3.11574 2.87847C3.1088 2.62037 2.87847 2.40278 2.62269 2.40972C2.36343 2.41782 2.14699 2.64468 2.15394 2.90162C2.16088 3.16088 2.38773 3.375 2.64583 3.36806Z" fill="#FF886A"/>
<path d="M20.412 -1.13025e-05C20.5799 0.185174 20.7558 0.364572 20.9155 0.556702C21.206 0.907396 21.4884 1.26504 21.7697 1.62383C21.8472 1.72337 21.912 1.76041 22.0521 1.72453C22.5822 1.58795 23.0891 1.78703 23.3773 2.21874C23.6597 2.64235 23.6505 3.17591 23.353 3.59258C23.0498 4.01851 22.5521 4.18402 22.0127 4.05207C21.9433 4.03471 21.8287 4.0486 21.7882 4.0949C21.4456 4.4861 21.1157 4.88772 20.7674 5.30439C21.1921 5.66087 21.6076 6.01041 22.0231 6.35994C22.5405 6.79397 23.059 7.22684 23.5752 7.66203C23.9711 7.99536 24 8.3368 23.6667 8.7361C23.4954 8.94212 23.3241 9.14929 23.1481 9.353C22.8148 9.74073 22.4873 9.76735 22.0914 9.44443C22.0104 9.37846 21.9294 9.31133 21.8368 9.23379C21.5868 9.41203 21.3437 9.58795 21.0972 9.75809C20.6863 10.0405 20.3206 10.0243 19.9375 9.70717C19.6366 9.45832 19.3368 9.20717 19.0405 8.95369C18.6319 8.60416 18.559 8.26504 18.7836 7.78355C18.8553 7.62846 18.9294 7.47453 19.0023 7.32059C19.1181 7.07676 19.054 6.87576 18.8102 6.71758C18.5764 6.88309 18.3391 7.05323 18.0995 7.2199C17.6759 7.51388 17.3102 7.49999 16.9201 7.17476C16.6134 6.92013 16.3056 6.66666 16.0046 6.40508C15.625 6.07638 15.5532 5.72684 15.765 5.26966C15.8808 5.01851 16 4.76966 16.1181 4.51966C16.125 4.50578 16.1262 4.48841 16.1354 4.45254C16.0336 4.36341 15.9213 4.27082 15.816 4.17129C15.5382 3.90971 15.5023 3.57406 15.735 3.27545C15.9502 2.99999 16.1748 2.73031 16.4086 2.47105C16.6551 2.19906 16.9954 2.16781 17.2859 2.38772C17.5255 2.56943 17.7546 2.76619 17.9792 2.96527C18.1516 3.11804 18.1701 3.32985 18.0417 3.4861C17.9074 3.64929 17.6921 3.66434 17.5 3.51156C17.3032 3.35647 17.1134 3.19096 16.9028 3.01619C16.7187 3.23378 16.5428 3.44328 16.353 3.66781C18.4329 5.41318 20.5 7.14698 22.5775 8.89004C22.7604 8.67244 22.9317 8.46874 23.125 8.23957C22.8414 7.99883 22.566 7.76388 22.2894 7.53124C21.162 6.58448 20.0336 5.63772 18.9039 4.69212C18.7373 4.55323 18.64 4.39814 18.7535 4.18517C18.8403 4.02082 18.9896 3.95948 19.1655 4.00809C19.2477 4.03008 19.3229 4.09142 19.3912 4.14698C19.6609 4.36689 19.9271 4.59258 20.2083 4.82754C20.5602 4.4074 20.9086 3.99999 21.2442 3.58101C21.2836 3.53124 21.2731 3.4155 21.2465 3.3449C21.1273 3.02314 21.1204 2.70369 21.2674 2.39698C21.3299 2.26735 21.3021 2.19443 21.2222 2.09721C20.8484 1.63656 20.4792 1.17129 20.1088 0.706007C19.8553 0.38772 19.8681 0.245359 20.1701 -0.00579834C20.2512 -0.00579834 20.3333 -0.00579834 20.4144 -0.00579834L20.412 -1.13025e-05ZM19.7419 7.47453C19.6273 7.71411 19.515 7.92129 19.434 8.13888C19.4097 8.20369 19.4468 8.33101 19.5012 8.37846C19.7963 8.64351 20.1019 8.89814 20.4132 9.14467C20.4664 9.18749 20.5891 9.20601 20.6424 9.1736C20.8472 9.04976 21.0382 8.90045 21.2558 8.74536C20.7477 8.31828 20.2593 7.90855 19.7431 7.47453H19.7419ZM16.7292 4.94791C16.6157 5.18402 16.5069 5.37615 16.4329 5.58101C16.4051 5.65624 16.4294 5.79744 16.485 5.84837C16.7789 6.11689 17.0856 6.37036 17.3981 6.61689C17.4525 6.65971 17.5764 6.67823 17.6296 6.64582C17.8356 6.52198 18.0255 6.37267 18.2431 6.21874C17.7303 5.78818 17.2407 5.37846 16.7292 4.94791ZM22.8472 2.89466C22.8507 2.63772 22.6296 2.41318 22.3715 2.40971C22.1146 2.40624 21.8889 2.6273 21.8854 2.88541C21.8819 3.14235 22.103 3.36573 22.3611 3.3692C22.6204 3.37152 22.8437 3.15508 22.8472 2.89582V2.89466Z" fill="#FF886A"/>
<path d="M1.87731 8.24191C3.97106 6.48612 6.0243 4.76158 8.09953 3.02084C8.28009 3.23381 8.45602 3.44214 8.65162 3.67362C6.57754 5.41436 4.51389 7.14584 2.42592 8.897C2.24189 8.67709 2.06365 8.46413 1.87731 8.24191Z" fill="white"/>
<path d="M5.23958 7.49191C5.26852 7.51853 5.27662 7.52316 5.28009 7.5301C5.54784 8.00696 5.47299 8.41784 5.05556 8.76274C4.89931 8.89122 4.75347 9.03473 4.58565 9.147C4.52546 9.18751 4.39815 9.19446 4.33681 9.15742C4.14236 9.04284 3.96412 8.90048 3.74653 8.74538C4.25116 8.32061 4.74306 7.90742 5.23843 7.49075L5.23958 7.49191Z" fill="white"/>
<path d="M6.75926 6.21761C7.27662 5.78474 7.76505 5.37386 8.25926 4.96066C8.2882 5.00117 8.30324 5.01853 8.31482 5.03821C8.55864 5.49577 8.48226 5.88968 8.08565 6.21992C7.9294 6.34955 7.78357 6.49423 7.61574 6.6065C7.54746 6.65164 7.41204 6.66552 7.34491 6.62733C7.14931 6.51506 6.97223 6.37039 6.75926 6.21761Z" fill="white"/>
<path d="M19.7419 7.47455C20.2581 7.90858 20.7465 8.3183 21.2546 8.74538C21.037 8.90047 20.8472 9.04978 20.6412 9.17362C20.588 9.20603 20.4653 9.18635 20.412 9.14469C20.1007 8.89816 19.7951 8.64353 19.5 8.37848C19.4456 8.32987 19.4097 8.20371 19.4329 8.1389C19.5139 7.92015 19.6273 7.71413 19.7407 7.47455H19.7419Z" fill="white"/>
<path d="M16.7292 4.94791C17.2419 5.37846 17.7303 5.78818 18.2431 6.21874C18.0255 6.37383 17.8345 6.52314 17.6296 6.64582C17.5752 6.67823 17.4514 6.65971 17.3981 6.61689C17.0856 6.37036 16.7789 6.11573 16.4849 5.84837C16.4294 5.79744 16.4062 5.6574 16.4329 5.58101C16.5069 5.37615 16.6157 5.18402 16.7292 4.94791Z" fill="white"/>
<path d="M12.8657 22.235C12.8623 22.4838 12.7049 22.6574 12.4896 22.6505C12.2731 22.6435 12.1308 22.4676 12.1354 22.213C12.1389 21.9606 12.2917 21.7917 12.5116 21.7986C12.7292 21.8056 12.8704 21.978 12.8669 22.235H12.8657Z" fill="#FF886A"/>
</g>
<defs>
<clipPath id="clip0_1_9">
<rect width="25" height="25" fill="white"/>
</clipPath>
</defs>
</svg>
