<svg width="18" height="18" viewBox="0 0 18 18" fill="none" xmlns="http://www.w3.org/2000/svg">
<rect x="0.5" y="0.5" width="17" height="17" rx="2.5" fill="#FD8C04" stroke="#FD8C04"/>
<path d="M7.74121 10.3018V14H6.01172V4.04688H9.81934C10.9313 4.04688 11.8132 4.33626 12.4648 4.91504C13.1211 5.49382 13.4492 6.25944 13.4492 7.21191C13.4492 8.18717 13.1279 8.94596 12.4854 9.48828C11.8473 10.0306 10.9518 10.3018 9.79883 10.3018H7.74121ZM7.74121 8.91406H9.81934C10.4346 8.91406 10.904 8.77051 11.2275 8.4834C11.5511 8.19173 11.7129 7.77246 11.7129 7.22559C11.7129 6.68783 11.5488 6.25944 11.2207 5.94043C10.8926 5.61686 10.4414 5.45052 9.86719 5.44141H7.74121V8.91406Z" fill="white"/>
</svg>
