<svg width="26" height="25" viewBox="0 0 26 25" fill="none" xmlns="http://www.w3.org/2000/svg">
<path d="M25.7778 12.5C25.7778 19.4 20.1778 25 13.2778 25C6.37783 25 0.777832 19.45 0.777832 12.5C0.777832 5.55 6.37783 0 13.2778 0C20.1778 0 25.7778 5.6 25.7778 12.5ZM13.2778 3.25C8.17783 3.25 4.02783 7.4 4.02783 12.5C4.02783 17.6 8.17783 21.75 13.2778 21.75C18.3778 21.75 22.5278 17.6 22.5278 12.5C22.5278 7.4 18.3778 3.25 13.2778 3.25Z" fill="#F40505"/>
<path d="M9.67773 6.50008H14.0777C16.5777 6.50008 18.7277 7.45008 18.7277 10.4001C18.7277 13.2501 16.4777 14.5001 14.0777 14.5001H12.7777V18.2001H9.67773V6.50008ZM13.9277 12.0501C15.1277 12.0501 15.7277 11.4501 15.7277 10.4001C15.7277 9.35008 15.0777 8.95008 13.9277 8.95008H12.7777V12.0501H13.9277Z" fill="#F40505"/>
</svg>
