<?xml version="1.0" encoding="utf-8"?>
<!-- Generator: Adobe Illustrator 25.0.0, SVG Export Plug-In . SVG Version: 6.00 Build 0)  -->
<svg version="1.1" id="Layer_1" xmlns="http://www.w3.org/2000/svg" xmlns:xlink="http://www.w3.org/1999/xlink" x="0px" y="0px"
	 viewBox="0 0 18 18" style="enable-background:new 0 0 18 18;" xml:space="preserve">
<style type="text/css">
	.st0{fill:#16385D;}
	.st1{fill:none;stroke:#FFFFFF;stroke-width:0.5;stroke-miterlimit:10;}
	.st2{fill:#FFFFFF;}
</style>
<circle class="st0" cx="9" cy="9" r="9"/>
<circle class="st1" cx="9" cy="9" r="7.9"/>
<g>
	<path class="st2" d="M9.6,11.3v1.4H5.3v-1.4h1V5.9h-1V4.6h4.3c1,0,1.8,0.2,2.3,0.7s0.8,1.1,0.8,1.9c0,0.5-0.1,0.9-0.3,1.2
		S12,9,11.7,9.2s-0.6,0.3-1,0.4S9.8,9.8,9.2,9.8H8.4v1.6H9.6z M8.4,8.4h0.3c0.7,0,1.2-0.1,1.4-0.4c0.2-0.2,0.3-0.5,0.3-0.9
		c0-0.3-0.1-0.5-0.2-0.8S9.9,6.1,9.8,6S9.3,5.9,8.8,5.9H8.4V8.4z"/>
</g>
</svg>
