<svg width="25" height="25" viewBox="0 0 25 25" fill="none" xmlns="http://www.w3.org/2000/svg">
<circle cx="12.5" cy="12.5" r="12.5" fill="#003761"/>
<path d="M18.6675 7.64046H19.4813V6.72493H17.1367V9.06947H18.0522V8.32744C20.3725 11.0342 20.2516 15.1272 17.6894 17.6894C16.3867 18.9921 14.6548 19.7095 12.8125 19.7095V20.625C14.8993 20.625 16.8612 19.8124 18.3368 18.3368C19.8124 16.8612 20.625 14.8993 20.625 12.8125C20.625 10.8876 19.933 9.06917 18.6675 7.64046Z" fill="white"/>
<path d="M7.42682 17.1215C6.44769 15.9025 5.91553 14.3985 5.91553 12.8125C5.91553 10.9702 6.63293 9.23828 7.93561 7.93561C9.23828 6.63293 10.9702 5.91553 12.8125 5.91553V5C10.7257 5 8.76382 5.81265 7.28824 7.28824C5.81262 8.76382 5 10.7257 5 12.8125C5 14.6678 5.64285 16.4241 6.82239 17.828H5.9978V18.7435H8.34235V16.399H7.42682V17.1215Z" fill="white"/>
<path d="M13.1971 17.6993V16.7838H14.5703V15.8682H13.1971V14.9527H14.5703V14.0372H13.1971V12.1572C14.1763 11.9464 14.9127 11.0741 14.9127 10.0327C14.9127 8.83432 13.9377 7.85938 12.7393 7.85938C11.5409 7.85938 10.5659 8.83435 10.5659 10.0327C10.5659 11.0741 11.3022 11.9464 12.2815 12.1572V17.6993H13.1971ZM11.4814 10.0327C11.4814 9.33914 12.0457 8.7749 12.7393 8.7749C13.4328 8.7749 13.9971 9.33917 13.9971 10.0327C13.9971 10.7263 13.4329 11.2906 12.7393 11.2906C12.0457 11.2906 11.4814 10.7263 11.4814 10.0327Z" fill="white"/>
</svg>
