<svg width="25" height="25" viewBox="0 0 25 25" fill="none" xmlns="http://www.w3.org/2000/svg">
    <circle cx="12.5" cy="12.5" r="12.5" fill="#EFEFEF"/>
    <path d="M18.6675 7.6405H19.4813V6.72498H17.1367V9.06952H18.0522V8.32748C20.3725 11.0342 20.2516 15.1273 17.6894 17.6895C16.3867 18.9921 14.6548 19.7095 12.8125 19.7095V20.6251C14.8993 20.6251 16.8612 19.8124 18.3368 18.3369C19.8124 16.8612 20.625 14.8994 20.625 12.8126C20.625 10.8876 19.933 9.06921 18.6675 7.6405V7.6405Z" fill="#003761"/>
    <path d="M7.42682 17.1215C6.44769 15.9025 5.91553 14.3985 5.91553 12.8125C5.91553 10.9702 6.63293 9.23828 7.93561 7.93561C9.23828 6.63293 10.9702 5.91553 12.8125 5.91553V5C10.7257 5 8.76382 5.81265 7.28824 7.28824C5.81262 8.76383 5 10.7257 5 12.8125C5 14.6678 5.64285 16.4241 6.82239 17.828H5.9978V18.7435H8.34235V16.399H7.42682V17.1215Z" fill="#003761"/>
    <path d="M13.1972 17.6993V16.7838H14.5705V15.8682H13.1972V14.9527H14.5705V14.0372H13.1972V12.1572C14.1765 11.9464 14.9129 11.0741 14.9129 10.0327C14.9129 8.83432 13.9379 7.85938 12.7395 7.85938C11.541 7.85938 10.5661 8.83435 10.5661 10.0327C10.5661 11.0741 11.3024 11.9464 12.2817 12.1572V17.6993H13.1972ZM11.4816 10.0327C11.4816 9.33914 12.0459 8.7749 12.7394 8.7749C13.433 8.7749 13.9973 9.33917 13.9973 10.0327C13.9973 10.7263 13.433 11.2906 12.7394 11.2906C12.0458 11.2906 11.4816 10.7263 11.4816 10.0327V10.0327Z" fill="#003761"/>
</svg>

