<svg width="14" height="20" viewBox="0 0 14 20" fill="none" xmlns="http://www.w3.org/2000/svg">
<path d="M9.32823 12.875C9.21885 12.8594 9.09385 12.8594 8.98448 12.8594C8.92198 12.8594 8.78135 12.8125 8.76573 12.6719C9.42198 12.625 10.547 12.3907 12.0157 11.5782C12.0939 11.5313 12.1564 11.4375 12.1564 11.3438V6.82817C12.1564 5.06255 11.5626 3.67192 10.422 2.76567L10.8595 1.0938C10.8907 0.937546 10.8126 0.750046 10.5939 0.750046H3.40635C3.2501 0.750046 3.09385 0.890671 3.14073 1.0938C3.2501 1.51567 3.59385 2.76567 3.59385 2.76567C2.45323 3.6563 1.85948 5.06255 1.85948 6.82817V11.3282C1.85948 11.4219 1.90635 11.5157 2.0001 11.5625C3.45323 12.3907 4.57823 12.6094 5.2501 12.6563C5.23448 12.7657 5.14073 12.8438 5.03135 12.8438C4.90635 12.8438 4.67198 12.8594 4.65635 12.8594C2.26573 13.0469 0.500103 15.0157 0.515728 17.3594V18.9844C0.515728 19.1407 0.640728 19.25 0.796978 19.2657H13.2345C13.3907 19.2657 13.5001 19.1407 13.5157 18.9844V17.375C13.5001 15.7813 12.4064 13.125 9.32823 12.875ZM7.0001 14.875L5.3126 13.3438C5.60948 13.2344 5.79698 12.9532 5.79698 12.625V12.125C6.57823 12.3907 7.4376 12.3907 8.21885 12.125V12.625C8.21885 12.9375 8.40635 13.2188 8.70323 13.3438L7.0001 14.875ZM3.6876 7.0313C5.6876 6.8438 7.1876 6.29692 8.26573 5.35942L8.28135 5.37505C8.89073 6.17192 9.29698 6.7188 10.3439 6.95317V8.45317C10.3439 10.2813 8.85948 11.7813 7.01573 11.7813C5.17198 11.7813 3.6876 10.2969 3.6876 8.45317V7.0313ZM8.76573 12.1094V11.8907C10.0626 11.2344 10.8751 9.9063 10.8751 8.45317V7.04692C11.0939 7.07817 11.3282 7.0938 11.6095 7.0938V11.1719C10.3282 11.8594 9.34385 12.0625 8.76573 12.1094ZM10.2345 1.29692L9.57823 3.75005C8.7501 3.43755 7.89073 3.26567 7.0001 3.26567C6.1251 3.26567 5.2501 3.43755 4.42198 3.75005L3.76573 1.29692H10.2345ZM3.7501 3.3438L3.98448 4.18755C4.03135 4.32817 4.20323 4.43755 4.35948 4.35942C5.1876 4.00005 6.09385 3.79692 7.0001 3.79692C7.90635 3.81255 8.8126 4.00005 9.64073 4.35942C9.82823 4.43755 9.98448 4.29692 10.0157 4.18755L10.2501 3.3438C11.0782 4.0938 11.5314 5.18755 11.5939 6.54692C10.3439 6.54692 9.57823 6.39067 8.5001 4.79692C8.4376 4.70317 8.2501 4.62505 8.09385 4.76567C6.92198 5.93755 5.04698 6.51567 2.40635 6.54692C2.46885 5.18755 2.92198 4.0938 3.7501 3.3438ZM2.40635 7.0938C2.65635 7.0938 2.90635 7.07817 3.14073 7.07817V8.4688C3.14073 9.92192 3.95323 11.25 5.2501 11.9063V12.125C4.65635 12.0782 3.6876 11.875 2.40635 11.1719V7.0938ZM1.04698 17.375C1.04698 15.3594 2.5626 13.6563 4.57823 13.4375L6.59385 15.2657L5.9376 15.875C5.8751 15.9219 5.84385 16 5.84385 16.0782V18.7344H1.04698V17.375ZM12.9532 18.7188H6.39073V16.1875L9.42198 13.4375H9.4376H9.45323C9.70323 13.4688 9.93761 13.5157 10.172 13.5938H10.1876C11.8439 14.1094 12.9689 15.6407 12.9689 17.375L12.9532 18.7188Z" fill="#0C8FF3"/>
</svg>
