<svg width="32" height="35" viewBox="0 0 32 35" fill="none" xmlns="http://www.w3.org/2000/svg">
<path d="M20.0312 22.929V18.8883C21.0558 18.3809 21.7369 17.3291 21.7369 16.1328V10.6641C21.7369 8.9679 20.3569 7.58789 18.6608 7.58789H17.7435C18.9094 6.86371 19.6878 5.57209 19.6878 4.10156C19.6878 1.83983 17.8479 0 15.5862 0C13.3247 0 11.4846 1.83983 11.4846 4.10156C11.4846 5.57209 12.263 6.86371 13.4289 7.58789H12.5116C10.8155 7.58789 9.43546 8.9679 9.43546 10.6641V16.1328C9.43546 17.3291 10.1164 18.3809 11.1412 18.8883V22.9639C7.75639 23.2684 0 24.3437 0 27.7881C0 30.3954 4.48288 31.641 7.94998 32.2141L6.61777 33.1295C6.15101 33.4502 6.03245 34.0884 6.35315 34.5551C6.55209 34.8446 6.87279 35 7.19936 35C7.39937 35 7.60151 34.9415 7.77882 34.8198L11.3477 32.3679C11.5832 32.2061 11.7405 31.9532 11.7816 31.6704C11.8227 31.3874 11.7439 31.1003 11.5642 30.8779L8.83785 27.5072C8.4819 27.0668 7.83623 26.9985 7.3959 27.3547C6.95557 27.7106 6.88721 28.3563 7.24342 28.7967L8.38684 30.2103C6.65836 29.9321 5.17635 29.5596 4.02813 29.1107C2.38617 28.4693 2.05078 27.9042 2.05078 27.7881C2.05078 27.6546 2.45213 27.0148 4.41586 26.3213C6.11069 25.7226 8.47416 25.2679 11.1412 25.0222V25.3611C11.1412 27.0572 12.5212 28.4372 14.2174 28.4372H16.955C18.6512 28.4372 20.0312 27.0572 20.0312 25.3611V24.9864C22.8561 25.2211 25.3675 25.6887 27.1486 26.3149C29.127 27.0105 29.5315 27.6538 29.5315 27.7881C29.5315 27.9598 28.9772 28.7606 26.2652 29.5419C23.765 30.2621 20.3625 30.6926 16.6842 30.7542C16.1181 30.7636 15.6666 31.2304 15.6762 31.7965C15.6855 32.3569 16.1427 32.8048 16.701 32.8048H16.7187C20.5722 32.7401 24.1642 32.2814 26.8329 31.5126C29.9844 30.6047 31.5823 29.3515 31.5823 27.7881C31.5823 24.2056 23.2099 23.1861 20.0312 22.929ZM15.5862 2.05078C16.7171 2.05078 17.637 2.9707 17.637 4.10156C17.637 5.23243 16.7171 6.15234 15.5862 6.15234C14.4553 6.15234 13.5354 5.23243 13.5354 4.10156C13.5354 2.9707 14.4553 2.05078 15.5862 2.05078ZM17.9804 18.1542V25.3613C17.9804 25.9266 17.5203 26.3867 16.955 26.3867H14.2174C13.6521 26.3867 13.192 25.9266 13.192 25.3613V18.1542C13.192 17.6543 12.8318 17.2274 12.3391 17.1435C11.8529 17.0605 11.4862 16.626 11.4862 16.1328V10.6641C11.4862 10.0988 11.9463 9.63867 12.5116 9.63867H18.6605C19.2261 9.63867 19.6859 10.0988 19.6859 10.6641V16.1328C19.6859 16.626 19.3195 17.0605 18.8333 17.1435C18.3406 17.2274 17.9804 17.6543 17.9804 18.1542Z" fill="#93329E"/>
</svg>
