<svg width="18" height="18" viewBox="0 0 18 18" fill="none" xmlns="http://www.w3.org/2000/svg">
<path d="M9 0C4.03594 0 0 4.03594 0 9C0 13.9641 4.03594 18 9 18C13.9641 18 18 13.9641 18 9C18 4.03594 13.9641 0 9 0ZM9 17.2512C4.45078 17.2512 0.748828 13.5492 0.748828 9C0.748828 4.45078 4.45078 0.748828 9 0.748828C13.5492 0.748828 17.2512 4.45078 17.2512 9C17.2512 13.5492 13.5492 17.2512 9 17.2512Z" fill="#FF7B54"/>
<path d="M7.8752 5.24895H5.6252C5.41777 5.24895 5.24902 5.4177 5.24902 5.62513V12.3751C5.24902 12.5825 5.41777 12.7513 5.6252 12.7513H7.8752C8.08262 12.7513 8.25137 12.5825 8.25137 12.3751V5.62513C8.25137 5.4177 8.08262 5.24895 7.8752 5.24895Z" fill="#FF7B54"/>
<path d="M12.3751 5.24895H10.1251C9.91765 5.24895 9.7489 5.4177 9.7489 5.62513V12.3751C9.7489 12.5825 9.91765 12.7513 10.1251 12.7513H12.3751C12.5825 12.7513 12.7512 12.5825 12.7512 12.3751V5.62513C12.7512 5.4177 12.5825 5.24895 12.3751 5.24895Z" fill="#FF7B54"/>
</svg>
