<svg width="25" height="25" viewBox="0 0 25 25" fill="none" xmlns="http://www.w3.org/2000/svg">
<path d="M6.88133 16.1512C6.88133 15.5888 6.73751 15.1331 6.5598 15.1331C6.38237 15.1331 6.23828 15.5888 6.23828 16.1512C6.23828 16.7137 6.38237 17.1694 6.5598 17.1694C6.73751 17.1694 6.88133 16.7137 6.88133 16.1512Z" fill="#003761"/>
<path d="M22.7459 4.03003H2.2541C1.01098 4.03003 0 5.07223 0 6.31508V6.69397H25V6.31508C25 5.07223 23.989 4.03003 22.7459 4.03003Z" fill="#003761"/>
<path d="M8.0176 17.9304C8.74255 17.9309 9.39545 17.4915 9.66788 16.8199C9.9403 16.148 9.77807 15.378 9.25751 14.8734C8.73694 14.3689 7.96236 14.2304 7.29932 14.5236C8.0168 15.4898 8.0168 16.8122 7.29932 17.7783C7.52558 17.8786 7.77025 17.9304 8.0176 17.9304Z" fill="#003761"/>
<path d="M0 18.685C0 19.9279 1.01098 20.9701 2.2541 20.9701H22.7459C23.989 20.9701 25 19.9279 25 18.685V11.4072H0V18.685ZM5.10187 13.4153C5.61817 13.415 6.12379 13.5615 6.55978 13.838C7.70551 13.1146 9.20824 13.3387 10.0927 14.3652C10.9773 15.3914 10.9773 16.9107 10.0927 17.9371C9.20824 18.9633 7.70551 19.1877 6.55978 18.4641C5.57628 19.0842 4.30781 19.0145 3.39796 18.2904C2.48837 17.5662 2.1359 16.3458 2.51958 15.2481C2.90327 14.1504 3.93907 13.4153 5.10187 13.4153Z" fill="#003761"/>
<path d="M0 7.65039H25V10.4509H0V7.65039Z" fill="#003761"/>
<path d="M5.1018 17.9302C5.34941 17.9302 5.59409 17.8784 5.82035 17.7781C5.1026 16.812 5.1026 15.4896 5.82035 14.5234C5.1573 14.2307 4.38326 14.3695 3.86296 14.8738C3.34292 15.3783 3.1807 16.1478 3.45285 16.8194C3.72501 17.491 4.37739 17.9302 5.1018 17.9302Z" fill="#003761"/>
</svg>
