<svg width="51" height="22" viewBox="0 0 51 22" fill="none" xmlns="http://www.w3.org/2000/svg">
<path d="M7.15039 10.0942V13H5.7915V5.17969H8.7832C9.6569 5.17969 10.3498 5.40706 10.8618 5.86182C11.3774 6.31657 11.6353 6.91813 11.6353 7.6665C11.6353 8.43278 11.3828 9.02897 10.8779 9.45508C10.3766 9.88118 9.67301 10.0942 8.76709 10.0942H7.15039ZM7.15039 9.00391H8.7832C9.2666 9.00391 9.63542 8.89111 9.88965 8.66553C10.1439 8.43636 10.271 8.10693 10.271 7.67725C10.271 7.25472 10.1421 6.91813 9.88428 6.66748C9.62646 6.41325 9.27197 6.28255 8.8208 6.27539H7.15039V9.00391ZM15.4055 13.1074C14.5784 13.1074 13.907 12.8478 13.3914 12.3286C12.8793 11.8058 12.6233 11.1112 12.6233 10.2446V10.0835C12.6233 9.50342 12.7343 8.986 12.9563 8.53125C13.1819 8.07292 13.497 7.71663 13.9016 7.4624C14.3063 7.20817 14.7574 7.08105 15.2552 7.08105C16.0465 7.08105 16.657 7.3335 17.0867 7.83838C17.52 8.34326 17.7366 9.05762 17.7366 9.98145V10.5078H13.9392C13.9786 10.9876 14.138 11.3672 14.4173 11.6465C14.7001 11.9258 15.0546 12.0654 15.4807 12.0654C16.0787 12.0654 16.5657 11.8237 16.9417 11.3403L17.6453 12.0117C17.4125 12.359 17.101 12.6294 16.7107 12.8228C16.324 13.0125 15.8889 13.1074 15.4055 13.1074ZM15.2498 8.12842C14.8917 8.12842 14.6017 8.25374 14.3797 8.50439C14.1612 8.75505 14.0216 9.10417 13.9607 9.55176H16.4475V9.45508C16.4189 9.01823 16.3025 8.6888 16.0984 8.4668C15.8943 8.24121 15.6114 8.12842 15.2498 8.12842ZM20.1856 7.18848L20.2232 7.85986C20.6529 7.34066 21.2169 7.08105 21.9151 7.08105C23.1254 7.08105 23.7413 7.77393 23.7628 9.15967V13H22.4576V9.23486C22.4576 8.86605 22.377 8.59391 22.2159 8.41846C22.0583 8.23942 21.7987 8.1499 21.4371 8.1499C20.9107 8.1499 20.5186 8.38802 20.2608 8.86426V13H18.9556V7.18848H20.1856ZM25.0731 10.0513C25.0731 9.15609 25.2808 8.43815 25.6961 7.89746C26.1115 7.35319 26.6683 7.08105 27.3665 7.08105C27.9824 7.08105 28.4801 7.2959 28.8597 7.72559V4.75H30.1649V13H28.9832L28.9188 12.3984C28.5285 12.8711 28.0075 13.1074 27.3558 13.1074C26.6755 13.1074 26.124 12.8335 25.7015 12.2856C25.2826 11.7378 25.0731 10.993 25.0731 10.0513ZM26.3783 10.1641C26.3783 10.7549 26.4911 11.2168 26.7166 11.5498C26.9458 11.8792 27.2699 12.0439 27.6888 12.0439C28.2223 12.0439 28.6126 11.8058 28.8597 11.3296V8.84814C28.6198 8.38265 28.2331 8.1499 27.6996 8.1499C27.277 8.1499 26.9512 8.3182 26.722 8.65479C26.4928 8.98779 26.3783 9.49089 26.3783 10.1641ZM33.1349 13H31.8297V7.18848H33.1349V13ZM31.7491 5.6792C31.7491 5.47868 31.8118 5.31217 31.9371 5.17969C32.066 5.0472 32.2487 4.98096 32.485 4.98096C32.7213 4.98096 32.9039 5.0472 33.0328 5.17969C33.1617 5.31217 33.2262 5.47868 33.2262 5.6792C33.2262 5.87614 33.1617 6.04085 33.0328 6.17334C32.9039 6.30225 32.7213 6.3667 32.485 6.3667C32.2487 6.3667 32.066 6.30225 31.9371 6.17334C31.8118 6.04085 31.7491 5.87614 31.7491 5.6792ZM35.9921 7.18848L36.0297 7.85986C36.4594 7.34066 37.0233 7.08105 37.7216 7.08105C38.9319 7.08105 39.5478 7.77393 39.5692 9.15967V13H38.2641V9.23486C38.2641 8.86605 38.1835 8.59391 38.0224 8.41846C37.8648 8.23942 37.6052 8.1499 37.2436 8.1499C36.7172 8.1499 36.3251 8.38802 36.0673 8.86426V13H34.7621V7.18848H35.9921ZM40.8957 10.0513C40.8957 9.14893 41.1069 8.4292 41.5295 7.89209C41.9556 7.3514 42.5195 7.08105 43.2214 7.08105C43.8838 7.08105 44.4048 7.31201 44.7844 7.77393L44.8434 7.18848H46.0197V12.8228C46.0197 13.5854 45.7816 14.187 45.3054 14.6274C44.8327 15.0679 44.1935 15.2881 43.3879 15.2881C42.9618 15.2881 42.5446 15.1986 42.1364 15.0195C41.7318 14.8441 41.4238 14.6131 41.2126 14.3267L41.8303 13.5425C42.2313 14.0187 42.7254 14.2568 43.3127 14.2568C43.7459 14.2568 44.0879 14.1387 44.3386 13.9023C44.5892 13.6696 44.7145 13.3258 44.7145 12.8711V12.479C44.3386 12.8979 43.8373 13.1074 43.2106 13.1074C42.5303 13.1074 41.9735 12.8371 41.5402 12.2964C41.1105 11.7557 40.8957 11.0073 40.8957 10.0513ZM42.1955 10.1641C42.1955 10.7477 42.3137 11.2078 42.55 11.5444C42.7899 11.8774 43.1211 12.0439 43.5436 12.0439C44.07 12.0439 44.4603 11.8184 44.7145 11.3672V8.81055C44.4675 8.37012 44.0807 8.1499 43.5544 8.1499C43.1247 8.1499 42.7899 8.31999 42.55 8.66016C42.3137 9.00033 42.1955 9.50163 42.1955 10.1641Z" fill="#F40505" fill-opacity="0.73"/>
<rect x="0.996582" width="50" height="19" rx="5" fill="#F40505" fill-opacity="0.15"/>
</svg>
