<svg width="25" height="25" viewBox="0 0 25 25" fill="none" xmlns="http://www.w3.org/2000/svg">
<g clip-path="url(#clip0_519_1504)">
<path d="M6.1377 6.152C5.86816 6.152 5.64941 6.37075 5.64941 6.64028C5.64941 6.90981 5.86816 7.12856 6.1377 7.12856C6.40723 7.12856 6.62598 6.90981 6.62598 6.64028C6.62598 6.37075 6.40723 6.152 6.1377 6.152Z" fill="#F40505"/>
<path d="M10.532 15.2825H9.06724V13.8177C9.06724 13.5481 8.84858 13.3295 8.57895 13.3295C8.30933 13.3295 8.09072 13.5481 8.09072 13.8177V15.2825H6.62598C6.35635 15.2825 6.1377 15.5011 6.1377 15.7707C6.1377 16.0403 6.35635 16.259 6.62598 16.259H8.09072V17.7237C8.09072 17.9934 8.30937 18.212 8.57895 18.212C8.84853 18.212 9.06724 17.9934 9.06724 17.7237V16.259H10.532C10.8016 16.259 11.0203 16.0403 11.0203 15.7707C11.0203 15.5011 10.8017 15.2825 10.532 15.2825Z" fill="#F40505"/>
<path d="M23.7098 15.7219C22.6305 13.8524 20.2439 13.2126 18.3742 14.2922L16.3909 15.4373V11.1972C16.3909 10.673 16.2175 10.1529 15.9026 9.73247L13.4614 6.47754V5.0915C14.0296 4.88994 14.4379 4.34727 14.4379 3.71069V1.46475C14.4378 0.65708 13.7807 0 12.973 0H4.18442C3.37676 0 2.71963 0.65708 2.71963 1.46475V3.71074C2.71963 4.34722 3.12788 4.88999 3.69614 5.09155V6.47759L1.25469 9.73271C0.939941 10.1529 0.766602 10.673 0.766602 11.1972V20.6533C0.766602 21.9994 1.86177 23.0945 3.20786 23.0945H11.0546C12.1494 24.9296 14.5101 25.5438 16.3605 24.4753L22.2802 21.0575C24.1335 19.9873 24.7946 17.6015 23.7098 15.7219ZM3.69614 1.46475C3.69614 1.19551 3.91519 0.976465 4.18438 0.976465H12.973C13.2422 0.976465 13.4613 1.19551 13.4613 1.46475V3.71074C13.4613 3.97998 13.2422 4.19897 12.973 4.19897H4.18442C3.91519 4.19897 3.69619 3.97993 3.69619 3.71074V1.46475H3.69614ZM2.03613 10.3183L4.575 6.93325C4.63838 6.84878 4.67266 6.74595 4.67266 6.64028V5.17554H12.4848V6.15205H8.09048C7.82085 6.15205 7.6022 6.3707 7.6022 6.64033C7.6022 6.90996 7.82085 7.12861 8.09048 7.12861H12.7289L15.1211 10.3182C15.2775 10.5269 15.3746 10.7767 15.404 11.0347H1.75352C1.78281 10.7766 1.87993 10.5269 2.03613 10.3183ZM3.20791 22.118C2.40024 22.118 1.74316 21.4609 1.74316 20.6533V20.1602H10.614C10.4592 20.7932 10.4602 21.4694 10.6375 22.1181H3.20791V22.118ZM10.997 19.1885H1.74312V12.0111H15.4143V16.001L12.4544 17.7101C11.8373 18.0666 11.3384 18.574 10.997 19.1885ZM15.8723 23.6296C14.4711 24.4388 12.6806 23.9603 11.8709 22.5581C11.0574 21.1423 11.5504 19.3599 12.9428 18.5557L15.593 17.0255L18.5226 22.0995L15.8723 23.6296ZM21.7919 20.2119L19.3683 21.6112L16.4387 16.5372L18.8624 15.1379C20.2646 14.3285 22.0544 14.8078 22.8641 16.2101C23.6773 17.6193 23.1828 19.4087 21.7919 20.2119Z" fill="#F40505"/>
</g>
<defs>
<clipPath id="clip0_519_1504">
<rect width="25" height="25" fill="white"/>
</clipPath>
</defs>
</svg>
