<svg width="29" height="29" viewBox="0 0 29 29" fill="none" xmlns="http://www.w3.org/2000/svg">
	<g clip-path="url(#clip0_270_174)">
		<path d="M27.3236 14.2905H21.1274V11.3814C21.1274 10.1654 20.1382 9.17644 18.9222 9.17644H18.2297C18.2297 9.08838 18.2299 3.9281 18.2294 3.89469C18.3467 1.797 16.7408 0.0260922 14.6239 0.000205601C13.6011 -0.0121846 12.6118 0.407753 11.9113 1.15249C11.2162 1.89169 10.8582 2.89375 10.9259 3.90554V9.17644H10.2334C9.01759 9.17644 8.02837 10.1654 8.02837 11.3814V14.0024C8.02837 14.2369 8.21864 14.0176 8.45317 14.0176C8.6877 14.0176 8.87798 13.9489 8.87798 13.7143V11.3814C8.87798 10.6341 9.48598 10.026 10.2334 10.026H12.0651C12.7393 10.8011 14.2425 12.5114 14.2586 12.5297C14.4277 12.722 14.7274 12.7225 14.8969 12.5297C14.9131 12.5114 16.4163 10.8011 17.0904 10.026H18.9222C19.6696 10.026 20.2776 10.6341 20.2776 11.3814V14.2905H18.9859V12.6446C18.9859 12.41 18.7956 12.2198 18.5611 12.2198C18.3266 12.2198 18.1363 12.41 18.1363 12.6446V14.2905H11.0195V12.6446C11.0195 12.41 10.8292 12.2198 10.5947 12.2198C10.3599 12.2198 10.1699 12.41 10.1699 12.6446V14.2905H8.87798V13.7143C8.87798 13.4798 8.68792 13.2895 8.45317 13.2895C8.21864 13.2895 8.02837 13.4798 8.02837 13.7143V14.2905H1.76405C1.3534 14.2905 1.01953 14.6243 1.01953 15.0348V16.3773C1.01953 16.7181 1.24963 17.0052 1.56248 17.0933V28.5752C1.56248 28.8097 1.75254 29 1.98729 29H27.1003C27.3351 29 27.5251 28.8097 27.5251 28.5752V17.0933C27.838 17.0052 28.0681 16.7178 28.0681 16.3773V15.0348C28.0681 14.6243 27.734 14.2905 27.3236 14.2905ZM16.5136 9.17644V8.53724C16.8497 8.28103 17.1548 7.96707 17.38 7.60377V9.17644H16.5136ZM13.3502 8.00424C13.3229 7.97968 13.2924 7.95866 13.2594 7.94185C12.7391 7.57125 12.2899 7.03184 12.2443 6.41388L12.1753 5.47687C12.4326 5.55166 12.6632 5.55763 12.9588 5.53993C14.2606 5.46183 15.3288 4.52394 16.0047 3.53516C16.2747 4.03231 16.6094 4.45889 17.0052 4.80891C17.0128 4.81533 17.0205 4.82152 17.0283 4.82772L16.9112 6.41388C16.8659 7.03184 16.4167 7.57147 15.8961 7.94207C15.8631 7.95889 15.8328 7.9799 15.8056 8.00424C15.3693 8.2943 14.8974 8.46533 14.5779 8.46533C14.2584 8.46511 13.7865 8.2943 13.3502 8.00424ZM12.5302 1.73461C13.0594 1.17196 13.7902 0.840302 14.6133 0.849816C16.2574 0.86995 17.5 2.25632 17.3787 3.902L17.3727 3.98519C16.9836 3.58273 16.6749 3.0723 16.4537 2.46408C16.3953 2.30389 16.2468 2.19415 16.0764 2.1853C15.9058 2.17623 15.7472 2.27004 15.6724 2.42336C15.1859 3.42254 14.1699 4.61598 12.9079 4.69187C12.8185 4.69718 12.7306 4.69895 12.647 4.69718C12.3988 4.69165 12.1766 4.58611 12.0178 4.41862C12.0085 4.40734 11.9987 4.39672 11.9881 4.38654C11.8673 4.24582 11.789 4.06639 11.7744 3.86726C11.7158 3.07252 11.9841 2.31517 12.5302 1.73461ZM11.7755 7.60333C12.0005 7.96685 12.3058 8.28103 12.6421 8.53724V9.17644H11.7755V7.60333ZM14.5779 11.6056C14.2141 11.1916 13.6079 10.5009 13.1254 9.94883C13.3429 9.83533 13.4918 9.6081 13.4918 9.34636V9.04059C13.8918 9.21892 14.2785 9.31472 14.5779 9.31472C14.8772 9.31472 15.264 9.21892 15.664 9.04059V9.34636C15.664 9.6081 15.8129 9.83533 16.0302 9.94883C15.5476 10.5009 14.9414 11.1916 14.5779 11.6056ZM2.41187 28.1504V17.1218H25.68C25.9148 17.1218 25.0558 16.9316 25.0558 16.697C25.0558 16.4625 25.1486 16.2722 24.9139 16.2722H1.86914V15.1401H27.2185V16.2722H24.6039C24.3692 16.2722 24.1791 16.4625 24.1791 16.697C24.1791 16.9316 24.3692 17.1218 24.6039 17.1218H26.6755V28.1504H2.41187Z" fill="#003761" />
		<path d="M18.0181 20.8081H16.4731V19.2631C16.4731 18.9361 16.2072 18.67 15.88 18.67H13.4103C13.0833 18.67 12.8172 18.9361 12.8172 19.2631V20.8081H11.2724C10.9454 20.8081 10.6792 21.0743 10.6792 21.4013V23.8709C10.6792 24.1979 10.9454 24.4641 11.2724 24.4641H12.8172V26.0091C12.8172 26.3361 13.0833 26.6023 13.4103 26.6023H15.88C16.207 26.6023 16.4731 26.3361 16.4731 26.0091V24.4641H18.0181C18.3452 24.4641 18.6113 24.1979 18.6113 23.8709V21.4013C18.6113 21.0743 18.3452 20.8081 18.0181 20.8081ZM17.7617 23.6145H16.2167C15.8897 23.6145 15.6235 23.8804 15.6235 24.2077V25.7525H13.667V24.2077C13.667 23.8807 13.4008 23.6145 13.0738 23.6145H11.5288V21.6577H13.0738C13.4008 21.6577 13.667 21.3918 13.667 21.0648V19.5198H15.6235V21.0646C15.6235 21.3916 15.8897 21.6577 16.2167 21.6577H17.7617V23.6145Z" fill="#003761" />
	</g>
	<defs>
		<clipPath id="clip0_270_174">
			<rect width="29" height="29" fill="white" />
		</clipPath>
	</defs>
</svg>
