<svg width="18" height="18" viewBox="0 0 18 18" fill="none" xmlns="http://www.w3.org/2000/svg">
<path d="M9.70307 0.21363C9.53174 0.075195 9.28065 0.101851 9.14219 0.273164C9.00372 0.444477 9.03044 0.695575 9.20169 0.83401L10.119 1.57523H9.45238C5.26374 1.57523 1.875 5.00399 1.875 9.22511C1.875 13.4463 5.26374 16.875 9.45238 16.875C13.641 16.875 17.0298 13.4463 17.0298 9.22511C17.0298 6.55593 15.6752 4.20492 13.6218 2.83644C13.4385 2.71429 13.1909 2.76386 13.0687 2.94714C12.9466 3.13042 12.9961 3.37802 13.1794 3.50017C15.0184 4.72574 16.2321 6.83156 16.2321 9.22511C16.2321 13.0133 13.193 16.0774 9.45238 16.0774C5.7118 16.0774 2.67262 13.0133 2.67262 9.22511C2.67262 5.43693 5.7118 2.37285 9.45238 2.37285H10.119L9.20169 3.11406C9.03044 3.2525 9.00372 3.5036 9.14219 3.67491C9.28065 3.84623 9.53174 3.87288 9.70307 3.73445L11.4977 2.28423C11.5914 2.20851 11.6458 2.0945 11.6458 1.97404C11.6458 1.85357 11.5914 1.73956 11.4977 1.66384L9.70307 0.21363Z" fill="#003761"/>
<path d="M12.9381 7.11823L8.89497 10.9827L6.72429 8.81212C6.5588 8.64636 6.28994 8.64636 6.12432 8.81212C5.95856 8.97788 5.95856 9.24647 6.12432 9.41223L8.58847 11.8764C8.66829 11.9569 8.77737 12.0014 8.89071 12C9.0006 12.0009 9.10636 11.9581 9.18432 11.8808L13.5298 7.73111C13.6111 7.65328 13.6583 7.54632 13.6607 7.43365C13.663 7.3211 13.6205 7.21228 13.5426 7.131C13.3788 6.96138 13.1089 6.9558 12.9381 7.11823Z" fill="#003761"/>
</svg>
