<svg width="18" height="18" viewBox="0 0 18 18" fill="none" xmlns="http://www.w3.org/2000/svg">
<path d="M12.0435 0.268311C10.9444 0.268311 9.87088 0.577257 8.93802 1.16187C8.75912 1.25859 7.40282 2.04269 7.61333 3.47117C7.69021 3.99289 7.96626 4.36575 8.23325 4.72637C8.61001 5.23524 8.96959 5.72169 8.87154 6.70572C8.86623 6.7029 8.86126 6.69962 8.85591 6.69689C8.57701 6.55466 8.25943 6.52966 7.96165 6.62638C7.68907 6.71494 7.46329 6.89599 7.31805 7.13986C7.21884 7.0438 7.10544 6.96127 6.97977 6.89529C6.76086 6.78033 6.52184 6.724 6.28133 6.72759C6.26325 6.53173 6.27344 6.40302 6.28504 6.2588C6.29969 6.07634 6.31625 5.86954 6.27223 5.54419C6.1866 4.91208 5.82461 4.35985 5.25285 3.98918C4.56328 3.54207 3.63644 3.4109 2.83413 3.64668C1.37506 4.07547 0.531538 5.61204 0.953767 7.07193C1.07838 7.50271 1.30732 7.9001 1.61588 8.22104C1.77783 8.38951 1.86545 8.61193 1.85635 8.83123C1.83045 9.4544 1.91654 10.0733 2.11225 10.6709C2.53135 11.9504 3.44218 13.0084 4.67695 13.6496C5.44976 14.051 6.28305 14.2548 7.11426 14.2548C7.61102 14.2548 8.10712 14.182 8.58888 14.0351C8.85568 13.9537 9.11705 13.8508 9.36576 13.7291C10.0462 13.3963 10.5855 12.8281 10.8844 12.1291C11.051 11.7396 11.1371 11.3231 11.1414 10.9051C11.326 10.939 11.5212 10.9292 11.711 10.868C12.3198 10.6718 12.6578 10.007 12.4645 9.38616L12.1649 8.42361C11.9657 7.78408 11.4611 7.29685 10.815 7.12021C10.4025 7.00755 9.97541 7.03361 9.59115 7.1838C9.87436 5.6304 9.31756 4.8777 8.8613 4.26145C8.6324 3.95227 8.43474 3.68524 8.38638 3.35719C8.24782 2.41695 9.27041 1.86961 9.31275 1.84742C9.32283 1.84222 9.33271 1.8366 9.34232 1.83054C10.1532 1.31956 11.0873 1.04949 12.0437 1.04949C14.8973 1.04949 17.219 3.43528 17.219 6.36775C17.219 9.58577 14.6923 12.2899 12.5727 13.9917C10.588 15.5852 8.57697 16.6234 7.99985 16.9075C7.44501 16.6343 5.56641 15.6652 3.66104 14.1769C3.491 14.0441 3.24557 14.0743 3.11272 14.2443C2.97991 14.4143 3.0101 14.6598 3.18011 14.7926C5.51383 16.6155 7.74235 17.6526 7.8361 17.6958C7.88806 17.7198 7.94392 17.7317 7.99978 17.7317C8.05564 17.7317 8.11153 17.7197 8.16345 17.6958C8.26333 17.6497 10.637 16.5449 13.0489 14.6111C14.4745 13.4683 15.6126 12.2732 16.4317 11.0592C17.4723 9.5169 18 7.93846 18 6.36783C18 3.00453 15.3279 0.268311 12.0435 0.268311ZM5.7668 8.08561C5.94379 7.93006 6.13488 7.76185 6.23875 7.51213C6.36828 7.49994 6.49871 7.52502 6.61661 7.58693C6.75364 7.65892 6.85934 7.77303 6.92102 7.91252L6.75809 8.23221L5.62805 8.20982C5.67488 8.16635 5.72137 8.12549 5.7668 8.08561ZM9.19978 8.60264L9.3299 8.34732C9.38181 8.27045 9.44326 8.19916 9.51373 8.13541C9.81182 7.86572 10.2212 7.76795 10.6088 7.87389C10.9965 7.97986 11.2993 8.27225 11.4188 8.65596L11.7184 9.61842C11.7849 9.8321 11.674 10.0591 11.4712 10.1245C11.2785 10.1867 11.0701 10.0904 10.9919 9.90546L10.7635 9.17198C10.6994 8.966 10.4804 8.85096 10.2744 8.91514C10.0685 8.97928 9.95346 9.19823 10.0176 9.40424L10.2519 10.1569C10.6057 11.2986 10.0886 12.5059 9.02232 13.0274C8.81072 13.1309 8.58818 13.2186 8.36087 13.2879C6.10879 13.9746 3.58722 12.6647 2.85456 10.4278C2.68803 9.91936 2.61479 9.39315 2.63678 8.86373C2.65471 8.43264 2.48788 8.00111 2.17901 7.67974C1.95475 7.44638 1.79494 7.16888 1.70416 6.8549C1.40111 5.80704 2.00678 4.70407 3.05432 4.39622C3.24921 4.33895 3.4539 4.31098 3.65878 4.31098C4.07413 4.31098 4.49038 4.42594 4.82781 4.64469C5.09496 4.8179 5.42808 5.1327 5.49801 5.64899C5.53078 5.89091 5.51941 6.03239 5.50625 6.19626C5.49031 6.39501 5.47223 6.62025 5.5275 7.00142C5.5593 7.22076 5.51621 7.26568 5.25097 7.49877C5.17804 7.56287 5.09539 7.63549 5.00984 7.71986C5.00976 7.71998 5.00703 7.72263 5.00691 7.72275L5.00214 7.7274C4.78847 7.93615 4.72125 8.2499 4.83082 8.52674C4.93961 8.80151 5.20121 8.98283 5.49734 8.98869L6.83809 9.01526C7.07852 9.02045 7.3018 8.88569 7.4104 8.6726L7.97568 7.56357C8.02302 7.47064 8.10376 7.4017 8.20298 7.36947C8.30228 7.33728 8.40806 7.34556 8.50107 7.39302C8.59404 7.44037 8.66298 7.52111 8.69521 7.62033C8.72744 7.71959 8.71908 7.82541 8.67169 7.91838L8.65177 7.95744C8.58665 8.06033 8.53146 8.16881 8.48677 8.28115L8.10646 9.02737C7.93556 9.36268 7.6288 9.61999 7.26485 9.73335C7.12075 9.77819 6.97188 9.79952 6.82262 9.79643L5.13324 9.76245C4.91656 9.75835 4.73917 9.92948 4.73484 10.1451C4.7305 10.3608 4.90183 10.5392 5.11754 10.5435L6.80692 10.5775C7.04036 10.5821 7.27259 10.5492 7.49712 10.4793C7.89071 10.3567 8.24142 10.1248 8.50775 9.81846L8.78302 10.7026C8.84716 10.9085 9.06599 11.0236 9.27213 10.9594C9.4781 10.8953 9.5931 10.6763 9.52896 10.4703L9.18103 9.35284C9.10345 9.10342 9.11341 8.83979 9.19978 8.60264Z" fill="#16C79A"/>
</svg>
