<svg width="18" height="18" viewBox="0 0 18 18" fill="none" xmlns="http://www.w3.org/2000/svg">
	<g clip-path="url(#clip0_65_4191)">
		<path d="M8.08995 4.99775H7.18885V4.12427C7.18885 3.94272 7.037 3.79559 6.84977 3.79559C6.66255 3.79559 6.51069 3.94275 6.51069 4.12427V4.99775H5.60959C5.42233 4.99775 5.27051 5.14492 5.27051 5.32644C5.27051 5.50796 5.42233 5.65513 5.60959 5.65513H6.51069V6.52861C6.51069 6.71016 6.66255 6.8573 6.84977 6.8573C7.037 6.8573 7.18885 6.71013 7.18885 6.52861V5.65513H8.08995C8.27721 5.65513 8.42903 5.50796 8.42903 5.32644C8.42903 5.14492 8.27721 4.99775 8.08995 4.99775Z" fill="#003761" />
		<path d="M6.84977 2.43385C5.20438 2.43385 3.86572 3.73148 3.86572 5.32644C3.86572 6.9214 5.20438 8.21903 6.84977 8.21903C8.49517 8.21903 9.83383 6.9214 9.83383 5.32644C9.83383 3.73148 8.49517 2.43385 6.84977 2.43385ZM6.84977 7.56158C5.57833 7.56158 4.54392 6.55888 4.54392 5.32641C4.54392 4.09393 5.57833 3.09123 6.84977 3.09123C8.12122 3.09123 9.15563 4.09393 9.15563 5.32641C9.15563 6.55888 8.12122 7.56158 6.84977 7.56158Z" fill="#003761" />
		<path d="M13.6001 3.0222L10.5822 0.0967403C10.5186 0.035105 10.4323 0.000457764 10.3424 0.000457764H1.01728C0.456348 0.000457764 0 0.442851 0 0.98659V15.844C0 16.3877 0.456348 16.8301 1.01728 16.8301H8.33413C8.52139 16.8301 8.33413 16.6754 8.33413 16.4939C8.33413 16.3124 8.52136 16.1727 8.33413 16.1727H1.01728C0.830292 16.1727 0.678198 16.0252 0.678198 15.844V0.98659C0.678198 0.805333 0.830326 0.657901 1.01728 0.657901H10.0033V2.59723C10.0033 3.14097 10.4596 3.58333 11.0206 3.58333H13.0212V10.2666C13.0212 11.099 13.1821 10.2666 13.3693 10.2666C13.5566 10.2666 13.6994 10.4481 13.6994 10.2666V3.25461C13.6994 3.16743 13.6637 3.08383 13.6001 3.0222ZM11.0206 2.92592C10.8336 2.92592 10.6815 2.77845 10.6815 2.59723V1.12275L12.5417 2.92592H11.0206Z" fill="#003761" />
		<path d="M9.80128 9.54067H3.91232C3.72506 9.54067 3.57324 9.68787 3.57324 9.86936C3.57324 10.0508 3.7251 10.198 3.91232 10.198H9.80128C9.98854 10.198 10.1404 10.0509 10.1404 9.86936C10.1404 9.68787 9.98854 9.54067 9.80128 9.54067Z" fill="#003761" />
		<path d="M7.29199 11.3814H3.91232C3.72506 11.3814 3.57324 11.5286 3.57324 11.71C3.57324 11.8915 3.7251 12.0387 3.91232 12.0387H7.29199C7.47925 12.0387 7.63107 11.8916 7.63107 11.71C7.63107 11.5286 7.47925 11.3814 7.29199 11.3814Z" fill="#003761" />
		<path d="M6.33873 13.4645H3.8254C3.68615 13.4645 3.57324 13.6117 3.57324 13.7932C3.57324 13.9746 3.68617 14.1218 3.8254 14.1218H6.33873C6.47799 14.1218 6.59089 13.9747 6.59089 13.7932C6.59089 13.6117 6.47799 13.4645 6.33873 13.4645Z" fill="#003761" />
	</g>
	<path d="M15.0833 12.5132C14.9714 12.5259 14.8624 12.5464 14.7565 12.5733C14.9024 11.7651 14.5986 10.906 13.8893 10.3625C13.3907 9.98047 12.7684 9.8095 12.1371 9.88113C11.5058 9.95276 10.9411 10.2584 10.547 10.7417L7.88146 14.0106C7.48735 14.4939 7.31097 15.0971 7.38486 15.7091C7.45875 16.321 7.77407 16.8684 8.27268 17.2505C8.78742 17.6448 9.41945 17.7995 10.0247 17.7308C10.6299 17.6621 11.2082 17.3701 11.615 16.8712L13.0096 15.161C13.2056 16.3777 14.3642 17.2395 15.6366 17.0951C16.9398 16.9473 17.8759 15.7993 17.7234 14.536C17.5708 13.2727 16.3865 12.3653 15.0833 12.5132ZM11.0128 16.4099C10.4616 17.0858 9.44593 17.2011 8.74866 16.6668C8.41085 16.408 8.19727 16.0371 8.14722 15.6226C8.09716 15.2081 8.21662 14.7994 8.48365 14.472L9.57842 13.1295L12.1076 15.0673L11.0128 16.4099ZM12.5835 14.4836L10.0544 12.5457L11.1491 11.2032C11.4162 10.8757 11.7987 10.6687 12.2263 10.6202C12.654 10.5716 13.0755 10.6874 13.4133 10.9463C14.1106 11.4805 14.2294 12.4651 13.6783 13.141L12.5835 14.4836ZM15.1607 16.3546C14.4414 16.2677 13.8468 15.7142 13.7589 14.9859C13.6709 14.2574 14.1175 13.5859 14.7968 13.3403L15.1607 16.3546ZM15.9231 16.2681L15.5591 13.2538C16.2785 13.3407 16.873 13.8941 16.9609 14.6225C17.0489 15.3509 16.6024 16.0225 15.9231 16.2681Z" fill="#003761" />
	<defs>
		<clipPath id="clip0_65_4191">
			<rect width="17.3628" height="16.8306" fill="white" />
		</clipPath>
	</defs>
</svg>
