<svg width="28" height="29" viewBox="0 0 28 29" fill="none" xmlns="http://www.w3.org/2000/svg">
<path d="M13.0462 8.31449H11.593V6.86133C11.593 6.55929 11.3481 6.31451 11.0462 6.31451C10.7443 6.31451 10.4994 6.55935 10.4994 6.86133V8.31449H9.04621C8.74423 8.31449 8.49939 8.55932 8.49939 8.86131C8.49939 9.16329 8.74423 9.40812 9.04621 9.40812H10.4994V10.8613C10.4994 11.1633 10.7443 11.4081 11.0462 11.4081C11.3481 11.4081 11.593 11.1633 11.593 10.8613V9.40812H13.0462C13.3481 9.40812 13.593 9.16329 13.593 8.86131C13.593 8.55932 13.3481 8.31449 13.0462 8.31449Z" fill="#003761"/>
<path d="M11.0461 4.04919C8.39267 4.04919 6.23389 6.20798 6.23389 8.86141C6.23389 11.5148 8.39267 13.6736 11.0461 13.6736C13.6995 13.6736 15.8583 11.5148 15.8583 8.86141C15.8583 6.20798 13.6995 4.04919 11.0461 4.04919ZM11.0461 12.5799C8.99571 12.5799 7.32758 10.9117 7.32758 8.86135C7.32758 6.81096 8.99571 5.14283 11.0461 5.14283C13.0965 5.14283 14.7646 6.81096 14.7646 8.86135C14.7646 10.9117 13.0965 12.5799 11.0461 12.5799Z" fill="#003761"/>
<path d="M21.9322 5.03039L17.0653 0.163476C16.9627 0.0609365 16.8236 0.0032959 16.6786 0.0032959H1.64051C0.735928 0.0032959 0 0.73928 0 1.64387V26.3612C0 27.2658 0.735928 28.0017 1.64051 28.0017H12.0863C12.3883 28.0017 12.6331 27.7568 12.6331 27.4549C12.6331 27.153 12.3882 26.9081 12.0863 26.9081H1.64051C1.33897 26.9081 1.09369 26.6627 1.09369 26.3613V1.64387C1.09369 1.34232 1.33902 1.09705 1.64051 1.09705H16.1317V4.32339C16.1317 5.22798 16.8677 5.96391 17.7723 5.96391H20.9986V15.6977C20.9986 15.9997 21.2435 16.2445 21.5454 16.2445C21.8473 16.2445 22.0922 15.9996 22.0922 15.6977V5.41703C22.0923 5.272 22.0347 5.13293 21.9322 5.03039ZM17.7723 4.87021C17.4708 4.87021 17.2255 4.62488 17.2255 4.32339V1.87038L20.2254 4.87021H17.7723V4.87021Z" fill="#003761"/>
<path d="M18.0457 15.3124H8.54889C8.24691 15.3124 8.00208 15.5573 8.00208 15.8592C8.00208 16.1611 8.24696 16.406 8.54889 16.406H18.0457C18.3477 16.406 18.5925 16.1612 18.5925 15.8592C18.5926 15.5573 18.3477 15.3124 18.0457 15.3124Z" fill="#003761"/>
<path d="M5.8284 15.3124H4.04658C3.74459 15.3124 3.49976 15.5573 3.49976 15.8592C3.49976 16.1611 3.74465 16.406 4.04658 16.406H5.8284C6.13038 16.406 6.37522 16.1611 6.37522 15.8592C6.37522 15.5573 6.13038 15.3124 5.8284 15.3124Z" fill="#003761"/>
<path d="M13.9991 18.3746H8.54889C8.24691 18.3746 8.00208 18.6195 8.00208 18.9215C8.00208 19.2234 8.24696 19.4683 8.54889 19.4683H13.9991C14.3011 19.4683 14.5459 19.2234 14.5459 18.9215C14.5459 18.6195 14.3011 18.3746 13.9991 18.3746Z" fill="#003761"/>
<path d="M5.8284 18.3746H4.04658C3.74459 18.3746 3.49976 18.6195 3.49976 18.9215C3.49976 19.2234 3.74465 19.4683 4.04658 19.4683H5.8284C6.13038 19.4683 6.37522 19.2234 6.37522 18.9215C6.37522 18.6195 6.13038 18.3746 5.8284 18.3746Z" fill="#003761"/>
<path d="M8.93541 21.5972C8.83375 21.4955 8.69315 21.437 8.54883 21.437C8.405 21.437 8.26445 21.4954 8.16219 21.5972C8.06047 21.6989 8.00195 21.84 8.00195 21.9838C8.00195 22.1276 8.06041 22.2687 8.16219 22.3704C8.2639 22.4721 8.405 22.5307 8.54883 22.5307C8.6932 22.5307 8.83375 22.4722 8.93541 22.3704C9.03768 22.2687 9.0957 22.1276 9.0957 21.9838C9.0957 21.84 9.03768 21.6989 8.93541 21.5972Z" fill="#003761"/>
<path d="M5.8284 21.437H4.04658C3.74459 21.437 3.49976 21.6818 3.49976 21.9838C3.49976 22.2857 3.74465 22.5306 4.04658 22.5306H5.8284C6.13038 22.5306 6.37522 22.2857 6.37522 21.9838C6.37527 21.6818 6.13038 21.437 5.8284 21.437Z" fill="#003761"/>
<path d="M24.6095 21.2181C24.449 21.2181 24.2913 21.2301 24.1367 21.2518C24.4813 20.096 24.1982 18.7915 23.2874 17.8805C22.647 17.2402 21.7956 16.8875 20.89 16.8875C19.9843 16.8875 19.1329 17.2402 18.4926 17.8805L14.1618 22.2112C13.5215 22.8516 13.1688 23.703 13.1688 24.6086C13.1688 25.5143 13.5215 26.3657 14.1618 27.006C14.8229 27.667 15.6909 27.9974 16.5592 27.9974C17.4273 27.9974 18.2957 27.6668 18.9566 27.006L21.2224 24.7402C21.2919 26.5489 22.7842 27.999 24.6095 27.999C26.4791 27.999 28 26.4781 28 24.6086C28 22.739 26.479 21.2181 24.6095 21.2181ZM18.1832 26.2327C17.2877 27.1282 15.8306 27.1282 14.9352 26.2327C14.5013 25.7989 14.2625 25.2221 14.2625 24.6087C14.2625 23.9952 14.5013 23.4184 14.9352 22.9847L16.7139 21.206L19.9619 24.454L18.1832 26.2327ZM20.7352 23.6806L17.4872 20.4326L19.2659 18.6539C19.6997 18.2201 20.2764 17.9812 20.8899 17.9812C21.5033 17.9812 22.0801 18.2201 22.5139 18.6539C23.4094 19.5494 23.4094 21.0065 22.5139 21.9019L20.7352 23.6806ZM24.0627 26.8391C23.0595 26.593 22.3127 25.6866 22.3127 24.6086C22.3127 23.5306 23.0594 22.6242 24.0627 22.3782V26.8391ZM25.1563 26.8391V22.3781C26.1595 22.6242 26.9062 23.5306 26.9062 24.6086C26.9062 25.6865 26.1595 26.593 25.1563 26.8391Z" fill="#003761"/>
</svg>
