<svg width="52" height="54" viewBox="0 0 52 54" fill="none" xmlns="http://www.w3.org/2000/svg">
<path d="M23.2967 14.8473H20.7018V12.2523C20.7018 11.713 20.2645 11.2759 19.7253 11.2759C19.1862 11.2759 18.7489 11.7131 18.7489 12.2523V14.8473H16.154C15.6147 14.8473 15.1775 15.2845 15.1775 15.8237C15.1775 16.363 15.6147 16.8002 16.154 16.8002H18.7489V19.3951C18.7489 19.9345 19.1862 20.3716 19.7253 20.3716C20.2645 20.3716 20.7018 19.9344 20.7018 19.3951V16.8002H23.2967C23.836 16.8002 24.2732 16.363 24.2732 15.8237C24.2732 15.2845 23.836 14.8473 23.2967 14.8473Z" fill="#B0A8A8"/>
<path d="M19.7253 7.23047C14.9871 7.23047 11.1321 11.0854 11.1321 15.8237C11.1321 20.562 14.9871 24.417 19.7253 24.417C24.4636 24.417 28.3186 20.562 28.3186 15.8237C28.3186 11.0854 24.4636 7.23047 19.7253 7.23047ZM19.7253 22.4638C16.0639 22.4638 13.0851 19.485 13.0851 15.8236C13.0851 12.1622 16.0639 9.18339 19.7253 9.18339C23.3867 9.18339 26.3655 12.1622 26.3655 15.8236C26.3655 19.485 23.3867 22.4638 19.7253 22.4638Z" fill="#B0A8A8"/>
<path d="M39.1646 8.9784L30.4738 0.287499C30.2906 0.104394 30.0422 0.00146484 29.7832 0.00146484H2.92949C1.31416 0.00146484 0 1.31572 0 2.93105V47.069C0 48.6844 1.31416 49.9985 2.92949 49.9985H24C24.5393 49.9985 24 49.5392 24 49C24 48.4608 24.5392 48.0456 24 48.0456H2.92949C2.39101 48.0456 1.95302 47.6075 1.95302 47.0691V2.93105C1.95302 2.39257 2.39111 1.95459 2.92949 1.95459H28.8067V7.7159C28.8067 9.33123 30.1208 10.6454 31.7362 10.6454H37.4975V30.5C37.4975 32.9729 37.9608 30.5 38.5 30.5C39.0392 30.5 39.4504 31.0392 39.4504 30.5V9.66883C39.4506 9.40985 39.3477 9.16151 39.1646 8.9784ZM31.7363 8.69237C31.1978 8.69237 30.7598 8.25428 30.7598 7.7159V3.33554L36.1167 8.69237H31.7363Z" fill="#B0A8A8"/>
<path d="M28.2246 28.3433H11.266C10.7268 28.3433 10.2896 28.7806 10.2896 29.3197C10.2896 29.8589 10.7269 30.2962 11.266 30.2962H28.2246C28.7638 30.2962 29.201 29.859 29.201 29.3197C29.2011 28.7806 28.7638 28.3433 28.2246 28.3433Z" fill="#B0A8A8"/>
<path d="M20.9985 33.8115H11.266C10.7268 33.8115 10.2896 34.2488 10.2896 34.788C10.2896 35.3271 10.7269 35.7645 11.266 35.7645H20.9985C21.5378 35.7645 21.975 35.3272 21.975 34.788C21.975 34.2488 21.5378 33.8115 20.9985 33.8115Z" fill="#B0A8A8"/>
<path d="M18.2534 40H11.0157C10.6147 40 10.2896 40.4373 10.2896 40.9765C10.2896 41.5156 10.6148 41.9529 11.0157 41.9529H18.2534C18.6544 41.9529 18.9796 41.5157 18.9796 40.9765C18.9796 40.4373 18.6544 40 18.2534 40Z" fill="#B0A8A8"/>
<path d="M43.4357 37.174C43.1135 37.2117 42.7997 37.2728 42.4945 37.3527C42.9147 34.9517 42.04 32.3995 39.9974 30.7848C38.5615 29.6499 36.7695 29.142 34.9516 29.3548C33.1335 29.5676 31.5074 30.4756 30.3724 31.9114L22.6964 41.6224C21.5614 43.0584 21.0535 44.8503 21.2663 46.6683C21.4791 48.4863 22.3871 50.1125 23.823 51.2475C25.3053 52.4191 27.1254 52.8784 28.8684 52.6744C30.6111 52.4704 32.2766 51.6027 33.448 50.1209L37.464 45.0401C38.0285 48.6545 41.3648 51.2149 45.029 50.786C48.7819 50.3467 51.4777 46.9363 51.0384 43.1834C50.5991 39.4305 47.1886 36.7347 43.4357 37.174ZM31.7137 48.7502C30.1266 50.7584 27.2016 51.1007 25.1937 49.5134C24.2209 48.7445 23.6058 47.6429 23.4617 46.4114C23.3175 45.1799 23.6615 43.9659 24.4305 42.9933L27.5832 39.0048L34.8664 44.7618L31.7137 48.7502ZM36.2369 43.0276L28.9537 37.2706L32.1064 33.2822C32.8753 32.3094 33.9768 31.6944 35.2083 31.5503C36.4399 31.4061 37.6538 31.7501 38.6264 32.5191C40.6345 34.1062 40.9768 37.0312 39.3896 39.0391L36.2369 43.0276ZM43.6587 48.5861C41.5871 48.3278 39.875 46.6837 39.6218 44.5198C39.3685 42.3558 40.6544 40.3608 42.6105 39.6313L43.6587 48.5861ZM45.8541 48.3291L44.8059 39.3742C46.8776 39.6324 48.5895 41.2765 48.8428 43.4404C49.0961 45.6042 47.8101 47.5994 45.8541 48.3291Z" fill="#B0A8A8"/>
</svg>
