<svg width="18" height="18" viewBox="0 0 18 18" fill="none" xmlns="http://www.w3.org/2000/svg">
<g clip-path="url(#clip0_1264_3597)">
<path d="M2.90691 11.8385C1.30858 11.8385 0.00836182 10.5653 0.00836182 8.99996C0.00836182 7.43466 1.30858 6.16138 2.90691 6.16138C3.86577 6.16138 4.77048 6.63698 5.30689 7.41311H14.624C14.7093 7.41311 14.7903 7.45068 14.8454 7.51574L15.9436 8.81227C16.0352 8.92058 16.0352 9.07935 15.9436 9.18765L14.8454 10.4842C14.7903 10.5492 14.7093 10.5868 14.624 10.5868H5.30689C4.77048 11.3628 3.86577 11.8385 2.90691 11.8385ZM2.90691 6.74202C1.62881 6.74202 0.589007 7.75489 0.589007 8.99996C0.589007 10.245 1.62881 11.2579 2.90691 11.2579C3.72047 11.2579 4.48455 10.8318 4.90104 10.1458C4.95363 10.059 5.0479 10.0062 5.14911 10.0062H14.4892L15.3416 8.99996L14.4895 7.99375H5.14926C5.0479 7.99375 4.95377 7.94088 4.90118 7.85412C4.48469 7.16815 3.72047 6.74202 2.90691 6.74202Z" fill="#003761"/>
<path d="M3.76569 9.82686H2.39914C2.4143 9.80106 2.43103 9.77682 2.44875 9.75442C2.54898 9.63194 2.74375 9.49301 3.02713 9.34077C3.30937 9.1888 3.49749 9.05243 3.60253 8.92314C3.71083 8.79003 3.76569 8.61992 3.76569 8.41735C3.76569 8.17777 3.68064 7.97874 3.51294 7.82649C3.34538 7.67453 3.1292 7.59741 2.87049 7.59741C2.56925 7.59741 2.32967 7.6853 2.15843 7.85839C1.98747 8.03119 1.9034 8.27006 1.90851 8.5686L1.90978 8.63977H2.37093L2.37305 8.56945C2.37858 8.38885 2.42224 8.2495 2.50305 8.15495C2.58073 8.0638 2.6862 8.01943 2.82541 8.01943C2.96192 8.01943 3.06966 8.05558 3.15485 8.13C3.2375 8.20201 3.27776 8.29274 3.27776 8.40757C3.27776 8.5214 3.2504 8.61071 3.19426 8.68073C3.13472 8.75516 3.01735 8.84036 2.84539 8.93377C2.45853 9.14159 2.20096 9.32985 2.05778 9.50861C1.91205 9.69049 1.8382 9.92581 1.8382 10.208V10.2806H3.76584V9.82686H3.76569Z" fill="#003761"/>
<path d="M2.91544 18.0001C1.31724 18.0001 0.0170288 16.7266 0.0170288 15.1615C0.0170288 13.5962 1.31724 12.3228 2.91544 12.3228C3.87444 12.3228 4.779 12.7985 5.31556 13.5745H16.6115C16.697 13.5745 16.7779 13.6122 16.8331 13.6771L17.9313 14.9738C18.0228 15.0821 18.0228 15.2409 17.9313 15.3492L16.8331 16.6457C16.7779 16.7108 16.697 16.7483 16.6115 16.7483H5.31556C4.779 17.5243 3.87444 18.0001 2.91544 18.0001ZM2.91544 12.9035C1.63748 12.9035 0.597674 13.9166 0.597674 15.1616C0.597674 16.4067 1.63748 17.4194 2.91544 17.4194C3.72913 17.4194 4.49321 16.9933 4.9097 16.3073C4.96215 16.2206 5.05642 16.1677 5.15778 16.1677H16.4768L17.3291 15.1615L16.4768 14.1551H5.15792C5.05642 14.1551 4.96229 14.1024 4.90984 14.0155C4.49321 13.3297 3.72913 12.9035 2.91544 12.9035Z" fill="#003761"/>
<path d="M3.5484 15.0936C3.52643 15.0766 3.5029 15.0604 3.47809 15.045C3.64621 14.9103 3.73141 14.7317 3.73141 14.5142C3.73141 14.2947 3.64607 14.1153 3.47766 13.9808C3.31393 13.8504 3.09747 13.7842 2.83436 13.7842C2.55325 13.7842 2.3314 13.8648 2.17546 14.024C2.01981 14.1824 1.94085 14.4066 1.94085 14.6904V14.763H2.40214L2.4054 14.6936C2.41305 14.5276 2.45246 14.4032 2.52249 14.3241C2.58997 14.2483 2.68721 14.2113 2.81976 14.2113C2.94876 14.2113 3.05026 14.2431 3.13021 14.3084C3.20619 14.3704 3.24319 14.4482 3.24319 14.5466C3.24319 14.6519 3.20903 14.7307 3.1373 14.7883C3.08343 14.8335 3.01312 14.861 2.92183 14.8723C2.87093 14.879 2.81891 14.8822 2.76745 14.8822C2.70593 14.8822 2.67559 14.8784 2.66113 14.8752L2.57026 14.8552V15.317L2.66382 15.2928C2.66581 15.2922 2.68381 15.2882 2.75384 15.2882C2.80728 15.2882 2.8637 15.2901 2.92253 15.2933C3.03864 15.3017 3.13035 15.337 3.20279 15.4017C3.28572 15.4748 3.32612 15.5726 3.32612 15.7005C3.32612 15.821 3.28402 15.9165 3.19712 15.9926C3.1081 16.0709 2.9954 16.109 2.85307 16.109C2.68892 16.109 2.56856 16.073 2.49541 16.002C2.42057 15.9297 2.37364 15.8023 2.35621 15.6232L2.34969 15.5574H1.8653L1.86898 15.6333C1.88302 15.9331 1.97218 16.1612 2.13379 16.3108C2.29568 16.4603 2.53426 16.5363 2.84343 16.5363C3.12596 16.5363 3.36142 16.4536 3.54344 16.2905C3.72688 16.1258 3.82001 15.912 3.82001 15.6547C3.81987 15.4206 3.72829 15.2318 3.5484 15.0936Z" fill="#003761"/>
<path d="M2.89841 5.67717C1.30021 5.67717 0 4.40375 0 2.83858C0 1.27356 1.30021 0 2.89841 0C3.85741 0 4.76197 0.475743 5.29853 1.25173H12.7853C12.8706 1.25173 12.9515 1.2893 13.0067 1.35437L14.1049 2.65089C14.1965 2.7592 14.1965 2.91797 14.1049 3.02627L13.0067 4.32294C12.9515 4.38787 12.8706 4.42558 12.7853 4.42558H5.29839C4.76197 5.20142 3.85741 5.67717 2.89841 5.67717ZM2.89841 0.580645C1.62045 0.580645 0.580645 1.59351 0.580645 2.83858C0.580645 4.08365 1.62045 5.09666 2.89841 5.09666C3.7121 5.09666 4.47618 4.67039 4.89267 3.98456C4.94527 3.89767 5.03939 3.84493 5.14075 3.84493H12.6506L13.5027 2.83858L12.6506 1.83238H5.14089C5.03939 1.83238 4.94541 1.77936 4.89281 1.69275C4.47618 1.00677 3.7121 0.580645 2.89841 0.580645Z" fill="#003761"/>
<path d="M2.72377 4.21949H3.21723V1.53613H2.82314L2.8067 1.58688C2.75765 1.73786 2.68238 1.85013 2.58329 1.92002C2.48547 1.98905 2.35279 2.02237 2.19175 2.01925L2.11591 2.01783V2.4183H2.72377V4.21949Z" fill="#003761"/>
</g>
<defs>
<clipPath id="clip0_1264_3597">
<rect width="18" height="18" fill="white"/>
</clipPath>
</defs>
</svg>
