<svg width="27" height="27" viewBox="0 0 27 27" fill="none" xmlns="http://www.w3.org/2000/svg">
<path d="M19.4157 12.6283C19.5592 12.235 19.6442 11.847 19.6442 11.4856C19.6442 9.47658 18.0816 7.83957 16.1629 7.83957C15.1584 7.83957 14.207 8.30197 13.548 9.07795C12.8942 8.30197 11.9375 7.83957 10.933 7.83957C9.01429 7.83957 7.45169 9.47658 7.45169 11.4856C7.45169 11.847 7.53673 12.235 7.68555 12.6337H6.16016V13.5H8.10543C9.57768 16.2106 13.548 19.2774 13.548 19.2774C13.548 19.2774 17.5714 16.2 19.0117 13.5H20.9676V12.6283H19.4157ZM13.548 18.1665C12.368 17.1939 10.258 15.2539 9.11528 13.5H10.1889L11.4379 11.7142L13.2982 15.153L14.7119 13.4096L15.6208 15.0892L17.21 13.5H17.9966C16.8592 15.2699 14.7385 17.2045 13.548 18.1665ZM18.4802 12.6283H16.8539L15.8334 13.6488L14.8608 11.847L13.447 13.5904L11.5336 10.0612L9.73713 12.6283H8.6263C8.43496 12.2191 8.32335 11.8258 8.32335 11.4803C8.32335 9.94961 9.49795 8.70591 10.9383 8.70591C11.8578 8.70591 12.6922 9.20551 13.1706 10.0506L13.548 10.715L13.9253 10.0506C14.4037 9.21083 15.2381 8.70591 16.1576 8.70591C17.598 8.70591 18.7726 9.94961 18.7726 11.4803C18.7726 11.8311 18.6609 12.2191 18.4802 12.6283Z" fill="#003761"/>
<path d="M20.9046 3.4813H18.3428L18.0504 2.89665C17.8272 2.4502 17.3808 2.17382 16.8811 2.17382H16.4187C16.0414 0.898228 14.8668 0 13.5008 0C12.1349 0 10.9603 0.898228 10.5829 2.17913H10.1205C9.62092 2.17913 9.17446 2.45551 8.95123 2.90197L8.65891 3.48661H6.0971C4.89592 3.48661 3.91797 4.46457 3.91797 5.66575V24.8209C3.91797 26.022 4.89592 27 6.0971 27H20.9046C22.1057 27 23.0837 26.022 23.0837 24.8209V5.66043C23.0837 4.45925 22.1057 3.4813 20.9046 3.4813ZM9.18509 4.38484L9.73253 3.28996C9.80694 3.14114 9.95576 3.05079 10.1205 3.05079H11.2951L11.3589 2.68937C11.5343 1.63701 12.4378 0.876969 13.5008 0.876969C14.5638 0.876969 15.4674 1.64232 15.6428 2.68937L15.7065 3.05079H16.8811C17.0459 3.05079 17.1947 3.14114 17.2691 3.28996L17.8166 4.38484C17.8963 4.51772 17.8325 4.77283 17.5668 4.79409H9.43489C9.29139 4.80472 9.07348 4.63465 9.18509 4.38484ZM20.9046 26.1283H6.0971C5.37427 26.1283 4.78962 25.5437 4.78962 24.8209V5.66043C4.78962 4.9376 5.37427 4.35295 6.0971 4.35295H8.29749C8.26029 4.61339 8.30812 4.87913 8.45163 5.11299C8.66422 5.45315 9.03096 5.66043 9.42958 5.66043H17.5615C17.9654 5.66043 18.3321 5.45846 18.5394 5.11299C18.6829 4.87913 18.7308 4.61339 18.6935 4.35295H20.8939C21.6168 4.35295 22.2014 4.9376 22.2014 5.66043V24.8209H22.212C22.212 25.5437 21.6274 26.1283 20.9046 26.1283Z" fill="#003761"/>
<path d="M15.3069 20.9037H6.5957V21.7754H15.3069V20.9037Z" fill="#003761"/>
<path d="M20.5318 20.9037H19.6602V21.7754H20.5318V20.9037Z" fill="#003761"/>
<path d="M18.7877 20.9037H17.916V21.7754H18.7877V20.9037Z" fill="#003761"/>
<path d="M17.0455 20.9037H16.1738V21.7754H17.0455V20.9037Z" fill="#003761"/>
<path d="M20.5315 23.5187H6.5957V24.3904H20.5315V23.5187Z" fill="#003761"/>
</svg>
