<svg width="21" height="20" viewBox="0 0 21 20" fill="none" xmlns="http://www.w3.org/2000/svg">
<g clip-path="url(#clip0)">
<path d="M8.80908 0.9375C8.9945 0.9375 9.17576 0.992484 9.32993 1.0955C9.4841 1.19851 9.60426 1.34493 9.67522 1.51623C9.74618 1.68754 9.76474 1.87604 9.72857 2.0579C9.6924 2.23975 9.60311 2.4068 9.472 2.53791C9.34088 2.66903 9.17384 2.75831 8.99198 2.79449C8.81012 2.83066 8.62162 2.8121 8.45032 2.74114C8.27901 2.67018 8.13259 2.55002 8.02958 2.39585C7.92657 2.24168 7.87158 2.06042 7.87158 1.875C7.87158 1.62636 7.97036 1.3879 8.14617 1.21209C8.32199 1.03627 8.56044 0.9375 8.80908 0.9375ZM2.24658 7.5C2.24658 7.68542 2.30157 7.86668 2.40458 8.02085C2.50759 8.17502 2.65401 8.29518 2.82532 8.36614C2.99662 8.4371 3.18512 8.45566 3.36698 8.41949C3.54884 8.38332 3.71588 8.29403 3.847 8.16292C3.97811 8.0318 4.06739 7.86476 4.10357 7.6829C4.13974 7.50104 4.12118 7.31254 4.05022 7.14124C3.97926 6.96993 3.8591 6.82351 3.70493 6.7205C3.55076 6.61749 3.3695 6.5625 3.18408 6.5625C2.93544 6.5625 2.69698 6.66127 2.52117 6.83709C2.34535 7.0129 2.24658 7.25136 2.24658 7.5ZM4.3169 3.94531C4.3169 4.13073 4.37188 4.31199 4.47489 4.46616C4.57791 4.62033 4.72432 4.74049 4.89563 4.81145C5.06694 4.88241 5.25544 4.90097 5.43729 4.8648C5.61915 4.82863 5.7862 4.73934 5.91731 4.60823C6.04842 4.47711 6.13771 4.31007 6.17388 4.12821C6.21006 3.94635 6.19149 3.75785 6.12053 3.58655C6.04958 3.41524 5.92941 3.26882 5.77524 3.16581C5.62107 3.0628 5.43982 3.00781 5.2544 3.00781C5.00575 3.00781 4.7673 3.10659 4.59148 3.2824C4.41567 3.45822 4.3169 3.69667 4.3169 3.94531ZM18.1465 4.22942C16.9285 2.65395 15.2361 1.51191 13.3193 0.971914C13.2004 0.938067 13.0761 0.928048 12.9534 0.942431C12.8306 0.956815 12.712 0.995318 12.6042 1.05573C12.4964 1.11614 12.4016 1.19726 12.3252 1.29443C12.2489 1.3916 12.1925 1.5029 12.1594 1.62193C12.1262 1.74097 12.1169 1.86538 12.132 1.98802C12.1471 2.11066 12.1863 2.22911 12.2473 2.33656C12.3083 2.444 12.39 2.53833 12.4876 2.6141C12.5852 2.68987 12.6968 2.7456 12.816 2.77809C14.3432 3.20866 15.6914 4.11885 16.6617 5.3743C17.6536 6.65425 18.1895 8.22895 18.1841 9.84828C18.1841 13.8952 14.8883 17.1875 10.8373 17.1875C9.22462 17.1929 7.65578 16.6629 6.37678 15.6806C5.84267 15.2714 5.36703 14.791 4.96307 14.2529L4.43408 14.1354V16.4774C6.17369 18.1552 8.50228 19.0834 10.9191 19.0622C13.3359 19.041 15.6479 18.0722 17.3578 16.3641C18.9412 14.7826 19.8945 12.6787 20.0397 10.4455C20.1849 8.21229 19.5119 6.00265 18.1465 4.22949V4.22942ZM3.80908 17.8125V13.3562L8.29322 14.3527C8.53595 14.4066 8.79016 14.3619 8.99993 14.2284C9.2097 14.0949 9.35784 13.8836 9.41178 13.6409C9.46571 13.3981 9.42102 13.1439 9.28752 12.9342C9.15403 12.7244 8.94267 12.5762 8.69994 12.5223L3.07494 11.2723C2.9379 11.2419 2.79576 11.2426 2.65903 11.2744C2.5223 11.3062 2.39446 11.3684 2.28495 11.4562C2.17544 11.5441 2.08706 11.6554 2.02633 11.7819C1.96561 11.9085 1.93408 12.0471 1.93408 12.1875V17.8125C1.93408 18.0611 2.03285 18.2996 2.20867 18.4754C2.38448 18.6512 2.62294 18.75 2.87158 18.75C3.12022 18.75 3.35868 18.6512 3.5345 18.4754C3.71031 18.2996 3.80908 18.0611 3.80908 17.8125Z" fill="#16C79A"/>
</g>
<defs>
<clipPath id="clip0">
<rect width="20" height="20" fill="white" transform="translate(0.996582)"/>
</clipPath>
</defs>
</svg>
