<svg width="18" height="18" viewBox="0 0 18 18" fill="none" xmlns="http://www.w3.org/2000/svg">
    <path d="M8.99153 8.49906C6.64814 8.49906 4.742 6.59292 4.742 4.24953C4.742 1.90613 6.64814 0 8.99153 0C11.3349 0 13.2411 1.90613 13.2411 4.24953C13.2411 6.59292 11.3349 8.49906 8.99153 8.49906ZM8.99153 0.849057C7.11512 0.849057 5.59106 2.37311 5.59106 4.24953C5.59106 6.12594 7.11512 7.65 8.99153 7.65C10.8679 7.65 12.392 6.12594 12.392 4.24953C12.392 2.37311 10.8679 0.849057 8.99153 0.849057Z" fill="#003761"/>
    <path d="M10.9741 18H0V17.5754C0 15.3212 0.700472 13.3811 2.08019 11.8146C3.09481 10.6641 4.44906 9.73439 6.10896 9.05515L6.29575 8.97873L6.47406 9.07638C7.22123 9.48392 8.09576 9.70043 9 9.70043C9.90849 9.70043 10.7873 9.48392 11.5344 9.07213L11.7127 8.97449L11.8995 9.0509C11.9844 9.08487 12.0608 9.11883 12.1373 9.14854C12.8038 9.416 13.2835 9.61128 14.0689 10.1971C14.2557 10.3372 14.2981 10.6047 14.158 10.7915C14.0179 10.9783 13.7505 11.0207 13.5637 10.8806C12.8675 10.3627 12.4726 10.2014 11.8231 9.93817C11.8019 9.92968 11.7849 9.92119 11.7637 9.9127C10.9316 10.3287 9.98066 10.5495 9 10.5495C8.02359 10.5495 7.07689 10.333 6.24906 9.91694C3.82925 10.9485 1.04009 13.0372 0.857547 17.1509H10.9741C11.2075 17.1509 11.3986 17.3419 11.3986 17.5754C11.3986 17.8089 11.2075 18 10.9741 18Z" fill="#003761"/>
    <path d="M12.5278 17.1509H17.7325V17.9999H12.5278V17.1509Z" fill="#003761"/>
    <path d="M12.5321 15.4613H17.7368V16.3104H12.5321V15.4613Z" fill="#003761"/>
    <path d="M12.5321 13.7759H17.7368V14.6249H12.5321V13.7759Z" fill="#003761"/>
    <path d="M12.5363 12.0863H17.741V12.9354H12.5363V12.0863Z" fill="#003761"/>
</svg>
