<svg width="45" height="45" viewBox="0 0 45 45" fill="none" xmlns="http://www.w3.org/2000/svg">
    <path d="M40.036 40.7844C33.1502 46.4054 11.6497 46.4054 4.9044 40.7844C-1.9814 35.1633 -1.27878 11.1333 4.9044 4.80965C11.0876 -1.51403 33.8528 -1.51403 40.036 4.80965C46.2192 11.1333 46.9218 35.1634 40.036 40.7844Z" fill="#5CA4DA"/>
    <path d="M22.6107 30.9474C16.4276 35.8658 9.54176 38.3953 3.07758 38.5358C-1.70036 30.3852 -0.716631 10.5711 4.90443 4.80952C9.96337 -0.389927 25.8428 -1.37365 34.9771 1.85844C37.2255 11.1332 32.5881 22.9373 22.6107 30.9474Z" fill="#6DAFE0"/>
    <path d="M25.5616 28.2776H19.5189V25.3265C19.5189 24.2023 19.6594 23.3592 19.9405 22.9376C20.2215 22.3755 20.7836 21.6728 21.7674 20.6891L24.4373 17.8786C24.8589 17.457 24.9995 16.7544 24.9995 16.0518C24.9995 15.3492 24.8589 14.6465 24.2968 14.2249C23.8752 13.6628 23.3131 13.5223 22.6105 13.5223C21.9079 13.5223 21.3457 13.8033 20.9241 14.3654C20.5025 14.9275 20.2215 15.7707 20.081 16.7544H13.7573C14.0383 14.0844 15.0221 11.9765 16.7084 10.5712C18.3948 9.16598 20.3621 8.32275 22.8916 8.32275C25.4211 8.32275 27.3884 9.02537 28.9343 10.2901C30.48 11.6954 31.3232 13.5222 31.3232 15.9112C31.3232 17.0354 31.1827 17.738 30.9016 18.3001C30.6206 18.8623 30.48 19.1433 30.3395 19.4244C30.199 19.7054 29.9179 19.9865 29.6369 20.4081C29.2153 20.8297 28.9343 21.1107 28.7938 21.2512C28.0911 21.9538 27.529 22.516 26.9669 23.0781C26.4048 23.6402 25.9832 24.0618 25.8427 24.4833C25.7022 24.9049 25.5617 25.3264 25.5617 26.0291V28.2776H25.5616ZM19.0974 33.3366C19.0974 31.3692 20.6431 29.8234 22.6106 29.8234C24.578 29.8234 26.1238 31.3691 26.1238 33.3366C26.1238 35.304 24.578 36.8498 22.6106 36.8498C20.6431 36.8498 19.0974 35.3039 19.0974 33.3366Z" fill="white"/>
</svg>