<svg width="14" height="18" viewBox="0 0 14 18" fill="none" xmlns="http://www.w3.org/2000/svg">
<path d="M13.375 6.375C13.375 2.85974 10.5153 0 7 0C3.48474 0 0.625 2.85974 0.625 6.375C0.625 9.63593 3.08759 12.3289 6.25 12.702V14.25H4.75C4.336 14.25 4 14.586 4 15C4 15.414 4.336 15.75 4.75 15.75H6.25V17.25C6.25 17.664 6.586 18 7 18C7.414 18 7.75 17.664 7.75 17.25V15.75H9.25C9.664 15.75 10 15.414 10 15C10 14.586 9.664 14.25 9.25 14.25H7.75V12.702C10.9124 12.3289 13.375 9.63593 13.375 6.375ZM2.125 6.375C2.125 3.68701 4.31201 1.5 7 1.5C9.68799 1.5 11.875 3.68701 11.875 6.375C11.875 9.06299 9.68799 11.25 7 11.25C4.31201 11.25 2.125 9.06299 2.125 6.375Z" fill="#ED7172"/>
</svg>
