<svg width="25" height="25" viewBox="0 0 25 25" fill="none" xmlns="http://www.w3.org/2000/svg">
<path d="M25 12.5C25 19.4036 19.4036 25 12.5 25C5.59644 25 0 19.4036 0 12.5C0 5.59644 5.59644 0 12.5 0C19.4036 0 25 5.59644 25 12.5ZM2.16158 12.5C2.16158 18.2097 6.79025 22.8384 12.5 22.8384C18.2097 22.8384 22.8384 18.2097 22.8384 12.5C22.8384 6.79025 18.2097 2.16158 12.5 2.16158C6.79025 2.16158 2.16158 6.79025 2.16158 12.5Z" fill="#5A5656"/>
<path d="M13.9681 11.4998H14.4527C14.8616 11.4998 15.2614 11.32 15.5496 11.0064L15.8945 10.6311C16.0302 10.4835 16.0357 10.2378 15.9069 10.0822C15.7782 9.92674 15.5638 9.92024 15.4281 10.0679L15.0833 10.4432C14.9197 10.6212 14.6898 10.7232 14.4527 10.7232H13.9681C13.5782 10.7232 13.1891 10.6235 12.8428 10.4347L12.8055 10.4144V9.75052C13.0762 9.84339 13.3602 9.89185 13.6444 9.89185H13.8602C14.1734 9.89185 14.4677 9.75927 14.689 9.51852L14.9268 9.25978C15.0624 9.11216 15.068 8.86642 14.9392 8.71088C14.8104 8.55537 14.596 8.549 14.4604 8.69659L14.2226 8.95533C14.1292 9.057 13.9971 9.11532 13.8602 9.11532H13.6444C13.3564 9.11532 13.0689 9.0511 12.8055 8.9288V8.38826C12.8055 8.17384 12.6539 8 12.4668 8C12.2797 8 12.1281 8.17384 12.1281 8.38826V8.9581C11.8831 9.06128 11.6196 9.11535 11.3556 9.11535H11.1398C11.0029 9.11535 10.8708 9.05703 10.7774 8.95536L10.5396 8.69662C10.4039 8.549 10.1896 8.55537 10.0608 8.71091C9.93199 8.86645 9.93757 9.11219 10.0732 9.25981L10.311 9.51854C10.5323 9.75929 10.8266 9.89187 11.1398 9.89187H11.3556C11.6166 9.89187 11.8775 9.851 12.1281 9.77239V10.4501C11.7891 10.6287 11.4109 10.7233 11.0319 10.7233H10.5473C10.3102 10.7233 10.0803 10.6212 9.91675 10.4432L9.5719 10.068C9.43616 9.92029 9.22178 9.92674 9.09305 10.0822C8.96427 10.2378 8.96985 10.4835 9.10551 10.6311L9.45039 11.0064C9.73859 11.32 10.1384 11.4998 10.5473 11.4998H11.0319C11.4052 11.4998 11.7784 11.4266 12.1281 11.2865V12.1476C11.7891 12.3262 11.4109 12.4208 11.0319 12.4208H10.5473C10.3102 12.4208 10.0803 12.3187 9.91675 12.1407L9.5719 11.7655C9.43616 11.6178 9.22178 11.6242 9.09305 11.7798C8.96427 11.9353 8.96985 12.181 9.10551 12.3287L9.45039 12.7039C9.73859 13.0175 10.1384 13.1973 10.5473 13.1973H11.0319C11.4052 13.1973 11.7784 13.1241 12.1281 12.984V14.3009L11.4512 13.9913C10.7896 13.6888 10.0254 13.7973 9.45673 14.2745C9.44542 14.284 9.43463 14.2943 9.42444 14.3053C9.21659 14.53 9.10064 14.8429 9.10633 15.1639C9.11184 15.4752 9.23136 15.7739 9.43531 15.9883L10.6952 17.6789C10.7061 17.6935 10.7179 17.7072 10.7305 17.7198C10.9479 17.9363 11.239 18.0343 11.529 17.9892C11.8144 17.9446 12.0669 17.7653 12.2217 17.497L12.3055 17.352C12.3578 17.2613 12.4455 17.2515 12.4809 17.2515C12.5162 17.2515 12.6038 17.2613 12.6563 17.352L12.74 17.4971C12.8948 17.7652 13.1473 17.9446 13.4328 17.9892C13.4792 17.9964 13.5256 18 13.5718 18C13.8141 18 14.0486 17.9016 14.2312 17.7198C14.2438 17.7072 14.2556 17.6935 14.2665 17.6789L15.5264 15.9883C15.7303 15.7739 15.8499 15.4752 15.8554 15.1639C15.8611 14.8429 15.7451 14.53 15.5373 14.3053C15.5271 14.2943 15.5163 14.284 15.505 14.2745C14.9363 13.7973 14.1721 13.6886 13.5105 13.9913L12.8055 14.3138V12.9567C13.1741 13.1147 13.571 13.1973 13.9681 13.1973H14.4526C14.8616 13.1973 15.2614 13.0175 15.5496 12.7039L15.8944 12.3287C16.0301 12.181 16.0357 11.9353 15.9069 11.7798C15.7781 11.6243 15.5638 11.6178 15.4281 11.7655L15.0832 12.1407C14.9196 12.3187 14.6898 12.4208 14.4526 12.4208H13.9681C13.5782 12.4208 13.1891 12.321 12.8427 12.1323L12.8055 12.112V11.2591C13.1741 11.4171 13.5711 11.4998 13.9681 11.4998ZM12.8363 15.1357L13.7616 14.7125C14.2009 14.5116 14.7061 14.5782 15.0859 14.8854C15.1472 14.9588 15.1798 15.0513 15.1781 15.1481C15.1763 15.2524 15.1348 15.3502 15.0614 15.4233C15.0488 15.4359 15.037 15.4496 15.0261 15.4642L13.7708 17.1485C13.7025 17.2078 13.6137 17.2336 13.5242 17.2197C13.432 17.2053 13.3521 17.1502 13.3049 17.0684L13.2212 16.9234C13.059 16.6426 12.7823 16.4749 12.4809 16.4749C12.4809 16.4749 12.4809 16.4749 12.4809 16.4749C12.1795 16.4749 11.9027 16.6426 11.7406 16.9234L11.6568 17.0685C11.6097 17.1502 11.5298 17.2053 11.4376 17.2197C11.348 17.2336 11.2593 17.2078 11.1909 17.1485L9.93567 15.4642C9.92479 15.4496 9.91298 15.4359 9.90033 15.4233C9.82692 15.3502 9.78547 15.2524 9.78364 15.1481C9.78192 15.0513 9.81453 14.9588 9.87583 14.8854C10.2557 14.5782 10.7608 14.5116 11.2002 14.7125L12.1255 15.1357C12.1263 15.1361 12.1273 15.1364 12.1281 15.1368V15.4108C12.1281 15.6252 12.2797 15.7991 12.4668 15.7991C12.6539 15.7991 12.8055 15.6252 12.8055 15.4108V15.1481C12.8162 15.1442 12.8266 15.1401 12.8363 15.1357Z" fill="#5A5656"/>
<path d="M17.6035 7H7.39648C6.62646 7 6 7.57827 6 8.28906V17.7109C6 18.4217 6.62646 19 7.39648 19H17.6035C18.3735 19 19 18.4217 19 17.7109V8.28906C19 7.57827 18.3735 7 17.6035 7ZM18.2383 17.7109C18.2383 18.034 17.9535 18.2969 17.6035 18.2969H7.39648C7.04647 18.2969 6.76172 18.034 6.76172 17.7109V8.28906C6.76172 7.96598 7.04647 7.70312 7.39648 7.70312H17.6035C17.9535 7.70312 18.2383 7.96598 18.2383 8.28906V17.7109Z" fill="#5A5656"/>
</svg>
