<svg width="18" height="18" viewBox="0 0 18 18" fill="none" xmlns="http://www.w3.org/2000/svg">
<path d="M8.92455 1.45964C10.2506 1.45964 11.5787 1.83603 12.7653 2.54821C13.518 3.00107 14.1943 3.5702 14.7688 4.23479L12.7864 4.1694C12.5536 4.16162 12.3586 4.34421 12.351 4.57717C12.3433 4.80999 12.5258 5.00511 12.7587 5.01262L15.5016 5.10319C15.6591 5.16806 15.8403 5.1318 15.9608 5.01117C16.0811 4.89054 16.1171 4.7094 16.052 4.55186L15.9617 1.80967C15.9564 1.57671 15.7633 1.39214 15.5303 1.39728C15.2975 1.40256 15.1127 1.5957 15.1179 1.82852C15.1179 1.83168 15.1179 1.83458 15.1182 1.83762L15.1704 3.41965C14.5901 2.79949 13.9268 2.26252 13.1995 1.82443C11.8818 1.03381 10.4035 0.615891 8.92455 0.615891C6.56204 0.615891 4.38385 1.59003 2.79206 3.35874C1.38194 4.92561 0.540039 7.03459 0.540039 9.0004C0.540039 9.23335 0.728828 9.42228 0.961914 9.42228C1.195 9.42228 1.38379 9.23335 1.38379 9.0004C1.38379 7.23736 2.14462 5.33931 3.41921 3.92326C4.8491 2.33477 6.8041 1.45964 8.92455 1.45964Z" fill="#003761"/>
<path d="M16.9932 8.57852C16.7601 8.57852 16.5714 8.76731 16.5714 9.0004C16.5714 10.7633 15.8105 12.6615 14.5359 14.0777C13.106 15.6661 11.151 16.541 9.03059 16.541C7.70458 16.541 6.37647 16.1649 5.18981 15.4527C4.43716 14.9997 3.76084 14.4306 3.1863 13.7661L5.16872 13.8315C5.40154 13.839 5.59652 13.6564 5.60417 13.4236C5.61182 13.1908 5.42936 12.9958 5.1964 12.988L2.45355 12.8976C2.29601 12.8327 2.11486 12.8691 1.99437 12.9896C1.874 13.1102 1.83801 13.2913 1.90314 13.4488L1.99344 16.191C1.99872 16.4241 2.19186 16.6088 2.42481 16.6035C2.65763 16.5984 2.84247 16.4052 2.8372 16.1723C2.8372 16.1692 2.83719 16.1663 2.83693 16.1632L2.78472 14.5811C3.36507 15.2014 4.02833 15.7381 4.75567 16.1765C6.07338 16.9672 7.55165 17.385 9.03059 17.385C11.3931 17.385 13.5713 16.411 15.1631 14.6423C16.5732 13.0753 17.4151 10.9663 17.4151 9.0004C17.4151 8.76731 17.2263 8.57852 16.9932 8.57852Z" fill="#003761"/>
</svg>
