<svg width="25" height="25" viewBox="0 0 25 25" fill="none" xmlns="http://www.w3.org/2000/svg">
	<path d="M12.5 25C15.8388 25 18.9778 23.6998 21.3388 21.3388C23.6997 18.9779 25 15.8389 25 12.5C25 9.16116 23.6998 6.02209 21.3387 3.66118C18.9778 1.30027 15.8388 0 12.5 0C9.16111 0 6.02209 1.30027 3.66118 3.66118C1.30027 6.02209 0 9.16111 0 12.5C0 15.8388 1.30022 18.9779 3.66118 21.3388C6.02214 23.6997 9.16111 25 12.5 25ZM12.5 1.32421C18.6623 1.32421 23.6758 6.33762 23.6758 12.5C23.6758 18.6623 18.6623 23.6757 12.5 23.6757C6.33768 23.6758 1.32421 18.6623 1.32421 12.5C1.32421 6.33768 6.33768 1.32421 12.5 1.32421Z" fill="#F40505" />
	<path d="M5.32275 13.1621H19.6772C20.0429 13.1621 20.3393 12.8656 20.3393 12.5C20.3393 12.1343 20.0429 11.8379 19.6772 11.8379H5.32275C4.95711 11.8379 4.66064 12.1343 4.66064 12.5C4.66064 12.8657 4.95711 13.1621 5.32275 13.1621Z" fill="#F40505" />
</svg>
