<svg width="25" height="24" viewBox="0 0 25 24" fill="none" xmlns="http://www.w3.org/2000/svg">
<path d="M6.50797 3.33835C7.43713 2.45603 8.66957 1.96411 9.95091 1.96411H14.82C16.1013 1.96411 17.3337 2.45603 18.2629 3.33835L21.5295 6.44022C22.5236 7.38423 23.0865 8.69504 23.0865 10.066V14.1853C23.0865 15.5562 22.5236 16.867 21.5295 17.8111L18.2629 20.9129C17.3337 21.7952 16.1013 22.2872 14.82 22.2872H9.95091C8.66957 22.2872 7.43713 21.7952 6.50797 20.9129L3.24138 17.8111C2.24724 16.867 1.68433 15.5562 1.68433 14.1853V10.066C1.68433 8.69504 2.24724 7.38423 3.24139 6.44022L6.50797 3.33835Z" fill="#FE0000" stroke="#FF0000" stroke-width="2" stroke-linecap="round" stroke-linejoin="round"/>
<path d="M12.3855 8.06104V12.1256" stroke="white" stroke-width="2" stroke-linecap="round" stroke-linejoin="round"/>
<path d="M12.3855 16.1903H12.396" stroke="white" stroke-width="2" stroke-linecap="round" stroke-linejoin="round"/>
</svg>
