<svg width="15" height="15" viewBox="0 0 15 15" fill="none" xmlns="http://www.w3.org/2000/svg">
<path d="M13.1208 2.53467H13.902V1.65576H11.6513V3.90652H12.5302V3.19417C14.7576 5.79263 14.6415 9.72198 12.1818 12.1817C10.9313 13.4322 9.26856 14.1209 7.5 14.1209V14.9998C9.50332 14.9998 11.3868 14.2197 12.8033 12.8032C14.2199 11.3866 15 9.50316 15 7.49984C15 5.65189 14.3357 3.90623 13.1208 2.53467Z" fill="#003761"/>
<path d="M2.32975 11.6367C1.38979 10.4664 0.878906 9.02256 0.878906 7.5C0.878906 5.73144 1.56762 4.06875 2.81818 2.81818C4.06875 1.56762 5.73144 0.878906 7.5 0.878906V0C5.49668 0 3.61327 0.780147 2.19671 2.19671C0.780117 3.61327 0 5.49668 0 7.5C0 9.28113 0.617139 10.9671 1.74949 12.3149H0.957891V13.1938H3.20865V10.943H2.32975V11.6367Z" fill="#003761"/>
<path d="M7.86942 12.1914V11.3125H9.18777V10.4336H7.86942V9.55471H9.18777V8.6758H7.86942V6.87103C8.80952 6.66864 9.51643 5.83128 9.51643 4.83155C9.51643 3.68106 8.58045 2.74512 7.42996 2.74512C6.27948 2.74512 5.34353 3.68109 5.34353 4.83155C5.34353 5.83128 6.0504 6.66864 6.99051 6.87103V12.1914H7.86942ZM6.22241 4.83155C6.22241 4.16569 6.7641 3.62402 7.42993 3.62402C8.09576 3.62402 8.63749 4.16572 8.63749 4.83155C8.63749 5.49738 8.09579 6.03908 7.42993 6.03908C6.76407 6.03908 6.22241 5.49741 6.22241 4.83155Z" fill="#003761"/>
</svg>
