<svg width="18" height="24" viewBox="0 0 36 24" fill="none" xmlns="http://www.w3.org/2000/svg">
<path d="M34.3546 9.81152C33.9883 9.81152 33.6898 10.1094 33.6898 10.4763C33.6898 10.8427 33.9883 11.1405 34.3546 11.1405C34.7209 11.1405 35.0194 10.8427 35.0194 10.4763C35.0194 10.1094 34.7209 9.81152 34.3546 9.81152Z" fill="black"/>
<path d="M34.3379 2.80886C33.8985 2.36942 33.3141 2.12742 32.6925 2.12742H23.7148C22.9383 1.45596 22.0594 0.930748 21.1027 0.567091C20.1121 0.190803 19.0683 0 18.0013 0H17.9987C16.9316 0 15.8878 0.190803 14.8966 0.567091C13.9399 0.930748 13.061 1.45596 12.2845 2.12742H3.30746C2.68585 2.12742 2.10148 2.36942 1.66203 2.80886C1.22259 3.24831 0.980591 3.83269 0.980591 4.45429V21.6731C0.980591 22.2947 1.22259 22.8791 1.66203 23.3186C2.10148 23.758 2.68585 24 3.30746 24H32.6925C33.3141 24 33.8985 23.758 34.3379 23.3186C34.7774 22.8791 35.0194 22.2947 35.0194 21.6731V13.4673C35.0194 13.1009 34.7209 12.8024 34.3546 12.8024C33.9882 12.8024 33.6897 13.1009 33.6897 13.4673V21.6731C33.6884 22.2223 33.2416 22.6697 32.6925 22.6704H3.30746C2.75832 22.6697 2.3109 22.2223 2.31023 21.6731V4.45429C2.3109 3.90515 2.75832 3.45773 3.30746 3.45706H11.0376C10.4835 4.1865 10.0439 5.00018 9.74272 5.86424C9.62185 6.21095 9.80501 6.59003 10.1516 6.71083C10.2241 6.73609 10.2979 6.74806 10.3705 6.74806C10.6454 6.74806 10.9026 6.57613 10.9982 6.30189C11.3981 5.15481 12.3003 3.87371 12.9846 3.28421C14.0042 2.40598 15.8061 1.32964 18 1.32964C20.1939 1.32964 22.0174 2.39348 23.023 3.29132C23.8573 4.03612 24.922 5.69558 25.2436 7.17474L24.4677 6.52375C24.1865 6.28767 23.7672 6.3245 23.5311 6.60572C23.2951 6.88694 23.3318 7.3063 23.6131 7.54232L25.6503 9.25163C25.7749 9.35614 25.9264 9.40714 26.0772 9.40714C26.2669 9.40714 26.4554 9.32636 26.5869 9.16966L28.2962 7.13252C28.5322 6.8513 28.4955 6.43193 28.2142 6.19592C27.9329 5.95991 27.5136 5.99661 27.2776 6.27789L26.5856 7.1026C26.3318 5.78074 25.7754 4.53068 24.962 3.45706H32.6925C33.2416 3.45773 33.6884 3.90515 33.6897 4.45429V7.48388C33.6897 7.85086 33.9882 8.14936 34.3546 8.14936C34.7209 8.14936 35.0194 7.85086 35.0194 7.48388V4.45429C35.0194 3.83269 34.7774 3.24831 34.3379 2.80886V2.80886Z" fill="black"/>
<path d="M12.1496 19.0137C11.7824 19.0137 11.4847 19.3113 11.4847 19.6785C11.4847 20.0457 11.7824 20.3433 12.1496 20.3433H16.1385C16.5057 20.3433 16.8033 20.0457 16.8033 19.6785C16.8033 19.3113 16.5057 19.0137 16.1385 19.0137H12.1496Z" fill="black"/>
<path d="M19.9279 19.0137C19.5608 19.0137 19.2631 19.3113 19.2631 19.6785C19.2631 20.0457 19.5608 20.3433 19.9279 20.3433H23.9169C24.284 20.3433 24.5817 20.0457 24.5817 19.6785C24.5817 19.3113 24.284 19.0137 23.9169 19.0137H19.9279Z" fill="black"/>
<path d="M27.7063 19.0137C27.3391 19.0137 27.0415 19.3113 27.0415 19.6785C27.0415 20.0457 27.3391 20.3433 27.7063 20.3433H31.6952C32.0624 20.3433 32.3601 20.0457 32.3601 19.6785C32.3601 19.3113 32.0624 19.0137 31.6952 19.0137H27.7063Z" fill="black"/>
<path d="M4.30471 19.0137C3.93753 19.0137 3.63989 19.3113 3.63989 19.6785C3.63989 20.0457 3.93753 20.3433 4.30471 20.3433H8.29363C8.66081 20.3433 8.95845 20.0457 8.95845 19.6785C8.95845 19.3113 8.66081 19.0137 8.29363 19.0137H4.30471Z" fill="black"/>
<path d="M25.8482 10.7739C25.5015 10.653 25.1225 10.8361 25.0016 11.1828C23.965 14.157 21.1512 16.1552 18 16.1552C14.4496 16.1552 11.4748 13.6461 10.7542 10.3083L11.5321 10.961C11.8134 11.1971 12.2328 11.1604 12.4687 10.8791C12.7047 10.5978 12.668 10.1785 12.3868 9.94247L10.3496 8.23316C10.0683 7.99721 9.64897 8.03384 9.41302 8.31513L7.7037 10.3523C7.46769 10.6335 7.50439 11.0529 7.78568 11.2889C7.91026 11.3934 8.06184 11.4444 8.21262 11.4444C8.40236 11.4444 8.59077 11.3636 8.72227 11.2069L9.41276 10.384C10.1833 14.4225 13.7405 17.4848 18 17.4848C21.7162 17.4848 25.0346 15.1281 26.2572 11.6205C26.3781 11.2738 26.1949 10.8948 25.8482 10.7739V10.7739Z" fill="black"/>
<path d="M15.2051 11.0275C14.9457 10.9957 14.6808 10.9957 14.4269 10.9319C13.8639 10.7853 13.5382 10.1989 13.6431 9.54879C13.7149 9.09624 13.8529 8.66282 14.0736 8.27401C14.1564 8.12741 14.3165 8.10191 14.4048 8.22939C14.46 8.30588 14.46 8.40786 14.4103 8.51622C14.3386 8.67556 14.2613 8.84129 14.2006 9.00701C14.1509 9.14086 14.1123 9.28746 14.0902 9.43406C14.0571 9.63803 14.1454 9.791 14.2668 9.92485C14.3938 10.0651 14.5538 10.1352 14.7249 10.1671C15.1444 10.2499 15.5639 10.2308 15.9723 10.0969C16.3753 9.9631 16.5684 9.67627 16.5684 9.19185C16.5684 8.86041 16.5464 8.52896 16.5133 8.19752C16.4636 7.68123 16.4139 7.17132 16.3477 6.66141C16.3035 6.32996 16.2318 6.00489 16.171 5.67345C16.1158 5.37387 16.1158 5.08067 16.2483 4.80022C16.3035 4.68549 16.3477 4.67912 16.4305 4.76198C16.5574 4.88946 16.6899 5.01056 16.8168 5.13167C16.9383 5.2464 17.0376 5.37387 17.0155 5.56509C16.999 5.66707 16.9659 5.79455 16.9051 5.85829C16.7175 6.04951 16.7451 6.27897 16.7671 6.52118C16.8499 7.37529 16.9327 8.23576 17.0155 9.08987C17.0431 9.40857 17.0266 9.73364 16.9272 10.0396C16.7837 10.4985 16.4967 10.7726 16.0993 10.9064C15.8123 11.002 15.5142 11.002 15.2162 11.0148C15.2051 11.0084 15.2051 11.0148 15.2051 11.0275Z" fill="#070707"/>
<path d="M20.0968 8.77255C20.0376 8.49534 20.0053 8.21223 19.8439 7.9763C19.6663 7.71089 19.6879 7.39239 19.8762 7.13877C19.9192 7.07979 19.9676 7.07979 20.0215 7.13287C20.1775 7.28622 20.2797 7.47496 20.3335 7.69319C20.4465 8.13555 20.4358 8.58381 20.425 9.03207C20.4196 9.16772 20.4089 9.30928 20.4035 9.44494C20.3981 9.5452 20.3766 9.5688 20.2851 9.5688C19.6932 9.5688 19.1014 9.5688 18.5041 9.5688C18.2082 9.5688 18.0037 9.40365 17.9338 9.07925C17.8854 8.84333 17.8585 8.6074 17.8369 8.36558C17.7831 7.78166 17.697 7.20365 17.6056 6.62563C17.5625 6.36611 17.5302 6.10659 17.5141 5.84118C17.5087 5.72321 17.5625 5.60525 17.5948 5.48729C17.6163 5.41061 17.6486 5.33394 17.6809 5.26316C17.697 5.22777 17.7401 5.19238 17.767 5.19238C17.7939 5.19238 17.8369 5.23367 17.8477 5.26906C17.9876 5.72321 18.1006 6.18917 18.1275 6.67281C18.1652 7.27442 18.2136 7.87603 18.262 8.47764C18.2781 8.67228 18.3696 8.77845 18.5472 8.77845C19.053 8.78435 19.5587 8.77845 20.0645 8.77845C20.0806 8.77845 20.086 8.77845 20.0968 8.77255Z" fill="#070707"/>
<path d="M22.8627 9.64038C22.8572 10.004 22.7853 10.3676 22.5643 10.6758C22.3931 10.91 22.2384 11.1565 22.0505 11.3784C21.8295 11.6496 21.5643 11.8591 21.2384 11.9516C20.9455 12.0379 20.6638 12.0009 20.382 11.9023C20.1002 11.8037 19.824 11.6927 19.5422 11.588C19.4925 11.5695 19.4538 11.5448 19.4593 11.477C19.4649 11.4215 19.5256 11.3784 19.5864 11.3846C19.7135 11.4092 19.835 11.44 19.9621 11.4647C20.4925 11.588 20.9732 11.4647 21.4096 11.1011C21.7245 10.8422 21.9732 10.5156 22.1831 10.1519C22.3765 9.82528 22.3489 9.44932 22.1058 9.10418C21.8958 8.80835 21.6859 8.52484 21.4704 8.23517C21.4041 8.14272 21.3599 8.04411 21.3765 7.92701C21.3986 7.78525 21.4649 7.68664 21.5919 7.6435C21.7301 7.59419 21.8516 7.63733 21.9511 7.7606C22.0726 7.92084 22.1942 8.08109 22.3157 8.24749C22.4041 8.37076 22.498 8.49402 22.5864 8.62345C22.7743 8.92545 22.8516 9.26442 22.8627 9.64038Z" fill="#070707"/>
<path d="M18.9387 10.4355C19.0902 10.1789 19.2356 9.93335 19.381 9.68783C19.4295 9.60971 19.484 9.60971 19.5264 9.69899C19.6597 9.96683 19.787 10.2458 19.9142 10.5137C19.9627 10.6141 19.9506 10.7034 19.9021 10.7927C19.7749 11.0159 19.6476 11.2279 19.5204 11.4399C19.4598 11.5404 19.4113 11.5404 19.3568 11.4288C19.2477 11.2056 19.1447 10.9824 19.0417 10.7703C19.0296 10.748 19.0174 10.7257 19.0053 10.6922C18.866 10.9266 18.7327 11.1498 18.5994 11.373C18.5145 11.5069 18.4782 11.5069 18.3994 11.3507C18.2782 11.094 18.157 10.8373 18.0419 10.5806C17.9813 10.4467 17.9874 10.3797 18.054 10.257C18.1752 10.0561 18.2964 9.85523 18.4176 9.65435C18.4903 9.53159 18.5327 9.54275 18.5994 9.67667C18.7084 9.93335 18.8235 10.19 18.9387 10.4355Z" fill="#070707"/>
</svg>
