<svg width="27" height="32" viewBox="0 0 27 32" fill="none" xmlns="http://www.w3.org/2000/svg">
<path d="M19.692 10.5881H8.13068C7.97534 10.5881 7.84975 10.7343 7.84975 10.9152C7.84975 11.096 7.97534 11.2422 8.13068 11.2422H9.83612C8.58348 12.1695 7.83322 13.7817 7.84975 15.5093C7.83322 17.2369 8.58348 18.849 9.83612 19.7763H3.90014V11.2461H6.7194C6.87474 11.2461 7.00033 11.0999 7.00033 10.919C7.00033 10.7382 6.87474 10.592 6.7194 10.592H3.90014C3.58615 10.5881 3.33496 10.8806 3.33496 11.2461V19.784C3.33496 20.1457 3.58615 20.4419 3.90014 20.4419H19.6953C20.006 20.4419 20.2604 20.1495 20.2604 19.784V11.2461C20.2571 10.8806 20.006 10.5881 19.692 10.5881ZM8.41162 15.5131C8.41162 13.1584 9.92866 11.2461 11.7961 11.2461C13.6634 11.2461 15.1805 13.1584 15.1805 15.5131C15.1805 17.8679 13.6634 19.7801 11.7961 19.7801C9.92866 19.7801 8.41162 17.8679 8.41162 15.5131ZM19.692 19.7801H13.756C15.0086 18.8529 15.7589 17.2407 15.7424 15.5131C15.7589 13.7855 15.0086 12.1734 13.756 11.2461H19.692V19.7801Z" fill="#003761"/>
<path d="M18.2166 7.03725C18.0848 6.96105 17.9299 6.94581 17.7882 7.00296L11.7312 9.34974C11.5829 9.40688 11.5039 9.58975 11.5533 9.76119C11.6027 9.93262 11.7609 10.0241 11.9092 9.96691L17.9662 7.62013L18.589 9.76119C18.622 9.87167 18.7011 9.95548 18.7999 9.97834C18.8988 10.0012 19.001 9.9631 19.0669 9.87548C19.1328 9.78785 19.1558 9.66594 19.1229 9.55546L18.5 7.41441C18.4539 7.25059 18.3518 7.11344 18.2166 7.03725Z" fill="#003761"/>
<path d="M11.6924 21.0622L5.62997 23.4099L5.00658 21.268C4.9571 21.0965 4.79878 21.005 4.65036 21.0622C4.50193 21.1193 4.42277 21.3023 4.47224 21.4738L5.09234 23.6157C5.13852 23.7796 5.24076 23.9168 5.3727 23.993C5.45186 24.0388 5.53762 24.0616 5.62338 24.0616C5.68275 24.0616 5.74542 24.0502 5.80149 24.0273L11.8639 21.6796C12.0123 21.6224 12.0915 21.4395 12.042 21.268C11.9958 21.0965 11.8375 21.005 11.6924 21.0622Z" fill="#003761"/>
<path d="M17.6979 19.1348H18.8504C19.0093 19.1348 19.1377 18.9852 19.1377 18.8003V17.4583C19.1377 17.2733 19.0093 17.1238 18.8504 17.1238C18.6916 17.1238 18.5632 17.2733 18.5632 17.4583V18.4658H17.6979C17.5391 18.4658 17.4106 18.6153 17.4106 18.8003C17.4106 18.9813 17.5391 19.1348 17.6979 19.1348Z" fill="#003761"/>
<path d="M4.7448 17.1238C4.58595 17.1238 4.45752 17.2733 4.45752 17.4583V18.8003C4.45752 18.9852 4.58595 19.1348 4.7448 19.1348H5.89733C6.05618 19.1348 6.18461 18.9852 6.18461 18.8003C6.18461 18.6153 6.05618 18.4658 5.89733 18.4658H5.03209V17.4583C5.03209 17.2733 4.90366 17.1238 4.7448 17.1238Z" fill="#003761"/>
<path d="M5.89733 11.8953H4.7448C4.58595 11.8953 4.45752 12.0448 4.45752 12.2298V13.5717C4.45752 13.7567 4.58595 13.9063 4.7448 13.9063C4.90366 13.9063 5.03209 13.7567 5.03209 13.5717V12.5643H5.89733C6.05618 12.5643 6.18461 12.4147 6.18461 12.2298C6.18461 12.0448 6.05618 11.8953 5.89733 11.8953Z" fill="#003761"/>
<path d="M17.6979 12.5643H18.5632V13.5717C18.5632 13.7567 18.6916 13.9063 18.8504 13.9063C19.0093 13.9063 19.1377 13.7567 19.1377 13.5717V12.2298C19.1377 12.0448 19.0093 11.8953 18.8504 11.8953H17.6979C17.5391 11.8953 17.4106 12.0448 17.4106 12.2298C17.4106 12.4147 17.5391 12.5643 17.6979 12.5643Z" fill="#003761"/>
<path d="M10.0838 17.0233C9.92585 17.004 9.76454 17.004 9.60995 16.9655C9.26716 16.8769 9.06888 16.5224 9.13274 16.1295C9.17642 15.8559 9.26044 15.594 9.39487 15.359C9.44528 15.2703 9.54274 15.2549 9.59651 15.332C9.63011 15.3782 9.63011 15.4399 9.59987 15.5054C9.55618 15.6017 9.50913 15.7018 9.47216 15.802C9.44192 15.8829 9.41839 15.9715 9.40495 16.0601C9.38478 16.1834 9.43856 16.2759 9.51249 16.3568C9.58978 16.4415 9.68724 16.4839 9.79142 16.5032C10.0468 16.5533 10.3022 16.5417 10.5509 16.4608C10.7963 16.3799 10.9139 16.2065 10.9139 15.9137C10.9139 15.7134 10.9004 15.5131 10.8803 15.3127C10.85 15.0007 10.8198 14.6925 10.7795 14.3843C10.7526 14.1839 10.7089 13.9874 10.6719 13.7871C10.6383 13.606 10.6383 13.4288 10.719 13.2593C10.7526 13.19 10.7795 13.1861 10.8299 13.2362C10.9072 13.3132 10.9878 13.3864 11.0651 13.4596C11.139 13.529 11.1995 13.606 11.1861 13.7216C11.176 13.7833 11.1558 13.8603 11.1189 13.8988C11.0046 14.0144 11.0214 14.1531 11.0349 14.2995C11.0853 14.8157 11.1357 15.3358 11.1861 15.8521C11.2029 16.0447 11.1928 16.2412 11.1323 16.4261C11.0449 16.7035 10.8702 16.8692 10.6282 16.9501C10.4535 17.0079 10.272 17.0079 10.0905 17.0156C10.0838 17.0117 10.0838 17.0156 10.0838 17.0233Z" fill="#003761"/>
<path d="M12.895 15.9077C12.86 15.7293 12.8409 15.5472 12.7453 15.3954C12.6402 15.2247 12.6529 15.0198 12.7644 14.8566C12.7899 14.8187 12.8186 14.8187 12.8504 14.8528C12.9428 14.9515 13.0033 15.0729 13.0352 15.2133C13.102 15.4979 13.0957 15.7862 13.0893 16.0746C13.0861 16.1619 13.0797 16.2529 13.0766 16.3402C13.0734 16.4047 13.0606 16.4199 13.0065 16.4199C12.6561 16.4199 12.3058 16.4199 11.9522 16.4199C11.7771 16.4199 11.656 16.3137 11.6146 16.105C11.586 15.9532 11.57 15.8014 11.5573 15.6459C11.5254 15.2702 11.4745 14.8984 11.4203 14.5265C11.3949 14.3596 11.3757 14.1926 11.3662 14.0219C11.363 13.946 11.3949 13.8701 11.414 13.7942C11.4267 13.7449 11.4458 13.6956 11.4649 13.65C11.4745 13.6273 11.5 13.6045 11.5159 13.6045C11.5318 13.6045 11.5573 13.6311 11.5637 13.6538C11.6465 13.946 11.7134 14.2457 11.7293 14.5569C11.7516 14.9439 11.7802 15.3309 11.8089 15.7179C11.8185 15.8432 11.8726 15.9115 11.9777 15.9115C12.2771 15.9153 12.5765 15.9115 12.8759 15.9115C12.8855 15.9115 12.8886 15.9115 12.895 15.9077Z" fill="#003761"/>
<path d="M14.3884 16.2633C14.3851 16.4889 14.3413 16.7145 14.2068 16.9056C14.1025 17.0509 14.0083 17.2039 13.8939 17.3415C13.7594 17.5097 13.5979 17.6397 13.3994 17.6971C13.2211 17.7506 13.0496 17.7276 12.878 17.6665C12.7065 17.6053 12.5383 17.5365 12.3667 17.4715C12.3364 17.46 12.3129 17.4447 12.3162 17.4027C12.3196 17.3683 12.3566 17.3415 12.3936 17.3453C12.471 17.3606 12.545 17.3797 12.6224 17.395C12.9453 17.4715 13.238 17.395 13.5037 17.1694C13.6955 17.0089 13.8468 16.8062 13.9747 16.5807C14.0924 16.378 14.0756 16.1448 13.9276 15.9307C13.7997 15.7472 13.6719 15.5713 13.5407 15.3916C13.5003 15.3343 13.4734 15.2731 13.4835 15.2005C13.497 15.1125 13.5373 15.0514 13.6147 15.0246C13.6988 14.994 13.7728 15.0208 13.8334 15.0972C13.9074 15.1966 13.9814 15.296 14.0554 15.3993C14.1092 15.4757 14.1664 15.5522 14.2202 15.6325C14.3346 15.8198 14.3817 16.0301 14.3884 16.2633Z" fill="#003761"/>
<path d="M12.2977 16.8343C12.3784 16.7414 12.4559 16.6525 12.5333 16.5637C12.5592 16.5354 12.5882 16.5354 12.6108 16.5677C12.6818 16.6646 12.7496 16.7656 12.8174 16.8625C12.8432 16.8989 12.8368 16.9312 12.811 16.9635C12.7432 17.0443 12.6754 17.121 12.6076 17.1977C12.5753 17.2341 12.5495 17.2341 12.5204 17.1937C12.4623 17.1129 12.4074 17.0321 12.3526 16.9554C12.3461 16.9473 12.3397 16.9393 12.3332 16.9271C12.259 17.0119 12.1879 17.0927 12.1169 17.1735C12.0717 17.2219 12.0524 17.2219 12.0104 17.1654C11.9458 17.0725 11.8813 16.9796 11.8199 16.8868C11.7876 16.8383 11.7909 16.8141 11.8264 16.7696C11.8909 16.697 11.9555 16.6243 12.0201 16.5516C12.0588 16.5071 12.0814 16.5112 12.1169 16.5596C12.175 16.6525 12.2364 16.7454 12.2977 16.8343Z" fill="#003761"/>
<mask id="path-12-outside-1_2_1077" maskUnits="userSpaceOnUse" x="0" y="0" width="27" height="32" fill="black">
<rect fill="white" width="27" height="32"/>
<path d="M11.4771 31C9.54423 31.0035 7.62972 30.6176 5.84357 29.8645C4.05743 29.1113 2.43487 28.0058 1.06912 26.6113C1.04749 26.59 1.03025 26.5645 1.01838 26.5364C1.00652 26.5082 1.00027 26.4779 1.00001 26.4473C0.999747 26.4166 1.00548 26.3862 1.01686 26.3579C1.02824 26.3295 1.04505 26.3037 1.06631 26.282C1.08757 26.2604 1.11285 26.2432 1.14067 26.2316C1.1685 26.22 1.19831 26.2142 1.22837 26.2144C1.25843 26.2147 1.28814 26.2211 1.31576 26.2332C1.34339 26.2453 1.36837 26.2629 1.38925 26.2849C3.04766 27.9762 5.08961 29.2244 7.33421 29.919C9.57881 30.6135 11.9568 30.7329 14.2575 30.2666C16.5581 29.8004 18.7105 28.7628 20.5239 27.2458C22.3373 25.7289 23.7558 23.7794 24.6537 21.57C25.5515 19.3606 25.9011 16.9595 25.6714 14.5795C25.4416 12.1995 24.6397 9.91398 23.3367 7.92542C22.0336 5.93686 20.2696 4.30664 18.2009 3.17917C16.1323 2.0517 13.8228 1.46179 11.4771 1.4617H11.4748C9.60093 1.45686 7.74468 1.83095 6.01351 2.56231C4.28233 3.29367 2.7106 4.36779 1.38925 5.7225C1.36837 5.74455 1.34339 5.76214 1.31576 5.77423C1.28814 5.78633 1.25843 5.7927 1.22837 5.79296C1.19831 5.79323 1.1685 5.78739 1.14067 5.77578C1.11285 5.76418 1.08757 5.74704 1.06631 5.72537C1.04505 5.70369 1.02824 5.67792 1.01686 5.64955C1.00548 5.62119 0.999747 5.59079 1.00001 5.56014C1.00027 5.52949 1.00652 5.4992 1.01838 5.47104C1.03025 5.44288 1.04749 5.41741 1.06912 5.39612C2.43241 3.99848 4.05401 2.89031 5.84008 2.13574C7.62616 1.38116 9.54127 0.995155 11.4746 1.00005H11.4771C13.4092 1.00005 15.3224 1.38803 17.1074 2.14185C18.8924 2.89567 20.5143 4.00056 21.8805 5.39343C23.2467 6.78631 24.3304 8.43989 25.0698 10.2598C25.8091 12.0797 26.1897 14.0302 26.1897 16C26.1897 17.9698 25.8091 19.9204 25.0698 21.7402C24.3304 23.5601 23.2467 25.2137 21.8805 26.6066C20.5143 27.9995 18.8924 29.1044 17.1074 29.8582C15.3224 30.612 13.4092 31 11.4771 31Z"/>
</mask>
<path d="M11.4771 31C9.54423 31.0035 7.62972 30.6176 5.84357 29.8645C4.05743 29.1113 2.43487 28.0058 1.06912 26.6113C1.04749 26.59 1.03025 26.5645 1.01838 26.5364C1.00652 26.5082 1.00027 26.4779 1.00001 26.4473C0.999747 26.4166 1.00548 26.3862 1.01686 26.3579C1.02824 26.3295 1.04505 26.3037 1.06631 26.282C1.08757 26.2604 1.11285 26.2432 1.14067 26.2316C1.1685 26.22 1.19831 26.2142 1.22837 26.2144C1.25843 26.2147 1.28814 26.2211 1.31576 26.2332C1.34339 26.2453 1.36837 26.2629 1.38925 26.2849C3.04766 27.9762 5.08961 29.2244 7.33421 29.919C9.57881 30.6135 11.9568 30.7329 14.2575 30.2666C16.5581 29.8004 18.7105 28.7628 20.5239 27.2458C22.3373 25.7289 23.7558 23.7794 24.6537 21.57C25.5515 19.3606 25.9011 16.9595 25.6714 14.5795C25.4416 12.1995 24.6397 9.91398 23.3367 7.92542C22.0336 5.93686 20.2696 4.30664 18.2009 3.17917C16.1323 2.0517 13.8228 1.46179 11.4771 1.4617H11.4748C9.60093 1.45686 7.74468 1.83095 6.01351 2.56231C4.28233 3.29367 2.7106 4.36779 1.38925 5.7225C1.36837 5.74455 1.34339 5.76214 1.31576 5.77423C1.28814 5.78633 1.25843 5.7927 1.22837 5.79296C1.19831 5.79323 1.1685 5.78739 1.14067 5.77578C1.11285 5.76418 1.08757 5.74704 1.06631 5.72537C1.04505 5.70369 1.02824 5.67792 1.01686 5.64955C1.00548 5.62119 0.999747 5.59079 1.00001 5.56014C1.00027 5.52949 1.00652 5.4992 1.01838 5.47104C1.03025 5.44288 1.04749 5.41741 1.06912 5.39612C2.43241 3.99848 4.05401 2.89031 5.84008 2.13574C7.62616 1.38116 9.54127 0.995155 11.4746 1.00005H11.4771C13.4092 1.00005 15.3224 1.38803 17.1074 2.14185C18.8924 2.89567 20.5143 4.00056 21.8805 5.39343C23.2467 6.78631 24.3304 8.43989 25.0698 10.2598C25.8091 12.0797 26.1897 14.0302 26.1897 16C26.1897 17.9698 25.8091 19.9204 25.0698 21.7402C24.3304 23.5601 23.2467 25.2137 21.8805 26.6066C20.5143 27.9995 18.8924 29.1044 17.1074 29.8582C15.3224 30.612 13.4092 31 11.4771 31Z" fill="#003761"/>
<path d="M1.06912 26.6113L1.42639 26.2614L1.41994 26.255L1.06912 26.6113ZM1.38925 26.2849L1.02622 26.6288L1.03224 26.635L1.38925 26.2849ZM11.4771 1.4617L11.4771 0.961697H11.4771V1.4617ZM11.4748 1.4617L11.4735 1.9617H11.4748V1.4617ZM1.38925 5.7225L1.03128 5.37335L1.02627 5.37864L1.38925 5.7225ZM1.06912 5.39612L1.42001 5.75246L1.42704 5.74525L1.06912 5.39612ZM11.4746 1.00005L11.4733 1.50005H11.4746V1.00005ZM11.4771 1.00005V1.50005V1.00005ZM26.1897 16H26.6897H26.1897ZM11.4762 30.5C9.61055 30.5034 7.7624 30.131 6.03784 29.4038L5.6493 30.3252C7.49704 31.1043 9.47791 31.5037 11.478 31.5L11.4762 30.5ZM6.03784 29.4038C4.31326 28.6766 2.74599 27.6088 1.42633 26.2614L0.711905 26.9611C2.12375 28.4027 3.8016 29.5461 5.6493 30.3252L6.03784 29.4038ZM1.41994 26.255C1.44564 26.2803 1.4656 26.3101 1.47915 26.3422L0.557611 26.7305C0.594891 26.819 0.649352 26.8997 0.718301 26.9676L1.41994 26.255ZM1.47915 26.3422C1.4927 26.3744 1.4997 26.4086 1.49999 26.443L0.500027 26.4515C0.500842 26.5472 0.520335 26.642 0.557611 26.7305L1.47915 26.3422ZM1.49999 26.443C1.50028 26.4774 1.49387 26.5117 1.48089 26.5441L0.552828 26.1716C0.517083 26.2607 0.499211 26.3558 0.500027 26.4515L1.49999 26.443ZM1.48089 26.5441C1.46791 26.5764 1.44848 26.6065 1.42327 26.6322L0.709356 25.9319C0.641627 26.001 0.588579 26.0826 0.552828 26.1716L1.48089 26.5441ZM1.42327 26.6322C1.39803 26.6579 1.36748 26.6788 1.33316 26.6931L0.948185 25.7702C0.858213 25.8077 0.777111 25.8628 0.709356 25.9319L1.42327 26.6322ZM1.33316 26.6931C1.29881 26.7074 1.26165 26.7148 1.22394 26.7144L1.2328 25.7145C1.13497 25.7136 1.03818 25.7326 0.948185 25.7702L1.33316 26.6931ZM1.22394 26.7144C1.18623 26.7141 1.14923 26.7061 1.11518 26.6912L1.51635 25.7752C1.42706 25.7361 1.33064 25.7153 1.2328 25.7145L1.22394 26.7144ZM1.11518 26.6912C1.08115 26.6763 1.05102 26.6549 1.02627 26.6288L1.75224 25.941C1.68572 25.8708 1.60562 25.8143 1.51635 25.7752L1.11518 26.6912ZM1.03224 26.635C2.74823 28.385 4.8619 29.6774 7.18641 30.3966L7.48201 29.4413C5.31732 28.7715 3.34709 27.5674 1.74626 25.9348L1.03224 26.635ZM7.18641 30.3966C9.51096 31.1159 11.9739 31.2396 14.3568 30.7567L14.1581 29.7766C11.9396 30.2262 9.64665 30.1111 7.48201 29.4413L7.18641 30.3966ZM14.3568 30.7567C16.7396 30.2738 18.968 29.1993 20.8447 27.6293L20.2031 26.8623C18.453 28.3263 16.3767 29.327 14.1581 29.7766L14.3568 30.7567ZM20.8447 27.6293C22.7214 26.0594 24.1885 24.0427 25.1169 21.7582L24.1905 21.3817C23.3231 23.5161 21.9532 25.3983 20.2031 26.8623L20.8447 27.6293ZM25.1169 21.7582C26.0452 19.4738 26.4065 16.9917 26.1691 14.5315L25.1737 14.6276C25.3957 16.9274 25.0578 19.2474 24.1905 21.3817L25.1169 21.7582ZM26.1691 14.5315C25.9316 12.0713 25.1026 9.70812 23.7549 7.65138L22.9184 8.19946C24.1768 10.1198 24.9517 12.3277 25.1737 14.6276L26.1691 14.5315ZM23.7549 7.65138C22.4071 5.59458 20.5819 3.9074 18.4402 2.74014L17.9617 3.6182C19.9573 4.70587 21.6601 6.27914 22.9184 8.19946L23.7549 7.65138ZM18.4402 2.74014C16.2985 1.57285 13.9068 0.961797 11.4771 0.961697L11.4771 1.9617C13.7388 1.96179 15.9661 2.53055 17.9617 3.6182L18.4402 2.74014ZM11.4771 0.961697H11.4748V1.9617H11.4771V0.961697ZM11.4761 0.961699C9.53474 0.956691 7.61189 1.34426 5.81893 2.10173L6.20809 3.0229C7.87747 2.31764 9.66712 1.95704 11.4735 1.9617L11.4761 0.961699ZM5.81893 2.10173C4.02598 2.85918 2.39882 3.97135 1.03132 5.37339L1.74719 6.07162C3.02238 4.76422 4.53868 3.72816 6.20809 3.0229L5.81893 2.10173ZM1.02627 5.37864C1.05101 5.35252 1.08114 5.33114 1.11518 5.31623L1.51635 6.23223C1.60563 6.19313 1.68572 6.13658 1.75224 6.06637L1.02627 5.37864ZM1.11518 5.31623C1.14924 5.30131 1.18624 5.29332 1.22394 5.29298L1.2328 6.29294C1.33062 6.29208 1.42704 6.27135 1.51635 6.23223L1.11518 5.31623ZM1.22394 5.29298C1.26164 5.29265 1.2988 5.29999 1.33316 5.31432L0.948185 6.23725C1.03819 6.27479 1.13497 6.29381 1.2328 6.29294L1.22394 5.29298ZM1.33316 5.31432C1.36749 5.32864 1.39803 5.34952 1.42327 5.37525L0.709356 6.07548C0.777105 6.14456 0.858205 6.19972 0.948185 6.23725L1.33316 5.31432ZM1.42327 5.37525C1.44848 5.40095 1.46791 5.43098 1.48089 5.46334L0.552828 5.83577C0.588581 5.92486 0.64163 6.00643 0.709356 6.07548L1.42327 5.37525ZM1.48089 5.46334C1.49387 5.49568 1.50028 5.53001 1.49999 5.5644L0.500027 5.55588C0.499211 5.65157 0.517083 5.74669 0.552828 5.83577L1.48089 5.46334ZM1.49999 5.5644C1.4997 5.5988 1.4927 5.63304 1.47915 5.66518L0.557611 5.2769C0.520335 5.36537 0.500842 5.46018 0.500027 5.55588L1.49999 5.5644ZM1.47915 5.66518C1.4656 5.69735 1.44563 5.72708 1.41994 5.75239L0.718301 5.03985C0.649356 5.10774 0.594893 5.18842 0.557611 5.2769L1.47915 5.66518ZM1.42704 5.74525C2.74419 4.39492 4.31035 3.3248 6.03467 2.59632L5.6455 1.67515C3.79766 2.45582 2.12064 3.60203 0.711194 5.04699L1.42704 5.74525ZM6.03467 2.59632C7.75896 1.86785 9.60747 1.49532 11.4733 1.50004L11.4759 0.500048C9.47506 0.494986 7.49336 0.894478 5.6455 1.67515L6.03467 2.59632ZM11.4746 1.50005H11.4771V0.500046H11.4746V1.50005ZM11.4771 1.50005C13.3422 1.50005 15.1892 1.87456 16.9129 2.60246L17.3019 1.68124C15.4555 0.901502 13.4762 0.500046 11.4771 0.500046V1.50005ZM16.9129 2.60246C18.6365 3.33037 20.2033 4.39755 21.5235 5.74355L22.2374 5.04332C20.8253 3.60357 19.1483 2.46097 17.3019 1.68124L16.9129 2.60246ZM21.5235 5.74355C22.8438 7.08957 23.8915 8.68805 24.6065 10.448L25.533 10.0716C24.7693 8.19173 23.6496 6.48305 22.2374 5.04332L21.5235 5.74355ZM24.6065 10.448C25.3216 12.2079 25.6897 14.0945 25.6897 16H26.6897C26.6897 13.9659 26.2967 11.9514 25.533 10.0716L24.6065 10.448ZM25.6897 16C25.6897 17.9055 25.3216 19.7921 24.6065 21.552L25.533 21.9284C26.2967 20.0486 26.6897 18.0342 26.6897 16H25.6897ZM24.6065 21.552C23.8915 23.312 22.8438 24.9104 21.5235 26.2565L22.2374 26.9567C23.6496 25.517 24.7693 23.8083 25.533 21.9284L24.6065 21.552ZM21.5235 26.2565C20.2033 27.6025 18.6365 28.6697 16.9129 29.3976L17.3019 30.3188C19.1483 29.5391 20.8253 28.3965 22.2374 26.9567L21.5235 26.2565ZM16.9129 29.3976C15.1892 30.1255 13.3422 30.5 11.4771 30.5V31.5C13.4762 31.5 15.4555 31.0985 17.3019 30.3188L16.9129 29.3976Z" fill="#003761" mask="url(#path-12-outside-1_2_1077)"/>
<mask id="path-14-outside-2_2_1077" maskUnits="userSpaceOnUse" x="0" y="0.23999" width="7" height="8" fill="black">
<rect fill="white" y="0.23999" width="7" height="8"/>
<path d="M5.47658 6.75931C5.46103 6.75919 5.44551 6.75766 5.43024 6.75474L1.18469 5.8852C1.15487 5.8791 1.12657 5.86725 1.1014 5.85034C1.07622 5.83343 1.05467 5.81179 1.03797 5.78665C1.02127 5.76151 1.00975 5.73337 1.00407 5.70383C0.998388 5.67429 0.998659 5.64394 1.00486 5.6145L1.88544 1.42244C1.89162 1.393 1.90361 1.36506 1.92072 1.3402C1.93784 1.31534 1.95974 1.29405 1.98519 1.27755C2.01063 1.26105 2.03912 1.24967 2.06902 1.24404C2.09893 1.23841 2.12966 1.23865 2.15947 1.24475C2.18927 1.25085 2.21757 1.26269 2.24275 1.27959C2.26792 1.29649 2.28948 1.31812 2.30619 1.34325C2.3229 1.36837 2.33443 1.3965 2.34013 1.42603C2.34583 1.45556 2.34558 1.4859 2.33941 1.51534L1.50517 5.48339L5.52386 6.30716C5.57993 6.31868 5.62969 6.35031 5.66354 6.39592C5.69739 6.44154 5.71294 6.49792 5.70718 6.55419C5.70142 6.61045 5.67477 6.66262 5.63235 6.70063C5.58994 6.73863 5.53478 6.75978 5.47751 6.76L5.47658 6.75931Z"/>
</mask>
<path d="M5.47658 6.75931C5.46103 6.75919 5.44551 6.75766 5.43024 6.75474L1.18469 5.8852C1.15487 5.8791 1.12657 5.86725 1.1014 5.85034C1.07622 5.83343 1.05467 5.81179 1.03797 5.78665C1.02127 5.76151 1.00975 5.73337 1.00407 5.70383C0.998388 5.67429 0.998659 5.64394 1.00486 5.6145L1.88544 1.42244C1.89162 1.393 1.90361 1.36506 1.92072 1.3402C1.93784 1.31534 1.95974 1.29405 1.98519 1.27755C2.01063 1.26105 2.03912 1.24967 2.06902 1.24404C2.09893 1.23841 2.12966 1.23865 2.15947 1.24475C2.18927 1.25085 2.21757 1.26269 2.24275 1.27959C2.26792 1.29649 2.28948 1.31812 2.30619 1.34325C2.3229 1.36837 2.33443 1.3965 2.34013 1.42603C2.34583 1.45556 2.34558 1.4859 2.33941 1.51534L1.50517 5.48339L5.52386 6.30716C5.57993 6.31868 5.62969 6.35031 5.66354 6.39592C5.69739 6.44154 5.71294 6.49792 5.70718 6.55419C5.70142 6.61045 5.67477 6.66262 5.63235 6.70063C5.58994 6.73863 5.53478 6.75978 5.47751 6.76L5.47658 6.75931Z" fill="#003761"/>
<path d="M5.47658 6.75931L5.7744 6.35769L5.64354 6.26065L5.48062 6.25933L5.47658 6.75931ZM5.43024 6.75474L5.32991 7.24461L5.33639 7.24585L5.43024 6.75474ZM1.18469 5.8852L1.28501 5.39537L1.28497 5.39536L1.18469 5.8852ZM1.00486 5.6145L1.49411 5.71766L1.49419 5.71729L1.00486 5.6145ZM1.88544 1.42244L2.37476 1.52522L2.37478 1.52514L1.88544 1.42244ZM2.33941 1.51534L2.82871 1.61821L2.82874 1.61804L2.33941 1.51534ZM1.50517 5.48339L1.01587 5.38052L0.91248 5.87229L1.40477 5.9732L1.50517 5.48339ZM5.52386 6.30716L5.62454 5.8174L5.62426 5.81734L5.52386 6.30716ZM5.47751 6.76L5.17969 7.16163L5.31319 7.26062L5.4794 7.26L5.47751 6.76ZM5.48062 6.25933C5.49518 6.25945 5.50972 6.26088 5.52409 6.26362L5.33639 7.24585C5.3813 7.25443 5.42687 7.25893 5.47255 7.2593L5.48062 6.25933ZM5.53056 6.26491L1.28501 5.39537L1.08437 6.37504L5.32991 7.24457L5.53056 6.26491ZM1.28497 5.39536C1.31874 5.40228 1.35111 5.41575 1.38019 5.43529L0.822601 6.2654C0.902034 6.31876 0.991013 6.35592 1.08441 6.37504L1.28497 5.39536ZM1.38019 5.43529C1.40929 5.45483 1.43461 5.48012 1.45445 5.50999L0.621486 6.06332C0.674723 6.14346 0.743155 6.21204 0.822601 6.2654L1.38019 5.43529ZM1.45445 5.50999C1.47429 5.53986 1.48819 5.57363 1.49507 5.60941L0.513063 5.79825C0.531303 5.8931 0.56824 5.98316 0.621486 6.06332L1.45445 5.50999ZM1.49507 5.60941C1.50195 5.6452 1.50162 5.68201 1.49411 5.71766L0.51562 5.51135C0.495694 5.60586 0.494822 5.70338 0.513063 5.79825L1.49507 5.60941ZM1.49419 5.71729L2.37476 1.52522L1.39612 1.31965L0.515544 5.51172L1.49419 5.71729ZM2.37478 1.52514C2.36731 1.56076 2.35286 1.59424 2.33256 1.62373L1.50889 1.05667C1.45436 1.13587 1.41594 1.22525 1.3961 1.31973L2.37478 1.52514ZM2.33256 1.62373C2.31227 1.65321 2.28657 1.67804 2.25722 1.69708L1.71316 0.85803C1.63291 0.910065 1.56341 0.977471 1.50889 1.05667L2.33256 1.62373ZM2.25722 1.69708C2.22787 1.71611 2.19534 1.72904 2.16151 1.73541L1.97654 0.752665C1.8829 0.770289 1.79339 0.806005 1.71316 0.85803L2.25722 1.69708ZM2.16151 1.73541C2.12768 1.74178 2.09295 1.7415 2.05922 1.7346L2.25971 0.754906C2.16637 0.735802 2.07017 0.735043 1.97654 0.752665L2.16151 1.73541ZM2.05922 1.7346C2.02548 1.7277 1.99313 1.71424 1.96407 1.69473L2.52143 0.864454C2.44201 0.811144 2.35307 0.774011 2.25971 0.754906L2.05922 1.7346ZM1.96407 1.69473C1.93499 1.67521 1.90968 1.64994 1.88984 1.62012L2.72253 1.06638C2.66928 0.986297 2.60085 0.917773 2.52143 0.864454L1.96407 1.69473ZM1.88984 1.62012C1.87 1.59027 1.85609 1.55654 1.84919 1.52079L2.83107 1.33127C2.81277 1.23647 2.7758 1.14647 2.72253 1.06638L1.88984 1.62012ZM1.84919 1.52079C1.84229 1.48504 1.84259 1.44826 1.85007 1.41264L2.82874 1.61804C2.84858 1.52355 2.84937 1.42607 2.83107 1.33127L1.84919 1.52079ZM1.8501 1.41247L1.01587 5.38052L1.99448 5.58626L2.82871 1.61821L1.8501 1.41247ZM1.40477 5.9732L5.42345 6.79697L5.62426 5.81734L1.60558 4.99357L1.40477 5.9732ZM5.42317 6.79691C5.35982 6.78389 5.30207 6.74786 5.26203 6.69389L6.06505 6.09795C5.9573 5.95275 5.80004 5.85348 5.62454 5.8174L5.42317 6.79691ZM5.26203 6.69389C5.22184 6.63975 5.20277 6.57179 5.20978 6.50328L6.20458 6.60509C6.22311 6.42405 6.17294 6.24333 6.06505 6.09795L5.26203 6.69389ZM5.20978 6.50328C5.21678 6.43482 5.24911 6.37267 5.29867 6.32826L5.96604 7.07299C6.10042 6.95257 6.18606 6.78609 6.20458 6.60509L5.20978 6.50328ZM5.29867 6.32826C5.34806 6.28401 5.41116 6.26025 5.47562 6.26L5.4794 7.26C5.6584 7.25932 5.83183 7.19326 5.96604 7.07299L5.29867 6.32826ZM5.77533 6.35838L5.7744 6.35769L5.17876 7.16094L5.17969 7.16163L5.77533 6.35838Z" fill="#003761" mask="url(#path-14-outside-2_2_1077)"/>
</svg>
