<svg width="18" height="18" viewBox="0 0 18 18" fill="none" xmlns="http://www.w3.org/2000/svg">
<path d="M5.99058 8.77255C7.86616 8.77255 9.38667 7.25204 9.38667 5.37656C9.38667 3.50098 7.86616 1.98047 5.99058 1.98047C4.11499 1.98047 2.59448 3.50098 2.59448 5.37656C2.59701 7.25116 4.11598 8.77013 5.99058 8.77255ZM5.99058 2.68359C7.4778 2.68359 8.68355 3.88934 8.68355 5.37656C8.68355 6.86389 7.4778 8.06942 5.99058 8.06942C4.50325 8.06942 3.29761 6.86389 3.29761 5.37656C3.29904 3.88989 4.5038 2.68491 5.99058 2.68359Z" fill="#003761"/>
<path d="M13.0958 8.52652C14.2399 8.52531 15.2636 7.81537 15.6657 6.7442C15.7579 6.76529 15.8522 6.77584 15.947 6.77573C16.6266 6.77573 17.1774 6.22487 17.1774 5.54526C17.1774 4.86575 16.6266 4.31479 15.947 4.31479C15.784 4.31413 15.6225 4.34643 15.4723 4.40982C14.8065 3.25581 13.4082 2.74681 12.1562 3.20231C10.9042 3.65791 10.1603 4.94683 10.3919 6.25871C10.6233 7.5707 11.7636 8.52696 13.0958 8.52652ZM13.0958 7.82339C12.1336 7.82174 11.3023 7.15026 11.0989 6.20982C11.2005 6.22026 11.3027 6.22488 11.4047 6.22378C11.6414 6.22411 11.8774 6.19708 12.1079 6.14292C12.565 6.03558 12.9879 5.81552 13.3383 5.50307C13.4438 5.64018 13.5615 5.76718 13.6899 5.88287C14.0907 6.24839 14.5372 6.44889 15.0083 6.48053C14.7185 7.28715 13.9529 7.82471 13.0958 7.82339ZM15.947 5.01791C16.2381 5.01791 16.4743 5.25412 16.4743 5.54526C16.4743 5.83651 16.2381 6.0726 15.947 6.0726C15.9066 6.07348 15.8664 6.06865 15.8274 6.05865C15.8374 5.96637 15.8421 5.87364 15.8415 5.78092C15.8412 5.53625 15.8079 5.29257 15.743 5.0567C15.8082 5.03165 15.8773 5.01857 15.947 5.01791ZM15.1384 5.78092C14.4774 5.7774 14.0274 5.26401 13.8235 4.97573C14.0141 4.71535 14.1757 4.43465 14.3051 4.13901C14.8285 4.52232 15.1381 5.13206 15.1384 5.78092ZM13.0958 3.74185C13.2933 3.74273 13.4896 3.77107 13.6794 3.82622C13.2926 4.71908 12.7231 5.26763 11.9778 5.45396C11.6825 5.52768 11.3755 5.54317 11.0743 5.49967C11.2175 4.49266 12.0786 3.74383 13.0958 3.74185Z" fill="#003761"/>
<path d="M13.0957 9.57783C11.7176 9.57783 10.4625 10.2106 9.65742 11.2899C8.66261 10.3621 7.35095 9.84908 5.99062 9.85556C4.52461 9.85556 3.16055 10.425 2.14805 11.4587C1.125 12.5062 0.5625 13.9372 0.5625 15.4875C0.563049 15.6814 0.720154 15.8385 0.914062 15.839H11.0672C11.2611 15.8385 11.4182 15.6814 11.4187 15.4875C11.4187 15.1328 11.3882 14.7787 11.3273 14.4294H17.0859C17.2798 14.4288 17.437 14.2717 17.4375 14.0778C17.4375 12.8402 16.9875 11.6976 16.1684 10.861C15.3605 10.0342 14.2516 9.57113 13.0957 9.57783V9.57783ZM1.27617 15.1359C1.35352 13.9054 1.83516 12.7875 2.65078 11.9509C3.53375 11.0599 4.73621 10.5587 5.99062 10.5587C7.24504 10.5587 8.44739 11.0599 9.33047 11.9509C9.36914 11.9894 9.40781 12.0316 9.44648 12.0739L9.45352 12.0809C10.1953 12.9001 10.6348 13.9688 10.7086 15.1359H1.27617ZM11.1621 13.7263C10.9525 13.0281 10.6073 12.3781 10.1461 11.8137C10.7612 10.9391 11.7325 10.3824 12.7982 10.2935C13.8638 10.2045 14.9139 10.5925 15.6656 11.3532C16.2773 11.9789 16.643 12.8122 16.7203 13.7263H11.1621Z" fill="#003761"/>
</svg>
