<svg width="18" height="18" viewBox="0 0 18 18" fill="none" xmlns="http://www.w3.org/2000/svg">
<path d="M17.6511 3.61763C17.6499 3.61763 17.6487 3.61763 17.6476 3.61763H16.4648V3.2129C16.4712 3.05271 16.3676 2.90874 16.2136 2.86399C15.3925 2.6488 14.5469 2.54091 13.698 2.543C12.3024 2.543 10.4009 2.85701 8.99477 4.28752C7.59915 2.84306 5.68366 2.543 4.29153 2.543C3.44264 2.54091 2.59707 2.6488 1.77593 2.86399C1.62197 2.90874 1.51835 3.05271 1.52471 3.2129V3.61414H0.348905C0.156222 3.61414 0 3.77036 0 3.96304V15.1071C0 15.2997 0.156222 15.456 0.348905 15.456C0.408829 15.4558 0.467707 15.4402 0.519868 15.4106C0.554759 15.3932 4.04381 13.4847 8.91452 14.7128H8.96685H8.99826C9.02608 14.7162 9.05417 14.7162 9.08199 14.7128C13.9667 13.4742 17.4557 15.3792 17.4766 15.4106C17.5846 15.4729 17.7176 15.4729 17.8255 15.4106C17.9328 15.3487 17.9993 15.2345 18 15.1106V3.96653C18 3.77385 17.8438 3.61763 17.6511 3.61763ZM0.69781 14.5523V4.31544H1.53169V13.066C1.52951 13.2587 1.68395 13.4166 1.87663 13.4188C1.89547 13.419 1.91431 13.4177 1.93293 13.4149C2.65473 13.3047 3.38346 13.2464 4.11359 13.2404C5.12498 13.2229 6.13213 13.375 7.09323 13.6905C4.92283 13.428 2.72133 13.7247 0.69781 14.5523ZM4.11359 12.5461C3.47897 12.5475 2.8451 12.5883 2.21555 12.6682V3.48853C2.89486 3.33719 3.58857 3.25995 4.28455 3.25825C5.58946 3.25825 7.3898 3.55831 8.63888 4.96789L8.64935 13.6591C7.92363 13.1846 6.50707 12.5461 4.11359 12.5461ZM9.34716 4.96789C10.5962 3.57227 12.3966 3.25825 13.7015 3.25825C14.3974 3.2603 15.0911 3.3375 15.7705 3.48853V12.6682C15.1445 12.5876 14.5141 12.5456 13.8829 12.5426C11.5034 12.5426 10.0833 13.1811 9.34716 13.6556V4.96789V4.96789ZM17.2987 14.5523C15.2709 13.7224 13.0643 13.4257 10.8893 13.6905C11.855 13.3739 12.8669 13.2217 13.8829 13.2404C14.6176 13.2445 15.3511 13.3017 16.0775 13.4114C16.268 13.4403 16.4459 13.3093 16.4748 13.1188C16.4777 13.1002 16.479 13.0813 16.4788 13.0625V4.31544H17.3127L17.2987 14.5523Z" fill="#003761"/>
</svg>
