 <svg
    width="18"
    height="18"
    viewBox="0 0 15 16"
    fill="none"
    xmlns="http://www.w3.org/2000/svg"
  >
    <path
      d="M8.00736 8.55496C8.05793 8.68577 8.08594 8.82766 8.08594 8.97607C8.08594 9.62225 7.56023 10.1479 6.91406 10.1479C6.26789 10.1479 5.74219 9.62225 5.74219 8.97607C5.74219 8.3299 6.26789 7.8042 6.91406 7.8042C6.97591 7.8042 7.03664 7.80909 7.09594 7.81838L8.91917 5.56103C9.12249 5.30928 9.49143 5.27002 9.74314 5.47337C9.99489 5.67669 10.0341 6.0456 9.8308 6.29734L8.00736 8.55496ZM7.26018 14.708C7.14571 14.7148 7.02926 14.7183 6.91406 14.7183C3.7478 14.7183 1.17188 12.1423 1.17188 8.97607C1.17188 5.80981 3.7478 3.23389 6.91406 3.23389C10.0233 3.23389 12.5989 5.76203 12.6553 8.86952C12.6612 9.19305 12.9284 9.45054 13.2518 9.44471C13.5753 9.43882 13.8328 9.17178 13.827 8.84822C13.7939 7.02824 13.0601 5.32252 11.7608 4.04523C10.6001 2.90421 9.10471 2.22104 7.5 2.08691V1.47607C7.5 1.15246 7.23768 0.890137 6.91406 0.890137C6.59045 0.890137 6.32812 1.15246 6.32812 1.47607V2.08683C4.70232 2.22238 3.19187 2.92029 2.02509 4.08707C0.71918 5.39298 0 7.12926 0 8.97607C0 10.8229 0.71918 12.5592 2.02509 13.865C3.33097 15.171 5.06725 15.8901 6.91406 15.8901C7.05234 15.8901 7.19218 15.886 7.32967 15.8778C7.6527 15.8586 7.89902 15.5812 7.87983 15.2582C7.86064 14.9352 7.58335 14.6888 7.26018 14.708ZM10.905 2.33705L12.4857 3.64943C12.5951 3.74028 12.7278 3.78458 12.8597 3.78458C13.0279 3.78458 13.1949 3.71248 13.3108 3.57291C13.5175 3.32392 13.4832 2.95454 13.2342 2.74779L11.6536 1.43541C11.4046 1.22869 11.0352 1.26294 10.8284 1.51193C10.6218 1.76093 10.656 2.13033 10.905 2.33705ZM0.968496 3.78458C1.09863 3.78458 1.22962 3.74143 1.33837 3.65277L2.94835 2.34039C3.19919 2.13593 3.23675 1.76685 3.03229 1.51601C2.82782 1.26517 2.45874 1.22758 2.2079 1.43207L0.59792 2.74445C0.34708 2.94892 0.309521 3.318 0.513984 3.56884C0.629795 3.71093 0.798428 3.78458 0.968496 3.78458ZM15 12.3745C15 12.7421 14.8125 13.0756 14.4983 13.2666L10.4342 15.7374C10.2681 15.8385 10.0799 15.8892 9.89171 15.8892C9.71531 15.8892 9.53883 15.8447 9.37995 15.7554C9.05162 15.5707 8.84766 15.2221 8.84766 14.8454V9.90364C8.84766 9.52697 9.05162 9.17828 9.37995 8.99365C9.70831 8.80899 10.1123 8.81585 10.4342 9.01158L14.4983 11.4825C14.8125 11.6734 15 12.0069 15 12.3745ZM13.7098 12.3745L10.0195 10.1309V14.6181L13.7098 12.3745Z"
      fill="#003761"
    />
  </svg>