<svg width="32" height="32" viewBox="0 0 32 32" fill="none" xmlns="http://www.w3.org/2000/svg">
  <path d="M28.6529 11.2379C28.1497 10.6658 27.4393 10.3177 26.6788 10.2706C26.5227 10.261 26.3664 10.2633 26.2107 10.2774V7.15952C26.2164 6.96241 26.1423 6.77116 26.0054 6.6289L20.5626 1.19305C20.5602 1.19071 20.5614 1.1886 20.559 1.18672C20.4191 1.04165 20.2262 0.959849 20.0249 0.960084C20.0036 0.960084 19.9834 0.975552 19.9623 0.977427C19.941 0.975552 19.9204 0.988443 19.899 0.988443H8.4536C6.93509 0.988443 5.68025 2.19524 5.68025 3.71398V4.28539H5.14306C3.62455 4.27976 2.38916 5.50625 2.3833 7.02476V28.1778C2.3833 29.6963 3.62455 30.96 5.14306 30.96H20.1756C21.6941 30.96 22.9138 29.6963 22.9138 28.1778V27.5883H23.4864C24.9798 27.5993 26.1995 26.3979 26.2107 24.9045C26.2107 24.8921 26.2107 24.8794 26.2107 24.8672V17.4422L28.5214 15.4182C29.6989 14.3799 29.818 12.586 28.7884 11.401L28.6529 11.2379ZM25.1101 16.4412C25.0288 16.489 24.9573 16.5523 24.8994 16.6271L23.3994 17.9494L19.7071 21.1824L17.2858 21.3207L17.778 18.9896L23.9038 13.6041L25.8311 15.8056L25.1101 16.4412ZM20.7409 3.515L23.6933 6.45827H20.7409V3.515ZM21.4152 28.1778C21.4152 28.8699 20.8679 29.4614 20.1756 29.4614H5.14306C4.44345 29.4478 3.8833 28.8776 3.88189 28.1778V7.02476C3.88658 6.33476 4.44978 5.77929 5.13978 5.78398H5.68025V24.8672C5.68025 26.3855 6.93509 27.5883 8.4536 27.5883H21.4152V28.1778ZM24.7122 24.8672C24.7225 25.5321 24.1916 26.0794 23.5267 26.0897C23.5133 26.0897 23.4997 26.0897 23.4864 26.0897H8.4536C7.76173 26.0897 7.17884 25.5593 7.17884 24.8672V5.44812C7.35884 5.19125 7.35884 4.84906 7.17884 4.59218V3.71398C7.17884 3.02188 7.76173 2.48703 8.4536 2.48703H19.2423V7.17359C19.2562 7.60085 19.5993 7.94374 20.0268 7.95686H24.7122V10.8774C24.7122 10.9086 24.6484 10.9409 24.61 10.9749L23.5808 11.8859C23.5398 11.9105 23.5011 11.9389 23.4658 11.9708C23.4287 12.0038 23.395 12.0406 23.3654 12.0802L16.6005 18.0286C16.4793 18.1353 16.3958 18.2782 16.3626 18.4365L15.6163 21.9699C15.5697 22.1907 15.6252 22.4211 15.7675 22.5964C15.9098 22.7721 16.1237 22.8739 16.3497 22.8739C16.3637 22.8739 16.378 22.8734 16.3923 22.8725L20.049 22.6636C20.2154 22.6545 20.3744 22.5893 20.5 22.4794L24.2912 19.1475L24.7122 18.7634V24.8672ZM27.545 14.2941L26.9547 14.8147L25.029 12.6146L25.6145 12.1001C26.1756 11.6068 27.0306 11.6619 27.5239 12.2229L27.5258 12.2253L27.6683 12.3879C28.1579 12.9493 28.1029 13.8005 27.545 14.2941Z" fill="#003761" />
  <path d="M10.2967 10.4294H15.5992C16.0126 10.4294 16.3484 10.094 16.3484 9.68008C16.3484 9.26618 16.0126 8.93079 15.5992 8.93079H10.2967C9.88275 8.93079 9.54736 9.26618 9.54736 9.68008C9.54736 10.094 9.88275 10.4294 10.2967 10.4294Z" fill="#003761" />
  <path d="M19.4199 14.026C19.4199 13.6121 19.0843 13.2767 18.6706 13.2767H10.2967C9.88275 13.2767 9.54736 13.6121 9.54736 14.026C9.54736 14.4397 9.88275 14.7753 10.2967 14.7753H18.6706C19.0843 14.7753 19.4199 14.4397 19.4199 14.026Z" fill="#003761" />
</svg>