<svg xmlns="http://www.w3.org/2000/svg" width="57" height="57" viewBox="0 0 57 57">
  <g id="Respiratory" transform="translate(-13444 -6588)">
    <circle id="Ellipse_52" data-name="Ellipse 52" cx="28.5" cy="28.5" r="28.5" transform="translate(13444 6588)" fill="#eee"/>
    <g id="lungs" transform="translate(13455 6563.767)">
      <g id="Group_1379" data-name="Group 1379" transform="translate(0 36.233)">
        <g id="Group_1378" data-name="Group 1378" transform="translate(0 0)">
          <path id="Path_1632" data-name="Path 1632" d="M34.626,60.784c0-.014-.008-.029-.012-.043L30.753,48.894c-1.011-3.933-4.419-6.1-9.6-6.1a2.639,2.639,0,0,0-1.5.472A.676.676,0,0,0,19.2,43.1h0a.679.679,0,0,0-.678.681c0,.628.005,2.38.005,2.38H16.245V37.591h2.277v.039a.679.679,0,1,0,1.358.013l.007-.725a.679.679,0,0,0-.679-.685H15.565a.679.679,0,0,0-.679.679v6.211a2.636,2.636,0,0,0-1.268-.327c-5.18,0-8.587,2.166-9.6,6.1L.159,60.741c0,.014-.009.029-.012.043a4.051,4.051,0,0,0,1.188,4.127,4.629,4.629,0,0,0,3.127,1.173,5.248,5.248,0,0,0,1.788-.318,34.471,34.471,0,0,1,3.73-.688l.054-.01a9.271,9.271,0,0,0,5.174-3.192,5.548,5.548,0,0,0,1-3.462c.011-.2.022-.4.037-.6,0-.017,0-.033,0-.05V53.2l1.141-.52,1.141.52v4.558c0,.017,0,.033,0,.05.015.2.026.406.037.6a5.548,5.548,0,0,0,1,3.462,9.271,9.271,0,0,0,5.174,3.192l.054.01a34.434,34.434,0,0,1,3.73.688,5.247,5.247,0,0,0,1.788.318,4.63,4.63,0,0,0,3.127-1.173,4.051,4.051,0,0,0,1.188-4.127ZM14.887,57.733c-.015.206-.026.41-.036.607a4.38,4.38,0,0,1-.7,2.684,7.906,7.906,0,0,1-4.389,2.713,35.257,35.257,0,0,0-3.972.751,3.478,3.478,0,0,1-3.54-.584,2.728,2.728,0,0,1-.789-2.765l3.86-11.845q.007-.021.012-.043c1.072-4.213,5.1-5.1,8.288-5.1A1.278,1.278,0,0,1,14.886,45.3V46.75q0,.035,0,.069h0a2.905,2.905,0,0,1-2.159,2.728l-.282.074a2.564,2.564,0,0,1-1.8-.188l-.127-.064a.679.679,0,0,0-.946.83l.615,1.769H8.129a.679.679,0,1,0,0,1.358h2.53l.61,1.755v.069q0,.175-.007.341l-4.828.661A.679.679,0,1,0,6.617,57.5l4.406-.6C10.6,58.18,9.642,59.056,8.09,60.25l-.137.106a.679.679,0,1,0,.828,1.076l.138-.106c2.163-1.664,3.7-3.081,3.709-6.138l0-.017a.74.74,0,0,1,.413-.512l1.843-.84ZM12.48,53.424a2.066,2.066,0,0,0-.294.164L11.3,51.033a3.922,3.922,0,0,0,1.49-.1l.282-.074a4.274,4.274,0,0,0,3.1-3.347h.533V51.5Zm5.585-5.909H18.6a4.274,4.274,0,0,0,3.1,3.347l.282.074a3.922,3.922,0,0,0,1.49.1l-.888,2.555a2.065,2.065,0,0,0-.294-.164L18.065,51.5V47.515ZM32.526,63.9a3.478,3.478,0,0,1-3.54.584,35.242,35.242,0,0,0-3.972-.751,7.907,7.907,0,0,1-4.389-2.713,4.381,4.381,0,0,1-.7-2.684c-.011-.2-.021-.4-.036-.607V53.82l1.843.84a.74.74,0,0,1,.413.512l0,.017c.013,3.057,1.546,4.473,3.709,6.138l.137.106a.679.679,0,1,0,.828-1.076l-.137-.106c-1.552-1.195-2.515-2.07-2.934-3.356l4.406.6a.679.679,0,0,0,.184-1.346l-4.828-.661q-.007-.166-.007-.341v-.069l.61-1.755h2.53a.679.679,0,0,0,0-1.358H24.586L25.2,50.2a.679.679,0,0,0-.946-.83l-.127.064a2.564,2.564,0,0,1-1.8.188l-.282-.074a2.905,2.905,0,0,1-2.159-2.725c0-.047,0-1.422,0-1.492a1.278,1.278,0,0,1,1.271-1.177c3.189,0,7.216.884,8.288,5.1q.006.022.012.043l3.86,11.845a2.728,2.728,0,0,1-.789,2.765Z" transform="translate(0 -36.233)" fill="#818a91"/>
          <path id="Path_1633" data-name="Path 1633" d="M273.278,92.3a.679.679,0,1,0,.747.377A.686.686,0,0,0,273.278,92.3Z" transform="translate(-254.211 -88.483)" fill="#818a91"/>
        </g>
      </g>
    </g>
  </g>
</svg>
