<svg width="28" height="20" viewBox="0 0 28 20" fill="none" xmlns="http://www.w3.org/2000/svg">
<path d="M20.7545 5.49415H4.17444L7.56664 2.10195C8.04416 1.62443 8.04416 0.850353 7.56664 0.372837C7.08899 -0.104816 6.31504 -0.10468 5.83739 0.372837L0.358107 5.85239C-0.11941 6.32991 -0.11941 7.10399 0.358107 7.5815L5.83739 13.0608C6.07622 13.2996 6.38908 13.4189 6.70195 13.4189C7.01481 13.4189 7.32768 13.2995 7.5665 13.0608C8.04402 12.5833 8.04402 11.8092 7.5665 11.3317L4.1743 7.93947H20.7544C23.4012 7.93947 25.5545 10.0928 25.5545 12.7396C25.5545 15.3864 23.4012 17.5398 20.7544 17.5398H10.6685C9.99321 17.5398 9.44587 18.0871 9.44587 18.7625C9.44587 19.4378 9.99321 19.9851 10.6685 19.9851H20.7544C24.7495 19.9851 27.9999 16.7347 27.9999 12.7396C27.9999 8.74452 24.7496 5.49415 20.7545 5.49415Z" fill="#003761"/>
</svg>
