<svg width="25" height="25" viewBox="0 0 25 25" fill="none" xmlns="http://www.w3.org/2000/svg">
<g clip-path="url(#clip0_1_2298)">
<path d="M12.5 0C5.59646 0 0 5.59646 0 12.5C0 19.4035 5.59646 25 12.5 25C19.4003 24.9922 24.9922 19.4003 25 12.5C25 5.59646 19.4035 0 12.5 0ZM12.5 24.1667C6.05667 24.1667 0.833333 18.9433 0.833333 12.5C0.833333 6.05667 6.05667 0.833333 12.5 0.833333C18.9403 0.840677 24.1593 6.05974 24.1667 12.5C24.1667 18.9433 18.9433 24.1667 12.5 24.1667Z" fill="#16C79A"/>
<path d="M9.47335 5.13404C9.3119 4.97811 9.05591 4.97811 8.89445 5.13404C8.72893 5.29389 8.72434 5.55769 8.88419 5.72321L15.6609 12.4999L8.88419 19.2765C8.80611 19.3547 8.76221 19.4606 8.76221 19.571C8.76215 19.8011 8.94867 19.9877 9.17877 19.9878C9.28929 19.9878 9.39523 19.9438 9.47335 19.8657L16.5446 12.7945C16.7073 12.6318 16.7073 12.368 16.5446 12.2053L9.47335 5.13404Z" fill="#16C79A"/>
</g>
<defs>
<clipPath id="clip0_1_2298">
<rect width="25" height="25" fill="white"/>
</clipPath>
</defs>
</svg>
