<svg width="18" height="18" viewBox="0 0 18 18" fill="none" xmlns="http://www.w3.org/2000/svg">
<rect x="0.5" y="0.5" width="17" height="17" rx="2.5" fill="#F40505" stroke="#F40505"/>
<path d="M9.66895 10.165H7.74121V14H6.01172V4.04688H9.51172C10.6602 4.04688 11.5465 4.30436 12.1709 4.81934C12.7952 5.33431 13.1074 6.07943 13.1074 7.05469C13.1074 7.72005 12.9456 8.27832 12.6221 8.72949C12.3031 9.17611 11.8564 9.52018 11.2822 9.76172L13.5176 13.9111V14H11.665L9.66895 10.165ZM7.74121 8.77734H9.51855C10.1019 8.77734 10.5576 8.63151 10.8857 8.33984C11.2139 8.04362 11.3779 7.6403 11.3779 7.12988C11.3779 6.59668 11.2253 6.18424 10.9199 5.89258C10.6191 5.60091 10.168 5.45052 9.56641 5.44141H7.74121V8.77734Z" fill="white"/>
</svg>
