<svg width="26" height="25" viewBox="0 0 26 25" fill="none" xmlns="http://www.w3.org/2000/svg">
<path d="M25.8889 12.5C25.8889 19.4 20.2889 25 13.3889 25C6.48892 25 0.888916 19.45 0.888916 12.5C0.888916 5.55 6.48892 0 13.3889 0C20.2889 0 25.8889 5.6 25.8889 12.5ZM13.3889 3.25C8.28892 3.25 4.13892 7.4 4.13892 12.5C4.13892 17.6 8.28892 21.75 13.3889 21.75C18.4889 21.75 22.6389 17.6 22.6389 12.5C22.6389 7.4 18.4889 3.25 13.3889 3.25Z" fill="#FFBF00"/>
<path d="M9.68896 6.94444H14.039C16.539 6.94444 18.689 7.79444 18.689 10.6944C18.689 13.4944 16.539 14.6944 14.039 14.6944H12.789V18.5944H9.68896V6.94444ZM13.839 12.2444C15.039 12.2444 15.689 11.6944 15.689 10.6944C15.689 9.69444 15.039 9.34444 13.839 9.34444H12.789V12.1944H13.839V12.2444ZM15.589 11.8444L19.389 18.5944H15.889L13.489 13.8944L15.589 11.8444Z" fill="#FFBF00"/>
</svg>
