<svg width="25" height="25" viewBox="0 0 25 25" fill="none" xmlns="http://www.w3.org/2000/svg">
<path d="M20.4088 14.6761C20.3192 14.6761 20.2333 14.6405 20.1699 14.5772C20.1065 14.5138 20.071 14.4279 20.071 14.3383V13.3349C20.071 13.2453 20.1065 13.1594 20.1699 13.096C20.2333 13.0327 20.3192 12.9971 20.4088 12.9971C20.4984 12.9971 20.5843 13.0327 20.6477 13.096C20.711 13.1594 20.7466 13.2453 20.7466 13.3349V14.3383C20.7466 14.4279 20.711 14.5138 20.6477 14.5772C20.5843 14.6405 20.4984 14.6761 20.4088 14.6761Z" fill="#175F94"/>
<path d="M9.62163 24.3242C9.53202 24.3242 9.44609 24.2886 9.38274 24.2252C9.31938 24.1619 9.28379 24.0759 9.28379 23.9863V1.01336C9.28355 0.966003 9.29327 0.919125 9.31232 0.875768C9.33137 0.83241 9.35932 0.793543 9.39437 0.761686C9.42941 0.72983 9.47076 0.705697 9.51573 0.690853C9.5607 0.676009 9.60829 0.670786 9.65541 0.675522L20.4426 1.76674C20.5262 1.77514 20.6037 1.81441 20.6599 1.87688C20.7161 1.93935 20.747 2.02053 20.7466 2.10458V7.62147C20.7466 7.71107 20.711 7.797 20.6477 7.86036C20.5843 7.92372 20.4984 7.95931 20.4088 7.95931C20.3192 7.95931 20.2333 7.92372 20.1699 7.86036C20.1065 7.797 20.0709 7.71107 20.0709 7.62147V2.40998L9.95946 1.38701V23.5995L20.0709 22.2296V16.7026C20.0709 16.613 20.1065 16.527 20.1699 16.4637C20.2333 16.4003 20.3192 16.3647 20.4088 16.3647C20.4984 16.3647 20.5843 16.4003 20.6477 16.4637C20.711 16.527 20.7466 16.613 20.7466 16.7026V22.5235C20.7466 22.6052 20.717 22.6842 20.6633 22.7457C20.6096 22.8073 20.5354 22.8473 20.4544 22.8583L9.66723 24.3211C9.65211 24.3232 9.63688 24.3242 9.62163 24.3242V24.3242Z" fill="#175F94"/>
<path d="M20.4088 11.3072C20.3192 11.3072 20.2333 11.2716 20.1699 11.2083C20.1065 11.1449 20.071 11.059 20.071 10.9694V9.98627C20.071 9.89667 20.1065 9.81074 20.1699 9.74739C20.2333 9.68403 20.3192 9.64844 20.4088 9.64844C20.4984 9.64844 20.5843 9.68403 20.6477 9.74739C20.711 9.81074 20.7466 9.89667 20.7466 9.98627V10.9694C20.7466 11.059 20.711 11.1449 20.6477 11.2083C20.5843 11.2716 20.4984 11.3072 20.4088 11.3072Z" fill="#175F94"/>
<path d="M4.61454 23.0764C4.52494 23.0764 4.43901 23.0408 4.37565 22.9775C4.3123 22.9141 4.2767 22.8282 4.2767 22.7386V2.09467C4.2767 2.00507 4.3123 1.91914 4.37565 1.85579C4.43901 1.79243 4.52494 1.75684 4.61454 1.75684H9.6213C9.7109 1.75684 9.79683 1.79243 9.86019 1.85579C9.92354 1.91914 9.95914 2.00507 9.95914 2.09467C9.95914 2.18427 9.92354 2.2702 9.86019 2.33356C9.79683 2.39692 9.7109 2.43251 9.6213 2.43251H4.95238V22.7386C4.95238 22.8282 4.91678 22.9141 4.85343 22.9775C4.79007 23.0408 4.70414 23.0764 4.61454 23.0764V23.0764Z" fill="#175F94"/>
<path d="M6.52262 23.0768C6.43302 23.0768 6.34709 23.0412 6.28373 22.9778C6.22038 22.9144 6.18478 22.8285 6.18478 22.7389V4.06831C6.18478 3.97871 6.22038 3.89278 6.28373 3.82942C6.34709 3.76606 6.43302 3.73047 6.52262 3.73047H9.61891C9.70851 3.73047 9.79444 3.76606 9.85779 3.82942C9.92115 3.89278 9.95674 3.97871 9.95674 4.06831C9.95674 4.15791 9.92115 4.24384 9.85779 4.30719C9.79444 4.37055 9.70851 4.40614 9.61891 4.40614H6.86046V22.7389C6.86046 22.8285 6.82487 22.9144 6.76151 22.9778C6.69815 23.0412 6.61222 23.0768 6.52262 23.0768Z" fill="#175F94"/>
<path d="M9.61891 23.0761H1.03007C0.940468 23.0761 0.854537 23.0405 0.791181 22.9771C0.727824 22.9138 0.69223 22.8278 0.69223 22.7382C0.69223 22.6486 0.727824 22.5627 0.791181 22.4993C0.854537 22.436 0.940468 22.4004 1.03007 22.4004H9.61891C9.70851 22.4004 9.79444 22.436 9.8578 22.4993C9.92116 22.5627 9.95675 22.6486 9.95675 22.7382C9.95675 22.8278 9.92116 22.9138 9.8578 22.9771C9.79444 23.0405 9.70851 23.0761 9.61891 23.0761Z" fill="#175F94"/>
<path d="M23.9699 23.0761H18.7983C18.7087 23.0761 18.6228 23.0405 18.5594 22.9771C18.4961 22.9138 18.4605 22.8278 18.4605 22.7382C18.4605 22.6486 18.4961 22.5627 18.5594 22.4993C18.6228 22.436 18.7087 22.4004 18.7983 22.4004H23.9699C24.0595 22.4004 24.1455 22.436 24.2088 22.4993C24.2722 22.5627 24.3078 22.6486 24.3078 22.7382C24.3078 22.8278 24.2722 22.9138 24.2088 22.9771C24.1455 23.0405 24.0595 23.0761 23.9699 23.0761Z" fill="#175F94"/>
<path d="M11.9662 13.7212C11.7247 13.7212 11.4887 13.6496 11.2879 13.5154C11.0871 13.3813 10.9306 13.1906 10.8382 12.9675C10.7458 12.7444 10.7216 12.4989 10.7687 12.262C10.8158 12.0252 10.9321 11.8077 11.1029 11.6369C11.2736 11.4662 11.4912 11.3499 11.728 11.3028C11.9649 11.2556 12.2103 11.2798 12.4334 11.3722C12.6565 11.4646 12.8472 11.6211 12.9814 11.8219C13.1155 12.0227 13.1872 12.2588 13.1872 12.5002C13.1868 12.8239 13.058 13.1343 12.8292 13.3632C12.6003 13.5921 12.2899 13.7208 11.9662 13.7212V13.7212ZM11.9662 11.955C11.8584 11.955 11.7529 11.987 11.6633 12.0469C11.5736 12.1068 11.5037 12.1919 11.4625 12.2916C11.4212 12.3912 11.4104 12.5008 11.4314 12.6066C11.4525 12.7124 11.5044 12.8095 11.5806 12.8858C11.6569 12.9621 11.7541 13.014 11.8598 13.035C11.9656 13.0561 12.0752 13.0453 12.1749 13.004C12.2745 12.9627 12.3597 12.8928 12.4196 12.8032C12.4795 12.7135 12.5115 12.6081 12.5115 12.5002C12.5113 12.3557 12.4538 12.2171 12.3516 12.1149C12.2494 12.0127 12.1108 11.9552 11.9662 11.955V11.955Z" fill="#175F94"/>
</svg>
