<svg width="20" height="20" viewBox="0 0 20 20" fill="none" xmlns="http://www.w3.org/2000/svg">
<path d="M12.1111 2.22222H2.33334C2.00918 2.22222 1.69831 2.31677 1.4691 2.48507C1.23988 2.65338 1.11111 2.88164 1.11111 3.11966V16.8803C1.11111 17.1184 1.23988 17.3466 1.4691 17.5149C1.69831 17.6832 2.00918 17.7778 2.33334 17.7778H12.1111C12.4353 17.7778 12.7461 17.6832 12.9754 17.5149C13.2046 17.3466 13.3333 17.1184 13.3333 16.8803V3.11966C13.3333 2.88164 13.2046 2.65338 12.9754 2.48507C12.7461 2.31677 12.4353 2.22222 12.1111 2.22222ZM12.5185 16.8803C12.5185 16.9597 12.4756 17.0358 12.3992 17.0919C12.3228 17.148 12.2192 17.1795 12.1111 17.1795H2.33334C2.22529 17.1795 2.12166 17.148 2.04526 17.0919C1.96885 17.0358 1.92593 16.9597 1.92593 16.8803V3.11966C1.92593 3.04032 1.96885 2.96423 2.04526 2.90813C2.12166 2.85203 2.22529 2.82051 2.33334 2.82051H12.1111C12.2192 2.82051 12.3228 2.85203 12.3992 2.90813C12.4756 2.96423 12.5185 3.04032 12.5185 3.11966V16.8803Z" fill="#003761"/>
<path d="M10.4216 3.33344H4.24852C4.12905 3.33178 4.01038 3.3506 3.89944 3.3888C3.7885 3.42701 3.6875 3.48383 3.60234 3.55596C3.51717 3.62809 3.44953 3.71409 3.40337 3.80894C3.35721 3.90379 3.33345 4.0056 3.33346 4.10844V7.54594C3.33153 7.64876 3.3534 7.75088 3.3978 7.84636C3.44219 7.94183 3.50822 8.02875 3.59203 8.10204C3.67585 8.17534 3.77577 8.23354 3.88599 8.27327C3.99621 8.313 4.11451 8.33345 4.234 8.33344H10.4071C10.5265 8.33509 10.6452 8.31627 10.7561 8.27807C10.8671 8.23987 10.9681 8.18304 11.0532 8.11091C11.1384 8.03878 11.206 7.95278 11.2522 7.85793C11.2984 7.76308 11.3221 7.66127 11.3221 7.55844V4.12094C11.324 4.01812 11.3022 3.91599 11.2578 3.82052C11.2134 3.72504 11.1474 3.63812 11.0635 3.56483C10.9797 3.49154 10.8798 3.43333 10.7696 3.3936C10.6594 3.35388 10.5411 3.33342 10.4216 3.33344ZM10.5959 7.55844C10.5949 7.59797 10.5763 7.63566 10.5438 7.66362C10.5113 7.69158 10.4675 7.70764 10.4216 7.70844H4.24852C4.22456 7.7097 4.20055 7.70679 4.17793 7.69986C4.15531 7.69293 4.13456 7.68213 4.11691 7.66812C4.09927 7.6541 4.08511 7.63716 4.07528 7.61831C4.06544 7.59946 4.06015 7.57909 4.0597 7.55844V4.12094C4.05823 4.10031 4.06162 4.07965 4.06967 4.06018C4.07772 4.04072 4.09027 4.02286 4.10655 4.00767C4.12284 3.99249 4.14252 3.9803 4.16443 3.97184C4.18633 3.96338 4.21 3.95882 4.234 3.95844H10.4071C10.453 3.95924 10.4968 3.9753 10.5293 4.00325C10.5618 4.03121 10.5804 4.0689 10.5813 4.10844L10.5959 7.55844Z" fill="#003761"/>
<path d="M7.74307 5.38194H7.11807V4.75694C7.11807 4.67406 7.08515 4.59458 7.02654 4.53597C6.96794 4.47737 6.88845 4.44444 6.80557 4.44444C6.72269 4.44444 6.64321 4.47737 6.5846 4.53597C6.526 4.59458 6.49307 4.67406 6.49307 4.75694V5.38194H5.86807C5.78519 5.38194 5.70571 5.41487 5.6471 5.47347C5.5885 5.53208 5.55557 5.61156 5.55557 5.69444C5.55557 5.77732 5.5885 5.85681 5.6471 5.91541C5.70571 5.97402 5.78519 6.00694 5.86807 6.00694H6.49307V6.63194C6.49307 6.71482 6.526 6.79431 6.5846 6.85291C6.64321 6.91152 6.72269 6.94444 6.80557 6.94444C6.88845 6.94444 6.96794 6.91152 7.02654 6.85291C7.08515 6.79431 7.11807 6.71482 7.11807 6.63194V6.00694H7.74307C7.82595 6.00694 7.90544 5.97402 7.96404 5.91541C8.02265 5.85681 8.05557 5.77732 8.05557 5.69444C8.05557 5.61156 8.02265 5.53208 7.96404 5.47347C7.90544 5.41487 7.82595 5.38194 7.74307 5.38194Z" fill="#003761"/>
<path d="M9.81911 10C9.59926 10.0017 9.38699 10.0806 9.21943 10.223C9.05186 10.3653 8.93966 10.562 8.90243 10.7787C8.8652 10.9954 8.90531 11.2183 9.01575 11.4084C9.12619 11.5985 9.29993 11.7438 9.50661 11.8187V12.8125C9.50661 12.8954 9.53954 12.9749 9.59814 13.0335C9.65675 13.0921 9.73623 13.125 9.81911 13.125C9.90199 13.125 9.98148 13.0921 10.0401 13.0335C10.0987 12.9749 10.1316 12.8954 10.1316 12.8125V11.8187C10.3383 11.7438 10.512 11.5985 10.6225 11.4084C10.7329 11.2183 10.773 10.9954 10.7358 10.7787C10.6986 10.562 10.5864 10.3653 10.4188 10.223C10.2512 10.0806 10.039 10.0017 9.81911 10ZM9.81911 11.25C9.75731 11.25 9.69689 11.2317 9.6455 11.1973C9.59411 11.163 9.55405 11.1142 9.5304 11.0571C9.50675 11 9.50056 10.9372 9.51262 10.8765C9.52468 10.8159 9.55444 10.7602 9.59814 10.7165C9.64185 10.6728 9.69753 10.6431 9.75815 10.631C9.81876 10.6189 9.8816 10.6251 9.9387 10.6488C9.9958 10.6724 10.0446 10.7125 10.0789 10.7639C10.1133 10.8153 10.1316 10.8757 10.1316 10.9375C10.1316 11.0204 10.0987 11.0999 10.0401 11.1585C9.98148 11.2171 9.90199 11.25 9.81911 11.25Z" fill="#003761"/>
</svg>
