<svg width="18" height="18" viewBox="0 0 18 18" fill="none" xmlns="http://www.w3.org/2000/svg">
	<g clip-path="url(#clip0_622_2646)">
		<path d="M3.30005 0C2.47203 0.000991835 1.80104 0.671984 1.80005 1.5V16.8645C1.85727 17.5112 2.4018 18.0055 3.05105 18H14.7001C15.1971 18 15.6001 17.597 15.6001 17.1V16.1448C15.9584 16.0181 16.1985 15.68 16.2001 15.3V0.899999C16.2001 0.402943 15.7971 0 15.3001 0H3.30005ZM14.7001 17.4H3.05105C2.72467 17.41 2.44356 17.1716 2.40005 16.848V16.8C2.40005 16.4686 2.66868 16.2 3.00005 16.2H15.0001V17.1C15.0001 17.2657 14.8657 17.4 14.7001 17.4ZM15.6001 0.899999V15.3C15.6001 15.4657 15.4657 15.6 15.3001 15.6H3.00005C2.78932 15.5997 2.58227 15.6553 2.40005 15.7611V1.5C2.40005 1.00294 2.80299 0.6 3.30005 0.6H15.3001C15.4657 0.6 15.6001 0.734314 15.6001 0.899999Z" fill="#FF0000" />
		<path d="M3.3 1.49997C3.13431 1.49997 3 1.63428 3 1.79997V3.29997C3 3.46565 3.13431 3.59997 3.3 3.59997C3.46569 3.59997 3.6 3.46565 3.6 3.29997V1.79997C3.6 1.63428 3.46569 1.49997 3.3 1.49997Z" fill="#FF0000" />
		<path d="M3.3 4.19998C3.13431 4.19998 3 4.3343 3 4.49998V14.7C3 14.8657 3.13431 15 3.3 15C3.46569 15 3.6 14.8657 3.6 14.7V4.49998C3.6 4.3343 3.46569 4.19998 3.3 4.19998Z" fill="#FF0000" />
		<path d="M7.80014 5.1C8.2972 5.1 8.70014 4.69706 8.70014 4.2V2.40001C8.70014 2.23432 8.56583 2.10001 8.40014 2.10001C8.23446 2.10001 8.10014 2.23432 8.10014 2.40001V4.2C8.10014 4.36569 7.96583 4.5 7.80014 4.5C7.63446 4.5 7.50015 4.36569 7.50015 4.2V2.40001C7.50015 2.23432 7.36583 2.10001 7.20015 2.10001C7.03446 2.10001 6.90015 2.23432 6.90015 2.40001V4.2C6.90015 4.69706 7.30309 5.1 7.80014 5.1Z" fill="#FF0000" />
		<path d="M9.90005 5.1H10.2001C10.3657 5.1 10.5001 4.96569 10.5001 4.8C10.5001 4.63432 10.3657 4.5 10.2001 4.5H9.90005V2.40001C9.90005 2.23432 9.76573 2.10001 9.60005 2.10001C9.43436 2.10001 9.30005 2.23432 9.30005 2.40001V4.5C9.30005 4.83137 9.56868 5.1 9.90005 5.1Z" fill="#FF0000" />
		<path d="M11.7001 5.1H12.3001C12.4658 5.1 12.6001 4.96569 12.6001 4.8C12.6001 4.63432 12.4658 4.5 12.3001 4.5H11.7001V3.9H12.0001C12.1658 3.9 12.3001 3.76569 12.3001 3.6C12.3001 3.43432 12.1658 3.3 12.0001 3.3H11.7001V2.7H12.3001C12.4658 2.7 12.6001 2.56569 12.6001 2.40001C12.6001 2.23432 12.4658 2.10001 12.3001 2.10001H11.7001C11.3687 2.10001 11.1001 2.36863 11.1001 2.7V4.5C11.1001 4.83137 11.3687 5.1 11.7001 5.1Z" fill="#FF0000" />
		<path d="M5.1 4.79998V3.89998C5.43137 3.89998 5.7 4.16861 5.7 4.49998V4.79998C5.7 4.96566 5.83431 5.09998 6 5.09998C6.16569 5.09998 6.3 4.96566 6.3 4.79998V4.49998C6.29937 4.19727 6.18352 3.90616 5.976 3.68578C6.26722 3.44422 6.37534 3.04578 6.24616 2.69015C6.11699 2.33451 5.77836 2.09834 5.4 2.09998H5.1C4.76863 2.09998 4.5 2.36861 4.5 2.69998V4.79998C4.5 4.96566 4.63431 5.09998 4.8 5.09998C4.96569 5.09998 5.1 4.96566 5.1 4.79998ZM5.1 2.69998H5.4C5.56569 2.69998 5.7 2.8343 5.7 2.99998C5.7 3.16567 5.56569 3.29998 5.4 3.29998H5.1V2.69998Z" fill="#FF0000" />
		<path d="M13.8 6.60001H5.40005C5.06868 6.60001 4.80005 6.86863 4.80005 7.20001V9.9C4.80005 10.2314 5.06868 10.5 5.40005 10.5H13.8C14.1314 10.5 14.4 10.2314 14.4 9.9V7.20001C14.4 6.86863 14.1314 6.60001 13.8 6.60001ZM5.40005 9.9V7.20001H13.8V9.9H5.40005Z" fill="#FF0000" />
		<path d="M12.6 12H6.60005C6.43436 12 6.30005 12.1343 6.30005 12.3C6.30005 12.4657 6.43436 12.6 6.60005 12.6H12.6C12.7657 12.6 12.9 12.4657 12.9 12.3C12.9 12.1343 12.7657 12 12.6 12Z" fill="#FF0000" />
		<path d="M11.7 13.5H7.49995C7.33427 13.5 7.19995 13.6343 7.19995 13.8C7.19995 13.9657 7.33427 14.1 7.49995 14.1H11.7C11.8656 14.1 12 13.9657 12 13.8C12 13.6343 11.8656 13.5 11.7 13.5Z" fill="#FF0000" />
		<path d="M14.0999 2.7H14.6999C14.8656 2.7 14.9999 2.56569 14.9999 2.40001C14.9999 2.23432 14.8656 2.10001 14.6999 2.10001H14.0999C13.6029 2.10001 13.2 2.50295 13.2 3C13.2 3.49706 13.6029 3.9 14.0999 3.9C14.2656 3.9 14.3999 4.03432 14.3999 4.2C14.3999 4.36569 14.2656 4.5 14.0999 4.5H13.4999C13.3343 4.5 13.2 4.63432 13.2 4.8C13.2 4.96569 13.3343 5.1 13.4999 5.1H14.0999C14.597 5.1 14.9999 4.69706 14.9999 4.2C14.9999 3.70295 14.597 3.3 14.0999 3.3C13.9343 3.3 13.7999 3.16569 13.7999 3C13.7999 2.83432 13.9343 2.7 14.0999 2.7Z" fill="#FF0000" />
	</g>
	<defs>
		<clipPath id="clip0_622_2646">
			<rect width="18" height="18" fill="white" />
		</clipPath>
	</defs>
</svg>
