<svg width="22" height="20" viewBox="0 0 22 20" fill="none" xmlns="http://www.w3.org/2000/svg">
<path d="M5.43827 0H0.906388C0.477662 0 0.128906 0.342542 0.128906 0.763629V3.35445C0.128906 3.77549 0.477662 4.11804 0.906388 4.11804H0.971979V4.6453C0.971979 4.81386 1.11108 4.95052 1.28274 4.95052C1.4544 4.95052 1.5935 4.81386 1.5935 4.6453V4.11804H4.75112V7.90932H1.5935V5.86615C1.5935 5.69759 1.4544 5.56093 1.28274 5.56093C1.11108 5.56093 0.971979 5.69759 0.971979 5.86615V17.8389C0.971979 19.0305 1.95904 20 3.17233 20C4.38558 20 5.37268 19.0305 5.37268 17.8389V4.11804H5.43831C5.867 4.11804 6.21575 3.77549 6.21575 3.35445V0.763629C6.21567 0.342542 5.86691 0 5.43827 0ZM4.75112 8.51977V15.6416H1.5935V8.51977H4.75112ZM3.17229 19.3896C2.3017 19.3896 1.59346 18.694 1.59346 17.8389V16.2521H4.75108V17.8389C4.75112 18.694 4.04287 19.3896 3.17229 19.3896ZM3.56584 0.610447H4.28427V3.50759H3.56584V0.610447ZM2.94431 3.50759H2.22836V0.610447H2.94431V3.50759ZM0.750427 3.35445V0.763629C0.750427 0.679184 0.820369 0.610447 0.906388 0.610447H1.60684V3.50759H0.906388C0.820369 3.50759 0.750427 3.43889 0.750427 3.35445ZM5.59415 3.35445C5.59415 3.43889 5.52421 3.50759 5.43823 3.50759H4.90575V0.610447H5.43823C5.52421 0.610447 5.59415 0.679143 5.59415 0.763629V3.35445Z" fill="black"/>
<path d="M2.87814 10.3419H3.76543C3.93709 10.3419 4.07619 10.2052 4.07619 10.0367C4.07619 9.8681 3.93709 9.73145 3.76543 9.73145H2.87814C2.70648 9.73145 2.56738 9.8681 2.56738 10.0367C2.56738 10.2052 2.70648 10.3419 2.87814 10.3419Z" fill="black"/>
<path d="M2.87814 12.1915H3.76543C3.93709 12.1915 4.07619 12.0548 4.07619 11.8863C4.07619 11.7177 3.93709 11.5811 3.76543 11.5811H2.87814C2.70648 11.5811 2.56738 11.7177 2.56738 11.8863C2.56738 12.0548 2.70648 12.1915 2.87814 12.1915Z" fill="black"/>
<path d="M3.76543 13.4307H2.87814C2.70648 13.4307 2.56738 13.5673 2.56738 13.7359C2.56738 13.9045 2.70648 14.0411 2.87814 14.0411H3.76543C3.93709 14.0411 4.07619 13.9045 4.07619 13.7359C4.07619 13.5673 3.93709 13.4307 3.76543 13.4307Z" fill="black"/>
<path d="M13.0017 0H8.46986C8.04114 0 7.69238 0.342542 7.69238 0.763629V3.35445C7.69238 3.77549 8.04114 4.11804 8.46986 4.11804H8.53545V17.8389C8.53545 19.0305 9.52251 20 10.7358 20C11.9491 20 12.9361 19.0305 12.9361 17.8389V12.0535C12.9361 11.8849 12.797 11.7483 12.6253 11.7483C12.4537 11.7483 12.3146 11.8849 12.3146 12.0535V15.6416H9.15697V8.51977H12.3146V10.8326C12.3146 11.0012 12.4537 11.1378 12.6253 11.1378C12.797 11.1378 12.9361 11.0012 12.9361 10.8326V4.11804H13.0017C13.4304 4.11804 13.7792 3.77549 13.7792 3.35445V0.763629C13.7791 0.342542 13.4304 0 13.0017 0ZM11.0714 3.50759V0.610447H11.7898V3.50759H11.0714ZM9.73387 3.50759V0.610447H10.4499V3.50759H9.73387ZM8.3139 3.35445V0.763629C8.3139 0.679184 8.38384 0.610447 8.46986 0.610447H9.11239V3.50759H8.46986C8.38384 3.50759 8.3139 3.43889 8.3139 3.35445ZM12.3145 16.2521V17.8389C12.3145 18.694 11.6063 19.3896 10.7358 19.3896C9.86518 19.3896 9.15693 18.694 9.15693 17.8389V16.2521H12.3145ZM12.3145 7.90932H9.15693V4.11804H12.3145V7.90932ZM13.1576 3.35445C13.1576 3.43889 13.0876 3.50759 13.0017 3.50759H12.4113V0.610447H13.0017C13.0876 0.610447 13.1576 0.679143 13.1576 0.763629V3.35445Z" fill="black"/>
<path d="M11.3299 9.73145H10.4426C10.2709 9.73145 10.1318 9.8681 10.1318 10.0367C10.1318 10.2052 10.2709 10.3419 10.4426 10.3419H11.3299C11.5015 10.3419 11.6406 10.2052 11.6406 10.0367C11.6406 9.8681 11.5015 9.73145 11.3299 9.73145Z" fill="black"/>
<path d="M11.3299 11.5811H10.4426C10.2709 11.5811 10.1318 11.7177 10.1318 11.8863C10.1318 12.0548 10.2709 12.1915 10.4426 12.1915H11.3299C11.5015 12.1915 11.6406 12.0548 11.6406 11.8863C11.6406 11.7177 11.5015 11.5811 11.3299 11.5811Z" fill="black"/>
<path d="M11.3299 13.4307H10.4426C10.2709 13.4307 10.1318 13.5673 10.1318 13.7359C10.1318 13.9045 10.2709 14.0411 10.4426 14.0411H11.3299C11.5015 14.0411 11.6406 13.9045 11.6406 13.7359C11.6406 13.5673 11.5015 13.4307 11.3299 13.4307Z" fill="black"/>
<path d="M20.5662 0H16.0343C15.6056 0 15.2568 0.342542 15.2568 0.763629V3.35445C15.2568 3.77549 15.6056 4.11804 16.0343 4.11804H16.0999V17.8389C16.0999 19.0305 17.087 20 18.3003 20C19.5135 20 20.5006 19.0305 20.5006 17.8389V4.11804H20.5662C20.9949 4.11804 21.3436 3.77549 21.3436 3.35445V0.763629C21.3436 0.342542 20.9949 0 20.5662 0ZM18.6513 3.50759V0.610447H19.3697V3.50759H18.6513ZM17.3137 3.50759V0.610447H18.0297V3.50759H17.3137ZM15.8784 3.35445V0.763629C15.8784 0.679184 15.9483 0.610447 16.0344 0.610447H16.6923V3.50759H16.0344C15.9483 3.50759 15.8784 3.43889 15.8784 3.35445ZM19.879 15.6416H16.7214V8.51977H19.879V15.6416ZM18.3003 19.3896C17.4297 19.3896 16.7214 18.694 16.7214 17.8389V16.2521H19.879V17.8389C19.879 18.694 19.1708 19.3896 18.3003 19.3896ZM19.879 7.90932H16.7214V4.11804H19.879V7.90932ZM20.7221 3.35445C20.7221 3.43889 20.6521 3.50759 20.5662 3.50759H19.9912V0.610447H20.5662C20.6521 0.610447 20.7221 0.679143 20.7221 0.763629V3.35445Z" fill="black"/>
<path d="M18.0061 10.3419H18.8934C19.065 10.3419 19.2041 10.2052 19.2041 10.0367C19.2041 9.8681 19.065 9.73145 18.8934 9.73145H18.0061C17.8344 9.73145 17.6953 9.8681 17.6953 10.0367C17.6953 10.2052 17.8344 10.3419 18.0061 10.3419Z" fill="black"/>
<path d="M18.0061 12.1915H18.8934C19.065 12.1915 19.2041 12.0548 19.2041 11.8863C19.2041 11.7177 19.065 11.5811 18.8934 11.5811H18.0061C17.8344 11.5811 17.6953 11.7177 17.6953 11.8863C17.6953 12.0548 17.8344 12.1915 18.0061 12.1915Z" fill="black"/>
<path d="M18.8934 13.4307H18.0061C17.8344 13.4307 17.6953 13.5673 17.6953 13.7359C17.6953 13.9045 17.8344 14.0411 18.0061 14.0411H18.8934C19.065 14.0411 19.2041 13.9045 19.2041 13.7359C19.2041 13.5673 19.065 13.4307 18.8934 13.4307Z" fill="black"/>
</svg>
