<svg width="16" height="16" viewBox="0 0 16 16" fill="none" xmlns="http://www.w3.org/2000/svg">
<path d="M15.9975 3.95413C15.9888 3.86576 15.9544 3.77707 15.8939 3.70329C15.8706 3.67476 16.1093 3.91535 12.3313 0.137311C12.2412 0.0472494 12.119 -3.12341e-05 11.9997 1.54805e-08C11.7154 1.54805e-08 1.68941 1.54805e-08 1.40623 1.54805e-08C0.630835 1.54805e-08 0 0.630835 0 1.40623V14.5935C0 15.3689 0.630835 15.9998 1.40623 15.9998H14.5935C15.3689 15.9998 15.9998 15.3689 15.9998 14.5935C15.9998 3.21289 16.0011 3.99007 15.9975 3.95413ZM10.7811 0.937487V3.99995C10.7811 4.25841 10.5709 4.46869 10.3124 4.46869H9.71865V0.937487H10.7811ZM8.78116 0.937487V4.46869H4.43747C4.17901 4.46869 3.96873 4.25841 3.96873 3.99995V0.937487H8.78116ZM10.7811 10.0311H3.96873V9.43737C3.96873 9.17891 4.17901 8.96863 4.43747 8.96863H10.3124C10.5709 8.96863 10.7811 9.17891 10.7811 9.43737V10.0311ZM3.96873 15.0623V10.9686H10.7811V15.0623H3.96873ZM15.0623 14.5935C15.0623 14.852 14.852 15.0623 14.5936 15.0623H11.7186C11.7186 14.4512 11.7186 10.134 11.7186 9.43737C11.7186 8.66197 11.0878 8.03114 10.3124 8.03114H4.43747C3.66208 8.03114 3.03124 8.66197 3.03124 9.43737V15.0623H1.40626C1.1478 15.0623 0.937518 14.852 0.937518 14.5935V1.40623C0.937518 1.14777 1.1478 0.937487 1.40626 0.937487H3.03124V3.99995C3.03124 4.77534 3.66208 5.40618 4.43747 5.40618H10.3124C11.0878 5.40618 11.7186 4.77534 11.7186 3.99995V0.937487H11.8057L15.0623 4.19413V14.5935Z" fill="#0C8FF3"/>
</svg>
