<svg width="16" height="16" viewBox="0 0 16 16" fill="none" xmlns="http://www.w3.org/2000/svg">
<path d="M12.3184 11.8032C13.4282 10.5641 14.0418 8.95904 14.0414 7.29569C14.0414 3.5613 11.0032 0.522953 7.26865 0.522953C3.53042 0.519227 0.492188 3.55746 0.492188 7.29185C0.492188 11.0262 3.53042 14.0646 7.26493 14.0646C8.92875 14.0674 10.5345 13.4535 11.7723 12.3415L14.8336 15.4029C14.9058 15.4755 15.0044 15.5158 15.1067 15.5145C15.2087 15.514 15.3067 15.474 15.3799 15.4029C15.4517 15.3309 15.4922 15.2335 15.4922 15.1318C15.4922 15.0301 15.4517 14.9324 15.3799 14.8606L12.3184 11.8032ZM1.26142 7.29185C1.26142 3.98054 3.9535 1.28846 7.26493 1.28846C10.5761 1.28846 13.2683 3.98054 13.2683 7.29185C13.2683 10.6032 10.5761 13.2954 7.26493 13.2954C3.9535 13.2991 1.26142 10.6032 1.26142 7.29185Z" fill="#063D6D"/>
</svg>
