<svg width="12" height="12" viewBox="0 0 12 12" fill="none" xmlns="http://www.w3.org/2000/svg">
<path d="M9.46096 9.02925C10.3488 8.03744 10.8396 6.75268 10.8393 5.42125C10.8393 2.43205 8.40875 2.74027e-06 5.42115 2.74027e-06C2.43058 -0.00297973 0 2.42897 0 5.41817C0 8.40736 2.43058 10.8394 5.41817 10.8394C6.74923 10.8416 8.03384 10.3503 9.02404 9.46017L11.4731 11.9107C11.5309 11.9688 11.6097 12.001 11.6915 12C11.7732 11.9996 11.8515 11.9676 11.9101 11.9107C11.9676 11.8531 12 11.775 12 11.6936C12 11.6123 11.9676 11.534 11.9101 11.4766L9.46096 9.02925ZM0.615385 5.41817C0.615385 2.76763 2.76904 0.612754 5.41817 0.612754C8.06711 0.612754 10.2209 2.76763 10.2209 5.41817C10.2209 8.06871 8.06711 10.2237 5.41817 10.2237C2.76904 10.2267 0.615385 8.06871 0.615385 5.41817Z" fill="#063D6D"/>
</svg>
