<svg width="18" height="18" viewBox="0 0 18 18" fill="none" xmlns="http://www.w3.org/2000/svg">
<g clip-path="url(#clip0_6449_2375)">
<path d="M3.82941 14.3834C3.90686 14.474 4.04249 14.4863 4.13495 14.4111L6.32264 12.631C6.41482 12.5541 6.42797 12.4174 6.35223 12.3242C6.27634 12.231 6.13986 12.216 6.04568 12.2906L4.02391 13.9352L3.2236 12.9982C3.17287 12.9381 3.09384 12.9097 3.01638 12.924C2.93907 12.9381 2.87518 12.9927 2.84903 13.0669C2.82288 13.1412 2.83846 13.2237 2.88976 13.2833L3.82941 14.3834Z" fill="#003761"/>
<path d="M3.98896 17.7717L4.471 17.9817C4.52674 18.006 4.5899 18.0062 4.64578 17.982L5.18899 17.7475C5.40293 17.6568 5.61072 17.5519 5.81094 17.4335H16.2509C16.7631 17.433 17.178 17.0179 17.1786 16.5059V1.7774C17.178 1.26534 16.7631 0.850326 16.2509 0.849754H11.5091C11.261 0.330555 10.7367 0 10.1613 0C9.58582 0 9.06162 0.330555 8.81352 0.849754H4.07156C3.55951 0.850326 3.14449 1.2652 3.14392 1.7774V9.45305L0.992096 10.6325C0.921783 10.6711 0.878052 10.7448 0.878052 10.825V13.0214C0.880195 15.0819 2.10095 16.9461 3.98896 17.7717ZM16.2509 1.28878C16.5208 1.28907 16.7393 1.50758 16.7396 1.7774V16.5059C16.7393 16.7757 16.5208 16.9942 16.2509 16.9945H6.44347C6.95953 16.5768 7.39055 16.0639 7.71296 15.4835H13.1152C13.1438 15.4834 13.1723 15.4812 13.2008 15.4772C13.28 15.4968 13.3634 15.4704 13.417 15.4088C13.4736 15.3786 13.5253 15.3402 13.5706 15.2949L15.3475 13.5179C15.4688 13.3973 15.5367 13.2332 15.5362 13.0623V3.37344C15.5358 3.05689 15.2794 2.80036 14.9629 2.79993H13.9922V2.13139C13.9922 2.0102 13.8939 1.91188 13.7727 1.91188H11.6555V1.49414C11.6553 1.4254 11.6503 1.35681 11.6407 1.28878H16.2509ZM8.24659 10.6314L5.22529 9.02117V3.37344C5.22529 3.29912 5.28546 3.23896 5.35977 3.23896H6.33043V3.83075C6.33043 3.95209 6.42875 4.05027 6.54994 4.05027H13.7727C13.8939 4.05027 13.9922 3.95209 13.9922 3.83075V3.23896H14.9629C15.0371 3.23896 15.0974 3.29912 15.0974 3.37344V13.0098H13.9604C13.4483 13.0103 13.0333 13.4253 13.0327 13.9373V15.0443H7.93018C8.21587 14.3908 8.36321 13.6852 8.36292 12.972V10.825C8.36292 10.744 8.31819 10.6694 8.24659 10.6314ZM14.7957 13.4489L13.4717 14.7728V13.9373C13.472 13.6677 13.6905 13.449 13.9604 13.4489H14.7957ZM10.1613 0.439025C10.7437 0.43974 11.2157 0.911635 11.2164 1.49414V2.13139C11.2164 2.25258 11.3146 2.3509 11.436 2.3509H13.5532V3.61124H6.76945V2.3509H8.88669C9.00788 2.3509 9.10621 2.25258 9.10621 2.13139V1.49414C9.10692 0.911635 9.57882 0.43974 10.1613 0.439025ZM3.58295 1.7774C3.58323 1.50758 3.80189 1.28907 4.07156 1.28878H8.68162C8.67204 1.35681 8.66718 1.4254 8.66704 1.49414V1.91188H6.54994C6.42875 1.91188 6.33043 2.0102 6.33043 2.13139V2.79993H5.35977C5.04322 2.80036 4.78669 3.05689 4.78626 3.37344V8.78737L4.67422 8.72763C4.60891 8.69276 4.53045 8.69333 4.46557 8.72892L3.58295 9.21253V1.7774ZM1.31708 10.9551L3.46733 9.7766L3.4689 9.7756L4.57247 9.17094L4.90017 9.34544L4.90245 9.34658L7.9239 10.9568V12.972C7.92347 14.8816 6.77774 16.6045 5.01707 17.3435L5.0155 17.3441L4.55918 17.5411L4.16474 17.3692C2.43665 16.6136 1.31908 14.9074 1.31708 13.0214V10.9551Z" fill="#003761"/>
<path d="M13.5063 6.28717H13.7725C13.8937 6.28717 13.992 6.18885 13.992 6.06766C13.992 5.94647 13.8937 5.84814 13.7725 5.84814H13.5063C13.3851 5.84814 13.2867 5.94647 13.2867 6.06766C13.2867 6.18885 13.3851 6.28717 13.5063 6.28717Z" fill="#003761"/>
<path d="M8.77518 6.28717H12.6774C12.7986 6.28717 12.8969 6.18885 12.8969 6.06766C12.8969 5.94647 12.7986 5.84814 12.6774 5.84814H8.77518C8.65399 5.84814 8.55566 5.94647 8.55566 6.06766C8.55566 6.18885 8.65399 6.28717 8.77518 6.28717Z" fill="#003761"/>
<path d="M6.54996 6.28717H7.92949C8.05082 6.28717 8.149 6.18885 8.149 6.06766C8.149 5.94647 8.05082 5.84814 7.92949 5.84814H6.54996C6.42877 5.84814 6.33044 5.94647 6.33044 6.06766C6.33044 6.18885 6.42877 6.28717 6.54996 6.28717Z" fill="#003761"/>
<path d="M12.8071 7.97684C12.8071 8.09803 12.9055 8.19635 13.0266 8.19635H13.7726C13.8938 8.19635 13.9921 8.09803 13.9921 7.97684C13.9921 7.85565 13.8938 7.75732 13.7726 7.75732H13.0266C12.9055 7.75732 12.8071 7.85565 12.8071 7.97684Z" fill="#003761"/>
<path d="M12.2191 8.19635C12.3403 8.19635 12.4386 8.09803 12.4386 7.97684C12.4386 7.85565 12.3403 7.75732 12.2191 7.75732H11.2024C11.0812 7.75732 10.9829 7.85565 10.9829 7.97684C10.9829 8.09803 11.0812 8.19635 11.2024 8.19635H12.2191Z" fill="#003761"/>
<path d="M10.7123 7.97684C10.7123 7.85565 10.6139 7.75732 10.4928 7.75732H6.54996C6.42877 7.75732 6.33044 7.85565 6.33044 7.97684C6.33044 8.09803 6.42877 8.19635 6.54996 8.19635H10.4928C10.6139 8.19635 10.7123 8.09803 10.7123 7.97684Z" fill="#003761"/>
<path d="M13.7727 9.78516H9.64786C9.52653 9.78516 9.42834 9.88334 9.42834 10.0047C9.42834 10.1259 9.52653 10.2242 9.64786 10.2242H13.7727C13.8939 10.2242 13.9922 10.1259 13.9922 10.0047C13.9922 9.88334 13.8939 9.78516 13.7727 9.78516Z" fill="#003761"/>
<path d="M9.05963 10.0047C9.05963 9.88334 8.96131 9.78516 8.84012 9.78516H7.85989C7.7387 9.78516 7.64038 9.88334 7.64038 10.0047C7.64038 10.1259 7.7387 10.2242 7.85989 10.2242H8.84012C8.96131 10.2242 9.05963 10.1259 9.05963 10.0047Z" fill="#003761"/>
<path d="M13.7727 11.6597H11.1145C10.9933 11.6597 10.895 11.758 10.895 11.8792C10.895 12.0004 10.9933 12.0987 11.1145 12.0987H13.7727C13.8939 12.0987 13.9922 12.0004 13.9922 11.8792C13.9922 11.758 13.8939 11.6597 13.7727 11.6597Z" fill="#003761"/>
<path d="M10.307 11.6597H8.913C8.79181 11.6597 8.69348 11.758 8.69348 11.8792C8.69348 12.0004 8.79181 12.0987 8.913 12.0987H10.307C10.4282 12.0987 10.5265 12.0004 10.5265 11.8792C10.5265 11.758 10.4282 11.6597 10.307 11.6597Z" fill="#003761"/>
</g>
<defs>
<clipPath id="clip0_6449_2375">
<rect width="18" height="18" fill="white"/>
</clipPath>
</defs>
</svg>
