<svg width="44" height="19" viewBox="0 0 44 19" fill="none" xmlns="http://www.w3.org/2000/svg">
<path d="M12.8784 11.9858C12.8784 11.6421 12.7567 11.3771 12.5132 11.1909C12.2733 11.0047 11.8382 10.8167 11.208 10.627C10.5778 10.4372 10.0765 10.2259 9.7041 9.99316C8.99154 9.54557 8.63525 8.96191 8.63525 8.24219C8.63525 7.61198 8.89128 7.09277 9.40332 6.68457C9.91895 6.27637 10.5868 6.07227 11.4067 6.07227C11.951 6.07227 12.4362 6.17253 12.8623 6.37305C13.2884 6.57357 13.6232 6.86003 13.8667 7.23242C14.1102 7.60124 14.2319 8.01123 14.2319 8.4624H12.8784C12.8784 8.0542 12.7495 7.73551 12.4917 7.50635C12.2375 7.2736 11.8722 7.15723 11.396 7.15723C10.952 7.15723 10.6064 7.25212 10.3594 7.44189C10.1159 7.63167 9.99414 7.89665 9.99414 8.23682C9.99414 8.52327 10.1266 8.76318 10.3916 8.95654C10.6566 9.14632 11.0934 9.33252 11.7021 9.51514C12.3109 9.69417 12.7996 9.90007 13.1685 10.1328C13.5373 10.362 13.8076 10.627 13.9795 10.9277C14.1514 11.2249 14.2373 11.5741 14.2373 11.9751C14.2373 12.6268 13.9867 13.146 13.4854 13.5327C12.9876 13.9159 12.3109 14.1074 11.4551 14.1074C10.8893 14.1074 10.3683 14.0036 9.89209 13.7959C9.41943 13.5846 9.05062 13.2946 8.78564 12.9258C8.52425 12.557 8.39355 12.1273 8.39355 11.6367H9.75244C9.75244 12.0807 9.89925 12.4245 10.1929 12.668C10.4865 12.9115 10.9072 13.0332 11.4551 13.0332C11.9277 13.0332 12.2822 12.9383 12.5186 12.7485C12.7585 12.5552 12.8784 12.3009 12.8784 11.9858ZM20.2205 10.5088H17.0086V12.915H20.763V14H15.6497V6.17969H20.7254V7.27539H17.0086V9.43457H20.2205V10.5088ZM26.6602 10.5088H23.4483V12.915H27.2027V14H22.0894V6.17969H27.1651V7.27539H23.4483V9.43457H26.6602V10.5088ZM34.7328 14H33.3739L29.888 8.45166V14H28.5291V6.17969H29.888L33.3846 11.7495V6.17969H34.7328V14Z" fill="#003761"/>
<rect x="0.996094" width="43" height="19" rx="5" fill="#003761" fill-opacity="0.15"/>
</svg>
