<svg width="40" height="50" viewBox="0 0 40 50" fill="none" xmlns="http://www.w3.org/2000/svg">
<path d="M2.08008 50H28.8184C29.1016 50 29.3359 49.7656 29.3359 49.4824C29.3359 49.1992 29.1016 48.9648 28.8184 48.9648H2.08008C1.50391 48.9648 1.04492 48.4961 1.04492 47.9199V7.63672C1.04492 7.06055 1.51367 6.60156 2.08008 6.60156H5.85938C6.14258 6.60156 6.37695 6.36719 6.37695 6.08398C6.37695 5.80078 6.14258 5.56641 5.85938 5.56641H2.08008C0.9375 5.56641 0 6.49414 0 7.64648V47.9297C0 49.0625 0.927734 50 2.08008 50ZM35.3027 26.4941C35.5859 26.4941 35.8203 26.2598 35.8203 25.9766V7.63672C35.8203 6.49414 34.8926 5.55664 33.7402 5.55664H29.9609C29.6777 5.55664 29.4434 5.79102 29.4434 6.07422C29.4434 6.35742 29.6777 6.5918 29.9609 6.5918H33.7402C34.3164 6.5918 34.7754 7.06055 34.7754 7.62695V25.9766C34.7852 26.2598 35.0195 26.4941 35.3027 26.4941ZM5.84961 8.68164H4.67773C3.81836 8.68164 3.11523 9.38477 3.11523 10.2441V45.3223C3.11523 46.1816 3.81836 46.8848 4.67773 46.8848H27.3535C27.6367 46.8848 27.8711 46.6504 27.8711 46.3672C27.8711 46.084 27.6367 45.8496 27.3535 45.8496H4.67773C4.39453 45.8496 4.16016 45.6152 4.16016 45.332V10.2441C4.16016 9.96094 4.39453 9.72656 4.67773 9.72656H5.84961C6.13281 9.72656 6.36719 9.49219 6.36719 9.20898C6.37695 8.90625 6.14258 8.68164 5.84961 8.68164ZM32.1875 26.4941C32.4707 26.4941 32.7051 26.2598 32.7051 25.9766V10.2441C32.7051 9.38477 32.002 8.68164 31.1426 8.68164H29.9609C29.6777 8.68164 29.4434 8.91602 29.4434 9.19922C29.4434 9.48242 29.6777 9.7168 29.9609 9.7168H31.1426C31.4258 9.7168 31.6602 9.95117 31.6602 10.2344V25.9766C31.6602 26.2598 31.8945 26.4941 32.1875 26.4941ZM28.4082 9.36523V5.9082C28.4082 4.82422 27.5293 3.94531 26.4453 3.94531H23.5938C22.9297 3.94531 22.334 3.52539 22.0996 2.91016C21.4551 1.17188 19.7754 0 17.9102 0C16.0449 0 14.3652 1.17188 13.7207 2.91992C13.4961 3.53516 12.8906 3.95508 12.2266 3.95508H9.375C8.29102 3.95508 7.41211 4.83398 7.41211 5.91797V9.36523C7.41211 10.4492 8.29102 11.3281 9.375 11.3281H26.4453C27.5293 11.3184 28.4082 10.4395 28.4082 9.36523ZM8.45703 9.36523V5.9082C8.45703 5.40039 8.86719 4.99023 9.375 4.99023H12.2266C13.3203 4.99023 14.3164 4.29688 14.6973 3.27148C15.1953 1.93359 16.4844 1.03516 17.9102 1.03516C19.3359 1.03516 20.6348 1.93359 21.1328 3.27148C21.5137 4.29688 22.5098 4.99023 23.6035 4.99023H26.4551C26.9629 4.99023 27.373 5.40039 27.373 5.9082V9.35547C27.373 9.86328 26.9629 10.2734 26.4551 10.2734H9.375C8.86719 10.2832 8.45703 9.87305 8.45703 9.36523ZM17.9102 2.39258C16.9531 2.39258 16.1816 3.17383 16.1816 4.12109C16.1816 5.07812 16.9531 5.84961 17.9102 5.84961C18.8672 5.84961 19.6387 5.06836 19.6387 4.12109C19.6387 3.17383 18.8672 2.39258 17.9102 2.39258ZM17.9102 4.82422C17.5293 4.82422 17.2266 4.51172 17.2266 4.13086C17.2266 3.75 17.5391 3.4375 17.9102 3.4375C18.291 3.4375 18.6035 3.75 18.6035 4.13086C18.6035 4.51172 18.291 4.82422 17.9102 4.82422ZM13.7305 16.084C13.4473 16.084 13.2129 16.3184 13.2129 16.6016V21.4941H8.32031C8.03711 21.4941 7.80273 21.7285 7.80273 22.0117C7.80273 25.2832 10.459 27.9395 13.7305 27.9395C17.002 27.9395 19.6582 25.2832 19.6582 22.0117C19.6582 18.7402 17.002 16.084 13.7305 16.084ZM13.7305 26.9043C11.2109 26.9043 9.13086 24.9902 8.86719 22.5391H13.7305C14.0137 22.5391 14.248 22.3047 14.248 22.0215V17.1582C16.6992 17.4219 18.6133 19.502 18.6133 22.0215C18.623 24.707 16.4258 26.9043 13.7305 26.9043ZM6.24023 20.4492H11.6504C11.9336 20.4492 12.168 20.2148 12.168 19.9316V14.5215C12.168 14.2383 11.9336 14.0039 11.6504 14.0039C8.37891 14.0039 5.72266 16.6602 5.72266 19.9316C5.72266 20.2148 5.95703 20.4492 6.24023 20.4492ZM11.1328 15.0684V19.4043H6.79688C7.03125 17.1289 8.84766 15.3125 11.1328 15.0684ZM29.5801 17.0508H22.8809C22.5977 17.0508 22.3633 17.2852 22.3633 17.5684C22.3633 17.8516 22.5977 18.0859 22.8809 18.0859H29.5801C29.8633 18.0859 30.0977 17.8516 30.0977 17.5684C30.0977 17.2852 29.873 17.0508 29.5801 17.0508ZM29.5801 20.4492H22.8809C22.5977 20.4492 22.3633 20.6836 22.3633 20.9668C22.3633 21.25 22.5977 21.4844 22.8809 21.4844H29.5801C29.8633 21.4844 30.0977 21.25 30.0977 20.9668C30.0977 20.6836 29.873 20.4492 29.5801 20.4492ZM30.0977 24.3652C30.0977 24.082 29.8633 23.8477 29.5801 23.8477H22.8809C22.5977 23.8477 22.3633 24.082 22.3633 24.3652C22.3633 24.6484 22.5977 24.8828 22.8809 24.8828H29.5801C29.873 24.8926 30.0977 24.6582 30.0977 24.3652ZM5.72266 31.123C5.72266 31.4063 5.95703 31.6406 6.24023 31.6406H26.5137C26.7969 31.6406 27.0313 31.4063 27.0313 31.123C27.0313 30.8398 26.7969 30.6055 26.5137 30.6055H6.24023C5.95703 30.6055 5.72266 30.8398 5.72266 31.123ZM27.2754 35.3027H6.24023C5.95703 35.3027 5.72266 35.5371 5.72266 35.8203C5.72266 36.1035 5.95703 36.3379 6.24023 36.3379H27.2754C27.5586 36.3379 27.793 36.1035 27.793 35.8203C27.8027 35.5371 27.5684 35.3027 27.2754 35.3027ZM6.24023 41.0449H16.6992C16.9824 41.0449 17.2168 40.8105 17.2168 40.5273C17.2168 40.2441 16.9824 40.0098 16.6992 40.0098H6.24023C5.95703 40.0098 5.72266 40.2441 5.72266 40.5273C5.72266 40.8105 5.95703 41.0449 6.24023 41.0449ZM33.4277 50C35.957 50 38.0176 47.9395 38.0176 45.4102C38.0176 42.0508 38.0176 34.2578 38.0176 30.7324C38.8379 30.6641 39.4922 29.9805 39.4922 29.1406C39.4922 28.252 38.7695 27.5391 37.8906 27.5391H28.9648C28.0762 27.5391 27.3633 28.2617 27.3633 29.1406C27.3633 29.9805 28.0176 30.6641 28.8379 30.7324V45.4102C28.8379 47.959 30.918 50 33.4277 50ZM36.9727 40.791H29.8828V30.7422H36.9727V40.791ZM29.3555 29.6973H28.9648C28.6523 29.6973 28.3984 29.4434 28.3984 29.1309C28.3984 28.8184 28.6523 28.5645 28.9648 28.5645H37.8906C38.2031 28.5645 38.457 28.8184 38.457 29.1309C38.457 29.4434 38.2031 29.6973 37.8906 29.6973H37.5C37.5 29.6973 37.5 29.6973 37.4902 29.6973H29.3555ZM29.8828 41.8262H36.9727V45.4102C36.9727 47.3633 35.3809 48.9551 33.4277 48.9551C31.4648 48.9551 29.8828 47.3633 29.8828 45.4102V41.8262Z" fill="black"/>
</svg>
