<svg width="15" height="15" viewBox="0 0 15 15" fill="none" xmlns="http://www.w3.org/2000/svg">
<g clip-path="url(#clip0_20_3647)">
<path d="M14.961 5.75389C14.8628 5.45015 14.5934 5.23443 14.2746 5.2057L9.94523 4.81259L8.23326 0.805562C8.10703 0.511899 7.81955 0.321808 7.50014 0.321808C7.18072 0.321808 6.89324 0.511899 6.76701 0.806249L5.05504 4.81259L0.724946 5.2057C0.406793 5.23511 0.138078 5.45015 0.0393134 5.75389C-0.0594517 6.05762 0.0317601 6.39077 0.272435 6.60077L3.54496 9.4708L2.57997 13.7216C2.50935 14.0341 2.63067 14.3572 2.89 14.5447C3.02939 14.6454 3.19247 14.6966 3.35693 14.6966C3.49872 14.6966 3.63937 14.6584 3.76561 14.5829L7.50014 12.3509L11.2333 14.5829C11.5065 14.7472 11.8508 14.7322 12.1096 14.5447C12.369 14.3566 12.4902 14.0334 12.4196 13.7216L11.4546 9.4708L14.7272 6.60134C14.9678 6.39077 15.0597 6.05819 14.961 5.75389Z" fill="#FFC107"/>
</g>
<defs>
<clipPath id="clip0_20_3647">
<rect width="15" height="15" fill="white"/>
</clipPath>
</defs>
</svg>
