<svg width="18" height="18" viewBox="0 0 18 18" fill="none" xmlns="http://www.w3.org/2000/svg">
<path d="M14.3192 0.575195C14.0862 0.575195 13.8973 0.76406 13.8973 0.997201V5.57886C13.8973 7.5632 12.2744 9.17747 10.2889 9.17747C8.30458 9.17747 6.68185 7.5632 6.68185 5.57886V0.997201C6.68185 0.76406 6.49272 0.575195 6.25984 0.575195C6.02683 0.575195 5.83784 0.76406 5.83784 0.997201V5.57886C5.83784 7.88608 7.61005 9.78768 9.84642 10.0011V14.2222C9.84642 15.5389 8.77905 16.6063 7.46242 16.6063C6.14565 16.6063 5.07841 15.5389 5.07841 14.2222V13.3605C5.91647 13.1477 6.46509 12.344 6.35778 11.4859C6.25059 10.6279 5.52103 9.98382 4.65641 9.98382C3.79151 9.98382 3.06222 10.6279 2.9549 11.4859C2.84759 12.344 3.39621 13.1477 4.2344 13.3605V14.2222C4.2344 16.0049 5.67963 17.4503 7.46242 17.4503C9.2452 17.4503 10.6904 16.0049 10.6904 14.2222V10.0014C12.969 9.78834 14.7412 7.88648 14.7412 5.57886V0.997201C14.7412 0.76406 14.5522 0.575195 14.3192 0.575195V0.575195ZM3.78795 11.6967C3.78795 11.2151 4.17863 10.8247 4.66024 10.8247C5.14198 10.8247 5.5324 11.2151 5.5324 11.6967C5.5324 12.1786 5.14198 12.569 4.66024 12.569C4.17876 12.5686 3.78861 12.1784 3.78795 11.6967Z" fill="#003761"/>
</svg>
