<svg width="18" height="18" viewBox="0 0 18 18" fill="none" xmlns="http://www.w3.org/2000/svg">
<path d="M15.5123 4.83947L10.7771 0.104203C10.7103 0.0374766 10.6199 0 10.5255 0H3.85308C3.04276 0 2.38354 0.659215 2.38354 1.46953V16.5305C2.38354 17.3408 3.04276 18 3.85308 18H14.147C14.9573 18 15.6165 17.3408 15.6165 16.5305V5.09101C15.6165 4.99669 15.579 4.90616 15.5123 4.83947ZM10.8813 1.21461L14.4019 4.7352H11.6393C11.2213 4.7352 10.8813 4.39516 10.8813 3.97716V1.21461H10.8813ZM14.905 16.5305C14.905 16.9484 14.565 17.2885 14.147 17.2885H3.85308C3.4351 17.2885 3.09504 16.9484 3.09504 16.5305V1.46953C3.09504 1.05156 3.4351 0.711492 3.85308 0.711492H10.1697V3.97723C10.1697 4.78754 10.8289 5.44676 11.6392 5.44676H14.905V16.5305V16.5305Z" fill="#2F89C8"/>
<path d="M11.8461 9.03558H6.15433C5.95788 9.03558 5.79858 9.19488 5.79858 9.39133C5.79858 9.58778 5.95788 9.74708 6.15433 9.74708H11.8461C12.0426 9.74708 12.2018 9.58778 12.2018 9.39133C12.2018 9.19488 12.0426 9.03558 11.8461 9.03558Z" fill="#2F89C8"/>
<path d="M11.8461 10.6245H6.15433C5.95788 10.6245 5.79858 10.7838 5.79858 10.9803C5.79858 11.1767 5.95788 11.336 6.15433 11.336H11.8461C12.0426 11.336 12.2018 11.1767 12.2018 10.9803C12.2018 10.7838 12.0426 10.6245 11.8461 10.6245Z" fill="#2F89C8"/>
<path d="M11.8461 12.2134H6.15433C5.95788 12.2134 5.79858 12.3727 5.79858 12.5691C5.79858 12.7656 5.95788 12.9249 6.15433 12.9249H11.8461C12.0426 12.9249 12.2018 12.7656 12.2018 12.5691C12.2018 12.3727 12.0426 12.2134 11.8461 12.2134Z" fill="#2F89C8"/>
<path d="M9.99624 13.8023H6.15433C5.95788 13.8023 5.79858 13.9616 5.79858 14.1581C5.79858 14.3545 5.95788 14.5138 6.15433 14.5138H9.99624C10.1928 14.5138 10.352 14.3545 10.352 14.1581C10.352 13.9616 10.1928 13.8023 9.99624 13.8023Z" fill="#2F89C8"/>
</svg>
