<svg width="45" height="38" viewBox="0 0 45 38" fill="none" xmlns="http://www.w3.org/2000/svg">
<path d="M45 8.48242V8.44612C45 8.42761 44.9907 8.40946 44.9907 8.39131C44.9907 8.38206 44.9815 8.36391 44.9815 8.35501C44.9815 8.3365 44.9726 8.3276 44.9726 8.30945C44.9726 8.29095 44.9633 8.28205 44.9544 8.2639C44.9519 8.25002 44.9455 8.2372 44.9359 8.22724C44.927 8.20909 44.927 8.19094 44.9178 8.18168C44.9089 8.17279 44.9089 8.16353 44.8996 8.14538C44.8925 8.12901 44.8832 8.11371 44.8722 8.09983C44.8722 8.09057 44.8633 8.09057 44.8633 8.08168L40.18 0.519452C40.0134 0.252169 39.7205 0.0902329 39.4055 0.0909447H6.5055C6.21864 0.0909447 5.94851 0.226188 5.77661 0.455389L0.173274 8.00872C0.173274 8.01761 0.164021 8.01761 0.164021 8.02687C0.154767 8.04502 0.14587 8.05427 0.136616 8.07242C0.125583 8.08132 0.118821 8.09449 0.118465 8.10872C0.109212 8.12723 0.100314 8.13613 0.0910607 8.15428C0.0821632 8.16353 0.0821632 8.18168 0.0729096 8.19094C0.0636562 8.20909 0.0636562 8.21834 0.0547586 8.23649C0.0455051 8.24539 0.0455051 8.2639 0.0366076 8.28205C0.0366076 8.3002 0.0273541 8.30945 0.0273541 8.3276C0.0273541 8.34576 0.0181006 8.35501 0.0181006 8.37316C0.0181006 8.38206 0.00920299 8.40056 0.00920299 8.40946C0.00706762 8.42477 0.00386449 8.44007 -5.04429e-05 8.45502V11.3887C-0.0068126 12.5874 0.465471 13.7388 1.31216 14.5869C1.95635 15.2375 2.78774 15.6706 3.68995 15.8261V36.1621C3.69138 36.6646 4.09853 37.0717 4.60106 37.0732H40.3989C40.9014 37.0717 41.3085 36.6646 41.31 36.1621V15.8169C43.4568 15.435 45.0156 13.5604 45 11.3798V8.48242ZM42.4578 7.64427H37.4466L34.4037 1.90427H38.9137L42.4578 7.64427ZM18.8418 1.90427L17.047 7.64427H9.767L13.4388 1.90427H18.8418ZM24.2448 1.90427L26.0396 7.64427H18.9603L20.7551 1.90427H24.2448ZM32.3355 1.90427L35.3785 7.64427H27.9529L26.1581 1.90427H32.3355ZM18.6233 9.46649H26.3677V12.1998C26.3677 14.3384 24.6338 16.0721 22.4955 16.0721C20.3569 16.0721 18.6233 14.3384 18.6233 12.1998V9.46649ZM9.06551 9.46649H16.81V12.1998C16.81 14.3384 15.0764 16.0721 12.9377 16.0721C10.7991 16.0721 9.06551 14.3384 9.06551 12.1998V9.46649ZM12.0722 17.8306C12.3555 17.8747 12.642 17.8961 12.9288 17.8943C14.8617 17.8929 16.6626 16.912 17.7122 15.2884C18.7653 16.9209 20.5786 17.9035 22.5215 17.8943C24.4644 17.885 26.2681 16.8853 27.3059 15.2428C28.3483 16.8935 30.1645 17.8943 32.1166 17.8943C32.3878 17.8946 32.659 17.8761 32.9277 17.8395V27.6976H12.0722V17.8306ZM32.1077 16.0721C29.9709 16.0674 28.2401 14.3363 28.2355 12.1998V9.46649H35.98V12.1998C35.9785 14.3377 34.2456 16.0706 32.1077 16.0721ZM6.96106 1.90427H11.2614L7.58958 7.64427H2.71513L6.96106 1.90427ZM1.81328 11.3798V9.46649H7.18883V11.3798C7.20343 12.712 6.22968 13.8494 4.91106 14.0402C4.80856 14.0035 4.70072 13.985 4.59217 13.9854C4.46689 13.9861 4.34303 14.0107 4.22772 14.0584C2.85002 13.9263 1.80224 12.7636 1.81328 11.3798ZM5.51218 35.2509V15.7806C6.3425 15.6005 7.10235 15.1826 7.69884 14.5776L7.7444 14.5321C8.26544 15.682 9.14879 16.629 10.2592 17.2291V28.6087C10.2606 29.1116 10.6678 29.5184 11.1703 29.5198H33.8389C34.3414 29.5184 34.7485 29.1116 34.75 28.6087V17.2472C35.8732 16.6614 36.7704 15.7194 37.3011 14.5687L37.31 14.5776C37.9093 15.1791 38.6681 15.5966 39.4966 15.7806V35.2509H5.51218ZM43.1777 11.3798C43.1877 12.7664 42.1349 13.9302 40.754 14.0584C40.6384 14.0107 40.5145 13.9861 40.3896 13.9854C40.2811 13.985 40.1732 14.0035 40.0707 14.0402C38.7524 13.8491 37.7787 12.712 37.7929 11.3798V9.46649H43.1685V11.3798H43.1777Z" fill="#003761"/>
</svg>
