<svg width="40" height="40" viewBox="0 0 40 40" fill="none" xmlns="http://www.w3.org/2000/svg">
  <g clip-path="url(#clip0_254_2180)">
    <path d="M40.0001 11.0954V11.0632C40.0001 11.0467 39.9919 11.0306 39.9919 11.0145C39.9919 11.0062 39.9836 10.9901 39.9836 10.9822C39.9836 10.9657 39.9757 10.9578 39.9757 10.9417C39.9757 10.9252 39.9675 10.9173 39.9596 10.9012C39.9574 10.8889 39.9517 10.8775 39.9431 10.8686C39.9352 10.8525 39.9352 10.8363 39.927 10.8281C39.9191 10.8202 39.9191 10.812 39.9109 10.7959C39.9045 10.7813 39.8963 10.7677 39.8865 10.7554C39.8865 10.7471 39.8786 10.7471 39.8786 10.7392L35.7156 4.01725C35.5676 3.77966 35.3072 3.63572 35.0273 3.63635H5.78278C5.52779 3.63635 5.28768 3.75657 5.13487 3.96031L0.15413 10.6744C0.15413 10.6823 0.145905 10.6823 0.145905 10.6905C0.13768 10.7066 0.129771 10.7149 0.121545 10.731C0.111738 10.7389 0.105727 10.7506 0.105411 10.7633C0.0971857 10.7797 0.0892767 10.7876 0.0810514 10.8038C0.0731424 10.812 0.0731424 10.8281 0.0649171 10.8363C0.0566918 10.8525 0.0566918 10.8607 0.0487828 10.8768C0.0405575 10.8848 0.0405575 10.9012 0.0326486 10.9173C0.0326486 10.9335 0.0244232 10.9417 0.0244232 10.9578C0.0244232 10.974 0.016198 10.9822 0.016198 10.9983C0.016198 11.0062 0.00828894 11.0227 0.00828894 11.0306C0.00639083 11.0442 0.00354361 11.0578 6.36688e-05 11.0711V13.6788C-0.00594714 14.7443 0.41386 15.7677 1.16648 16.5216C1.73908 17.0999 2.4781 17.4849 3.28007 17.6232V35.6996C3.28133 36.1463 3.64325 36.5082 4.08994 36.5094H35.9102C36.3569 36.5082 36.7188 36.1463 36.7201 35.6996V17.615C38.6284 17.2755 40.014 15.6092 40.0001 13.6709V11.0954ZM37.7403 10.3504H33.286L30.5812 5.2482H34.59L37.7403 10.3504ZM16.7484 5.2482L15.153 10.3504H8.68188L11.9458 5.2482H16.7484ZM21.551 5.2482L23.1464 10.3504H16.8537L18.4491 5.2482H21.551ZM28.7428 5.2482L31.4477 10.3504H24.8472L23.2518 5.2482H28.7428ZM16.5541 11.9702H23.4381V14.3998C23.4381 16.3008 21.8968 17.8418 19.9961 17.8418C18.0951 17.8418 16.5541 16.3008 16.5541 14.3998V11.9702ZM8.05834 11.9702H14.9423V14.3998C14.9423 16.3008 13.4013 17.8418 11.5003 17.8418C9.59932 17.8418 8.05834 16.3008 8.05834 14.3998V11.9702ZM10.7309 19.4049C10.9828 19.4441 11.2374 19.4631 11.4924 19.4615C13.2106 19.4603 14.8113 18.5884 15.7443 17.1452C16.6804 18.5963 18.2922 19.4698 20.0192 19.4615C21.7462 19.4533 23.3495 18.5647 24.272 17.1047C25.1986 18.5719 26.813 19.4615 28.5482 19.4615C28.7893 19.4619 29.0304 19.4454 29.2692 19.4128V28.1756H10.7309V19.4049ZM28.5403 17.8418C26.6409 17.8377 25.1025 16.2989 25.0983 14.3998V11.9702H31.9823V14.3998C31.981 16.3002 30.4407 17.8405 28.5403 17.8418ZM6.18772 5.2482H10.0103L6.7464 10.3504H2.41356L6.18772 5.2482ZM1.61191 13.6709V11.9702H6.39018V13.6709C6.40315 14.855 5.5376 15.8661 4.36549 16.0357C4.27438 16.0031 4.17852 15.9867 4.08203 15.987C3.97068 15.9876 3.86058 16.0094 3.75808 16.0518C2.53346 15.9345 1.6021 14.9009 1.61191 13.6709ZM4.89982 34.8897V17.5827C5.63788 17.4226 6.31331 17.0512 6.84353 16.5134L6.88402 16.4729C7.34717 17.4951 8.13237 18.3369 9.11941 18.8703V28.9855C9.12067 29.4325 9.48259 29.7941 9.92928 29.7954H30.0791C30.5258 29.7941 30.8877 29.4325 30.889 28.9855V18.8864C31.8874 18.3657 32.6849 17.5283 33.1566 16.5055L33.1645 16.5134C33.6973 17.048 34.3718 17.4191 35.1082 17.5827V34.8897H4.89982ZM38.3803 13.6709C38.3892 14.9034 37.4534 15.9379 36.2259 16.0518C36.1231 16.0094 36.013 15.9876 35.902 15.987C35.8055 15.9867 35.7096 16.0031 35.6185 16.0357C34.4467 15.8658 33.5812 14.855 33.5938 13.6709V11.9702H38.3721V13.6709H38.3803Z" fill="#2F89C8" />
  </g>
  <defs>
    <clipPath id="clip0_254_2180">
      <rect width="40" height="40" fill="white" />
    </clipPath>
  </defs>
</svg>