<svg width="18" height="18" viewBox="0 0 18 18" fill="none" xmlns="http://www.w3.org/2000/svg">
<path d="M15.75 3.88406C15.7374 3.81906 15.7023 3.76058 15.6509 3.7189C15.5995 3.67723 15.535 3.65505 15.4688 3.65625H12.9375V1.125C12.9375 1.05041 12.9079 0.978871 12.8551 0.926126C12.8024 0.873382 12.7309 0.84375 12.6563 0.84375H5.34376C5.26917 0.84375 5.19763 0.873382 5.14489 0.926126C5.09214 0.978871 5.06251 1.05041 5.06251 1.125V3.65625H2.53126C2.46507 3.65505 2.40057 3.67723 2.34912 3.7189C2.29768 3.76058 2.26258 3.81906 2.25001 3.88406L1.40626 8.28281C1.40503 8.3006 1.40503 8.31846 1.40626 8.33625C1.40738 8.63849 1.48542 8.93546 1.63303 9.1992C1.78065 9.46294 1.99297 9.68475 2.25001 9.84375V16.875C2.25001 16.9496 2.27964 17.0211 2.33239 17.0739C2.38513 17.1266 2.45667 17.1562 2.53126 17.1562H15.4688C15.5434 17.1562 15.6149 17.1266 15.6676 17.0739C15.7204 17.0211 15.75 16.9496 15.75 16.875V9.84375C16.0083 9.684 16.2214 9.46085 16.369 9.19551C16.5167 8.93018 16.5941 8.63148 16.5938 8.32781C16.595 8.31002 16.595 8.29217 16.5938 8.27437L15.75 3.88406ZM12.375 8.33625C12.375 8.66147 12.2458 8.97337 12.0159 9.20334C11.7859 9.43331 11.474 9.5625 11.1488 9.5625H10.5075C10.1823 9.5625 9.87039 9.43331 9.64042 9.20334C9.41046 8.97337 9.28126 8.66147 9.28126 8.33625V7.03125H12.375V8.33625ZM8.71876 8.33625C8.71876 8.66147 8.58957 8.97337 8.3596 9.20334C8.12964 9.43331 7.81773 9.5625 7.49251 9.5625H6.85126C6.52604 9.5625 6.21414 9.43331 5.98417 9.20334C5.75421 8.97337 5.62501 8.66147 5.62501 8.33625V7.03125H8.71876V8.33625ZM5.62501 1.40625H12.375V6.46875H5.62501V1.40625ZM2.7647 4.21875H5.06251V8.33625C5.06251 8.66147 4.93332 8.97337 4.70335 9.20334C4.47339 9.43331 4.16148 9.5625 3.83626 9.5625H3.19501C2.87435 9.56185 2.56663 9.4359 2.33753 9.21153C2.10844 8.98717 1.9761 8.68214 1.96876 8.36156L2.7647 4.21875ZM4.50001 16.5938V11.5312H7.59376V16.5938H4.50001ZM15.1875 16.5938H8.15626V11.25C8.15626 11.1754 8.12663 11.1039 8.07389 11.0511C8.02114 10.9984 7.9496 10.9688 7.87501 10.9688H4.21876C4.14417 10.9688 4.07263 10.9984 4.01989 11.0511C3.96714 11.1039 3.93751 11.1754 3.93751 11.25V16.5938H2.81251V10.0828C3.15136 10.1325 3.49447 10.1466 3.83626 10.125C4.13834 10.1231 4.43502 10.0447 4.69862 9.89718C4.96223 9.74964 5.18418 9.53774 5.34376 9.28125C5.50335 9.53774 5.72529 9.74964 5.9889 9.89718C6.2525 10.0447 6.54918 10.1231 6.85126 10.125H7.49251C7.79459 10.1231 8.09127 10.0447 8.35487 9.89718C8.61848 9.74964 8.84043 9.53774 9.00001 9.28125C9.1596 9.53774 9.38154 9.74964 9.64515 9.89718C9.90876 10.0447 10.2054 10.1231 10.5075 10.125H11.1488C11.4508 10.1231 11.7475 10.0447 12.0111 9.89718C12.2747 9.74964 12.4967 9.53774 12.6563 9.28125C12.8158 9.53774 13.0378 9.74964 13.3014 9.89718C13.565 10.0447 13.8617 10.1231 14.1638 10.125C14.5055 10.1468 14.8487 10.1326 15.1875 10.0828V16.5938ZM14.805 9.5625H14.1638C13.8385 9.5625 13.5266 9.43331 13.2967 9.20334C13.0667 8.97337 12.9375 8.66147 12.9375 8.33625V4.21875H15.2353L16.0313 8.36156C16.0239 8.68214 15.8916 8.98717 15.6625 9.21153C15.4334 9.4359 15.1257 9.56185 14.805 9.5625Z" fill="#003761"/>
<path d="M7.3125 4.78125H8.15625V5.625C8.15625 5.69959 8.18588 5.77113 8.23863 5.82387C8.29137 5.87662 8.36291 5.90625 8.4375 5.90625H9.5625C9.63709 5.90625 9.70863 5.87662 9.76137 5.82387C9.81412 5.77113 9.84375 5.69959 9.84375 5.625V4.78125H10.6875C10.7621 4.78125 10.8336 4.75162 10.8864 4.69887C10.9391 4.64613 10.9688 4.57459 10.9688 4.5V3.375C10.9688 3.30041 10.9391 3.22887 10.8864 3.17613C10.8336 3.12338 10.7621 3.09375 10.6875 3.09375H9.84375V2.25C9.84375 2.17541 9.81412 2.10387 9.76137 2.05113C9.70863 1.99838 9.63709 1.96875 9.5625 1.96875H8.4375C8.36291 1.96875 8.29137 1.99838 8.23863 2.05113C8.18588 2.10387 8.15625 2.17541 8.15625 2.25V3.09375H7.3125C7.23791 3.09375 7.16637 3.12338 7.11363 3.17613C7.06088 3.22887 7.03125 3.30041 7.03125 3.375V4.5C7.03125 4.57459 7.06088 4.64613 7.11363 4.69887C7.16637 4.75162 7.23791 4.78125 7.3125 4.78125ZM7.59375 3.65625H8.4375C8.51209 3.65625 8.58363 3.62662 8.63637 3.57387C8.68912 3.52113 8.71875 3.44959 8.71875 3.375V2.53125H9.28125V3.375C9.28125 3.44959 9.31088 3.52113 9.36363 3.57387C9.41637 3.62662 9.48791 3.65625 9.5625 3.65625H10.4062V4.21875H9.5625C9.48791 4.21875 9.41637 4.24838 9.36363 4.30113C9.31088 4.35387 9.28125 4.42541 9.28125 4.5V5.34375H8.71875V4.5C8.71875 4.42541 8.68912 4.35387 8.63637 4.30113C8.58363 4.24838 8.51209 4.21875 8.4375 4.21875H7.59375V3.65625Z" fill="#003761"/>
<path d="M13.5 10.9688H9.5625C9.48791 10.9688 9.41637 10.9984 9.36363 11.0511C9.31088 11.1039 9.28125 11.1754 9.28125 11.25V14.3438C9.28125 14.4183 9.31088 14.4899 9.36363 14.5426C9.41637 14.5954 9.48791 14.625 9.5625 14.625H13.5C13.5746 14.625 13.6461 14.5954 13.6989 14.5426C13.7516 14.4899 13.7812 14.4183 13.7812 14.3438V11.25C13.7812 11.1754 13.7516 11.1039 13.6989 11.0511C13.6461 10.9984 13.5746 10.9688 13.5 10.9688ZM13.2188 14.0625H9.84375V11.5312H13.2188V14.0625Z" fill="#003761"/>
</svg>
