<svg width="18" height="18" viewBox="0 0 18 18" fill="none" xmlns="http://www.w3.org/2000/svg">
<g clip-path="url(#clip0)">
<path d="M10.8837 14.2503L12.4152 14.1623L17.7315 9.51048L16.5124 8.11523L11.196 12.7715L10.8837 14.2503Z" fill="#003761"/>
<path d="M11.284 3.88163H13.2294L9.96375 0.620605V2.56133C9.96598 3.28973 10.5558 3.87956 11.284 3.88163Z" fill="#003761"/>
<path d="M12.6176 15.0338L10.3556 15.1614H10.3291C10.2007 15.1607 10.0786 15.1046 9.99473 15.0073C9.90671 14.9025 9.87112 14.7632 9.89777 14.6288L10.3599 12.446C10.3803 12.3525 10.4295 12.2677 10.5008 12.2039L13.8411 9.28159V4.76182H11.2798C10.0647 4.76148 9.07963 3.77642 9.07929 2.56133V0H1.6284C0.900175 0.00206296 0.310168 0.592069 0.308105 1.32029V16.6797C0.310168 17.4079 0.900175 17.9979 1.6284 18H12.5253C13.2535 17.9979 13.8433 17.4079 13.8456 16.6797V14.0831L12.8817 14.9238C12.8077 14.9877 12.7153 15.0262 12.6176 15.0338ZM3.17321 5.85777H7.31013C7.55304 5.85777 7.75023 6.05478 7.75023 6.29787C7.75023 6.54078 7.55304 6.73797 7.31013 6.73797H3.17321C2.93013 6.73797 2.73311 6.54078 2.73311 6.29787C2.73311 6.05478 2.93013 5.85777 3.17321 5.85777ZM3.17321 8.75348H11.4471C11.69 8.75348 11.8871 8.95066 11.8871 9.19357C11.8871 9.43666 11.69 9.63367 11.4471 9.63367H3.17321C2.93013 9.63367 2.73311 9.43666 2.73311 9.19357C2.73311 8.95066 2.93013 8.75348 3.17321 8.75348V8.75348ZM8.9648 15.4254H3.17321C2.93013 15.4254 2.73311 15.2284 2.73311 14.9853C2.73311 14.7422 2.93013 14.5452 3.17321 14.5452H8.9648C9.20788 14.5452 9.40489 14.7422 9.40489 14.9853C9.40489 15.2284 9.20788 15.4254 8.9648 15.4254ZM8.9648 12.5295H3.17321C2.93013 12.5295 2.73311 12.3325 2.73311 12.0895C2.73311 11.8464 2.93013 11.6494 3.17321 11.6494H8.9648C9.20788 11.6494 9.40489 11.8464 9.40489 12.0895C9.40489 12.3325 9.20788 12.5295 8.9648 12.5295Z" fill="#003761"/>
</g>
<defs>
<clipPath id="clip0">
<rect width="18" height="18" fill="white"/>
</clipPath>
</defs>
</svg>
