<svg width="25" height="25" viewBox="0 0 25 25" fill="none" xmlns="http://www.w3.org/2000/svg">
<path d="M25 12.5C25 19.4036 19.4036 25 12.5 25C5.59644 25 0 19.4036 0 12.5C0 5.59644 5.59644 0 12.5 0C19.4036 0 25 5.59644 25 12.5ZM2.16158 12.5C2.16158 18.2097 6.79025 22.8384 12.5 22.8384C18.2097 22.8384 22.8384 18.2097 22.8384 12.5C22.8384 6.79025 18.2097 2.16158 12.5 2.16158C6.79025 2.16158 2.16158 6.79025 2.16158 12.5Z" fill="#FFBF00"/>
<path d="M12.5 11.7078C12.6402 11.7078 12.7539 11.5941 12.7539 11.4539C12.7539 11.3137 12.6402 11.2 12.5 11.2C12.3598 11.2 12.2461 11.3137 12.2461 11.4539C12.2461 11.5941 12.3598 11.7078 12.5 11.7078Z" fill="#FFBF00"/>
<path d="M14.2773 9.97871C14.2773 8.5561 13.7308 7.14469 12.6812 6.07599C12.6809 6.07571 12.6806 6.07549 12.6803 6.07521C12.6332 6.02773 12.5688 6 12.5 6C12.4297 6 12.3657 6.02877 12.3197 6.07521C12.3194 6.07549 12.3191 6.07571 12.3189 6.07599C11.3221 7.09091 10.7227 8.48079 10.7227 9.97871V15.4634C9.86247 15.587 9.19922 16.3288 9.19922 17.2227C9.19922 18.3079 10.1684 19.1555 11.2733 18.9759C11.7882 18.892 12.2262 18.5681 12.4894 18.1194C12.7982 18.6458 13.3702 19 14.0234 19C15.0035 19 15.8008 18.2027 15.8008 17.2227C15.8008 16.3288 15.1375 15.587 14.2773 15.4634V9.97871ZM12.2461 17.1412C12.2461 17.7939 11.8038 18.375 11.1918 18.4747C10.3784 18.6069 9.70703 17.9787 9.70703 17.2227C9.70703 16.5226 10.2765 15.9531 10.9766 15.9531C11.1168 15.9531 11.2305 15.8395 11.2305 15.6992V12.6763C11.4973 12.9488 11.8509 13.1361 12.2461 13.1929V17.1412ZM15.293 17.2227C15.293 17.9227 14.7235 18.4922 14.0234 18.4922C13.3857 18.4922 12.7539 18.0133 12.7539 17.1412V12.957C12.7539 12.8168 12.6402 12.7031 12.5 12.7031C11.8 12.7031 11.2305 12.1336 11.2305 11.4336V9.97871C11.2305 8.86812 11.5874 7.80974 12.2461 6.93679V9.91016C12.2461 10.0504 12.3598 10.1641 12.5 10.1641C13.2 10.1641 13.7695 10.7336 13.7695 11.4336V15.6992C13.7695 15.8395 13.8832 15.9531 14.0234 15.9531C14.7235 15.9531 15.293 16.5226 15.293 17.2227ZM12.7539 9.67433V6.93679C13.4126 7.80972 13.7695 8.86812 13.7695 9.97871V10.1914C13.5027 9.91874 13.1492 9.73113 12.7539 9.67433Z" fill="#FFBF00"/>
<path d="M7.01562 19C7.57564 19 8.03125 18.5444 8.03125 17.9844C8.03125 17.4309 8.03125 6.71632 8.03125 6.25391C8.03125 6.11367 7.91755 6 7.77734 6C6.79732 6 6 6.79732 6 7.77734V17.9844C6 18.5444 6.45561 19 7.01562 19ZM7.52344 14.5312H6.50781V13.5156H7.52344V14.5312ZM7.52344 13.0078H6.50781V11.9922H7.52344V13.0078ZM7.01562 18.4922C6.73562 18.4922 6.50781 18.2644 6.50781 17.9844V15.0391H7.52344V17.9844C7.52344 18.2644 7.29563 18.4922 7.01562 18.4922ZM7.52344 6.5333V11.4844H6.50781V7.77734C6.50781 7.16426 6.94468 6.65129 7.52344 6.5333Z" fill="#FFBF00"/>
<path d="M15.6992 8.28516C15.559 8.28516 15.4453 8.39883 15.4453 8.53906C15.4453 8.67929 15.559 8.79297 15.6992 8.79297H16.207V14.9375C16.207 14.9924 16.2249 15.0459 16.2578 15.0898L16.9688 16.0378V18.7461C16.9688 18.8863 17.0824 19 17.2227 19C17.3629 19 17.4766 18.8863 17.4766 18.7461V16.0378L18.1875 15.0898C18.2205 15.0459 18.2383 14.9924 18.2383 14.9375V13.8965C18.2383 13.7563 18.1246 13.6426 17.9844 13.6426C17.8442 13.6426 17.7305 13.7563 17.7305 13.8965V14.8529L17.2227 15.53L16.7148 14.8529V11.0781H17.7305V11.6113C17.7305 11.7516 17.8442 11.8652 17.9844 11.8652C18.1246 11.8652 18.2383 11.7516 18.2383 11.6113V8.79297H18.7461C18.8863 8.79297 19 8.67929 19 8.53906C19 8.39883 18.8863 8.28516 18.7461 8.28516H17.4766V6.50781H17.9844C18.1246 6.50781 18.2383 6.39414 18.2383 6.25391C18.2383 6.11367 18.1246 6 17.9844 6H16.4609C16.3207 6 16.207 6.11367 16.207 6.25391C16.207 6.39414 16.3207 6.50781 16.4609 6.50781H16.9688V8.28516H15.6992ZM17.7305 10.5703H16.7148V8.79297H17.7305V10.5703Z" fill="#FFBF00"/>
<path d="M10.2148 17.2227C10.2148 17.6427 10.5566 17.9844 10.9766 17.9844C11.3966 17.9844 11.7383 17.6427 11.7383 17.2227C11.7383 16.8026 11.3966 16.4609 10.9766 16.4609C10.5566 16.4609 10.2148 16.8026 10.2148 17.2227ZM11.2305 17.2227C11.2305 17.3627 11.1166 17.4766 10.9766 17.4766C10.8366 17.4766 10.7227 17.3627 10.7227 17.2227C10.7227 17.0827 10.8366 16.9688 10.9766 16.9688C11.1166 16.9688 11.2305 17.0827 11.2305 17.2227Z" fill="#FFBF00"/>
<path d="M13.2617 17.2227C13.2617 17.6427 13.6034 17.9844 14.0234 17.9844C14.4434 17.9844 14.7852 17.6427 14.7852 17.2227C14.7852 16.8026 14.4434 16.4609 14.0234 16.4609C13.6034 16.4609 13.2617 16.8026 13.2617 17.2227ZM14.2773 17.2227C14.2773 17.3627 14.1634 17.4766 14.0234 17.4766C13.8834 17.4766 13.7695 17.3627 13.7695 17.2227C13.7695 17.0827 13.8834 16.9688 14.0234 16.9688C14.1634 16.9688 14.2773 17.0827 14.2773 17.2227Z" fill="#FFBF00"/>
<path d="M17.9844 13.0078C18.1246 13.0078 18.2383 12.8941 18.2383 12.7539C18.2383 12.6137 18.1246 12.5 17.9844 12.5C17.8441 12.5 17.7305 12.6137 17.7305 12.7539C17.7305 12.8941 17.8441 13.0078 17.9844 13.0078Z" fill="#FFBF00"/>
</svg>
