<?xml version="1.0" encoding="utf-8"?>
<!-- Generator: Adobe Illustrator 25.0.1, SVG Export Plug-In . SVG Version: 6.00 Build 0)  -->
<svg version="1.1" id="Layer_1" xmlns="http://www.w3.org/2000/svg" xmlns:xlink="http://www.w3.org/1999/xlink" x="0px" y="0px"
	 viewBox="0 0 113 105" style="enable-background:new 0 0 113 105;" xml:space="preserve">
<style type="text/css">
	.st0{fill:#19456B;}
	.st1{fill:#0C2942;}
	.st2{fill:#E8E8E8;}
</style>
<g>
	<g>
		<g id="surgery_2_" transform="translate(0 -0.5)">
			<path id="Path_1577_2_" class="st0" d="M57.1,21c17.4,0,31.5,14,31.5,31.2S74.5,83.4,57.1,83.4s-31.5-14-31.5-31.2
				S39.7,21,57.1,21z"/>
			<path id="Path_1504_2_" class="st1" d="M88.3,52L88.3,52L71.5,35.1c-0.2-0.2-4.2,3-4.2,3l-3.9-3.9l-4.1-1.7l-5.7,5.7l-4-4
				l-4.1-1.7l-5.7,5.7l1.7,4.1l7.4,7.4l3.5,21.8l11.1,11.2C78,79.6,88.3,66.9,88.3,52z"/>
			<g id="Group_326_2_" transform="translate(23.098 19.219)">
				<g id="Group_321_2_" transform="translate(45.044)">
					<path id="Path_1505_2_" class="st2" d="M6,22.4c0-2.8-1.3-5.4-3.4-7.1c-0.5-0.4-1.1-0.8-1.8-1.2l-1.7-0.8v19.2L6,29.1v-6.4
						C6,22.5,6,22.4,6,22.4L6,22.4z"/>
				</g>
				<path id="Path_1506_2_" class="st2" d="M51.1,22.5v6.4l-3.5,1.8V15.2c2.1,1.8,3.4,4.4,3.4,7.1C51.1,22.4,51.1,22.5,51.1,22.5z"
					/>
				<g id="Surgery_Tools_1_">
					<path id="Path_1507_2_" class="st2" d="M36.1,13.2c-3.2,0-5.7,2.6-5.7,5.7V27h-2.3v-8.1c0-3.2-2.6-5.7-5.7-5.7
						c-3.2,0-5.7,2.6-5.7,5.7c0,3.2,2.6,5.7,5.7,5.7c1.2,0,2.5-0.4,3.4-1.2V40c0,3.6,0.8,7.1,2.4,10.2l1,2.1l1-2.1
						c1.6-3.2,2.4-6.7,2.4-10.2V23.5c1,0.8,2.2,1.2,3.4,1.2c3.2,0,5.7-2.6,5.7-5.7C41.9,15.8,39.3,13.2,36.1,13.2L36.1,13.2z
						 M22.4,22.4c-1.9,0-3.4-1.5-3.4-3.4s1.5-3.4,3.4-3.4s3.4,1.5,3.4,3.4C25.8,20.9,24.3,22.4,22.4,22.4z M36.1,22.4
						c-1.9,0-3.4-1.5-3.4-3.4s1.5-3.4,3.4-3.4s3.4,1.5,3.4,3.4C39.6,20.9,38,22.4,36.1,22.4z"/>
					<path id="Path_1508_2_" class="st2" d="M32.7,40.1V23.5c1,0.8,2.2,1.2,3.4,1.2c3.2,0,5.7-2.6,5.7-5.7s-2.6-5.7-5.7-5.7
						c-3.2,0-5.7,2.6-5.7,5.7v8.1h-1.1v25.3l1-2.1C31.9,47.2,32.7,43.7,32.7,40.1z M36.1,15.5c1.9,0,3.4,1.5,3.4,3.4
						s-1.5,3.4-3.4,3.4s-3.4-1.5-3.4-3.4C32.7,17.1,34.2,15.5,36.1,15.5L36.1,15.5z"/>
					<path id="Path_1509_2_" class="st2" d="M51.1,32.1l-6.9-3.4v4.6l1.6,2.1l-1.6,0.5v2l1.9,2.3l-1.9,0.3v12h6.9V44l-2-2.3l2-0.3
						v-2L48.9,37l2.2-0.2V32.1z"/>
				</g>
				<g id="Group_323_2_" transform="translate(50.674 28.052)">
					<g id="Group_322_2_">
						<path id="Path_1510_2_" class="st2" d="M0.4,15.8l-2-2.3l2-0.3v-2l-2.2-2.4l2.2-0.2V4.1L-3,2.4v22h3.4
							C0.4,24.4,0.4,15.8,0.4,15.8z"/>
					</g>
				</g>
				<g id="Group_324_2_" transform="translate(45.044 32.744)">
					<path id="Path_1511_2_" class="st2" d="M6,4v2.6l-6.9-3.4V0.5L6,4z"/>
				</g>
				<path id="Path_1512_2_" class="st2" d="M47.6,37.6l3.4,1.7v-2.6L47.6,35V37.6z"/>
				<g id="Group_325_2_" transform="translate(45.044 40.252)">
					<path id="Path_1513_2_" class="st2" d="M6,1.1v2.6l-6.9-3.4v-2.6L6,1.1z"/>
				</g>
				<path id="Path_1514_2_" class="st2" d="M47.6,42.2l3.4,1.7v-2.6l-3.4-1.7V42.2z"/>
			</g>
		</g>
	</g>
</g>
</svg>
