<svg width="18" height="18" viewBox="0 0 18 18" fill="none" xmlns="http://www.w3.org/2000/svg">
<g clip-path="url(#clip0_6450_2401)">
<path d="M10.388 0.841429C10.1337 0.305224 9.59338 -0.0366211 9.00001 -0.0366211C8.40664 -0.0366211 7.86615 0.305224 7.61205 0.841429H2.70732C2.18227 0.842 1.75668 1.26759 1.7561 1.79265V17.0122C1.75668 17.5372 2.18227 17.9628 2.70732 17.9634H15.2927C15.8178 17.9628 16.2433 17.5372 16.2439 17.0122V1.79265C16.2433 1.26759 15.8178 0.842 15.2927 0.841429H10.388ZM9.00001 0.402404C9.60595 0.403118 10.0969 0.89402 10.0976 1.49997V2.1585C10.0976 2.27969 10.1959 2.37802 10.3171 2.37802H12.5122V3.69509H5.48781V2.37802H7.68294C7.80412 2.37802 7.90245 2.27969 7.90245 2.1585V1.49997C7.90316 0.89402 8.39406 0.403118 9.00001 0.402404ZM14.108 13.4068H12.9256C12.4004 13.4074 11.975 13.833 11.9744 14.358V15.5092H4.0384C3.95766 15.5092 3.89206 15.4437 3.89206 15.3628V3.44199C3.89206 3.36111 3.95766 3.29565 4.0384 3.29565H5.04879V3.9146C5.04879 4.03579 5.14711 4.13412 5.2683 4.13412H12.7317C12.8529 4.13412 12.9512 4.03579 12.9512 3.9146V3.29565H13.9616C14.0424 3.29565 14.108 3.36111 14.108 3.44199V13.4068ZM13.8066 13.8458L12.4135 15.2389V14.358C12.4137 14.0753 12.6428 13.8461 12.9256 13.8458H13.8066ZM15.8049 1.79265V17.0122C15.8046 17.2949 15.5754 17.5241 15.2927 17.5244H2.70732C2.4245 17.5241 2.19541 17.2949 2.19513 17.0122V1.79265C2.19541 1.50983 2.4245 1.28074 2.70732 1.28045H7.47929C7.46885 1.3532 7.46357 1.42651 7.46342 1.49997V1.93899H5.2683C5.14711 1.93899 5.04879 2.03731 5.04879 2.1585V2.85663H4.0384C3.71528 2.85691 3.45347 3.11887 3.45304 3.44199V15.3628C3.45347 15.686 3.71528 15.9479 4.0384 15.9482H12.0523C12.082 15.9481 12.1118 15.9458 12.1412 15.9416C12.2212 15.9618 12.306 15.9349 12.3597 15.872C12.418 15.8412 12.4713 15.8017 12.5179 15.755L14.3541 13.9189C14.478 13.7957 14.5474 13.628 14.547 13.4532V3.44199C14.5466 3.11887 14.2847 2.85691 13.9616 2.85663H12.9512V2.1585C12.9512 2.03731 12.8529 1.93899 12.7317 1.93899H10.5366V1.49997C10.5365 1.42651 10.5312 1.3532 10.5207 1.28045H15.2927C15.5754 1.28074 15.8046 1.50983 15.8049 1.79265Z" fill="#003761"/>
<path d="M12.7317 6.00635H7.56363C7.4423 6.00635 7.34412 6.10467 7.34412 6.22586C7.34412 6.34705 7.4423 6.44537 7.56363 6.44537H12.7317C12.8529 6.44537 12.9513 6.34705 12.9513 6.22586C12.9513 6.10467 12.8529 6.00635 12.7317 6.00635Z" fill="#003761"/>
<path d="M12.7317 8.0083H7.56363C7.4423 8.0083 7.34412 8.10648 7.34412 8.22781C7.34412 8.349 7.4423 8.44732 7.56363 8.44732H12.7317C12.8529 8.44732 12.9513 8.349 12.9513 8.22781C12.9513 8.10648 12.8529 8.0083 12.7317 8.0083Z" fill="#003761"/>
<path d="M12.7317 10.0098H7.56363C7.4423 10.0098 7.34412 10.1081 7.34412 10.2293C7.34412 10.3506 7.4423 10.4488 7.56363 10.4488H12.7317C12.8529 10.4488 12.9513 10.3506 12.9513 10.2293C12.9513 10.1081 12.8529 10.0098 12.7317 10.0098Z" fill="#003761"/>
<path d="M12.7317 12.0117H7.56363C7.4423 12.0117 7.34412 12.11 7.34412 12.2312C7.34412 12.3524 7.4423 12.4507 7.56363 12.4507H12.7317C12.8529 12.4507 12.9513 12.3524 12.9513 12.2312C12.9513 12.11 12.8529 12.0117 12.7317 12.0117Z" fill="#003761"/>
<path d="M5.6342 5.64062C5.31093 5.64062 5.04883 5.90273 5.04883 6.22599C5.04883 6.54926 5.31093 6.81136 5.6342 6.81136C5.95747 6.81136 6.21957 6.54926 6.21957 6.22599C6.21914 5.90287 5.95732 5.64105 5.6342 5.64062ZM5.6342 6.37234C5.55331 6.37234 5.48786 6.30688 5.48786 6.22599C5.48786 6.14511 5.55331 6.07965 5.6342 6.07965C5.71509 6.07965 5.78054 6.14511 5.78054 6.22599C5.78054 6.30688 5.71509 6.37234 5.6342 6.37234Z" fill="#003761"/>
<path d="M5.6342 7.64258C5.31093 7.64258 5.04883 7.90468 5.04883 8.22795C5.04883 8.55122 5.31093 8.81332 5.6342 8.81332C5.95747 8.81332 6.21957 8.55122 6.21957 8.22795C6.21914 7.90482 5.95732 7.64286 5.6342 7.64258ZM5.6342 8.37429C5.55331 8.37429 5.48786 8.30869 5.48786 8.22795C5.48786 8.14706 5.55331 8.08161 5.6342 8.08161C5.71509 8.08161 5.78054 8.14706 5.78054 8.22795C5.78054 8.30869 5.71509 8.37429 5.6342 8.37429Z" fill="#003761"/>
<path d="M5.6342 9.64404C5.31093 9.64404 5.04883 9.90614 5.04883 10.2294C5.04883 10.5527 5.31093 10.8148 5.6342 10.8148C5.95747 10.8148 6.21957 10.5527 6.21957 10.2294C6.21914 9.90629 5.95732 9.64447 5.6342 9.64404ZM5.6342 10.3758C5.55331 10.3758 5.48786 10.3103 5.48786 10.2294C5.48786 10.1487 5.55331 10.0831 5.6342 10.0831C5.71509 10.0831 5.78054 10.1487 5.78054 10.2294C5.78054 10.3103 5.71509 10.3758 5.6342 10.3758Z" fill="#003761"/>
<path d="M5.6342 11.646C5.31093 11.646 5.04883 11.9081 5.04883 12.2314C5.04883 12.5546 5.31093 12.8167 5.6342 12.8167C5.95747 12.8167 6.21957 12.5546 6.21957 12.2314C6.21914 11.9082 5.95732 11.6464 5.6342 11.646ZM5.6342 12.3777C5.55331 12.3777 5.48786 12.3121 5.48786 12.2314C5.48786 12.1505 5.55331 12.085 5.6342 12.085C5.71509 12.085 5.78054 12.1505 5.78054 12.2314C5.78054 12.3121 5.71509 12.3777 5.6342 12.3777Z" fill="#003761"/>
</g>
<defs>
<clipPath id="clip0_6450_2401">
<rect width="18" height="18" fill="white"/>
</clipPath>
</defs>
</svg>
