<svg width="18" height="18" viewBox="0 0 18 18" fill="none" xmlns="http://www.w3.org/2000/svg">
<path d="M15.5317 4.88536H8.41782V4.39387C8.41479 3.69106 7.8479 3.12073 7.14495 3.11348H5.04282V0.961915C5.04282 0.728828 4.8539 0.540039 4.62095 0.540039C4.38786 0.540039 4.19907 0.728828 4.19907 0.961915V3.13405C3.55255 3.19983 3.06054 3.74419 3.06001 4.39387V4.88536H2.40083C1.70289 4.88536 1.11938 5.45819 1.11938 6.15613V14.3873C1.11938 15.0853 1.70289 15.6432 2.40083 15.6432H3.06001V16.1494C3.05869 16.8471 3.62348 17.4139 4.32115 17.4151H7.14495C7.845 17.4148 8.41347 16.8495 8.41782 16.1494V15.6432H15.5317C16.2296 15.6432 16.8131 15.0853 16.8131 14.3873V6.15613C16.8131 5.45819 16.2296 4.88536 15.5317 4.88536ZM2.40083 14.7994C2.16814 14.7994 1.96313 14.62 1.96313 14.3873V6.15613C1.97039 5.91922 2.16379 5.73056 2.40083 5.72911H3.06001V14.7994H2.40083ZM7.57407 16.1494C7.57407 16.3825 7.38515 16.5713 7.1522 16.5713H4.32563C4.09255 16.5713 3.90376 16.3825 3.90376 16.1494V4.37911C3.90376 4.14602 4.09255 3.95723 4.32563 3.95723H7.1522C7.38515 3.95723 7.57407 4.14602 7.57407 4.37911V16.1494ZM15.9694 14.3873C15.9694 14.62 15.7644 14.7994 15.5317 14.7994H8.41782V5.72911H15.5317C15.7686 5.73056 15.9621 5.91922 15.9694 6.15613V14.3873Z" fill="#003761"/>
<path d="M14.7459 7.37427C14.7459 7.14118 14.557 6.95239 14.324 6.95239H9.93652C9.70344 6.95239 9.51465 7.14118 9.51465 7.37427V9.14614C9.51465 9.37923 9.70344 9.56802 9.93652 9.56802H14.324C14.557 9.56802 14.7459 9.37923 14.7459 9.14614V7.37427ZM13.9443 8.72427H10.3584V7.79614H13.9443V8.72427Z" fill="#003761"/>
<path d="M14.3548 10.8337H9.95435C9.72126 10.8337 9.53247 11.0225 9.53247 11.2556C9.53247 11.4887 9.72126 11.6775 9.95435 11.6775H14.3548C14.5879 11.6775 14.7767 11.4887 14.7767 11.2556C14.7767 11.0225 14.5879 10.8337 14.3548 10.8337Z" fill="#003761"/>
<path d="M14.3548 12.5635H9.95435C9.72126 12.5635 9.53247 12.7523 9.53247 12.9854C9.53247 13.2184 9.72126 13.4072 9.95435 13.4072H14.3548C14.5879 13.4072 14.7767 13.2184 14.7767 12.9854C14.7767 12.7523 14.5879 12.5635 14.3548 12.5635Z" fill="#003761"/>
</svg>
