<svg width="23" height="23" viewBox="0 0 23 23" fill="none" xmlns="http://www.w3.org/2000/svg">
<path d="M11.3368 12.6068C11.0799 12.6075 10.8718 12.8157 10.8711 13.0725V18.7542C10.8711 19.0115 11.0798 19.2199 11.3368 19.2199C11.594 19.2199 11.8025 19.0115 11.8025 18.7542V13.0725C11.8018 12.8157 11.5938 12.6075 11.3368 12.6068Z" fill="#F40505"/>
<path d="M14.3174 12.6068C14.0605 12.6075 13.8524 12.8157 13.8517 13.0725V18.7542C13.8517 19.0115 14.0604 19.2199 14.3174 19.2199C14.5746 19.2199 14.7831 19.0115 14.7831 18.7542V13.0725C14.7824 12.8157 14.5744 12.6075 14.3174 12.6068Z" fill="#F40505"/>
<path d="M8.35633 12.6068C8.09947 12.6075 7.89135 12.8157 7.89062 13.0725V18.7542C7.89062 19.0115 8.09932 19.2199 8.35633 19.2199C8.61349 19.2199 8.82204 19.0115 8.82204 18.7542V13.0725C8.82131 12.8157 8.61334 12.6075 8.35633 12.6068Z" fill="#F40505"/>
<path d="M17.5587 3.09234H14.895V1.73711C14.8947 1.16865 14.4339 0.708031 13.8656 0.707886H8.80809C8.23963 0.708031 7.77901 1.16865 7.77872 1.73711V3.09699H5.11499C4.08984 3.09728 3.21474 3.83704 3.04417 4.84778C2.87346 5.85852 3.45749 6.84482 4.42559 7.18129C4.41642 7.21462 4.41176 7.24911 4.41162 7.28375V19.9418C4.4122 21.2276 5.45438 22.2698 6.74018 22.2704H15.938C17.2238 22.2698 18.2663 21.2276 18.2666 19.9418V7.28375C18.267 7.24911 18.2622 7.21462 18.2526 7.18129C19.222 6.84365 19.8058 5.85547 19.634 4.84342C19.4623 3.83136 18.5851 3.09146 17.5587 3.09234V3.09234ZM8.71495 1.73711C8.71509 1.68312 8.75875 1.6396 8.8126 1.63931H13.8704C13.9242 1.6396 13.9679 1.68312 13.968 1.73711V3.09699H8.71495V1.73711ZM15.9335 21.339H6.74018C5.96957 21.3368 5.34537 20.7124 5.34304 19.9418V7.29772H17.3351V19.9418C17.3308 20.7133 16.705 21.3372 15.9335 21.339ZM17.5587 6.3663H5.11499C4.46925 6.3663 3.9459 5.84295 3.9459 5.19736C3.9459 4.55176 4.46925 4.02842 5.11499 4.02842H17.5587C18.2044 4.02842 18.7278 4.55176 18.7278 5.19736C18.7278 5.84295 18.2044 6.3663 17.5587 6.3663Z" fill="#F40505"/>
</svg>
