<svg width="32" height="32" viewBox="0 0 32 32" fill="none" xmlns="http://www.w3.org/2000/svg">
  <g clip-path="url(#clip0_254_2151)">
    <path d="M6.51741 12.1212C6.38227 12.1187 6.25168 12.1708 6.15537 12.2659C6.05931 12.3609 6.00536 12.4908 6.00586 12.6259V28.8387C6.00586 29.7057 6.30865 30.5105 6.8628 31.0931C7.40838 31.6735 8.17002 32.0018 8.96646 32H20.5504C21.3448 32.0015 22.1042 31.673 22.6468 31.0931C23.2009 30.51 23.4966 29.7055 23.4966 28.8387V12.6259C23.5007 12.492 23.4497 12.3627 23.356 12.2674C23.2622 12.1721 23.1333 12.1194 22.9997 12.1212H6.51741ZM22.464 28.8387C22.464 30.0451 21.6522 30.9673 20.5504 30.9673H8.96646C7.86471 30.9673 7.03853 30.0451 7.03853 28.8387V13.1538H22.464V28.8387Z" fill="#003761" />
    <path d="M18.3977 28.1427C18.6828 28.1427 18.914 27.9115 18.914 27.6263V15.4424C18.914 15.1572 18.6828 14.926 18.3977 14.926C18.1125 14.926 17.8813 15.1572 17.8813 15.4424V27.6263C17.8813 27.9115 18.1125 28.1427 18.3977 28.1427Z" fill="#003761" />
    <path d="M11.1042 28.1427C11.3894 28.1427 11.6206 27.9115 11.6206 27.6263V15.4424C11.6206 15.1572 11.3894 14.926 11.1042 14.926C10.8191 14.926 10.5879 15.1572 10.5879 15.4424V27.6263C10.5879 27.9115 10.8191 28.1427 11.1042 28.1427Z" fill="#003761" />
    <path d="M25.4473 12.0958C25.6898 12.0955 25.8994 11.9266 25.9513 11.6899L26.6849 8.34054C26.9628 7.07114 26.159 5.81661 24.8896 5.53853L21.8771 4.87874L22.0652 4.01953C22.3433 2.75013 21.5395 1.4956 20.2699 1.21752L14.9588 0.0545078C13.6894 -0.223576 12.4349 0.580169 12.157 1.84982L11.9687 2.70903L8.95643 2.0495C7.68678 1.77116 6.43225 2.57516 6.15417 3.84456L5.42076 7.19392C5.35975 7.4725 5.53598 7.74781 5.81457 7.80883L25.3361 12.0837C25.3727 12.0918 25.41 12.0958 25.4473 12.0958ZM13.1658 2.07068C13.3216 1.3582 14.0257 0.907163 14.7382 1.06322L20.0493 2.22623C20.7617 2.38229 21.2128 3.0862 21.0567 3.79868L20.8686 4.65789L12.9774 2.92989L13.1658 2.07068ZM6.54016 6.91054L7.16313 4.06567C7.31894 3.35319 8.0231 2.90215 8.73558 3.05821L24.6685 6.54724C25.381 6.7033 25.832 7.40721 25.676 8.11969L25.053 10.9646L6.54016 6.91054Z" fill="#003761" />
    <path d="M14.7834 28.1427C15.0686 28.1427 15.2998 27.9115 15.2998 27.6263V15.4424C15.2998 15.1572 15.0686 14.926 14.7834 14.926C14.4983 14.926 14.2671 15.1572 14.2671 15.4424V27.6263C14.2671 27.9115 14.4983 28.1427 14.7834 28.1427Z" fill="#003761" />
  </g>
  <defs>
    <clipPath id="clip0_254_2151">
      <rect width="32" height="32" fill="white" />
    </clipPath>
  </defs>
</svg>