<svg width="20" height="20" viewBox="0 0 20 20" fill="none" xmlns="http://www.w3.org/2000/svg">
<path d="M13.038 9.61643L13.993 8.66145C14.1051 8.54896 14.2396 8.46144 14.388 8.40475L16.3992 7.63114C16.5472 7.57387 16.6563 7.44611 16.6893 7.29074C16.7222 7.13566 16.6745 6.97427 16.5623 6.86208L11.7399 2.03933C11.6275 1.92728 11.4661 1.87941 11.3111 1.91245C11.156 1.94534 11.0279 2.05446 10.9709 2.20263L10.1973 4.21361C10.1405 4.36208 10.053 4.4966 9.94049 4.60879L1.43602 13.113C0.321274 14.2327 0.32333 16.0435 1.44072 17.1609C2.55797 18.2782 4.3688 18.2804 5.48868 17.1658L12.9101 9.74419C12.9605 9.71041 13.0041 9.6668 13.038 9.61643ZM10.6034 5.27168C10.8087 5.06697 10.9686 4.82114 11.0723 4.55034L11.5868 3.21253L15.3894 7.01481L14.0513 7.52937C13.7805 7.6332 13.5347 7.79297 13.33 7.99827L12.4715 8.85676L7.70526 8.16994L10.6034 5.27168ZM4.82594 16.5024C4.07289 17.2555 2.85226 17.2555 2.09935 16.5024C1.34644 15.7495 1.34644 14.5289 2.09935 13.776L6.87731 8.99833L11.6437 9.68486L4.82594 16.5024Z" fill="black"/>
<path d="M16.9063 9.59397C16.7232 9.41085 16.4263 9.41085 16.2433 9.59397L14.611 11.2259C13.5284 12.3112 13.5284 14.0679 14.611 15.153C15.6957 16.2375 17.4539 16.2375 18.5384 15.153C19.6228 14.0687 19.6228 12.3104 18.5384 11.2259L16.9063 9.59397ZM17.8752 14.4901C17.1565 15.2074 15.9929 15.2074 15.2742 14.4901C14.5559 13.7717 14.5559 12.6074 15.2742 11.889L16.5749 10.5884L17.8754 11.889C18.5935 12.6074 18.5935 13.7717 17.8754 14.4899L17.8752 14.4901Z" fill="black"/>
</svg>
