<svg width="18" height="18" viewBox="0 0 18 18" fill="none" xmlns="http://www.w3.org/2000/svg">
<path d="M17.5351 9.23648C17.2775 4.83584 13.6261 1.33495 9.10596 1.16789V0.317636C9.10596 0.142066 8.96365 0 8.78829 0C8.61293 0 8.47065 0.142101 8.47065 0.317636V1.16683C3.93129 1.31421 0.258876 4.82251 0.000513806 9.23651C-0.00774789 9.3822 0.0843612 9.5152 0.223509 9.5584C0.362868 9.60158 0.514251 9.54402 0.589625 9.41929C1.02437 8.70059 1.82505 8.21414 2.74814 8.21435C3.77393 8.2141 4.65065 8.81425 5.03797 9.66577C5.08965 9.77904 5.20292 9.85192 5.32748 9.85192C5.45204 9.85192 5.56531 9.77887 5.61657 9.66535C6.11125 8.57368 7.1891 7.78382 8.47097 7.6773V9.08467V15.7764C8.47097 16.216 8.2935 16.611 8.00571 16.8994C7.7175 17.1872 7.32235 17.3644 6.88275 17.3647C6.44316 17.3644 6.04818 17.1874 5.75979 16.8994C5.47201 16.611 5.29454 16.2158 5.29454 15.7764C5.29454 15.6009 5.15223 15.4588 4.9769 15.4588C4.80158 15.4588 4.65927 15.6009 4.65927 15.7764C4.65969 17.0045 5.65478 17.9998 6.88279 18C8.11083 17.9997 9.10589 17.0044 9.10631 15.7764V9.08471V7.68177C10.3699 7.80183 11.43 8.58556 11.9196 9.66535C11.9709 9.77887 12.0837 9.85168 12.2087 9.85192C12.3332 9.85192 12.4461 9.77908 12.4978 9.66577C12.8849 8.81425 13.7618 8.2141 14.7876 8.21435C15.7107 8.21435 16.5116 8.70056 16.9461 9.41929C17.0213 9.54402 17.1727 9.60165 17.3122 9.5584C17.451 9.5152 17.5434 9.38195 17.5351 9.23648ZM5.53648 5.22744C5.27432 6.21934 5.0996 7.34508 5.03438 8.5496C4.46155 7.95219 3.64923 7.57929 2.74793 7.57904C1.99323 7.57904 1.30161 7.84162 0.759676 8.27745C1.36236 5.1071 3.90017 2.59263 7.14333 1.95352C7.0167 2.0861 6.89516 2.23157 6.77929 2.39062C6.26154 3.10426 5.8416 4.07625 5.53648 5.22744ZM8.76758 7.02867C7.53342 7.02892 6.42695 7.56593 5.67837 8.4153C5.79253 6.61172 6.16353 5.00888 6.68806 3.83631C6.98453 3.17158 7.33075 2.64723 7.69015 2.30291C7.86973 2.13029 8.05162 2.00285 8.2312 1.91921C8.41078 1.83575 8.5874 1.79511 8.76761 1.7949C8.94807 1.79515 9.12466 1.83575 9.30403 1.91921C9.61787 2.06469 9.9406 2.34889 10.2421 2.76415C10.6951 3.38589 11.0953 4.29352 11.3846 5.38941C11.6224 6.28793 11.7855 7.31372 11.8553 8.41361C11.1069 7.56551 10.0013 7.02892 8.76758 7.02867ZM14.7872 7.57904C13.8855 7.57925 13.0727 7.95236 12.4999 8.54998C12.3949 6.61319 12.0091 4.88179 11.4271 3.57735C11.1322 2.91835 10.7874 2.36819 10.3905 1.95331C13.6344 2.592 16.1727 5.10672 16.7752 8.27724C16.2335 7.84166 15.5419 7.57929 14.7872 7.57904Z" fill="#003761"/>
</svg>
