<svg width="17" height="16" viewBox="0 0 17 16" fill="none" xmlns="http://www.w3.org/2000/svg">
<path d="M15.0719 8.9375V12.5312H14.0029C14.0869 12.3397 14.1338 12.1284 14.1338 11.9062C14.1338 11.0447 13.4325 10.3438 12.5704 10.3438H8.50531V1.40625C8.50531 0.630844 7.87407 0 7.09818 0H1.40713C0.631238 0 0 0.630844 0 1.40625V16H0.938086V14.5938H7.56723V16H8.50531V13.4688H15.0719V16H16.01V8.9375H15.0719ZM7.56723 13.6562H0.938086V3.72866C1.61635 3.94516 2.36948 3.87772 3.00109 3.52619C3.39115 3.74559 3.82189 3.85531 4.25266 3.85531C4.68343 3.85531 5.11419 3.74563 5.50422 3.52619C6.13583 3.87772 6.88896 3.94519 7.56723 3.72866V13.6562ZM7.56723 2.7135C7.00844 3.01941 6.3035 2.97931 5.78336 2.59262L5.50344 2.38456L5.22351 2.59266C4.64284 3.02431 3.86251 3.02431 3.2818 2.59266L3.00187 2.38456L2.72195 2.59266C2.20181 2.97931 1.49687 3.01941 0.938086 2.7135V1.40625C0.938086 1.14778 1.1485 0.9375 1.40713 0.9375H7.09818C7.35681 0.9375 7.56723 1.14778 7.56723 1.40625V2.7135ZM12.5704 12.5312H8.50531V11.2812H12.5704C12.9152 11.2812 13.1957 11.5616 13.1957 11.9062C13.1957 12.2509 12.9152 12.5312 12.5704 12.5312Z" fill="#003761"/>
<path d="M3.46875 4.78125H2.53125V12.7188H3.46875V4.78125Z" fill="#003761"/>
<path d="M5.97266 4.78125H5.03516V12.7188H5.97266V4.78125Z" fill="#003761"/>
</svg>
