<svg width="18" height="18" viewBox="0 0 18 18" fill="none" xmlns="http://www.w3.org/2000/svg">
<rect x="0.5" y="0.5" width="17" height="17" rx="2.5" fill="white" stroke="#7C007C"/>
<path d="M10.5967 4.04688H12.3057V10.6982C12.3057 11.4548 12.1416 12.0882 11.8135 12.5986C11.4854 13.109 11.0387 13.4941 10.4736 13.7539C9.91309 14.0091 9.28646 14.1367 8.59375 14.1367C7.87826 14.1367 7.24023 14.0091 6.67969 13.7539C6.11914 13.4941 5.67708 13.109 5.35352 12.5986C5.03451 12.0882 4.875 11.4548 4.875 10.6982V4.04688H6.58398V10.6982C6.58398 11.1768 6.66602 11.571 6.83008 11.8809C6.99414 12.1862 7.22656 12.4118 7.52734 12.5576C7.82812 12.7035 8.18359 12.7764 8.59375 12.7764C9.00391 12.7764 9.3571 12.7035 9.65332 12.5576C9.9541 12.4118 10.1865 12.1862 10.3506 11.8809C10.5146 11.571 10.5967 11.1768 10.5967 10.6982V4.04688Z" fill="#7C007C"/>
</svg>
