<svg width="18" height="18" viewBox="0 0 18 18" fill="none" xmlns="http://www.w3.org/2000/svg">
<path d="M9.37084 0.0180043C9.47164 0.0972043 9.57964 0.165604 9.66604 0.255604C10.8756 1.5192 12.078 2.7864 13.2876 4.05C13.4172 4.1868 13.4784 4.3308 13.4784 4.5216C13.4748 5.544 13.4784 6.57 13.4784 7.5924V7.7652C13.8384 7.8948 14.1984 7.992 14.526 8.1468C16.2144 8.9496 17.2476 10.2708 17.5176 12.1284C17.8812 14.6268 16.3512 17.01 13.9392 17.7552C11.7432 18.4356 9.35644 17.568 8.10724 15.6348C8.03524 15.5232 7.95964 15.4836 7.82644 15.4836C6.32884 15.4872 4.83124 15.4872 3.33364 15.4836C2.37964 15.4836 1.62364 14.9796 1.34284 14.1372C1.27084 13.9212 1.22764 13.68 1.22764 13.4496C1.22044 9.6552 1.22044 5.8572 1.22404 2.0628C1.22404 1.0296 1.90084 0.230404 2.91604 0.0432043C2.93764 0.0396043 2.95564 0.0252043 2.97724 0.0144043C5.10844 0.0144043 7.23604 0.0144043 9.36724 0.0144043L9.37084 0.0180043ZM8.30524 9.72C8.20444 9.72 8.13604 9.72 8.06764 9.72C6.84364 9.72 5.62324 9.72 4.39924 9.72C4.05724 9.72 3.89164 9.5976 3.88444 9.3528C3.88084 9.1008 4.05724 8.9676 4.39924 8.9676C5.87884 8.9676 7.35844 8.9676 8.83804 8.964C8.93884 8.964 9.05764 8.9208 9.13324 8.8596C9.86404 8.28 10.6776 7.8948 11.5992 7.758C11.9592 7.704 12.33 7.6968 12.708 7.6644V4.7736C12.636 4.7736 12.5748 4.7736 12.5136 4.7736C11.9052 4.7736 11.2968 4.7772 10.6884 4.7736C10.5084 4.7736 10.3212 4.7628 10.1484 4.716C9.36364 4.5036 8.90644 3.8916 8.89924 3.06C8.89564 2.3652 8.89924 1.6668 8.89924 0.972004C8.89924 0.910804 8.89924 0.846004 8.89924 0.774004C8.83084 0.770404 8.77684 0.763204 8.72644 0.763204C6.92284 0.763204 5.12284 0.763204 3.31924 0.763204C3.17884 0.763204 3.03844 0.777604 2.90524 0.813604C2.30044 0.982804 1.96564 1.4616 1.96204 2.1456C1.96204 5.8824 1.96204 9.6192 1.96204 13.3596C1.96204 13.5 1.97284 13.6404 2.00884 13.7772C2.16724 14.3856 2.63884 14.7312 3.33004 14.7348C4.70524 14.7384 6.08044 14.7348 7.45564 14.7348C7.50604 14.7348 7.55284 14.7276 7.61764 14.7204C7.23244 13.7052 7.16044 12.6828 7.39804 11.6316C7.31164 11.6316 7.25044 11.6316 7.18564 11.6316C6.24964 11.6316 5.31364 11.6316 4.37764 11.6316C4.29844 11.6316 4.21204 11.6244 4.13644 11.6028C3.96724 11.556 3.87004 11.4084 3.88084 11.232C3.89164 11.0592 4.01044 10.9224 4.18324 10.8972C4.25884 10.8864 4.33444 10.8828 4.41004 10.8828C5.43244 10.8828 6.45844 10.8828 7.48084 10.8828C7.60324 10.8828 7.66084 10.8432 7.71844 10.7316C7.86244 10.4508 8.02444 10.1808 8.18284 9.9072C8.21524 9.8532 8.24764 9.7992 8.29804 9.7164L8.30524 9.72ZM12.4164 17.2404C14.8284 17.2512 16.8048 15.2784 16.8192 12.8484C16.8336 10.4328 14.8644 8.4528 12.438 8.4384C10.0188 8.424 8.02804 10.404 8.02444 12.8376C8.02084 15.2532 9.99004 17.2296 12.4164 17.2404ZM9.65884 1.332C9.65884 1.98 9.64084 2.574 9.66244 3.168C9.68044 3.6612 10.0656 4.0068 10.5588 4.0176C10.8036 4.0248 11.0484 4.0176 11.2932 4.0176C11.5812 4.0176 11.8728 4.0176 12.2076 4.0176C11.3472 3.1104 10.5156 2.2356 9.65524 1.3284L9.65884 1.332Z" fill="#16C79A"/>
<path d="M6.1525 7.09921C6.7789 7.09921 7.4017 7.09921 8.0281 7.09921C8.2585 7.09921 8.4169 7.26121 8.4205 7.46281C8.4205 7.66801 8.2621 7.82281 8.0353 7.83721C7.9885 7.83721 7.9417 7.83721 7.8949 7.83721C7.0489 7.83721 6.1993 7.83721 5.3533 7.83721C4.9969 7.83721 4.6405 7.83721 4.2841 7.83721C4.1185 7.83721 3.9853 7.76881 3.9169 7.61041C3.8593 7.47361 3.8629 7.31521 3.9817 7.22161C4.0789 7.14601 4.2229 7.09921 4.3453 7.09561C4.9465 7.08481 5.5477 7.08841 6.1525 7.08841V7.09921Z" fill="#16C79A"/>
<path d="M12.0096 11.3292C11.5344 11.8368 11.0628 12.348 10.584 12.852C10.5084 12.9312 10.404 13.0032 10.2996 13.0392C10.1448 13.0932 10.0116 13.0248 9.92162 12.8916C9.83522 12.7656 9.83162 12.6288 9.91082 12.4956C9.94322 12.4416 9.98642 12.3912 10.0296 12.3444C10.71 11.6136 11.3904 10.8792 12.0744 10.1484C12.3156 9.8928 12.5172 9.8928 12.7584 10.1484C13.4496 10.8864 14.1408 11.628 14.832 12.366C14.9508 12.492 15.0336 12.6252 14.9616 12.8088C14.9076 12.9456 14.8104 13.0284 14.6664 13.05C14.5044 13.0752 14.3892 12.9888 14.2848 12.8772C13.8456 12.4056 13.41 11.934 12.9708 11.4624C12.9276 11.4156 12.888 11.3652 12.816 11.2788C12.8124 11.394 12.8052 11.4552 12.8052 11.5164C12.8052 12.7512 12.8052 13.986 12.8052 15.2172C12.8052 15.3036 12.798 15.3936 12.7764 15.4764C12.7368 15.6348 12.5892 15.7392 12.4236 15.7392C12.2544 15.7392 12.1068 15.624 12.0708 15.4548C12.0528 15.3684 12.0492 15.282 12.0492 15.1956C12.0492 13.9716 12.0492 12.7512 12.0492 11.5272C12.0492 11.466 12.0492 11.4012 12.0492 11.34C12.0348 11.3364 12.0204 11.3328 12.0096 11.3292Z" fill="#16C79A"/>
</svg>
