<svg width="20" height="20" viewBox="0 0 20 20" fill="none" xmlns="http://www.w3.org/2000/svg">
<path d="M7.2943 9.1081C9.8094 9.1081 11.8483 7.06929 11.8483 4.55405C11.8483 2.03894 9.8094 0 7.2943 0C4.77906 0 2.74011 2.03894 2.74011 4.55405C2.7424 7.06835 4.78013 9.10581 7.2943 9.1081ZM7.2943 0.861672C9.33351 0.861672 10.9867 2.51497 10.9867 4.55405C10.9867 6.5934 9.33351 8.24643 7.2943 8.24643C5.25508 8.24643 3.60178 6.5934 3.60178 4.55405C3.60421 2.51578 5.25603 0.864097 7.2943 0.861672Z" fill="#FD8C04"/>
<path d="M17.6349 10.6333H17.583V10.405C17.583 10.167 17.3902 9.97412 17.1522 9.97412C16.9142 9.97412 16.7213 10.167 16.7213 10.405V10.6333H13.8045V10.405C13.8045 10.167 13.6117 9.97412 13.3736 9.97412C13.1356 9.97412 12.9427 10.167 12.9427 10.405V10.6333H12.8912C12.2881 10.6331 11.7127 10.8863 11.3056 11.3314C10.1182 10.5436 8.72342 10.1267 7.2987 10.1335H7.28564C5.31256 10.1379 3.48146 10.9049 2.12423 12.3008C0.749755 13.7096 -0.00429202 15.6354 1.83779e-05 17.7251C0.000961248 17.8394 0.0456814 17.949 0.125019 18.031C0.206108 18.1123 0.316292 18.1571 0.430922 18.1559L10.7628 18.1343C10.9078 19.2018 11.8184 19.9982 12.8955 20.0001H17.6349C18.8244 19.9997 19.7887 19.0353 19.7891 17.8458V12.7876C19.7887 11.5981 18.8244 10.6337 17.6349 10.6333ZM12.8955 11.495H12.9472V12.0251C12.9472 12.2629 13.1401 12.456 13.3781 12.456C13.616 12.456 13.8089 12.2629 13.8089 12.0251V11.495H16.7258V12.0251C16.7258 12.2629 16.9187 12.456 17.1565 12.456C17.3946 12.456 17.5874 12.2629 17.5874 12.0251V11.495H17.639C18.3521 11.497 18.9296 12.0745 18.9316 12.7876V13.2916H11.6072V12.7876C11.6057 12.0749 12.1826 11.496 12.8955 11.495ZM2.74021 12.8995C3.93378 11.6716 5.5495 10.9953 7.28564 10.9953H7.2987C8.56757 10.9885 9.80923 11.3638 10.8618 12.0723C10.7803 12.3036 10.7381 12.5467 10.7369 12.7919V17.2727L0.866001 17.2942C0.965139 15.5967 1.61991 14.0501 2.74021 12.8995ZM17.6349 19.1341H12.8955C12.1824 19.1319 11.605 18.5545 11.603 17.8415V14.1534H18.9274V17.8415C18.9278 18.1845 18.7918 18.5134 18.5493 18.756C18.3067 18.9984 17.9777 19.1345 17.6349 19.1341Z" fill="#FD8C04"/>
<path d="M17.6261 15.2563H12.904C12.666 15.2563 12.4731 15.4492 12.4731 15.6871C12.4731 15.925 12.666 16.118 12.904 16.118H17.6261C17.8641 16.118 18.057 15.925 18.057 15.6871C18.057 15.4492 17.8641 15.2563 17.6261 15.2563Z" fill="#FD8C04"/>
<path d="M15.6356 17.2598H12.904C12.666 17.2598 12.4731 17.4527 12.4731 17.6907C12.4731 17.9284 12.666 18.1216 12.904 18.1216H15.6356C15.8736 18.1216 16.0664 17.9284 16.0664 17.6907C16.0664 17.4527 15.8736 17.2598 15.6356 17.2598Z" fill="#FD8C04"/>
</svg>
