<svg width="19" height="18" viewBox="0 0 19 18" fill="none" xmlns="http://www.w3.org/2000/svg">
<path d="M16.3716 6.375C16.3716 2.85974 13.5118 0 9.99659 0C6.48133 0 3.62159 2.85974 3.62159 6.375C3.62159 9.63593 6.08418 12.3289 9.24659 12.702V14.25H7.74659C7.33259 14.25 6.99659 14.586 6.99659 15C6.99659 15.414 7.33259 15.75 7.74659 15.75H9.24659V17.25C9.24659 17.664 9.58259 18 9.99659 18C10.4106 18 10.7466 17.664 10.7466 17.25V15.75H12.2466C12.6606 15.75 12.9966 15.414 12.9966 15C12.9966 14.586 12.6606 14.25 12.2466 14.25H10.7466V12.702C13.909 12.3289 16.3716 9.63593 16.3716 6.375ZM5.12159 6.375C5.12159 3.68701 7.3086 1.5 9.99659 1.5C12.6846 1.5 14.8716 3.68701 14.8716 6.375C14.8716 9.06299 12.6846 11.25 9.99659 11.25C7.3086 11.25 5.12159 9.06299 5.12159 6.375Z" fill="#F25287"/>
</svg>
