<svg width="18" height="18" viewBox="0 0 18 18" fill="none" xmlns="http://www.w3.org/2000/svg">
<path d="M10.8875 0.703261L10.8834 0.699243C10.8077 0.621146 10.7032 0.577452 10.5942 0.578707C10.5808 0.57808 10.5672 0.579335 10.5541 0.582851H4.38415C3.2751 0.583102 2.37623 1.48209 2.37573 2.59127V15.4451C2.37623 16.5542 3.2751 17.4531 4.38415 17.4535H13.3298C14.4388 17.4531 15.3378 16.5542 15.3382 15.4451V5.31449C15.3374 5.20814 15.2957 5.10606 15.2217 5.02947L10.8875 0.703261ZM10.9959 1.94854L13.9764 4.92099H12.201C11.5363 4.91898 10.9978 4.38059 10.9959 3.71602V1.94854ZM13.3338 16.6462H4.38415C3.71945 16.6443 3.18118 16.1058 3.17905 15.4411V2.58713C3.18118 1.92255 3.71945 1.38403 4.38415 1.38215H10.1926V3.71602C10.1929 4.82494 11.0919 5.72393 12.201 5.72444H14.5349V15.4411C14.5361 16.1055 13.9982 16.6453 13.3338 16.6462V16.6462Z" fill="#003761"/>
<path d="M4.95049 8.33129H9.29277C9.51451 8.33129 9.69456 8.15149 9.69456 7.92962C9.69456 7.70776 9.51451 7.52795 9.29277 7.52795H4.95049C4.72863 7.52795 4.54883 7.70776 4.54883 7.92962C4.54883 8.15149 4.72863 8.33129 4.95049 8.33129Z" fill="#003761"/>
<path d="M12.7673 10.5647H4.95049C4.72863 10.5647 4.54883 10.7445 4.54883 10.9664C4.54883 11.1881 4.72863 11.368 4.95049 11.368H12.7673C12.9891 11.368 13.1691 11.1881 13.1691 10.9664C13.1691 10.7445 12.9891 10.5647 12.7673 10.5647V10.5647Z" fill="#003761"/>
<path d="M12.7673 13.6054H4.95049C4.72863 13.6054 4.54883 13.7852 4.54883 14.0071C4.54883 14.2289 4.72863 14.4087 4.95049 14.4087H12.7673C12.9891 14.4087 13.1691 14.2289 13.1691 14.0071C13.1691 13.7852 12.9891 13.6054 12.7673 13.6054Z" fill="#003761"/>
</svg>
