<svg width="48" height="48" viewBox="0 0 48 48" fill="none" xmlns="http://www.w3.org/2000/svg">
<path d="M41.3663 12.9053L28.7389 0.277875C28.561 0.0999375 28.3198 0 28.068 0H10.275C8.11411 0 6.3562 1.75791 6.3562 3.91875V44.0813C6.3562 46.2421 8.11411 48 10.275 48H37.7253C39.8862 48 41.6441 46.2421 41.6441 44.0813V13.576C41.6441 13.3245 41.5441 13.0831 41.3663 12.9053ZM29.0168 3.23897L38.4052 12.6272H31.0381C29.9235 12.6272 29.0169 11.7204 29.0169 10.6057V3.23897H29.0168ZM39.7468 44.0813C39.7468 45.1958 38.84 46.1027 37.7253 46.1027H10.275C9.16036 46.1027 8.25351 45.1958 8.25351 44.0813V3.91875C8.25351 2.80416 9.16036 1.89731 10.275 1.89731H27.1194V10.6059C27.1194 12.7668 28.8772 14.5247 31.038 14.5247H39.7468V44.0813V44.0813Z" fill="#003761"/>
<path d="M31.5896 24.0947H16.4116C15.8878 24.0947 15.463 24.5195 15.463 25.0434C15.463 25.5673 15.8878 25.992 16.4116 25.992H31.5896C32.1136 25.992 32.5382 25.5673 32.5382 25.0434C32.5382 24.5195 32.1136 24.0947 31.5896 24.0947Z" fill="#003761"/>
<path d="M31.5896 28.332H16.4116C15.8878 28.332 15.463 28.7568 15.463 29.2807C15.463 29.8046 15.8878 30.2293 16.4116 30.2293H31.5896C32.1136 30.2293 32.5382 29.8046 32.5382 29.2807C32.5382 28.7568 32.1136 28.332 31.5896 28.332Z" fill="#003761"/>
<path d="M31.5896 32.5688H16.4116C15.8878 32.5688 15.463 32.9936 15.463 33.5175C15.463 34.0414 15.8878 34.4662 16.4116 34.4662H31.5896C32.1136 34.4662 32.5382 34.0414 32.5382 33.5175C32.5382 32.9936 32.1136 32.5688 31.5896 32.5688Z" fill="#003761"/>
<path d="M26.6567 36.8062H16.4116C15.8878 36.8062 15.463 37.2309 15.463 37.7548C15.463 38.2787 15.8878 38.7035 16.4116 38.7035H26.6567C27.1808 38.7035 27.6054 38.2787 27.6054 37.7548C27.6054 37.2309 27.1808 36.8062 26.6567 36.8062Z" fill="#003761"/>
</svg>
