<svg width="28" height="28" viewBox="0 0 28 28" fill="none" xmlns="http://www.w3.org/2000/svg">
  <g clip-path="url(#clip0_1405_8421)">
    <path d="M23.7735 9.25758C23.0706 8.64075 22.359 8.08582 21.6436 7.59613L27.7811 1.48165L26.6232 0.319458L20.2119 6.70681C19.9669 6.56989 19.7218 6.44023 19.4769 6.31916C17.6423 5.4124 15.8094 4.95262 14.0289 4.95262C12.2488 4.95262 10.4133 5.41224 8.57327 6.31873C7.12853 7.03049 5.67691 8.01873 4.25875 9.25605C1.86153 11.3476 0.393994 13.416 0.332694 13.503L0 13.9754L0.332694 14.4478C0.393994 14.5348 1.86153 16.6032 4.25875 18.6947C4.98762 19.3307 5.72536 19.9002 6.46637 20.4009L0.325913 26.5183L1.48378 27.6805L7.90547 21.2829C8.12815 21.4055 8.35082 21.5224 8.57332 21.6321C10.4133 22.5386 12.2488 22.9982 14.0289 22.9982C15.8094 22.9982 17.6424 22.5384 19.4769 21.6316C20.9175 20.9196 22.3631 19.931 23.7735 18.6932C26.1575 16.601 27.6118 14.5318 27.6726 14.4447L28 13.9754L27.6726 13.506C27.6118 13.419 26.1575 11.3498 23.7735 9.25758ZM5.36499 17.4827C3.76692 16.0928 2.58822 14.6857 2.03133 13.9757C3.36412 12.2788 8.26152 6.59313 14.0289 6.59313C15.8077 6.59313 17.4972 7.14494 18.9942 7.91997L17.5021 9.40648C16.537 8.67105 15.3332 8.23363 14.0289 8.23363C10.8629 8.23363 8.28711 10.8094 8.28711 13.9754C8.28711 15.2719 8.71927 16.4693 9.44689 17.4315L7.65508 19.2166C6.7931 18.658 6.02054 18.0529 5.36499 17.4827ZM18.1301 13.9754C18.1301 16.2368 16.2903 18.0767 14.0289 18.0767C13.2041 18.0767 12.4362 17.8311 11.7924 17.4105L17.4723 11.7518C17.8878 12.393 18.1301 13.1562 18.1301 13.9754ZM9.92761 13.9754C9.92761 11.714 11.7674 9.87414 14.0289 9.87414C14.879 9.87414 15.6695 10.1343 16.3252 10.579L10.6239 16.2589C10.1845 15.6058 9.92761 14.82 9.92761 13.9754ZM22.6636 17.4845C20.6437 19.2514 17.5061 21.3577 14.0289 21.3577C12.278 21.3577 10.6098 20.8235 9.12519 20.0677L10.6118 18.5867C11.5673 19.2966 12.7499 19.7172 14.0289 19.7172C17.1949 19.7172 19.7707 17.1414 19.7707 13.9754C19.7707 12.7041 19.3551 11.5281 18.653 10.5757L20.4566 8.77877C21.2862 9.32435 22.03 9.91198 22.6637 10.4663C24.2542 11.8577 25.4242 13.2665 25.9754 13.9754C25.4242 14.6844 24.2542 16.0931 22.6636 17.4845Z" fill="#25B5BD" />
  </g>
  <defs>
    <clipPath id="clip0_1405_8421">
      <rect width="28" height="28" fill="white" />
    </clipPath>
  </defs>
</svg>