<svg width="25" height="25" viewBox="0 0 25 25" fill="none" xmlns="http://www.w3.org/2000/svg">
<path d="M25 12.5C25 19.4 19.4 25 12.5 25C5.6 25 0 19.45 0 12.5C0 5.55 5.6 0 12.5 0C19.4 0 25 5.6 25 12.5ZM12.5 3.25C7.4 3.25 3.25 7.4 3.25 12.5C3.25 17.6 7.4 21.75 12.5 21.75C17.6 21.75 21.75 17.6 21.75 12.5C21.75 7.4 17.6 3.25 12.5 3.25Z" fill="#0D7223"/>
<path d="M6.94446 6.99446H10.1945L11.3945 12.0945C11.6945 13.3445 11.9445 14.5445 12.2445 15.7945H12.2945C12.5945 14.5445 12.8445 13.3445 13.1445 12.0945L14.3445 6.99446H17.4945L14.1445 18.6945H10.3945L6.94446 6.99446Z" fill="#0D7223"/>
</svg>
