<svg width="20" height="20" viewBox="0 0 20 20" fill="none" xmlns="http://www.w3.org/2000/svg">
<g clip-path="url(#clip0_1694_32058)">
<path d="M9.21875 16.0938C9.00312 16.0938 8.82812 16.2687 8.82812 16.4844C8.82812 16.7 9.00312 16.875 9.21875 16.875C9.43437 16.875 9.60938 16.7 9.60938 16.4844C9.60938 16.2687 9.43437 16.0938 9.21875 16.0938Z" fill="#003761"/>
<path d="M18.8281 0H1.17188C0.525703 0 0 0.525703 0 1.17188V18.8281C0 19.4743 0.525703 20 1.17188 20H18.8281C19.4743 20 20 19.4743 20 18.8281V1.17188C20 0.525703 19.4743 0 18.8281 0ZM19.2188 18.8281C19.2188 19.0435 19.0435 19.2188 18.8281 19.2188H1.17188C0.956484 19.2188 0.78125 19.0435 0.78125 18.8281V1.17188C0.78125 0.956484 0.956484 0.78125 1.17188 0.78125H18.8281C19.0435 0.78125 19.2188 0.956484 19.2188 1.17188V18.8281Z" fill="#003761"/>
<path d="M17.0312 2.34375H2.96875C2.75301 2.34375 2.57812 2.51863 2.57812 2.73438V14.1406C2.57812 14.3564 2.75301 14.5312 2.96875 14.5312H17.0312C17.247 14.5312 17.4219 14.3564 17.4219 14.1406V2.73438C17.4219 2.51863 17.247 2.34375 17.0312 2.34375ZM16.6406 13.75H3.35938V9.60938H6.09375C6.24172 9.60938 6.37695 9.52578 6.44313 9.39344L6.80262 8.67441L7.28566 10.1235C7.33883 10.283 7.48812 10.3906 7.65625 10.3906C7.82438 10.3906 7.97363 10.283 8.02684 10.1235L9.16516 6.70863L10.4023 11.6573C10.4434 11.8216 10.5858 11.9408 10.7548 11.9523C10.7637 11.9529 10.7726 11.9532 10.7814 11.9532C10.9402 11.9532 11.0843 11.8566 11.1439 11.7076L12.3834 8.60902L12.7756 9.39352C12.8418 9.52578 12.977 9.60938 13.125 9.60938H16.6406V13.75ZM16.6406 8.82812H13.3664L12.6931 7.48156C12.6243 7.34398 12.4816 7.25965 12.3275 7.26598C12.1738 7.27238 12.0382 7.36836 11.9811 7.51117L10.8672 10.2958L9.5977 5.21773C9.55555 5.04926 9.40727 4.92883 9.23371 4.92215C9.06023 4.91563 8.90309 5.02422 8.84812 5.18898L7.65625 8.76473L7.24559 7.53273C7.19562 7.38285 7.06027 7.27781 6.9027 7.2666C6.74492 7.25547 6.59629 7.34027 6.52562 7.48156L5.85234 8.82812H3.35938V3.125H16.6406V8.82812Z" fill="#003761"/>
<path d="M4.53125 16.0938H2.96875C2.75301 16.0938 2.57812 16.2686 2.57812 16.4844C2.57812 16.7001 2.75301 16.875 2.96875 16.875H4.53125C4.74699 16.875 4.92188 16.7001 4.92188 16.4844C4.92188 16.2686 4.74699 16.0938 4.53125 16.0938Z" fill="#003761"/>
<path d="M7.65625 16.0938H6.09375C5.87801 16.0938 5.70312 16.2686 5.70312 16.4844C5.70312 16.7001 5.87801 16.875 6.09375 16.875H7.65625C7.87199 16.875 8.04688 16.7001 8.04688 16.4844C8.04688 16.2686 7.87199 16.0938 7.65625 16.0938Z" fill="#003761"/>
<path d="M16.25 15.3125C15.6038 15.3125 15.0781 15.8382 15.0781 16.4844C15.0781 17.1305 15.6038 17.6562 16.25 17.6562C16.8962 17.6562 17.4219 17.1305 17.4219 16.4844C17.4219 15.8382 16.8962 15.3125 16.25 15.3125ZM16.25 16.875C16.0346 16.875 15.8594 16.6998 15.8594 16.4844C15.8594 16.269 16.0346 16.0938 16.25 16.0938C16.4654 16.0938 16.6406 16.269 16.6406 16.4844C16.6406 16.6998 16.4654 16.875 16.25 16.875Z" fill="#003761"/>
<path d="M12.3438 15.3125C11.6976 15.3125 11.1719 15.8382 11.1719 16.4844C11.1719 17.1305 11.6976 17.6562 12.3438 17.6562C12.9899 17.6562 13.5156 17.1305 13.5156 16.4844C13.5156 15.8382 12.9899 15.3125 12.3438 15.3125ZM12.3438 16.875C12.1284 16.875 11.9531 16.6998 11.9531 16.4844C11.9531 16.269 12.1284 16.0938 12.3438 16.0938C12.5591 16.0938 12.7344 16.269 12.7344 16.4844C12.7344 16.6998 12.5591 16.875 12.3438 16.875Z" fill="#003761"/>
</g>
<defs>
<clipPath id="clip0_1694_32058">
<rect width="20" height="20" fill="white"/>
</clipPath>
</defs>
</svg>
