<svg width="30" height="30" viewBox="0 0 30 30" fill="none" xmlns="http://www.w3.org/2000/svg">
<path d="M20.5847 20.9034L18.9469 17.2181L19.9322 17.7553C20.003 17.7942 20.0799 17.8125 20.1558 17.8125C20.3152 17.8125 20.4704 17.7309 20.558 17.5852L21.9643 15.2414C22.0974 15.0192 22.0257 14.7314 21.8035 14.5983L18.75 12.7659V8.90625C18.75 7.87453 18.0755 7.00594 17.1474 6.69422C17.8407 6.09188 18.2813 5.20641 18.2813 4.21875C18.2813 2.40984 16.8094 0.9375 15 0.9375C13.1907 0.9375 11.7188 2.40984 11.7188 4.21875C11.7188 5.20641 12.1594 6.09188 12.8527 6.69422C11.9246 7.00594 11.25 7.87453 11.25 8.90625V10.7489L7.6069 15.1706C7.45362 15.3567 7.46675 15.6295 7.63737 15.8002L9.51237 17.6752C9.6005 17.7633 9.71956 17.8125 9.84378 17.8125C9.84894 17.8125 9.85456 17.8125 9.85972 17.812C9.98956 17.8078 10.1119 17.7497 10.1972 17.6517L11.4769 16.1831C11.6635 16.8553 11.9653 17.4881 12.3718 18.0605L11.2814 22.7794L8.51628 26.9273C8.38128 27.1298 8.42347 27.4017 8.61378 27.5536L10.9575 29.4286C11.041 29.4956 11.1441 29.5312 11.25 29.5312C11.2707 29.5312 11.2918 29.5298 11.3124 29.527C11.4394 29.5102 11.5538 29.4417 11.6288 29.3381L15.3788 24.1819C15.4097 24.1392 15.4336 24.0919 15.4486 24.0412L16.0899 21.9089L16.9172 22.7358L18.293 28.6987C18.3422 28.912 18.5316 29.0625 18.75 29.0625H21.5626C21.7018 29.0625 21.8344 29.0002 21.9235 28.8933C22.0126 28.7864 22.0491 28.6448 22.0233 28.5075L20.6171 21.0075C20.6105 20.9714 20.5993 20.9367 20.5847 20.9034ZM12.6563 4.21875C12.6563 2.92641 13.7077 1.875 15 1.875C16.2924 1.875 17.3438 2.92641 17.3438 4.21875C17.3438 4.77375 17.1418 5.27766 16.8179 5.67984C16.5586 5.42016 16.4063 5.06344 16.4063 4.6875H15.4688C15.4688 5.28469 15.7018 5.85 16.0974 6.27703C15.7683 6.45328 15.3985 6.5625 15 6.5625C13.7077 6.5625 12.6563 5.51109 12.6563 4.21875ZM9.82034 16.657L8.60112 15.4378L11.25 12.2231V14.5453C11.25 14.6953 11.2613 14.8434 11.2716 14.9916L9.82034 16.657ZM14.5739 23.6948L11.1596 28.3903L9.53487 27.0905L12.1088 23.2294C12.1402 23.182 12.1627 23.13 12.1753 23.0752L13.1288 18.9487L15.3375 21.1575L14.5739 23.6948ZM19.1227 28.125L17.8004 22.3945C17.7807 22.3088 17.7371 22.2305 17.6747 22.1686L13.695 18.1889C12.7233 17.2167 12.1875 15.9225 12.1875 14.5453V8.90625C12.1875 8.13094 12.8185 7.5 13.5938 7.5H16.4063C17.1816 7.5 17.8125 8.13094 17.8125 8.90625V12.2034L17.265 11.8748L16.3824 9.22688L15.4932 9.52359L16.4307 12.3361C16.4663 12.4425 16.538 12.532 16.6341 12.5897L20.9199 15.1608L19.9861 16.7166L15.3643 14.1956L13.5535 10.1222L12.6971 10.5028L14.5721 14.7216C14.6138 14.8153 14.6855 14.8931 14.776 14.9428L17.8125 16.5994V16.875C17.8125 16.9406 17.8261 17.0053 17.8529 17.0653L19.7054 21.2339L20.9977 28.125H19.1227Z" fill="#003761"/>
</svg>
