<svg width="25" height="25" viewBox="0 0 25 25" fill="none" xmlns="http://www.w3.org/2000/svg">
<path d="M17.1538 17.4195L15.789 14.3484L16.6101 14.7961C16.6691 14.8285 16.7331 14.8438 16.7964 14.8438C16.9292 14.8438 17.0585 14.7758 17.1316 14.6543L18.3035 12.7012C18.4144 12.516 18.3546 12.2762 18.1695 12.1652L15.6249 10.6383V7.42188C15.6249 6.56211 15.0628 5.83828 14.2894 5.57852C14.8671 5.07656 15.2343 4.33867 15.2343 3.51562C15.2343 2.0082 14.0077 0.78125 12.4999 0.78125C10.9921 0.78125 9.76555 2.0082 9.76555 3.51562C9.76555 4.33867 10.1327 5.07656 10.7105 5.57852C9.93704 5.83828 9.37493 6.56211 9.37493 7.42188V8.95742L6.33898 12.6422C6.21125 12.7973 6.22219 13.0246 6.36437 13.1668L7.92688 14.7293C8.00031 14.8027 8.09953 14.8438 8.20305 14.8438C8.20735 14.8438 8.21203 14.8438 8.21633 14.8434C8.32453 14.8398 8.42649 14.7914 8.49758 14.7098L9.56399 13.4859C9.71946 14.0461 9.97102 14.5734 10.3097 15.0504L9.4011 18.9828L7.0968 22.4395C6.9843 22.6082 7.01945 22.8348 7.17805 22.9613L9.13118 24.5238C9.20071 24.5797 9.28665 24.6094 9.37493 24.6094C9.39211 24.6094 9.40969 24.6082 9.42688 24.6059C9.53274 24.5918 9.62805 24.5348 9.69055 24.4484L12.8156 20.1516C12.8413 20.116 12.8613 20.0766 12.8738 20.0344L13.4081 18.2574L14.0976 18.9465L15.2441 23.9156C15.2851 24.0934 15.4429 24.2188 15.6249 24.2188H17.9687C18.0847 24.2188 18.1953 24.1668 18.2695 24.0777C18.3437 23.9887 18.3742 23.8707 18.3527 23.7563L17.1808 17.5063C17.1753 17.4762 17.166 17.4473 17.1538 17.4195V17.4195ZM10.5468 3.51562C10.5468 2.43867 11.423 1.5625 12.4999 1.5625C13.5769 1.5625 14.4531 2.43867 14.4531 3.51562C14.4531 3.97813 14.2847 4.39805 14.0148 4.7332C13.7988 4.5168 13.6718 4.21953 13.6718 3.90625H12.8906C12.8906 4.40391 13.0847 4.875 13.4144 5.23086C13.1402 5.37773 12.832 5.46875 12.4999 5.46875C11.423 5.46875 10.5468 4.59258 10.5468 3.51562ZM8.18352 13.8809L7.1675 12.8648L9.37493 10.1859V12.1211C9.37493 12.2461 9.3843 12.3695 9.3929 12.493L8.18352 13.8809ZM12.1449 19.7457L9.29954 23.6586L7.94563 22.5754L10.0906 19.3578C10.1167 19.3184 10.1355 19.275 10.146 19.2293L10.9406 15.7906L12.7812 17.6313L12.1449 19.7457ZM15.9355 23.4375L14.8335 18.6621C14.8171 18.5906 14.7808 18.5254 14.7288 18.4738L11.4124 15.1574C10.6027 14.3473 10.1562 13.2688 10.1562 12.1211V7.42188C10.1562 6.77578 10.682 6.25 11.3281 6.25H13.6718C14.3179 6.25 14.8437 6.77578 14.8437 7.42188V10.1695L14.3874 9.8957L13.6519 7.68906L12.9109 7.93633L13.6921 10.2801C13.7218 10.3687 13.7816 10.4434 13.8617 10.4914L17.4331 12.634L16.655 13.9305L12.8034 11.8297L11.2945 8.43516L10.5808 8.75234L12.1433 12.268C12.1781 12.3461 12.2378 12.4109 12.3132 12.4523L14.8437 13.8328V14.0625C14.8437 14.1172 14.855 14.1711 14.8773 14.2211L16.421 17.6949L17.498 23.4375H15.9355Z" fill="#C8CCCD"/>
</svg>
