<svg width="10" height="20" viewBox="0 0 10 20" fill="none" xmlns="http://www.w3.org/2000/svg">
<path d="M8.72317 13.9356L7.63129 11.4787L8.28817 11.8369C8.33536 11.8628 8.38661 11.875 8.43723 11.875C8.54348 11.875 8.64692 11.8206 8.70536 11.7234L9.64286 10.1609C9.73161 10.0128 9.6838 9.82094 9.53567 9.73219L7.50004 8.51062V5.9375C7.50004 5.24969 7.05035 4.67063 6.4316 4.46281C6.89379 4.06125 7.18754 3.47094 7.18754 2.8125C7.18754 1.60656 6.20629 0.625 5.00004 0.625C3.79379 0.625 2.81253 1.60656 2.81253 2.8125C2.81253 3.47094 3.10628 4.06125 3.56847 4.46281C2.94972 4.67063 2.50003 5.24969 2.50003 5.9375V7.16594L0.0712787 10.1137C-0.030909 10.2378 -0.0221594 10.4197 0.0915908 10.5334L1.34159 11.7834C1.40034 11.8422 1.47972 11.875 1.56253 11.875C1.56597 11.875 1.56972 11.875 1.57316 11.8747C1.65972 11.8719 1.74128 11.8331 1.79816 11.7678L2.65128 10.7887C2.77566 11.2369 2.97691 11.6587 3.24785 12.0403L2.52097 15.1863L0.677529 17.9516C0.587529 18.0866 0.615654 18.2678 0.74253 18.3691L2.30503 19.6191C2.36066 19.6637 2.42941 19.6875 2.50003 19.6875C2.51378 19.6875 2.52785 19.6866 2.5416 19.6847C2.62628 19.6734 2.70253 19.6278 2.75253 19.5588L5.25254 16.1213C5.27316 16.0928 5.2891 16.0612 5.2991 16.0275L5.7266 14.6059L6.27817 15.1572L7.19535 19.1325C7.22817 19.2747 7.35442 19.375 7.50004 19.375H9.37505C9.46786 19.375 9.5563 19.3334 9.61567 19.2622C9.67505 19.1909 9.69942 19.0966 9.68223 19.005L8.74473 14.005C8.74036 13.9809 8.73286 13.9578 8.72317 13.9356ZM3.43753 2.8125C3.43753 1.95094 4.13847 1.25 5.00004 1.25C5.8616 1.25 6.56254 1.95094 6.56254 2.8125C6.56254 3.1825 6.42785 3.51844 6.21191 3.78656C6.0391 3.61344 5.93754 3.37562 5.93754 3.125H5.31254C5.31254 3.52312 5.46785 3.9 5.7316 4.18469C5.51223 4.30219 5.26566 4.375 5.00004 4.375C4.13847 4.375 3.43753 3.67406 3.43753 2.8125ZM1.54691 11.1047L0.734092 10.2919L2.50003 8.14875V9.69688C2.50003 9.79688 2.50753 9.89563 2.51441 9.99438L1.54691 11.1047ZM4.71597 15.7966L2.43972 18.9269L1.35659 18.0603L3.07253 15.4862C3.09347 15.4547 3.10847 15.42 3.11691 15.3834L3.75254 12.6325L5.22504 14.105L4.71597 15.7966ZM7.74848 18.75L6.86692 14.9297C6.85379 14.8725 6.82473 14.8203 6.78317 14.7791L4.13004 12.1259C3.48222 11.4778 3.12503 10.615 3.12503 9.69688V5.9375C3.12503 5.42063 3.54566 5 4.06254 5H5.93754C6.45442 5 6.87504 5.42063 6.87504 5.9375V8.13562L6.51004 7.91656L5.9216 6.15125L5.32879 6.34906L5.95379 8.22406C5.97754 8.295 6.02535 8.35469 6.08942 8.39313L8.94661 10.1072L8.32411 11.1444L5.24285 9.46375L4.03566 6.74813L3.46472 7.00187L4.71473 9.81437C4.74254 9.87687 4.79035 9.92875 4.85066 9.96187L6.87504 11.0662V11.25C6.87504 11.2937 6.8841 11.3369 6.90192 11.3769L8.13692 14.1559L8.99848 18.75H7.74848Z" fill="#FD8C04"/>
</svg>
