<?xml version="1.0" encoding="utf-8"?>
<!-- Generator: Adobe Illustrator 25.0.1, SVG Export Plug-In . SVG Version: 6.00 Build 0)  -->
<svg version="1.1" id="Layer_1" xmlns="http://www.w3.org/2000/svg" xmlns:xlink="http://www.w3.org/1999/xlink" x="0px" y="0px"
	 viewBox="0 0 113 105" style="enable-background:new 0 0 113 105;" xml:space="preserve">
<style type="text/css">
	.st0{fill:#E6E9ED;}
	.st1{fill:#E8E8E8;}
	.st2{fill:#CCD1D9;}
	.st3{fill:#B8BDC8;}
	.st4{fill:#19456B;}
</style>
<g>
	<g id="ward_1_" transform="translate(-1 -6.005)">
		<path id="Path_1491_1_" class="st0" d="M85.4,62.8v4h-4v-4C81.4,62.8,85.4,62.8,85.4,62.8z"/>
		<path id="Path_1492_1_" class="st1" d="M85.4,66.8v12H29.6v-12H85.4z"/>
		<path id="Path_1493_1_" class="st2" d="M40.6,60.9v2H29.6v-6h7v0C38.8,56.9,40.6,58.7,40.6,60.9C40.6,60.9,40.6,60.9,40.6,60.9
			L40.6,60.9z"/>
		<path id="Path_1494_1_" class="st0" d="M43.5,62.8v4H29.6v-4H43.5z"/>
		<path id="Path_1495_1_" class="st3" d="M81.4,65.8v6c0,0.6-0.4,1-1,1H44.5c-0.6,0-1-0.4-1-1v-9c0-0.5,0.4-1,1-1h35.9
			c0.5,0,1,0.4,1,1V65.8z"/>
		<path id="Path_1496_1_" class="st4" d="M46.5,61.9h31.9v8H46.5V61.9z"/>
		<path id="Path_1497_1_" class="st4" d="M60.5,33c5.5,0,10,4.5,10,10s-4.5,10-10,10s-10-4.5-10-10C50.5,37.4,55,33,60.5,33
			C60.5,33,60.5,33,60.5,33z"/>
		<path id="Path_1498_1_" class="st1" d="M87.4,57.9c0.5,0,1,0.4,1,1v24.9c0,0.5-0.4,1-1,1h-1c-0.5,0-1-0.4-1-1V58.9
			c0-0.6,0.4-1,1-1L87.4,57.9z"/>
		<path id="Path_1499_1_" class="st1" d="M29.6,55.9v27.9c0,0.5-0.4,1-1,1h-1c-0.5,0-1-0.4-1-1V44.9c0-0.5,0.4-1,1-1h1
			c0.5,0,1,0.4,1,1L29.6,55.9z"/>
		<g id="Group_320_1_" transform="translate(51.045 14.625)">
			<path id="Path_1500_1_" class="st0" d="M9.4,33.3c-0.5,0-1-0.4-1-1c0,0,0,0,0,0v-8c0-0.6,0.4-1,1-1c0.5,0,1,0.4,1,1v8
				C10.4,32.8,10,33.3,9.4,33.3C9.4,33.3,9.4,33.3,9.4,33.3z"/>
			<path id="Path_1501_1_" class="st0" d="M13.4,29.3h-8c-0.6,0-1-0.4-1-1c0-0.6,0.4-1,1-1c0,0,0,0,0,0h8c0.6,0,1,0.4,1,1
				C14.4,28.9,14,29.3,13.4,29.3C13.4,29.3,13.4,29.3,13.4,29.3z"/>
		</g>
	</g>
</g>
</svg>
