<svg width="17" height="17" viewBox="0 0 17 17" fill="none" xmlns="http://www.w3.org/2000/svg">
  <g clip-path="url(#clip0_1930_1565)">
    <path d="M16.8377 14.2247L9.53644 1.57851C9.32012 1.20381 8.93267 0.980122 8.5 0.980122C8.06733 0.980122 7.67988 1.20381 7.46356 1.57851L0.162264 14.2247C-0.0540879 14.5994 -0.0540879 15.0468 0.162264 15.4215C0.378582 15.7962 0.766029 16.0199 1.1987 16.0199H15.8013C16.234 16.0199 16.6214 15.7962 16.8377 15.4215C17.0541 15.0468 17.0541 14.5994 16.8377 14.2247ZM15.9741 14.9228C15.9526 14.9601 15.9015 15.0226 15.8013 15.0226H1.1987C1.09849 15.0226 1.04743 14.9601 1.02598 14.9228C1.00449 14.8856 0.975873 14.8101 1.02598 14.7234L8.32724 2.07715C8.37735 1.99039 8.45697 1.97741 8.49997 1.97741C8.543 1.97741 8.62262 1.99036 8.67269 2.07715L15.974 14.7234C16.0242 14.8101 15.9955 14.8856 15.9741 14.9228Z" fill="#F40505" />
    <path d="M8.99879 5.51487H8.00146V10.8339H8.99879V5.51487Z" fill="#F40505" />
    <path d="M8.50034 13.161C8.86755 13.161 9.16523 12.8633 9.16523 12.4961C9.16523 12.1289 8.86755 11.8312 8.50034 11.8312C8.13313 11.8312 7.83545 12.1289 7.83545 12.4961C7.83545 12.8633 8.13313 13.161 8.50034 13.161Z" fill="#F40505" />
  </g>
  <defs>
    <clipPath id="clip0_1930_1565">
      <rect width="17" height="17" fill="white" />
    </clipPath>
  </defs>
</svg>