<svg width="30" height="30" viewBox="0 0 30 30" fill="none" xmlns="http://www.w3.org/2000/svg">
<path d="M13.4448 6.22032L4.71155 21.3457C4.5538 21.6188 4.47073 21.9287 4.4707 22.2441C4.47067 22.5596 4.55368 22.8694 4.71139 23.1426C4.86909 23.4158 5.09593 23.6426 5.3691 23.8003C5.64227 23.958 5.95214 24.041 6.26757 24.041H23.7327C24.0482 24.041 24.358 23.958 24.6312 23.8003C24.9044 23.6426 25.1312 23.4158 25.2889 23.1426C25.4466 22.8694 25.5296 22.5596 25.5296 22.2441C25.5296 21.9287 25.4465 21.6188 25.2887 21.3457L16.5564 6.22032C16.3987 5.94723 16.1719 5.72045 15.8988 5.56279C15.6257 5.40512 15.316 5.32211 15.0006 5.32211C14.6853 5.32211 14.3755 5.40512 14.1024 5.56279C13.8293 5.72045 13.6025 5.94723 13.4448 6.22032Z" fill="#F40505"/>
<path d="M15.1145 10.8853H14.8866C14.3258 10.8853 13.8711 11.34 13.8711 11.9009V16.755C13.8711 17.3159 14.3258 17.7705 14.8866 17.7705H15.1145C15.6753 17.7705 16.13 17.3159 16.13 16.755V11.9009C16.13 11.34 15.6753 10.8853 15.1145 10.8853Z" fill="white"/>
<path d="M15.0005 21.6204C15.6243 21.6204 16.13 21.1147 16.13 20.4909C16.13 19.8672 15.6243 19.3615 15.0005 19.3615C14.3768 19.3615 13.8711 19.8672 13.8711 20.4909C13.8711 21.1147 14.3768 21.6204 15.0005 21.6204Z" fill="white"/>
</svg>
