<svg width="24" height="24" viewBox="0 0 24 24" fill="none" xmlns="http://www.w3.org/2000/svg">
<g clip-path="url(#clip0_1064_13535)">
<path d="M12 0C5.38312 0 0 5.38312 0 12C0 18.6169 5.38312 24 12 24C18.6169 24 24 18.6169 24 12C24 5.38312 18.6169 0 12 0ZM12 22.2858C6.32849 22.2858 1.71423 17.6715 1.71423 12C1.71423 6.32849 6.32849 1.71423 12 1.71423C17.6715 1.71423 22.2858 6.32849 22.2858 12C22.2858 17.6715 17.6715 22.2858 12 22.2858Z" fill="#FEFEFE"/>
<path d="M16.2857 6.8569C16.0664 6.8569 15.847 6.94058 15.6796 7.10812L7.10829 15.6795C6.77339 16.0144 6.77339 16.5567 7.10829 16.8914C7.44301 17.2262 7.98555 17.2263 8.32027 16.8914L16.8916 8.32009C17.2265 7.98519 17.2265 7.44283 16.8916 7.10812C16.7243 6.94058 16.5051 6.8569 16.2857 6.8569Z" fill="#FEFEFE"/>
<path d="M7.71419 6.85701C7.49483 6.85701 7.27565 6.94069 7.10829 7.10823C6.77339 7.44295 6.77339 7.98549 7.10829 8.3202L15.6796 16.8916C16.0145 17.2265 16.5569 17.2265 16.8916 16.8916C17.2263 16.5568 17.2265 16.0143 16.8916 15.6796L8.32027 7.10823C8.15291 6.94069 7.93355 6.85701 7.71419 6.85701Z" fill="#FEFEFE"/>
</g>
<defs>
<clipPath id="clip0_1064_13535">
<rect width="24" height="24" fill="white" transform="matrix(1 0 0 -1 0 24)"/>
</clipPath>
</defs>
</svg>
