<svg xmlns="http://www.w3.org/2000/svg" width="30" height="30" viewBox="0 0 30 30">
  <g id="Group_1911" data-name="Group 1911" transform="translate(9391 -1552)">
    <g id="Group_1109" data-name="Group 1109" transform="translate(-9391 1551.5)">
      <circle id="Ellipse_34" data-name="Ellipse 34" cx="15" cy="15" r="15" transform="translate(0 0.5)" fill="#f6f6f6"/>
    </g>
    <g id="radiography" transform="translate(-9383 1560)">
      <path id="Path_1712" data-name="Path 1712" d="M13.083,0H.395A.4.4,0,0,0,0,.395V13.083a.4.4,0,0,0,.395.395H13.083a.4.4,0,0,0,.395-.395V.395A.4.4,0,0,0,13.083,0Zm-.395,12.688H.79V.79h11.9Z" fill="#2659B6"/>
      <path id="Path_1713" data-name="Path 1713" d="M422.173,422.7a.395.395,0,1,0-.108-.47A.4.4,0,0,0,422.173,422.7Z" transform="translate(-410.92 -410.887)" fill="#2659B6"/>
      <path id="Path_1714" data-name="Path 1714" d="M60.036,422.489a.395.395,0,1,0,.25-.447A.4.4,0,0,0,60.036,422.489Z" transform="translate(-58.449 -410.909)" fill="#2659B6"/>
      <path id="Path_1715" data-name="Path 1715" d="M422.036,60.5a.395.395,0,1,0,.236-.442A.4.4,0,0,0,422.036,60.5Z" transform="translate(-410.92 -58.446)" fill="#2659B6"/>
      <path id="Path_1716" data-name="Path 1716" d="M60.169,60.7a.395.395,0,1,0-.108-.47A.4.4,0,0,0,60.169,60.7Z" transform="translate(-58.445 -58.418)" fill="#2659B6"/>
      <path id="Path_1717" data-name="Path 1717" d="M124.075,60.175a1.7,1.7,0,0,0,.188-.011.8.8,0,0,1,.732.275c.082.106.17.215.261.325a1.013,1.013,0,0,0,1.535,0c.092-.11.18-.22.261-.325a.8.8,0,0,1,.731-.275,1.693,1.693,0,0,0,.189.011,1.613,1.613,0,0,0,1.184-.506,1.394,1.394,0,0,0,.377-1.063,1.52,1.52,0,0,0-1.46-1.352h0a1.609,1.609,0,0,0-1.411.658.6.6,0,0,1-.229.2l-.016.007V55.906a2.364,2.364,0,0,0,2.573.323.395.395,0,0,0-.349-.709,1.559,1.559,0,0,1-.695.16,1.509,1.509,0,0,1-1.528-1.392,2.756,2.756,0,0,0,1.78.631,2.91,2.91,0,0,0,.713-.088.395.395,0,1,0-.194-.766,2.122,2.122,0,0,1-.519.064,1.653,1.653,0,0,1-1.783-1.475v-.007a2.225,2.225,0,0,0,2.6.223.395.395,0,1,0-.407-.677,1.437,1.437,0,0,1-.741.206,1.466,1.466,0,0,1-1.454-1.475.395.395,0,0,0-.79,0,1.466,1.466,0,0,1-1.454,1.475,1.437,1.437,0,0,1-.741-.206.395.395,0,1,0-.407.677,2.225,2.225,0,0,0,2.6-.223v.007a1.653,1.653,0,0,1-1.783,1.475,2.121,2.121,0,0,1-.519-.064.395.395,0,0,0-.194.766,2.91,2.91,0,0,0,.713.088,2.756,2.756,0,0,0,1.78-.631A1.509,1.509,0,0,1,124.1,55.68a1.559,1.559,0,0,1-.695-.16.395.395,0,0,0-.349.709,2.364,2.364,0,0,0,2.574-.323v2.217l-.016-.007a.605.605,0,0,1-.229-.2,1.608,1.608,0,0,0-1.411-.658,1.52,1.52,0,0,0-1.46,1.352,1.394,1.394,0,0,0,.377,1.063A1.613,1.613,0,0,0,124.075,60.175Zm-.773-1.508a.739.739,0,0,1,.719-.624.814.814,0,0,1,.718.323,1.384,1.384,0,0,0,.532.461,1.749,1.749,0,0,0,1.508,0,1.384,1.384,0,0,0,.532-.461.815.815,0,0,1,.718-.323.739.739,0,0,1,.719.624.613.613,0,0,1-.169.466.822.822,0,0,1-.6.252.9.9,0,0,1-.1-.006,1.6,1.6,0,0,0-1.445.578c-.075.1-.157.2-.243.3a.225.225,0,0,1-.322,0c-.085-.1-.167-.2-.243-.3a1.576,1.576,0,0,0-1.252-.588c-.1,0-.2.015-.293.016a.822.822,0,0,1-.6-.252A.613.613,0,0,1,123.3,58.667Z" transform="translate(-119.285 -49.2)" fill="#2659B6"/>
    </g>
  </g>
</svg>
