<svg width="25" height="25" viewBox="0 0 25 25" fill="none" xmlns="http://www.w3.org/2000/svg">
<path d="M8.85417 19.7917H2.60417C1.16771 19.7917 0 18.6229 0 17.1875V4.6875C0 3.25208 1.16771 2.08333 2.60417 2.08333H18.2292C19.6656 2.08333 20.8333 3.25208 20.8333 4.6875V8.85417C20.8333 9.14271 20.6 9.375 20.3125 9.375C20.025 9.375 19.7917 9.14271 19.7917 8.85417V4.6875C19.7917 3.82604 19.0906 3.125 18.2292 3.125H2.60417C1.74271 3.125 1.04167 3.82604 1.04167 4.6875V17.1875C1.04167 18.049 1.74271 18.75 2.60417 18.75H8.85417C9.14167 18.75 9.375 18.9833 9.375 19.2708C9.375 19.5583 9.14167 19.7917 8.85417 19.7917Z" fill="#FCCF59"/>
<path d="M20.3125 7.29167H0.520833C0.233333 7.29167 0 7.05833 0 6.77083C0 6.48333 0.233333 6.25 0.520833 6.25H20.3125C20.6 6.25 20.8333 6.48333 20.8333 6.77083C20.8333 7.05833 20.6 7.29167 20.3125 7.29167Z" fill="#FCCF59"/>
<path d="M4.68758 5.20833C4.40008 5.20833 4.16675 4.975 4.16675 4.6875V0.520833C4.16675 0.233333 4.40008 0 4.68758 0C4.97508 0 5.20841 0.233333 5.20841 0.520833V4.6875C5.20841 4.975 4.97508 5.20833 4.68758 5.20833Z" fill="#FCCF59"/>
<path d="M16.1458 5.20833C15.8583 5.20833 15.625 4.975 15.625 4.6875V0.520833C15.625 0.233333 15.8583 0 16.1458 0C16.4333 0 16.6667 0.233333 16.6667 0.520833V4.6875C16.6667 4.975 16.4333 5.20833 16.1458 5.20833Z" fill="#FCCF59"/>
<path d="M17.1874 20.8333C17.0489 20.8333 16.9166 20.7781 16.8187 20.6812L14.7354 18.5979C14.5322 18.3948 14.5322 18.0646 14.7354 17.8615C14.9385 17.6583 15.2687 17.6583 15.4718 17.8615L17.1614 19.551L20.4406 15.8031C20.6301 15.5854 20.9593 15.5646 21.1749 15.7542C21.3916 15.9437 21.4135 16.2729 21.2239 16.4896L17.5781 20.6562C17.4833 20.7646 17.3479 20.8292 17.2041 20.8333C17.1989 20.8333 17.1937 20.8333 17.1874 20.8333Z" fill="#FCCF59"/>
<path d="M18.2291 25C14.4958 25 11.4583 21.9625 11.4583 18.2292C11.4583 14.4958 14.4958 11.4583 18.2291 11.4583C21.9624 11.4583 24.9999 14.4958 24.9999 18.2292C24.9999 21.9625 21.9624 25 18.2291 25ZM18.2291 12.5C15.0708 12.5 12.4999 15.0698 12.4999 18.2292C12.4999 21.3885 15.0708 23.9583 18.2291 23.9583C21.3874 23.9583 23.9583 21.3885 23.9583 18.2292C23.9583 15.0698 21.3874 12.5 18.2291 12.5Z" fill="#FCCF59"/>
</svg>
