<svg width="25" height="24" viewBox="0 0 25 24" fill="none" xmlns="http://www.w3.org/2000/svg">
<path d="M6.63873 3.20736C7.56414 2.34559 8.7817 1.86646 10.0462 1.86646H15.146C16.4106 1.86646 17.6281 2.34559 18.5535 3.20736L21.9154 6.3381C22.9311 7.28393 23.5079 8.60934 23.5079 9.9972V14.0588C23.5079 15.4466 22.9311 16.772 21.9154 17.7178L18.5535 20.8486C17.6281 21.7104 16.4106 22.1895 15.146 22.1895H10.0462C8.7817 22.1895 7.56414 21.7104 6.63873 20.8486L3.27683 17.7178C2.26117 16.772 1.68433 15.4466 1.68433 14.0588V9.9972C1.68433 8.60934 2.26117 7.28393 3.27683 6.3381L6.63873 3.20736Z" fill="#C5A709" stroke="#C5A709" stroke-width="2" stroke-linecap="round" stroke-linejoin="round"/>
<path d="M12.5967 7.96338V12.028" stroke="white" stroke-width="2" stroke-linecap="round" stroke-linejoin="round"/>
<path d="M12.5967 16.0926H12.6072" stroke="white" stroke-width="2" stroke-linecap="round" stroke-linejoin="round"/>
</svg>
