<svg width="72" height="72" viewBox="0 0 72 72" fill="none" xmlns="http://www.w3.org/2000/svg">
<path d="M56.0779 26.6666C57.759 25.8898 59.7746 26.6194 60.324 28.3879C61.9787 33.7138 61.8508 39.4696 59.9045 44.7614C57.5701 51.1086 52.8109 56.2685 46.6735 59.1066C40.536 61.9447 33.5228 62.2285 27.1762 59.8957C21.8847 57.9507 17.4178 54.3195 14.4331 49.6087C13.442 48.0445 14.192 46.036 15.8726 45.2583V45.2583C17.5532 44.4805 19.5233 45.2359 20.5867 46.7519C22.7719 49.8673 25.8687 52.2693 29.4894 53.6001C34.167 55.3195 39.3359 55.1103 43.8593 53.0186C48.3828 50.9268 51.8904 47.1238 53.6109 42.4458C54.9427 38.8249 55.1193 34.9092 54.1619 31.2261C53.696 29.4337 54.3968 27.4433 56.0779 26.6666V26.6666Z" fill="#D2DCDE"/>
<path d="M19.228 50.7603C17.9013 51.9278 15.86 51.8078 14.8702 50.3436C12.5413 46.8987 11.0876 42.9152 10.6595 38.7379C10.1218 33.4926 11.2278 28.2006 13.8244 23.5931C16.4211 18.9856 20.3803 15.29 25.1551 13.0169C29.9299 10.7438 35.2845 10.0054 40.4791 10.9038C45.6738 11.8021 50.4521 14.2928 54.1538 18.0318C57.8556 21.7708 60.298 26.5734 61.1437 31.7763C61.9895 36.9791 61.1967 42.3252 58.875 47.076C57.022 50.8676 54.2683 54.1306 50.876 56.5897C49.4504 57.6232 47.4973 57.0423 46.6529 55.497V55.497C45.8118 53.9576 46.3961 52.0466 47.7733 50.9602C50.0304 49.1798 51.8714 46.9072 53.1448 44.3015C54.8849 40.7408 55.4791 36.7338 54.8452 32.8343C54.2114 28.9348 52.3807 25.3352 49.6063 22.5328C46.8318 19.7305 43.2505 17.8637 39.3571 17.1904C35.4637 16.5171 31.4504 17.0705 27.8717 18.7742C24.293 20.4779 21.3256 23.2477 19.3794 26.7011C17.4332 30.1544 16.6043 34.1207 17.0072 38.0521C17.3007 40.915 18.2368 43.6565 19.7295 46.0789C20.6562 47.5829 20.554 49.5933 19.228 50.7603V50.7603Z" fill="#FFC107"/>
<path d="M32.0142 40H25.5649V38.6035L28.5356 35.4805C29.2677 34.6468 29.6338 33.9845 29.6338 33.4937C29.6338 33.0959 29.547 32.7933 29.3735 32.5859C29.2 32.3786 28.9482 32.2749 28.6182 32.2749C28.2923 32.2749 28.0278 32.4146 27.8247 32.6938C27.6216 32.9689 27.52 33.3138 27.52 33.7285H25.3745C25.3745 33.1615 25.5163 32.6388 25.7998 32.1606C26.0833 31.6782 26.4769 31.3016 26.9805 31.0308C27.484 30.7599 28.0469 30.6245 28.6689 30.6245C29.6676 30.6245 30.4357 30.8551 30.9731 31.3164C31.5148 31.7777 31.7856 32.4399 31.7856 33.3032C31.7856 33.6672 31.7179 34.0226 31.5825 34.3696C31.4471 34.7124 31.2355 35.0742 30.9478 35.4551C30.6642 35.8317 30.2051 36.3374 29.5703 36.9722L28.377 38.3496H32.0142V40ZM33.4802 35.4805L34.0452 30.7578H39.447V32.4209H35.7844L35.5749 34.2554C35.7273 34.1665 35.9262 34.0882 36.1716 34.0205C36.4213 33.9528 36.6646 33.9189 36.9016 33.9189C37.8199 33.9189 38.5245 34.1919 39.0154 34.7378C39.5105 35.2795 39.758 36.0412 39.758 37.0229C39.758 37.6154 39.6247 38.1528 39.3581 38.6353C39.0958 39.1134 38.7255 39.4816 38.2473 39.7397C37.7691 39.9979 37.2042 40.127 36.5525 40.127C35.9727 40.127 35.4289 40.0085 34.9211 39.7715C34.4133 39.5303 34.0155 39.2023 33.7278 38.7876C33.44 38.3687 33.2982 37.8968 33.3025 37.3721H35.448C35.4691 37.7106 35.5771 37.9793 35.7717 38.1782C35.9664 38.3771 36.2224 38.4766 36.5398 38.4766C37.2592 38.4766 37.6189 37.9434 37.6189 36.877C37.6189 35.891 37.1788 35.3979 36.2986 35.3979C35.7992 35.3979 35.4268 35.5588 35.1814 35.8804L33.4802 35.4805ZM41.1479 32.5352C41.1479 31.9639 41.3341 31.5026 41.7065 31.1514C42.0789 30.8001 42.5783 30.6245 43.2046 30.6245C43.8393 30.6245 44.3408 30.8001 44.709 31.1514C45.0771 31.4984 45.2612 31.9702 45.2612 32.5669V33.0239C45.2612 33.5952 45.0771 34.0544 44.709 34.4014C44.3408 34.7484 43.8436 34.9219 43.2173 34.9219C42.5952 34.9219 42.0937 34.7505 41.7129 34.4077C41.3362 34.0607 41.1479 33.5868 41.1479 32.9858V32.5352ZM42.5254 33.0239C42.5254 33.244 42.5867 33.4238 42.7095 33.5635C42.8322 33.6989 43.0014 33.7666 43.2173 33.7666C43.6616 33.7666 43.8838 33.4831 43.8838 32.916V32.5352C43.8838 32.3151 43.8245 32.1353 43.706 31.9956C43.5875 31.8517 43.4204 31.7798 43.2046 31.7798C42.9972 31.7798 42.8322 31.8496 42.7095 31.9893C42.5867 32.1247 42.5254 32.3109 42.5254 32.5479V33.0239ZM45.5405 37.7339C45.5405 37.1584 45.7267 36.6971 46.0991 36.3501C46.4757 36.0031 46.9751 35.8296 47.5971 35.8296C48.2277 35.8296 48.7291 36.001 49.1015 36.3438C49.4739 36.6865 49.6601 37.1647 49.6601 37.7783V38.2227C49.6601 38.7982 49.4761 39.2594 49.1079 39.6064C48.7397 39.9535 48.2404 40.127 47.6098 40.127C46.9878 40.127 46.4863 39.9556 46.1054 39.6128C45.7288 39.2658 45.5405 38.7918 45.5405 38.1909V37.7339ZM46.9116 38.2227C46.9116 38.4215 46.9793 38.5972 47.1147 38.7495C47.2501 38.8976 47.4152 38.9717 47.6098 38.9717C48.0203 38.9717 48.2425 38.777 48.2763 38.3877L48.2827 37.7339C48.2827 37.5096 48.2213 37.3298 48.0986 37.1943C47.9759 37.0547 47.8087 36.9849 47.5971 36.9849C47.394 36.9849 47.2311 37.0505 47.1084 37.1816C46.9857 37.3086 46.9201 37.4821 46.9116 37.7021V38.2227ZM43.6235 39.3081L42.6269 38.8066L47.1401 31.583L48.1367 32.0845L43.6235 39.3081Z" fill="#817F7F"/>
</svg>
