<svg width="18" height="18" viewBox="0 0 18 18" fill="none" xmlns="http://www.w3.org/2000/svg">
<rect x="0.5" y="0.5" width="17" height="17" rx="2.5" fill="white" stroke="#FF7B54"/>
<path d="M12.6064 10.7598C12.5062 11.8216 12.1143 12.651 11.4307 13.248C10.7471 13.8405 9.83789 14.1367 8.70312 14.1367C7.91016 14.1367 7.21061 13.9499 6.60449 13.5762C6.00293 13.1979 5.53809 12.6624 5.20996 11.9697C4.88184 11.277 4.71094 10.4727 4.69727 9.55664V8.62695C4.69727 7.68815 4.86361 6.861 5.19629 6.14551C5.52897 5.43001 6.00521 4.87858 6.625 4.49121C7.24935 4.10384 7.9694 3.91016 8.78516 3.91016C9.88346 3.91016 10.7676 4.20866 11.4375 4.80566C12.1074 5.40267 12.4971 6.24577 12.6064 7.33496H10.8838C10.8018 6.61947 10.5921 6.10449 10.2549 5.79004C9.9222 5.47103 9.43229 5.31152 8.78516 5.31152C8.0332 5.31152 7.45443 5.58724 7.04883 6.13867C6.64779 6.68555 6.44271 7.48991 6.43359 8.55176V9.43359C6.43359 10.5091 6.625 11.3294 7.00781 11.8945C7.39518 12.4596 7.96029 12.7422 8.70312 12.7422C9.38216 12.7422 9.89258 12.5895 10.2344 12.2842C10.5762 11.9788 10.7926 11.4707 10.8838 10.7598H12.6064Z" fill="#FF7B54"/>
</svg>
