<svg width="19" height="18" viewBox="0 0 19 18" fill="none" xmlns="http://www.w3.org/2000/svg">
<rect x="1.49658" y="0.5" width="17" height="17" rx="2.5" fill="white" stroke="#23049D"/>
<path d="M12.2104 11.4365C12.2104 10.999 12.0555 10.6618 11.7456 10.4248C11.4403 10.1878 10.8866 9.94857 10.0845 9.70703C9.28239 9.46549 8.64437 9.19661 8.17041 8.90039C7.26351 8.33073 6.81006 7.58789 6.81006 6.67188C6.81006 5.86979 7.1359 5.20898 7.7876 4.68945C8.44385 4.16992 9.29378 3.91016 10.3374 3.91016C11.0301 3.91016 11.6476 4.03776 12.1899 4.29297C12.7323 4.54818 13.1584 4.91276 13.4683 5.38672C13.7782 5.85612 13.9331 6.37793 13.9331 6.95215H12.2104C12.2104 6.43262 12.0464 6.02702 11.7183 5.73535C11.3947 5.43913 10.9299 5.29102 10.3237 5.29102C9.75863 5.29102 9.31885 5.41178 9.00439 5.65332C8.6945 5.89486 8.53955 6.2321 8.53955 6.66504C8.53955 7.02962 8.70817 7.33496 9.04541 7.58105C9.38265 7.82259 9.93864 8.05957 10.7134 8.29199C11.4881 8.51986 12.1102 8.7819 12.5796 9.07812C13.049 9.36979 13.3931 9.70703 13.6118 10.0898C13.8306 10.4681 13.9399 10.9124 13.9399 11.4229C13.9399 12.2523 13.6209 12.9131 12.9829 13.4053C12.3494 13.8929 11.4881 14.1367 10.3989 14.1367C9.67887 14.1367 9.01579 14.0046 8.40967 13.7402C7.80811 13.4714 7.3387 13.1022 7.00146 12.6328C6.66878 12.1634 6.50244 11.6165 6.50244 10.9922H8.23193C8.23193 11.5573 8.41878 11.9948 8.79248 12.3047C9.16618 12.6146 9.70166 12.7695 10.3989 12.7695C11.0005 12.7695 11.4517 12.6488 11.7524 12.4072C12.0578 12.1611 12.2104 11.8376 12.2104 11.4365Z" fill="#23049D"/>
</svg>
